<?xml version="1.0" standalone="no"?>
<!DOCTYPE svg PUBLIC "-//W3C//DTD SVG 1.1//EN" "http://www.w3.org/Graphics/SVG/1.1/DTD/svg11.dtd">
<svg version="1.1" xmlns="http://www.w3.org/2000/svg" xmlns:xlink="http://www.w3.org/1999/xlink"><metadata>This SVG WebFont was generated by YouWorkForThem.
</metadata><defs><font horiz-adv-x="977" id="ywftsvg"><font-face ascent="3276" bbox="-1697 -2085 11962 7158" cap-height="4201" descent="-820" font-family="" font-stretch="normal" font-weight="400" panose-1="2 0 6 0 0 0 0 0 0 0" underline-position="0" underline-thickness="0" unicode-range="U+0020-E049" units-per-em="4096" x-height="2975"/><missing-glyph horiz-adv-x="1024"/><glyph d="M4880 0h-877v40h264l-306 834h-704l305 -834h285v-40h-877v40h264l-306 834h-1077l-305 -834h414v-40h-877v40h420l306 834h-991l-305 -834h414v-40h-877v40h420l1525 4161h42l496 -1351l495 1351h42l1525 -4161h285v-40zM1823 914l545 1487l-495 1352l-1040 -2839h990z M2913 914l-523 1429l-524 -1429h1047zM3946 914l-1040 2839l-352 -961l688 -1878h704z" glyph-name="uniE000" horiz-adv-x="4930" unicode="AA"/><glyph d="M2594 -17q-154 0 -304 26q-150 -26 -304 -26q-392 0 -754 167q-347 161 -615 454t-415 673q-152 395 -152 824q0 428 152 823q147 380 415 673t615 454q362 167 754 167q154 0 304 -26q150 26 304 26q392 0 754 -167q402 -186 692 -543l-171 -190q-204 371 -507.5 597.5 t-669.5 259.5q-26 3 -98 3q-49 0 -98 -3h-1q-40 -3 -80 -9q167 -41 326 -115q401 -186 692 -543l-171 -190q-174 317 -422.5 530t-549.5 292q-273 -72 -504 -255t-402.5 -455.5t-267.5 -611t-96 -717.5q0 -380 96 -718.5t267.5 -610.5t402.5 -455.5t504 -255.5 q325 86 589 327t437 599l210 -171q-78 -111 -170 -212q-268 -293 -615 -454q-159 -74 -326 -115q40 -6 80 -9h1q49 -3 98 -3t97 3h1q392 36 711 291.5t520 669.5l210 -171q-78 -111 -170 -212q-268 -293 -615 -454q-362 -167 -754 -167zM1986 23q49 0 98 3h1q40 3 80 9 q-167 41 -325 115q-348 161 -615.5 454t-414.5 673q-152 395 -152 824q0 428 152 823q147 380 414.5 673t615.5 454q158 74 325 115q-40 6 -80 9h-1q-25 3 -98 3q-49 0 -97 -3h-1q-311 -28 -578 -197.5t-468.5 -451t-315 -646.5t-113.5 -779q0 -415 113.5 -780t315 -646.5 t468.5 -451t578 -197.5h1q48 -3 97 -3z" glyph-name="uniE001" horiz-adv-x="4183" unicode="CC"/><glyph d="M1986 -17q-392 0 -754 167q-347 161 -615 454t-415 673q-152 395 -152 824q0 428 152 823q147 380 415 673t615 454q362 167 754 167q393 0 754 -167q402 -186 693 -543l-171 -190q-204 371 -507.5 597.5t-670.5 259.5q-25 3 -98 3q-49 0 -97 -3h-1q-311 -28 -578 -197.5 t-468.5 -451t-315.5 -646.5t-114 -779q0 -415 114 -780t315.5 -646.5t468.5 -451t578 -197.5h1q48 -3 97 -3t98 3q393 36 712 291.5t519 669.5l211 -171q-78 -111 -170 -212q-268 -293 -616 -454q-361 -167 -754 -167zM4789 0h-877v40h284v2374h-1998v-2094h284v-40h-877v40 h284v3585h-284v40h877v-40h-431q42 0 69 -33q48 -59 67 -179q11 -73 11 -115v-1124h1998v1707h-284v40h877v-40h-431q42 0 69.5 -33.5t43 -82t23 -97t9.5 -81.5l2 -33v-3794h284v-40z" glyph-name="uniE002" horiz-adv-x="4839" unicode="CH"/><glyph d="M2906 -17q-235 0 -460 60q-225 -60 -460 -60q-392 0 -754 167q-348 161 -615.5 454t-414.5 673q-152 395 -152 824q0 428 152 823q147 380 414.5 673t615.5 454q362 167 754 167q235 0 460 -60q225 60 460 60q393 0 755 -167q401 -186 692 -543l-171 -190 q-204 371 -507.5 597.5t-669.5 259.5h-1q-49 3 -98 3t-97 -3h-1q-132 -11 -256 -49q95 -32 188 -75q402 -186 692 -543l-171 -190q-150 274 -357.5 471.5t-457.5 299.5q-243 -99 -446 -288.5t-352.5 -452t-232 -579.5t-82.5 -668q0 -352 82.5 -669t232 -579t352.5 -452 t446 -289q469 196 770 692v942l2 34q2 33 9.5 81.5t23 97t43 82t69.5 33.5h-1539v40h2905v-40h-284v-1257l1 -1l-1 -1q-78 -111 -169 -211q-268 -293 -615 -454q-362 -167 -755 -167zM1986 23q49 0 97 3h1q132 11 257 49q-96 32 -189 75q-347 161 -615 454t-415 673 q-152 395 -152 824q0 428 152 823q147 380 415 673t615 454q93 43 189 75q-125 38 -257 49h-1q-48 3 -97 3t-97 -3h-2q-310 -28 -577.5 -197.5t-468.5 -451t-315 -646.5t-114 -779q0 -415 114 -780t315 -646.5t468.5 -451t577.5 -197.5h2q48 -3 97 -3zM2906 23q49 0 98 3h1 q345 31 636 236t496 542v942l1 34q2 33 9.5 81.5t23.5 97t43 82t69 33.5h-758v-1259q-136 -194 -309 -350q-297 -267 -664 -390q124 -38 256 -49h1q48 -3 97 -3z" glyph-name="uniE003" horiz-adv-x="4779" unicode="GG"/><glyph d="M4958 0h-877v40h264l-306 834h-2110l-238 -650h415v-40h-877v40h420l1457 3977h42l1525 -4161h285v-40zM4024 914l-1040 2839l-1040 -2839h2080zM2592 0h-2542v40h285v4121h-285v40h877v-40h-431q43 0 70 -33.5t43 -82t23 -97t9 -81.5l2 -33v-3794h1949v-40z" glyph-name="uniE004" horiz-adv-x="5008" unicode="LA"/><glyph d="M2592 0h-2542v40h284v4121h-284v40h877v-40h-431q42 0 69.5 -33.5t43 -82t23 -97t9.5 -81.5l2 -33v-3794h1949v-40zM2592 451h-1418v40h284v3670h-284v40h1418v-40h-964q86 -13 119 -168q19 -94 19 -159v-1468h826v-40h-826v-1835h826v-40z" glyph-name="uniE005" horiz-adv-x="2642" unicode="LE"/><glyph d="M2592 0h-2542v40h284v4121h-284v40h877v-40h-431q42 0 69.5 -33.5t43 -82t23 -97t9.5 -81.5l2 -33v-3794h1949v-40zM2592 451h-1418v40h284v3670h-284v40h877v-40h-431q48 0 82 -51q27 -41 42 -106q8 -30 8 -33l9 -58q6 -57 6 -79v-3343h825v-40z" glyph-name="uniE006" horiz-adv-x="2642" unicode="LL"/><glyph d="M4923 -17q-393 0 -755 167q-417 194 -714 570q-296 -376 -714 -570q-361 -167 -754 -167q-392 0 -754 167q-347 161 -615 454t-415 673q-152 395 -152 824q0 428 152 823q147 380 415 673t615 454q362 167 754 167q393 0 754 -167q418 -193 714 -570q297 377 714 570 q362 167 755 167q392 0 754 -167q347 -161 615 -454t415 -673q152 -395 152 -823q0 -429 -152 -824q-147 -380 -415 -673t-615 -454q-362 -167 -754 -167zM1986 23q73 0 98 3q384 35 697.5 280t515.5 644q-92 155 -158 327q-152 395 -152 824q0 428 152 823q66 172 158 327 q-202 399 -515.5 644t-697.5 280q-25 3 -98 3q-49 0 -97 -3h-1q-311 -28 -578 -197.5t-468.5 -451t-315.5 -646.5t-114 -779q0 -415 114 -780t315.5 -646.5t468.5 -451t578 -197.5h1q48 -3 97 -3zM3454 1350q106 354 106 751q0 396 -106 750q-105 -354 -105 -750 q0 -397 105 -751zM4923 23q72 0 97 3h1q310 27 577.5 197t469 451.5t315 646.5t113.5 780q0 414 -113.5 779t-315 647t-469 451.5t-577.5 196.5h-1q-25 3 -97 3q-49 0 -98 -3h-1q-383 -35 -696.5 -280t-515.5 -644q92 -155 158 -327q152 -395 152 -823q0 -429 -152 -824 q-66 -172 -158 -327q202 -399 515.5 -643.5t696.5 -280.5h1q49 -3 98 -3z" glyph-name="uniE007" horiz-adv-x="6909" unicode="OO"/><glyph d="M6133 -701l-697 760q-251 -76 -514 -76q-392 0 -754 167q-417 194 -714 570q-297 -376 -714 -570q-362 -167 -754 -167q-393 0 -754 167q-348 161 -615.5 454t-414.5 673q-152 395 -152 824q0 428 152 823q147 380 414.5 673t615.5 454q361 167 754 167q392 0 754 -167 q417 -193 714 -570q297 377 714 570q362 167 754 167t754 -167q348 -161 615.5 -454t414.5 -673q152 -395 152 -823q0 -429 -152 -824q-147 -380 -414.5 -673t-615.5 -454q-97 -45 -198 -78l685 -746zM1986 23q72 0 97 3h1q383 35 696.5 280t516.5 644q-93 155 -159 327 q-152 395 -152 824q0 428 152 823q66 172 159 327q-203 399 -516.5 644t-696.5 280h-1q-25 3 -97 3q-49 0 -98 -3h-1q-311 -28 -578 -197.5t-468.5 -451t-315 -646.5t-113.5 -779q0 -415 113.5 -780t315 -646.5t468.5 -451t578 -197.5h1q49 -3 98 -3zM3454 1350 q106 354 106 751q0 396 -106 750q-106 -354 -106 -750q0 -397 106 -751zM4922 23q72 0 98 3q190 16 365 88l-359 391l30 27l369 -402q234 105 429.5 296t339 450t223 570t79.5 655q0 414 -114 779t-315.5 647t-468.5 451.5t-578 196.5q-26 3 -98 3q-49 0 -97 -3h-2 q-383 -35 -696.5 -280t-515.5 -644q92 -155 159 -327q152 -395 152 -823q0 -429 -152 -824q-67 -172 -159 -327q202 -399 515.5 -643.5t696.5 -280.5h2q48 -3 97 -3z" glyph-name="uniE008" horiz-adv-x="6908" unicode="OQ"/><glyph d="M2746 -4q-265 0 -509 118q-234 115 -414 323q-85 98 -152 209v-606h284v-40h-877v40h284v3391q-39 -42 -81 -81q-198 -186 -372 -283q-189 -104 -367 -123q-20 -3 -40 -3h-1q72 -7 109 -119q25 -79 31 -176l2 -33v-2573h284v-40h-877v40h284v2901h-284v40h415v1 q122 0 235 38q204 67 400 225q164 133 262 246q188 215 294 481q34 87 58 176q1 5 5 20.5t7 32.5q16 79 16 150q0 121 -58 249.5t-234 212.5q-135 61 -300 61q-8 0 -99.5 -1.5t-259.5 -80.5t-286 -242q-157 -224 -215 -491q-31 -146 -31 -294q0 -122 21 -245q26 63 82 101.5 t127 38.5q93 0 158.5 -65.5t65.5 -158.5q0 -94 -65.5 -159.5t-158.5 -65.5q-82 0 -143 50.5t-78 129.5q-49 182 -49 369q0 116 19 234q53 321 234 580q173 238 471 316q108 25 210 25q165 0 314 -66q186 -89 266 -262q49 -108 49 -237q0 -95 -25 -195q-32 -129 -90 -260 q3 -28 4 -44v-17v-1488q67 112 152 210q180 208 414 322q244 119 509 119t509 -119q234 -114 414 -322q185 -214 283 -486.5t98 -573.5q0 -300 -98 -572.5t-283 -486.5q-180 -208 -414 -323q-244 -118 -509 -118zM2707 36l9 1q201 0 377.5 114t310 314.5t209 465.5t75.5 567 t-75.5 566.5t-209 464.5t-310 313.5t-377.5 113.5l-63 -3q-314 -30 -568.5 -212.5t-413.5 -476.5v-1535q144 -259 318 -403t336 -205q220 -85 382 -85z" glyph-name="uniE038" horiz-adv-x="4014" unicode="ib"/><glyph d="M3858 0h-877v40h284v2548q0 61 -21.5 150.5t-87.5 150.5q-46 42 -124 42q-33 0 -71 -7q-30 -8 -60 -19h-1q-248 -89 -468 -390q-252 -347 -456 -953q-123 -378 -198 -711t-107 -525v-286h284v-40h-877v40h285v3392q-39 -42 -81 -81q-199 -186 -373 -283 q-210 -115 -405 -126h-3q74 -7 109 -119q25 -81 31 -176l2 -33v-2573h284v-40h-877v40h284v2901h-284v40h415v1q123 0 236 38q202 67 399 225q158 127 263 246q187 215 293 481q34 87 58 176l4 19q5 15 8 33v1q16 79 16 150q0 121 -58 249.5t-234 212.5q-135 61 -300 61 q-8 0 -99.5 -1.5t-259 -80.5t-286.5 -242q-157 -224 -215 -491q-31 -146 -31 -294q0 -122 21 -245q26 63 82 101.5t127 38.5q93 0 159 -65.5t66 -158.5t-66 -159t-159 -66q-82 0 -143 50.5t-78 129.5q-49 182 -49 369q0 116 19 234q53 321 234 580q173 238 471 316 q108 25 210 25q165 0 314 -66q186 -88 266 -262q49 -108 49 -237q0 -71 -15 -149l-14 -63q-33 -125 -86 -243v-1q3 -27 4 -44v-17v-3288q105 539 267 1028q206 613 462 964q325 444 710 444q89 0 155 -22q172 -56 247 -212q55 -111 62 -216v-2492h284v-40z" glyph-name="uniE039" horiz-adv-x="3908" unicode="ih"/><glyph d="M3589 0h-358l-1076 1821q-186 -373 -306 -725t-178 -581v-475h285v-40h-877v40h284v3391q-39 -42 -81 -81q-199 -186 -373 -283q-208 -115 -405 -126h-3q74 -7 109 -119q28 -88 32 -176l1 -33v-2573h284v-40h-877v40h285v2901h-285v40h416v1q122 0 235 38q202 67 399 225 q158 127 263 246q251 287 351 657v1q6 11 19 87q9 46 9 103q0 37 -6.5 111.5t-71 181t-214.5 181.5q-135 61 -300 61q-8 0 -99.5 -1.5t-259 -80.5t-286.5 -242q-157 -224 -214 -491q-32 -147 -32 -296q0 -121 21 -243q27 63 82.5 101.5t126.5 38.5q93 0 159 -65.5t66 -158.5 q0 -94 -66 -159.5t-159 -65.5q-82 0 -142.5 50.5t-77.5 129.5h-1q-48 183 -48 370q0 116 18 233q54 321 234 580q173 238 471 316q108 25 210 25q165 0 314 -66q186 -89 266 -262q49 -108 49 -236q0 -94 -25 -196l-4 -17q-33 -125 -86 -243q3 -28 4 -44v-17v-3167 q178 638 455 1186q348 668 761 944q287 190 600 190q88 0 179 -15v-297l-100 30q-100 30 -249 50q-69 9 -140 9q-82 0 -201.5 -17.5t-238.5 -117.5q-175 -164 -284.5 -318t-120.5 -179l-1 -1z" glyph-name="uniE040" horiz-adv-x="3768" unicode="ik"/><glyph d="M1955 0h-877v40h284v3392q-39 -42 -81 -81q-199 -186 -373 -283q-196 -108 -379 -124q-13 -2 -26 -2h-2q72 -7 109 -119q26 -83 31 -176l1 -33v-2573h285v-40h-877v40h284v2901h-284v40h415v1q122 0 235 38q204 67 400 225q164 133 262 246q188 215 293 481q35 87 58 176 l13 53q16 79 16 150q0 121 -58 249.5t-235 212.5q-135 61 -300 61q-8 0 -99.5 -1.5t-259 -80.5t-286.5 -242q-157 -224 -214 -491q-32 -146 -32 -294q0 -122 22 -245q26 63 81.5 101.5t126.5 38.5q93 0 159 -65.5t66 -158.5q0 -94 -66 -159.5t-159 -65.5q-82 0 -142.5 50.5 t-77.5 129.5q-49 184 -49 372q0 115 18 231q54 321 235 580q172 238 470 316q108 25 210 25q166 0 314 -66q187 -89 267 -262q49 -108 49 -237q0 -71 -15 -149l-1 -1q-6 -23 -9 -39.5t-5 -22.5q-33 -125 -85 -243l4 -62v-3794h284v-40z" glyph-name="uniE041" horiz-adv-x="2005" unicode="il"/><glyph d="M1767 0q-82 0 -155 28q-127 45 -205.5 138.5t-78.5 211.5v2563h-296v40h296v184l-4 -3q-185 -124 -423 -180l-6 -1q-140 -32 -295 -40q-41 -3 -83 -3q45 -14 71 -64q43 -86 52 -215l3 -46v-2573h284v-40h-877v40h284v2901h-284v40h554q411 22 698 214l26 18 q173 122 309 281q253 304 260 566v7q0 205 -168 327q-139 98 -369 98q-136 0 -280 -41q-99 -26 -233 -98t-267 -211.5t-229 -369.5q-42 -95 -56 -222q30 50 81 80t113 30q93 0 158.5 -65.5t65.5 -159.5q0 -93 -65.5 -158.5t-158.5 -65.5q-71 0 -126.5 38t-81.5 101l-2 -1 q-26 75 -26 159q0 129 60 279q100 237 237.5 382t276.5 219.5t242 101.5q150 42 295 42q46 0 92 -4q182 -20 296 -101q185 -137 185 -363v-5q-6 -225 -185 -481q-52 -74 -115 -144v-453h468v-40h-468v-2516q0 -59 8 -149.5t44 -160t115 -73.5q21 2 41 6q46 15 75 54t43.5 83 t20.5 76l5 32l122 -128q-61 -76 -150.5 -120.5t-193.5 -44.5z" glyph-name="uniE042" horiz-adv-x="2161" unicode="it"/><glyph d="M1656 -943q-111 0 -186 42t-122 110t-71.5 149.5t-33.5 164t-9 149.5q0 53 3 91q0 160 88 304q74 126 176 214t322 213q-265 97 -473 290q-197 184 -300.5 419t-103.5 493q0 259 103.5 493.5t300.5 419.5q198 183 448.5 280t526.5 97q296 0 564 -112q235 -97 411 -265 q196 -185 300 -419.5t104 -493.5q0 -258 -104 -493t-301 -419t-447.5 -281t-526.5 -97q-234 0 -452 71q-234 -132 -337 -219t-177 -213q-82 -132 -82 -281q0 -139 80 -233q52 -59 123 -85.5t149 -26.5q179 0 342 115q94 71 171.5 162.5t147.5 187.5q66 90 138 177 q165 194 364 309q222 129 450 138h26q113 0 225 -35t207 -101q216 -152 261 -384q9 -50 9 -101q0 -138 -66 -277q-87 -179 -249 -299q-64 -48 -162 -103t-222 -95t-264 -40q-40 0 -81 4q-95 9 -184.5 29.5t-194.5 65.5q-122 52 -300 157q-70 -81 -156 -142t-193 -95.5 t-242 -34.5zM2325 446q22 0 44 1.5t40 1.5q197 21 366 124.5t296.5 272t199 386t71.5 463.5q0 259 -79 486t-218.5 398.5t-324 269t-395.5 97.5t-395.5 -97.5t-324 -269t-218.5 -398.5t-79 -486q0 -246 71.5 -463.5t199 -386t296.5 -272.5q207 -127 450 -127zM3007 -887 q98 0 188 22q184 73 289 235q123 190 123 521q0 149 -27.5 249.5t-69 164.5t-86 98.5t-81.5 48.5t-55 16l-22 1q-95 -4 -174 -21q-129 -41 -224.5 -135.5t-172 -223t-147.5 -271.5q-60 -121 -127 -238.5t-148 -219.5q234 -138 375.5 -185t281.5 -58q39 -4 77 -4zM953 1h-877 v40h284v4121l-27 40q-131 197 -204 432q-79 261 -79 521q0 225 59 436q128 437 453.5 791t792.5 562q499 214 1035 214l82 -1q595 -23 1093 -296q517 -294 827 -790t337 -1071l1 -71q0 -249 -63 -497q-71 -280 -215 -532t-347 -451q-209 -204 -462 -334v1q-40 -18 -85 -18 q-85 0 -145.5 60.5t-60.5 145.5q0 86 60.5 146.5t145.5 60.5q86 0 146.5 -60.5t60.5 -146.5q0 -45 -19 -86q289 178 500.5 445t327.5 592.5t116 673.5l-1 70q-26 564 -331 1051.5t-812 775.5q-263 145 -559 218t-603 73q-259 0 -515.5 -52.5t-497.5 -157.5 q-458 -205 -778.5 -551.5t-445.5 -775.5q-57 -207 -57 -421q0 -255 75.5 -502.5t216.5 -454.5q121 -176 282 -305q2 -19 3.5 -40.5t1.5 -3815.5h284v-40z" glyph-name="uniE043" horiz-adv-x="4023" unicode="lg"/><glyph d="M651 -939q-220 0 -324 177q-81 138 -96 338q-4 58 -4 103l2 55l3 51q6 151 88 286q74 126 176 214t322 214q-265 96 -473 289q-196 185 -300 419.5t-104 493.5q0 258 104 493t300.5 419t447.5 281t527 97q304 0 577 -118q76 159 166 313.5t215 284.5q173 174 412 267 q218 83 449 83q100 0 208 -20q242 -43 387 -212q65 -65 65 -157q0 -93 -66 -159t-159 -66t-159 66t-66 159t66 158.5t159 65.5q15 0 30 -2q-111 74 -229 100t-201 26h-32q-230 0 -449.5 -85t-386.5 -252q-121 -126 -209.5 -277.5t-163.5 -308.5q199 -93 361 -244 q197 -184 301 -419t104 -493q0 -259 -104 -493.5t-301 -418.5t-447.5 -281t-526.5 -97q-234 0 -452 70q-234 -132 -337 -218.5t-177 -212.5q-73 -117 -81 -261l-1 -26q0 -127 80 -227q76 -84 185 -105q43 -8 87 -8q67 0 158 23.5t184.5 93t171 161t147.5 187.5 q66 90 138 177q165 193 364 310q222 128 450 137h20q237 0 438 -135q216 -153 261 -385q9 -50 9 -101q0 -137 -66 -277q-87 -178 -249 -299q-64 -48 -162 -102.5t-221.5 -94t-264.5 -41.5q-40 0 -81 4q-95 9 -184.5 29.5t-194.5 65.5q-123 52 -300 157q-70 -80 -156 -141.5 t-193.5 -96t-241.5 -34.5zM1320 451q42 0 83 2h1q197 21 366 124.5t296.5 272.5t199 386.5t71.5 463.5q0 259 -79 486t-218.5 398t-324.5 268.5t-395 97.5q-211 0 -395.5 -97.5t-324 -268.5t-219 -398t-79.5 -486q0 -246 72 -463.5t199 -386.5t296.5 -272.5t366.5 -124.5 q42 -2 84 -2zM2003 -882q97 0 187 21q182 72 289 235q123 189 123 521q0 265 -96 414q-72 111 -168 147q-46 17 -63 17q-12 0 -41 -1t-71.5 -6t-75.5 -14q-130 -41 -225 -135.5t-171.5 -223t-147.5 -271.5q-60 -121 -126.5 -238.5t-148.5 -219.5q234 -138 375 -185 q184 -61 360 -61zM4013 -4h-877v40h284v2901h-284v40h877v-40h-431q42 0 69 -33.5t43 -82t23.5 -97t9.5 -81.5l1 -34v-2573h285v-40z" glyph-name="uniE044" horiz-adv-x="4063" unicode="gi"/><glyph glyph-name=".notdef" horiz-adv-x="1024"/><glyph glyph-name="glyph1" horiz-adv-x="0"/><glyph glyph-name="glyph2" horiz-adv-x="1365"/><glyph glyph-name="space" horiz-adv-x="1316" unicode=" "/><glyph glyph-name="space" horiz-adv-x="1316" unicode=" "/><glyph d="M297 482h-171l-68 3709h308zM212 -10q-67 0 -113 47.5t-46 114.5v3q4 65 50 109t109 44q65 0 112 -47t47 -112t-47 -112t-112 -47z" glyph-name="exclam" horiz-adv-x="421" unicode="!"/><glyph d="M469 3470q-10 0 -15 11l-79 253q-5 16 -5 31q0 31 23.5 62.5t74.5 34.5q52 -2 80 -40q19 -27 19 -58q0 -14 -4 -30l-80 -253q-4 -11 -14 -11zM164 3470q-10 0 -15 11l-79 253q-5 16 -5 31q0 31 23.5 62.5t74.5 34.5q52 -2 80 -40q19 -27 19 -58q0 -14 -4 -30l-80 -253 q-4 -11 -14 -11z" glyph-name="quotedbl" horiz-adv-x="633" unicode="&quot;"/><glyph d="M2585 -10h-326l395 1160h-1674l-396 -1160h-326l396 1160h-604v40h617l614 1801h-729v40h742l395 1160h326l-395 -1160h1675l395 1160h326l-395 -1160h603v-40h-617l-613 -1801h728v-40h-742zM2668 1190l613 1801h-1674l-614 -1801h1675z" glyph-name="numbersign" horiz-adv-x="4274" unicode="#"/><glyph d="M1162 -10h-40v596q-340 4 -589 129q-207 105 -337.5 293t-144.5 402l-1 41q0 189 97 371q108 199 302 322l154 -181l-33 -15q-33 -15 -81 -53q-121 -94 -183 -272q-40 -114 -44 -274q0 -145 54 -264t147.5 -209.5t215 -150.5t257.5 -87q90 -11 186 -11v1557l-175 105 q-595 362 -595 742q0 76 20.5 139.5t50 113t57.5 82.5q92 115 266 175q158 53 350 53h26v597h40v-598q289 -13 478 -126q119 -73 186.5 -179.5t67.5 -217.5l-1 -28q-15 2 -244 4l2 50q0 236 -159 350q-127 91 -318 106l-12 1v-1028q254 -135 453 -250t337 -227t210.5 -235 t72.5 -276q0 -193 -123 -454q-32 -85 -87 -156q-127 -161 -357 -250q-203 -77 -452 -89l-54 -1v-597zM1122 2546v1008h-24q-108 0 -203 -17q-158 -37 -254 -118l-17 -17q-92 -95 -92 -226q0 -312 571 -620zM1162 627q27 0 52 1q263 13 464 96q241 100 355 286q67 153 67 276 q0 150 -102.5 276.5t-310.5 268t-525 329.5v-1533z" glyph-name="dollar" horiz-adv-x="2285" unicode="$"/><glyph d="M785 -10h-45l2217 4201h46zM1045 2003q-202 0 -388 87q-178 83 -316 234q-141 157 -216 355.5t-75 417.5t75 418t216 355q138 151 316 235q186 86 388 86q201 0 387 -86q179 -84 316 -235q142 -156 216.5 -355t74.5 -418t-74.5 -417.5t-216.5 -355.5q-137 -151 -316 -234 q-186 -87 -387 -87zM1045 2032q23 0 46 2h1q193 20 348 165t246.5 380t91.5 518q0 289 -96 528.5t-257 382.5t-361 154h-38q-201 -11 -361.5 -154t-257 -382.5t-96.5 -528.5q0 -283 92 -518t246.5 -380t348.5 -165q7 -2 47 -2zM2698 -10q-202 0 -388 86q-178 83 -316 235 q-141 156 -216 354.5t-75 417.5t75 418t216 355q138 152 316 235q186 86 388 86q201 0 387 -86q179 -83 316 -235q142 -156 216.5 -355t74.5 -418t-74.5 -417.5t-216.5 -354.5q-137 -152 -316 -235q-186 -86 -387 -86zM2698 19l47 1q193 21 347.5 166t246.5 379.5t92 517.5 q0 290 -96 529t-257 382t-361 154h-38q-201 -11 -362 -154t-257 -382t-96 -529q0 -283 92 -517.5t246.5 -379.5t348.5 -166q7 -1 47 -1z" glyph-name="percent" horiz-adv-x="3742" unicode="%"/><glyph d="M1628 -16h-12q-466 6 -873 283q-678 479 -678 1483q0 472 198 872q226 450 675 760q-496 794 -508 819l2615 1v-40h-1812q320 -58 619 -199q463 -219 817 -605q335 -367 508 -807q142 -369 142 -715q0 -67 -5 -133q-48 -501 -361 -947l473 -756h-365l-318 504 q-227 -232 -497 -366q-304 -151 -618 -154zM1628 24q314 6 592.5 146t499.5 372q-904 1436 -1761 2807q-31 -21 -61 -43q-52 -39 -137 -144t-169.5 -293t-133.5 -477q-36 -209 -36 -481q0 -103 5 -215q49 -890 399 -1304q161 -191 353.5 -276.5t392.5 -91.5h56zM2928 796 q299 434 346 910q5 66 5 132q0 345 -152.5 735t-486.5 758q-362 393 -823 605t-978 225h-129q49 0 94 -33q69 -53 124 -137z" glyph-name="ampersand" horiz-adv-x="3476" unicode="&amp;"/><glyph d="M164 3470q-11 0 -15 11l-79 253q-5 16 -5 31q0 31 23.5 62.5t74.5 34.5q52 -2 80 -40q19 -26 19 -56q0 -16 -5 -32l-79 -253q-4 -11 -14 -11z" glyph-name="quotesingle" horiz-adv-x="327" unicode="'"/><glyph d="M621 -3q-160 21 -289 303t-205.5 753t-76.5 1041t76.5 1041t205.5 753.5t289 302.5q-94 -21 -170 -303t-121 -753t-45 -1041t45 -1040.5t121 -753t170 -303.5z" glyph-name="parenleft" horiz-adv-x="671" unicode="("/><glyph d="M50 -3q94 21 170 303.5t121 753t45 1040.5t-45 1041t-121 753t-170 303q160 -20 289 -302.5t205.5 -753.5t76.5 -1041t-76.5 -1041t-205.5 -753t-289 -303z" glyph-name="parenright" horiz-adv-x="671" unicode=")"/><glyph d="M405 3615h-141l39 231l-182 -148l-70 122l219 81l-220 84l71 122l180 -150l-37 232h141l-40 -230l183 148l70 -122l-219 -81l219 -84l-70 -122l-180 149z" glyph-name="asterisk" horiz-adv-x="668" unicode="*"/><glyph d="M836 1408h-183v603h-603v182h603v603h183v-603h603v-182h-603v-603z" glyph-name="plus" horiz-adv-x="1489" unicode="+"/><glyph d="M181 -275l-24 32q46 48 84 102l2 4q18 23 35 59q8 16 8 31q0 16 -10 30q-10 10 -25 13t-33 3.5t-34 4.5q-65 23 -96 86q-13 32 -13 63q0 33 20.5 80t85.5 72q27 8 52 8q37 0 83 -22.5t69 -85.5q9 -28 9 -68l-1 -40l-9 -50q-10 -50 -47 -128q-21 -48 -58 -97h-1 q-38 -51 -97 -97z" glyph-name="comma" horiz-adv-x="447" unicode=","/><glyph d="M1439 2011h-1389v182h1389v-182z" glyph-name="hyphen" horiz-adv-x="1489" unicode="-"/><glyph d="M1439 2011h-1389v182h1389v-182z" glyph-name="hyphen" horiz-adv-x="1489" unicode="­"/><glyph d="M213 0q-67 0 -113 48.5t-46 116.5q4 65 50 109t109 44q65 0 112 -47t47 -112t-47 -112t-112 -47z" glyph-name="period" horiz-adv-x="422" unicode="."/><glyph d="M379 0h-329l1549 4192h332z" glyph-name="slash" horiz-adv-x="1981" unicode="/"/><glyph d="M1407 -22q-276 0 -531 168q-243 162 -431 455q-192 302 -293.5 685.5t-101.5 806.5q0 422 101.5 805.5t293.5 685.5q188 294 431 455q255 168 531 168q277 0 532 -168q243 -161 431 -455q192 -302 293.5 -685.5t101.5 -805.5q0 -423 -101.5 -806.5t-293.5 -685.5 q-188 -293 -431 -455q-255 -168 -532 -168zM1407 19q165 0 314.5 105t273.5 295t215.5 448.5t142 569.5t50.5 654t-50.5 654t-142 569.5t-215.5 448.5t-273.5 295t-314.5 105q-164 0 -313.5 -105t-273.5 -295t-215.5 -448.5t-142 -569.5t-50.5 -654t50.5 -654t142 -569.5 t215.5 -448.5t273.5 -295t313.5 -105z" glyph-name="zero" horiz-adv-x="2815" unicode="0"/><glyph d="M927 0h-877v40h284v3793q0 39 10 108q17 114 59 175l-315 -198l-22 34l398 249h179v-4161h284v-40z" glyph-name="one" unicode="1"/><glyph d="M2673 0h-2231q16 140 91 280l16 29q92 157 246 297q144 127 302 233q211 203 417.5 502t355.5 661t189 753q8 102 8 197q0 287 -87 551.5t-272.5 443.5t-411.5 214q-46 4 -93 4q-67 0 -134 -8q-191 -37 -319 -153q-224 -204 -322 -567q-39 -146 -51 -243l-13 -98h-314 q0 342 195 625q245 346 675 451q144 33 287 33q249 0 497 -99q395 -166 580 -504q144 -272 144 -646q0 -72 -5 -147q-38 -504 -284 -965q-249 -460 -654 -780q-137 -104 -277 -198q-100 -67 -198.5 -138t-187.5 -152q-126 -109 -227 -267h2038v284h40v-593z" glyph-name="two" horiz-adv-x="2723" unicode="2"/><glyph d="M1382 -19q-389 0 -735.5 156t-596.5 444l290 252q111 -242 280.5 -423t383 -282.5t452.5 -101.5q266 0 498.5 123.5t408 341t275.5 505.5t100 616q0 291 -79 551t-220.5 468t-331 347.5t-414.5 192.5q-151 27 -311 28l-26 -1l744 813q30 34 94 80q96 70 179 70h-1716v40 h2036l-920 -1005q142 -31 277 -85q308 -124 546 -349.5t369 -517.5q135 -304 135 -634t-135 -635q-131 -292 -369 -517.5t-546 -348.5q-320 -128 -668 -128z" glyph-name="three" horiz-adv-x="3150" unicode="3"/><glyph d="M2710 0h-877v40h284v1308h-2067l1274 2853h338l-1256 -2813h1711v1225l2 33q5 96 32 179q38 115 113 115h-431v40h877v-40h-284v-1552h284v-40h-284v-1308h284v-40z" glyph-name="four" horiz-adv-x="2760" unicode="4"/><glyph d="M1088 -4q-564 0 -1038 310l23 34v-1h1l170 231q178 -245 422 -385.5t530 -145.5q164 10 317 46q212 65 390.5 207t310.5 346t205 454.5t73 529.5q0 368 -125 683.5t-341 536.5t-496 313q-216 52 -442 52q-278 0 -538 -78q-183 -55 -350 -147l264 1174l9 43l1 2h1466v-40 h-1300q79 -31 79 -184q0 -63 -8 -117l-8 -48q-127 -565 -143 -639q256 74 528 74q358 0 687 -127q317 -124 561.5 -348.5t379.5 -516.5q139 -304 139 -633q0 -330 -139 -634q-135 -291 -379.5 -516t-561.5 -348q-329 -128 -687 -128z" glyph-name="five" horiz-adv-x="2905" unicode="5"/><glyph d="M1743 -16q-343 0 -659 127q-303 123 -537.5 346.5t-363.5 514.5q-133 301 -133 630q0 152 29 300q61 488 242 958q220 556 575 887q446 413 1079 447l2 -40l-7 -1q-29 0 -137.5 -25t-266 -102.5t-334 -235.5t-341.5 -424q-136 -221 -246 -533q198 162 439 260 q316 127 659 127t659 -127q304 -123 538 -347t363 -514q133 -302 133 -630t-133 -630q-129 -291 -363 -514.5t-538 -346.5q-316 -127 -659 -127zM1798 24q268 15 499 141.5t405.5 341.5t273 495.5t98.5 599.5q0 321 -100.5 604t-278 498t-412 340t-505.5 135l-35 1l-34 -1 q-309 -12 -568.5 -169.5t-439.5 -425.5t-252 -611q-23 -176 -37 -371q0 -319 99 -599.5t273.5 -495.5t405.5 -341.5t499 -141.5h109z" glyph-name="six" horiz-adv-x="3486" unicode="6"/><glyph d="M586 -1h-346l1979 3927l15 26q44 76 99.5 136t106.5 71h-2390v41l2654 -1z" glyph-name="seven" horiz-adv-x="2754" unicode="7"/><glyph d="M1705 -11q-331 0 -631.5 103.5t-537.5 299.5q-229 190 -355 438q-131 258 -131 538q0 279 131 537q126 248 355 438q391 321 925 388q-257 51 -450 193q-145 108 -221.5 245t-76.5 289q0 151 76.5 288.5t221 244t327 163t383.5 56.5t383.5 -56.5t327 -163t221 -244 t76.5 -288.5q0 -152 -76.5 -289t-221.5 -245q-198 -145 -462 -195q522 -71 906 -386q229 -190 355 -438q131 -258 131 -537q0 -280 -131 -538q-126 -248 -355 -438q-237 -196 -537.5 -299.5t-632.5 -103.5zM1703 31q268 0 503 104t412 287.5t278 426.5t101 520 q0 266 -93 500t-257.5 415.5t-382.5 291t-472 128.5q-43 2 -87 2q-305 0 -568 -134q-217 -110 -380 -291t-255 -414.5t-92 -497.5q0 -277 100.5 -520t278 -426.5t412 -287.5t502.5 -104zM1720 2749q178 0 325 96t234 257t87 357t-87 357.5t-234 257t-325 95.5 q-179 0 -325.5 -95.5t-234 -257t-87.5 -357.5t87.5 -357t234 -257t325.5 -96z" glyph-name="eight" horiz-adv-x="3411" unicode="8"/><glyph d="M1511 -6l-2 40h4l2 1h3q31 0 137.5 25t264 102.5t333.5 235.5t342 424q136 221 246 533q-198 -162 -439 -260q-316 -127 -659 -127t-659 127q-304 123 -538 347t-363 514q-133 302 -133 630t133 630q129 291 363 514.5t538 346.5q316 127 659 127t659 -127 q303 -123 537.5 -346.5t363.5 -514.5q133 -302 133 -630q0 -155 -29 -300q-23 -185 -80.5 -435t-161.5 -523q-111 -281 -258 -506q-512 -781 -1396 -828zM1777 1008q309 13 568 170.5t439.5 425.5t252.5 611q23 176 37 371q0 319 -99 599.5t-273.5 495.5t-405.5 341.5 t-499 140.5l-54 1q-28 0 -55 -1q-268 -14 -499 -140.5t-405.5 -341.5t-273 -495.5t-98.5 -599.5q0 -321 100.5 -604t278 -498.5t412 -340t505.5 -135.5h69z" glyph-name="nine" horiz-adv-x="3486" unicode="9"/><glyph d="M212 2558q-67 0 -113 48.5t-46 117.5q4 64 50 108.5t109 44.5q65 0 112 -47.5t47 -112.5t-47 -112t-112 -47zM236 0q-67 0 -113 48t-46 114v3q4 65 50 109t109 44q65 0 112 -47t47 -112t-47 -112t-112 -47z" glyph-name="colon" horiz-adv-x="445" unicode=":"/><glyph d="M234 2565q-67 0 -113 48.5t-46 117.5q5 65 50.5 109t108.5 44q65 0 112.5 -47t47.5 -112t-47.5 -112.5t-112.5 -47.5zM180 -275l-24 32q46 48 84 102l2 4q18 23 35 59q8 16 8 31q0 16 -10 30q-10 10 -25 13t-33 3.5t-34 4.5q-65 23 -96 86q-13 32 -13 63q0 33 20.5 80 t85.5 72q27 8 52 8q37 0 83 -22.5t69 -85.5q9 -28 9 -68l-1 -40l-9 -50q-10 -50 -47 -128q-21 -48 -58 -97h-1q-38 -51 -97 -97z" glyph-name="semicolon" horiz-adv-x="447" unicode=";"/><glyph d="M1805 732l-1755 1402l1755 1402v-397l-1257 -1005l1257 -1005v-397z" glyph-name="less" horiz-adv-x="1855" unicode="&lt;"/><glyph d="M1439 2224h-1389v183h1389v-183zM1439 1791h-1389v183h1389v-183z" glyph-name="equal" horiz-adv-x="1489" unicode="="/><glyph d="M50 732v396l1257 1006l-1257 1005v396l1755 -1401z" glyph-name="greater" horiz-adv-x="1855" unicode=">"/><glyph d="M1176 -5q-67 0 -113 47.5t-46 114.5v3q4 65 50 109t109 44q65 0 112 -47t47 -112t-47 -112t-112 -47zM1208 880h-40q0 69 6 131q0 110 37 209.5t100.5 192.5t144 183.5t168.5 182.5q103 106 203 220.5t182 243t131.5 276.5t49.5 324q0 253 -55 488.5t-173.5 420.5 t-308 292.5t-456.5 110.5q-82 -1 -163 -12q-210 -35 -341 -136t-201 -231.5t-97.5 -254.5t-30.5 -207l-3 -84h-297l-1 45q0 276 194 515q185 217 496 327q227 78 462 78q60 0 239.5 -15t438.5 -159q257 -147 432 -394q174 -252 219 -542q13 -89 13 -177q0 -204 -68 -405 q-101 -291 -315 -492q-84 -77 -178.5 -141.5t-190.5 -122.5q-149 -89 -288 -195q-164 -128 -236.5 -286.5t-72.5 -385.5z" glyph-name="question" horiz-adv-x="2622" unicode="?"/><glyph d="M1891 -680q-373 0 -717 159q-331 154 -585.5 433.5t-394.5 641.5q-144 377 -144 786q0 408 144 785q140 362 394.5 641.5t585.5 433.5q344 159 717 159t717 -159q330 -154 585 -433.5t395 -641.5q144 -377 144 -785q0 -409 -144 -786q-54 -139 -125 -266 q-64 -126 -186 -211q-88 -60 -209 -79q-35 -5 -74 -5q-123 0 -182 132q-43 96 -50 213l-3 54q-138 -198 -323 -305q-180 -103 -377 -103q-196 0 -376 103q-173 100 -306 281q-137 186 -209 422.5t-72 497.5q0 260 72 496.5t209 423.5q133 180 306 280q180 103 376 103 q197 0 377 -103q185 -107 323 -304v416h309v-2360q0 -47 14 -91q21 -64 74 -64q44 0 85 27q88 58 154 147l26 37q130 229 200.5 493t70.5 551q0 327 -91.5 624t-256.5 544t-390 428.5t-495 282t-568 100.5t-568 -100.5t-495 -282t-390 -428.5t-256.5 -544t-91.5 -624 q0 -328 91.5 -624.5t256.5 -544t390 -429t495 -282t568 -100.5q194 0 376 44l20 -37q-194 -47 -396 -47zM2059 19q204 0 386.5 115.5t313.5 320.5v1665q-131 206 -313.5 321.5t-386.5 115.5q-28 0 -56 -3q-169 -56 -290.5 -233t-187 -443t-65.5 -583t65.5 -586.5t187 -450 t290.5 -237.5q28 -2 56 -2z" glyph-name="at" horiz-adv-x="3782" unicode="@"/><glyph d="M3847 0h-877v40h264l-306 834h-2110l-305 -834h414v-40h-877v40h420l1525 4161h42l1525 -4161h285v-40zM2913 914l-1040 2839l-1040 -2839h2080z" glyph-name="A" horiz-adv-x="3896" unicode="A"/><glyph d="M50 0v40h284v4121h-284v40h1768q224 -5 404.5 -114t289 -292.5t108.5 -405.5q0 -181 -73.5 -338t-201.5 -270t-293 -166q489 -35 842 -381q186 -187 284.5 -425t98.5 -500t-98.5 -500t-285 -424.5t-424.5 -285t-500 -98.5zM1818 2617q127 3 228 114q97 106 154 281 t57 385q0 279 -97 487t-248 270q-52 7 -104 7h-1312q75 0 112 -115q28 -83 33 -179l2 -33v-1217h1175zM1818 41q230 12 428.5 114t348.5 274.5t235 397.5t85 481q0 255 -85 480.5t-234.5 398.5t-348 275.5t-428.5 114.5h-1176v-2536h1175z" glyph-name="B" horiz-adv-x="3242" unicode="B"/><glyph d="M1986 -17q-392 0 -754 167q-347 161 -615 454t-415 673q-152 395 -152 823q0 429 152 824q147 380 415 673t615 454q362 167 754 167t754 -167q402 -186 693 -543l-171 -190q-205 371 -508.5 597.5t-669.5 259.5q-26 3 -98 3q-49 0 -97 -3h-2q-310 -28 -577.5 -197.5 t-468.5 -451t-315 -646.5t-114 -780q0 -414 114 -779t315 -646.5t468.5 -451t577.5 -197.5h2q48 -3 97 -3t97 3h1q392 36 711 291t520 670l211 -171q-78 -111 -170 -212q-268 -293 -616 -454q-362 -167 -754 -167z" glyph-name="C" horiz-adv-x="3576" unicode="C"/><glyph d="M50 0v40h285v4121h-285v40l1199 -2q427 0 817 -165q377 -160 667.5 -450t449.5 -667q165 -392 165 -817t-165 -817q-159 -376 -449.5 -666.5t-667.5 -450.5q-390 -165 -817 -165zM1249 41q96 0 190 9q335 90 617 281t490.5 462.5t324 604.5t115.5 702q0 370 -115.5 702.5 t-323.5 604t-489.5 462.5t-615.5 281q-95 9 -193 9h-734q45 -12 71.5 -62t38.5 -110.5t15 -106.5l3 -46v-3793h606z" glyph-name="D" horiz-adv-x="3370" unicode="D"/><glyph d="M2592 0h-2542v40h285v4121h-285v40h2542v-40h-2088q50 -8 78.5 -57t41.5 -111.5t16 -110.5l3 -48v-1694h1483v-40h-1483v-2060h1949v-40zM496 4161z" glyph-name="E" horiz-adv-x="2642" unicode="E"/><glyph d="M927 0h-877v40h284v4121h-284v40h2542v-40h-2088q49 -8 77.5 -57t41.5 -111.5t16 -110.5l4 -48v-1694h1483v-40h-1483v-2060h284v-40zM496 4161z" glyph-name="F" horiz-adv-x="2642" unicode="F"/><glyph d="M1986 -17q-392 0 -754 167q-348 161 -615.5 454t-414.5 673q-152 395 -152 823q0 429 152 824q147 380 414.5 673t615.5 454q362 167 754 167t754 -167q402 -186 692 -543l-171 -190q-204 371 -507.5 597t-669.5 260h-1q-48 3 -97 3t-97 -3h-2q-310 -28 -577.5 -197.5 t-468.5 -451t-315 -647t-114 -779.5t114 -779t315 -646.5t468.5 -451.5t577.5 -197h2q48 -3 97 -3t97 3h1q346 31 637 236t495 542v942l2 34q2 33 9.5 81.5t23 97t43 82t69.5 33.5h-1539v40h1985v-40h-284v-1259q-78 -111 -169 -211q-268 -293 -616 -454 q-362 -167 -754 -167z" glyph-name="G" horiz-adv-x="3859" unicode="G"/><glyph d="M3234 -1h-877v40h284v2375h-1998v-2375h284v-40h-877v40h284v4122h-284v40h877v-40l-431 -1q42 0 69.5 -33t43 -81.5t23 -97t9.5 -81.5l2 -34v-1379h1998v1707h-284v40h877v-40l-431 -1q42 0 69.5 -33t43 -81.5t23 -97t9.5 -81.5l2 -34v-3794h284v-40z" glyph-name="H" horiz-adv-x="3284" unicode="H"/><glyph d="M927 -1h-877v40h284v4122h-284v40h877v-40l-431 -1q42 0 69.5 -33t43 -81.5t23 -97t9.5 -81.5l2 -34v-3794h284v-40z" glyph-name="I" unicode="I"/><glyph d="M361 0q-40 0 -91.5 8t-108 29.5t-111.5 61.5l134 177l9 -33q9 -34 29.5 -78t55.5 -80t87 -45h1q5 -1 13 -1q4 0 14 1t30 16q78 58 91 342v3762h-284v40h876v-40h-430q74 0 112 -115q28 -86 33 -179l1 -33v-3462q-5 -123 -89 -216t-219 -134q-73 -21 -153 -21z" glyph-name="J" horiz-adv-x="1156" unicode="J"/><glyph d="M3345 -1h-362l-1651 2677l-690 -671v-1966h285v-40h-877v40h284v4122h-284v40h877v-40l-431 -1q42 0 69 -33t43 -81.5t23.5 -97t9.5 -81.5l1 -34v-1772l2158 2100h-397v40h877v-40h-423l-1298 -1264z" glyph-name="K" horiz-adv-x="3395" unicode="K"/><glyph d="M2592 -1h-2542v40h284v4122h-284v40h877v-40l-431 -1q42 0 69.5 -33t43 -81.5t23 -97t9.5 -81.5l2 -34v-3794h1949v-40z" glyph-name="L" horiz-adv-x="2642" unicode="L"/><glyph d="M1826 -1h-44l-1273 4164h-1v-4122h419v-40h-877v40h418v4122h-418v40h769l1125 -3680l1125 3680h581v-40h-431q42 0 69.5 -33.5t43 -82t23 -97t9.5 -81.5l2 -34v-3794h284v-40h-877v40h284v3985z" glyph-name="M" horiz-adv-x="3700" unicode="M"/><glyph d="M927 1h-877v40h419v4121h-419v40h459l2568 -3663v3623h-419v40h877v-40h-418v-4160h-40l-2568 3662v-3623h418v-40z" glyph-name="N" horiz-adv-x="3585" unicode="N"/><glyph d="M1986 -15q-392 0 -754 166q-347 161 -615 454.5t-415 672.5q-152 396 -152 824t152 824q147 379 415 672t615 455q362 166 754 166q393 0 755 -166q347 -162 614.5 -455t414.5 -672q152 -396 152 -824t-152 -824q-147 -379 -414.5 -672.5t-614.5 -454.5 q-362 -166 -755 -166zM1986 25q73 0 98 2h1q310 28 577.5 197.5t469 451t315 647t113.5 779.5t-113.5 779.5t-315 647t-469 451t-577.5 197.5h-1q-25 2 -98 2q-49 0 -97 -2h-1q-311 -28 -578 -197.5t-468.5 -451t-315 -647t-113.5 -779.5t113.5 -779.5t315 -647t468.5 -451 t578 -197.5h1q48 -2 97 -2z" glyph-name="O" horiz-adv-x="3972" unicode="O"/><glyph d="M927 1h-877v40h285v4122h-285v40h1771q244 0 465.5 -92t395 -265.5t265.5 -395t92 -465.5t-92 -465.5t-265.5 -395t-395 -265.5t-465.5 -92h-1178v-1726h284v-40zM1801 1807v2q181 0 340 91.5t278.5 253t187.5 375.5t68 458q0 315 -111 576t-298 421t-420 179l-1340 -1 q49 -8 77 -57q48 -85 57 -222l3 -48v-2028h1158z" glyph-name="P" horiz-adv-x="3026" unicode="P"/><glyph d="M3197 -700l-697 760q-251 -75 -514 -75q-393 0 -754 166q-348 161 -615.5 454.5t-414.5 672.5q-152 396 -152 824t152 824q147 379 414.5 672t615.5 455q361 166 754 166q392 0 754 -166q347 -162 615 -455t415 -672q152 -396 152 -824t-152 -824q-147 -379 -415 -672.5 t-615 -454.5q-98 -45 -198 -78l684 -745zM1986 25q72 0 97 2h1q190 16 365 88l-359 391l29 27l369 -401q235 105 430.5 295.5t339 449.5t223 570t79.5 655q0 414 -114 779.5t-315.5 647t-468.5 451t-578 197.5h-1q-25 2 -97 2q-49 0 -98 -2h-1q-311 -28 -578 -197.5 t-468.5 -451t-315 -647t-113.5 -779.5t113.5 -779.5t315 -647t468.5 -451t578 -197.5h1q49 -2 98 -2z" glyph-name="Q" horiz-adv-x="3972" unicode="Q"/><glyph d="M2904 1h-365l-1123 1766h-773v-1726h284v-40h-877v40h284v4121h-284v40l1771 1q244 0 465 -92t395 -265.5t265.5 -395t91.5 -465.5t-91.5 -465.5t-264.5 -395.5q-175 -174 -396.5 -265.5t-464.5 -91.5h-39zM1801 1807q181 0 339.5 92t278.5 254t188 375.5t68 457.5 q0 315 -111 576.5t-298 421t-420 178.5l-25 1l-1315 -1q49 -8 77 -57.5t41 -112t16 -109.5l3 -48v-2028h1158z" glyph-name="R" horiz-adv-x="3088" unicode="R"/><glyph d="M1581 -7q-483 0 -845 180q-289 148 -474 411q-202 294 -202 623q0 263 135 516q152 279 423 451h1l212 -248l-46 -21q-47 -22 -115 -75q-169 -133 -258 -385q-56 -161 -61 -385q0 -221 88 -398.5t238.5 -308t342.5 -210t403 -104.5q93 -6 157 -6q56 0 114 3 q358 16 636 127t443 301q25 34 48 76.5t38.5 75t17.5 38.5q75 191 75 355q0 240 -168.5 451t-518 452.5t-889.5 563.5q-474 288 -681 568q-174 237 -174 462q0 104 30 188q37 100 87 168q127 189 397 281q224 74 490 74h29q449 -6 736 -178q166 -101 260 -248.5t94 -302.5 l-2 -39l-309 3q2 36 2 69q0 171 -56.5 287.5t-149 189.5t-203.5 111.5t-223 52t-205 13.5q-79 0 -135 -5q-137 -11 -291 -56h3q-49 -14 -94.5 -42t-75 -52t-31.5 -26q-32 -35 -64 -86t-54 -116.5t-22 -144.5q0 -196 161 -405q191 -247 631 -505q369 -214 661 -396t497 -353 t313 -352t108 -396q0 -267 -179 -613q-18 -38 -40 -75q-178 -286 -556 -432q-285 -108 -634 -124q-58 -3 -115 -3z" glyph-name="S" horiz-adv-x="3138" unicode="S"/><glyph d="M2397 1h-877v40h284v4121h-1754v40h3816v-40h-1900q42 0 69 -33.5t43 -82t23.5 -97t9.5 -81.5l1 -34v-3793h285v-40z" glyph-name="T" horiz-adv-x="3916" unicode="T"/><glyph d="M1840 -1q-306 0 -587 119q-271 115 -480 323.5t-323 479.5q-101 237 -116 495v2747h-284v40h877v-40h-431q75 0 112 -115q27 -83 33 -179l1 -33v-2473l10 -94q9 -94 44 -240q87 -365 308 -628q283 -337 783 -361l53 -1q303 0 569 114t467 314.5t315.5 465t117.5 569.5 v2661h-419v40h877v-40h-418v-2661q-1 -304 -119 -581q-115 -271 -323.5 -479.5t-479.5 -323.5q-282 -119 -587 -119z" glyph-name="U" horiz-adv-x="3817" unicode="U"/><glyph d="M1902 1h-43l-1525 4161h-284v40h877v-40h-264l1360 -3713l1361 3713h-414v40h877v-40h-420z" glyph-name="V" horiz-adv-x="3897" unicode="V"/><glyph d="M3974 1h-43l-1015 2769l-1015 -2769h-42l-1525 4161h-284v40h877v-40h-264l1360 -3713l872 2379l-489 1334h-284v40h1724v-40h-420l-345 -944l1014 -2769l1361 3713h-414v40h877v-40h-420zM3059 3277l325 885h-649z" glyph-name="W" horiz-adv-x="5969" unicode="W"/><glyph d="M3120 1h-877v40h279l-1003 1938l-1003 -1938h411v-40h-877v40h421l1025 1982l-1106 2139h-265v40h877v-40h-441q52 -5 110 -51q98 -79 195 -216q34 -47 37 -53l767 -1483l933 1803h-411v40h877v-40h-421l-955 -1847l1176 -2274h251v-40z" glyph-name="X" horiz-adv-x="3170" unicode="X"/><glyph d="M2729 -1h-877v40h284v1573l-1805 2549h-281v40h877v-40h-300q39 -15 77.5 -45t70 -63.5t50.5 -57.5l19 -24l1577 -2227l1712 2417h-395v40h876v-40h-432l-1737 -2452v-1670h284v-40z" glyph-name="Y" horiz-adv-x="4664" unicode="Y"/><glyph d="M3973 1h-3923l3478 4001l32 32q31 32 78.5 69t99.5 59h-3121v40h3493l-3615 -4161h3478v-40z" glyph-name="Z" horiz-adv-x="4160" unicode="Z"/><glyph d="M900 0h-850v4201h850v-308h-541v-3584h541v-309z" glyph-name="bracketleft" horiz-adv-x="950" unicode="["/><glyph d="M1931 9l-1549 4192h-332l1552 -4192h329z" glyph-name="backslash" horiz-adv-x="1981" unicode="\"/><glyph d="M900 0v4201h-850v-308h541v-3584h-541v-309h850z" glyph-name="bracketright" horiz-adv-x="950" unicode="]"/><glyph d="M1035 3872l-488 120l-487 -120l-10 39l77 19l420 192l421 -192l77 -19z" glyph-name="asciicircum" horiz-adv-x="1095" unicode="^"/><glyph d="M1439 0h-1389v140h1389v-140z" glyph-name="underscore" horiz-adv-x="1489" unicode="_"/><glyph d="M720 3883l-670 165l33 153l570 -260l77 -19z" glyph-name="grave" horiz-adv-x="780" unicode="`"/><glyph d="M873 -11h-24q-254 0 -494 148q-242 157 -352 407q-71 169 -71 351q0 91 18 185q57 283 249 478q113 108 248 184t274 140l855 404q-20 342 -145.5 496t-415.5 154h-7q-68 -5 -133 -20q-132 -48 -212.5 -158t-121 -233t-53.5 -213l-14 -90h-238q14 155 80 288v1 q65 132 170 233q148 143 350 202q109 32 227 32q151 0 287 -51q1 0 1 -1q128 -47 232 -132l2 -1l13 -11q142 -120 220 -290q64 -138 74 -297q1 -23 1 -2158h285v-40h-431q-69 6 -115.5 54.5t-46.5 117.5v198q-86 -114 -204 -200q-235 -167 -508 -178zM928 56q166 0 298 63 q222 110 359 317l-2 874q-3 880 -5 933l-563 -267q-83 -40 -210.5 -130.5t-253 -235.5t-199.5 -348q-57 -154 -57 -344q0 -61 6 -125q38 -321 152.5 -484.5t261.5 -214.5q109 -38 213 -38z" glyph-name="a" horiz-adv-x="2228" unicode="a"/><glyph d="M1718 -6q-266 0 -509 118q-233 114 -414 322q-85 98 -152 210v-606h284v-40h-877v40h285v4121h-285v40h877v-40h-431q43 0 70 -33.5t43 -82t23 -97t9 -81.5l2 -34v-1487q67 112 152 210q181 207 414 322q243 118 509 118q265 0 509 -118q234 -115 414 -322 q185 -215 283 -487.5t98 -572.5t-98 -572.5t-283 -487.5q-180 -208 -414 -322q-244 -118 -509 -118zM1688 35q201 0 377.5 114t310 314t209 465t75.5 567t-75.5 566.5t-209 464.5t-310 313.5t-377.5 113.5q-32 0 -63 -3q-314 -29 -568.5 -212t-413.5 -477v-1535 q160 -295 416 -478t572 -211l29 -2h28z" glyph-name="b" horiz-adv-x="2986" unicode="b"/><glyph d="M1343 -17q-287 0 -537 118.5t-439 326.5q-196 217 -299.5 492.5t-103.5 578.5q0 319 109 594.5t298 481.5t435 321q257 120 537 120q205 0 391.5 -61.5t346 -173.5t285.5 -265l-214 -122q-138 261 -340 415q-213 164 -469 167q-214 0 -399 -117.5t-323.5 -321.5 t-216.5 -471t-78 -567q0 -294 73.5 -553.5t203.5 -459.5t302 -320.5t373 -140.5q16 0 31.5 -1t33.5 -1l65 2q232 24 425 179.5t325 410.5l245 -86q-128 -168 -293 -290t-359 -189t-408 -67z" glyph-name="c" horiz-adv-x="2402" unicode="c"/><glyph d="M1268 -4q-264 0 -508 119q-234 114 -415 322q-185 214 -283 486.5t-98 573.5q0 300 98 572.5t283 486.5q181 208 415 323q244 118 508 118q266 0 509 -118q234 -115 415 -323q84 -98 151 -209v1814h-284v40h877v-40h-431q42 0 69.5 -33t43.5 -81.5t23 -97t9 -82.5l2 -33 v-3794h284v-40h-877v40h284v607q-67 -112 -151 -210q-181 -208 -415 -322q-243 -119 -509 -119zM1299 37l29 1l27 2q316 28 572.5 211t415.5 478v1535q-158 294 -413 476.5t-569 212.5q-31 3 -62 3q-202 0 -378.5 -113.5t-309.5 -313.5t-209 -464.5t-76 -566.5t76 -567 t209 -465.5t309.5 -314.5t378.5 -114z" glyph-name="d" horiz-adv-x="2986" unicode="d"/><glyph d="M1343 -17q-280 0 -537 119q-248 116 -439 326q-196 217 -299.5 492.5t-103.5 578.5q0 304 103.5 579.5t299.5 492.5q191 210 438 325t516 120h14q228 -4 402.5 -63.5t303 -158t217.5 -218.5q32 -43 61 -87q123 -203 173.5 -384.5t57.5 -264.5l5 -40h-2208 q-21 -147 -21 -301q0 -294 73.5 -553.5t203.5 -459.5t302 -320.5t373 -140.5q10 -2 65 -2q32 0 64 2h1q232 24 425 179.5t325 410.5l245 -86q-215 -283 -523 -427q-257 -119 -537 -119zM2251 1840q-61 649 -383 924q-2 1 -3.5 2.5l-3.5 3.5q-24 21 -56 45q-150 103 -277 133 q-120 28 -178 28q-15 0 -29 -1h-4q-237 -11 -435.5 -159.5t-336.5 -401t-192 -574.5h1898z" glyph-name="e" horiz-adv-x="2549" unicode="e"/><glyph d="M927 0h-877v40h284v2901h-254v40h254v839q0 124 86 220t223 137q72 22 153 22q173 0 311 -99l-134 -177l-9 33q-9 34 -30 78t-56 80t-86 45l-28 -1q-45 -12 -70.5 -70t-37 -136t-13.5 -153v-818h400v-40h-400v-2901h284v-40z" glyph-name="f" horiz-adv-x="1157" unicode="f"/><glyph d="M651 -926q-111 0 -186 42t-122 110t-71.5 149.5t-33.5 164t-9 149.5q0 53 3 91q0 160 88 304q75 126 176.5 214t321.5 213q-265 97 -473 290q-196 185 -300 419.5t-104 493.5q0 258 104 493t301 419t447.5 281t526.5 97q297 0 564 -112q73 67 254 194q329 221 561 227 l8 -237h-53q-437 0 -529 -48q-134 -96 -200 -154q204 -93 370 -248q197 -184 300.5 -419t103.5 -493q0 -259 -103.5 -493.5t-300.5 -419.5q-198 -183 -448.5 -280t-526.5 -97q-234 0 -452 70q-234 -132 -337 -218.5t-177 -212.5q-82 -133 -82 -281q0 -139 81 -234 q52 -59 122.5 -85.5t148.5 -26.5q179 0 342 115q94 71 171.5 162.5t147.5 187.5q66 90 138 177q166 193 364 310q222 128 450 137h26q225 0 432 -135q217 -153 262 -385q9 -49 9 -98q0 -140 -67 -280q-86 -177 -249 -299q-64 -48 -162 -102.5t-222 -95t-264 -40.5 q-117 0 -265 34q-90 20 -195 65q-122 52 -300 157q-70 -81 -156 -142t-193 -95.5t-242 -34.5zM1320 464q243 0 450 127q169 103 296.5 272t199 386t71.5 463q0 259 -79 486t-218.5 398.5t-324 269t-395.5 97.5t-395.5 -97.5t-324 -269t-218.5 -398.5t-79 -486 q0 -246 71.5 -463t199 -386t296.5 -272q208 -127 450 -127zM2003 -870q97 0 187 22q184 73 289 235q123 190 123 521q0 149 -27.5 250t-69 164.5t-86 98t-81.5 48.5t-55 16l-22 1q-94 -3 -174 -21q-129 -41 -225 -136t-172 -223.5t-147 -271.5q-60 -121 -126.5 -238 t-147.5 -219q233 -138 374.5 -185t281.5 -58q39 -4 78 -4z" glyph-name="g" horiz-adv-x="3029" unicode="g"/><glyph d="M2829 -2h-877v40h285v2548q-1 61 -22.5 150.5t-86.5 149.5q-46 43 -125 43q-32 0 -70 -7q-31 -8 -61 -19q-249 -89 -468 -390q-252 -347 -456 -953q-124 -378 -199 -711t-106 -525v-286h284v-40h-877v40h284v4121h-284v40h877v-40h-431q42 0 69.5 -33.5t43 -82t23 -97 t9.5 -81.5l2 -34v-3288q99 519 267 1029q206 612 461 964q326 444 711 444q88 0 155 -22q98 -33 158 -92q101 -101 136 -248q13 -59 14 -88v-2492h284v-40z" glyph-name="h" horiz-adv-x="2879" unicode="h"/><glyph d="M488 3211q-93 0 -158.5 65.5t-65.5 158.5q0 94 65.5 159.5t158.5 65.5q94 0 159.5 -65.5t65.5 -159.5q0 -93 -65.5 -158.5t-159.5 -65.5zM927 0h-877v40h284v2901h-284v40h877v-40h-431q42 0 69.5 -33.5t43 -82t23 -97t9.5 -81.5l2 -34v-2573h284v-40z" glyph-name="i" unicode="i"/><glyph d="M284 -1218q-173 0 -311 99l134 177l9 -34q9 -33 30 -77t56 -80t86 -45l28 1q45 12 70.5 69.5t37 136t13.5 152.5v3760h-284v40h877v-40h-284v-3780q0 -124 -86 -220.5t-223 -137.5q-72 -21 -153 -21z" glyph-name="j" horiz-adv-x="1080" unicode="j"/><glyph d="M2561 -2h-358l-1076 1821q-186 -373 -306.5 -725.5t-177.5 -580.5v-475h284v-40h-877v40h285v4121h-285v40h877v-40h-431q42 0 69.5 -33.5t43 -82t23 -97t9.5 -82.5l2 -33v-3166q176 634 455 1186q345 665 760 943q288 191 599 191q89 0 180 -16v-296l-71 22 q-71 22 -185 44.5t-242 22.5q-273 0 -431 -136q-208 -188 -399 -487l-6 -11z" glyph-name="k" horiz-adv-x="2739" unicode="k"/><glyph d="M927 -2h-877v40h284v4121h-284v40h877v-40h-431q42 0 69.5 -33.5t43 -82t23 -97t9.5 -81.5l2 -34v-3793h284v-40z" glyph-name="l" unicode="l"/><glyph d="M4732 -3h-877v40h284v2548q0 61 -22 150.5t-87 149.5q-46 43 -123 43q-63 0 -133 -26q-248 -90 -468 -391q-252 -346 -456 -953q-124 -378 -199 -712t-106 -525v-282h284v-40h-877v40h284v2548q0 61 -21.5 150.5t-86.5 150.5q-47 42 -125 42q-33 0 -71 -7q-30 -8 -60 -19 h-1q-248 -89 -467 -390q-253 -347 -456 -953q-124 -378 -199 -711t-107 -525v-287h284v-40h-876v40h284v2900h-284v40h876v-40h-430q42 0 69 -33t43 -81.5t23.5 -97t9.5 -81.5l1 -34v-2066q105 540 268 1028q205 612 461 964q325 444 710 444q89 0 155 -22q172 -57 247 -213 q55 -111 62 -215v-1990q99 521 267 1030q206 612 462 964q325 444 710 444q88 0 155 -22q98 -33 158 -92q104 -103 136 -248q13 -59 14 -88v-2492h285v-40z" glyph-name="m" horiz-adv-x="4782" unicode="m"/><glyph d="M2829 -2h-877v40h284v2548q0 61 -21.5 150.5t-86.5 150.5q-47 42 -125 42q-33 0 -71 -7q-30 -8 -60 -19h-1q-248 -89 -467 -390q-253 -347 -456 -953q-124 -378 -199 -711t-107 -525v-286h285v-40h-877v40h284v2900h-284v40h877v-40h-431q42 0 69 -33t43 -81.5t23.5 -97 t9.5 -81.5l1 -34v-2067q106 544 268 1028q205 613 461 964q325 444 710 444q89 0 155 -22q172 -57 247 -212q55 -111 62 -216v-2492h284v-40z" glyph-name="n" horiz-adv-x="2879" unicode="n"/><glyph d="M1343 -17q-287 0 -537 118.5t-439 326.5q-196 217 -299.5 492.5t-103.5 578.5q0 319 109 594.5t298 481.5t435 321q257 120 537 120q287 0 537 -118.5t439 -326.5q195 -217 299 -492.5t104 -579.5q0 -319 -109 -594t-298 -481t-435 -322q-257 -119 -537 -119zM1343 23 l65 2q201 20 373 140.5t302 320.5t203.5 459.5t73.5 553.5q0 301 -77 565.5t-212.5 466t-314.5 318.5q-190 124 -413 127q-214 0 -399.5 -117.5t-323.5 -321.5t-216 -471t-78 -567q0 -294 73.5 -553.5t203.5 -459.5t302 -320.5t373 -140.5q16 0 31.5 -1t33.5 -1z" glyph-name="o" horiz-adv-x="2686" unicode="o"/><glyph d="M927 -1220h-877v40h284v4121h-284v40h877v-40h-431q42 0 69.5 -33.5t43 -82t23 -97t9.5 -81.5l2 -33v-336q78 146 186 271q181 208 415 322q243 118 509 118q264 0 508 -118q234 -114 415 -322q185 -215 283 -487.5t98 -572.5t-98 -572.5t-283 -487.5 q-181 -207 -415 -322q-244 -118 -508 -118q-266 0 -509 118q-234 115 -415 322q-108 125 -186 271v-1880h284v-40zM1722 30q202 0 378.5 114t309.5 314.5t209 465.5t76 567t-76 566.5t-209 464t-309.5 313t-378.5 113.5q-31 0 -62 -2q-333 -32 -598 -234t-419 -524v-1398 q155 -323 421.5 -525t601.5 -233l28 -2h28z" glyph-name="p" horiz-adv-x="3021" unicode="p"/><glyph d="M2936 -1219h-877v40h284v1817q-67 -112 -152 -210q-181 -208 -415 -322q-242 -118 -508 -118q-265 0 -509 118q-234 114 -414 322q-185 215 -283 487.5t-98 572.5t98 572.5t283 487.5q180 208 414 322q244 118 509 118q266 0 508 -118q234 -114 415 -322q85 -98 152 -210 v604h-284v40h877v-40h-431q42 0 69 -33.5t43 -82t23.5 -97t9.5 -81.5l1 -33v-3794h285v-40zM1328 29l27 2q316 28 572 211t416 479v1534q-159 294 -413.5 477t-568.5 212q-31 3 -63 3q-201 0 -377.5 -113.5t-310 -313t-209 -464.5t-75.5 -566q0 -302 75.5 -567t209 -465.5 t310 -314.5t377.5 -114h30z" glyph-name="q" horiz-adv-x="2986" unicode="q"/><glyph d="M927 -2h-877v40h284v2901h-284v40h877v-40h-431q42 0 69 -33.5t43 -82t23.5 -97t9.5 -81.5l1 -34v-2042q63 334 191 790q153 528 338 893q232 458 503 633q163 104 337 104q138 0 282 -65l-188 -395l-54 27q-54 27 -141 54t-189 34l-28 1q-88 0 -180.5 -34.5 t-170.5 -138.5q-258 -400 -462 -1092q-94 -327 -153 -601t-85 -433v-308h285v-40z" glyph-name="r" horiz-adv-x="2343" unicode="r"/><glyph d="M1053 -5h-8q-342 0 -601 128q-207 107 -337.5 295t-144.5 400l-1 41q0 190 97 372q108 198 302 322l201 -239l-38 -15q-37 -14 -92 -50q-138 -87 -209 -246q-45 -102 -49 -251q0 -143 54 -261t147.5 -208t214.5 -149.5t257 -86.5q95 -12 196 -12q41 0 83 2 q235 13 392.5 68.5t249.5 124.5t133 123.5t44 65.5q68 153 68 276q0 154 -109 284t-330.5 277.5t-557.5 347.5l-157 94q-595 362 -595 742q0 76 20.5 139.5t50 112.5t57.5 82q92 116 266 176q159 53 351 53q335 -2 543 -128q119 -73 186.5 -179t67.5 -217l-1 -28l-293 3 q2 28 2 54q0 131 -43 217q-78 156 -259 208q-95 28 -189 30q-117 0 -216 -17q-157 -37 -253 -118l-1 -1q-7 -6 -31.5 -32.5t-41.5 -61.5q-35 -71 -35 -149q0 -61 26 -131q57 -153 265 -312q114 -88 309 -192q260 -138 464.5 -255.5t346.5 -230.5t216.5 -238t74.5 -280 q0 -193 -123 -454q-31 -84 -87 -155q-127 -161 -357 -250q-117 -43 -226.5 -62.5t-191 -24t-108.5 -4.5z" glyph-name="s" horiz-adv-x="2107" unicode="s"/><glyph d="M785 0q-82 0 -155 28q-127 45 -205.5 138.5t-78.5 211.5v2563h-296v40h296v576h309v-576h468v-40h-468v-2516q0 -59 8 -149.5t44 -160t115 -73.5q21 2 41 6q46 15 75 54t43.5 83t19.5 76l6 32l122 -128q-61 -76 -150.5 -120.5t-193.5 -44.5z" glyph-name="t" horiz-adv-x="1179" unicode="t"/><glyph d="M798 -8q-88 0 -155 22q-135 47 -201 139t-87 177.5t-21 111.5v2500h-284v40h877v-40h-431q40 0 66 -30t42 -74t24.5 -90.5t11.5 -82t3 -47.5v-2206q0 -158 57 -265t175 -107q33 0 72 10l61 19q248 89 467 390q253 348 456 953q124 378 199 711t107 525v294h-285v40h877 v-40h-431q41 0 68 -31.5t43 -78t23.5 -93.5t10 -82t2.5 -41v-2576h285v-40h-431q-58 4 -101 40q-61 53 -61 132v2257q-101 -524 -268 -1029q-205 -612 -461 -964q-326 -444 -710 -444z" glyph-name="u" horiz-adv-x="2880" unicode="u"/><glyph d="M1416 0h-42l-1066 2935h-258v40h877v-40h-431q50 0 94 -44q76 -76 137 -214l28 -69l783 -2155l902 2482h-415v40h877v-40h-420z" glyph-name="v" horiz-adv-x="2952" unicode="v"/><glyph d="M2823 0h-42l-682 1880l-683 -1880h-42l-1066 2935h-258v40h877v-40h-431q50 0 94 -44q76 -76 137 -214l28 -69l783 -2155l539 1485l-362 997h-258v40h1445v-40h-420l-219 -603l682 -1879l902 2482h-415v40h877v-40h-420zM2242 2390l198 545h-537q50 0 94 -44 q76 -76 137 -214l29 -69z" glyph-name="w" horiz-adv-x="4360" unicode="w"/><glyph d="M2273 0h-877v40h270l-565 1233l-565 -1233h416v-40h-877v40h417l587 1281l-740 1616h-289v40h877v-40h-431q52 0 109 -48q97 -83 188 -224l35 -55l421 -918l570 1245h-417v40h876v-40h-415l-592 -1293l734 -1604h268v-40z" glyph-name="x" horiz-adv-x="2329" unicode="x"/><glyph d="M93 -1540q-41 0 -65 4t-26 5l73 321l77 -21q76 -22 188 -36q47 -5 95 -5q67 0 158.5 14t176.5 90q380 366 683 1173l-1066 2935h-258v40h877v-40h-431q49 0 94 -44q76 -76 136 -214l29 -70l783 -2155l901 2483h-414v40h877v-40h-420l-1062 -2923h1q-219 -602 -501 -980 q-226 -304 -483 -452q-223 -125 -423 -125z" glyph-name="y" horiz-adv-x="3031" unicode="y"/><glyph d="M2810 0h-2760l2273 2713l31 34q31 34 80 78t104.5 77.5t105.5 34.5h-2153v40h2456l-2461 -2937h2324v-40z" glyph-name="z" horiz-adv-x="2998" unicode="z"/><glyph d="M932 -4q-62 16 -142 74.5t-157.5 184t-132.5 342.5t-65 550q-9 280 -54 463.5t-112.5 289t-142.5 153.5q-38 25 -76 39q38 13 76 38q76 48 143 154t112 289t54 463q10 333 64.5 550t132.5 342.5t158 184t142 74.5q-54 -26 -113 -134t-103 -350t-51 -667 q-6 -302 -63.5 -495t-147.5 -299.5t-194 -149.5q104 -43 194 -149.5t147.5 -300t63.5 -495.5q7 -425 51 -667t103 -350t113 -134z" glyph-name="braceleft" horiz-adv-x="982" unicode="{"/><glyph d="M285 -4h-235v4195h235v-4195z" glyph-name="bar" horiz-adv-x="335" unicode="|"/><glyph d="M50 -16q53 25 112.5 133.5t103.5 350t51 666.5q5 303 62.5 496t148 299.5t193.5 149.5q-103 43 -193.5 149.5t-148 299.5t-62.5 495q-7 425 -51 667t-103.5 350.5t-112.5 133.5q62 -16 142 -74.5t157.5 -184t132 -342.5t65.5 -550q9 -280 54 -463t112 -289t143 -154 q38 -24 76 -38q-38 -14 -76 -39q-76 -48 -143 -153.5t-112 -288.5t-54 -464q-11 -333 -65.5 -550t-132 -342.5t-157.5 -183.5t-142 -74z" glyph-name="braceright" horiz-adv-x="982" unicode="}"/><glyph d="M816 1812q-127 0 -301 110q-121 74 -202 93q-29 7 -61 7q-21 0 -59 -5.5t-85 -51.5l-58 54q84 84 199 84q75 0 164 -36q75 -34 143 -76q82 -51 164 -83q45 -16 95 -16q22 0 70 7t97 76l67 -44q-58 -89 -165 -112q-33 -7 -68 -7z" glyph-name="asciitilde" horiz-adv-x="1099" unicode="~"/><glyph d="M364 2h-309l69 3709h171zM210 3885q-65 0 -112.5 47t-47.5 112t47.5 112t112.5 47q67 0 112.5 -48t45.5 -114v-3q-4 -65 -49.5 -109t-108.5 -44z" glyph-name="exclamdown" horiz-adv-x="422" unicode="¡"/><glyph d="M423 4h-43l332 804q-141 95 -259 225q-196 217 -299.5 492.5t-103.5 578.5q0 304 103.5 579.5t299.5 492.5q191 210 439 325q257 120 537 120q214 0 416 -71l271 655h43l-276 -669q42 -16 83 -35q281 -131 486 -380l-214 -122q-156 295 -391 451l-1039 -2515 q117 -132 258 -211t298 -94q10 -2 65 -2q33 0 65 2q232 23 425 179t325 411l245 -86q-215 -283 -523 -427q-257 -119 -537 -119t-537 119q-75 35 -146 79zM779 969l1034 2503q-167 100 -358 108l-26 1l-26 -1q-207 -9 -386.5 -126t-315 -318.5t-212.5 -466t-77 -565.5 q0 -342 98.5 -635.5t268.5 -499.5z" glyph-name="cent" horiz-adv-x="2539" unicode="¢"/><glyph d="M2480 0h-1397l529 1193q-157 30 -305 98q-247 116 -438 326q-390 439 -403 1051h-416v40h416q13 613 403 1052q191 210 438 325q258 120 538 120q279 0 537 -120q281 -131 486 -380l-214 -122q-138 261 -339.5 415.5t-443.5 165.5l-26 1l-26 -1q-276 -14 -497.5 -209.5 t-354 -520t-139.5 -726.5h399v-40h-399q6 -354 111 -650.5t285 -499t410 -275.5q71 -22 146 -29q10 -2 65 -2q32 0 64 2h1q18 1 51 6l-523 -1180h1042v-40z" glyph-name="sterling" horiz-adv-x="2918" unicode="£"/><glyph d="M1047 1122q-359 0 -646 238l-236 -236l-113 114l235 235q-237 287 -237 647q0 359 237 646l-235 236l113 113l236 -236q287 238 646 238t647 -238l235 236l113 -113l-235 -236q238 -287 238 -646q0 -360 -238 -647l235 -235l-113 -114l-235 236q-288 -238 -647 -238z M1047 1283q107 0 266 40.5t326 203.5q119 120 182.5 272.5t63.5 320.5q0 167 -63.5 319.5t-183 272t-271.5 182.5t-320 63t-320 -63t-271.5 -182.5t-182.5 -272t-63 -319.5q0 -168 63 -320.5t182 -272.5q167 -163 379 -217q107 -27 213 -27z" glyph-name="currency" horiz-adv-x="2095" unicode="¤"/><glyph d="M2068 0h-877v40h284v1173h-667v40h667v250h-667v40h667v615l-1204 2003h-221v40h744v-40h-272l9 -2q10 -2 28 -11q46 -24 109 -92q81 -87 175 -248l918 -1528l1130 1881h-336v40h745v-40h-363q-576 -960 -1153 -1919v-699h758v-40h-758v-250h758v-40h-758l-1 -1173h285 v-40z" glyph-name="yen" horiz-adv-x="3350" unicode="¥"/><glyph d="M285 2456h-235v1743h235v-1743zM285 2h-235v1742h235v-1742z" glyph-name="brokenbar" horiz-adv-x="335" unicode="¦"/><glyph d="M1053 -5h-8q-342 0 -601 128q-207 107 -337.5 295t-144.5 400l-1 41q0 190 97 372q70 128 177 227q68 60 125 95q62 -74 92 -111l109 -128l-17 -6q-83 -30 -174 -104q-190 -155 -197 -452q0 -143 54 -261t147.5 -208t214.5 -149.5t257 -86.5q95 -12 196 -12q41 0 83 2 q235 13 392.5 68.5t249.5 124.5t133 123.5t44 65.5q68 153 68 276q0 157 -113 289t-342 283q-213 140 -526 327l-173 104q-493 303 -574 603q-20 74 -20 139q0 163 100 298q91 142 293 212q35 12 73 21q-180 125 -282.5 242t-143.5 222.5t-41 195.5q0 75 21 138.5t50 112.5 t57 82q92 116 266 175q159 54 351 54q335 -2 543 -128q119 -73 186.5 -179t67.5 -217l-1 -28l-293 3q2 28 2 54q0 131 -43 217q-78 156 -259 208q-95 28 -189 30q-117 0 -216 -17q-157 -37 -253 -118l-17 -17q-38 -39 -57 -78q-35 -71 -35 -149q0 -137 116 -280 q138 -168 454 -339q447 -237 646 -363q157 -99 265 -199t164.5 -211.5t56.5 -246.5q0 -193 -123 -454q-48 -127 -154 -229q135 -111 206 -233t71 -274q0 -193 -123 -454q-31 -84 -87 -155q-127 -161 -357 -250q-117 -43 -226.5 -62.5t-191 -24t-108.5 -4.5zM1838 1477 q54 51 79 87.5t27 43.5q67 153 67 276q0 157 -111 288.5t-338 281.5l-4 3q-91 64 -700 431l-81 51q-122 -36 -182.5 -80.5t-70.5 -60.5q-26 -28 -45 -65q-36 -70 -36 -150q0 -57 23 -122q84 -244 548 -496q312 -167 476 -260q204 -117 348 -228z" glyph-name="section" horiz-adv-x="2107" unicode="§"/><glyph d="M158 3871q-45 0 -75.5 32.5t-30.5 77.5q3 43 33.5 72t72.5 29q43 0 74 -31t31 -74t-31 -74.5t-74 -31.5zM524 3871q-44 0 -74.5 32t-30.5 75q0 44 31.5 74t73.5 30q43 0 74 -31t31 -74t-31 -74.5t-74 -31.5z" glyph-name="dieresis" horiz-adv-x="679" unicode="¨"/><glyph d="M1184 748q-227 0 -434 99t-368.5 286.5t-246.5 425.5t-85 500t85 500.5t246.5 425.5t368.5 286t434 99q228 0 434.5 -99t368.5 -286t247 -425.5t85 -500.5t-85 -500t-247 -425.5t-368.5 -286.5t-434.5 -99zM1184 788q227 0 425.5 99t348.5 273.5t235.5 405t85.5 493.5 t-85.5 493.5t-235.5 405t-348.5 273.5t-425.5 99q-226 0 -424.5 -99t-349 -273.5t-235.5 -405t-85 -493.5t85 -493.5t235.5 -405t349 -273.5t424.5 -99zM1184 969q-190 0 -362.5 83t-307 238.5t-205.5 353.5t-71 415q0 218 71 415.5t205.5 353t307 238.5t362.5 83 q244 0 464 -139q51 -34 98 -74l-51 -61q-44 37 -91 67q-199 127 -420 127q-179 0 -336 -79t-276 -217.5t-186.5 -321.5t-67.5 -392t67.5 -392t186.5 -321.5t276 -217.5t336 -79q252 0 471 162l40 32l51 -61q-20 -17 -43 -35q-241 -178 -519 -178z" glyph-name="copyright" horiz-adv-x="2369" unicode="©"/><glyph d="M359 3306q-128 0 -218.5 90.5t-90.5 218.5t90.5 218.5t218.5 90.5t218.5 -90.5t90.5 -218.5t-90.5 -218.5t-218.5 -90.5zM359 3346q111 0 190 79t79 190t-79 190t-190 79t-190 -79t-79 -190t79 -190t190 -79zM468 3488h-45l-57 113h-76v-113h-40v280h128q8 0 24.5 -2.5 t35.5 -18.5q26 -24 26 -67q-4 -55 -55 -74zM379 3641q18 0 31 11t14 28q0 25 -12 36t-28 12h-94v-87h89z" glyph-name="registered" horiz-adv-x="718" unicode="®"/><glyph d="M821 3874h-771v140h771v-140z" glyph-name="macron" horiz-adv-x="871" unicode="¯"/><glyph d="M214 3967h-3q-52 0 -85 35t-33 84q0 47 38 83q37 29 75 29q24 0 66 -19.5t51 -91.5q1 -2 1 -5l-1 -4q-3 -45 -33 -76t-76 -35zM207 4007q26 0 50 18.5t27 56.5q-2 29 -19 50q-23 26 -56 26q-22 0 -43 -13t-30 -39q-4 -13 -4 -25q0 -18 12.5 -40.5t43.5 -31.5q10 -2 19 -2 z" glyph-name="degree" horiz-adv-x="374" unicode="°"/><glyph d="M1439 0h-1389v183h1389l-1 -41zM836 514h-183v603h-603v183h603v603h183v-603h603l-1 -41l1 -142h-603v-603z" glyph-name="plusminus" horiz-adv-x="1489" unicode="±"/><glyph d="M60 3855l-10 39l77 19l571 260l32 -153z" glyph-name="acute" horiz-adv-x="780" unicode="´"/><glyph d="M148 -353q-52 0 -98 10l17 98q34 -6 69 -6q29 0 50 2q27 5 41 12q19 9 19 23t-18 31h-1q-21 17 -51 23.5t-59 9.5q-2 0 -3 1l-20 2l87 238l94 -35l-15 -40h-1l-32 -88q80 -28 108 -92q10 -27 10 -51q0 -45 -33 -84q-9 -10 -20 -17q-51 -33 -118 -36z" glyph-name="cedilla" horiz-adv-x="404" unicode="¸"/><glyph d="M1446 3882q-65 0 -112 47t-47 112t47 112t112 47q67 0 113 -48t46 -114v-3q-4 -65 -50 -109t-109 -44zM1407 0q-60 0 -239.5 15t-438.5 159q-257 146 -432 394q-174 252 -219 542q-13 89 -13 177q0 203 68 405q101 290 315 492q84 77 178.5 141t190.5 123q149 88 288 194 q163 129 236 287t73 386h40q0 -69 -6 -131q0 -111 -37 -210t-100.5 -192t-144 -183.5t-168.5 -182.5q-103 -107 -203 -221t-182 -242.5t-131.5 -277t-49.5 -323.5q0 -254 55 -489.5t173.5 -420.5t308 -292.5t456.5 -109.5q82 1 163 12q210 35 341 136t201 231.5t97.5 254.5 t30.5 207l3 83h297l1 -45q0 -276 -194 -514q-185 -218 -496 -327q-227 -78 -462 -78z" glyph-name="questiondown" horiz-adv-x="2622" unicode="¿"/><glyph d="M3847 0h-877v40h264l-306 834h-2110l-305 -834h414v-40h-877v40h420l1525 4161h43l1524 -4161h285v-40zM2913 914l-1040 2839l-1040 -2839h2080zM2354 4458l-670 165l32 153l570 -261l77 -18z" glyph-name="Agrave" horiz-adv-x="3897" unicode="À"/><glyph d="M3847 0h-877v40h264l-306 834h-2110l-305 -834h414v-40h-877v40h420l1525 4161h42l1525 -4161h285v-40zM2913 914l-1040 2839l-1040 -2839h2080zM1647 4458l-9 39l77 18l570 261l32 -153z" glyph-name="Aacute" horiz-adv-x="3897" unicode="Á"/><glyph d="M3847 0h-877v40h264l-306 834h-2110l-306 -834h415v-40h-877v40h420l1525 4161h42l1525 -4161h285v-40zM2913 914l-1040 2839l-1040 -2839h2080zM2495 4458l-487 120l-488 -120l-10 39l77 18l421 192l420 -192l77 -18z" glyph-name="Acircumflex" horiz-adv-x="3897" unicode="Â"/><glyph d="M3846 0h-877v40h264l-305 834h-2110l-306 -834h415v-40h-877v40h420l1525 4161h42l1525 -4161h284v-40zM2913 914l-1040 2839l-1040 -2839h2080zM2149 4454q-92 0 -190 64q-81 52 -131 52q-20 0 -40 -8l-35 72q34 16 73 16q55 0 120 -32q28 -15 54 -31q43 -27 85 -43 q33 -10 65 -10q47 0 92 22l37 -70q-63 -32 -130 -32z" glyph-name="Atilde" horiz-adv-x="3896" unicode="Ã"/><glyph d="M3846 0h-877v40h264l-305 834h-2110l-306 -834h415v-40h-877v40h420l1525 4161h42l1525 -4161h284v-40zM2913 914l-1040 2839l-1040 -2839h2080zM1826 4458q-44 0 -74.5 31.5t-30.5 74.5v3q3 43 33 72.5t72 29.5q43 0 74.5 -31.5t31.5 -74.5t-31.5 -74t-74.5 -31z M2193 4458q-45 0 -75.5 32t-30.5 77q3 43 33.5 72.5t72.5 29.5q43 0 74 -31.5t31 -74.5t-31 -74t-74 -31z" glyph-name="Adieresis" horiz-adv-x="3896" unicode="Ä"/><glyph d="M3846 0h-877v40h264l-305 834h-2110l-306 -834h415v-40h-877v40h420l1525 4161h42l1525 -4161h284v-40zM2913 914l-1040 2839l-1040 -2839h2080zM2017 4458q-44 0 -75 30.5t-31 74.5t31 74.5t75 30.5q43 0 74 -30.5t31 -74.5t-31 -74.5t-74 -30.5zM2017 4498q27 0 46 19 t19 46t-19 46t-46 19t-46.5 -19t-19.5 -46t19.5 -46t46.5 -19z" glyph-name="Aring" horiz-adv-x="3896" unicode="Å"/><glyph d="M4253 0h-2542v40h284v834h-1177l-305 -834h414v-40h-877v40h420l1525 4161h2258v-40h-2088q49 -7 77 -56q49 -85 58 -223l3 -48v-1693h1484v-40h-1484v-2061h1950v-40zM1995 914v3172l-1162 -3172h1162z" glyph-name="AE" horiz-adv-x="4303" unicode="Æ"/><glyph d="M1930 -418h-20q-56 0 -104 9l18 98q33 -6 68 -6q29 0 50 2l11 2q41 8 48 29q1 2 1 5q0 12 -18 30q-36 28 -111 33q-2 0 -3 1l-20 3l74 201q-361 12 -692 165q-348 162 -615.5 455t-414.5 673q-152 395 -152 823q0 429 152 824q147 379 414.5 672.5t615.5 454.5 q362 167 754 167t754 -167q397 -184 692 -543l-171 -190q-204 371 -507.5 597t-669.5 260h-1q-48 3 -97 3t-97 -3h-2q-310 -28 -577.5 -197.5t-468.5 -451t-315 -647t-114 -779.5t114 -779t315 -647t468.5 -451.5t577.5 -196.5l2 -1q48 -2 97 -2q98 0 98 3q392 36 711 291 t520 670l210 -171q-78 -112 -170 -212q-268 -293 -615 -455q-339 -156 -710 -166l-47 -126q80 -28 108 -92q10 -27 10 -51q0 -45 -33 -84q-9 -10 -19 -17q-52 -33 -119 -36z" glyph-name="Ccedilla" horiz-adv-x="3575" unicode="Ç"/><glyph d="M2592 0h-2542v40h284v4121h-284v40h2542v-40h-2088q49 -7 77.5 -56.5t41.5 -112t17 -110.5l3 -48v-1694h1483v-40h-1483v-2060h1949v-40zM1651 4454l-670 165l32 152l571 -260l77 -19z" glyph-name="Egrave" horiz-adv-x="2642" unicode="È"/><glyph d="M2592 0h-2542v40h284v4121h-284v40h2542v-40h-2088q49 -7 77.5 -56.5t41.5 -112t17 -110.5l3 -48v-1694h1483v-40h-1483v-2060h1949v-40zM1101 4454l-10 38l77 19l571 260l32 -152z" glyph-name="Eacute" horiz-adv-x="2642" unicode="É"/><glyph d="M2592 0h-2542v40h284v4121h-284v40h2542v-40h-2088q49 -7 77.5 -56.5t41.5 -112t17 -110.5l3 -48v-1694h1483v-40h-1483v-2060h1949v-40zM1915 4453l-488 120l-488 -120l-9 39l77 19l420 191l420 -191l77 -19z" glyph-name="Ecircumflex" horiz-adv-x="2642" unicode="Ê"/><glyph d="M2592 0h-2542v40h284v4121h-284v40h2542v-40h-2088q49 -7 77.5 -56.5t41.5 -112t17 -110.5l3 -48v-1694h1483v-40h-1483v-2060h1949v-40zM1345 4453q-44 0 -74.5 31.5t-30.5 75.5t31.5 74t73.5 30q43 0 74.5 -31t31.5 -74q0 -44 -31.5 -75t-74.5 -31zM1711 4453 q-44 0 -74.5 32t-30.5 78q3 43 33 72t72 29q43 0 74.5 -31t31.5 -74q0 -44 -31.5 -75t-74.5 -31z" glyph-name="Edieresis" horiz-adv-x="2642" unicode="Ë"/><glyph d="M927 0h-877v40h284v4121h-284v40h877v-40h-431q42 0 69.5 -33.5t43 -82t23 -97t9.5 -81.5l2 -33v-3794h284v-40zM819 4458l-670 164l32 153l570 -260l77 -19z" glyph-name="Igrave" unicode="Ì"/><glyph d="M927 0h-877v40h284v4121h-284v40h877v-40h-431q42 0 69.5 -33.5t43 -82t23 -97t9.5 -81.5l2 -33v-3794h284v-40zM158 4458l-9 38l77 19l570 260l32 -153z" glyph-name="Iacute" unicode="Í"/><glyph d="M927 0h-877v40h284v4121h-284v40h877v-40h-431q42 0 69.5 -33.5t43 -82t23 -97t9.5 -81.5l2 -33v-3794h284v-40zM976 4458l-488 120l-487 -120l-10 38l77 19l420 192l421 -192l77 -19z" glyph-name="Icircumflex" unicode="Î"/><glyph d="M927 -2h-877v40h284v4121h-284v40h877v-40h-431q42 0 69.5 -33.5t43 -81.5t23 -96.5t9.5 -82.5l2 -33v-3794h284v-40zM305 4456q-44 0 -74.5 32t-30.5 77q3 43 33 72.5t72 29.5q43 0 74.5 -31.5t31.5 -74.5t-31.5 -74t-74.5 -31zM672 4456q-45 0 -75.5 32t-30.5 77 q3 43 33.5 72.5t72.5 29.5q43 0 74 -31.5t31 -74.5t-31 -74t-74 -31z" glyph-name="Idieresis" unicode="Ï"/><glyph d="M305 0v40h285v1906h-540v308h540v1907h-285v40l1199 -2q427 0 817 -165q377 -160 667.5 -450.5t449.5 -666.5q165 -392 165 -817t-165 -817q-159 -377 -449.5 -667t-667.5 -450q-390 -165 -817 -165zM1504 41q96 0 189 9q336 90 618 281t490 462.5t324 604t116 702.5 t-115.5 702t-323.5 603.5t-489.5 463t-616.5 281.5q-94 9 -192 9h-735q81 -22 111 -173q18 -91 18 -153v-1579h591v-308h-591v-1905h606z" glyph-name="Eth" horiz-adv-x="3625" unicode="Ð"/><glyph d="M927 -2h-877v40h419v4120h-419v40h459l2568 -3662v3623h-418v40h877v-40h-419v-4160h-40l-2568 3662v-3623h418v-40zM1926 4455q-45 0 -88 14q-55 21 -101 51q-26 15 -49 27.5t-57 20.5q-13 3 -26 3q-20 0 -40 -8l-35 72q34 16 73 16q55 0 120 -32q29 -15 55 -31 q42 -27 85 -43q32 -10 63 -10q48 0 94 23l37 -71q-62 -32 -131 -32z" glyph-name="Ntilde" horiz-adv-x="3586" unicode="Ñ"/><glyph d="M1986 -19q-393 0 -755 167q-347 161 -614.5 454t-414.5 673q-152 395 -152 824q0 428 152 823q147 380 414.5 673t614.5 454q362 167 755 167q392 0 754 -167q347 -161 615 -454t415 -673q152 -395 152 -823q0 -429 -152 -824q-147 -380 -415 -673t-615 -454 q-362 -167 -754 -167zM1986 21q72 0 97 3h1q310 28 577.5 197.5t469 451t315 647t113.5 779.5t-113.5 779t-315 647t-469 451.5t-577.5 196.5h-1q-25 3 -97 3q-49 0 -98 -3h-1q-311 -27 -578 -196.5t-468.5 -451.5t-315 -647t-113.5 -779t113.5 -779.5t315 -647t468.5 -451 t578 -197.5h1q49 -3 98 -3zM2316 4456l-670 165l32 153l570 -261l77 -18z" glyph-name="Ograve" horiz-adv-x="3972" unicode="Ò"/><glyph d="M1986 -19q-392 0 -754 167q-347 161 -615 454t-415 673q-152 395 -152 824q0 428 152 823q147 380 415 673t615 454q362 167 754 167q393 0 755 -167q347 -161 614.5 -454t414.5 -673q152 -395 152 -823q0 -429 -152 -824q-147 -380 -414.5 -673t-614.5 -454 q-362 -167 -755 -167zM1986 21q73 0 98 3h1q310 28 577.5 197.5t469 451t315 647t113.5 779.5t-113.5 779t-315 647t-469 451.5t-577.5 196.5h-1q-25 3 -98 3q-49 0 -97 -3h-1q-311 -27 -578 -196.5t-468.5 -451.5t-315 -647t-113.5 -779t113.5 -779.5t315 -647t468.5 -451 t578 -197.5h1q48 -3 97 -3zM1672 4456l-10 39l77 18l571 261l32 -153z" glyph-name="Oacute" horiz-adv-x="3972" unicode="Ó"/><glyph d="M1986 -19q-392 0 -754 167q-347 161 -615 454t-415 673q-152 395 -152 824q0 428 152 823q147 380 415 673t615 454q362 167 754 167q393 0 754 -167q348 -161 615.5 -454t414.5 -673q152 -395 152 -823q0 -429 -152 -824q-147 -380 -414.5 -673t-615.5 -454 q-361 -167 -754 -167zM1986 21q73 0 98 3q311 28 578.5 197.5t468.5 451t315 647t114 779.5t-114 779t-315 647t-468.5 451.5t-578.5 196.5q-25 3 -98 3q-49 0 -97 -3h-1q-311 -27 -578 -196.5t-468.5 -451.5t-315.5 -647t-114 -779t114 -779.5t315.5 -647t468.5 -451 t578 -197.5h1q48 -3 97 -3zM2474 4463l-488 120l-487 -120l-10 38l77 19l420 192l421 -192l77 -19z" glyph-name="Ocircumflex" horiz-adv-x="3972" unicode="Ô"/><glyph d="M1986 -19q-392 0 -754 167q-347 161 -615 454t-415 673q-152 395 -152 824q0 428 152 823q147 380 415 673t615 454q362 167 754 167t754 -167q348 -161 615.5 -454t414.5 -673q152 -395 152 -823q0 -429 -152 -824q-147 -380 -414.5 -673t-615.5 -454 q-362 -167 -754 -167zM1986 21q72 0 98 3q311 28 578.5 197.5t468.5 451t315 647t114 779.5t-114 779t-315 647t-468.5 451.5t-578.5 196.5q-26 3 -98 3q-49 0 -97 -3h-2q-310 -27 -577.5 -196.5t-468.5 -451.5t-315 -647t-114 -779t114 -779.5t315 -647t468.5 -451 t577.5 -197.5h2q48 -3 97 -3zM2119 4456q-92 0 -190 64q-25 16 -48 28.5t-58 20.5q-13 3 -25 3q-21 0 -40 -8l-35 72q34 16 73 16q55 0 120 -32q28 -15 54 -31q43 -27 85 -43q33 -10 65 -10q47 0 92 22l37 -70q-63 -32 -130 -32z" glyph-name="Otilde" horiz-adv-x="3972" unicode="Õ"/><glyph d="M1986 -19q-392 0 -754 167q-348 161 -615.5 454t-414.5 673q-152 395 -152 824q0 428 152 823q147 380 414.5 673t615.5 454q362 167 754 167t754 -167q347 -161 615 -454t415 -673q152 -395 152 -823q0 -429 -152 -824q-147 -380 -415 -673t-615 -454 q-362 -167 -754 -167zM1986 21q72 0 98 3q311 28 578 197.5t468.5 451t315.5 647t114 779.5t-114 779t-315.5 647t-468.5 451.5t-578 196.5q-26 3 -98 3q-49 0 -98 -3h-1q-310 -27 -577.5 -196.5t-468.5 -451.5t-315 -647t-114 -779t114 -779.5t315 -647t468.5 -451 t577.5 -197.5h1q49 -3 98 -3zM1803 4448q-45 0 -75.5 32t-30.5 78q3 43 33.5 72t72.5 29q43 0 74 -31t31 -74t-31 -74.5t-74 -31.5zM2169 4448q-44 0 -74.5 31.5t-30.5 75.5t31.5 74t73.5 30q43 0 74 -31t31 -74t-31 -74.5t-74 -31.5z" glyph-name="Odieresis" horiz-adv-x="3972" unicode="Ö"/><glyph d="M986 1586l-403 404l-403 -404l-130 129l404 404l-404 403l130 129l403 -403l403 403l129 -129l-403 -403l403 -404z" glyph-name="multiply" horiz-adv-x="1165" unicode="×"/><glyph d="M1986 -19q-393 0 -754 167q-200 93 -375 230l-254 -380h-48l271 405l-2 1q-110 90 -208 198q-267 293 -414 673q-152 395 -152 824q0 428 152 823q147 380 414.5 673t615.5 454q361 167 754 167q392 0 754 -167q204 -94 373 -228l1 -2l255 380h48l-271 -405 q110 -90 209 -199q268 -293 415 -673q152 -395 152 -823q0 -429 -152 -824q-147 -380 -415 -673t-615 -454q-362 -167 -754 -167zM929 558l2086 3113l-3 3q-190 217 -426 346.5t-502 152.5q-26 3 -98 3q-49 0 -98 -3h-1q-310 -27 -577.5 -196.5t-468.5 -451.5t-315 -647 t-114 -779q0 -305 63 -584.5t178 -521t274 -432.5zM1986 21q72 0 98 3q311 28 578 197.5t468.5 451t315.5 647t114 779.5q0 305 -63.5 585.5t-179 522t-275.5 433.5l-2086 -3114q191 -218 427.5 -348.5t503.5 -153.5h1q49 -3 98 -3z" glyph-name="Oslash" horiz-adv-x="3972" unicode="Ø"/><glyph d="M2239 4461l-670 165l32 153l570 -260l78 -19zM1840 0q-305 0 -587 119q-271 114 -479.5 323t-323.5 480q-100 237 -116 495v2747h-284v40h877v-40h-431q75 0 113 -115q27 -83 32 -179l2 -33v-2473l9 -94q10 -94 44 -240q87 -365 308 -628q283 -337 783 -361l53 -1 q303 0 569 114t467.5 314.5t315.5 465t117 569.5v2661h-418v40h877v-40h-419v-2662q-1 -303 -118 -580q-115 -271 -324 -480t-479 -323q-282 -119 -588 -119z" glyph-name="Ugrave" horiz-adv-x="3818" unicode="Ù"/><glyph d="M1579 4463l-10 39l77 19l571 260l32 -153zM1840 0q-305 0 -587 119q-271 114 -479.5 323t-323.5 480q-100 237 -116 495v2747h-284v40h877v-40h-431q75 0 113 -115q27 -83 32 -179l2 -33v-2473l9 -94q10 -94 44 -240q87 -365 308 -628q283 -337 783 -361l53 -1 q303 0 569 114t467.5 314.5t315.5 465t117 569.5v2661h-418v40h877v-40h-419v-2662q-1 -303 -118 -580q-115 -271 -324 -480t-479 -323q-282 -119 -588 -119z" glyph-name="Uacute" horiz-adv-x="3818" unicode="Ú"/><glyph d="M2396 4461l-488 120l-487 -120l-10 39l77 19l420 192l421 -192l77 -19zM1840 0q-305 0 -587 119q-271 114 -479.5 323t-323.5 480q-100 237 -116 495v2747h-284v40h877v-40h-431q75 0 113 -115q27 -83 32 -179l2 -33v-2473l9 -94q10 -94 44 -240q87 -365 308 -628 q283 -337 783 -361l53 -1q303 0 569 114t467.5 314.5t315.5 465t117 569.5v2661h-418v40h877v-40h-419v-2662q-1 -303 -118 -580q-115 -271 -324 -480t-479 -323q-282 -119 -588 -119z" glyph-name="Ucircumflex" horiz-adv-x="3817" unicode="Û"/><glyph d="M1726 4460q-44 0 -74.5 31.5t-30.5 75.5t31.5 74t73.5 30q43 0 74.5 -31t31.5 -74t-31.5 -74.5t-74.5 -31.5zM2092 4460q-44 0 -74.5 32t-30.5 78q3 43 33 72t72 29q43 0 74.5 -31t31.5 -74t-31.5 -74.5t-74.5 -31.5zM1841 0q-306 0 -588 119q-270 114 -479 323t-324 480 q-100 237 -115 495v2747h-285v40h877v-40h-431q75 0 113 -115q27 -83 32 -179l2 -33v-2473l10 -94q9 -94 44 -240q86 -365 308 -628q283 -337 782 -361l54 -1q303 0 568.5 114t467 314.5t315.5 465t117 569.5v2661h-418v40h877v-40h-419v-2662q-1 -303 -118 -580 q-115 -271 -323.5 -480t-479.5 -323q-282 -119 -587 -119z" glyph-name="Udieresis" horiz-adv-x="3818" unicode="Ü"/><glyph d="M2729 0h-877v40h285v1573l-1806 2549h-281v40h877v-40h-300q40 -15 78 -45t69.5 -63.5t50.5 -57.5l19 -24l1577 -2227l1712 2417h-395v40h877v-40h-433l-1737 -2452v-1670h284v-40zM2121 4460l-9 38l77 19l570 260l32 -152z" glyph-name="Yacute" horiz-adv-x="4665" unicode="Ý"/><glyph d="M927 0h-877v40h284v4121h-284v40h877v-40h-431q75 0 113 -115q27 -83 32 -179l2 -33v-589h864q230 0 439.5 -87t374 -251t251 -373.5t86.5 -440.5t-86.5 -440t-251 -373.5t-374 -251t-439.5 -86.5h-864v-902h284v-40zM1469 982q171 0 321 86.5t263.5 239t178 354 t64.5 432.5q0 230 -64.5 431.5t-178 354t-263.5 239t-321 86.5h-826v-2223h826z" glyph-name="Thorn" horiz-adv-x="2680" unicode="Þ"/><glyph d="M1637 0h-28q-198 0 -380 113q-143 94 -241.5 247.5t-134.5 340.5l39 7q77 -369 359 -562q158 -100 339 -106h47q140 27 252 198.5t178.5 447.5t66.5 606q0 287 -50.5 533t-138 420.5t-200.5 251.5q-39 22 -108 50q-98 39 -200 57q-50 5 -108.5 29t-80.5 92q-5 17 -5 34 q0 54 37.5 97.5t88.5 59.5q15 4 29.5 6.5t28.5 2.5q120 28 199.5 197.5t79.5 404.5q0 203 -60 358.5t-155 217.5q-62 23 -91 28q-107 28 -223 28l-43 -1q-257 -12 -491 -138l-3 -2q-10 -5 -19 -11q14 -62 18 -112.5t4 -57.5v-3795h284v-40h-877v40h285v3800l32 31q3 2 5 4 t5 4.5t6 6.5q4 2 7 5q13 12 26 22.5t25 20.5q4 2 6.5 4.5t4.5 3.5l17 13l26 18q22 17 65 43l18 12q5 2 9.5 5t9.5 5q10 7 84 45q219 103 451 113l42 1q123 0 238 -29q184 -47 322 -164q125 -108 195.5 -261.5t70.5 -314.5q0 -30 -3 -60q-19 -188 -137 -330 q-131 -154 -307 -157q-26 0 -52 1.5t-50 1.5q-20 0 -38 -1.5t-33 -6.5q-39 -12 -68 -46t-29 -74q0 -12 3 -23q14 -46 58.5 -65t98.5 -27q99 -17 194 -53q170 -64 320 -182q237 -189 377 -466q138 -279 160 -609q4 -54 4 -109q0 -269 -85 -520q-77 -227 -215 -397 q-148 -182 -335 -258q-110 -43 -226 -49z" glyph-name="germandbls" horiz-adv-x="2498" unicode="ß"/><glyph d="M1385 3152l-670 165l32 153l570 -260l77 -19zM873 -11h-24q-254 0 -494 148q-242 157 -352 407q-71 169 -71 351q0 91 18 185q57 283 249 478q113 108 248 184t274 140l855 404q-20 342 -145.5 496t-415.5 154h-7q-68 -5 -133 -20q-132 -48 -212.5 -158t-121 -233 t-53.5 -213l-14 -90h-238q14 155 80 288v1q65 132 170 233q148 143 350 202q109 32 227 32q151 0 287 -51q1 0 1 -1q128 -47 232 -132l2 -1l13 -11q142 -120 220 -290q64 -138 74 -297q1 -23 1 -2158h285v-40h-431q-69 6 -115.5 54.5t-46.5 117.5v198q-86 -114 -204 -200 q-235 -167 -508 -178zM928 56q166 0 298 63q222 110 359 317l-2 874q-3 880 -5 933l-563 -267q-83 -40 -210.5 -130.5t-253 -235.5t-199.5 -348q-57 -154 -57 -344q0 -61 6 -125q38 -321 152.5 -484.5t261.5 -214.5q109 -38 213 -38z" glyph-name="agrave" horiz-adv-x="2227" unicode="à"/><glyph d="M609 3152l-9 39l77 19l570 260l32 -153zM873 -11h-24q-254 0 -494 148q-242 157 -352 407q-71 169 -71 351q0 91 18 185q57 283 249 478q113 108 248 184t274 140l855 404q-20 342 -145.5 496t-415.5 154h-7q-68 -5 -133 -20q-132 -48 -212.5 -158t-121 -233t-53.5 -213 l-14 -90h-238q14 155 80 288v1q65 132 170 233q148 143 350 202q109 32 227 32q151 0 287 -51q1 0 1 -1q128 -47 232 -132l2 -1l13 -11q142 -120 220 -290q64 -138 74 -297q1 -23 1 -2158h285v-40h-431q-69 6 -115.5 54.5t-46.5 117.5v198q-86 -114 -204 -200 q-235 -167 -508 -178zM928 56q166 0 298 63q222 110 359 317l-2 874q-3 880 -5 933l-563 -267q-83 -40 -210.5 -130.5t-253 -235.5t-199.5 -348q-57 -154 -57 -344q0 -61 6 -125q38 -321 152.5 -484.5t261.5 -214.5q109 -38 213 -38z" glyph-name="aacute" horiz-adv-x="2227" unicode="á"/><glyph d="M1542 3152l-487 120l-488 -120l-10 39l77 19l421 191l420 -191l77 -19zM873 -11h-24q-254 0 -494 148q-242 157 -352 407q-71 169 -71 351q0 91 18 185q57 283 249 478q113 108 248 184t274 140l855 404q-20 342 -145.5 496t-415.5 154h-7q-68 -5 -133 -20 q-132 -48 -212.5 -158t-121 -233t-53.5 -213l-14 -90h-238q14 155 80 288v1q65 132 170 233q148 143 350 202q109 32 227 32q151 0 287 -51q1 0 1 -1q128 -47 232 -132l2 -1l13 -11q142 -120 220 -290q64 -138 74 -297q1 -23 1 -2158h285v-40h-431q-69 6 -115.5 54.5 t-46.5 117.5v198q-86 -114 -204 -200q-235 -167 -508 -178zM928 56q166 0 298 63q222 110 359 317l-2 874q-3 880 -5 933l-563 -267q-83 -40 -210.5 -130.5t-253 -235.5t-199.5 -348q-57 -154 -57 -344q0 -61 6 -125q38 -321 152.5 -484.5t261.5 -214.5q109 -38 213 -38z " glyph-name="acircumflex" horiz-adv-x="2227" unicode="â"/><glyph d="M1188 3148q-45 0 -89 14q-55 21 -101 51q-25 15 -48 27.5t-57 20.5q-13 4 -26 4q-21 0 -40 -9l-35 72q34 16 74 16q55 0 119 -32l54 -30q43 -28 86 -44q32 -10 63 -10q47 0 93 23l37 -71q-61 -32 -130 -32zM873 -11h-24q-254 0 -494 148q-242 157 -352 407 q-71 169 -71 351q0 91 18 185q57 283 249 478q113 108 248 184t274 140l855 404q-20 342 -145.5 496t-415.5 154h-7q-68 -5 -133 -20q-132 -48 -212.5 -158t-121 -233t-53.5 -213l-14 -90h-238q14 155 80 288v1q65 132 170 233q148 143 350 202q109 32 227 32q151 0 287 -51 q1 0 1 -1q128 -47 232 -132l2 -1l13 -11q142 -120 220 -290q64 -138 74 -297q1 -23 1 -2158h285v-40h-431q-69 6 -115.5 54.5t-46.5 117.5v198q-86 -114 -204 -200q-235 -167 -508 -178zM928 56q166 0 298 63q222 110 359 317l-2 874q-3 880 -5 933l-563 -267 q-83 -40 -210.5 -130.5t-253 -235.5t-199.5 -348q-57 -154 -57 -344q0 -61 6 -125q38 -321 152.5 -484.5t261.5 -214.5q109 -38 213 -38z" glyph-name="atilde" horiz-adv-x="2227" unicode="ã"/><glyph d="M872 3152q-45 0 -75.5 32t-30.5 78q3 43 33.5 72t72.5 29q43 0 74 -31t31 -75q0 -43 -31 -74t-74 -31zM1238 3152q-45 0 -75.5 32t-30.5 78q3 43 33.5 72t72.5 29q43 0 74 -31t31 -75q0 -43 -31 -74t-74 -31zM873 -11h-24q-254 0 -494 148q-242 157 -352 407 q-71 169 -71 351q0 91 18 185q57 283 249 478q113 108 248 184t274 140l855 404q-20 342 -145.5 496t-415.5 154h-7q-68 -5 -133 -20q-132 -48 -212.5 -158t-121 -233t-53.5 -213l-14 -90h-238q14 155 80 288v1q65 132 170 233q148 143 350 202q109 32 227 32q151 0 287 -51 q1 0 1 -1q128 -47 232 -132l2 -1l13 -11q142 -120 220 -290q64 -138 74 -297q1 -23 1 -2158h285v-40h-431q-69 6 -115.5 54.5t-46.5 117.5v198q-86 -114 -204 -200q-235 -167 -508 -178zM928 56q166 0 298 63q222 110 359 317l-2 874q-3 880 -5 933l-563 -267 q-83 -40 -210.5 -130.5t-253 -235.5t-199.5 -348q-57 -154 -57 -344q0 -61 6 -125q38 -321 152.5 -484.5t261.5 -214.5q109 -38 213 -38z" glyph-name="adieresis" horiz-adv-x="2228" unicode="ä"/><glyph d="M1059 3152q-43 0 -74 31t-31 74q0 44 31 75t74 31q44 0 75 -31t31 -75q0 -43 -31 -74t-75 -31zM1059 3192q27 0 46.5 19t19.5 46t-19.5 46.5t-46.5 19.5t-46 -19.5t-19 -46.5t19 -46t46 -19zM873 -11h-24q-254 0 -494 148q-242 157 -352 407q-71 169 -71 351q0 91 18 185 q57 283 249 478q113 108 248 184t274 140l855 404q-20 342 -145.5 496t-415.5 154h-7q-68 -5 -133 -20q-132 -48 -212.5 -158t-121 -233t-53.5 -213l-14 -90h-238q14 155 80 288v1q65 132 170 233q148 143 350 202q109 32 227 32q151 0 287 -51q1 0 1 -1q128 -47 232 -132 l2 -1l13 -11q142 -120 220 -290q64 -138 74 -297q1 -23 1 -2158h285v-40h-431q-69 6 -115.5 54.5t-46.5 117.5v198q-86 -114 -204 -200q-235 -167 -508 -178zM928 56q166 0 298 63q222 110 359 317l-2 874q-3 880 -5 933l-563 -267q-83 -40 -210.5 -130.5t-253 -235.5 t-199.5 -348q-57 -154 -57 -344q0 -61 6 -125q38 -321 152.5 -484.5t261.5 -214.5q109 -38 213 -38z" glyph-name="aring" horiz-adv-x="2228" unicode="å"/><glyph d="M2964 -30q-280 0 -538 119q-247 116 -438 326q-93 101 -173 231l-299 -357q-61 -66 -135 -119q-235 -167 -508 -178h-24q-254 0 -494 148q-242 157 -352 407q-71 169 -71 351q0 91 18 185q57 283 249 477q113 109 248 185t274 139l855 404q-20 342 -145.5 496.5 t-415.5 154.5h-7q-68 -5 -133 -21q-132 -48 -212.5 -157.5t-121 -233t-53.5 -212.5l-14 -90h-238q14 154 80 288v1q65 132 170 233q148 143 350 202q109 32 227 32q151 0 287 -52h1q128 -48 232 -132l2 -1l13 -11q142 -120 220 -290q23 -50 39 -103q230 333 569 491 q247 115 516 119v1h14q427 -7 705 -221q164 -127 278 -306q123 -203 173.5 -384.5t58.5 -264.5l4 -40h-2207q-21 -147 -21 -301q0 -294 73.5 -553.5t203 -459.5t302 -320.5t372.5 -140.5h1q32 -2 65 -2q32 0 64 2h1q232 24 425 179.5t324 410.5l245 -86q-39 -52 -84 -101 q-191 -210 -438 -326q-258 -119 -537 -119zM3872 1827q-61 650 -384 924q-19 19 -55 45l-7 6q-150 103 -278 133q-119 28 -177 28q-16 0 -30 -1h-4q-236 -11 -434.5 -159.5t-336.5 -401t-192 -574.5h1898zM928 59q166 0 298 63q222 110 359 316l-2 875q-3 881 -5 932 l-563 -266q-83 -40 -210.5 -130.5t-253 -235.5t-199.5 -348q-57 -154 -57 -344q0 -61 6 -125q38 -321 152.5 -484.5t261.5 -214.5q109 -38 213 -38z" glyph-name="ae" horiz-adv-x="4169" unicode="æ"/><glyph d="M1219 -438q-52 0 -99 9l18 99q39 -7 78 -7q21 0 40 3q5 0 7.5 1t3.5 1q41 6 49 28v10q-3 14 -18 25v1q-22 18 -53 24.5t-61 8.5l-20 3q34 94 46 126.5t32 84.5q-227 19 -436 116q-247 116 -439 325q-196 217 -299.5 493t-103.5 579t103.5 579t299.5 492q192 211 439 326 q258 119 537 119q281 0 538 -119q247 -115 438 -326q24 -26 47 -55q-89 -49 -121 -67.5t-93 -53.5q-138 261 -339.5 415t-443.5 166h-52q-207 -9 -386 -126t-314.5 -319t-212.5 -466.5t-77 -565.5q0 -294 73.5 -553t203 -459t301.5 -321q202 -141 438 -143q32 0 62 2h4 q231 24 424 180t325 410l245 -86q-40 -52 -84 -101q-191 -209 -438 -325q-257 -120 -538 -120h-11l13 -4l-48 -128q82 -29 109 -92q9 -24 9 -49q0 -47 -33 -87l-19 -16q-54 -37 -144 -37z" glyph-name="ccedilla" horiz-adv-x="2403" unicode="ç"/><glyph d="M1343 -17q-280 0 -537 119q-248 116 -439 326q-196 217 -299.5 492.5t-103.5 578.5q0 304 103.5 579.5t299.5 492.5q191 210 438 325t516 120h14q228 -4 402.5 -63.5t303 -158t217.5 -218.5q32 -43 61 -87q123 -203 173.5 -384.5t57.5 -264.5l5 -40h-2208 q-21 -147 -21 -301q0 -294 73.5 -553.5t203.5 -459.5t302 -320.5t373 -140.5q10 -2 65 -2q32 0 64 2h1q232 24 425 179.5t325 410.5l245 -86q-215 -283 -523 -427q-257 -119 -537 -119zM2251 1840q-61 649 -383 924q-2 1 -3.5 2.5l-3.5 3.5q-24 21 -56 45q-150 103 -277 133 q-120 28 -178 28q-15 0 -29 -1h-4q-237 -11 -435.5 -159.5t-336.5 -401t-192 -574.5h1898zM1632 3152l-670 165l32 153l570 -260l77 -19z" glyph-name="egrave" horiz-adv-x="2548" unicode="è"/><glyph d="M1343 -17q-280 0 -537 119q-248 116 -439 326q-196 217 -299.5 492.5t-103.5 578.5q0 304 103.5 579.5t299.5 492.5q191 210 438 325t516 120h14q228 -4 402.5 -63.5t303 -158t217.5 -218.5q32 -43 61 -87q123 -203 173.5 -384.5t57.5 -264.5l5 -40h-2208 q-21 -147 -21 -301q0 -294 73.5 -553.5t203.5 -459.5t302 -320.5t373 -140.5q10 -2 65 -2q32 0 64 2h1q232 24 425 179.5t325 410.5l245 -86q-215 -283 -523 -427q-257 -119 -537 -119zM2251 1840q-61 649 -383 924q-2 1 -3.5 2.5l-3.5 3.5q-36 30 -56 45q-150 103 -277 133 q-120 28 -178 28q-15 0 -29 -1h-4q-237 -11 -435.5 -159.5t-336.5 -401t-192 -574.5h1898zM929 3152l-10 39l77 19l570 260l32 -153z" glyph-name="eacute" horiz-adv-x="2548" unicode="é"/><glyph d="M1343 -17q-280 0 -537 119q-248 116 -439 326q-196 217 -299.5 492.5t-103.5 578.5q0 304 103.5 579.5t299.5 492.5q191 210 438 325t516 120h14q228 -4 402.5 -63.5t303 -158t217.5 -218.5q32 -43 61 -87q123 -203 173.5 -384.5t57.5 -264.5l5 -40h-2208 q-21 -147 -21 -301q0 -294 73.5 -553.5t203.5 -459.5t302 -320.5t373 -140.5q10 -2 65 -2q32 0 64 2h1q232 24 425 179.5t325 410.5l245 -86q-215 -283 -523 -427q-257 -119 -537 -119zM2251 1840q-61 649 -383 924q-2 1 -3.5 2.5l-3.5 3.5q-36 30 -56 45q-150 103 -277 133 q-120 28 -178 28q-15 0 -29 -1h-4q-237 -11 -435.5 -159.5t-336.5 -401t-192 -574.5h1898zM1790 3153l-488 120l-488 -120l-9 39l77 19l420 192l420 -192l77 -19z" glyph-name="ecircumflex" horiz-adv-x="2549" unicode="ê"/><glyph d="M1343 -17q-280 0 -537 119q-248 116 -439 326q-196 217 -299.5 492.5t-103.5 578.5q0 304 103.5 579.5t299.5 492.5q191 210 438 325t516 120h14q228 -4 402.5 -63.5t303 -158t217.5 -218.5q32 -43 61 -87q123 -203 173.5 -384.5t57.5 -264.5l5 -40h-2208 q-21 -147 -21 -301q0 -294 73.5 -553.5t203.5 -459.5t302 -320.5t373 -140.5q10 -2 65 -2q32 0 64 2h1q232 24 425 179.5t325 410.5l245 -86q-215 -283 -523 -427q-257 -119 -537 -119zM2251 1840q-61 649 -383 924q-2 1 -3.5 2.5l-3.5 3.5q-24 21 -56 45q-150 103 -277 133 q-120 28 -178 28q-15 0 -29 -1h-4q-237 -11 -435.5 -159.5t-336.5 -401t-192 -574.5h1898zM1076 3152q-44 0 -74.5 32t-30.5 78q3 43 33.5 72t71.5 29q44 0 75 -31t31 -74q0 -44 -31 -75t-75 -31zM1443 3152q-45 0 -75.5 32t-30.5 78q3 43 33.5 72t72.5 29q43 0 74 -31 t31 -74q0 -44 -31 -75t-74 -31z" glyph-name="edieresis" horiz-adv-x="2549" unicode="ë"/><glyph d="M927 -3h-877v40h284v2900h-284v40h877v-40h-431q42 0 69 -33t43 -81.5t23.5 -97t8.5 -82.5l2 -33v-2573h285v-40zM818 3152l-670 165l32 153l571 -260l77 -19z" glyph-name="igrave" unicode="ì"/><glyph d="M927 -3h-877v40h285v2900h-285v40h877v-40h-431q43 0 70 -33t43 -81.5t23 -97t9 -82.5l2 -33v-2573h284v-40zM159 3152l-10 39l77 19l570 260l33 -153z" glyph-name="iacute" unicode="í"/><glyph d="M927 -3h-877v40h285v2900h-285v40h877v-40h-431q43 0 70 -33t43 -81.5t23 -97t9 -82.5l2 -33v-2573h284v-40zM977 3152l-488 120l-488 -120l-10 39l78 19l420 191l420 -191l77 -19z" glyph-name="icircumflex" unicode="î"/><glyph d="M927 -3h-877v40h284v2900h-284v40h877v-40h-431q42 0 69.5 -33t43.5 -81.5t23 -97t9 -82.5l2 -33v-2573h284v-40zM305 3153q-44 0 -74.5 32t-30.5 77q3 43 33.5 72.5t71.5 29.5q44 0 75 -31.5t31 -74.5t-31 -74t-75 -31zM672 3153q-45 0 -75.5 32t-30.5 77 q3 43 33.5 72.5t72.5 29.5q43 0 74 -31.5t31 -74.5t-31 -74t-74 -31z" glyph-name="idieresis" unicode="ï"/><glyph d="M1343 -25q-280 0 -537 119q-248 116 -439 326q-196 217 -299.5 492.5t-103.5 578.5q0 304 103.5 579.5t299.5 492.5q191 210 439 325q257 120 537 120t537 -120q83 -38 159 -87q-144 294 -349 465l-91 -110h-52l111 135q-132 101 -300 144l10 38l46 -6q46 -6 126 -28.5 t182 -70.5l87 106h52l-102 -124q170 -83 355.5 -263t342 -493.5t237.5 -797.5q12 -66 19 -134l1 -3q8 -83 8 -168q0 -303 -104 -578.5t-299 -492.5q-191 -210 -439 -326q-257 -119 -537 -119zM1343 15q32 0 64 2h1q267 28 480 226.5t339.5 518t132.5 711.5q-1 29 -18 195 t-65 408q-119 391 -358.5 632.5t-549.5 258.5l-26 1l-26 -1q-208 -9 -387 -126t-314.5 -318.5t-212.5 -466t-77 -565.5q0 -294 73.5 -553.5t203.5 -459.5t302 -320.5t373 -140.5q10 -2 65 -2z" glyph-name="eth" horiz-adv-x="2686" unicode="ð"/><glyph d="M2829 -6h-877v40h284v2548q0 61 -21.5 150.5t-86.5 149.5q-47 43 -126 43q-32 0 -70 -7q-30 -8 -60 -19h-1q-248 -89 -468 -390q-252 -347 -455 -953q-124 -378 -199 -711t-107 -525v-286h284v-40h-876v40h284v2900h-284v40h876v-40h-430q42 0 69 -33.5t43 -82 t23.5 -96.5t9.5 -81l1 -34v-2067q105 540 268 1028q205 612 461 964q325 444 710 444q89 0 155 -22q99 -33 158 -92q104 -104 136 -248q15 -68 15 -105v-2475h284v-40zM1572 3137q-45 0 -88 14q-55 21 -101 51q-25 15 -48.5 27.5t-57.5 20.5q-13 3 -26 3q-20 0 -40 -8 l-34 72q34 16 73 16q55 0 120 -32q28 -15 54 -31q42 -27 85 -43q32 -10 63 -10q48 0 94 23l37 -71q-62 -32 -131 -32z" glyph-name="ntilde" horiz-adv-x="2879" unicode="ñ"/><glyph d="M1343 -17q-280 0 -537 119q-248 116 -439 326q-196 217 -299.5 492.5t-103.5 578.5q0 304 103.5 579.5t299.5 492.5q191 210 439 325q257 120 537 120t537 -120q248 -115 439 -325q195 -217 299 -492.5t104 -579.5q0 -303 -104 -578.5t-299 -492.5q-191 -210 -439 -326 q-257 -119 -537 -119zM1343 23q32 0 64 2h1q201 20 373 140.5t302 320.5t203.5 459.5t73.5 553.5q0 301 -77 565.5t-212.5 466t-314.5 318.5t-387 126l-26 1l-26 -1q-208 -9 -387 -126t-314.5 -318.5t-212.5 -466t-77 -565.5q0 -294 73.5 -553.5t203.5 -459.5t302 -320.5 t373 -140.5q10 -2 65 -2zM1673 3154l-670 165l32 153l570 -260l77 -19z" glyph-name="ograve" horiz-adv-x="2686" unicode="ò"/><glyph d="M1343 -17q-280 0 -537 119q-248 116 -439 326q-196 217 -299.5 492.5t-103.5 578.5q0 304 103.5 579.5t299.5 492.5q191 210 439 325q257 120 537 120t537 -120q248 -115 439 -325q195 -217 299 -492.5t104 -579.5q0 -303 -104 -578.5t-299 -492.5q-191 -210 -439 -326 q-257 -119 -537 -119zM1343 23q32 0 64 2h1q201 20 373 140.5t302 320.5t203.5 459.5t73.5 553.5q0 301 -77 565.5t-212.5 466t-314.5 318.5t-387 126l-26 1l-26 -1q-208 -9 -387 -126t-314.5 -318.5t-212.5 -466t-77 -565.5q0 -294 73.5 -553.5t203.5 -459.5t302 -320.5 t373 -140.5q10 -2 65 -2zM1013 3154l-10 39l77 19l570 260l33 -153z" glyph-name="oacute" horiz-adv-x="2686" unicode="ó"/><glyph d="M1343 -17q-280 0 -537 119q-248 116 -439 326q-196 217 -299.5 492.5t-103.5 578.5q0 304 103.5 579.5t299.5 492.5q191 210 439 325q257 120 537 120t537 -120q248 -115 439 -325q195 -217 299 -492.5t104 -579.5q0 -303 -104 -578.5t-299 -492.5q-191 -210 -439 -326 q-257 -119 -537 -119zM1343 23q32 0 64 2h1q201 20 373 140.5t302 320.5t203.5 459.5t73.5 553.5q0 301 -77 565.5t-212.5 466t-314.5 318.5t-387 126l-26 1l-26 -1q-208 -9 -387 -126t-314.5 -318.5t-212.5 -466t-77 -565.5q0 -294 73.5 -553.5t203.5 -459.5t302 -320.5 t373 -140.5q10 -2 65 -2zM1831 3152l-488 121l-488 -121l-9 39l77 19l420 192l420 -192l77 -19z" glyph-name="ocircumflex" horiz-adv-x="2686" unicode="ô"/><glyph d="M1343 -17q-280 0 -537 119q-248 116 -439 326q-196 217 -299.5 492.5t-103.5 578.5q0 304 103.5 579.5t299.5 492.5q191 210 439 325q257 120 537 120t537 -120q248 -115 439 -325q195 -217 299 -492.5t104 -579.5q0 -303 -104 -578.5t-299 -492.5q-191 -210 -439 -326 q-257 -119 -537 -119zM1343 23q32 0 64 2h1q201 20 373 140.5t302 320.5t203.5 459.5t73.5 553.5q0 301 -77 565.5t-212.5 466t-314.5 318.5t-387 126l-26 1l-26 -1q-208 -9 -387 -126t-314.5 -318.5t-212.5 -466t-77 -565.5q0 -294 73.5 -553.5t203.5 -459.5t302 -320.5 t373 -140.5q10 -2 65 -2zM1476 3154q-92 0 -190 64q-57 36 -105 49q-13 3 -26 3q-20 0 -40 -8l-35 72q34 16 73 16q55 0 120 -32q28 -15 54 -31q43 -27 85 -43q33 -10 65 -10q47 0 92 22l37 -71q-63 -31 -130 -31z" glyph-name="otilde" horiz-adv-x="2686" unicode="õ"/><glyph d="M1343 -17q-280 0 -537 119q-248 116 -439 326q-196 217 -299.5 492.5t-103.5 578.5q0 304 103.5 579.5t299.5 492.5q191 210 439 325q257 120 537 120t537 -120q248 -115 439 -325q195 -217 299 -492.5t104 -579.5q0 -303 -104 -578.5t-299 -492.5q-191 -210 -439 -326 q-257 -119 -537 -119zM1343 23q32 0 64 2h1q201 20 373 140.5t302 320.5t203.5 459.5t73.5 553.5q0 301 -77 565.5t-212.5 466t-314.5 318.5t-387 126l-26 1l-26 -1q-208 -9 -387 -126t-314.5 -318.5t-212.5 -466t-77 -565.5q0 -294 73.5 -553.5t203.5 -459.5t302 -320.5 t373 -140.5q10 -2 65 -2zM1160 3146q-44 0 -74.5 31.5t-30.5 75.5t31.5 74t73.5 30q43 0 74.5 -31t31.5 -74t-31.5 -74.5t-74.5 -31.5zM1526 3146q-44 0 -74.5 32t-30.5 78q3 43 33 72t72 29q43 0 74.5 -31t31.5 -74t-31.5 -74.5t-74.5 -31.5z" glyph-name="odieresis" horiz-adv-x="2686" unicode="ö"/><glyph d="M1439 2013h-1389v183h1389v-183zM744 2396q-51 0 -87 36.5t-36 87.5t36 87t87 36t87.5 -36t36.5 -87t-36.5 -87.5t-87.5 -36.5zM744 1569q-51 0 -87 36t-36 87t36 87.5t87 36.5t87.5 -36.5t36.5 -87.5t-36.5 -87t-87.5 -36z" glyph-name="divide" horiz-adv-x="1489" unicode="÷"/><glyph d="M1343 -32q-280 0 -538 120q-141 66 -265 164l-172 -257h-48l189 282q-75 62 -142 136q-196 217 -299.5 492.5t-103.5 579.5q0 303 103.5 578.5t299.5 492.5q191 210 438 326q258 119 538 119q279 0 537 -119q141 -66 265 -163l173 258h48l-190 -284q41 -34 80 -72 q241 -234 362 -557q104 -276 104 -579q0 -304 -104 -579.5t-299 -492.5q-191 -210 -439 -325q-258 -120 -537 -120zM621 444l1418 2117q-133 182 -304 286.5t-366 113.5h-52q-208 -10 -387 -126.5t-314.5 -318t-212.5 -466.5t-77 -566q0 -304 78.5 -570.5t216.5 -469.5z M1343 8q32 0 64 2h1q201 20 373 141t302 321t203.5 459t73.5 553q0 269 -62 509q-78 306 -234 533l-1418 -2117q143 -197 330 -303q143 -80 302 -96q10 -2 65 -2z" glyph-name="oslash" horiz-adv-x="2686" unicode="ø"/><glyph d="M1770 3154l-670 165l32 153l570 -260l78 -19zM798 -8q-88 0 -155 22q-135 47 -201 139t-87 177.5t-21 111.5v2500h-284v40h877v-40h-431q40 0 66 -30t42 -74t24.5 -90.5t11.5 -82t3 -47.5v-2206q0 -158 57 -265t175 -107q33 0 72 10l61 19q248 89 467 390 q253 348 456 953q124 378 199 711t107 525v294h-285v40h877v-40h-431q41 0 68 -31.5t43 -78t23.5 -93.5t10 -82t2.5 -41v-2576h285v-40h-431q-58 4 -101 40q-61 53 -61 132v2257q-101 -524 -268 -1029q-205 -612 -461 -964q-326 -444 -710 -444z" glyph-name="ugrave" horiz-adv-x="2880" unicode="ù"/><glyph d="M1110 3154l-10 39l77 19l570 260l32 -153zM798 -8q-88 0 -155 22q-135 47 -201 139t-87 177.5t-21 111.5v2500h-284v40h877v-40h-431q40 0 66 -30t42 -74t24.5 -90.5t11.5 -82t3 -47.5v-2206q0 -158 57 -265t175 -107q33 0 72 10l61 19q248 89 467 390q253 348 456 953 q124 378 199 711t107 525v294h-285v40h877v-40h-431q41 0 68 -31.5t43 -78t23.5 -93.5t10 -82t2.5 -41v-2576h285v-40h-431q-58 4 -101 40q-61 53 -61 132v2257q-101 -524 -268 -1029q-205 -612 -461 -964q-326 -444 -710 -444z" glyph-name="uacute" horiz-adv-x="2879" unicode="ú"/><glyph d="M1928 3154l-488 120l-487 -120l-10 39l77 19l420 191l421 -191l77 -19zM798 -8q-88 0 -155 22q-135 47 -201 139t-87 177.5t-21 111.5v2500h-284v40h877v-40h-431q40 0 66 -30t42 -74t24.5 -90.5t11.5 -82t3 -47.5v-2206q0 -158 57 -265t175 -107q33 0 72 10l61 19 q248 89 467 390q253 348 456 953q124 378 199 711t107 525v294h-285v40h877v-40h-431q41 0 68 -31.5t43 -78t23.5 -93.5t10 -82t2.5 -41v-2576h285v-40h-431q-58 4 -101 40q-61 53 -61 132v2257q-101 -524 -268 -1029q-205 -612 -461 -964q-326 -444 -710 -444z" glyph-name="ucircumflex" horiz-adv-x="2880" unicode="û"/><glyph d="M1256 3154q-44 0 -74.5 32t-30.5 78q3 43 33.5 72t71.5 29q44 0 75 -31t31 -74q0 -44 -31 -75t-75 -31zM1623 3154q-45 0 -75.5 32t-30.5 78q3 43 33.5 72t72.5 29q43 0 74 -31t31 -74q0 -44 -31 -75t-74 -31zM798 -8q-88 0 -155 22q-135 47 -201 139t-87 177.5 t-21 111.5v2500h-284v40h877v-40h-431q40 0 66 -30t42 -74t24.5 -90.5t11.5 -82t3 -47.5v-2206q0 -158 57 -265t175 -107q33 0 72 10l61 19q248 89 467 390q253 348 456 953q124 378 199 711t107 525v294h-285v40h877v-40h-431q41 0 68 -31.5t43 -78t23.5 -93.5t10 -82 t2.5 -41v-2576h285v-40h-431q-58 4 -101 40q-61 53 -61 132v2257q-101 -524 -268 -1029q-205 -612 -461 -964q-326 -444 -710 -444z" glyph-name="udieresis" horiz-adv-x="2879" unicode="ü"/><glyph d="M93 -1537q-64 0 -91 9l74 321l76 -21q76 -22 189 -36q48 -6 96 -6q65 0 156.5 14.5t176.5 90.5q380 366 683 1173l-1066 2935h-258v40h877v-40l-431 -1q49 0 93.5 -44t79.5 -103.5t57.5 -110t27.5 -65.5l784 -2159l902 2483h-415v40h877v-40h-420l-923 -2541l-138 -382 q-219 -602 -501 -981q-226 -303 -483 -451q-91 -52 -170 -79t-143 -36.5t-110 -9.5zM1351 3152l-10 38l77 19l570 260l33 -152z" glyph-name="yacute" horiz-adv-x="3031" unicode="ý"/><glyph d="M797 -1229h-877v40h284v5348h-284v40h877v-40h-431q42 0 69.5 -33.5t43 -82t23 -97t9.5 -81.5l2 -33v-1488q67 112 152 210q180 208 414 322q243 118 509 119q264 0 508 -119q234 -114 415 -322q185 -214 283 -487t98 -573t-98 -572.5t-283 -487.5q-181 -207 -415 -322 q-244 -118 -508 -118q-266 0 -509 118q-234 115 -414 322q-85 99 -152 210v-1833h284v-40zM1557 35q202 0 378.5 114t309.5 314.5t209 465.5t76 567t-76 566.5t-209 464t-309.5 313.5t-378.5 114q-31 0 -62 -3q-314 -30 -568.5 -213t-413.5 -476v-1535q159 -295 415.5 -478 t572.5 -212q13 -1 24 -1.5t32 -0.5z" glyph-name="thorn" horiz-adv-x="2856" unicode="þ"/><glyph d="M94 -1537q-65 0 -92 9l74 321l76 -21q76 -22 189 -36q48 -6 96 -6q65 0 156.5 14.5t176.5 90.5q378 362 683 1173l-1066 2935h-258v40h877v-40l-431 -1q50 0 95 -44q76 -76 136 -213l29 -70l782 -2155l902 2483h-414v40h877v-40h-420l-1062 -2923q-219 -602 -500 -981 q-227 -303 -483 -451q-91 -52 -170.5 -79t-143.5 -36.5t-109 -9.5zM1453 3152q-44 0 -74.5 31.5t-30.5 74.5q0 44 31.5 74.5t73.5 30.5q43 0 74.5 -31.5t31.5 -74.5t-31.5 -74t-74.5 -31zM1819 3152q-44 0 -74.5 32t-30.5 77q3 43 33 72.5t72 29.5q43 0 74.5 -31.5 t31.5 -74.5t-31.5 -74t-74.5 -31z" glyph-name="ydieresis" horiz-adv-x="3032" unicode="ÿ"/><glyph d="M720 3152l-670 165l32 153l570 -260l77 -19z" glyph-name="gravecomb" horiz-adv-x="779" unicode="̀"/><glyph d="M59 3152l-9 39l77 19l570 260l32 -153z" glyph-name="acutecomb" horiz-adv-x="779" unicode="́"/><glyph d="M1035 3152l-487 120l-488 -120l-10 39l77 19l420 192l421 -192l77 -19z" glyph-name="uni0302" horiz-adv-x="1095" unicode="̂"/><glyph d="M446 3149q-92 0 -190 64q-25 16 -48.5 28t-57.5 21q-13 3 -25 3q-21 0 -40 -8l-35 72q34 16 73 16q55 0 120 -32q28 -15 54 -31q43 -27 85 -43q33 -10 65 -10q47 0 92 22l37 -71q-62 -31 -130 -31z" glyph-name="tildecomb" horiz-adv-x="626" unicode="̃"/><glyph d="M821 3152h-771v140h771v-140z" glyph-name="uni0304" horiz-adv-x="871" unicode="̄"/><glyph d="M158 3152q-45 0 -75 31.5t-30 75.5t31.5 74t73.5 30q43 0 74 -31t31 -74t-31 -74.5t-74 -31.5z" glyph-name="uni0307" horiz-adv-x="313" unicode="̇"/><glyph d="M157 3152q-44 0 -74.5 31.5t-30.5 75.5t31.5 74t73.5 30q43 0 74.5 -31t31.5 -74t-31.5 -74.5t-74.5 -31.5zM523 3152q-44 0 -74.5 32t-30.5 78q3 43 33 72t72 29q43 0 74.5 -31t31.5 -74t-31.5 -74.5t-74.5 -31.5z" glyph-name="uni0308" horiz-adv-x="679" unicode="̈"/><glyph d="M155 3153q-43 0 -74 30.5t-31 74.5q0 43 31 74t74 31q44 0 74.5 -31t30.5 -74q0 -44 -30.5 -74.5t-74.5 -30.5zM155 3193q27 0 46 19t19 46t-19 46t-46 19t-46 -19t-19 -46t19 -46t46 -19z" glyph-name="uni030A" horiz-adv-x="310" unicode="̊"/><glyph d="M547 3152l-420 192l-77 19l9 39l488 -120l488 120l9 -39l-77 -19z" glyph-name="uni030C" horiz-adv-x="1094" unicode="̌"/><glyph d="M148 -359q-52 0 -98 10l17 98q34 -6 68 -6q30 0 51 2l10 2q16 3 31 10q19 9 19 23q-1 9 -9 20q-4 6 -10 10v1q-22 17 -52 23.5t-59 9.5l-23 3l87 238l94 -35l-47 -128q81 -29 108 -92q9 -26 9 -50q0 -46 -33 -85q-9 -10 -19 -17q-51 -34 -118 -36z" glyph-name="uni0327" horiz-adv-x="403" unicode="̧"/><glyph d="M215 3280q-37 0 -83.5 23t-68.5 86q-10 31 -10 70l1 37l10 51q9 50 46 128q22 47 59 97q38 51 97 96l24 -31q-46 -48 -84 -103l-2 -3q-18 -24 -34 -59q-8 -17 -8 -31q0 -16 10 -28.5t25 -15.5t32.5 -3t33.5 -5q66 -23 96 -85q14 -33 14 -65t-20.5 -79t-86.5 -72 q-26 -8 -51 -8z" glyph-name="quoteleft" horiz-adv-x="446" unicode="‘"/><glyph d="M181 3277l-25 32q46 48 84 102l2 4q18 23 35 59q8 16 8 31q0 36 -35 43q-15 3 -33 3.5t-34 4.5q-65 23 -95 86q-13 33 -13 65t20 78.5t86 71.5q27 8 52 8q36 0 82 -22.5t69 -85.5q9 -28 9 -68l-1 -40l-9 -50q-10 -50 -47 -128q-21 -48 -58 -97q-39 -51 -97 -97z" glyph-name="quoteright" horiz-adv-x="446" unicode="’"/><glyph d="M180 -275l-24 32q46 48 84 102l2 4q18 23 35 59q8 16 8 31q0 16 -10 30q-10 10 -25 13t-33 3.5t-34 4.5q-65 23 -96 86q-13 32 -13 63q0 33 20.5 80t85.5 72q27 8 52 8q37 0 83 -22.5t69 -85.5q9 -28 9 -68l-1 -40l-9 -50q-10 -50 -47 -128q-21 -48 -58 -97h-1 q-38 -51 -97 -97z" glyph-name="quotesinglbase" horiz-adv-x="446" unicode="‚"/><glyph d="M215 3277q-37 0 -83 23t-69 86q-10 30 -10 66q0 19 2 42l9 50q9 50 46 128q22 48 59 97q38 51 97 97l25 -32q-46 -48 -84 -103q-16 -16 -37 -62q-8 -16 -8 -31q0 -36 35 -43q15 -3 31 -4q20 0 35 -5q66 -23 96 -85q14 -32 14 -64t-20.5 -79t-86.5 -73q-26 -8 -51 -8z M633 3277q-37 0 -83 23t-69 86q-9 28 -9 68l1 40l10 50q9 50 46 128q21 48 58 97h1q38 51 97 97l24 -32q-46 -48 -84 -103l-2 -3q-18 -24 -35 -59q-8 -16 -8 -31q0 -36 35 -43q15 -3 33 -3.5t34 -5.5q65 -23 95 -85q14 -32 14 -64t-20.5 -79t-86.5 -73q-26 -8 -51 -8z" glyph-name="quotedblleft" horiz-adv-x="865" unicode="“"/><glyph d="M181 3277l-25 32q46 48 84 102l3 4q18 23 34 59q8 16 8 31q0 36 -35 43q-15 3 -31 4q-20 0 -35 4q-66 23 -96 86q-13 33 -13 65t20 78.5t86 71.5q27 8 52 8q36 0 82 -22.5t69 -85.5q10 -30 10 -66q0 -19 -2 -42l-9 -50q-9 -50 -46 -128q-22 -48 -59 -97q-38 -51 -97 -97z M599 3277l-24 32q46 48 83 102l3 4q18 23 34 59q8 17 8 31q0 36 -35 43q-15 3 -32.5 3.5t-33.5 4.5q-66 23 -96 86q-13 33 -13 65t20 78.5t86 71.5q27 8 52 8q36 0 82 -22.5t69 -85.5q10 -31 10 -71l-1 -37l-9 -50q-10 -50 -47 -128q-22 -48 -59 -97q-38 -51 -97 -97z" glyph-name="quotedblright" horiz-adv-x="865" unicode="”"/><glyph d="M180 -275l-24 32q46 48 84 102l2 4q18 23 35 59q8 16 8 31q0 16 -10 30q-10 10 -25 13t-33 3.5t-34 4.5q-65 23 -96 86q-13 32 -13 63q0 33 20.5 80t85.5 72q27 8 52 8q37 0 83 -22.5t69 -85.5q9 -28 9 -68l-1 -40l-9 -50q-10 -50 -47 -128q-21 -48 -58 -97h-1 q-38 -51 -97 -97zM599 -275l-25 32q46 48 84 102l3 4q17 23 34 59q8 16 8 31q0 16 -10 30q-16 16 -56 16q-20 1 -35 5q-66 23 -96 86q-13 33 -13 65t20 78.5t86 71.5q27 8 52 8q36 0 82 -22.5t69 -85.5q9 -28 9 -68l-1 -40l-9 -50q-10 -50 -46 -128q-22 -48 -59 -97 q-39 -51 -97 -97z" glyph-name="quotedblbase" horiz-adv-x="865" unicode="„"/><glyph d="M1686 -16q-277 0 -532 168q-243 162 -431 455q-353 565 -391 1346h-282v40h280q-2 53 -2 106q0 52 2 105h-280v40h282q38 781 391 1347q188 293 431 454q255 168 532 168t531 -168q99 -65 190 -154l-134 -122q-124 190 -273 295t-314 105q-197 0 -371.5 -148.5t-309 -411 t-216 -611t-96.5 -754.5h396v-40h-397q-1 -53 -1 -107l1 -104h397v-40h-396q14 -406 96 -755.5t216.5 -612.5t308.5 -411.5t372 -148.5q161 0 308 101t270 285l188 -58q-110 -118 -235 -201q-254 -168 -531 -168z" glyph-name="Euro" horiz-adv-x="2502" unicode="€"/><glyph d="M262 3430h-40v402h-172v40h384v-40h-172v-402zM1089 3430h-40v366l-205 -366h-45l-205 366v-366h-40v442h43l225 -401l224 401h43v-442z" glyph-name="trademark" horiz-adv-x="1139" unicode="™"/><glyph d="M549 -20q-143 0 -263 92q-112 88 -168 232q-48 129 -48 291q0 129 31 272q70 316 252 567q175 238 409 361q240 125 529 125q203 0 422 -62q233 -68 447 -293q48 54 98 104l-785 2141l144 391h42l849 -2316l42 31q245 167 496 198q51 6 101 6q217 0 401 -116l-21 -34 q-178 111 -383 111q-276 0 -571 -198l-51 -37l662 -1806h284v-40h-877v40h264l-286 781q-166 401 -384 657l-8 9q-8 10 -17 19q-203 -235 -378 -472l-10 -13q-184 -249 -378.5 -477.5t-417.5 -394.5q-233 -169 -427 -169zM750 139q113 0 250 78q205 163 386 379t354 449 q184 250 393 491q-207 218 -431 283q-215 62 -412 62q-40 0 -79 -2h26l-56 -13q-57 -14 -144.5 -54t-186.5 -117q-231 -180 -335 -516q-61 -197 -63 -473q0 -312 90 -450q77 -117 208 -117zM2434 1190l-160 437q-44 -44 -87 -91q134 -150 247 -346z" glyph-name="uniE009" horiz-adv-x="3598" unicode=""/><glyph d="M1863 -1218q-78 0 -106 50q-13 26 -13 59l1 23q-121 51 -173 172l-22 -1q-33 0 -60 14q-50 28 -50 106q0 77 50 106q26 14 59 14l23 -2q52 121 173 172l-1 23q0 33 13 60q29 50 106 50q78 0 106 -50q14 -27 14 -60l-2 -23q121 -51 173 -172l23 2q33 0 59 -14 q50 -29 50 -106q0 -78 -50 -106q-27 -14 -60 -14l-22 1q-52 -121 -173 -172l2 -23q0 -33 -14 -59q-28 -50 -106 -50zM2082 -854q21 2 35.5 18.5t14.5 40.5q0 23 -14.5 40t-35.5 18q-63 -23 -122 -58q59 -35 122 -59zM1929 -767q95 58 184 82q-44 96 -139 140 q-24 -89 -83 -184q26 -12 38 -38zM1863 -1064q23 0 40 14t19 35q-23 61 -59 123q-36 -62 -59 -123q2 -21 19 -35t40 -14zM1863 -827q13 0 22.5 9t9.5 23q0 13 -9.5 22t-22.5 9t-22.5 -9t-9.5 -22q0 -14 9.5 -23t22.5 -9zM1863 -699q35 60 59 122q-2 22 -18.5 36t-40.5 14 q-23 0 -40 -14t-19 -36q24 -62 59 -122zM1938 -520q5 21 5 38q0 23 -9 40q-16 30 -71 30t-71 -30q-9 -17 -9 -40q0 -17 5 -38q30 33 75 33t75 -33zM1797 -767q12 26 38 38q-59 95 -83 184q-95 -44 -139 -140q89 -24 184 -82zM1644 -854q63 24 122 59q-59 35 -122 58 q-21 -2 -35.5 -18.5t-14.5 -39.5q0 -24 14.5 -40.5t35.5 -18.5zM1552 -875q16 0 35 4q-33 30 -33 76q0 45 33 75q-20 4 -38 4q-23 0 -39 -8q-30 -16 -30 -71t30 -71q17 -9 42 -9zM1753 -1046q24 92 82 185q-26 11 -38 37q-95 -58 -184 -82q44 -96 140 -140zM1863 -1178 q55 0 71 29q9 17 9 40q0 17 -5 38q-30 -33 -75 -33t-75 33q-4 -20 -4 -37q0 -24 8 -41q16 -29 71 -29zM1973 -1046q96 44 140 140q-89 24 -184 82q-12 -26 -38 -37q58 -93 82 -185zM2174 -875q25 0 42 9q30 16 30 71t-30 71q-17 8 -40 8q-17 0 -37 -4q33 -30 33 -75 q0 -46 -33 -76q19 -4 35 -4zM3847 0h-877v40h264l-306 834h-2109l-306 -834h414v-40h-877v40h420l1525 4161h43l1525 -4161h284v-40zM2914 914l-1041 2838l-1040 -2838h2081z" glyph-name="uniE010" horiz-adv-x="3897" unicode=""/><glyph d="M1377 -1218q-78 0 -106 50q-13 26 -13 59l1 23q-121 51 -173 172l-23 -1q-33 0 -59 14q-50 28 -50 106q0 77 50 106q26 14 59 14l23 -2q52 121 173 172l-1 23q0 33 13 60q28 50 106 50q77 0 106 -50q14 -27 14 -60l-2 -23q121 -51 173 -172l22 2q33 0 60 -14 q50 -29 50 -106q0 -78 -50 -106q-27 -14 -60 -14l-22 1q-52 -121 -173 -172l2 -23q0 -33 -14 -59q-29 -50 -106 -50zM1595 -854q22 2 36 18.5t14 40.5q0 23 -14 40t-36 18q-62 -23 -121 -58q59 -35 121 -59zM1443 -767q95 58 184 82q-44 96 -140 140q-24 -89 -82 -184 q26 -12 38 -38zM1377 -1064q23 0 39.5 14t18.5 35q-22 61 -58 123q-36 -62 -59 -123q2 -21 18.5 -35t40.5 -14zM1377 -827q13 0 22 9t9 23q0 13 -9 22t-22 9t-22.5 -9t-9.5 -22q0 -14 9.5 -23t22.5 -9zM1377 -699q35 60 58 122q-1 22 -18 36t-40 14q-24 0 -40.5 -14 t-18.5 -36q24 -62 59 -122zM1452 -520q5 21 5 38q0 23 -9 40q-16 30 -71 30t-71 -30q-9 -17 -9 -42q0 -16 4 -36q30 33 76 33q45 0 75 -33zM1311 -767q11 26 38 38q-59 95 -83 184q-96 -44 -140 -140q90 -24 185 -82zM1158 -854q62 24 122 59q-60 35 -122 58 q-21 -2 -35.5 -18.5t-14.5 -39.5q0 -24 14.5 -40.5t35.5 -18.5zM1065 -875q17 0 36 4q-33 30 -33 76q0 45 33 75q-20 4 -38 4q-23 0 -40 -8q-29 -16 -29 -71t29 -71q18 -9 42 -9zM1266 -1046q25 92 83 185q-27 11 -38 37q-95 -58 -185 -82q44 -96 140 -140zM1377 -1178 q55 0 71 29q8 17 8 41q0 17 -4 37q-30 -33 -75 -33t-75 33q-5 -21 -5 -38q0 -23 9 -40q16 -29 71 -29zM1487 -1046q96 44 140 140q-89 24 -184 82q-12 -26 -38 -37q57 -93 82 -185zM1688 -875q25 0 42 9q30 16 30 71t-30 71q-17 8 -41 8q-17 0 -37 -4q33 -30 33 -75 q0 -46 -33 -76q20 -4 36 -4zM50 0v40h284v4121h-284v40h1768q224 -5 404.5 -114t289 -292.5t108.5 -405.5q0 -181 -73.5 -338t-201.5 -270t-293 -167q489 -34 842 -380q186 -187 284.5 -425t98.5 -500t-98.5 -500t-285 -424.5t-424.5 -285t-500 -98.5zM1830 2617 q120 9 216.5 114.5t153.5 280t57 385.5q0 278 -97 486.5t-248 270.5q-52 7 -104 7h-1312q42 0 69 -34q48 -59 67 -178q11 -73 11 -116v-1216h1187zM1818 41q230 12 428.5 114t348.5 274.5t235 397.5t85 480q0 256 -85 481.5t-234.5 398.5t-348 275t-428.5 115h-1176v-2536 h1175z" glyph-name="uniE011" horiz-adv-x="3243" unicode=""/><glyph d="M2024 -1218q-78 0 -106 50q-13 26 -13 59l1 23q-121 51 -173 172l-23 -1q-33 0 -59 14q-50 28 -50 106q0 77 50 106q26 14 59 14l23 -2q52 121 173 172l-1 23q0 33 13 60q28 50 106 50q77 0 106 -50q14 -27 14 -60l-2 -23q121 -51 173 -172l23 2q33 0 59 -14 q50 -29 50 -106q0 -78 -50 -106q-27 -14 -60 -14l-22 1q-52 -121 -173 -172l2 -23q0 -33 -14 -59q-29 -50 -106 -50zM2243 -854q21 2 35 18.5t14 40.5q0 23 -14 40t-36 18q-62 -23 -121 -58q59 -35 122 -59zM2090 -767q95 58 184 82q-44 96 -140 140q-24 -89 -82 -184 q26 -12 38 -38zM2024 -1064q23 0 39.5 14t18.5 35q-22 61 -58 123q-36 -62 -59 -123q2 -21 18.5 -35t40.5 -14zM2024 -827q13 0 22 9t9 23q0 13 -9 22t-22 9t-22.5 -9t-9.5 -22q0 -14 9.5 -23t22.5 -9zM2024 -699q35 60 59 122q-2 22 -19 36t-40 14q-24 0 -40.5 -14 t-18.5 -36q24 -62 59 -122zM2099 -520q5 21 5 38q0 23 -9 40q-16 30 -71 30t-71 -30q-9 -17 -9 -42q0 -16 4 -36q30 33 76 33q45 0 75 -33zM1958 -767q11 26 38 38q-59 95 -83 184q-96 -44 -140 -140q90 -24 185 -82zM1805 -854q62 24 122 59q-60 35 -122 58 q-21 -2 -35.5 -18.5t-14.5 -39.5q0 -24 14.5 -40.5t35.5 -18.5zM1712 -875q17 0 36 4q-33 30 -33 76q0 45 33 75q-20 4 -38 4q-23 0 -40 -8q-29 -16 -29 -71t29 -71q18 -9 42 -9zM1913 -1046q25 92 83 185q-27 11 -38 37q-95 -58 -185 -82q44 -96 140 -140zM2024 -1178 q55 0 71 29q8 17 8 41q0 17 -4 37q-30 -33 -75 -33t-75 33q-5 -21 -5 -38q0 -23 9 -40q16 -29 71 -29zM2134 -1046q96 44 140 140q-89 24 -184 82q-12 -26 -38 -37q57 -93 82 -185zM2337 -875q24 0 40 9q30 16 30 71t-30 71q-17 8 -41 8q-17 0 -37 -4q33 -30 33 -75 q0 -46 -32 -76q20 -4 37 -4zM1986 -19q-393 0 -755 167q-347 161 -614.5 454t-415.5 673q-151 395 -151 823q0 429 151 824q148 380 415.5 673t614.5 454q362 167 755 167q392 0 754 -167q401 -186 692 -543l-171 -190q-204 371 -507.5 597t-669.5 260h-1q-25 3 -97 3 q-50 0 -98 -3h-1q-311 -28 -578 -197.5t-468.5 -451t-315 -647t-113.5 -779.5t113.5 -779t315 -646.5t468.5 -451.5t578 -197h1q48 -3 98 -3q49 0 97 3h1q392 36 711 291t520 670l210 -171q-78 -112 -170 -212q-268 -293 -615 -454q-362 -167 -754 -167z" glyph-name="uniE012" horiz-adv-x="3575" unicode=""/><glyph d="M1296 -1218q-78 0 -106 50q-13 26 -13 59l1 23q-121 51 -173 172l-23 -1q-33 0 -59 14q-50 28 -50 106q0 77 50 106q26 14 59 14l23 -2q52 121 173 172l-1 23q0 33 13 60q28 50 106 50q77 0 106 -50q14 -27 14 -60l-2 -23q121 -51 173 -172l23 2q33 0 59 -14 q50 -29 50 -106q0 -78 -50 -106q-27 -14 -60 -14l-22 1q-52 -121 -173 -172l2 -23q0 -33 -14 -59q-28 -50 -106 -50zM1515 -854q21 2 35 18.5t14 40.5q0 23 -14 40t-35 18q-63 -23 -122 -58q59 -35 122 -59zM1362 -767q95 58 184 82q-44 96 -139 140q-25 -89 -83 -184 q26 -12 38 -38zM1296 -1064q23 0 39.5 14t19.5 35q-23 61 -59 123q-36 -62 -59 -123q2 -21 18.5 -35t40.5 -14zM1296 -827q13 0 22.5 9t9.5 23q0 13 -9.5 22t-22.5 9t-22.5 -9t-9.5 -22q0 -14 9.5 -23t22.5 -9zM1296 -699q35 60 59 122q-2 22 -19 36t-40 14q-24 0 -40.5 -14 t-18.5 -36q24 -62 59 -122zM1371 -520q5 21 5 38q0 23 -9 40q-16 30 -71 30t-71 -30q-9 -17 -9 -42q0 -16 4 -36q31 33 76 33t75 -33zM1230 -767q12 26 38 38q-59 95 -83 184q-96 -44 -140 -140q90 -24 185 -82zM1077 -854q62 24 122 59q-60 35 -122 58q-21 -2 -35.5 -18.5 t-14.5 -39.5q0 -24 14.5 -40.5t35.5 -18.5zM984 -875q17 0 36 4q-33 30 -33 76q0 45 33 75q-20 4 -38 4q-23 0 -40 -8q-29 -16 -29 -71t29 -71q18 -9 42 -9zM1185 -1046q25 92 83 185q-26 11 -38 37q-95 -58 -185 -82q44 -96 140 -140zM1296 -1178q55 0 71 29q8 17 8 41 q0 17 -4 37q-30 -33 -75 -33t-75 33q-5 -21 -5 -38q0 -23 9 -40q16 -29 71 -29zM1406 -1046q96 44 140 140q-89 24 -184 82q-12 -26 -38 -37q57 -93 82 -185zM1607 -875q25 0 42 9q30 16 30 71t-30 71q-17 8 -40 8q-17 0 -37 -4q32 -30 32 -75q0 -46 -32 -76q19 -4 35 -4z M50 -2v40h284v4121h-284v40l1199 -2q426 0 817 -165q376 -160 666.5 -450t450.5 -667q165 -392 165 -817t-165 -817q-160 -376 -450.5 -666.5t-666.5 -450.5q-391 -165 -817 -165zM1249 39q96 0 189 9q335 90 617 281t490.5 462.5t324.5 604.5t116 702q0 370 -116 702.5 t-323.5 604t-489 462.5t-616.5 281q-95 9 -192 9h-735q80 -22 111 -173q18 -90 18 -152v-3793h606z" glyph-name="uniE013" horiz-adv-x="3370" unicode=""/><glyph d="M1321 -1218q-78 0 -106 50q-13 26 -13 59l1 23q-121 51 -173 172l-23 -1q-33 0 -59 14q-50 28 -50 106q0 77 50 106q26 14 59 14l23 -2q52 121 173 172l-1 23q0 33 13 60q28 50 106 50q77 0 106 -50q14 -27 14 -60l-2 -23q121 -51 173 -172l23 2q33 0 59 -14 q50 -29 50 -106q0 -78 -50 -106q-27 -14 -60 -14l-22 1q-52 -121 -173 -172l2 -23q0 -33 -14 -59q-29 -50 -106 -50zM1539 -854q22 2 36 18.5t14 40.5q0 23 -14 40t-36 18q-62 -23 -121 -58q59 -35 121 -59zM1387 -767q95 58 184 82q-44 96 -140 140q-24 -89 -82 -184 q26 -12 38 -38zM1321 -1064q23 0 39.5 14t18.5 35q-22 61 -58 123q-36 -62 -59 -123q2 -21 18.5 -35t40.5 -14zM1321 -827q13 0 22 9t9 23q0 13 -9 22t-22 9t-22.5 -9t-9.5 -22q0 -14 9.5 -23t22.5 -9zM1321 -699q35 60 58 122q-1 22 -18 36t-40 14q-24 0 -40.5 -14 t-18.5 -36q24 -62 59 -122zM1396 -520q5 21 5 38q0 23 -9 40q-16 30 -71 30t-71 -30q-9 -17 -9 -42q0 -16 4 -36q30 33 76 33q45 0 75 -33zM1255 -767q11 26 38 38q-59 95 -83 184q-96 -44 -140 -140q90 -24 185 -82zM1102 -854q62 24 122 59q-60 35 -122 58 q-21 -2 -35.5 -18.5t-14.5 -39.5q0 -24 14.5 -40.5t35.5 -18.5zM1009 -875q17 0 36 4q-33 30 -33 76q0 45 33 75q-20 4 -38 4q-23 0 -40 -8q-29 -16 -29 -71t29 -71q18 -9 42 -9zM1210 -1046q25 92 83 185q-27 11 -38 37q-95 -58 -185 -82q44 -96 140 -140zM1321 -1178 q55 0 71 29q8 17 8 41q0 17 -4 37q-30 -33 -75 -33t-75 33q-5 -21 -5 -38q0 -23 9 -40q16 -29 71 -29zM1431 -1046q96 44 140 140q-89 24 -184 82q-12 -26 -38 -37q57 -93 82 -185zM1632 -875q25 0 42 9q30 16 30 71t-30 71q-17 8 -41 8q-17 0 -37 -4q33 -30 33 -75 q0 -46 -33 -76q20 -4 36 -4zM2592 -2h-2542v40h284v4121h-284v40l2542 -1v-40h-2088q49 -7 77.5 -56t41.5 -111.5t16 -110.5l4 -48v-1694h1483v-40h-1483v-2060h1949v-40z" glyph-name="uniE014" horiz-adv-x="2642" unicode=""/><glyph d="M1929 -1218q-77 0 -106 50q-13 25 -13 57q0 12 2 25q-122 52 -173 173l-23 -1q-33 0 -59 13q-51 28 -51 106t51 106q26 14 59 14l23 -2q51 121 172 173l-1 22q0 33 14 60q28 50 105 50q78 0 106 -50q14 -27 14 -60l-1 -22q121 -52 172 -173l23 2q33 0 59 -14 q51 -28 51 -106t-51 -106q-26 -14 -59 -14q-11 0 -23 2q-51 -121 -173 -173l2 -23q0 -33 -14 -59q-28 -50 -106 -50zM2148 -854q22 2 36 19t14 40q0 24 -14 40.5t-36 18.5q-62 -24 -122 -59q60 -35 122 -59zM1995 -767q96 59 185 83q-44 96 -140 140q-24 -90 -82 -185 q26 -12 37 -38zM1929 -1064q24 0 40.5 14.5t18.5 35.5q-22 61 -59 122q-36 -61 -58 -122q2 -21 18.5 -35.5t39.5 -14.5zM1929 -827q14 0 23 9.5t9 22.5t-9 22.5t-23 9.5q-13 0 -22 -9.5t-9 -22.5t9 -22.5t22 -9.5zM1929 -698q35 59 59 122q-2 21 -18.5 35.5t-40.5 14.5 q-23 0 -39.5 -14.5t-18.5 -35.5q23 -63 58 -122zM2005 -519q4 19 4 36q0 24 -9 42q-16 29 -71 29q-54 0 -71 -29q-8 -17 -8 -41q0 -17 4 -37q30 33 75 33q46 0 76 -33zM1864 -767q11 26 37 38q-58 95 -82 185q-96 -44 -140 -140q89 -24 185 -83zM1711 -854q62 24 122 59 q-60 35 -122 59q-22 -2 -36 -18.5t-14 -40.5q0 -23 14 -40t36 -19zM1616 -875q17 0 38 5q-33 30 -33 75t33 75q-21 5 -38 5q-23 0 -40 -9q-30 -16 -30 -71t30 -71q17 -9 40 -9zM1819 -1046q25 92 82 185q-26 12 -37 38q-96 -59 -185 -83q44 -96 140 -140zM1929 -1178 q56 0 72 30q8 16 8 40q0 17 -4 37q-30 -33 -76 -33q-45 0 -75 33q-4 -20 -4 -37q0 -24 8 -40q16 -30 71 -30zM2040 -1046q96 44 140 140q-89 24 -185 83q-11 -26 -37 -38q57 -93 82 -185zM2243 -875q23 0 40 9q30 16 30 71t-30 71q-17 9 -42 9q-16 0 -36 -4q33 -31 33 -76 t-33 -75q21 -5 38 -5zM1986 -11q-392 0 -754 167q-348 161 -615.5 454t-414.5 673q-152 395 -152 823q0 429 152 824q147 380 414.5 673t615.5 454q362 167 754 167t754 -167q402 -186 692 -543l-171 -190q-204 371 -507.5 597t-669.5 260h-1q-48 3 -97 3t-97 -3h-2 q-310 -28 -577.5 -197.5t-468.5 -451t-315 -647t-114 -779.5t114 -779t315 -646.5t468.5 -451.5t577.5 -197h2q48 -3 97 -3t97 3h1q346 31 637 236t495 542v942l2 34q2 33 9.5 81.5t23 97t43 82t69.5 33.5h-1539v40h1985v-40h-284v-1259q-78 -111 -169 -211 q-268 -293 -616 -454q-362 -167 -754 -167z" glyph-name="uniE015" horiz-adv-x="3859" unicode=""/><glyph d="M1642 -1218q-78 0 -106 50q-13 26 -13 59l1 23q-121 51 -173 172l-22 -1q-34 0 -60 14q-50 28 -50 106q0 77 50 106q26 14 59 14l23 -2q52 121 173 172l-1 23q0 33 13 60q28 50 106 50q77 0 106 -50q14 -27 14 -60l-2 -23q121 -51 173 -172l23 2q33 0 59 -14 q50 -29 50 -106q0 -78 -50 -106q-27 -14 -60 -14l-22 1q-52 -121 -173 -172l2 -23q0 -33 -14 -59q-28 -50 -106 -50zM1861 -854q21 2 35.5 18.5t14.5 40.5q0 23 -14.5 40t-35.5 18q-63 -23 -122 -58q59 -35 122 -59zM1708 -767q95 58 184 82q-44 96 -139 140 q-24 -89 -83 -184q26 -12 38 -38zM1642 -1064q23 0 40 14t19 35q-23 61 -59 123q-36 -62 -59 -123q2 -21 19 -35t40 -14zM1642 -827q13 0 22.5 9t9.5 23q0 13 -9.5 22t-22.5 9t-22.5 -9t-9.5 -22q0 -14 9.5 -23t22.5 -9zM1642 -699q35 60 59 122q-2 22 -19 36t-40 14 q-24 0 -40.5 -14t-18.5 -36q24 -62 59 -122zM1717 -520q5 21 5 38q0 23 -9 40q-16 30 -71 30t-71 -30q-9 -17 -9 -40q0 -17 5 -38q30 33 75 33t75 -33zM1576 -767q12 26 38 38q-59 95 -83 184q-95 -44 -140 -140q90 -24 185 -82zM1423 -854q63 24 122 59q-59 35 -122 58 q-21 -2 -35.5 -18.5t-14.5 -39.5q0 -24 14.5 -40.5t35.5 -18.5zM1330 -875q17 0 36 4q-33 30 -33 76q0 45 33 75q-20 4 -38 4q-23 0 -40 -8q-29 -16 -29 -71t29 -71q18 -9 42 -9zM1532 -1046q24 92 82 185q-26 11 -38 37q-95 -58 -185 -82q45 -96 141 -140zM1642 -1178 q55 0 71 29q8 17 8 41q0 17 -4 37q-30 -33 -75 -33t-75 33q-5 -21 -5 -38q0 -23 9 -40q16 -29 71 -29zM1752 -1046q96 44 140 140q-89 24 -184 82q-12 -26 -38 -37q58 -93 82 -185zM1953 -875q25 0 42 9q30 16 30 71t-30 71q-17 8 -40 8q-17 0 -37 -4q33 -30 33 -75 q0 -46 -33 -76q19 -4 35 -4zM3234 0h-877v40h284v2374h-1998v-2374h284v-40h-877v40h284v4121h-284v40h877v-40h-431q42 0 69.5 -33.5t43 -82t23 -97t9.5 -81.5l2 -33v-1380h1998v1707h-284v40h877v-40h-431q42 0 69.5 -33.5t43 -82t23 -97t9.5 -81.5l2 -33v-3794h284v-40z " glyph-name="uniE016" horiz-adv-x="3284" unicode=""/><glyph d="M1613 -1218q-77 0 -106 50q-13 26 -13 59l1 23q-121 51 -173 172l-22 -1q-33 0 -60 14q-50 28 -50 106q0 77 50 106q26 14 59 14l23 -2q52 121 173 172l-1 23q0 33 13 60q29 50 106 50q78 0 106 -50q14 -27 14 -60l-2 -23q121 -51 173 -172l23 2q33 0 59 -14 q50 -29 50 -106q0 -78 -50 -106q-26 -14 -59 -14l-23 1q-52 -121 -173 -172l2 -23q0 -33 -14 -59q-28 -50 -106 -50zM1832 -854q21 2 35.5 18.5t14.5 40.5q0 23 -14.5 40t-35.5 18q-62 -23 -122 -58q60 -35 122 -59zM1679 -767q95 58 185 82q-44 96 -140 140 q-24 -89 -83 -184q27 -12 38 -38zM1613 -1064q24 0 40.5 14t18.5 35q-23 61 -59 123q-36 -62 -59 -123q3 -21 19.5 -35t39.5 -14zM1613 -827q13 0 22.5 9t9.5 23q0 13 -9.5 22t-22.5 9t-22 -9t-9 -22q0 -14 9 -23t22 -9zM1613 -699q35 60 59 122q-2 22 -18.5 36t-40.5 14 q-23 0 -40 -14t-19 -36q24 -62 59 -122zM1689 -520q4 20 4 36q0 25 -9 42q-16 30 -71 30t-71 -30q-9 -17 -9 -40q0 -17 5 -38q30 33 75 33t76 -33zM1547 -767q12 26 38 38q-58 95 -82 184q-96 -44 -140 -140q89 -24 184 -82zM1394 -854q63 24 122 59q-59 35 -122 58 q-21 -2 -35 -18.5t-14 -39.5q0 -24 14 -40.5t35 -18.5zM1302 -875q16 0 35 4q-32 30 -32 76q0 45 32 75q-20 4 -37 4q-24 0 -40 -8q-30 -16 -30 -71t30 -71q17 -9 42 -9zM1503 -1046q25 92 82 185q-26 11 -38 37q-95 -58 -184 -82q44 -96 140 -140zM1613 -1178q55 0 71 29 q9 17 9 40q0 17 -5 38q-30 -33 -75 -33t-75 33q-4 -20 -4 -37q0 -24 8 -41q16 -29 71 -29zM1724 -1046q96 44 140 140q-90 24 -185 82q-11 -26 -38 -37q58 -93 83 -185zM1925 -875q24 0 42 9q29 16 29 71t-29 71q-17 8 -41 8q-17 0 -37 -4q33 -30 33 -75q0 -46 -33 -76 q19 -4 36 -4zM3346 0h-363l-1651 2677l-689 -671v-1966h284v-40h-877v40h284v4121h-284v40h877v-40h-431q42 0 69.5 -33.5t43 -82t23 -97t9.5 -81.5l2 -33v-1772l2157 2099h-397v40h877v-40h-422l-1299 -1264z" glyph-name="uniE017" horiz-adv-x="3396" unicode=""/><glyph d="M1321 -1218q-77 0 -106 50q-13 26 -13 59l1 23q-121 51 -173 172l-22 -1q-33 0 -60 14q-50 28 -50 106q0 77 50 106q26 14 59 14l23 -2q52 121 173 172l-1 23q0 33 13 60q29 50 106 50q78 0 106 -50q14 -27 14 -60l-2 -23q121 -51 173 -172l23 2q33 0 59 -14 q50 -29 50 -106q0 -78 -50 -106q-26 -14 -59 -14l-23 1q-52 -121 -173 -172l2 -23q0 -33 -14 -59q-28 -50 -106 -50zM1540 -854q21 2 35.5 18.5t14.5 40.5q0 23 -14.5 40t-35.5 18q-62 -23 -122 -58q60 -35 122 -59zM1387 -767q95 58 185 82q-44 96 -140 140 q-24 -89 -83 -184q27 -12 38 -38zM1321 -1064q24 0 40.5 14t18.5 35q-23 61 -59 123q-36 -62 -58 -123q2 -21 18.5 -35t39.5 -14zM1321 -827q13 0 22.5 9t9.5 23q0 13 -9.5 22t-22.5 9t-22 -9t-9 -22q0 -14 9 -23t22 -9zM1321 -699q35 60 59 122q-2 22 -18.5 36t-40.5 14 q-23 0 -40 -14t-18 -36q23 -62 58 -122zM1397 -520q4 20 4 36q0 25 -9 42q-16 30 -71 30t-71 -30q-9 -17 -9 -40q0 -17 5 -38q30 33 75 33q46 0 76 -33zM1255 -767q12 26 38 38q-58 95 -82 184q-96 -44 -140 -140q89 -24 184 -82zM1102 -854q63 24 122 59q-59 35 -122 58 q-21 -2 -35 -18.5t-14 -39.5q0 -24 14 -40.5t35 -18.5zM1010 -875q16 0 36 4q-33 30 -33 76q0 45 32 75q-20 4 -37 4q-24 0 -40 -8q-30 -16 -30 -71t30 -71q17 -9 42 -9zM1211 -1046q25 92 82 185q-26 11 -38 37q-95 -58 -184 -82q44 -96 140 -140zM1321 -1178q55 0 71 29 q9 17 9 40q0 17 -5 38q-30 -33 -75 -33t-75 33q-4 -20 -4 -37q0 -24 8 -41q16 -29 71 -29zM1432 -1046q96 44 140 140q-90 24 -185 82q-11 -26 -38 -37q58 -93 83 -185zM1633 -875q24 0 42 9q29 16 29 71t-29 71q-17 8 -41 8q-17 0 -37 -4q33 -30 33 -75q0 -46 -33 -76 q19 -4 36 -4zM2592 0h-2542v40h284v4121h-284v40h877v-40h-431q42 0 69.5 -33.5t43 -82t23 -97t9.5 -81.5l2 -33v-3794h1949v-40z" glyph-name="uniE018" horiz-adv-x="2642" unicode=""/><glyph d="M1894 -1218q-78 0 -106 50q-13 26 -13 59l1 23q-122 51 -173 172l-23 -1q-33 0 -59 14q-51 28 -51 106q0 77 51 106q26 14 59 14l23 -2q51 121 172 172l-1 22q0 34 14 61q28 50 106 50q77 0 105 -50q14 -27 14 -61l-1 -22q121 -51 172 -172l23 2q33 0 59 -14 q51 -29 51 -106q0 -78 -51 -106q-26 -14 -59 -14l-23 1q-51 -121 -173 -172q2 -13 2 -25q0 -32 -13 -57q-29 -50 -106 -50zM2112 -854q22 2 36 18.5t14 40.5q0 23 -14 40t-36 18q-62 -23 -122 -58q60 -35 122 -59zM1959 -767q96 58 185 82q-44 96 -140 140q-24 -89 -82 -184 q26 -12 37 -38zM1894 -1064q23 0 39.5 14t18.5 35q-22 61 -58 123q-37 -62 -59 -123q2 -21 18.5 -35t40.5 -14zM1894 -827q13 0 22 9t9 23q0 13 -9 22t-22 9q-14 0 -23 -9t-9 -22q0 -14 9 -23t23 -9zM1894 -699q35 60 58 122q-2 22 -18.5 36t-39.5 14q-24 0 -40.5 -14 t-18.5 -36q24 -62 59 -122zM1969 -520q4 20 4 37q0 24 -8 41q-17 30 -71 30q-55 0 -71 -30q-9 -17 -9 -42q0 -16 4 -36q30 33 76 33q45 0 75 -33zM1828 -767q11 26 37 38q-58 95 -82 184q-96 -44 -140 -140q89 -24 185 -82zM1675 -854q62 24 122 59q-60 35 -122 58 q-22 -2 -36 -18.5t-14 -39.5q0 -24 14 -40.5t36 -18.5zM1582 -875q16 0 36 4q-33 30 -33 76q0 45 33 75q-21 4 -38 4q-23 0 -40 -8q-30 -16 -30 -71t30 -71q17 -9 42 -9zM1783 -1046q25 92 82 185q-26 11 -37 37q-96 -58 -185 -82q44 -96 140 -140zM1894 -1178q55 0 71 29 q8 17 8 41q0 17 -4 37q-30 -33 -75 -33q-46 0 -76 33q-4 -20 -4 -37q0 -24 8 -41q16 -29 72 -29zM2004 -1046q96 44 140 140q-89 24 -185 82q-11 -26 -37 -37q57 -93 82 -185zM2205 -875q25 0 42 9q30 16 30 71t-30 71q-17 8 -41 8q-17 0 -37 -4q33 -30 33 -75 q0 -46 -33 -76q20 -4 36 -4zM1826 -1h-44l-1273 4164h-1v-4122h419v-40h-877v40h418v4122h-418v40h769l1125 -3680l1125 3680h581v-40h-431q42 0 69.5 -33.5t43 -82t23 -97t9.5 -81.5l2 -34v-3794h284v-40h-877v40h284v3985z" glyph-name="uniE019" horiz-adv-x="3700" unicode=""/><glyph d="M1793 -1218q-78 0 -106 50q-13 26 -13 59l1 23q-121 51 -173 172l-22 -1q-34 0 -60 14q-50 28 -50 106q0 77 50 106q26 14 59 14l23 -2q52 121 173 172l-1 23q0 33 13 60q28 50 106 50q77 0 106 -50q14 -27 14 -60l-2 -23q121 -51 173 -172l23 2q33 0 59 -14 q50 -29 50 -106q0 -78 -50 -106q-27 -14 -60 -14l-22 1q-52 -121 -173 -172l2 -23q0 -33 -14 -59q-28 -50 -106 -50zM2012 -854q21 2 35 18.5t14 40.5q0 23 -14 40t-35 18q-63 -23 -122 -58q59 -35 122 -59zM1859 -767q95 58 184 82q-44 96 -139 140q-24 -89 -83 -184 q26 -12 38 -38zM1793 -1064q23 0 40 14t19 35q-23 61 -59 123q-36 -62 -59 -123q2 -21 19 -35t40 -14zM1793 -827q13 0 22.5 9t9.5 23q0 13 -9.5 22t-22.5 9t-22.5 -9t-9.5 -22q0 -14 9.5 -23t22.5 -9zM1793 -699q35 60 59 122q-2 22 -19 36t-40 14q-24 0 -40.5 -14 t-18.5 -36q24 -62 59 -122zM1868 -520q5 21 5 38q0 23 -9 40q-16 30 -71 30t-71 -30q-9 -17 -9 -42q0 -16 4 -36q31 33 76 33t75 -33zM1727 -767q12 26 38 38q-59 95 -83 184q-95 -44 -140 -140q90 -24 185 -82zM1574 -854q63 24 122 59q-59 35 -122 58q-21 -2 -35.5 -18.5 t-14.5 -39.5q0 -24 14.5 -40.5t35.5 -18.5zM1481 -875q17 0 36 4q-33 30 -33 76q0 45 33 75q-20 4 -38 4q-23 0 -40 -8q-29 -16 -29 -71t29 -71q18 -9 42 -9zM1682 -1046q25 92 83 185q-26 11 -38 37q-95 -58 -185 -82q45 -96 140 -140zM1793 -1178q55 0 71 29q8 17 8 41 q0 17 -4 37q-30 -33 -75 -33t-75 33q-5 -21 -5 -38q0 -23 9 -40q16 -29 71 -29zM1903 -1046q96 44 140 140q-89 24 -184 82q-12 -26 -38 -37q58 -93 82 -185zM2104 -875q25 0 42 9q30 16 30 71t-30 71q-17 8 -40 8q-17 0 -37 -4q32 -30 32 -75q0 -46 -32 -76q19 -4 35 -4z M3117 3h-40l-2568 3663v-3623h418v-40h-877v40h419v4120h-419v40h459l2568 -3662v3623h-418v40h877v-40h-419v-4161z" glyph-name="uniE020" horiz-adv-x="3586" unicode=""/><glyph d="M1986 -1218q-78 0 -106 50q-13 26 -13 59l1 23q-121 51 -173 172l-22 -1q-33 0 -60 14q-50 28 -50 106q0 77 50 106q26 14 59 14l23 -2q52 121 173 172l-1 23q0 33 13 60q29 50 106 50q78 0 106 -50q14 -27 14 -60l-2 -23q121 -51 173 -172l23 2q33 0 59 -14 q50 -29 50 -106q0 -78 -50 -106q-27 -14 -60 -14l-22 1q-52 -121 -173 -172l2 -23q0 -33 -14 -59q-28 -50 -106 -50zM2205 -854q21 2 35.5 18.5t14.5 40.5q0 23 -14.5 40t-35.5 18q-63 -23 -122 -58q59 -35 122 -59zM2052 -767q95 58 185 82q-45 96 -140 140 q-24 -89 -83 -184q26 -12 38 -38zM1986 -1064q23 0 40 14t19 35q-23 61 -59 123q-36 -62 -59 -123q2 -21 19 -35t40 -14zM1986 -827q13 0 22.5 9t9.5 23q0 13 -9.5 22t-22.5 9t-22.5 -9t-9.5 -22q0 -14 9.5 -23t22.5 -9zM1986 -699q35 60 59 122q-2 22 -18.5 36t-40.5 14 q-23 0 -40 -14t-19 -36q24 -62 59 -122zM2061 -520q5 21 5 38q0 23 -9 40q-16 30 -71 30t-71 -30q-9 -17 -9 -40q0 -17 5 -38q30 33 75 33t75 -33zM1920 -767q12 26 38 38q-59 95 -83 184q-95 -44 -139 -140q89 -24 184 -82zM1767 -854q63 24 122 59q-59 35 -122 58 q-21 -2 -35.5 -18.5t-14.5 -39.5q0 -24 14.5 -40.5t35.5 -18.5zM1675 -875q16 0 35 4q-33 30 -33 76q0 45 33 75q-20 4 -38 4q-23 0 -39 -8q-30 -16 -30 -71t30 -71q17 -9 42 -9zM1876 -1046q24 92 82 185q-26 11 -38 37q-95 -58 -184 -82q44 -96 140 -140zM1986 -1178 q55 0 71 29q9 17 9 40q0 17 -5 38q-30 -33 -75 -33t-75 33q-4 -20 -4 -37q0 -24 8 -41q16 -29 71 -29zM2096 -1046q96 44 140 140q-89 24 -184 82q-12 -26 -38 -37q58 -93 82 -185zM2297 -875q25 0 42 9q30 16 30 71t-30 71q-17 8 -40 8q-17 0 -37 -4q33 -30 33 -75 q0 -46 -33 -76q19 -4 35 -4zM1986 -14q-392 0 -754 166q-347 162 -615 455t-415 673q-152 395 -152 823q0 429 152 824q147 380 415 673t615 454q362 167 754 167t754 -167q348 -161 615.5 -454t414.5 -673q152 -395 152 -824q0 -428 -152 -823q-147 -380 -414.5 -673 t-615.5 -455q-362 -166 -754 -166zM1986 26q72 0 98 3q311 27 578 196.5t468.5 451t315.5 647t114 779.5t-114 779.5t-315.5 647t-468.5 451t-578 197.5q-26 3 -98 3q-49 0 -97 -3h-2q-310 -28 -577.5 -197.5t-468.5 -451t-315 -647t-114 -779.5t114 -779t315 -647 t468.5 -451.5t577.5 -196.5h2q48 -3 97 -3z" glyph-name="uniE021" horiz-adv-x="3972" unicode=""/><glyph d="M1583 -1218q-78 0 -106 50q-13 26 -13 59l1 23q-121 51 -173 172l-23 -1q-33 0 -59 14q-50 28 -50 106q0 77 50 106q27 13 61 13l21 -1q52 121 173 172l-2 25q0 32 14 58q28 50 106 50t106 -50q13 -26 13 -59l-1 -24q121 -51 173 -172l21 1q34 0 61 -13q50 -29 50 -106 q0 -78 -50 -106q-27 -14 -60 -14l-22 1q-52 -121 -173 -172l1 -23q0 -33 -13 -59q-28 -50 -106 -50zM1802 -854q21 2 35 18.5t14 40.5q0 23 -14 40t-35 18q-63 -23 -122 -58q59 -35 122 -59zM1649 -767q95 58 184 82q-44 96 -139 140q-24 -89 -83 -184q26 -12 38 -38z M1583 -1064q23 0 40 14t19 35q-23 61 -59 123q-36 -62 -59 -123q2 -21 18.5 -35t40.5 -14zM1583 -827q13 0 22.5 9t9.5 23q0 13 -9.5 22t-22.5 9t-22.5 -9t-9.5 -22q0 -14 9.5 -23t22.5 -9zM1583 -699q35 60 59 122q-2 22 -19 36t-40 14q-24 0 -40.5 -14t-18.5 -36 q24 -62 59 -122zM1658 -520q5 21 5 38q0 23 -9 40q-17 30 -71 30q-55 0 -71 -30q-9 -17 -9 -40q0 -17 4 -38q31 33 76 33t75 -33zM1517 -767q12 26 38 38q-59 95 -83 184q-96 -44 -140 -140q90 -24 185 -82zM1364 -854q63 24 122 59q-60 35 -122 58q-21 -2 -35.5 -18.5 t-14.5 -39.5q0 -24 14.5 -40.5t35.5 -18.5zM1270 -875q17 0 37 4q-33 30 -33 76q0 45 33 75q-20 4 -38 4q-22 0 -40 -8q-29 -17 -29 -71q0 -55 29 -71q17 -9 41 -9zM1472 -1046q25 92 83 185q-26 11 -38 37q-95 -58 -185 -82q45 -96 140 -140zM1583 -1178q56 0 71 29 q8 16 8 39q0 18 -4 39q-30 -33 -75 -33t-75 33q-5 -21 -5 -38q0 -24 9 -40q16 -29 71 -29zM1693 -1046q96 44 140 140q-89 24 -184 82q-12 -26 -38 -37q57 -93 82 -185zM1896 -875q24 0 40 9q30 16 30 71q0 54 -30 71q-16 8 -39 8q-18 0 -38 -4q32 -30 32 -75q0 -46 -32 -76 q21 -4 37 -4zM1581 -9q-481 0 -845 180q-290 148 -473 411q-203 294 -203 623q0 263 135 516q153 279 424 451l213 -248l-46 -21q-47 -22 -115 -75q-170 -133 -258 -385q-56 -160 -61 -385q0 -221 88 -398.5t238 -308t342 -210.5t403 -105l38 -2q59 -3 127 -3q53 0 106 2 q358 17 636 128t443 301q25 34 48 76.5t38.5 75t17.5 38.5q75 191 75 355q0 240 -168.5 450.5t-517.5 452.5t-889 564q-475 289 -681 569q-175 237 -175 461q0 182 103 335l14 21q127 189 397 281q223 74 491 74h29q449 -6 735 -178q166 -102 260 -249t94 -302l-2 -40 l-309 4q3 36 3 70q0 171 -57 287.5t-149 189t-203 111t-223.5 52t-205.5 13.5q-79 0 -135 -5q-137 -11 -291 -56h4q-50 -15 -95.5 -43t-75.5 -51.5t-31 -25.5q-32 -35 -64 -86t-54 -116.5t-22 -144.5q0 -196 161 -405q191 -247 631 -505q369 -214 661.5 -396t497 -353.5 t313 -352t108.5 -396.5q0 -267 -179 -612q-167 -341 -597 -507q-285 -107 -634 -125q-58 -2 -115 -2z" glyph-name="uniE022" horiz-adv-x="3139" unicode=""/><glyph d="M1908 -1218q-77 0 -106 50q-13 26 -13 59l1 23q-121 51 -172 172l-23 -1q-33 0 -59 14q-51 28 -51 106q0 77 51 106q26 14 59 14l23 -2q51 121 172 172l-1 22q0 34 14 61q28 50 105 50q78 0 106 -50q14 -27 14 -61l-1 -22q121 -51 172 -172l23 2q33 0 59 -14 q50 -29 50 -106q0 -78 -50 -106q-26 -14 -59 -14l-23 1q-52 -121 -173 -172l2 -23q0 -33 -14 -59q-28 -50 -106 -50zM2127 -854q22 2 36 18.5t14 40.5q0 23 -14.5 40t-35.5 18q-62 -23 -122 -58q60 -35 122 -59zM1974 -767q96 58 185 82q-44 96 -140 140q-24 -89 -82 -184 q26 -12 37 -38zM1908 -1064q24 0 40.5 14t18.5 35q-23 61 -59 123q-36 -62 -58 -123q2 -21 18.5 -35t39.5 -14zM1908 -827q14 0 23 9t9 23q0 13 -9 22t-23 9q-13 0 -22 -9t-9 -22q0 -14 9 -23t22 -9zM1908 -699q35 60 59 122q-2 22 -18.5 36t-40.5 14q-23 0 -39.5 -14 t-18.5 -36q23 -62 58 -122zM1984 -520q4 20 4 36q0 25 -9 42q-16 30 -71 30t-71 -30q-8 -17 -8 -41q0 -17 4 -37q30 33 75 33q46 0 76 -33zM1843 -767q11 26 37 38q-58 95 -82 184q-96 -44 -140 -140q89 -24 185 -82zM1690 -854q62 24 122 59q-60 35 -122 58 q-22 -2 -36 -18.5t-14 -39.5q0 -24 14 -40.5t36 -18.5zM1597 -875q16 0 36 4q-33 30 -33 76q0 45 33 75q-21 4 -38 4q-23 0 -40 -8q-30 -16 -30 -71t30 -71q17 -9 42 -9zM1798 -1046q25 92 82 185q-26 11 -37 37q-96 -58 -185 -82q44 -96 140 -140zM1908 -1178q55 0 71 29 q9 17 9 42q0 16 -4 36q-30 -33 -76 -33q-45 0 -75 33q-4 -20 -4 -37q0 -24 8 -41q16 -29 71 -29zM2019 -1046q96 44 140 140q-89 24 -185 82q-11 -26 -37 -37q57 -93 82 -185zM2222 -875q23 0 40 9q29 16 29 71t-29 71q-17 8 -41 8q-17 0 -37 -4q33 -30 33 -75 q0 -46 -33 -76q20 -4 38 -4zM1840 -3q-306 0 -587 119q-271 115 -480 323.5t-323 479.5q-101 237 -116 495v2747h-284v40h877v-40h-431q75 0 112 -115q27 -83 33 -179l1 -33v-2473l10 -94q9 -94 44 -240q87 -365 308 -628q283 -337 783 -361l53 -1q303 0 569 114t467 314.5 t315 465t118 569.5v2661h-419v40h877v-40h-418v-2661q-2 -304 -119 -581q-115 -271 -323.5 -479.5t-479.5 -323.5q-282 -119 -587 -119z" glyph-name="uniE023" horiz-adv-x="3817" unicode=""/><glyph d="M939 -1221q-77 0 -106 50q-13 26 -13 59l1 23q-121 51 -173 172l-22 -1q-33 0 -60 14q-50 28 -50 106q0 77 50 106q26 14 59 14l23 -2q52 121 173 173l-1 22q0 33 13 60q29 50 106 50q78 0 106 -50q14 -27 14 -60l-2 -22q121 -52 173 -173l23 2q33 0 59 -14 q50 -29 50 -106q0 -78 -50 -106q-26 -14 -59 -14l-23 1q-52 -121 -173 -172l2 -23q0 -33 -14 -59q-28 -50 -106 -50zM1158 -857q21 2 35.5 18.5t14.5 40.5q0 23 -14.5 40t-35.5 18q-62 -23 -122 -58q60 -35 122 -59zM1005 -770q95 58 185 82q-44 96 -140 140 q-24 -89 -83 -184q27 -12 38 -38zM939 -1067q24 0 40.5 14t18.5 35q-23 61 -59 123q-36 -62 -58 -123q2 -21 18.5 -35t39.5 -14zM939 -830q13 0 22.5 9.5t9.5 22.5t-9.5 22t-22.5 9t-22 -9t-9 -22t9 -22.5t22 -9.5zM939 -701q35 59 59 122q-2 21 -18.5 35t-40.5 14 q-23 0 -40 -14t-19 -35q24 -63 59 -122zM1015 -523q4 20 4 36q0 25 -9 42q-16 30 -71 30t-71 -30q-9 -17 -9 -40q0 -17 5 -38q30 33 75 33q46 0 76 -33zM873 -770q12 26 38 38q-58 95 -82 184q-96 -44 -140 -140q89 -24 184 -82zM720 -857q63 24 122 59q-59 35 -122 58 q-21 -1 -35 -18t-14 -40q0 -24 14 -40.5t35 -18.5zM628 -878q16 0 35 4q-32 30 -32 76q0 45 32 75q-20 4 -37 4q-24 0 -40 -8q-30 -16 -30 -71t30 -71q17 -9 42 -9zM829 -1049q25 92 82 185q-26 11 -38 37q-95 -58 -184 -82q44 -96 140 -140zM939 -1181q55 0 71 29 q9 17 9 40q0 17 -5 38q-30 -33 -75 -33t-75 33q-4 -20 -4 -37q0 -24 8 -41q16 -29 71 -29zM1050 -1049q96 44 140 140q-90 24 -185 82q-11 -26 -38 -37q58 -93 83 -185zM1253 -878q23 0 40 9q29 16 29 71t-29 71q-17 9 -41 9q-17 0 -37 -5q33 -30 33 -75q0 -46 -33 -76 q20 -4 38 -4zM873 -11h-24q-254 0 -494 148q-242 157 -352 407q-71 169 -71 351q0 91 18 185q57 283 249 478q113 108 248 184t274 140l855 404q-20 342 -145.5 496t-415.5 154h-7q-68 -5 -133 -20q-132 -48 -212.5 -158t-121 -233t-53.5 -213l-14 -90h-238q14 155 80 288v1 q65 132 170 233q148 143 350 202q109 32 227 32q151 0 287 -51q1 0 1 -1q128 -47 232 -132l2 -1l13 -11q142 -120 220 -290q64 -138 74 -297q1 -23 1 -2158h285v-40h-431q-69 6 -115.5 54.5t-46.5 117.5v198q-86 -114 -204 -200q-235 -167 -508 -178zM928 56q166 0 298 63 q222 110 359 317l-2 874q-3 880 -5 933l-563 -267q-83 -40 -210.5 -130.5t-253 -235.5t-199.5 -348q-57 -154 -57 -344q0 -61 6 -125q38 -321 152.5 -484.5t261.5 -214.5q109 -38 213 -38z" glyph-name="uniE024" horiz-adv-x="2227" unicode=""/><glyph d="M1283 -1221q-77 0 -106 50q-13 26 -13 59l1 23q-121 51 -172 172l-23 -1q-33 0 -60 14q-50 28 -50 106q0 77 50 106q27 14 60 14l23 -2q51 121 172 173l-1 22q0 33 13 60q29 50 106 50q78 0 106 -50q14 -27 14 -60l-1 -22q120 -52 172 -173l23 2q33 0 59 -14 q50 -29 50 -106q0 -78 -50 -106q-26 -14 -59 -14l-23 1q-52 -121 -173 -172l2 -23q0 -33 -14 -59q-28 -50 -106 -50zM1502 -857q21 2 35.5 18.5t14.5 40.5q0 23 -14.5 40t-35.5 18q-62 -23 -122 -58q60 -35 122 -59zM1349 -770q96 58 185 82q-44 96 -140 140 q-24 -89 -82 -184q26 -12 37 -38zM1283 -1067q24 0 40.5 14t18.5 35q-23 61 -59 123q-36 -62 -58 -123q2 -21 18.5 -35t39.5 -14zM1283 -830q13 0 22.5 9.5t9.5 22.5t-9.5 22t-22.5 9t-22 -9t-9 -22t9 -22.5t22 -9.5zM1283 -701q35 59 59 122q-2 21 -18.5 35t-40.5 14 q-23 0 -39.5 -14t-18.5 -35q23 -63 58 -122zM1359 -523q4 20 4 36q0 25 -9 42q-16 30 -71 30t-71 -30q-8 -17 -8 -41q0 -17 4 -37q30 33 75 33q46 0 76 -33zM1217 -770q12 26 38 38q-58 95 -82 184q-96 -44 -140 -140q89 -24 184 -82zM1065 -857q62 24 122 59 q-60 35 -122 58q-22 -1 -36 -18t-14 -40q0 -24 14 -40.5t36 -18.5zM972 -878q16 0 36 4q-33 30 -33 76q0 45 33 75q-21 4 -38 4q-24 0 -40 -8q-30 -16 -30 -71t30 -71q17 -9 42 -9zM1173 -1049q25 92 82 185q-26 11 -38 37q-95 -58 -184 -82q44 -96 140 -140zM1283 -1181 q55 0 71 29q9 17 9 42q0 16 -4 36q-31 -33 -76 -33t-75 33q-4 -20 -4 -37q0 -24 8 -41q16 -29 71 -29zM1394 -1049q96 44 140 140q-89 24 -185 82q-11 -26 -37 -37q57 -93 82 -185zM1597 -878q23 0 40 9q29 16 29 71t-29 71q-17 9 -40 9q-17 0 -38 -5q33 -30 33 -75 q0 -46 -33 -76q20 -4 38 -4zM1343 -17q-280 0 -537 119q-248 116 -439 326q-196 217 -299.5 492.5t-103.5 578.5q0 304 103.5 579.5t299.5 492.5q191 210 439 325q257 120 537 120t537 -120q281 -131 486 -380l-214 -122q-138 261 -339.5 415.5t-443.5 165.5l-26 1l-26 -1 q-208 -9 -387 -126t-314.5 -318.5t-212.5 -466t-77 -565.5q0 -294 73.5 -553.5t203.5 -459.5t302 -320.5t373 -140.5q10 -2 65 -2q32 0 64 2h1q232 24 425 179.5t325 410.5l245 -86q-215 -283 -523 -427q-257 -119 -537 -119z" glyph-name="uniE025" horiz-adv-x="2403" unicode=""/><glyph d="M1302 -1221q-78 0 -106 50q-13 26 -13 59l1 23q-121 51 -173 172l-22 -1q-33 0 -60 14q-50 28 -50 106q0 77 50 106q26 14 59 14l23 -2q52 121 173 173l-1 22q0 33 13 60q29 50 106 50q78 0 106 -50q14 -27 14 -60l-2 -22q121 -52 173 -173l23 2q33 0 59 -14 q50 -29 50 -106q0 -78 -50 -106q-27 -14 -60 -14l-22 1q-52 -121 -173 -172l2 -23q0 -33 -14 -59q-28 -50 -106 -50zM1521 -857q21 2 35.5 18.5t14.5 40.5q0 23 -14.5 40t-35.5 18q-63 -23 -122 -58q59 -35 122 -59zM1368 -770q95 58 185 82q-45 96 -140 140 q-24 -89 -83 -184q26 -12 38 -38zM1302 -1067q23 0 40 14t19 35q-23 61 -59 123q-36 -62 -59 -123q2 -21 19 -35t40 -14zM1302 -830q13 0 22.5 9.5t9.5 22.5t-9.5 22t-22.5 9t-22.5 -9t-9.5 -22t9.5 -22.5t22.5 -9.5zM1302 -701q35 59 59 122q-2 21 -18.5 35t-40.5 14 q-23 0 -40 -14t-19 -35q24 -63 59 -122zM1377 -523q5 21 5 38q0 23 -9 40q-16 30 -71 30t-71 -30q-9 -17 -9 -40q0 -17 5 -38q30 33 75 33t75 -33zM1236 -770q12 26 38 38q-59 95 -83 184q-95 -44 -139 -140q89 -24 184 -82zM1083 -857q63 24 122 59q-59 35 -122 58 q-21 -1 -35.5 -18t-14.5 -40q0 -24 14.5 -40.5t35.5 -18.5zM991 -878q16 0 35 4q-33 30 -33 76q0 45 33 75q-20 4 -38 4q-23 0 -39 -8q-30 -16 -30 -71t30 -71q17 -9 42 -9zM1192 -1049q24 92 82 185q-26 11 -38 37q-95 -58 -184 -82q44 -96 140 -140zM1302 -1181 q55 0 71 29q9 17 9 40q0 17 -5 38q-30 -33 -75 -33t-75 33q-4 -20 -4 -37q0 -24 8 -41q16 -29 71 -29zM1412 -1049q96 44 141 140q-90 24 -185 82q-12 -26 -38 -37q58 -93 82 -185zM1616 -878q23 0 39 9q30 16 30 71t-30 71q-17 9 -40 9q-17 0 -37 -5q33 -30 33 -75 q0 -46 -33 -76q20 -4 38 -4zM1343 -17q-280 0 -537 119q-248 116 -439 326q-196 217 -299.5 492.5t-103.5 578.5q0 304 103.5 579.5t299.5 492.5q191 210 438 325t516 120h14q228 -4 402.5 -63.5t303 -158t217.5 -218.5q32 -43 61 -87q123 -203 173.5 -384.5t57.5 -264.5 l5 -40h-2208q-21 -147 -21 -301q0 -294 73.5 -553.5t203.5 -459.5t302 -320.5t373 -140.5q10 -2 65 -2q32 0 64 2h1q232 24 425 179.5t325 410.5l245 -86q-215 -283 -523 -427q-257 -119 -537 -119zM2251 1840q-61 649 -383 924q-2 1 -3.5 2.5l-3.5 3.5q-36 30 -56 45 q-150 103 -277 133q-120 28 -178 28q-15 0 -29 -1h-4q-237 -11 -435.5 -159.5t-336.5 -401t-192 -574.5h1898z" glyph-name="uniE026" horiz-adv-x="2548" unicode=""/><glyph d="M1406 -1221q-77 0 -106 50q-13 26 -13 59l1 23q-121 51 -172 172l-23 -1q-33 0 -60 14q-50 28 -50 106q0 77 50 106q27 14 60 14l22 -2q52 121 173 173l-1 22q0 33 13 60q29 50 106 50q78 0 106 -50q14 -28 14 -62l-1 -20q120 -52 172 -173l23 2q33 0 59 -14 q50 -29 50 -106q0 -78 -50 -106q-26 -14 -59 -14l-23 1q-52 -121 -173 -172l2 -23q0 -33 -14 -59q-28 -50 -106 -50zM1625 -857q21 2 35.5 18.5t14.5 40.5q0 23 -14.5 40t-35.5 18q-62 -23 -122 -58q60 -35 122 -59zM1472 -770q96 58 185 82q-44 96 -140 140 q-24 -89 -82 -184q26 -12 37 -38zM1406 -1067q24 0 40.5 14t18.5 35q-23 61 -59 123q-36 -62 -58 -123q2 -21 18.5 -35t39.5 -14zM1406 -830q13 0 22.5 9.5t9.5 22.5t-9.5 22t-22.5 9t-22 -9t-9 -22t9 -22.5t22 -9.5zM1406 -701q35 59 59 122q-2 21 -18.5 35t-40.5 14 q-23 0 -39.5 -14t-18.5 -35q23 -63 58 -122zM1482 -523q4 20 4 36q0 25 -9 42q-16 30 -71 30t-71 -30q-8 -17 -8 -41q0 -17 4 -37q30 33 75 33q46 0 76 -33zM1340 -770q12 26 38 38q-58 95 -82 184q-96 -44 -140 -140q89 -24 184 -82zM1188 -857q62 24 121 59 q-59 35 -121 58q-22 -1 -36 -18t-14 -40q0 -24 14 -40.5t36 -18.5zM1095 -878q16 0 36 4q-33 30 -33 76q0 45 33 75q-21 4 -38 4q-24 0 -40 -8q-30 -16 -30 -71t30 -71q17 -9 42 -9zM1296 -1049q25 92 82 185q-26 11 -38 37q-95 -58 -184 -82q44 -96 140 -140zM1406 -1181 q55 0 71 29q9 17 9 42q0 16 -4 36q-31 -33 -76 -33t-75 33q-4 -20 -4 -37q0 -24 8 -41q16 -29 71 -29zM1517 -1049q96 44 140 140q-89 24 -185 82q-11 -26 -37 -37q57 -93 82 -185zM1720 -878q23 0 40 9q29 16 29 71t-29 71q-17 9 -41 9q-17 0 -37 -5q33 -30 33 -75 q0 -46 -33 -76q20 -4 38 -4zM2830 0h-877v40h284v2548q0 61 -22 150.5t-87 149.5q-46 43 -125 43q-32 0 -70 -7q-31 -8 -61 -19q-248 -89 -468 -390q-252 -347 -456 -953q-123 -378 -198.5 -711t-106.5 -525v-286h284v-40h-877v40h284v4121h-284v40h877v-40h-431 q42 0 69.5 -33.5t43.5 -82t23 -97t9 -81.5l2 -33v-3289q105 538 267 1029q206 612 462 964q325 444 710 444q88 0 155 -22q98 -33 158 -92q104 -103 136 -248q14 -63 14 -105v-2475h285v-40z" glyph-name="uniE027" horiz-adv-x="2880" unicode=""/><glyph d="M1344 -1221q-78 0 -106 50q-13 26 -13 59l1 23q-121 51 -173 172l-23 -1q-33 0 -59 14q-50 28 -50 106q0 77 50 106q26 14 59 14l23 -2q51 121 172 173l-1 22q0 33 14 60q28 50 106 50q77 0 106 -50q14 -27 14 -60l-2 -22q121 -52 172 -173l23 2q33 0 60 -14 q50 -29 50 -106q0 -78 -50 -106q-27 -14 -60 -14l-23 1q-51 -121 -172 -172l2 -23q0 -33 -14 -59q-29 -50 -106 -50zM1562 -857q22 2 36 18.5t14 40.5q0 23 -14 40t-36 18q-62 -23 -122 -58q60 -35 122 -59zM1410 -770q95 58 184 82q-44 96 -140 140q-24 -89 -82 -184 q26 -12 38 -38zM1344 -1067q23 0 39.5 14t18.5 35q-22 61 -58 123q-36 -62 -59 -123q2 -21 18.5 -35t40.5 -14zM1344 -830q13 0 22 9.5t9 22.5t-9 22t-22 9q-14 0 -23 -9t-9 -22t9 -22.5t23 -9.5zM1344 -701q35 59 58 122q-2 21 -18.5 35t-39.5 14q-24 0 -40.5 -14 t-18.5 -35q24 -63 59 -122zM1419 -523q4 20 4 37q0 24 -8 41q-16 30 -71 30t-71 -30q-9 -17 -9 -42q0 -16 4 -36q30 33 76 33q45 0 75 -33zM1278 -770q11 26 37 38q-58 95 -82 184q-96 -44 -140 -140q89 -24 185 -82zM1125 -857q62 24 122 59q-60 35 -122 58q-22 -1 -36 -18 t-14 -40q0 -24 14.5 -40.5t35.5 -18.5zM1032 -878q16 0 36 4q-33 30 -33 76q0 45 33 75q-21 4 -38 4q-23 0 -40 -8q-29 -16 -29 -71t29 -71q17 -9 42 -9zM1233 -1049q25 92 82 185q-26 11 -37 37q-96 -58 -185 -82q44 -96 140 -140zM1344 -1181q55 0 71 29q8 17 8 41 q0 17 -4 37q-30 -33 -75 -33t-76 33q-4 -20 -4 -36q0 -25 9 -42q16 -29 71 -29zM1454 -1049q96 44 140 140q-89 24 -184 82q-12 -26 -38 -37q57 -93 82 -185zM1655 -878q25 0 42 9q30 16 30 71t-30 71q-17 9 -40 9q-17 0 -38 -5q33 -30 33 -75q0 -46 -33 -76q20 -4 36 -4z M2561 0h-359l-1075 1821q-187 -373 -307 -725.5t-177 -580.5v-475h284v-40h-877v40h284v4121h-284v40h877v-40h-431q42 0 69.5 -33.5t43 -82t23 -97t9.5 -81.5l2 -33v-3167q65 237 178.5 550.5t276.5 635.5q86 167 177 309q272 427 583 634q287 191 600 191q89 0 179 -15 v-297l-100 30q-100 30 -249 50q-69 9 -139 9q-82 0 -201.5 -17.5t-239.5 -117.5q-208 -189 -399 -488l-7 -11z" glyph-name="uniE028" horiz-adv-x="2739" unicode=""/><glyph d="M2391 -1221q-78 0 -106 50q-13 26 -13 59l1 23q-121 51 -173 172l-23 -1q-33 0 -59 14q-51 28 -51 106q0 77 51 106q26 14 59 14l23 -2q51 121 172 173l-1 22q0 33 14 60q28 50 106 50q77 0 105 -50q14 -27 14 -60l-1 -22q121 -52 172 -173l23 2q33 0 59 -14 q51 -29 51 -106q0 -78 -51 -106q-26 -14 -59 -14l-23 1q-51 -121 -172 -172l2 -23q0 -33 -14 -59q-29 -50 -106 -50zM2609 -857q22 2 36 18.5t14 40.5q0 23 -14 40t-36 18q-62 -23 -122 -58q60 -35 122 -59zM2456 -770q96 58 185 82q-44 96 -140 140q-24 -89 -82 -184 q26 -12 37 -38zM2391 -1067q23 0 39.5 14t18.5 35q-22 61 -58 123q-37 -62 -59 -123q2 -21 18.5 -35t40.5 -14zM2391 -830q13 0 22 9.5t9 22.5t-9 22t-22 9q-14 0 -23 -9t-9 -22t9 -22.5t23 -9.5zM2391 -701q35 59 58 122q-2 21 -18.5 35t-39.5 14q-24 0 -40.5 -14 t-18.5 -35q24 -63 59 -122zM2466 -523q4 20 4 37q0 24 -8 41q-17 30 -71 30q-55 0 -71 -30q-9 -17 -9 -42q0 -16 4 -36q30 33 76 33q45 0 75 -33zM2325 -770q11 26 37 38q-58 95 -82 184q-96 -44 -140 -140q89 -24 185 -82zM2172 -857q62 24 122 59q-60 35 -122 58 q-22 -1 -36 -18t-14 -40q0 -24 14 -40.5t36 -18.5zM2079 -878q16 0 36 4q-33 30 -33 76q0 45 33 75q-21 4 -38 4q-23 0 -40 -8q-30 -16 -30 -71t30 -71q17 -9 42 -9zM2280 -1049q25 92 82 185q-26 11 -37 38q-96 -59 -185 -83q44 -96 140 -140zM2391 -1181q55 0 71 29 q8 17 8 41q0 17 -4 37q-30 -33 -75 -33q-46 0 -76 33q-4 -20 -4 -36q0 -25 9 -42q16 -29 71 -29zM2501 -1049q96 44 140 140q-89 24 -185 82q-11 -26 -37 -37q57 -93 82 -185zM2702 -878q25 0 42 9q30 16 30 71t-30 71q-17 9 -40 9q-17 0 -38 -5q33 -30 33 -75 q0 -46 -33 -76q20 -4 36 -4zM4732 -4h-877v40h284v2548q0 61 -22 150.5t-87 150.5q-46 42 -124 42q-33 0 -71 -7q-31 -8 -61 -19q-248 -89 -468 -390q-252 -347 -456 -953q-124 -379 -199 -712.5t-106 -524.5v-283h284v-40h-877v40h284v2548q0 62 -21.5 151t-86.5 150 q-47 42 -125 42q-33 0 -71 -7q-30 -8 -60 -18h-1q-248 -90 -467 -391q-253 -346 -456 -953q-124 -378 -199 -711t-107 -524v-288h285v-40h-877v40h284v2901h-284v40h877v-40h-431q42 0 69 -33.5t43 -82t23.5 -97t9.5 -81.5l1 -34v-2066q106 544 268 1028q205 613 461 965 q325 444 710 444q89 0 155 -22q172 -57 247 -213q55 -111 62 -215v-1991q99 521 267 1030q206 612 462 964q325 444 710 444q88 0 155 -22q98 -33 158 -92q104 -103 136 -248q14 -63 14 -105v-2475h285v-40z" glyph-name="uniE029" horiz-adv-x="4782" unicode=""/><glyph d="M1440 -1221q-78 0 -106 50q-13 26 -13 59l1 23q-121 51 -173 172l-22 -1q-33 0 -60 14q-50 28 -50 106q0 77 50 106q26 14 59 14l23 -2q52 121 173 173l-1 22q0 33 13 60q28 50 106 50t106 -50q14 -27 14 -60l-2 -22q121 -52 173 -173l23 2q33 0 59 -14q50 -29 50 -106 q0 -78 -50 -106q-27 -14 -60 -14l-22 1q-52 -121 -173 -172l2 -23q0 -33 -14 -59q-28 -50 -106 -50zM1659 -857q21 2 35.5 18.5t14.5 40.5q0 23 -14.5 40t-35.5 18q-63 -23 -122 -58q59 -35 122 -59zM1506 -770q95 58 184 82q-44 96 -139 140q-24 -89 -83 -184 q26 -12 38 -38zM1440 -1067q23 0 40 14t19 35q-23 61 -59 123q-36 -62 -59 -123q2 -21 19 -35t40 -14zM1440 -830q13 0 22.5 9.5t9.5 22.5t-9.5 22t-22.5 9t-22.5 -9t-9.5 -22t9.5 -22.5t22.5 -9.5zM1440 -701q35 59 59 122q-2 21 -18.5 35t-40.5 14t-40.5 -14t-18.5 -35 q24 -63 59 -122zM1515 -523q5 21 5 38q0 23 -9 40q-16 30 -71 30t-71 -30q-9 -17 -9 -40q0 -17 5 -38q30 33 75 33t75 -33zM1374 -770q12 26 38 38q-59 95 -83 184q-95 -44 -139 -140q89 -24 184 -82zM1221 -857q63 24 122 59q-59 35 -122 58q-21 -1 -35.5 -18t-14.5 -40 q0 -24 14.5 -40.5t35.5 -18.5zM1129 -878q16 0 35 4q-33 30 -33 76q0 45 33 75q-20 4 -38 4q-23 0 -39 -8q-30 -16 -30 -71t30 -71q17 -9 42 -9zM1330 -1049q24 92 82 185q-26 11 -38 37q-95 -58 -184 -82q44 -96 140 -140zM1440 -1181q55 0 71 29q9 17 9 40q0 17 -5 38 q-30 -33 -75 -33t-75 33q-5 -21 -5 -38q0 -23 9 -40q16 -29 71 -29zM1550 -1049q96 44 140 140q-89 24 -184 82q-12 -26 -38 -37q58 -93 82 -185zM1751 -878q25 0 42 9q30 16 30 71t-30 71q-17 9 -40 9q-17 0 -37 -5q33 -30 33 -75q0 -46 -33 -76q19 -4 35 -4zM2830 -3h-877 v40h284v2548q0 62 -22 151t-87 150q-46 42 -124 42q-33 0 -71 -7q-31 -8 -61 -18v-1q-248 -89 -468 -390q-252 -347 -456 -953q-123 -378 -198.5 -711t-106.5 -524v-287h284v-40h-877v40h285v2901h-285v40h877v-40h-431q43 0 70 -33.5t43 -82t23 -97t9 -81.5l2 -34v-2067 q105 539 267 1028q206 613 462 965q325 444 710 444q88 0 155 -22q98 -33 157.5 -92t89.5 -121q34 -69 47 -128t14 -87v-2493h285v-40z" glyph-name="uniE030" horiz-adv-x="2880" unicode=""/><glyph d="M1343 -1221q-78 0 -106 50q-13 26 -13 59l1 23q-121 51 -173 172l-23 -1q-33 0 -59 14q-50 28 -50 106q0 77 50 106q26 14 59 14l23 -2q51 121 172 173l-1 22q0 33 14 60q28 50 106 50q77 0 106 -50q14 -27 14 -60l-2 -22q121 -52 172 -173l23 2q33 0 60 -14 q50 -29 50 -106q0 -78 -50 -106q-27 -14 -60 -14l-23 1q-51 -121 -172 -172l2 -23q0 -33 -14 -59q-29 -50 -106 -50zM1561 -857q22 2 36 18.5t14 40.5q0 23 -14 40t-36 18q-62 -23 -122 -58q60 -35 122 -59zM1409 -770q95 58 184 82q-44 96 -140 140q-24 -89 -82 -184 q26 -12 38 -38zM1343 -1067q23 0 39.5 14t18.5 35q-22 61 -58 123q-36 -62 -59 -123q2 -21 18.5 -35t40.5 -14zM1343 -830q13 0 22 9.5t9 22.5t-9 22t-22 9t-22.5 -9t-9.5 -22t9.5 -22.5t22.5 -9.5zM1343 -701q35 59 58 122q-2 21 -18.5 35t-39.5 14q-24 0 -40.5 -14 t-18.5 -35q24 -63 59 -122zM1418 -523q4 20 4 37q0 24 -8 41q-16 30 -71 30t-71 -30q-9 -17 -9 -42q0 -16 4 -36q30 33 76 33q45 0 75 -33zM1277 -770q11 26 37 38q-58 95 -82 184q-96 -44 -140 -140q89 -24 185 -82zM1124 -857q62 24 122 59q-60 35 -122 58q-22 -1 -36 -18 t-14 -40q0 -24 14.5 -40.5t35.5 -18.5zM1031 -878q16 0 36 4q-33 30 -33 76q0 45 33 75q-21 4 -38 4q-23 0 -40 -8q-29 -16 -29 -71t29 -71q17 -9 42 -9zM1232 -1049q25 92 82 185q-26 11 -37 37q-96 -58 -185 -82q44 -96 140 -140zM1343 -1181q55 0 71 29q8 17 8 41 q0 17 -4 37q-30 -33 -75 -33t-76 33q-4 -20 -4 -36q0 -25 9 -42q16 -29 71 -29zM1453 -1049q96 44 140 140q-89 24 -184 82q-12 -26 -38 -37q57 -93 82 -185zM1654 -878q25 0 42 9q30 16 30 71t-30 71q-17 9 -40 9q-17 0 -38 -5q33 -30 33 -75q0 -46 -33 -76q20 -4 36 -4z M1343 -17q-280 0 -537 119q-248 116 -439 326q-196 217 -299.5 492.5t-103.5 578.5q0 304 103.5 579.5t299.5 492.5q191 210 439 325q257 120 537 120t537 -120q248 -115 439 -325q195 -217 299 -492.5t104 -579.5q0 -303 -104 -578.5t-299 -492.5q-191 -210 -439 -326 q-257 -119 -537 -119zM1343 23q32 0 64 2h1q201 20 373 140.5t302 320.5t203.5 459.5t73.5 553.5q0 301 -77 565.5t-212.5 466t-314.5 318.5t-387 126l-26 1l-26 -1q-208 -9 -387 -126t-314.5 -318.5t-212.5 -466t-77 -565.5q0 -294 73.5 -553.5t203.5 -459.5t302 -320.5 t373 -140.5q10 -2 65 -2z" glyph-name="uniE031" horiz-adv-x="2686" unicode=""/><glyph d="M1054 -1221q-78 0 -106 50q-14 26 -14 58l2 24q-121 51 -173 172l-23 -1q-33 0 -59 14q-50 28 -50 106q0 77 50 106q27 13 61 13l21 -1q51 121 172 173l-1 21q0 33 14 61q28 50 106 50q77 0 105 -50q14 -28 14 -61l-1 -21q121 -52 172 -173l22 1q34 0 60 -13 q51 -29 51 -106q0 -78 -51 -106q-26 -14 -59 -14l-23 1q-51 -121 -172 -172l1 -21q0 -34 -13 -61q-29 -50 -106 -50zM1272 -857q22 2 36 18.5t14 40.5q0 23 -14 40t-36 18q-62 -23 -122 -58q60 -35 122 -59zM1120 -770q95 58 184 82q-44 96 -140 140q-24 -89 -82 -184 q26 -12 38 -38zM1054 -1067q23 0 39.5 14t18.5 35q-22 61 -58 123q-36 -62 -59 -123q2 -21 18.5 -35t40.5 -14zM1054 -830q13 0 22 9.5t9 22.5t-9 22t-22 9q-14 0 -23 -9t-9 -22t9 -22.5t23 -9.5zM1054 -701q35 59 58 122q-2 21 -18.5 35t-39.5 14q-24 0 -40.5 -14 t-18.5 -35q24 -63 59 -122zM1129 -523q4 21 4 39q0 23 -8 39q-17 30 -71 30q-55 0 -71 -30q-9 -17 -9 -40q0 -17 4 -38q30 33 76 33q45 0 75 -33zM988 -770q11 26 37 38q-58 95 -82 184q-96 -44 -140 -140q89 -24 185 -82zM835 -857q62 24 122 59q-60 35 -122 58 q-22 -1 -36 -18t-14 -40q0 -24 14.5 -40.5t35.5 -18.5zM740 -878q17 0 38 4q-33 30 -33 76q0 45 33 75q-20 4 -38 4q-24 0 -40 -8q-29 -17 -29 -71q0 -55 29 -71q17 -9 40 -9zM943 -1049q25 92 82 185q-26 11 -37 37q-96 -58 -185 -82q44 -96 140 -140zM1054 -1181 q54 0 71 29q8 16 8 39q0 18 -4 39q-30 -33 -75 -33t-76 33q-4 -21 -4 -38q0 -23 9 -40q16 -29 71 -29zM1164 -1049q96 44 140 140q-89 24 -184 82q-12 -26 -38 -37q57 -93 82 -185zM1367 -878q23 0 40 9q30 16 30 71q0 54 -30 71q-16 8 -39 8q-18 0 -39 -4q33 -30 33 -75 q0 -46 -33 -76q21 -4 38 -4zM1053 -5h-8q-342 0 -601 128q-207 107 -337.5 295t-144.5 400l-1 41q0 190 97 372q108 198 302 322l201 -239l-38 -15q-37 -14 -92 -50q-138 -87 -209 -246q-45 -102 -49 -251q0 -143 54 -261t147.5 -208t214.5 -149.5t257 -86.5q95 -12 196 -12 q41 0 83 2q235 13 392.5 68.5t249.5 124.5t133 123.5t44 65.5q68 153 68 276q0 154 -109 284t-330.5 277.5t-557.5 347.5l-157 94q-595 362 -595 742q0 76 20.5 139.5t50 112.5t57.5 82q92 116 266 176q159 53 351 53q335 -2 543 -128q119 -73 186.5 -179t67.5 -217l-1 -28 l-293 3q2 28 2 54q0 131 -43 217q-78 156 -259 208q-95 28 -189 30q-117 0 -216 -17q-157 -37 -253 -118l-1 -1q-7 -6 -31.5 -32.5t-41.5 -61.5q-35 -71 -35 -149q0 -61 26 -131q57 -153 265 -312q114 -88 309 -192q260 -138 464.5 -255.5t346.5 -230.5t216.5 -238 t74.5 -280q0 -193 -123 -454q-31 -84 -87 -155q-127 -161 -357 -250q-117 -43 -226.5 -62.5t-191 -24t-108.5 -4.5z" glyph-name="uniE032" horiz-adv-x="2107" unicode=""/><glyph d="M1439 -1221q-76 0 -106 50q-13 25 -13 57l2 25q-122 51 -173 172l-23 -1q-33 0 -59 14q-51 28 -51 106q0 77 51 106q26 13 60 13l22 -1q51 121 172 173l-1 21q0 33 14 61q29 50 105 50q78 0 106 -50q14 -28 14 -61l-1 -21q121 -52 172 -173l22 1q34 0 60 -13 q51 -29 51 -106q0 -78 -51 -106q-26 -14 -59 -14l-23 1q-51 -121 -173 -172l2 -24q0 -32 -14 -58q-28 -50 -106 -50zM1658 -857q22 2 36 18.5t14 40.5q0 23 -14 40t-36 18q-62 -23 -122 -58q60 -35 122 -59zM1505 -770q96 58 185 82q-44 96 -140 140q-24 -89 -82 -184 q26 -12 37 -38zM1439 -1067q24 0 40.5 14t18.5 35q-22 61 -59 123q-36 -62 -58 -123q2 -21 18.5 -35t39.5 -14zM1439 -830q14 0 23 9.5t9 22.5t-9 22t-23 9q-13 0 -22 -9t-9 -22t9 -22.5t22 -9.5zM1439 -701q35 59 59 122q-2 21 -18.5 35t-40.5 14q-23 0 -39.5 -14 t-18.5 -35q23 -63 58 -122zM1515 -523q4 21 4 38q0 23 -9 40q-15 30 -71 30q-54 0 -71 -30q-8 -16 -8 -39q0 -18 4 -39q30 33 75 33q47 0 76 -33zM1374 -770q11 26 37 38q-58 95 -82 184q-96 -44 -140 -140q89 -24 185 -82zM1221 -857q62 24 122 59q-60 35 -122 58 q-22 -1 -36 -18t-14 -40q0 -24 14 -40.5t36 -18.5zM1126 -878q17 0 38 4q-33 30 -33 76q0 45 33 75q-21 4 -38 4q-24 0 -40 -8q-30 -17 -30 -71q0 -55 30 -71q17 -9 40 -9zM1329 -1049q25 92 82 185q-26 11 -37 37q-96 -58 -185 -82q44 -96 140 -140zM1439 -1181q56 0 72 29 q8 16 8 39q0 18 -4 39q-29 -33 -76 -33q-45 0 -75 33q-4 -21 -4 -39q0 -23 8 -39q17 -29 71 -29zM1550 -1049q96 44 140 140q-89 24 -185 82q-11 -26 -37 -37q57 -93 82 -185zM1753 -878q23 0 40 9q30 16 30 71q0 54 -30 71q-16 8 -39 8q-18 0 -39 -4q33 -30 33 -75 q0 -46 -33 -76q21 -4 38 -4zM797 -7q-88 0 -155 22q-98 33 -157.5 92t-89.5 121q-34 69 -47 127.5t-14 87.5v2500h-284v40h877v-40h-431q41 0 68 -31q47 -56 66 -172q12 -75 12 -123v-2230q2 -115 43 -210q58 -134 191 -134q56 0 131 27q248 90 468 390q252 347 456 954 q124 378 199 710.5t106 524.5v294h-284v40h877v-40h-431q40 0 66 -30q47 -52 67 -164q13 -74 14 -129v-2579h284v-40h-430q-58 4 -101 40q-62 53 -62 132v2257q-102 -530 -267 -1029q-206 -612 -461 -964q-325 -444 -711 -444z" glyph-name="uniE033" horiz-adv-x="2879" unicode=""/><glyph d="M-1690 -1338l-7 39q454 83 878 351.5t815 667.5t747 872t674.5 964t596.5 944q168 271 318 508q-207 -28 -412 -28q-319 0 -582 87q-44 14 -86 36.5t-71 60.5l14 5l27 8q54 -51 129 -72q255 -85 569 -85q219 0 440 32q209 330 390 575q245 330 562 503l-10 1l-21 3 q-71 10 -146 23q-273 50 -539 109q-232 52 -469 96.5t-477 66.5v-8q0 -171 -43 -349q-71 -269 -186.5 -465.5t-199.5 -282.5q-96 -103 -215 -161q-115 -54 -228 -54q-17 0 -33 1q-190 16 -329 176q-145 176 -145 391l1 38q19 204 159 382q307 384 969 384q71 0 210 -8 q-18 445 -339 825l31 26q329 -390 347 -855q243 -21 482.5 -66.5t472.5 -97.5q266 -59 537 -108q77 -14 152 -24l38 -6l44 -5l22 10q151 70 314 104l18 -46q-35 -8 -70 -22q-42 -16 -98 -66q139 -11 269 -11q400 0 715 107l62 22q44 17 86 36l16 -37q-194 -84 -400 -124 q-221 -44 -481 -44q-147 0 -306 14q-131 -132 -313.5 -386.5t-405.5 -595.5q171 30 361 56q232 31 436 31q383 0 672 -122l-16 -36q-221 90 -457 109q-103 9 -208 9q-309 0 -781 -87l-11 -1q-11 -2 -26 -5l-302 -465q-302 -469 -636 -969.5t-679 -965.5 q-852 -1146 -1439 -1448l-139 -74q-139 -74 -354 -175q-534 -251 -902 -316q-6 0 -12 -2zM770 3150q227 0 422 201q81 84 194 275.5t183 455.5q42 175 42 342v8l-38 3q-91 6 -174 6q-373 0 -621 -121q-200 -96 -324 -258.5t-142 -349.5l-1 -36q0 -200 135 -364 q128 -147 302 -162h22z" glyph-name="uniE034" horiz-adv-x="4562" unicode=""/><glyph d="M285 -2085q-412 0 -836 101q-437 58 -729 308q-189 162 -276 372l37 15q82 -197 253 -347q200 -177 483 -259l373 -63q76 -5 158 -5q139 0 292 15q386 38 777 154l329 112q310 117 618 282l235 133q276 165 546 366l567 469q550 506 1083 1104t950 1117l236 290 q252 315 572 691l-60 -1q-382 0 -733 116q-279 96 -589.5 248.5t-643.5 332.5q-295 158 -590 306t-578.5 260.5t-542.5 161.5q-146 27 -306.5 47.5t-327.5 20.5q-461 0 -790 -192q-208 -120 -334 -301q-74 -108 -111.5 -230t-37.5 -245q0 -112 31.5 -217t95.5 -192l-32 -24 q-136 188 -136 435q5 274 157 496q84 121 204 216q190 184 466 298q328 135 747 135q282 0 629 -71q740 -150 1684 -673q1140 -629 2005 -690q540 612 1065 1064q78 69 160.5 126.5t178.5 89.5q73 23 144 23q73 0 137 -23t111 -68q51 -51 73.5 -116.5t22.5 -132.5 q0 -79 -26 -150q-41 -106 -110.5 -187t-138.5 -140q-261 -229 -577.5 -393.5t-658.5 -249.5q-65 -16 -128 -29q-546 -646 -1408 -1713q-852 -1055 -1638 -1765t-1544.5 -1069t-1537.5 -359zM6568 3003q354 26 622 137q302 157 561 383q63 54 126.5 127t103.5 165q9 38 9 85 q0 166 -141 166q-92 0 -243 -75q-175 -87 -426 -328.5t-612 -659.5z" glyph-name="uniE035" horiz-adv-x="7938" unicode=""/><glyph d="M10591 -663q-420 0 -901 108q-120 27 -305 96.5t-424 165.5q-253 102 -557 218q-717 273 -1364 435q-824 206 -1537 206q-328 0 -652 -48.5t-635 -157.5t-603 -288l-119 -73q378 422 657.5 706t589.5 582q344 329 741 739q-259 74 -513 165q-425 155 -783.5 326 t-667.5 333q-333 174 -635 314t-605 222q-298 78 -607 78q-321 0 -600 -89l-176 -70q-220 -99 -396 -280q-173 -181 -263.5 -416.5t-90.5 -483.5q0 -242 91 -472q149 -346 462 -561t690 -229l-1 -40q-381 11 -712 236q-329 228 -476 579q-94 233 -94 487q0 129 25 260 q35 184 115 346q223 508 624 740q363 210 857 210q279 0 569 -60q540 -111 1112 -377q1210 -653 2272 -1008q105 111 214 234q309 351 643.5 689t724.5 612q416 285 852 421q362 113 707 113q247 0 466 -59q296 -78 474 -279q167 -195 193 -485q4 -44 4 -88q0 -221 -84 -442 q-145 -373 -478 -663q-313 -266 -720 -408q-462 -162 -1094 -162q-252 0 -539 25q-796 71 -1516 270q-407 -421 -757 -755q-240 -231 -500 -492t-564 -594q179 101 371 177q50 26 168.5 76t298.5 110.5t414 115.5t515.5 91.5t601.5 36.5q260 0 543.5 -31t584.5 -102 t616 -190l322 -123q449 -172 834 -314t717 -244.5t621 -159t548 -56.5q290 0 553 78.5t517 248.5l1 2l31 -26q-174 -198 -394.5 -313.5t-470 -164t-506.5 -48.5zM7958 1775q361 31 662 130q261 105 451.5 275t314 373t183.5 408t60 375q0 156 -48 265q-46 101 -158 197.5 t-274 175t-360 125.5t-414 47q-206 0 -419 -51q-342 -131 -672 -357q-387 -272 -720 -608.5t-641 -686.5q-104 -116 -202 -221q564 -186 1004 -282t750 -130t483 -35z" glyph-name="uniE036" horiz-adv-x="10152" unicode=""/><glyph d="M1626 -687q-120 0 -239 15q-464 61 -835 345q-386 303 -502 731l39 10q74 -272 262 -493.5t457 -366.5t584 -186q4 -1 12 -1q168 0 401.5 62t532.5 226t661 465t784.5 776t903.5 1161q485 688 885 1122q-784 56 -1528 322q-478 171 -912 421l20 35q560 -322 1183 -508.5 t1273 -230.5q337 362 611.5 579.5t485 326.5t354.5 145q66 21 138 30q29 4 60 4l30 -1q38 0 57 -3l19 -3l-4 -1q100 -16 188 -64q173 -97 217 -266q11 -48 11 -94q0 -85 -31.5 -162.5t-82.5 -142t-112 -110.5q-116 -84 -253.5 -128t-277.5 -69q-492 -92 -1000 -95l-156 1 q-222 -277 -426 -568.5t-400 -584.5q-210 -315 -431 -629q-211 -299 -439 -577q-896 -1092 -1886 -1392q-334 -101 -654 -101zM5999 3205q510 0 1011 93q137 24 270.5 67t244.5 123q57 43 104.5 103t77 131.5t29.5 148.5q0 42 -10 84q-43 150 -179.5 229t-282.5 79 q-32 0 -62 -4q-173 -25 -321.5 -115t-271.5 -198q-389 -336 -714 -740z" glyph-name="uniE037" horiz-adv-x="7688" unicode=""/><glyph d="M859 -8h-9q-255 0 -495 148q-242 157 -352 408q-71 168 -71 350q0 91 18 185q57 283 249 478q113 109 248 184.5t274 139.5l855 404q-20 342 -145.5 496t-411.5 154q-63 0 -144 -20q-132 -48 -212.5 -158t-121 -233t-53.5 -213l-14 -90h-238q15 159 80 290.5t170 231.5v1 q148 142 350 201v1q109 31 227 31q151 0 287 -51h1q128 -48 232 -133q2 0 42 -34q113 -100 193 -268q75 -162 75 -344v-2111h285v-40h-431q-69 6 -115.5 54.5t-46.5 117.5l-2 1014q-3 1012 -5 1060l-563 -267q-83 -40 -210.5 -130.5t-253 -235.5t-199.5 -348 q-57 -154 -57 -344q0 -61 6 -125q38 -321 152.5 -484.5t261.5 -214.5q110 -37 215 -37q165 0 296 62q58 29 112 66q0 -3 19 -35q-125 -82 -236 -116q-148 -45 -262 -45z" glyph-name="uniE045" horiz-adv-x="2227" unicode=""/><glyph d="M1718 -2q-266 0 -509 119q-140 68 -261 170l22 35q286 -245 661 -280q28 -3 56 -3q202 0 378.5 114t309.5 314.5t209 465.5t76 567t-76 566.5t-209 464.5t-309.5 313.5t-378.5 113.5l-62 -3q-314 -30 -569 -212.5t-413 -476.5v-2224h284v-40h-877v40h284v4121h-284v40 h877v-40h-431q42 0 69.5 -33.5t43 -81.5t23 -96.5t9.5 -82.5l2 -33v-1488q66 112 151 210q181 208 415 322q243 119 509 119q264 0 508 -119q234 -114 415 -322q185 -214 283 -486.5t98 -573.5q0 -300 -98 -572.5t-283 -486.5q-181 -208 -415 -322q-244 -119 -508 -119z" glyph-name="uniE046" horiz-adv-x="2986" unicode=""/><glyph d="M1269 0q-265 0 -509 118q-234 115 -415 323q-185 214 -283 486.5t-98 572.5q0 301 98 573.5t283 486.5q180 207 415 322q244 119 509 119t508 -119q234 -114 415 -322q85 -98 152 -210v1815h-285v40h877v-40h-431q43 0 70 -33.5t43 -82t23 -96.5t9 -81l2 -34v-3794h284 v-40h-877v40h285v2224q-144 258 -317 401.5t-332 205.5q-221 85 -366 85l-5 -1l-25 1q-202 0 -378 -113.5t-309.5 -313.5t-209 -464.5t-75.5 -566.5t75.5 -567t209 -465.5t309.5 -314.5t378 -114q14 0 27 1l13 1l17 1q374 35 661 280l21 -35q-121 -102 -261 -171 q-243 -118 -508 -118z" glyph-name="uniE047" horiz-adv-x="2986" unicode=""/><glyph d="M1343 -17q-280 0 -537 119q-248 116 -439 326q-196 217 -299.5 492.5t-103.5 578.5q0 304 103.5 579.5t299.5 492.5q191 210 438 325t516 119v1h14q228 -4 402.5 -63.5t303 -158t217.5 -218.5q82 -104 168.5 -294t123.5 -442l5 -40h-1839v40h1535q-43 461 -218 730 q-73 111 -133 167q-67 62 -88 72l-7 6q-150 103 -277 133q-120 28 -178 28q-15 0 -29 -1h-4q-208 -9 -387 -126t-314.5 -318.5t-212.5 -466t-77 -565.5q0 -294 73.5 -553.5t203.5 -459.5t302 -320.5t373 -140.5l81 -2l49 2q232 24 425 179.5t325 410.5l245 -86 q-76 -104 -205.5 -220t-317.5 -207q-257 -119 -537 -119z" glyph-name="uniE048" horiz-adv-x="2549" unicode=""/><glyph d="M267 -1542q-146 0 -270 76q-92 57 -136 116q-86 116 -86 240q0 80 37 158t111 145q89 85 230.5 130t423.5 56q128 6 210 14q388 42 514 237q80 185 144 375h-1q0 2 -1066 2936h-258v40h877v-40h-431q42 0 80.5 -33.5t71 -82t56.5 -97t38 -82.5l13 -33l783 -2155l902 2483 h-415v40h877v-40h-420l-1074 -2963q-162 -482 -427 -917q-69 -118 -161 -237t-215 -213q-210 -153 -408 -153zM467 -1426q80 0 153 47l31 22q119 91 208.5 207.5t157.5 231.5q128 208 231 430q-154 -126 -457 -159q-83 -8 -213 -14q-143 -3 -287 -24q-5 0 -36 -11.5 t-69 -38.5q-98 -68 -98 -192q0 -88 54 -198q68 -134 129 -204l20 -20q44 -42 84 -61q37 -16 92 -16z" glyph-name="uniE049" horiz-adv-x="3022" unicode=""/></font>
</defs>
</svg>
