<?xml version="1.0" standalone="no"?>
<!DOCTYPE svg PUBLIC "-//W3C//DTD SVG 1.1//EN" "http://www.w3.org/Graphics/SVG/1.1/DTD/svg11.dtd">
<svg version="1.1" xmlns="http://www.w3.org/2000/svg" xmlns:xlink="http://www.w3.org/1999/xlink"><metadata>This SVG WebFont was generated by YouWorkForThem.
</metadata><defs><font horiz-adv-x="2986" id="ywftsvg"><font-face ascent="3276" bbox="-1975 -2085 11933 7158" cap-height="4201" descent="-820" font-family="" font-stretch="normal" font-weight="400" panose-1="2 0 6 0 0 0 0 9 0 0" underline-position="0" underline-thickness="0" unicode-range="U+0020-E049" units-per-em="4096" x-height="2975"/><missing-glyph horiz-adv-x="1024"/><glyph d="M4880 0h-877l8 40h264l-128 834h-705l129 -834h284l-8 -40h-877l8 40h264l-128 834h-1077l-483 -834h414l-8 -40h-877l8 40h420l484 834h-991l-483 -834h414l-8 -40h-877l8 40h420l2410 4161h42l208 -1351l783 1351h42l641 -4161h284zM2018 914l861 1487l-208 1352 l-1644 -2839h991zM3108 914l-220 1429l-828 -1429h1048zM4141 914l-437 2839l-557 -961l289 -1878h705z" glyph-name="uniE000" horiz-adv-x="4930" unicode="AA"/><glyph d="M2590 -17q-154 0 -298 26q-155 -26 -309 -26q-392 0 -719 167q-313 161 -518.5 454t-271.5 673q-29 168 -29 343q0 234 52 481q92 430 327 823q228 380 558 673t711 454q398 167 790 167q154 0 298 -26q155 26 309 26q393 0 719 -167q359 -185 577 -543l-211 -190 q-126 371 -381 597.5t-615 259.5q-48 3 -97 3q-99 0 -181 -12q158 -41 301 -115q359 -185 577 -543l-212 -190q-106 317 -309.5 530t-487.5 292q-386 -98 -733 -387t-603 -716t-368 -936q-61 -297 -61 -567q0 -192 52.5 -494.5t276.5 -591.5t569 -387q344 86 658.5 327 t563.5 599l174 -171q-101 -111 -215 -212q-330 -293 -712 -454q-174 -74 -349 -115q76 -12 176 -12q49 0 98 3q400 36 773.5 291.5t662.5 669.5l174 -171q-412 -448 -927 -666q-398 -167 -790 -167zM1991 23q49 0 98 3h1q41 3 82 9q-158 41 -301 115q-313 161 -518.5 454 t-271.5 673q-29 168 -29 343q0 234 52 481q92 430 327 823q228 380 558 673t712 454q174 74 349 115q-38 6 -78 9h-1q-48 3 -97 3t-98 -3h-1q-424 -39 -816.5 -322t-684.5 -738.5t-415 -1013.5q-61 -300 -61 -571q0 -232 71.5 -565.5t344 -616.5t679.5 -322h2q47 -3 96 -3z " glyph-name="uniE001" horiz-adv-x="4183" unicode="CC"/><glyph d="M1983 -17q-393 0 -719 167q-313 161 -518.5 454t-271.5 673q-29 168 -29 343q0 234 52 481q92 430 327 823q227 380 557.5 673t711.5 454q397 167 790 167q392 0 719 -167q313 -161 518 -454q31 -43 58 -89l-211 -190q-125 371 -380.5 597.5t-614.5 259.5h-1q-48 3 -97 3 t-98 -3h-1q-424 -39 -816.5 -322t-684.5 -738.5t-415 -1013.5q-61 -300 -61 -571q0 -232 71.5 -565.5t343.5 -616.5t680 -322h1q48 -3 97 -3t98 3h1q400 36 773 291.5t662 669.5l174 -171q-413 -449 -927 -666q-397 -167 -789 -167zM4789 0h-877l9 40h284l504 2374h-1998 l-445 -2094h284l-9 -40h-877l9 40h284l506 2381q6 25 256 1204h-284l8 40h877l-8 -40h-431q74 0 88 -115q4 -35 4 -69q0 -56 -9 -110l-6 -33l-239 -1124h1999l363 1707h-284l8 40h877l-9 -40h-431q92 0 92 -180q0 -16 -2 -48.5t-7 -65.5l-5 -33l-807 -3794h284z" glyph-name="uniE002" horiz-adv-x="4839" unicode="CH"/><glyph d="M2903 -17q-235 0 -448 60q-238 -60 -473 -60q-392 0 -718 167q-313 161 -518.5 454t-272.5 673q-29 168 -29 343q0 234 52 481q92 430 327 823q228 380 558 673t712 454q397 167 790 167q235 0 447 -60q238 60 473 60q392 0 719 -167q313 -161 518 -454q31 -43 58 -89 l-211 -190q-125 371 -380.5 597.5t-614.5 259.5h-1q-48 3 -97 3t-98 -3h1h-2q-133 -11 -266 -49q89 -32 172 -75q313 -161 519 -454q31 -43 58 -89l-211 -190q-92 274 -258 471.5t-394 299.5q-353 -134 -665 -423t-540 -691.5t-331 -873.5q-62 -297 -62 -565 q0 -160 39.5 -436t228 -565t485.5 -423q510 196 917 692l200 942l9 34q9 33 27 81.5t44 97t60.5 82t76.5 33.5h-1539l9 40h2905l-9 -40h-284l-267 -1258q0 -1 -1 -1q-101 -111 -214 -211q-330 -294 -712 -454q-397 -167 -789 -167zM1991 23q49 0 98 3h1q134 11 266 49 q-429 156 -691 529q-205 293 -271 673q-29 168 -29 343q0 234 52 481q92 430 327 823q228 380 558 673t711 454q102 43 205 75q-117 38 -246 49h-1q-48 3 -97 3t-98 -3h-1q-425 -39 -817 -322t-684 -738.5t-415 -1013.5q-61 -300 -61 -571q0 -232 71.5 -565.5t343.5 -616.5 t680 -322h1q48 -3 97 -3zM2911 23q49 0 98 3h1q353 31 687 236t610 542l201 942l9 34q9 33 26.5 81.5t43.5 97t60.5 82t76.5 33.5h-758l-268 -1257l1 -1l-1 -1q-177 -194 -383 -350q-354 -267 -747 -390q116 -38 245 -49h1q48 -3 97 -3z" glyph-name="uniE003" horiz-adv-x="4779" unicode="GG"/><glyph d="M4958 0h-877l8 40h264l-128 834h-2110l-376 -650h414l-8 -40h-877l8 40h420l2303 3977h42l641 -4161h284zM4219 914l-437 2839l-1644 -2839h2081zM2592 0h-2542l9 40h284l876 4121h-284l8 40h877l-8 -40h-431q91 0 91 -176q0 -18 -2 -51.5t-7 -66.5l-5 -33l-806 -3794 h1949z" glyph-name="uniE004" horiz-adv-x="5008" unicode="LA"/><glyph d="M2592 0h-2542l9 40h284l876 4121h-285l9 40h877l-9 -40h-431q92 0 92 -180q0 -16 -2 -48.5t-7 -65.5l-5 -33l-807 -3794h1949zM2688 451h-1419l9 40h284l780 3670h-284l9 40h1418l-9 -40h-964q39 -5 58 -39q26 -48 26 -135q0 -21 -2.5 -55t-7.5 -66l-5 -32l-312 -1468 h826l-9 -40h-825l-390 -1835h825z" glyph-name="uniE005" horiz-adv-x="2642" unicode="LE"/><glyph d="M2592 0h-2542l9 40h284l876 4121h-284l8 40h877l-8 -40h-431q91 0 91 -176q0 -18 -2 -51.5t-7 -66.5l-5 -33l-807 -3794h1950zM2688 451h-1418l8 40h284l780 3670h-284l9 40h877l-9 -40h-431q49 0 72 -51q18 -43 20 -111v-29l-3 -53l-1 -4q-5 -50 -9 -71l-712 -3351h825z " glyph-name="uniE006" horiz-adv-x="2642" unicode="LL"/><glyph d="M4919 -17q-392 0 -719 167q-313 161 -519 454q-39 56 -73 116q-60 -60 -124 -116q-330 -293 -712 -454q-397 -167 -789 -167q-393 0 -719 167q-313 161 -518.5 454t-271.5 673q-29 168 -29 343q0 234 52 481q92 430 327 823q228 380 558 673t711 454q397 167 790 167 q392 0 719 -167q313 -161 518 -454q40 -56 74 -116q60 60 124 116q330 293 712 454q397 167 789 167t719 -167q313 -161 518.5 -454t271.5 -673q29 -168 29 -343q0 -234 -52 -480q-92 -431 -327 -824q-228 -380 -558 -673t-711 -454q-398 -167 -790 -167zM1991 23q49 0 98 3 h1q391 35 756.5 280t652.5 644q-118 310 -118 670q0 234 52 481q92 430 327 823q103 172 228 327q-117 399 -379 644t-637 280h-1q-48 3 -97 3t-98 -3h-1q-424 -39 -816.5 -322t-684.5 -738.5t-415 -1013.5q-61 -300 -61 -571q0 -232 71.5 -565.5t343.5 -616.5t680 -322h1 q48 -3 97 -3zM3741 1350q179 352 266 751q61 292 61 560q0 97 -8 190q-178 -352 -265 -750q-62 -296 -62 -566q0 -94 8 -185zM4928 23q49 0 97 3h1q425 39 817.5 322t684.5 738.5t415 1014.5q61 300 61 570q0 233 -71.5 566t-344 616t-680.5 322h-1q-47 3 -96 3t-98 -3h-2 q-390 -35 -755.5 -280t-652.5 -644q118 -310 118 -670q0 -234 -52 -480q-92 -431 -327 -824q-103 -172 -228 -327q117 -399 378.5 -643.5t637.5 -280.5h1q47 -3 97 -3z" glyph-name="uniE007" horiz-adv-x="6909" unicode="OO"/><glyph d="M5984 -701l-536 760q-266 -76 -530 -76q-392 0 -718 167q-313 161 -519 454q-40 56 -74 116q-376 -376 -835 -570q-398 -167 -790 -167t-719 167q-313 161 -518.5 454t-271.5 673q-29 168 -29 343q0 234 52 481q92 430 327 823q228 380 558 673t712 454q397 167 789 167 q393 0 719 -167q372 -191 593 -570q377 377 835 570q397 167 790 167q392 0 718 -167q313 -161 518.5 -454t272.5 -673q29 -167 29 -341q0 -235 -53 -482q-91 -431 -327 -824q-227 -380 -557 -673t-712 -454q-107 -45 -215 -78l527 -746zM1991 23q49 0 98 3 q391 35 756.5 280t652.5 644q-118 310 -118 668q0 235 53 483q91 430 327 823q103 172 228 327q-118 399 -379.5 644t-637.5 280q-48 3 -97 3t-98 -3h-1q-425 -39 -817.5 -322t-684.5 -738.5t-415 -1013.5q-61 -300 -61 -571q0 -232 72 -565.5t344 -616.5t680 -322h1 q48 -3 97 -3zM3741 1350q179 352 265 751q62 295 62 565q0 94 -8 185q-179 -352 -265 -750q-62 -296 -62 -566q0 -94 8 -185zM4927 23q49 0 98 3h1q193 16 384 88l-277 391l36 27l283 -402q344 142 646 430.5t523 683.5t321 857q62 300 62 570q0 233 -72 566t-344.5 616 t-679.5 322h-1q-48 3 -97 3t-98 -3h-1q-391 -35 -756.5 -280t-652.5 -644q118 -310 118 -670q0 -234 -52 -480q-92 -431 -327 -824q-103 -172 -228 -327q118 -399 379.5 -643.5t636.5 -280.5h1q48 -3 97 -3z" glyph-name="uniE008" horiz-adv-x="6908" unicode="OQ"/><glyph d="M2745 -4q-265 0 -483 118q-210 115 -346 323q-64 98 -108 209l-128 -606h284l-9 -40h-877l9 40h284l721 3391q-48 -42 -98 -81q-239 -186 -433 -283q-212 -104 -393 -123q-21 -3 -41 -3h-1q40 -4 59 -37q28 -50 28 -142q0 -18 -2 -50.5t-7 -65.5l-6 -33l-547 -2573h285 l-9 -40h-877l9 40h284l616 2901h-284l9 40h415v1q222 0 477 135q193 101 396 262q318 248 528 593q63 103 105 197q75 166 75 303q0 52 -24.5 154.5t-182.5 186.5q-122 61 -287 61q-8 0 -100 -1.5t-276.5 -80.5t-337.5 -242q-205 -224 -319 -491t-125 -539q40 63 104 101.5 t135 38.5q93 0 144 -64q37 -49 37 -114q0 -22 -4 -46q-23 -96 -101.5 -160.5t-171.5 -64.5q-82 0 -132 50.5t-50 129.5q-2 36 -2 73q0 260 100 530q122 321 357 580q223 238 538 316q114 25 216 25q165 0 299 -66q168 -89 211 -262q13 -53 13 -111q0 -126 -61 -275l-28 -63 q-60 -125 -137 -243q-3 -28 -6 -44l-3 -17l-316 -1488q90 112 196 210q225 208 483 322q268 119 534 119q265 0 483 -119q210 -114 347 -322q194 -306 194 -695q0 -174 -39 -365q-137 -617 -606 -1059q-225 -208 -483 -323q-269 -118 -534 -118zM2715 36l9 1 q201 0 401.5 114t376.5 314.5t307.5 464.5t196.5 568q49 234 49 444q0 63 -11.5 225t-102.5 362t-243.5 313.5t-353.5 113.5l-63 -3q-320 -30 -613.5 -212.5t-515.5 -476.5l-326 -1535q89 -259 232 -403t292 -205q202 -85 365 -85z" glyph-name="uniE038" horiz-adv-x="4014" unicode="ib"/><glyph d="M3858 0h-877l8 40h285l541 2548q11 57 11 126q0 146 -87 199q-33 19 -83 19q-60 0 -138 -27q-268 -89 -551 -390q-326 -347 -659 -953q-204 -378 -349.5 -711t-217.5 -525l-61 -286h284l-9 -40h-877l9 40h284l721 3392q-48 -42 -98 -81q-238 -186 -433 -283 q-237 -116 -432 -126h-3q72 -7 84 -119q3 -30 3 -60q0 -18 -2 -50.5t-7 -65.5l-5 -33l-547 -2573h284l-9 -40h-877l9 40h284l617 2901h-285l9 40h415v1q123 0 243.5 37.5t233.5 97t213.5 128.5t183.5 134q68 53 132 112q233 215 395 481h1q52 87 95 176q1 2 3 7t5.5 13t8 17 t6.5 15v1h1q61 148 61 269q0 53 -24.5 156t-183.5 187q-121 61 -287 61q-8 0 -99.5 -1.5t-276 -80.5t-338.5 -242q-204 -224 -318.5 -491t-124.5 -539q39 63 103 101.5t135 38.5q93 0 144 -64q38 -48 38 -112q0 -23 -5 -48q-23 -96 -101 -160.5t-172 -64.5q-81 0 -131 50.5 t-51 129.5q-2 36 -2 73q0 260 100 530q122 321 357 580q224 238 538 316q114 25 216 25q165 0 300 -66q167 -88 211 -262q12 -52 12 -109q0 -127 -61 -277l-17 -40q-69 -146 -148 -266l-9 -62l-699 -3288q212 525 486 1028q336 613 666 964q420 444 805 444q88 0 150 -22 q92 -32 139 -91q81 -102 83 -249q0 -59 -4 -88l-530 -2492h284z" glyph-name="uniE039" horiz-adv-x="3908" unicode="ih"/><glyph d="M3589 0h-358l-689 1821q-265 -373 -460 -725t-301 -581l-101 -475h284l-8 -40h-877l8 40h284l721 3391q-48 -42 -98 -81q-239 -186 -433 -283q-233 -115 -432 -126h-3q72 -7 84 -119q3 -30 3 -60q0 -18 -2 -50.5t-7 -65.5l-5 -33l-547 -2573h284l-9 -40h-877l9 40h284 l617 2901h-285l9 40h415v1q123 0 244 38q216 67 447 225q190 131 315 246q233 215 395 481q53 87 96 176v1q8 11 38 86.5t43 182.5q3 26 3 52q0 81 -36 174.5t-171 168.5q-121 61 -287 61q-8 0 -100 -1.5t-276 -80.5t-338 -242q-204 -224 -318.5 -491t-124.5 -539 q39 63 103 101.5t135 38.5q93 0 144 -64q38 -48 38 -112q0 -23 -5 -48q-23 -96 -101.5 -160.5t-171.5 -64.5q-81 0 -131 50.5t-51 129.5q-2 36 -2 73q0 260 100 530q122 321 357 580q224 238 538 316q114 25 216 25q165 0 300 -66q167 -89 210 -262q13 -53 13 -111 q0 -126 -61 -275l-19 -46q-60 -130 -146 -260q-3 -28 -6 -44l-3 -17l-673 -3167q116 237 296 550.5t411 635.5q122 167 243 310q702 824 1358 824q89 0 176 -15l-63 -297l-61 21q-62 21 -163.5 42t-224.5 26l-35 1q-107 0 -225 -27.5t-230 -108.5q-209 -164 -351 -318 t-159 -179l-1 -1z" glyph-name="uniE040" horiz-adv-x="3768" unicode="ik"/><glyph d="M1955 0h-877l8 40h285l721 3392q-48 -42 -99 -81q-238 -186 -433 -283q-218 -108 -405 -124q-14 -2 -28 -2h-1q86 -9 86 -179q0 -18 -2 -50.5t-7 -65.5l-5 -33l-547 -2573h284l-8 -40h-877l8 40h285l616 2901h-284l8 40h416v1q122 0 243 38q217 67 448 225 q186 128 314 246q234 215 396 481q53 87 95 176q8 16 11 25l13 28q61 149 61 271q0 52 -24.5 154.5t-183.5 186.5q-121 61 -286 61q-8 0 -100 -1.5t-276.5 -80.5t-337.5 -242q-205 -224 -319.5 -491t-124.5 -539q40 63 104 101.5t134 38.5q94 0 144 -64q38 -48 38 -112 q0 -23 -5 -48q-22 -96 -100.5 -160.5t-171.5 -64.5q-82 0 -132 50.5t-50 129.5q-2 36 -2 73q0 260 100 530q121 321 357 580q223 238 538 316q113 25 215 25q165 0 300 -66q168 -89 211 -262q13 -52 13 -110q0 -126 -61 -276q0 -1 -1 -1q-4 -8 -8 -19q-14 -33 -19 -43 q-60 -125 -137 -243l-9 -62l-807 -3794h284z" glyph-name="uniE041" horiz-adv-x="2005" unicode="il"/><glyph d="M1767 0q-82 0 -149 28q-118 45 -175 137q-42 67 -42 147q0 32 7 66l545 2563h-296l9 40h296l39 184l-5 -3q-211 -124 -461 -180l-6 -1q-147 -32 -304 -40q-41 -3 -84 -3q61 -18 70 -127l2 -46q0 -23 -2.5 -57t-7.5 -64l-5 -31l-547 -2573h284l-8 -40h-877l9 40h284 l616 2901h-284l9 40h554q415 22 743 214l30 18q265 163 474 388q224 246 275 459q12 52 12 99q0 142 -109 235q-117 98 -348 98q-256 0 -543 -139q-365 -176 -620 -581q-61 -95 -102 -222q41 50 98 80t119 30q93 0 144 -64q37 -49 37 -114q0 -23 -4 -47 q-23 -95 -101.5 -159.5t-171.5 -64.5q-70 0 -117.5 38t-60.5 101l-2 -1q-4 27 -4 55q0 169 131 383q150 237 318.5 382t323.5 219.5t263 101.5q159 42 304 42q47 0 92 -4q178 -20 274 -101q119 -104 119 -260q0 -51 -13 -108q-53 -225 -286 -481q-68 -74 -146 -144l-97 -453 h468l-8 -40h-468l-535 -2516q-15 -63 -25 -151q-3 -29 -3 -55q0 -57 17.5 -115t96.5 -62q21 2 42 6q50 15 87 54t61 83t36 76l12 32l95 -128q-77 -76 -176 -120.5t-203 -44.5z" glyph-name="uniE042" horiz-adv-x="2161" unicode="it"/><glyph d="M1456 -943q-111 0 -177 42t-98.5 110t-40.5 150q-3 38 -3 76q0 154 50 328l3 18q38 151 149 286q101 126 222 214t367 213q-244 97 -411 290q-158 184 -211 418q-27 117 -27 241q0 123 27 253q120 532 599 913q236 183 507.5 280t547.5 97q295 0 540 -112 q214 -97 355 -265q236 -285 236 -654q0 -124 -27 -259q-120 -532 -597 -912q-237 -184 -508.5 -281t-547.5 -97q-234 0 -437 71q-262 -132 -383.5 -219t-221.5 -213q-106 -126 -142 -281q-10 -44 -10 -85q0 -81 40 -148q40 -59 105 -85.5t143 -26.5q281 0 574 278 q96 91 186 187q85 90 176 177q206 194 430 309q266 138 505 138q113 0 217.5 -35t185.5 -101q179 -148 179 -372q0 -57 -12 -113q-30 -140 -125 -277q-125 -179 -312 -299q-74 -48 -184 -103q-270 -135 -515 -135q-41 0 -80 4q-93 9 -178.5 29.5t-180.5 65.5 q-111 52 -267 157q-86 -81 -185 -142t-214 -95.5t-249 -34.5zM2420 446q22 0 44 1.5t40 1.5q271 29 517.5 200.5t427 443t254.5 602.5q34 166 34 317q0 88 -20.5 242t-123.5 325.5t-267 269t-375 97.5t-416 -97.5t-381 -269t-302.5 -397.5t-183.5 -487q-35 -168 -35 -321 q0 -148 49 -350.5t223 -374t431 -200.5q42 -3 84 -3zM2819 -887q97 0 192 22q121 43 232.5 131t200 239.5t140.5 385.5q26 128 26 223q0 41 -10.5 114.5t-54 133t-89.5 82t-69 24.5l-21 1l-23 -1q-77 -3 -156 -20q-138 -41 -253.5 -135.5t-219 -223t-204.5 -271.5 q-87 -121 -178.5 -238.5t-194.5 -219.5q205 -138 336 -185t269 -58q38 -4 77 -4zM953 1h-877l9 40h284l876 4121l-19 40q-119 264 -119 587q0 182 39 366q48 226 151 436q221 437 622 791t912 562q544 214 1081 214q41 0 81 -1q591 -23 1030 -296q302 -192 496 -483 t266 -645q38 -186 38 -378q0 -175 -31 -355q-6 -36 -14 -71q-53 -249 -169 -497q-130 -280 -327.5 -532t-443.5 -451q-253 -204 -533 -334v1q-43 -18 -88 -18q-86 0 -133 59q-34 44 -34 104q0 20 4 43q21 88 93 147.5t157 59.5q86 0 133 -60q35 -43 35 -102q0 -68 -42 -131 q494 272 842 726.5t466 984.5q44 219 44 421q0 368 -169.5 778t-615.5 698q-232 145 -512.5 218t-587.5 73q-259 0 -526.5 -52.5t-531.5 -157.5q-502 -205 -895.5 -551.5t-610.5 -775.5q-184 -373 -184 -783q0 -319 126 -595q84 -176 217 -305l-4 -39q-4 -23 -810 -3817h284 z" glyph-name="uniE043" horiz-adv-x="4023" unicode="lg"/><glyph d="M451 -939q-103 0 -167 37.5t-98 98t-46 134.5q-8 54 -8 109q0 85 16 180q11 65 23 109l15 56q38 151 149 286q101 126 221.5 214t367.5 214q-245 96 -411 289q-238 286 -238 656q0 124 27 257q120 532 599 912q236 184 507 281t547 97q304 0 553 -118 q110 159 232.5 313.5t275.5 284.5q210 174 469 267q235 83 466 83l36 -1q72 -1 168 -19t188 -67.5t154 -144.5q36 -46 36 -109q0 -23 -5 -48q-22 -96 -100.5 -160.5t-171.5 -64.5t-144 64q-38 48 -38 113q0 23 5 48q22 95 100.5 159.5t171.5 64.5q16 0 30 -2 q-96 74 -208 100t-196 26h-31q-231 0 -468.5 -85t-439.5 -252q-148 -126 -268.5 -277.5t-228.5 -308.5q179 -93 309 -244q237 -284 237 -653q0 -125 -27 -259q-119 -532 -598 -913q-236 -183 -507.5 -280t-547.5 -97q-234 0 -437 70q-262 -132 -383.5 -218.5t-222.5 -212.5 q-63 -76 -104 -168q-46 -105 -46 -202q0 -80 40 -144q58 -84 162 -105q42 -8 86 -8q66 0 162.5 23.5t204.5 93t205 161t187 187.5q85 90 176 177q206 193 429 310q250 128 480 137h20q236 0 409 -135q180 -150 180 -375v-10q-7 -187 -138 -378q-125 -178 -313 -299 q-74 -48 -183.5 -102.5t-241.5 -94t-273 -41.5q-40 0 -80 4q-93 9 -178.5 29.5t-180.5 65.5q-112 52 -267 157q-87 -80 -186 -141.5t-213.5 -96t-249.5 -34.5zM1416 451l84 2q270 30 516.5 201t427.5 442.5t254 603.5q35 167 35 320q0 85 -21 239t-124 325t-266.5 268.5 t-374.5 97.5t-416 -97.5t-381 -268.5t-303 -397.5t-183 -486.5q-35 -170 -35 -324q0 -147 49 -349t222.5 -373t431.5 -201q41 -2 84 -2zM1816 -882q97 0 191 21q121 44 232.5 131.5t200 239t140.5 385.5q26 128 26 222q0 41 -10.5 115t-54 133.5t-89.5 82.5q-53 25 -77 25 q-11 0 -40 -1t-73 -6t-79 -14q-138 -41 -253.5 -135.5t-219 -223t-204.5 -271.5q-87 -121 -178.5 -238.5t-194.5 -219.5q204 -138 336 -185q171 -61 347 -61zM4012 -4h-877l8 40h285l616 2901h-284l8 40h877l-8 -40h-431q74 0 88 -115q4 -35 4 -69q0 -14 -2 -45.5t-7 -64.5 l-6 -34l-547 -2573h284z" glyph-name="uniE044" horiz-adv-x="4063" unicode="gi"/><glyph glyph-name=".notdef" horiz-adv-x="1024"/><glyph glyph-name="glyph1" horiz-adv-x="0"/><glyph glyph-name="glyph2" horiz-adv-x="1365"/><glyph glyph-name="space" horiz-adv-x="1316" unicode=" "/><glyph glyph-name="space" horiz-adv-x="1316" unicode=" "/><glyph d="M400 482h-171l719 3709h309zM210 -10q-67 0 -103 48q-25 34 -25 78q0 19 4 39q18 65 73 109t118 44q65 0 102 -46q27 -34 27 -81q0 -15 -3 -32q-16 -67 -72 -113t-121 -46z" glyph-name="exclam" horiz-adv-x="421" unicode="!"/><glyph d="M1207 3470q-11 0 -13 11l-26 258q0 46 35 83t86 40q51 -2 71 -40q9 -18 9 -38q0 -23 -13 -50l-133 -253q-6 -11 -16 -11zM901 3470q-10 0 -12 11l-26 260q0 45 34.5 81.5t86.5 39.5q51 -2 71 -40q9 -18 9 -38q0 -23 -13 -50l-133 -253q-6 -11 -17 -11z" glyph-name="quotedbl" horiz-adv-x="633" unicode="&quot;"/><glyph d="M2583 -10h-326l641 1160h-1674l-642 -1160h-326l642 1160h-604l9 40h617l996 1801h-728l8 40h742l642 1160h326l-642 -1160h1675l642 1160h326l-642 -1160h603l-8 -40h-617l-997 -1801h729l-9 -40h-742zM2921 1190l996 1801h-1675l-996 -1801h1675z" glyph-name="numbersign" horiz-adv-x="4274" unicode="#"/><glyph d="M1160 -10h-40l127 596q-340 4 -562 129q-185 105 -276 293q-66 139 -66 292q0 54 8 110l7 41q42 192 176 371q151 199 371 322l115 -181l-36 -15q-103 -43 -212 -157q-150 -157 -216 -413q-22 -92 -22 -173q0 -107 49 -224.5t181 -211.5t308 -131q87 -11 183 -11 l331 1557l-152 105q-372 261 -434 524q-15 64 -15 122q0 50 11 96q28 115 86.5 200t112.5 135q117 115 304 175q169 53 361 53h26l127 597h40l-127 -598q286 -13 451 -126q103 -73 148 -179q30 -69 30 -142q0 -38 -8 -76l-7 -28q-15 2 -244 4l13 50q13 66 13 120 q0 88 -43 166t-143 120t-207 50l-12 1l-218 -1028q301 -178 509 -326.5t302 -304.5q65 -109 65 -238q0 -57 -13 -119q-40 -191 -220 -454q-50 -85 -120 -156q-161 -161 -410 -250q-220 -77 -471 -89l-54 -1zM1663 2546l214 1008q-131 0 -230 -17q-97 -22 -168 -55.5 t-111 -62.5l-20 -16q-17 -14 -37 -34q-77 -77 -104 -193q-8 -32 -8 -67q0 -53 23.5 -131.5t125 -189.5t298.5 -232zM1295 627q27 0 52 1q266 13 485 97q261 99 416 285q135 208 135 360q0 100 -64.5 209.5t-242.5 251t-455 329.5z" glyph-name="dollar" horiz-adv-x="2285" unicode="$"/><glyph d="M783 -10h-46l3111 4201h45zM1471 2003q-202 0 -370 87q-160 83 -266 234q-154 228 -154 519q0 121 27 254q101 451 456 773q169 151 366 235q204 86 405 86q202 0 370 -86q161 -84 266 -235q154 -227 154 -519q0 -121 -27 -254q-101 -450 -456 -773q-169 -151 -366 -234 q-204 -87 -405 -87zM1477 2032l47 2q198 20 383.5 165t326 378.5t202.5 519.5q35 169 35 319q0 111 -32 280t-162.5 312t-328.5 154h-38q-202 -11 -393.5 -154t-337 -380.5t-209.5 -530.5q-35 -169 -35 -319q0 -104 29 -269t153 -310t313 -165q23 -2 47 -2zM2695 -10 q-201 0 -369 86q-161 83 -266 235q-154 227 -154 518q0 121 27 254q101 451 455 773q170 152 366 235q205 86 406 86q202 0 370 -86q160 -83 266 -235q153 -227 153 -518q0 -122 -27 -255q-100 -450 -455 -772q-170 -152 -366 -235q-204 -86 -406 -86zM2702 19l47 1 q198 21 383.5 166t325.5 378t203 519q35 169 35 319q0 111 -32 280t-162.5 312t-328.5 154h-38q-202 -11 -393.5 -154t-337 -380.5t-209.5 -530.5q-35 -169 -35 -319q0 -104 29 -268.5t153 -309.5t313 -166q23 -1 47 -1z" glyph-name="percent" horiz-adv-x="3742" unicode="%"/><glyph d="M1625 -16h-13q-464 6 -813 283q-416 347 -416 959q0 386 110 738t328 658q321 450 836 760q-328 795 -334 819l2615 1l-9 -40h-1812q309 -58 577 -199q416 -219 689 -605q257 -367 336 -807q30 -172 30 -339q0 -261 -73 -509q-154 -501 -563 -947l313 -756h-365l-211 504 q-276 -232 -575 -366q-335 -151 -650 -154zM1633 24q315 6 623.5 146t578.5 372q-375 899 -1165 2807q-35 -21 -69 -43q-61 -39 -168.5 -144t-231.5 -293t-235 -477t-179 -696q-49 -313 -49 -559q0 -126 25 -340.5t145.5 -405t295 -276t373.5 -91.5h56zM3097 796 q392 434 540 910q72 249 72 505q0 162 -52.5 457t-308.5 663q-279 393 -694.5 605t-930.5 225h-128q82 0 148 -107q24 -40 33 -63z" glyph-name="ampersand" horiz-adv-x="3476" unicode="&amp;"/><glyph d="M901 3470q-10 0 -12 11l-26 260q0 45 34.5 81.5t86.5 39.5q51 -2 71 -40q9 -18 9 -38q0 -23 -13 -50l-133 -253q-7 -11 -17 -11z" glyph-name="quotesingle" horiz-adv-x="327" unicode="'"/><glyph d="M621 -3q-117 13 -185 179q-91 223 -91 645q0 214 29.5 528.5t120.5 744.5q124 577 299.5 1044.5t364 750t353.5 302.5q-99 -21 -234.5 -303t-279.5 -749.5t-268 -1044.5q-121 -576 -176 -1044q-43 -362 -43 -613q0 -73 10 -246t100 -194z" glyph-name="parenleft" horiz-adv-x="671" unicode="("/><glyph d="M50 -3q98 21 234 303.5t280 750t266.5 1044t176.5 1043.5q43 363 43 613q0 73 -9.5 246t-99.5 194q117 -13 185 -179q91 -222 91 -653q0 -210 -30 -522t-121 -743q-124 -577 -299.5 -1044.5t-364 -749.5t-352.5 -303z" glyph-name="parenright" horiz-adv-x="671" unicode=")"/><glyph d="M1173 3615h-140l88 231l-214 -148l-44 122l236 81l-202 84l97 122l148 -150l12 232h141l-88 -230l214 148l44 -122l-237 -81l202 -84l-96 -122l-149 149z" glyph-name="asterisk" horiz-adv-x="668" unicode="*"/><glyph d="M1135 1408h-182l128 603h-603l39 182h603l128 603h182l-128 -603h603l-39 -182h-603z" glyph-name="plus" horiz-adv-x="1489" unicode="+"/><glyph d="M123 -275l-18 32q56 48 106 102l3 4q45 49 58 81q5 11 5 21t-6.5 19t-21 12t-32 3.5t-32.5 4.5q-61 23 -77 86q-4 17 -4 33q0 48 35.5 102.5t106.5 79.5q29 8 55 8q36 0 77 -22.5t50 -85.5q1 -11 1 -25q0 -29 -15 -83l-20 -50q-21 -50 -74 -128q-32 -48 -79 -97h-1 q-49 -51 -117 -97z" glyph-name="comma" horiz-adv-x="447" unicode=","/><glyph d="M1866 2011h-1388l38 182h1389z" glyph-name="hyphen" horiz-adv-x="1489" unicode="-"/><glyph d="M1866 2011h-1388l38 182h1389z" glyph-name="hyphen" horiz-adv-x="1489" unicode="­"/><glyph d="M213 0q-67 0 -103 48q-25 35 -25 79q0 18 4 38q18 65 73 109t119 44q65 0 101 -46q27 -34 27 -81q0 -15 -3 -32q-16 -67 -72 -113t-121 -46z" glyph-name="period" horiz-adv-x="422" unicode="."/><glyph d="M379 0h-329l2440 4192h332z" glyph-name="slash" horiz-adv-x="1981" unicode="/"/><glyph d="M1403 -22q-277 0 -496 168q-209 162 -334 455q-151 367 -151 820q0 315 73 672q191 869 712 1491q250 294 527 455q291 168 568 168t496 -168q209 -161 334 -455q151 -367 151 -820q0 -315 -73 -671q-192 -870 -712 -1492q-250 -293 -528 -455q-290 -168 -567 -168z M1412 19q206 0 420.5 161.5t411.5 445.5t353.5 658.5t249.5 806.5q93 439 93 841q0 204 -30.5 422.5t-114.5 408.5t-211 295t-292 105q-206 0 -421 -161.5t-411.5 -445.5t-353 -658.5t-249.5 -806.5q-94 -443 -94 -838q0 -205 31 -424.5t115 -409.5t211 -295t292 -105z" glyph-name="zero" horiz-adv-x="2815" unicode="0"/><glyph d="M927 0h-877l9 40h284l806 3793l15 52q14 52 43 117.5t71 113.5l-358 -198l-14 34l450 249h180l-885 -4161h285z" glyph-name="one" horiz-adv-x="977" unicode="1"/><glyph d="M2673 0h-2231q46 140 151 280l22 29q125 157 308 297q171 127 353 233q254 203 523.5 502t496 661t349.5 753q92 315 92 567q0 74 -21.5 260t-169 365t-365.5 214q-46 4 -92 4q-67 0 -136 -8q-200 -37 -352 -153q-269 -205 -443 -567q-70 -146 -103 -243l-33 -98h-314 q75 347 328 625q28 31 58 60q304 296 712 391q151 33 295 33q249 0 476 -99q359 -166 473 -504q45 -141 45 -310q0 -219 -75 -483q-145 -504 -489 -965q-347 -460 -820 -780q-159 -104 -319 -198q-231 -131 -448 -290q-151 -111 -283 -267h2038l60 284h40z" glyph-name="two" horiz-adv-x="2723" unicode="2"/><glyph d="M1378 -19q-389 0 -702.5 156t-502.5 444l344 252q60 -242 191 -423t323 -282.5t431 -101.5q265 0 524 123.5t481 341t382 504.5t232 617q44 215 44 410q0 161 -48.5 398.5t-236.5 458t-472 292.5q-150 28 -306 28l-26 -1l917 813q45 39 110 80q110 70 194 70h-1716l9 40 h2035l-1133 -1005q135 -31 260 -85q281 -124 471 -349.5t259 -517.5q35 -151 35 -310q0 -158 -35 -324q-71 -332 -270 -635q-193 -292 -478.5 -517.5t-620.5 -348.5q-348 -128 -695 -128z" glyph-name="three" horiz-adv-x="3150" unicode="3"/><glyph d="M2710 0h-877l8 40h284l279 1308h-2068l1881 2853h338l-1854 -2813h1711l260 1225l9 33q26 96 71 179q62 115 137 115h-431l8 40h877l-8 -40h-284l-330 -1552h284l-9 -40h-284l-278 -1308h284z" glyph-name="four" horiz-adv-x="2760" unicode="4"/><glyph d="M1087 -4q-563 0 -972 310l30 34v-1h1l219 231q126 -245 340.5 -385.5t499.5 -145.5q165 10 326 46q303 88 570 308.5t460.5 537t275.5 691.5q44 212 44 405q0 145 -41 369.5t-210 445.5t-429 313q-204 52 -431 52q-278 0 -555 -78q-195 -55 -381 -147l23 51 q244 562 490 1123l19 43l1 2h1466l-9 -40h-1300q35 -14 44 -53q5 -23 5 -50q0 -55 -22 -135q-14 -48 -26 -79l-12 -32l-279 -639q272 74 545 74q357 0 659 -127q291 -124 487.5 -348.5t269.5 -516.5q38 -155 38 -318q0 -154 -34 -315q-70 -331 -273 -634 q-197 -291 -489 -516t-635 -348q-357 -128 -715 -128z" glyph-name="five" horiz-adv-x="2905" unicode="5"/><glyph d="M1740 -16q-343 0 -632 127q-278 123 -464.5 346.5t-253.5 514.5q-35 149 -35 306q0 160 35 324q31 145 93 300q167 491 446 958q171 281 365 506q680 781 1573 828l-7 -40q-3 0 -4 -1h-3q-30 0 -143.5 -25t-287.5 -102q-423 -189 -816 -660q-183 -221 -359 -533 q233 162 495 260q343 127 686 127q342 0 631 -127q278 -123 464.5 -347t254.5 -514q34 -149 34 -306q0 -158 -35 -324q-70 -330 -267 -630q-191 -291 -473 -514.5t-612 -346.5q-343 -127 -685 -127zM1803 24q363 22 696 235.5t576.5 563t339.5 779.5q42 205 42 392 q0 208 -74.5 476.5t-321.5 481t-607 227.5l-35 1l-34 -1q-312 -12 -604.5 -169.5t-530 -425.5t-381.5 -611q-61 -176 -117 -371q-42 -206 -42 -393q0 -204 72.5 -470t315 -479.5t596.5 -235.5h109z" glyph-name="six" horiz-adv-x="3486" unicode="6"/><glyph d="M586 -1h-346l2814 3927l21 26q59 76 127.5 136t121.5 71h-2390l9 41l2653 -1z" glyph-name="seven" horiz-adv-x="2754" unicode="7"/><glyph d="M1703 -11q-331 0 -609.5 103.5t-474.5 299.5q-188 190 -262 438q-42 143 -42 294q0 120 26 244q60 281 245 537q178 248 448 438q460 321 1007 388q-245 51 -409 193q-196 178 -196 413q0 59 12 121q71 311 411 533q167 106 361.5 162.5t395.5 56.5t371.5 -56.5 t292.5 -162.5q196 -178 196 -413q0 -58 -12 -120q-72 -312 -411 -534q-230 -145 -504 -195q507 -71 824 -386q189 -190 262 -438q43 -144 43 -296q0 -118 -26 -241q-60 -282 -245 -538q-179 -248 -449 -438q-278 -196 -601 -299.5t-654 -103.5zM1710 31q268 0 524.5 104 t473 287.5t368 425.5t212.5 521q31 153 31 293q0 189 -76.5 419.5t-309 413t-566.5 209.5q-43 2 -86 2q-98 0 -101 -3q-344 -29 -652 -211.5t-528 -474.5t-299 -648q-31 -151 -31 -292q0 -118 35 -294.5t173.5 -360t351 -287.5t480.5 -104zM2304 2749q179 0 346 96 t287.5 256t164.5 358q17 87 17 166q0 103 -41 228t-167 220.5t-305 95.5t-346 -95.5t-287 -255.5t-165 -359q-17 -85 -17 -163q0 -104 41 -229.5t167.5 -221.5t304.5 -96z" glyph-name="eight" horiz-adv-x="3411" unicode="8"/><glyph d="M1509 -6l7 40h4l3 1h2q32 0 143.5 25t285.5 102.5t384 235.5t432 424q183 221 359 533q-233 -162 -495 -260q-343 -127 -685 -127q-343 0 -632 127q-278 123 -464.5 347t-253.5 514q-34 151 -34 308q0 158 34 322q71 330 267 630q191 291 473 514.5t612 346.5 q343 127 685 127q343 0 632 -127q278 -123 464.5 -346.5t253.5 -514.5q35 -149 35 -306q0 -160 -35 -324q-31 -145 -93 -300q-167 -491 -446 -958q-339 -557 -764 -887q-533 -413 -1174 -447zM1992 1008q311 13 603.5 170.5t530 425.5t382.5 611q60 176 116 371 q42 206 42 393q0 204 -72.5 470t-314.5 479.5t-597 234.5l-54 1l-55 -1q-363 -21 -696 -234.5t-576.5 -563t-339.5 -779.5q-42 -205 -42 -392q0 -208 74.5 -476.5t321.5 -481t608 -228.5h69z" glyph-name="nine" horiz-adv-x="3486" unicode="9"/><glyph d="M756 2558q-67 0 -103 49q-25 34 -25 78q0 19 4 39q18 64 73 108.5t118 44.5q65 0 102 -47q27 -34 27 -81q0 -15 -3 -32q-16 -66 -72 -112.5t-121 -46.5zM236 0q-67 0 -103 48q-25 35 -25 79q0 18 4 38q18 65 73 109t119 44q65 0 101 -46q27 -34 27 -81q0 -15 -3 -32 q-16 -67 -72 -113t-121 -46z" glyph-name="colon" horiz-adv-x="445" unicode=":"/><glyph d="M780 2565q-67 0 -103 49q-25 34 -25 78q0 19 4 39q18 65 73 109t118 44q65 0 102 -46q27 -35 27 -81q0 -15 -3 -32q-16 -67 -72 -113.5t-121 -46.5zM122 -275l-18 32q56 48 106 102l3 4q45 49 58 81q5 11 5 21t-6.5 19t-21 12t-32 3.5t-32.5 4.5q-61 23 -77 86 q-4 17 -4 33q0 48 35.5 102.5t106.5 79.5q29 8 55 8q36 0 77 -22.5t50 -85.5q1 -11 1 -25q0 -29 -15 -83l-20 -50q-21 -50 -74 -128q-32 -48 -79 -97h-1q-49 -51 -117 -97z" glyph-name="semicolon" horiz-adv-x="447" unicode=";"/><glyph d="M1961 732l-1457 1402l2053 1402l-84 -397l-1471 -1005l1043 -1005z" glyph-name="less" horiz-adv-x="1855" unicode="&lt;"/><glyph d="M1912 2224h-1389l39 183h1389l-9 -41zM1820 1791h-1389l39 183h1389q-4 -15 -9 -41z" glyph-name="equal" horiz-adv-x="1489" unicode="="/><glyph d="M206 732l84 396l1471 1006l-1044 1005l84 396l1458 -1401z" glyph-name="greater" horiz-adv-x="1855" unicode=">"/><glyph d="M1175 -5q-67 0 -103 48q-25 34 -25 78q0 19 4 39q18 65 73 109t118 44q65 0 102 -46q27 -34 27 -81q0 -15 -3 -32q-16 -67 -72 -113t-121 -46zM1395 880h-40q15 69 34 131q33 146 123.5 275t218 250t271.5 243q169 141 331 298.5t285.5 345t176.5 420.5q50 231 50 444 q0 23 -3.5 151.5t-83 313.5t-245.5 292.5t-433 110.5q-82 -1 -166 -12q-217 -35 -369.5 -136t-250 -231.5t-151.5 -254.5t-74 -207l-21 -84h-297q47 302 311 560q232 217 566 327q244 78 479 78q60 0 236.5 -15t403.5 -159q227 -147 349 -394q105 -221 105 -471 q0 -35 -2 -71q-20 -294 -178 -582q-163 -291 -420 -492q-100 -77 -208.5 -141.5t-216.5 -122.5q-168 -89 -329 -195q-191 -128 -298.5 -287.5t-153.5 -384.5z" glyph-name="question" horiz-adv-x="2622" unicode="?"/><glyph d="M1747 -680q-374 0 -684 159q-298 154 -493 433.5t-258 641.5q-27 159 -27 324q0 225 50 462q87 410 311 785q217 362 531 641.5t677 433.5q378 159 751 159t683 -159q298 -154 494 -433q194 -280 257 -642q28 -160 28 -327q0 -223 -50 -458q-88 -411 -312 -786 q-83 -139 -181 -266q-86 -124 -231 -211q-100 -60 -226 -79q-50 -5 -74 -5q-69 0 -105 38q-62 66 -62 199q0 58 8 108l9 54q-182 -199 -388 -305q-80 -41 -160 -65q-121 -38 -239 -38q-196 0 -355 103q-151 100 -246 281q-124 246 -124 554q0 173 39 366q118 536 476 920 q171 180 365 280q203 103 399 103t355 -103q152 -100 246 -280q7 -12 12 -24l89 416h309l-502 -2360q-7 -32 -7 -59q0 -16 2.5 -37.5t16 -40t43.5 -18.5q27 0 52.5 9.5t38.5 17.5q59 34 107 75t77.5 72t34.5 37q178 229 304.5 492.5t188.5 551.5q49 235 49 454q0 87 -18 277 t-131 437t-299 428.5t-435 282t-547 100.5q-297 0 -588.5 -100.5t-555 -282t-481.5 -428.5t-371.5 -543t-224.5 -625q-49 -234 -49 -451q0 -89 18 -279.5t130.5 -438t299 -429t435 -282t546.5 -100.5q194 0 386 44l12 -37q-204 -47 -406 -47zM2063 19q120 0 240 40 q87 28 171 75q207 116 382 321l354 1665q-87 206 -246.5 321.5t-360.5 115.5q-29 0 -57 -3q-181 -56 -340 -233t-280.5 -442t-190.5 -584q-60 -286 -60 -530q0 -29 5 -177.5t88 -329t239 -237.5q28 -2 56 -2z" glyph-name="at" horiz-adv-x="3782" unicode="@"/><glyph d="M3847 0h-877l8 40h264l-128 834h-2110l-483 -834h414l-8 -40h-877l9 40h419l2410 4161h42l641 -4161h284zM3108 914l-437 2839l-1644 -2839h2081z" glyph-name="A" horiz-adv-x="3896" unicode="A"/><glyph d="M50 0l9 40h284l876 4121h-285l9 40h1768q223 -5 380.5 -114t225.5 -291q41 -110 41 -235q0 -82 -18 -172q-63 -277 -263.5 -484.5t-469.5 -289.5q482 -35 762 -381q215 -282 215 -646q0 -134 -29 -279q-121 -539 -580 -925q-226 -186 -485 -284.5t-521 -98.5zM2374 2617 l13 1q121 8 240 113.5t212.5 279t140.5 386.5q30 149 30 276q0 116 -38.5 267.5t-176.5 213.5q-45 7 -103 7h-1312q92 0 92 -180q0 -16 -2 -48.5t-7 -65.5l-5 -33l-259 -1217h1175zM1827 41q312 18 595.5 189.5t488.5 452t282 625.5q31 154 31 296q0 501 -342 783 q-211 172 -515 190h-1176l-540 -2536h1176z" glyph-name="B" horiz-adv-x="3242" unicode="B"/><glyph d="M1982 -17q-392 0 -718 167q-313 161 -518.5 454t-272.5 673q-29 167 -29 341q0 235 53 482q91 431 327 824q227 380 557 673t712 454q397 167 790 167q392 0 718 -167q313 -161 519 -454q31 -44 58 -89l-211 -190q-125 371 -380.5 597.5t-614.5 259.5h-1q-48 3 -97 3 t-98 -3h-1q-425 -39 -817 -322t-684 -739t-415 -1014q-61 -300 -61 -570q0 -233 71.5 -566t343.5 -616t680 -322h1q48 -3 97 -3t98 3h1q400 36 773 291t662 670l174 -171q-413 -449 -927 -666q-397 -167 -790 -167z" glyph-name="C" horiz-adv-x="3576" unicode="C"/><glyph d="M50 0l9 40h284l876 4121h-284l8 40q599 -2 1199 -2q427 0 782 -165q342 -160 571 -450t308 -667q39 -186 39 -380q0 -214 -47 -437q-91 -427 -339 -817q-240 -376 -591 -667q-353 -290 -763 -450q-428 -165 -852 -165zM1258 41q96 0 191 9q475 122 885.5 417t699.5 715.5 t399 917.5q48 238 48 458q0 240 -83 559.5t-367.5 615t-706.5 417.5q-95 9 -190 9h-735q73 -19 73 -179q0 -20 -2 -52.5t-7 -62.5l-5 -31l-806 -3793h606z" glyph-name="D" horiz-adv-x="3370" unicode="D"/><glyph d="M2592 0h-2542l9 40h284l876 4121h-284l8 40h2542l-8 -40h-2088q38 -5 57 -39q26 -47 26 -142q0 -17 -2 -49.5t-7 -64.5l-5 -32l-360 -1694h1483l-8 -40h-1483l-438 -2060h1949zM1382 4161h-1h1z" glyph-name="E" horiz-adv-x="2642" unicode="E"/><glyph d="M927 0h-877l8 40h285l875 4121h-284l9 40h2542l-9 -40h-2088q84 -11 84 -181q0 -17 -2 -49.5t-7 -64.5l-6 -32l-359 -1694h1483l-9 -40h-1483l-438 -2060h284zM1380 4161z" glyph-name="F" horiz-adv-x="2642" unicode="F"/><glyph d="M1982 -17q-392 0 -718 167q-313 161 -518.5 454t-272.5 673q-29 168 -29 343q0 234 52 480q92 431 327 824q228 380 558 673t712 454q397 167 789 167q393 0 719 -167q313 -161 519 -454q31 -44 58 -89l-211 -190q-125 371 -380.5 597t-614.5 260h-1q-48 3 -97 3t-98 -3 h-1q-425 -40 -817 -322.5t-684 -738.5t-415 -1014q-62 -300 -62 -570q0 -233 72 -566t344 -616t680 -322h1q48 -3 97 -3t98 3h1q352 31 686.5 236t610.5 542l200 942l9 34q9 33 27 81.5t44 97t60 82t77 33.5h-1539l8 40h1985l-8 -40h-285l-267 -1257l1 -1h-1v-1 q-169 -186 -383 -350q-258 -195 -543 -315q-397 -167 -790 -167z" glyph-name="G" horiz-adv-x="3859" unicode="G"/><glyph d="M3234 -1h-877l8 40h285l504 2375h-1998l-505 -2375h284l-8 -40h-877l8 40h284l876 4122h-284l9 40h877l-9 -40l-431 -1q92 0 92 -179q0 -17 -2 -49t-7 -65l-6 -34l-293 -1379h1999l363 1707h-285l9 40h877l-9 -40l-431 -1q43 0 63 -33q29 -48 29 -146q0 -17 -2 -49 t-7 -65l-5 -34l-807 -3794h284z" glyph-name="H" horiz-adv-x="3284" unicode="H"/><glyph d="M927 -1h-877l8 40h285l876 4122h-285l9 40h877l-9 -40l-431 -1q43 0 63 -33q29 -48 29 -146q0 -17 -2 -49t-7 -65l-5 -34l-807 -3794h284z" glyph-name="I" horiz-adv-x="977" unicode="I"/><glyph d="M361 0q-40 0 -90 8t-102 29.5t-98 61.5l171 177l2 -33q2 -34 13.5 -78t39 -80t76.5 -45h2q4 -1 12 -1q4 0 14 1t32.5 15.5t50 51.5t56.5 107.5t58 183.5l800 3762h-284l8 40h877l-8 -40h-431q91 0 91 -176q0 -58 -9 -118l-5 -33q-711 -3347 -736 -3462 q-31 -123 -135 -216t-248 -134q-77 -21 -157 -21z" glyph-name="J" horiz-adv-x="1156" unicode="J"/><glyph d="M3345 -1h-362l-1082 2677l-832 -671l-418 -1966h284l-8 -40h-877l8 40h284l876 4122h-284l9 40h876l-8 -40l-431 -1q92 0 92 -179q0 -17 -2 -49t-7 -65l-6 -34l-376 -1772l2603 2100h-397l9 40h877l-9 -40h-422l-1568 -1264z" glyph-name="K" horiz-adv-x="3395" unicode="K"/><glyph d="M2592 -1h-2542l8 40h284l876 4122h-284l9 40h877l-9 -40l-431 -1q92 0 92 -179q0 -17 -2 -49t-7 -65l-6 -34l-806 -3794h1949z" glyph-name="L" horiz-adv-x="2642" unicode="L"/><glyph d="M1826 -1h-44l-388 4164h-1l-876 -4122h419l-9 -40h-877l9 40h418l876 4122h-418l8 40h770l342 -3680l1908 3680h580l-8 -40h-431q91 0 91 -176q0 -19 -2 -52t-7 -66l-5 -34l-806 -3794h284l-9 -40h-877l9 40h284l847 3985z" glyph-name="M" horiz-adv-x="3700" unicode="M"/><glyph d="M927 1h-877l9 40h418l876 4121h-418l8 40h459l1790 -3663l770 3623h-419l9 40h877l-9 -40h-418l-885 -4160h-40l-1790 3662l-770 -3623h419z" glyph-name="N" horiz-adv-x="3585" unicode="N"/><glyph d="M1983 -15q-392 0 -719 166q-313 161 -518.5 454.5t-271.5 672.5q-29 169 -29 344q0 234 52 480q92 430 327 824q228 379 558 672t712 455q397 166 789 166q393 0 719 -166q313 -162 518.5 -455t271.5 -672q29 -169 29 -344q0 -234 -52 -480q-92 -430 -327 -824 q-228 -379 -557 -673q-331 -293 -712 -454q-398 -166 -790 -166zM1992 25l98 2q425 40 817.5 322.5t684.5 738.5t415 1014q61 300 61 571q0 232 -71.5 565.5t-344 616t-680.5 322.5q-48 2 -97 2l-99 -2q-425 -40 -817.5 -323t-684.5 -738.5t-415 -1013.5q-61 -300 -61 -571 q0 -232 72 -565t344 -616t680 -323h1q48 -2 97 -2z" glyph-name="O" horiz-adv-x="3972" unicode="O"/><glyph d="M928 1h-877l8 40h284l876 4122h-284l9 40h1770q244 0 446 -92t340 -265q200 -262 200 -601q0 -125 -27 -260q-112 -502 -539 -861q-212 -173 -453 -265t-484 -92h-1178l-367 -1726h284zM2186 1807v2q181 0 359 91.5t332 253t267 374.5t166 459q36 174 36 330 q0 130 -40 318.5t-193 348.5t-382 179l-1340 -1q82 -13 82 -181q0 -17 -2.5 -49.5t-7.5 -64.5l-5 -32l-431 -2028h1159z" glyph-name="P" horiz-adv-x="3026" unicode="P"/><glyph d="M3048 -700l-536 760q-266 -75 -530 -75q-392 0 -718 166q-313 161 -518.5 454.5t-272.5 672.5q-29 169 -29 344q0 234 52 480q92 430 327 824q228 379 558 672t712 455q397 166 790 166q392 0 718 -166q313 -162 518.5 -455t272.5 -672q29 -167 29 -341q0 -236 -53 -483 q-91 -430 -327 -824q-227 -379 -557 -672.5t-712 -454.5q-107 -45 -215 -78l527 -745zM1991 25l99 2q193 16 384 88l-277 391l36 27l283 -401q344 141 646 430t523 684t321 856q61 300 61 571q0 232 -71.5 565.5t-344 616t-679.5 322.5h-1q-48 2 -97 2l-99 -2 q-425 -40 -817 -323t-684 -738.5t-415 -1013.5q-61 -300 -61 -571q0 -232 71.5 -565t343.5 -616t680 -323h1q48 -2 97 -2z" glyph-name="Q" horiz-adv-x="3972" unicode="Q"/><glyph d="M2905 1h-366l-748 1766h-773l-366 -1726h284l-9 -40h-877l9 40h284l876 4121h-284l8 40l1771 1q244 0 446 -92t339 -265q201 -263 201 -602q0 -124 -27 -259q-113 -502 -540 -861q-211 -174 -452 -265.5t-485 -91.5h-39zM2185 1807q181 0 359 92t332.5 254t267 375 t166.5 458q35 173 35 328q0 131 -39.5 320.5t-192.5 349t-383 178.5q-12 1 -25 1l-1315 -1q68 -11 80 -122q2 -27 2 -54q0 -20 -2 -53.5t-7 -65.5l-5 -32l-431 -2028h1158z" glyph-name="R" horiz-adv-x="3088" unicode="R"/><glyph d="M1580 -7q-483 0 -807 180q-258 148 -387 411q-92 195 -92 407q0 115 23 216q57 267 244 516q212 279 519 451h1l159 -248l-50 -21q-51 -22 -130.5 -75t-169.5 -147q-208 -217 -304 -583q-31 -123 -31 -241q0 -171 85 -349t300 -307.5t491 -163.5q72 -6 156 -6 q424 0 778 130q301 111 507 301q59 63 144 190q165 274 165 491q0 162 -105.5 344t-403.5 423.5t-770 563.5q-538 377 -627 735q-23 91 -23 173q0 64 14 122q23 104 71 189q60 105 122 167q167 189 457 281q239 74 505 74q468 0 728 -178q144 -101 206 -247q41 -96 41 -198 q0 -52 -11 -106l-10 -39l-308 3q36 128 36 234q0 67 -23.5 153t-100 159t-179.5 111.5t-212.5 52t-202.5 13.5q-78 0 -136 -5q-139 -11 -303 -56h3q-52 -14 -103.5 -42t-86 -52t-36.5 -26q-61 -53 -123.5 -141t-90.5 -206q-12 -48 -12 -101q0 -74 31 -186t170 -276t410 -347 q433 -283 736.5 -516t442.5 -466q99 -164 99 -354q0 -78 -17 -161q-55 -264 -310 -613q-43 -63 -57 -77q-35 -41 -73 -80q-223 -225 -573 -350q-362 -127 -776 -127z" glyph-name="S" horiz-adv-x="3138" unicode="S"/><glyph d="M2397 1h-877l8 40h285l876 4121h-1754l8 40h3817l-9 -40h-1901q92 0 92 -180q0 -16 -2 -48.5t-7 -65.5l-6 -34l-806 -3793h284z" glyph-name="T" horiz-adv-x="3916" unicode="T"/><glyph d="M1840 -1q-306 0 -562 119q-247 115 -411 323q-56 71 -99 149q-150 269 -150 601q0 111 17 225l584 2747h-284l8 40h877l-8 -40h-431q91 0 91 -176q0 -18 -2 -51.5t-7 -66.5l-5 -33l-526 -2473l-10 -94q-8 -69 -8 -166q0 -35 2 -128t40.5 -258.5t132.5 -315.5t265.5 -249 t440.5 -112l53 -1q303 0 593 114t534 314.5t414.5 465t238.5 569.5l566 2661h-419l9 40h877l-9 -40h-418l-86 -405q-87 -405 -197 -924q-273 -1292 -283 -1332q-38 -174 -112 -341q-191 -419 -555 -720q-254 -208 -549 -323q-307 -119 -612 -119z" glyph-name="U" horiz-adv-x="3817" unicode="U"/><glyph d="M1902 1h-43l-640 4161h-284l8 40h877l-9 -40h-264l572 -3713l2150 3713h-415l9 40h877l-9 -40h-420z" glyph-name="V" horiz-adv-x="3897" unicode="V"/><glyph d="M3974 1h-43l-426 2769l-1603 -2769h-43l-640 4161h-285l9 40h877l-9 -40h-264l572 -3713l1377 2379l-205 1334h-284l8 40h1724l-8 -40h-420l-546 -944l426 -2769l2150 3713h-415l9 40h877l-9 -40h-420zM3756 3277l512 885h-648z" glyph-name="W" horiz-adv-x="5969" unicode="W"/><glyph d="M3120 1h-877l9 40h278l-590 1938l-1415 -1938h411l-9 -40h-877l9 40h421l1446 1982l-651 2139h-266l9 40h877l-9 -40h-441q52 -5 100 -51q82 -79 149 -216l26 -54l452 -1482l1315 1803h-410l8 40h877l-8 -40h-422l-1347 -1847l693 -2274h251z" glyph-name="X" horiz-adv-x="3170" unicode="X"/><glyph d="M2729 -1h-877l9 40h284l334 1573l-1263 2549h-282l9 40h877l-9 -40h-300q37 -15 68.5 -45t56 -63.5t38.5 -57.5l14 -24l1104 -2227l2225 2417h-395l9 40h876l-8 -40h-433l-2258 -2452l-355 -1670h285z" glyph-name="Y" horiz-adv-x="4664" unicode="Y"/><glyph d="M3973 1h-3922l4328 4001l38 32q38 32 93.5 69t112.5 59h-3121l8 40h3493l-4499 -4161h3478z" glyph-name="Z" horiz-adv-x="4160" unicode="Z"/><glyph d="M900 0h-850l893 4201h850l-66 -308h-541l-762 -3584h541z" glyph-name="bracketleft" horiz-adv-x="950" unicode="["/><glyph d="M1933 9h-329l-661 4192h332z" glyph-name="backslash" horiz-adv-x="1981" unicode="\"/><glyph d="M900 0h-850l66 309h541l762 3584h-541l65 308h850z" glyph-name="bracketright" horiz-adv-x="950" unicode="]"/><glyph d="M1858 3872l-462 120l-513 -120l-2 39l81 19l461 192l380 -192l73 -19z" glyph-name="asciicircum" horiz-adv-x="1095" unicode="^"/><glyph d="M1439 0h-1389l29 140h1390z" glyph-name="underscore" horiz-adv-x="1489" unicode="_"/><glyph d="M1546 3883l-635 165l64 153l515 -260l73 -19z" glyph-name="grave" horiz-adv-x="780" unicode="`"/><glyph d="M2935 -3h-877l9 40h284l130 611q-91 -112 -197 -210q-224 -208 -483 -322q-268 -119 -533 -119t-484 119q-210 114 -346 322q-194 306 -194 696q0 174 38 364q138 617 607 1059q224 208 483 322q269 119 533 119q265 0 484 -119q210 -114 346 -322q64 -98 107 -210 l124 584h-284l9 40h877l-9 -40h-431q92 0 92 -179q0 -17 -2 -49t-7 -65l-6 -34l-545 -2567h284zM1307 38q24 0 57 3q322 28 617 211t517 478l327 1535q-97 294 -312.5 476.5t-523.5 212.5h-6q-13 2 -31 2q-12 1 -25 1q-201 0 -402 -113.5t-376.5 -313.5t-306.5 -463.5 t-197 -567.5q-49 -234 -49 -445q0 -63 11.5 -225t102.5 -362.5t243 -314.5t354 -114z" glyph-name="a" unicode="a"/><glyph d="M1717 -6q-267 0 -484 118q-209 114 -346 322q-64 98 -107 210l-129 -606h284l-8 -40h-877l8 40h285l875 4121h-284l9 40h877l-9 -40h-431q92 0 92 -180q0 -17 -2 -49t-7 -65l-6 -34l-316 -1487q91 112 197 210q224 207 483 322q267 118 534 118q264 0 483 -118 q210 -115 346 -322q194 -307 194 -697q0 -173 -38 -363q-138 -618 -606 -1060q-225 -208 -483 -322q-270 -118 -534 -118zM1695 35q202 0 402.5 114t376.5 314t307 464t197 568q48 234 48 444q0 63 -11.5 225t-102 362t-243 313.5t-353.5 113.5q-55 0 -64 -3 q-320 -29 -613.5 -212t-514.5 -477l-327 -1535q97 -295 314.5 -478t527.5 -211l20 -1l1 -1h35z" glyph-name="b" unicode="b"/><glyph d="M1339 -17q-286 0 -511 118.5t-370 326.5q-212 315 -212 718q0 169 37 353q70 321 236 595.5t399 480.5t503 321q283 120 563 120q205 0 378.5 -61.5t309 -173.5t229.5 -265l-240 -122q-83 261 -251.5 415.5t-407.5 165.5l-27 1q-214 0 -424 -117.5t-391.5 -321.5 t-315.5 -470t-199 -568q-48 -232 -48 -440q0 -146 40.5 -374.5t212 -430t433.5 -229.5q16 0 31.5 -1t33.5 -1l66 2q236 24 462 179.5t412 410.5l227 -86q-163 -168 -354 -290t-399.5 -189t-422.5 -67z" glyph-name="c" horiz-adv-x="2402" unicode="c"/><glyph d="M1268 -4q-265 0 -484 119q-210 114 -346 322q-194 306 -194 696q0 174 38 364q138 617 607 1059q224 208 483 323q269 118 533 118q265 0 484 -118q210 -115 346 -323q64 -98 107 -209l386 1814h-284l8 40h877l-8 -40h-431q91 0 91 -175q0 -19 -2 -52t-7 -66l-5 -34 l-806 -3794h284l-9 -40h-877l9 40h284l129 607q-91 -112 -197 -210q-224 -208 -483 -322q-268 -119 -533 -119zM1307 37l36 1l21 2q322 28 617 211t517 478l327 1535q-97 294 -312.5 476.5t-523.5 212.5h-6q-13 2 -31 2q-12 1 -25 1q-201 0 -402 -113.5t-376.5 -313.5 t-306.5 -463.5t-197 -567.5q-49 -234 -49 -445q0 -63 11.5 -225t102.5 -362.5t243 -314.5t354 -114z" glyph-name="d" unicode="d"/><glyph d="M1339 -17q-279 0 -512 119q-223 116 -369 326q-212 315 -212 718q0 169 37 353q139 625 631 1072q235 210 506.5 325t541.5 119v1h14q227 -4 389 -63q300 -111 440 -377q24 -43 43 -87q54 -133 75 -262q23 -142 23 -260q0 -82 -5 -127l-4 -40h-2207q-52 -146 -85 -301 q-48 -232 -48 -440q0 -146 40.5 -374.5t212 -430t433.5 -229.5q32 -2 65 -2l66 2q236 24 462 179.5t412 410.5l227 -86q-279 -285 -613 -427q-283 -119 -563 -119zM2642 1840q18 154 18 283q0 174 -46 349t-159 292l-2.5 2.5t-2.5 3.5q-20 21 -41 39l-6 6q-83 70 -168 104.5 t-154 45.5t-105 11q-12 0 -23 -1h-4q-239 -11 -469 -159.5t-421.5 -401t-314.5 -574.5h1898z" glyph-name="e" horiz-adv-x="2549" unicode="e"/><glyph d="M927 0h-877l9 40h284l616 2901h-254l8 40h255l178 839q29 126 134 221t251 136q77 22 157 22q173 0 290 -99l-171 -177l-2 33q-2 34 -13.5 78t-39 80t-76.5 45l-28 -1q-47 -12 -85 -70t-66 -136t-47 -153l-174 -818h400l-8 -40h-400l-617 -2901h284z" glyph-name="f" horiz-adv-x="1157" unicode="f"/><glyph d="M454 -926q-110 0 -176.5 42t-99 110t-39.5 150q-4 38 -4 76q0 44 7 106q9 93 43 222q36 161 153 304q101 126 221.5 214t367.5 213q-245 97 -412 290q-237 285 -237 655q0 124 27 258q120 532 598 912q237 184 508.5 281t547.5 97q297 0 540 -112q87 67 295 194 q375 221 609 227l-42 -237q-118 0 -230 -3q-286 -8 -362 -45q-155 -96 -233 -154q184 -93 317 -248q158 -184 211 -418q27 -116 27 -238q0 -125 -28 -256q-119 -532 -598 -913q-236 -183 -507.5 -280t-547.5 -97q-234 0 -437 70q-262 -132 -383.5 -218.5t-222.5 -212.5 q-105 -127 -141 -281q-10 -44 -10 -84q0 -82 41 -150q76 -112 247 -112q179 0 367 115q109 71 206 162.5t187 187.5q85 90 176 177q206 193 429 310q268 137 506 137q112 0 216.5 -34.5t186.5 -100.5q180 -150 180 -375v-10q-8 -189 -138 -378q-124 -177 -313 -299 q-74 -48 -183 -102q-273 -136 -515 -136q-39 0 -81 4q-92 9 -177.5 29.5t-180.5 65.5q-112 52 -267 157q-87 -81 -186 -142t-213.5 -95.5t-249.5 -34.5zM1419 464q42 0 84 2q270 30 517 201t427.5 442.5t253.5 602.5q35 168 35 321q0 85 -21 238.5t-124 325t-266.5 269 t-374.5 97.5t-416 -97.5t-381 -269t-302.5 -397.5t-183.5 -487q-35 -169 -35 -323q0 -147 49 -349t223 -373t431 -201q42 -2 84 -2zM1818 -870q97 0 192 22q120 43 232 131t200.5 239.5t139.5 385.5q27 129 27 224q0 40 -10.5 113.5t-54.5 133t-89.5 82t-68.5 24.5l-22 1 l-22 -1q-76 -3 -156 -20q-138 -41 -254 -136t-219.5 -223.5t-204.5 -271.5q-86 -121 -177.5 -238t-193.5 -219q203 -138 334.5 -185t269.5 -58q38 -4 77 -4z" glyph-name="g" horiz-adv-x="3029" unicode="g"/><glyph d="M2829 -2h-877l8 40h285l541 2548q11 56 11 126q0 147 -87 198q-33 20 -85 20q-32 0 -71 -8q-32 -8 -65 -19q-268 -89 -551 -390q-326 -347 -658 -953q-204 -378 -350 -711t-218 -525l-61 -286h284l-9 -40h-876l8 40h284l876 4121h-284l8 40h877l-8 -40h-431q74 0 88 -115 q4 -35 4 -69q0 -14 -2 -45.5t-7 -64.5l-6 -34l-699 -3288q211 522 486 1029q336 612 666 964q420 444 805 444q88 0 150 -22q92 -33 139 -92q81 -102 83 -248q0 -59 -4 -88l-530 -2492h284z" glyph-name="h" horiz-adv-x="2879" unicode="h"/><glyph d="M1171 3211q-93 0 -144 64q-38 48 -38 112q0 23 5 48q23 96 101 160.5t172 64.5q93 0 144 -64q37 -49 37 -114q0 -23 -4 -47q-23 -95 -101.5 -159.5t-171.5 -64.5zM927 0h-877l9 40h284l616 2901h-284l9 40h877l-9 -40h-431q92 0 92 -180q0 -17 -2 -49t-7 -65l-6 -34 l-547 -2573h284z" glyph-name="i" horiz-adv-x="977" unicode="i"/><glyph d="M26 -1218q-174 0 -291 99l172 177l2 -34q2 -33 13.5 -77t38.5 -80t77 -45l28 1q47 12 85 69.5t66 136t46 152.5l799 3760h-284l9 40h877l-9 -40h-284l-804 -3780q-29 -126 -133.5 -221.5t-250.5 -136.5q-77 -21 -157 -21z" glyph-name="j" horiz-adv-x="1080" unicode="j"/><glyph d="M2561 -2h-358l-689 1821q-266 -373 -461 -725.5t-301 -580.5l-101 -475h284l-8 -40h-877l8 40h285l876 4121h-285l9 40h877l-9 -40h-431q92 0 92 -180q0 -17 -2 -49t-7 -65l-6 -34l-673 -3166q315 637 707 1186q486 665 961 943q328 191 640 191q89 0 176 -16l-63 -296 l-66 22q-66 22 -175.5 44.5t-237.5 22.5q-272 0 -460 -136q-248 -188 -502 -487l-9 -11z" glyph-name="k" horiz-adv-x="2739" unicode="k"/><glyph d="M926 -2h-877l9 40h284l876 4121h-284l8 40h877l-8 -40h-431q91 0 91 -176q0 -18 -2 -51.5t-7 -66.5l-5 -34l-806 -3793h284z" glyph-name="l" horiz-adv-x="977" unicode="l"/><glyph d="M4731 -3h-877l8 40h285l541 2548q11 56 11 125q0 146 -87 199q-33 19 -83 19q-61 0 -138 -26q-268 -90 -551 -391q-326 -346 -658 -953q-205 -378 -351 -712t-218 -525l-60 -282h284l-8 -40h-877l8 40h284l542 2548q11 55 11 122q0 57 -17 114t-71 89q-32 19 -83 19 q-33 0 -73 -8q-32 -8 -64 -19q-268 -89 -551 -390q-326 -347 -659 -953q-332 -615 -568 -1236l-61 -287h285l-9 -40h-877l9 40h284l616 2900h-284l9 40h877l-9 -40h-431q92 0 92 -179q0 -17 -2 -49t-7 -65l-6 -34l-439 -2066q210 518 486 1028q336 612 666 964 q420 444 805 444q88 0 150 -22q92 -33 139 -92q81 -104 83 -248q0 -59 -4 -88l-423 -1990q213 526 486 1030q336 612 666 964q420 444 805 444q88 0 150 -22q92 -33 139 -92q81 -102 83 -248q0 -59 -4 -88l-530 -2492h284z" glyph-name="m" horiz-adv-x="4782" unicode="m"/><glyph d="M2828 -2h-876l8 40h284l542 2548q11 56 11 122q0 57 -17 114t-71 89q-32 19 -83 19q-33 0 -73 -8q-32 -8 -64 -19h-1q-267 -89 -550 -390q-326 -347 -659 -953q-204 -378 -350 -711t-218 -525l-61 -286h285l-9 -40h-877l9 40h284l616 2900h-284l9 40h877l-9 -40h-431 q92 0 92 -179q0 -17 -2 -49t-7 -65l-6 -34l-439 -2067q217 537 486 1028q336 613 666 964q420 444 805 444q88 0 150 -22q91 -33 138 -91q82 -103 84 -249q0 -59 -4 -88l-530 -2492h284z" glyph-name="n" horiz-adv-x="2879" unicode="n"/><glyph d="M1339 -17q-286 0 -511 118.5t-370 326.5q-212 315 -212 718q0 169 37 353q70 321 236 595.5t399 480.5t503 321q283 120 563 120q287 0 512 -118.5t369 -326.5q213 -315 213 -719q0 -169 -37 -353q-71 -320 -237 -594.5t-399 -480.5t-503 -322q-283 -119 -563 -119z M1348 23l66 2q274 28 531 229.5t451.5 525t281.5 719.5q48 234 48 442q0 153 -44 387.5t-225 433.5t-455 213l-27 1q-214 0 -424 -117.5t-391.5 -321.5t-315.5 -470t-199 -568q-48 -232 -48 -440q0 -146 40.5 -374.5t212 -430t433.5 -229.5q16 0 31.5 -1t33.5 -1z" glyph-name="o" horiz-adv-x="2686" unicode="o"/><glyph d="M668 -1220h-877l8 40h284l876 4121h-284l9 40h877l-9 -40h-431q92 0 92 -180q0 -16 -2 -48.5t-7 -65.5l-6 -33l-71 -336q110 146 244 271q225 208 483 322q267 118 534 118q265 0 484 -118q209 -114 346 -322q194 -306 194 -695q0 -174 -39 -365q-137 -618 -606 -1060 q-225 -207 -483 -322q-269 -118 -534 -118t-483 118q-210 115 -346 322q-82 125 -129 271l-400 -1880h284zM1729 30q201 0 401.5 114t376.5 314.5t307.5 464.5t196.5 568q49 234 49 444q0 63 -11.5 225t-102.5 361.5t-243.5 313t-353.5 113.5h-29q-17 -2 -34 -2 q-340 -32 -648 -234t-530 -524l-297 -1398q86 -323 309.5 -525t551.5 -233q10 -1 27 -1q0 -1 1 -1h29z" glyph-name="p" horiz-adv-x="3021" unicode="p"/><glyph d="M2676 -1219h-876l8 40h284l387 1817q-91 -112 -197 -210q-225 -208 -483 -322q-267 -118 -534 -118q-264 0 -483 118q-210 114 -346 322q-194 306 -194 696q0 174 38 364q137 618 606 1060q225 208 483 322q269 118 534 118q267 0 483 -118q210 -114 347 -322 q64 -98 107 -210l128 604h-284l8 40h877l-8 -40h-431q42 0 62 -33q30 -51 30 -147q0 -16 -2 -48.5t-7 -65.5l-6 -33l-806 -3794h284zM1335 29l4 1l22 1q322 28 617.5 211t517.5 479l326 1534q-96 294 -312 477t-524 212q-2 1 -5 1l-27 2h-29q-202 0 -402.5 -113.5t-376 -313 t-307 -463.5t-197.5 -567q-48 -234 -48 -444q0 -63 11.5 -225.5t102 -363t243 -314.5t353.5 -114h31z" glyph-name="q" unicode="q"/><glyph d="M926 -2h-877l9 40h284l616 2901h-284l9 40h877l-9 -40h-431q92 0 92 -180q0 -16 -2 -48.5t-7 -65.5l-6 -34l-434 -2042q134 334 358 790q266 528 528 893q531 737 997 737q138 0 269 -65l-273 -395l-48 27q-48 27 -129 54t-182 34l-28 1q-88 0 -187.5 -34.5 t-200.5 -138.5q-340 -395 -693 -1092q-274 -546 -458 -1034l-65 -308h284z" glyph-name="r" horiz-adv-x="2343" unicode="r"/><glyph d="M1052 -5h-8q-342 0 -574 128q-184 107 -275 294q-67 140 -67 292q0 54 8 109l7 41q42 192 177 372q150 198 370 322l150 -239l-61 -23q-61 -24 -147 -83q-214 -147 -291 -422q-23 -96 -23 -174q0 -108 49.5 -225t181.5 -210.5t307 -129.5q93 -12 194 -12q41 0 83 2 q419 23 683 193q107 69 159.5 123.5t57.5 65.5q136 209 136 362q0 103 -70 215.5t-259.5 260t-483.5 347.5l-137 94q-373 262 -433 524q-15 64 -15 122q0 50 11 96q27 114 85.5 199t113.5 135q116 116 303 176q170 53 362 53q331 0 516 -128q104 -73 148 -178 q30 -69 30 -142q0 -38 -8 -76l-7 -28l-292 3q27 93 27 180q0 86 -41 163t-137 118t-197 47l-33 1q-113 0 -220 -17q-162 -37 -278 -118l-1 -1q-9 -6 -38 -32q-92 -82 -122 -211q-8 -32 -8 -67q0 -53 23.5 -131.5t125 -189t298.5 -231.5l26 -16q309 -182 523 -333t311 -309 q68 -110 68 -243q0 -57 -13 -119q-39 -191 -220 -454q-49 -84 -120 -155q-161 -161 -410 -250q-125 -43 -239 -62.5t-196.5 -24t-109.5 -4.5z" glyph-name="s" horiz-adv-x="2107" unicode="s"/><glyph d="M785 0q-82 0 -149 28q-118 45 -175 137q-42 67 -42 147q0 32 7 66l545 2563h-296l9 40h296l122 576h309l-123 -576h468l-8 -40h-468l-535 -2516q-15 -63 -25 -151q-3 -29 -3 -55q0 -57 17.5 -115t96.5 -62q21 2 42 6q50 15 87 54t61 83t36 76l12 32l95 -128 q-77 -76 -176 -120.5t-203 -44.5z" glyph-name="t" horiz-adv-x="1179" unicode="t"/><glyph d="M796 -8q-88 0 -150 22q-125 47 -171.5 139t-49.5 177l-1 51q0 44 4 61l531 2500h-284l9 40h877l-9 -40h-431q70 0 87 -104q5 -33 5 -68q0 -57 -6 -104q-5 -36 -8 -48l-469 -2206q-16 -81 -16 -150q0 -8 0.5 -37t16 -76t51.5 -78t101 -31q33 0 75 10l65 19q266 89 550 390 q326 348 658 953q331 611 569 1236l62 294h-285l9 40h877l-9 -40h-431q41 0 62 -31q31 -48 31 -148q0 -54 -8 -105q-4 -27 -554 -2618h285l-9 -40h-431q-57 4 -93 41t-36 94q0 17 4 37l479 2257q-211 -522 -486 -1029q-336 -612 -666 -964q-421 -444 -805 -444z" glyph-name="u" horiz-adv-x="2880" unicode="u"/><glyph d="M1416 0h-42l-442 2935h-258l8 40h877l-8 -40h-431q71 0 122 -103q37 -76 58 -173l10 -51l324 -2155l1430 2482h-415l9 40h877l-9 -40h-420z" glyph-name="v" horiz-adv-x="2952" unicode="v"/><glyph d="M2823 0h-42l-283 1880l-1082 -1880h-42l-442 2935h-258l8 40h877l-8 -40h-431q71 0 122 -103q37 -76 58 -173l10 -51l324 -2155l855 1485l-150 997h-258l9 40h1445l-9 -40h-420l-347 -603q141 -940 283 -1879l1429 2482h-415l9 40h877l-9 -40h-420zM2750 2390l314 545 h-537q71 0 122 -103q37 -76 58 -173l10 -51z" glyph-name="w" horiz-adv-x="4360" unicode="w"/><glyph d="M2273 0h-877l9 40h269l-302 1233l-827 -1233h415l-8 -40h-877l9 40h417l859 1281l-397 1616h-289l9 40h877l-9 -40h-431q74 0 152 -112q55 -80 95 -177l16 -38l225 -918l835 1245h-417l8 40h877l-8 -40h-416l-867 -1293l394 -1604h268z" glyph-name="x" horiz-adv-x="2329" unicode="x"/><glyph d="M-234 -1540q-63 0 -90 9l142 321l72 -21q72 -22 181 -36q46 -5 94 -5q66 0 160.5 14t195.5 90q457 364 933 1173l-442 2935h-258l8 40h877l-8 -40h-431q71 0 122 -104q37 -78 58 -172l9 -52l325 -2155l1429 2483h-414l8 40h877l-8 -40h-420l-1683 -2923 q-346 -602 -708 -980q-291 -304 -580 -452q-250 -125 -449 -125z" glyph-name="y" horiz-adv-x="3031" unicode="y"/><glyph d="M2810 0h-2760l2850 2713l38 34q38 34 96.5 78t121 77.5t113.5 34.5h-2153l8 40h2456l-3085 -2937h2323z" glyph-name="z" horiz-adv-x="2998" unicode="z"/><glyph d="M931 -4q-58 16 -126 74.5t-119 184t-59 342.5l-1 53q0 204 52 497q46 251 46 424q0 21 -3.5 122t-48 206.5t-110.5 153.5q-33 25 -67 39q133 43 259 192q201 237 326 752q82 333 183 550q178 386 401 527q92 58 158 74q-59 -26 -141.5 -134t-177.5 -350t-193 -667 q-70 -302 -168.5 -495t-211 -299.5t-225.5 -149.5q215 -98 246 -450q3 -42 3 -89q0 -169 -45 -406q-84 -425 -91 -667l-1 -82q0 -179 33 -277.5t81 -124.5z" glyph-name="braceleft" horiz-adv-x="982" unicode="{"/><glyph d="M284 -4h-235l891 4195h236z" glyph-name="bar" horiz-adv-x="335" unicode="|"/><glyph d="M46 -16q59 25 141.5 133.5t177.5 350t193 666.5q70 303 168.5 496t211.5 299.5t225 149.5q-215 98 -246 449q-3 42 -3 89q0 169 45 406q84 425 91 667l1 82q0 179 -33 278t-81 124q59 -16 126.5 -74.5t118.5 -184t59 -342.5q1 -28 1 -59q0 -201 -52 -491 q-46 -251 -46 -423q0 -21 3.5 -122t48 -207t110.5 -154q33 -24 67 -38q-40 -14 -83 -39q-324 -181 -502 -906q-149 -605 -387 -892q-178 -215 -355 -258z" glyph-name="braceright" horiz-adv-x="982" unicode="}"/><glyph d="M1201 1812q-125 0 -277 110q-59 41 -118 71q-20 11 -65 22q-27 7 -59 7q-21 0 -60.5 -5.5t-95.5 -51.5l-47 54q101 84 217 84q75 0 157 -36q67 -34 126 -76q71 -51 146 -83q42 -16 92 -16q22 0 71.5 7t113.5 76l58 -44q-78 -89 -189 -112q-35 -7 -70 -7z" glyph-name="asciitilde" horiz-adv-x="1099" unicode="~"/><glyph d="M364 2h-308l857 3709h171zM1035 3885q-65 0 -101 46q-27 34 -27 80q0 16 3 33q16 67 72 113t121 46q67 0 103 -48q25 -35 25 -79q0 -18 -4 -38q-18 -65 -73.5 -109t-118.5 -44z" glyph-name="exclamdown" horiz-adv-x="422" unicode="¡"/><glyph d="M424 4h-44l504 804q-121 95 -211 225q-213 315 -213 719q0 168 37 352q140 625 631 1072q236 210 508 325q283 120 563 120q214 0 401 -71l410 655h43l-418 -669q274 -115 445 -360l36 -55q-41 -20 -241 -122q-93 295 -294 451l-1575 -2515q90 -132 214 -211t278 -94 q32 -2 64 -2l66 2q237 23 463 179t412 411q113 -44 227 -86q-51 -53 -106 -101q-235 -210 -507 -326q-283 -119 -563 -119t-512 119q-68 35 -128 79zM984 969l1567 2503q-146 100 -335 108l-26 1l-26 -1q-281 -14 -546.5 -213t-467 -528t-290.5 -735q-48 -232 -48 -440 q0 -101 23.5 -295t148.5 -400z" glyph-name="cent" horiz-adv-x="2539" unicode="¢"/><glyph d="M2480 0h-1397l783 1193q-151 30 -284 98q-223 116 -369 326q-213 315 -213 719q0 159 33 332h-416l9 40h416q143 613 626 1052q236 210 508 325q283 120 563 120q279 0 512 -120q253 -131 404 -380l-240 -122q-82 261 -251 415.5t-408 165.5l-26 1q-23 0 -24 -1h-2 q-279 -14 -542 -209.5t-464.5 -520t-293.5 -726.5h399l-9 -40h-398q-44 -220 -44 -418q0 -120 29 -324.5t165.5 -407t351.5 -275.5q67 -22 140 -29q32 -2 64 -2l66 2q27 2 53 6l-774 -1180h1042z" glyph-name="sterling" horiz-adv-x="2918" unicode="£"/><glyph d="M1286 1122q-360 0 -596 238l-286 -236l-89 114l285 235q-122 195 -122 434q0 103 22 213q82 367 375 646l-185 236l137 113l186 -236q337 238 697 238q359 0 596 -238l285 236l89 -113l-285 -236q123 -195 123 -434q0 -102 -23 -212q-82 -368 -375 -647l185 -235 l-137 -114l-185 236q-338 -238 -697 -238zM1320 1283q106 0 274 40.5t370 203.5q294 247 371 593q19 93 19 179q0 233 -138 413q-95 119 -234 182t-306 63q-168 0 -334 -63t-311 -182q-294 -247 -371 -592q-19 -93 -19 -179q0 -233 138 -414q133 -163 334 -217 q101 -27 207 -27z" glyph-name="currency" horiz-adv-x="2095" unicode="¤"/><glyph d="M2068 0h-877l8 40h284l250 1173h-668l9 40h667l53 250h-667l9 40h667l131 615l-778 2003h-222l9 40h744l-8 -40h-273l9 -2q9 -2 26 -11q41 -24 89 -92q62 -87 123 -248l593 -1528l1529 1881h-335l8 40h745l-9 -40h-362l-1561 -1919l-149 -699h758l-8 -40h-758l-54 -250 h759l-9 -40h-758l-250 -1173h284z" glyph-name="yen" horiz-adv-x="3350" unicode="¥"/><glyph d="M807 2456h-235l370 1743h235zM285 2h-235l371 1742h235z" glyph-name="brokenbar" horiz-adv-x="335" unicode="¦"/><glyph d="M1052 -5h-8q-342 0 -574 128q-184 107 -275 294q-67 140 -67 292q0 54 8 109l7 41q42 192 177 372q97 128 225 227q84 62 145 95q30 -48 45.5 -73t23.5 -38t15.5 -24.5t22 -34.5l43.5 -69l-18 -6q-19 -7 -50 -20q-61 -25 -146 -84q-209 -145 -285 -418q-23 -96 -23 -174 q0 -108 49.5 -225t181.5 -210.5t307 -129.5q93 -12 194 -12q41 0 83 2q419 23 683 193q107 69 159.5 123.5t57.5 65.5q135 208 135 361q0 107 -72.5 221.5t-269.5 265.5q-168 129 -456 327l-151 104q-428 302 -446 603l-1 38q0 52 10 101q38 164 164 298q122 143 338 212 q38 12 78 21q-228 189 -294 356q-44 111 -44 209q0 49 11 95q27 114 85.5 198.5t113.5 134.5q116 116 303 175q170 54 362 54q331 0 516 -128q104 -73 148 -178q30 -69 30 -142q0 -38 -8 -76l-7 -28l-292 3q27 93 27 180q0 86 -41 163t-137 118t-197 47l-33 1 q-113 0 -220 -17q-162 -37 -278 -118h-1q-3 -3 -19.5 -17t-36.5 -34q-77 -77 -104 -193q-8 -32 -8 -67q0 -53 23.5 -131.5t125 -189t298.5 -231.5q391 -233 568 -363q205 -147 297 -302q63 -108 63 -236q0 -57 -13 -119q-39 -191 -220 -454q-75 -128 -202 -229 q182 -182 182 -387q0 -58 -13 -120q-39 -190 -220 -454q-49 -84 -120 -155q-161 -161 -410 -250q-125 -43 -239 -62.5t-196.5 -24t-109.5 -4.5zM2152 1477q64 51 97 87.5t37 43.5q135 210 135 362q0 106 -71.5 220t-265.5 264l-38 29q-94 72 -574 405q-37 26 -70 51 q-130 -36 -200 -80.5t-83 -60.5q-74 -65 -110 -160q-24 -62 -24 -123q0 -26 4 -54q32 -245 443 -496q259 -156 420 -260q179 -117 300 -228z" glyph-name="section" horiz-adv-x="2107" unicode="§"/><glyph d="M981 3871q-45 0 -69 32q-16 23 -16 51q0 13 3 27q11 43 48 72t78 29q44 0 68 -30q18 -23 18 -54q0 -10 -2 -21q-11 -44 -48 -75t-80 -31zM1347 3871q-45 0 -68 32q-17 23 -17 53q0 12 3 25q12 43 48.5 72t78.5 29q43 0 67 -30q18 -23 18 -54q0 -10 -2 -21 q-11 -44 -48 -75t-80 -31z" glyph-name="dieresis" horiz-adv-x="679" unicode="¨"/><glyph d="M1343 748q-227 0 -413 99t-308 286q-169 267 -169 607q0 152 34 319q120 540 528 926q203 187 430.5 286t455.5 99t413.5 -99t307.5 -286q169 -267 169 -607q0 -152 -34 -319q-120 -540 -528 -926q-202 -187 -430 -286t-456 -99zM1352 788q226 0 446 99t407 273.5 t320.5 404t191.5 494.5q33 160 33 307q0 96 -25 256.5t-138 335t-290.5 273.5t-404.5 99q-226 0 -446 -99t-407 -273.5t-320.5 -404t-191.5 -494.5q-33 -160 -33 -307q0 -96 25 -256.5t138 -335t291 -273.5t404 -99zM1391 969q-191 0 -346 83t-257 239q-140 222 -140 503 q0 127 28 265q99 448 438 768q169 156 359 239t381 83q243 0 433 -139q45 -34 84 -74l-65 -61q-36 37 -76 67q-173 127 -393 127q-179 0 -353 -79t-322.5 -217.5t-254 -321t-151.5 -392.5q-27 -128 -27 -247q0 -75 20 -201.5t109.5 -265t229.5 -217.5t320 -79q272 0 551 194 l39 -61l-51 -35q-279 -178 -556 -178z" glyph-name="copyright" horiz-adv-x="2369" unicode="©"/><glyph d="M1062 3306q-128 0 -198 89q-52 66 -52 156q0 31 6 64q32 131 139.5 220t235.5 89t198 -89q52 -66 52 -156q0 -31 -6 -64q-32 -131 -139.5 -220t-235.5 -89zM1070 3346q112 0 206 77.5t121 191.5q5 29 5 56q0 78 -53 145.5t-164 67.5q-112 0 -205.5 -77.5t-121.5 -191.5 q-5 -29 -5 -56q0 -78 53 -145.5t164 -67.5zM1209 3488h-44l-33 113h-76l-24 -113h-40l59 280h124l6 1q34 0 54 -22q14 -17 14 -42q0 -12 -3 -25q-16 -55 -71 -74zM1152 3641q19 0 35 11q21 15 21 43q0 24 -19 31q-7 2 -20 2h-86l-19 -87h88z" glyph-name="registered" horiz-adv-x="718" unicode="®"/><glyph d="M1645 3874h-772l30 140h771z" glyph-name="macron" horiz-adv-x="871" unicode="¯"/><glyph d="M1057 3967h-3q-52 0 -77 34q-18 26 -18 58q0 12 5.5 42.5t53.5 67.5q43 29 81 29q23 0 44 -11q50 -25 50 -86q0 -18 -3 -23q-13 -45 -49.5 -76t-83.5 -35zM1059 4007q26 0 54 18.5t38 56.5l1 15q0 20 -11 37.5t-39 22.5l-9 1q-23 0 -46.5 -13t-38.5 -39q-10 -20 -10 -39 q0 -45 42 -58q10 -2 19 -2z" glyph-name="degree" horiz-adv-x="374" unicode="°"/><glyph d="M1439 0h-1389l39 183h1388zM945 514h-183l128 603h-603l39 183h603l128 603h183l-128 -603h603l-39 -183h-603z" glyph-name="plusminus" horiz-adv-x="1489" unicode="±"/><glyph d="M879 3855l-1 39l81 19l626 260l-1 -153z" glyph-name="acute" horiz-adv-x="780" unicode="´"/><glyph d="M73 -353q-52 0 -96 10l38 98q32 -6 67 -6q30 0 51 2l11 2q16 3 32 10q25 11 25 28q0 11 -12 26h-1q-17 17 -46 23.5t-57 9.5q-2 0 -3 1l-19 2l137 238l87 -35l-75 -128q32 -12 57 -34q33 -31 33 -81q0 -61 -54 -112q-11 -10 -23 -17q-58 -33 -126 -36z" glyph-name="cedilla" horiz-adv-x="404" unicode="¸"/><glyph d="M2271 3882q-65 0 -101 46q-27 35 -27 81q0 15 3 32q16 67 72 113t121 46q67 0 103 -48q25 -35 25 -79q0 -18 -4 -38q-18 -65 -73.5 -109t-118.5 -44zM1406 0q-60 0 -236 15t-404 159q-226 146 -348 394q-106 221 -106 471q0 35 2 71q20 293 179 582q162 290 419 492 q101 77 209 141t216 123q169 88 330 194q190 129 297.5 288.5t154.5 384.5h40q-15 -69 -35 -131q-33 -147 -123 -275.5t-217.5 -249.5t-271.5 -243q-169 -142 -331.5 -299t-286 -344.5t-174.5 -419.5t-51 -445q0 -23 3 -152t82.5 -314t246 -292.5t433.5 -109.5q82 1 165 12 q218 35 370 136t250 231.5t151.5 254.5t74.5 207l21 83h297q-47 -302 -312 -559q-231 -218 -565 -327q-245 -78 -480 -78z" glyph-name="questiondown" horiz-adv-x="2622" unicode="¿"/><glyph d="M3847 0h-877l8 40h264l-128 834h-2110l-483 -834h415l-9 -40h-877l9 40h420l2409 4161h43l640 -4161h284zM3108 914l-437 2839l-1644 -2839h2081zM3301 4458l-635 165l65 153l515 -261l73 -18z" glyph-name="Agrave" horiz-adv-x="3897" unicode="À"/><glyph d="M3847 0h-877l8 40h264l-128 834h-2110l-483 -834h415l-9 -40h-877l9 40h420l2409 4161h42l641 -4161h284zM3108 914l-437 2839l-1644 -2839h2081zM2595 4458l-1 39l81 18l625 261v-153z" glyph-name="Aacute" horiz-adv-x="3897" unicode="Á"/><glyph d="M3847 0h-877l8 40h264l-128 834h-2110l-483 -834h414l-8 -40h-877l8 40h420l2410 4161h42l641 -4161h284zM3108 914l-437 2839l-1644 -2839h2081zM3443 4458l-462 120l-514 -120l-1 39l81 18l461 192l380 -192l73 -18z" glyph-name="Acircumflex" horiz-adv-x="3897" unicode="Â"/><glyph d="M3846 0h-876l8 40h264l-128 834h-2110l-483 -834h414l-8 -40h-877l8 40h420l2410 4161h42l641 -4161h284zM3107 914l-436 2839l-1644 -2839h2080zM3095 4454q-92 0 -175 64q-72 52 -121 52q-20 0 -42 -8l-19 72q38 16 76 16q75 0 161 -63q37 -27 76 -43q31 -10 63 -10 q47 0 97 22l22 -70q-70 -32 -138 -32z" glyph-name="Atilde" horiz-adv-x="3896" unicode="Ã"/><glyph d="M3846 0h-877l9 40h264l-128 834h-2110l-483 -834h414l-8 -40h-877l8 40h420l2410 4161h42l641 -4161h284zM3107 914l-436 2839l-1644 -2839h2080zM2774 4458q-45 0 -69 32q-16 22 -16 51q0 12 3 26q11 43 48 72.5t79 29.5q43 0 67 -31q18 -23 18 -54q0 -10 -2 -21 q-11 -44 -48 -74.5t-80 -30.5zM3140 4458q-44 0 -68 32q-17 23 -17 52q0 12 3 25q12 43 48.5 72.5t78.5 29.5q43 0 67 -31q18 -23 18 -54q0 -10 -2 -21q-11 -44 -48 -74.5t-80 -30.5z" glyph-name="Adieresis" horiz-adv-x="3896" unicode="Ä"/><glyph d="M3846 0h-877l9 40h264l-128 834h-2110l-483 -834h414l-8 -40h-877l8 40h420l2410 4161h42l641 -4161h284zM3107 914l-436 2839l-1644 -2839h2080zM2964 4458q-43 0 -67 30q-18 23 -18 53q0 11 2 22q11 45 48 75t80 30q44 0 67 -30q18 -22 18 -53q0 -11 -2 -22 q-11 -45 -47.5 -75t-80.5 -30zM2973 4498q27 0 49.5 18.5t29.5 46.5l1 13q0 20 -12.5 36t-39.5 16t-50 -18q-31 -26 -31 -60q0 -20 13 -36t40 -16z" glyph-name="Aring" horiz-adv-x="3896" unicode="Å"/><glyph d="M4253 0h-2542l8 40h284l178 834h-1177l-483 -834h414l-8 -40h-877l9 40h419l2345 4050h1l64 111h2257l-8 -40h-2088q84 -11 84 -180q0 -50 -10 -115l-5 -32l-360 -1693h1484l-9 -40h-1483l-438 -2061h1949zM2189 914l674 3172l-1836 -3172h1162z" glyph-name="AE" horiz-adv-x="4303" unicode="Æ"/><glyph d="M1842 -418h-21q-55 0 -102 9l38 98q33 -6 68 -6q29 0 50 2l11 2q16 3 32 10q25 11 25 29q0 10 -12 25q-29 28 -104 33l-22 4q58 101 117 201q-359 12 -657 165q-313 162 -518.5 455t-272.5 673q-29 168 -29 343q0 234 52 480q92 431 327 824q228 379 558 672.5t712 454.5 q397 167 789 167q393 0 719 -167q313 -161 519 -454q31 -44 58 -89l-211 -190q-126 371 -381 597t-614 260h-1q-48 3 -97 3t-98 -3h-1q-425 -40 -817 -322.5t-684 -738.5t-415 -1014q-62 -300 -62 -570q0 -233 72 -566t344 -616t680 -322l1 -1q48 -2 97 -2q98 0 98 3h1 q400 36 773 291t662 670l174 -171q-102 -112 -215 -212q-331 -293 -712 -455q-373 -156 -745 -166l-74 -126q32 -12 57 -34q33 -31 33 -81q0 -61 -54 -112q-11 -10 -23 -17q-58 -33 -125 -36z" glyph-name="Ccedilla" horiz-adv-x="3575" unicode="Ç"/><glyph d="M2592 0h-2542l9 40h284l876 4121h-285l9 40h2542l-9 -40h-2088q84 -11 84 -181q0 -17 -2 -49.5t-7 -64.5l-5 -32l-360 -1694h1483l-9 -40h-1483l-438 -2060h1949zM2598 4454l-635 165l65 152l515 -260l73 -19z" glyph-name="Egrave" horiz-adv-x="2642" unicode="È"/><glyph d="M2592 0h-2542l9 40h284l876 4121h-285l9 40h2542l-9 -40h-2088q84 -11 84 -181q0 -17 -2 -49.5t-7 -64.5l-5 -32l-360 -1694h1483l-9 -40h-1483l-438 -2060h1949zM2047 4454l-1 38l81 19l626 260l-1 -152q-352 -83 -705 -165z" glyph-name="Eacute" horiz-adv-x="2642" unicode="É"/><glyph d="M2592 0h-2542l9 40h284l876 4121h-285l9 40h2542l-9 -40h-2088q84 -11 84 -181q0 -17 -2 -49.5t-7 -64.5l-5 -32l-360 -1694h1483l-9 -40h-1483l-438 -2060h1949zM2861 4453l-462 120l-513 -120l-2 39l81 19l461 191l380 -191l73 -19z" glyph-name="Ecircumflex" horiz-adv-x="2642" unicode="Ê"/><glyph d="M2592 0h-2542l9 40h284l876 4121h-285l9 40h2542l-9 -40h-2088q84 -11 84 -181q0 -17 -2 -49.5t-7 -64.5l-5 -32l-360 -1694h1483l-9 -40h-1483l-438 -2060h1949zM2292 4453q-45 0 -69 32q-17 23 -17 52q0 12 3 26q12 43 48.5 72t78.5 29q43 0 68 -31q17 -22 17 -51 q0 -11 -2 -23q-10 -45 -47 -75.5t-80 -30.5zM2658 4453q-45 0 -68 32q-17 23 -17 52q0 12 3 26q12 43 48.5 72t78.5 29q43 0 67 -31q18 -22 18 -53q0 -10 -2 -21q-11 -45 -48 -75.5t-80 -30.5z" glyph-name="Edieresis" horiz-adv-x="2642" unicode="Ë"/><glyph d="M927 0h-877l9 40h284l876 4121h-285l9 40h877l-9 -40h-431q92 0 92 -180q0 -16 -2 -48.5t-7 -65.5l-5 -33l-807 -3794h284zM1766 4458l-635 164l65 153l515 -260l73 -19z" glyph-name="Igrave" horiz-adv-x="977" unicode="Ì"/><glyph d="M927 0h-877l9 40h284l876 4121h-285l9 40h877l-9 -40h-431q92 0 92 -180q0 -16 -2 -48.5t-7 -65.5l-5 -33l-807 -3794h284zM1106 4458l-2 38l82 19l625 260v-153z" glyph-name="Iacute" horiz-adv-x="977" unicode="Í"/><glyph d="M927 0h-877l8 40h285l876 4121h-285l9 40h877l-9 -40h-431q92 0 92 -180q0 -16 -2 -48.5t-7 -65.5l-6 -33l-806 -3794h284zM1924 4458l-463 120l-513 -120l-1 38l81 19l461 192l379 -192l73 -19z" glyph-name="Icircumflex" horiz-adv-x="977" unicode="Î"/><glyph d="M927 -2h-877l8 40h284l876 4121h-284l9 40h877l-9 -40h-431q42 0 63 -33q29 -49 29 -146q0 -17 -2 -49t-7 -65l-6 -34l-806 -3794h284zM1252 4456q-44 0 -68 32q-17 23 -17 52q0 12 3 25q12 43 48.5 72.5t78.5 29.5q43 0 67 -31q18 -22 18 -52q0 -11 -2 -23 q-10 -44 -47.5 -74.5t-80.5 -30.5zM1619 4456q-45 0 -69 32q-16 22 -16 51q0 12 3 26q11 43 48 72.5t79 29.5q43 0 67 -31q18 -22 18 -53q0 -11 -2 -22q-11 -44 -48 -74.5t-80 -30.5z" glyph-name="Idieresis" horiz-adv-x="977" unicode="Ï"/><glyph d="M305 0l9 40h284l405 1906h-540l66 308h540l405 1907h-284l8 40q599 -2 1199 -2q424 0 782 -165q342 -160 571 -450.5t308 -666.5q39 -186 39 -380q0 -214 -47 -437q-92 -427 -339 -817q-240 -377 -592 -667t-762 -450q-425 -165 -852 -165zM1513 41q96 0 191 9 q475 121 885.5 416.5t699.5 716t398 917.5q49 239 49 460q0 239 -83 558t-367.5 614.5t-706.5 417.5q-93 9 -191 9h-735q74 -19 74 -179q0 -20 -2 -52.5t-7 -63.5l-5 -31l-336 -1579h591l-65 -308h-591l-405 -1905h606z" glyph-name="Eth" horiz-adv-x="3625" unicode="Ð"/><glyph d="M927 -2h-877l8 40h419l876 4120h-419l9 40h458l1790 -3662l770 3623h-418l8 40h877l-8 -40h-419l-884 -4160h-40l-1790 3662l-770 -3623h418zM2873 4455q-45 0 -85 14q-51 21 -91 51q-22 15 -42.5 27.5t-52.5 20.5q-12 3 -25 3q-20 0 -42 -8l-19 72q38 16 76 16 q55 0 113 -32q25 -15 48 -31q37 -27 76 -43q30 -10 61 -10q48 0 98 23l22 -71q-68 -32 -137 -32z" glyph-name="Ntilde" horiz-adv-x="3586" unicode="Ñ"/><glyph d="M1982 -19q-393 0 -719 167q-313 161 -518.5 454t-271.5 673q-29 168 -29 343q0 234 52 481q92 430 327 823q227 380 557.5 673t711.5 454q397 167 790 167q392 0 719 -167q313 -161 518 -454t272 -673q29 -168 29 -343q0 -234 -52 -480q-92 -431 -327 -824 q-228 -380 -558 -673t-712 -454q-397 -167 -789 -167zM1990 21q49 0 98 3h1q424 39 816.5 322t684.5 739t416 1014q61 299 61 568q0 234 -72 567.5t-344 616.5t-680 322h-1q-48 3 -97 3t-98 -3h-1q-424 -39 -816.5 -322t-684.5 -738.5t-415 -1013.5q-61 -300 -61 -571 q0 -232 71.5 -565.5t343.5 -616t680 -322.5h1q48 -3 97 -3zM3263 4456l-635 165l65 153l515 -261l73 -18z" glyph-name="Ograve" horiz-adv-x="3972" unicode="Ò"/><glyph d="M1982 -19q-392 0 -718 167q-313 161 -518.5 454t-272.5 673q-29 167 -29 341q0 235 53 483q91 430 327 823q227 380 557 673t712 454q397 167 790 167q392 0 718 -167q313 -161 518.5 -454t272.5 -673q29 -167 29 -341q0 -235 -53 -482q-91 -431 -327 -824 q-227 -380 -557 -673t-712 -454q-397 -167 -790 -167zM1991 21q49 0 98 3h1q424 39 816.5 322t684.5 739t415 1014q62 300 62 570q0 233 -72 566t-344.5 616t-679.5 322h-1q-48 3 -97 3t-98 -3h-1q-425 -39 -817 -322t-684 -738.5t-415 -1013.5q-61 -300 -61 -571 q0 -232 71.5 -565.5t343.5 -616t680 -322.5h1q48 -3 97 -3zM2619 4456l-1 39l81 18l625 261v-153z" glyph-name="Oacute" horiz-adv-x="3972" unicode="Ó"/><glyph d="M1982 -19q-392 0 -718 167q-314 161 -519 454t-272 673q-29 168 -29 343q0 234 52 481q92 430 327 823q228 380 558 673t712 454q397 167 789 167q393 0 719 -167q313 -161 518.5 -454t271.5 -673q29 -168 29 -343q0 -234 -52 -480q-92 -431 -327 -824 q-227 -380 -557.5 -673t-711.5 -454q-397 -167 -790 -167zM1991 21q49 0 98 3h1q424 39 816.5 322t684.5 739t415 1014q61 300 61 571q0 232 -71.5 565t-344 616t-680.5 322q-48 3 -97 3t-98 -3h-1q-425 -39 -817.5 -322t-684 -738.5t-414.5 -1013.5q-62 -300 -62 -570 q0 -233 72 -566.5t344 -616t680 -322.5h1q48 -3 97 -3zM3423 4463l-463 120l-513 -120l-1 38q40 10 81 19l461 192l379 -192q37 -9 73 -19z" glyph-name="Ocircumflex" horiz-adv-x="3972" unicode="Ô"/><glyph d="M1982 -19q-392 0 -719 167q-313 161 -518.5 454t-271.5 673q-29 168 -29 343q0 234 52 481q92 430 327 823q228 380 558 673t712 454q397 167 789 167q393 0 719 -167q313 -161 518.5 -454t271.5 -673q29 -168 29 -343q0 -234 -52 -480q-92 -431 -327 -824 q-228 -380 -558 -673t-711 -454q-398 -167 -790 -167zM1991 21q49 0 98 3q425 39 817.5 322t684.5 739t415 1014q61 300 61 571q0 232 -71.5 565t-344 616t-680.5 322q-48 3 -97 3t-98 -3h-1q-425 -39 -817.5 -322t-684.5 -738.5t-415 -1013.5q-61 -300 -61 -571 q0 -232 72 -565.5t344 -616t680 -322.5h1q48 -3 97 -3zM3066 4456q-45 0 -86 14q-50 20 -90 50q-22 16 -42.5 28.5t-52.5 20.5q-13 3 -25 3q-21 0 -42 -8l-20 72q38 16 77 16q55 0 113 -32q25 -15 48 -31q36 -27 76 -43q30 -10 62 -10q47 0 97 22l22 -70q-70 -32 -137 -32z " glyph-name="Otilde" horiz-adv-x="3972" unicode="Õ"/><glyph d="M1982 -19q-392 0 -719 167q-313 161 -518.5 454t-271.5 673q-29 168 -29 343q0 234 52 481q92 430 327 823q228 380 558 673t711 454q398 167 790 167t719 -167q313 -161 518.5 -454t271.5 -673q29 -168 29 -343q0 -234 -52 -480q-92 -431 -327 -824q-228 -380 -558 -673 t-711 -454q-398 -167 -790 -167zM1990 21q49 0 98 3h1q425 39 817.5 322t684.5 739t415 1014q61 300 61 571q0 232 -72 565t-344 616t-680 322h-1q-47 3 -96 3t-98 -3h-2q-424 -39 -816.5 -322t-684.5 -738.5t-415 -1013.5q-61 -300 -61 -571q0 -232 71.5 -565.5t344 -616 t679.5 -322.5h2q47 -3 96 -3zM2748 4448q-44 0 -68 32q-17 23 -17 52q0 12 3 26q12 43 48.5 72t78.5 29q43 0 67 -30q18 -23 18 -54q0 -10 -2 -21q-10 -45 -47.5 -75.5t-80.5 -30.5zM3114 4448q-44 0 -68 32q-17 23 -17 52q0 12 3 26q12 43 48.5 72t78.5 29q43 0 68 -30 q17 -23 17 -52q0 -11 -2 -23q-10 -45 -47 -75.5t-81 -30.5z" glyph-name="Odieresis" horiz-adv-x="3972" unicode="Ö"/><glyph d="M1323 1586l-317 404l-489 -404l-102 129l489 404l-318 403l157 129l318 -403l489 403l101 -129l-489 -403l318 -404z" glyph-name="multiply" horiz-adv-x="1165" unicode="×"/><glyph d="M1982 -19q-393 0 -719 167q-180 93 -326 230l-335 -380h-48l358 405l-3 3q-90 89 -165 196q-205 293 -271 673q-29 168 -29 343q0 234 52 481q92 430 327 823q228 380 558 673t711 454q398 167 790 167t719 -167q178 -91 322 -227q1 -1 2 -1.5t1 -1.5l335 380h49 l-358 -405q92 -90 168 -199q205 -293 271 -673q29 -168 29 -343q0 -234 -52 -480q-92 -431 -327 -824q-228 -380 -558 -673t-712 -454q-397 -167 -789 -167zM1048 558l2747 3113q0 1 -0.5 2t-1.5 1q-144 217 -352 346.5t-470 152.5h-1q-48 3 -97 3t-98 -3h-1 q-424 -39 -816.5 -322t-684.5 -738.5t-415 -1013.5q-61 -298 -61 -568q0 -148 35.5 -414.5t213.5 -555.5q0 -1 1 -1.5t1 -1.5zM1990 21q49 0 98 3h1q425 39 817.5 322t684.5 739t415 1014q61 296 61 565q0 150 -36 418.5t-215 557.5l-2748 -3114q145 -218 353.5 -348.5 t470.5 -153.5h1q48 -3 97 -3z" glyph-name="Oslash" horiz-adv-x="3972" unicode="Ø"/><glyph d="M3187 4461l-635 165l65 153l515 -260l73 -19zM1840 0q-305 0 -562 119q-246 114 -410 322.5t-222 480.5q-28 133 -28 273q0 109 17 222q40 184 584 2747h-284l9 40h877l-9 -40h-431q92 0 92 -180q0 -16 -2 -48.5t-7 -65.5l-6 -33l-525 -2473l-11 -94q-8 -72 -8 -175 q0 -31 2.5 -121.5t40.5 -256t132.5 -315.5t265.5 -249t441 -112h1q25 -1 52 -1q303 0 593 114t534 314.5t414 465t238 569.5l566 2661h-418l8 40h877l-8 -40h-419l-566 -2662q-64 -303 -242 -580q-172 -271 -425 -480t-548 -323q-307 -119 -613 -119z" glyph-name="Ugrave" horiz-adv-x="3818" unicode="Ù"/><glyph d="M2528 4463l-2 39l81 19l626 260v-153zM1840 0q-305 0 -562 119q-246 114 -410 322.5t-222 480.5q-28 133 -28 273q0 109 17 222q40 184 584 2747h-284l9 40h877l-9 -40h-431q92 0 92 -180q0 -16 -2 -48.5t-7 -65.5l-6 -33l-525 -2473l-11 -94q-8 -72 -8 -175 q0 -31 2.5 -121.5t40.5 -256t132.5 -315.5t265.5 -249t441 -112h1q25 -1 52 -1q303 0 593 114t534 314.5t414 465t238 569.5l566 2661h-418l8 40h877l-8 -40h-419l-566 -2662q-64 -303 -242 -580q-172 -271 -425 -480t-548 -323q-307 -119 -613 -119z" glyph-name="Uacute" horiz-adv-x="3818" unicode="Ú"/><glyph d="M3344 4461l-462 120l-513 -120l-1 39l81 19l461 192l379 -192l73 -19zM1840 0q-305 0 -562 119q-246 114 -410 322.5t-222 480.5q-28 133 -28 273q0 109 17 222q40 184 584 2747h-284l9 40h877l-9 -40h-431q92 0 92 -180q0 -16 -2 -48.5t-7 -65.5l-6 -33l-525 -2473 l-11 -94q-8 -72 -8 -175q0 -31 2.5 -121.5t40.5 -256t132.5 -315.5t265.5 -249t441 -112h1q25 -1 52 -1q303 0 593 114t534 314.5t414 465t238 569.5l566 2661h-418l8 40h877l-8 -40h-419l-566 -2662q-64 -303 -242 -580q-172 -271 -425 -480t-548 -323q-307 -119 -613 -119 z" glyph-name="Ucircumflex" horiz-adv-x="3817" unicode="Û"/><glyph d="M2674 4460q-44 0 -68 32q-17 23 -17 52q0 12 3 26q12 43 48.5 72t78.5 29q43 0 67 -30q18 -23 18 -54q0 -10 -2 -21q-11 -45 -48 -75.5t-80 -30.5zM3040 4460q-44 0 -68 32q-17 23 -17 52q0 12 3 26q12 43 48.5 72t78.5 29q43 0 67 -30q18 -23 18 -53q0 -10 -2 -22 q-10 -45 -47.5 -75.5t-80.5 -30.5zM1841 0q-306 0 -562 119q-247 114 -411 323q-56 70 -99 149q-85 152 -123 331q-28 132 -28 270q0 110 18 225l584 2747h-285l9 40h877l-9 -40h-431q92 0 92 -180q0 -16 -2 -48.5t-7 -65.5l-5 -33l-526 -2473l-11 -94q-7 -67 -7 -161 q0 -37 2 -131.5t40.5 -260t132.5 -315.5t265.5 -249t440.5 -112l53 -1q303 0 593 114t534 314.5t414.5 465t238.5 569.5l565 2661h-418l9 40h876l-8 -40h-419l-282 -1330q-277 -1297 -283 -1332q-66 -301 -242 -580q-172 -271 -425.5 -480t-548.5 -323q-307 -119 -612 -119z " glyph-name="Udieresis" horiz-adv-x="3818" unicode="Ü"/><glyph d="M2729 0h-877l9 40h284l335 1573l-1264 2549h-281l8 40h877l-8 -40h-300q36 -15 68 -45t56 -63.5t38 -57.5l14 -24l1104 -2227l2226 2417h-396l9 40h877l-9 -40h-432l-2258 -2452l-355 -1670h284zM3069 4460l-1 38l81 19l625 260v-152z" glyph-name="Yacute" horiz-adv-x="4665" unicode="Ý"/><glyph d="M927 0h-877l9 40h284l876 4121h-285l9 40h877l-9 -40h-431q92 0 92 -180q0 -16 -2 -48.5t-7 -65.5l-5 -33l-126 -589h864q231 0 422 -87t321 -250q190 -248 190 -569q0 -118 -26 -246q-106 -475 -510 -814q-200 -164 -428 -250.5t-458 -86.5h-864l-192 -902h284z M1678 982q171 0 339.5 86.5t314 239t252.5 353.5t157 433q33 161 33 307q0 64 -13.5 195t-94.5 283.5t-212.5 239t-302.5 86.5h-827l-473 -2223h827z" glyph-name="Thorn" horiz-adv-x="2680" unicode="Þ"/><glyph d="M1637 0h-28q-198 0 -356 113q-123 94 -189 248q-62 144 -62 319v21l40 7v-16q0 -169 61 -312.5t179 -233.5q137 -100 317 -106h47q146 27 294 198.5t272 445.5t197 608q62 306 62 557q0 108 -24.5 318.5t-170.5 329.5q-37 23 -98 50q-89 39 -188 57q-49 5 -102 29t-61 92 v7q0 13 3 27q13 56 59 98.5t100 58.5l31 7l29 2q125 28 239 194.5t168 407.5q26 125 26 232q0 68 -18.5 175t-100.5 169q-55 23 -85 28q-101 28 -217 28l-43 -1q-259 -12 -521 -138l-3 -2q-11 -5 -21 -11q0 -62 -6 -111.5t-8 -58.5l-807 -3795h284l-9 -40h-877l9 40h285 l808 3800l38 31q4 2 8.5 5t10.5 10q3 1 40 28l41 28l20 13l30 18q26 18 74 43q14 9 42 22q10 7 93 45q241 103 475 113l42 1q124 0 232 -29q174 -47 288 -164q102 -108 139 -260q20 -80 20 -164q0 -75 -16 -152q-53 -227 -223 -390q-154 -145 -317 -157l-76 1q-25 2 -49 2 q-20 0 -39 -2q-60 -4 -110 -51q-48 -45 -48 -98q5 -46 45 -65t93 -27q265 -47 464 -235q197 -189 278 -466q48 -173 48 -365q0 -118 -18 -244q-49 -329 -214 -629q-126 -227 -300 -397q-186 -182 -390 -258q-119 -43 -236 -49z" glyph-name="germandbls" horiz-adv-x="2498" unicode="ß"/><glyph d="M2342 3157l-635 165l65 153l515 -260l73 -19zM2937 3h-877l8 40h284l130 611q-90 -112 -196 -210q-225 -208 -483 -322q-268 -119 -534 -119q-265 0 -483 119q-210 114 -346 322q-194 306 -194 696q0 174 38 364q137 617 606 1060q225 207 483 322q269 118 534 118 t483 -118q210 -115 346 -322q64 -99 108 -210l124 584h-284l8 40h877l-9 -40l-431 -1q92 0 92 -175q0 -19 -2 -52t-7 -66l-5 -34l-546 -2567h284zM1308 44q14 0 28.5 0.5t28.5 2.5q322 28 617 211t518 478l326 1535q-96 294 -312 476.5t-524 212.5q-3 0 -5 1l-27 1 q-3 0 -5 1h-25q-201 0 -401.5 -113.5t-376.5 -313.5t-307 -463.5t-197 -567.5q-48 -234 -48 -444q0 -63 11.5 -225.5t102 -363t243 -314.5t353.5 -114z" glyph-name="agrave" unicode="à"/><glyph d="M1635 3157l-1 39l81 19l625 260v-153zM2936 0h-877l9 40h284l130 611q-91 -112 -197 -210q-224 -208 -483 -322q-268 -119 -533 -119t-484 119q-210 114 -346 322q-194 306 -194 696q0 174 38 364q138 617 607 1059q224 208 483 323q269 118 533 118q265 0 484 -118 q209 -115 346 -323q64 -98 107 -209l124 583h-284l9 40h877l-9 -40h-431q92 0 92 -179q0 -17 -2 -49t-7 -65l-6 -34l-545 -2567h284zM1308 41q24 0 57 3q322 28 617 211t517 478l327 1535q-97 294 -312.5 476.5t-523.5 212.5l-6 1q-13 1 -27 1l-4 1h-25q-201 0 -402 -113.5 t-376.5 -313.5t-306.5 -463.5t-197 -567.5q-49 -234 -49 -445q0 -63 11.5 -225t102.5 -362.5t243 -314.5t354 -114z" glyph-name="aacute" unicode="á"/><glyph d="M2494 3157l-463 120l-513 -120l-1 39l81 19l461 191l379 -191l73 -19zM2936 0h-877l9 40h284l130 611q-91 -112 -197 -210q-224 -208 -483 -322q-267 -119 -534 -119q-264 0 -483 119q-210 114 -346 322q-194 306 -194 696q0 174 38 364q138 617 607 1059 q224 208 482 323q270 118 534 118q265 0 484 -118q209 -115 346 -323q64 -98 107 -209l124 583h-284l8 40h877l-8 -40h-431q74 0 88 -115q4 -34 4 -69q0 -14 -2 -45t-7 -64l-6 -34l-545 -2567h284zM1307 41q25 0 58 3q322 28 617 211t517 478l327 1535q-97 294 -313 476.5 t-523 212.5l-6 1q-13 1 -27 1l-4 1h-25q-202 0 -402.5 -113.5t-376 -313.5t-306.5 -463.5t-197 -567.5q-49 -234 -49 -445q0 -63 11.5 -225t102.5 -362.5t243 -314.5t353 -114z" glyph-name="acircumflex" unicode="â"/><glyph d="M2095 3157q-45 0 -86 14q-50 21 -90 51q-22 15 -42.5 27.5t-52.5 20.5q-13 3 -25 3q-21 0 -42 -8l-20 72q38 16 77 16q55 0 113 -32q25 -15 47 -31q37 -27 77 -43q30 -10 61 -10q47 0 98 23l22 -71q-70 -32 -137 -32zM2936 0h-877l9 40h284l130 611q-91 -112 -197 -210 q-224 -208 -483 -322q-268 -119 -533 -119t-484 119q-210 114 -346 322q-194 306 -194 696q0 174 38 364q138 617 607 1060q224 207 483 322q269 118 533 118q265 0 484 -118q210 -115 346 -322q64 -99 107 -210l124 584h-284l9 40h877l-9 -40h-431q92 0 92 -180 q0 -17 -2 -49t-7 -65l-6 -34l-545 -2567h284zM1308 41q27 0 57 3q322 28 617 211t517 478l327 1535q-97 294 -312.5 477t-523.5 212l-6 1q-13 1 -27 1q-2 1 -29 1q-201 0 -402 -113.5t-376.5 -313.5t-306.5 -463.5t-197 -567.5q-48 -234 -48 -444q0 -63 11.5 -225.5 t102 -362.5t242.5 -314.5t354 -114.5z" glyph-name="atilde" unicode="ã"/><glyph d="M1788 3157q-45 0 -68 32q-17 23 -17 52q0 12 3 26q12 43 48.5 72t78.5 29q43 0 67 -31q18 -22 18 -53q0 -11 -2 -22q-11 -44 -48 -74.5t-80 -30.5zM2154 3157q-44 0 -68 32q-17 23 -17 52q0 12 3 26q12 43 48.5 72t78.5 29q43 0 67 -31q18 -22 18 -53q0 -11 -2 -22 q-11 -44 -48 -74.5t-80 -30.5zM2936 0h-877l9 40h284l130 611q-91 -112 -197 -210q-225 -208 -483 -322q-267 -119 -534 -119q-264 0 -483 119q-210 114 -346 322q-194 306 -194 696q0 174 38 364q138 617 606 1060q225 207 483 322q270 118 534 118q265 0 484 -118 q209 -115 346 -322q64 -99 107 -210l124 584h-284l8 40h877l-8 -40h-431q91 0 91 -176q0 -19 -1.5 -52t-6.5 -66l-6 -34l-546 -2567h285zM1307 41q25 0 58 3q322 28 617 211t517 478l326 1535q-96 294 -312 477t-523 212l-6 1l-27 1q-2 1 -29 1q-202 0 -402.5 -113.5 t-376 -313.5t-307 -463.5t-196.5 -567.5q-49 -234 -49 -445q0 -63 11.5 -225t102.5 -362t243 -314.5t353 -114.5z" glyph-name="adieresis" unicode="ä"/><glyph d="M1935 3161q-44 0 -68 30q-17 22 -17 53q0 10 2 22q11 45 47.5 75t80.5 30q43 0 67 -30q18 -22 18 -53q0 -11 -2 -22q-11 -45 -48 -75t-80 -30zM1943 3201q27 0 50 19q31 25 31 59q0 20 -13 36t-40 16t-49.5 -18.5t-29.5 -46.5l-1 -13q0 -19 12.5 -35.5t39.5 -16.5z M2936 0h-877l9 40h284l130 611q-91 -112 -197 -210q-224 -208 -483 -322q-268 -119 -533 -119t-484 119q-210 114 -346 322q-194 306 -194 696q0 174 38 364q138 617 607 1060q224 207 483 322q269 118 533 118q265 0 484 -118q210 -115 346 -322q64 -99 107 -210l124 584 h-284l9 40h877l-9 -40h-431q92 0 92 -180q0 -17 -2 -49t-7 -65l-6 -34l-545 -2567h284zM1308 41q27 0 57 3q322 28 617 211t517 478l327 1535q-97 294 -312.5 477t-523.5 212l-6 1q-13 1 -27 1q-2 1 -29 1q-201 0 -402 -113.5t-376.5 -313.5t-306.5 -463.5t-197 -567.5 q-49 -236 -49 -449q0 -60 11.5 -221.5t102.5 -361.5t243 -314.5t354 -114.5z" glyph-name="aring" unicode="å"/><glyph d="M3717 -20q-280 0 -512 120q-279 144 -439 439l-106 -499h285l-9 -40h-877l9 40h284l130 611q-91 -112 -197 -210q-225 -208 -483 -322q-267 -119 -534 -119q-264 0 -483 119q-210 114 -346 322q-194 306 -194 696q0 174 38 364q138 617 606 1060q225 207 483 322 q270 118 534 118q265 0 484 -118q209 -115 346 -322q64 -99 107 -210l124 584h-284l8 40h877l-8 -40h-431q91 0 91 -176q0 -19 -1.5 -52t-6.5 -66l-6 -34l-32 -153q277 291 625 440q283 119 555 119q424 -7 658 -221q144 -133 213 -306q55 -133 76 -262q22 -136 22 -264 q0 -79 -4 -123l-4 -40h-2207q-52 -146 -85 -301q-48 -234 -48 -442q0 -145 40 -373t211.5 -429t434.5 -230q32 -2 64 -2l66 2q237 24 463 179.5t412 410.5l227 -86q-280 -285 -613 -426q-283 -120 -563 -120zM5020 1837q18 153 18 281q0 175 -46 351t-159 292q-1 2 -3 3 q-4 7 -43 43l-6 5q-83 70 -168 105q-139 56 -259 56h-27q-239 -12 -469.5 -160.5t-421.5 -401t-314 -574.5h1898zM1307 41q25 0 58 3q322 28 617 211t517 478l326 1535q-96 294 -312 477t-523 212l-6 1l-27 1q-2 1 -29 1q-202 0 -402.5 -113.5t-376 -313.5t-307 -463.5 t-196.5 -567.5q-49 -234 -49 -445q0 -63 11.5 -225t102.5 -362t243 -314.5t353 -114.5z" glyph-name="ae" horiz-adv-x="4926" unicode="æ"/><glyph d="M1126 -438q-52 0 -97 9l39 99q37 -7 76 -7q21 0 41 3q5 0 9 2h2q43 8 55 28l3 10q-2 16 -13 25v1q-19 18 -48 24.5t-59 8.5l-19 3q26 45 39 69t34 57q11 21 50 85q-224 19 -412 116q-222 116 -370 325q-212 315 -212 719q0 169 37 353q139 624 631 1071q236 211 508 326 q283 119 562 119q281 0 513 -119q222 -115 369 -326q18 -26 35 -55q-47 -23 -71.5 -35t-37 -18.5t-25.5 -13.5t-37 -19t-69 -35q-82 261 -251 415t-408 166h-52q-281 -15 -546.5 -213.5t-467 -528t-290.5 -735.5q-48 -232 -48 -440q0 -146 40 -374.5t211.5 -429.5 t434.5 -230h2q31 -2 62 -2q32 0 63 2h4q236 24 462 180t412 410l68 -26q69 -27 91.5 -35t67.5 -25q-52 -52 -106 -101q-235 -209 -507 -325q-283 -120 -563 -120h-11l12 -4l-75 -128q32 -12 57 -34q34 -32 34 -79q0 -14 -3 -28q-13 -62 -74 -103q-62 -37 -152 -37z" glyph-name="ccedilla" horiz-adv-x="2403" unicode="ç"/><glyph d="M1339 -17q-279 0 -512 119q-223 116 -369 326q-212 315 -212 718q0 169 37 353q139 625 631 1072q235 210 506.5 325t541.5 119v1h14q227 -4 389 -63q300 -111 440 -377q24 -43 43 -87q54 -133 75 -262q23 -142 23 -260q0 -82 -5 -127l-4 -40h-2207q-52 -146 -85 -301 q-48 -232 -48 -440q0 -146 40.5 -374.5t212 -430t433.5 -229.5q32 -2 65 -2l66 2q236 24 462 179.5t412 410.5l227 -86q-279 -285 -613 -427q-283 -119 -563 -119zM2642 1840q18 154 18 283q0 174 -46 349t-159 292l-2.5 2.5t-2.5 3.5q-20 21 -41 39l-6 6q-83 70 -168 104.5 t-154 45.5t-105 11q-12 0 -23 -1h-4q-239 -11 -469 -159.5t-421.5 -401t-314.5 -574.5h1898zM2302 3152l-635 165l65 153l515 -260l73 -19z" glyph-name="egrave" horiz-adv-x="2548" unicode="è"/><glyph d="M1339 -17q-279 0 -512 119q-223 116 -369 326q-212 315 -212 718q0 169 37 353q139 625 631 1072q235 210 506.5 325t541.5 119v1h14q227 -4 389 -63q300 -111 440 -377q24 -43 43 -87q54 -133 75 -262q23 -142 23 -260q0 -82 -5 -127l-4 -40h-2207q-52 -146 -85 -301 q-48 -232 -48 -440q0 -146 40.5 -374.5t212 -430t433.5 -229.5q32 -2 65 -2l66 2q236 24 462 179.5t412 410.5l227 -86q-279 -285 -613 -427q-283 -119 -563 -119zM2642 1840q18 154 18 283q0 174 -46 349t-159 292l-2.5 2.5t-2.5 3.5q-20 20 -41 39l-6 6q-83 70 -168 104.5 t-154 45.5t-105 11q-12 0 -23 -1h-4q-239 -11 -469 -159.5t-421.5 -401t-314.5 -574.5h1898zM1599 3152l-2 39l81 19l626 260v-153z" glyph-name="eacute" horiz-adv-x="2548" unicode="é"/><glyph d="M1339 -17q-279 0 -512 119q-223 116 -369 326q-212 315 -212 718q0 169 37 353q139 625 631 1072q235 210 506.5 325t541.5 119v1h14q227 -4 389 -63q300 -111 440 -377q24 -43 43 -87q54 -133 75 -262q23 -142 23 -260q0 -82 -5 -127l-4 -40h-2207q-52 -146 -85 -301 q-48 -232 -48 -440q0 -146 40.5 -374.5t212 -430t433.5 -229.5q32 -2 65 -2l66 2q236 24 462 179.5t412 410.5l227 -86q-279 -285 -613 -427q-283 -119 -563 -119zM2642 1840q18 154 18 283q0 174 -46 349t-159 292l-2.5 2.5t-2.5 3.5q-20 20 -41 39l-6 6q-83 70 -168 104.5 t-154 45.5t-105 11q-12 0 -23 -1h-4q-239 -11 -469 -159.5t-421.5 -401t-314.5 -574.5h1898zM2460 3153l-462 120l-513 -120l-2 39l81 19l461 192l380 -192l73 -19z" glyph-name="ecircumflex" horiz-adv-x="2549" unicode="ê"/><glyph d="M1339 -17q-279 0 -512 119q-223 116 -369 326q-212 315 -212 718q0 169 37 353q139 625 631 1072q235 210 506.5 325t541.5 119v1h14q227 -4 389 -63q300 -111 440 -377q24 -43 43 -87q54 -133 75 -262q23 -142 23 -260q0 -82 -5 -127l-4 -40h-2207q-52 -146 -85 -301 q-48 -232 -48 -440q0 -146 40.5 -374.5t212 -430t433.5 -229.5q32 -2 65 -2l66 2q236 24 462 179.5t412 410.5l227 -86q-279 -285 -613 -427q-283 -119 -563 -119zM2642 1840q18 154 18 283q0 174 -46 349t-159 292l-2.5 2.5t-2.5 3.5q-20 21 -41 39l-6 6q-83 70 -168 104.5 t-154 45.5t-105 11q-12 0 -23 -1h-4q-239 -11 -469 -159.5t-421.5 -401t-314.5 -574.5h1898zM1746 3152q-44 0 -68 32q-17 23 -17 52q0 12 3 26q12 43 48.5 72t78.5 29q43 0 67 -31q18 -22 18 -52q0 -10 -2 -22q-10 -45 -47.5 -75.5t-80.5 -30.5zM2113 3152q-45 0 -69 32 q-16 22 -16 51q0 13 3 27q11 43 48 72t79 29q43 0 67 -31q18 -22 18 -53q0 -10 -2 -21q-11 -45 -48 -75.5t-80 -30.5z" glyph-name="edieresis" horiz-adv-x="2549" unicode="ë"/><glyph d="M926 -3h-877l8 40h285l616 2900h-284l8 40h877l-8 -40h-431q74 0 88 -115q4 -34 4 -69q0 -14 -2 -45t-7 -64l-6 -34l-547 -2573h284zM1488 3152l-635 165l65 153l515 -260l73 -19z" glyph-name="igrave" horiz-adv-x="977" unicode="ì"/><glyph d="M927 -3h-877l8 40h284l617 2900h-284l8 40h877l-8 -40h-431q91 0 91 -175q0 -19 -2 -52t-7 -66l-5 -34l-547 -2573h284zM829 3152l-2 39l81 19l626 260v-153z" glyph-name="iacute" horiz-adv-x="977" unicode="í"/><glyph d="M927 -3h-877l8 40h284l617 2900h-284l8 40h877l-8 -40h-431q91 0 91 -175q0 -19 -2 -52t-7 -66l-5 -34l-547 -2573h284zM1646 3152l-462 120l-513 -120l-1 39l81 19l461 191l379 -191l73 -19z" glyph-name="icircumflex" horiz-adv-x="977" unicode="î"/><glyph d="M926 -3h-877l9 40h284l617 2900h-284l8 40h877l-9 -40h-430q91 0 91 -175q0 -19 -2 -52t-7 -66l-5 -34l-547 -2573h284zM976 3153q-45 0 -69 32q-16 22 -16 50q0 13 3 27q11 43 48 72.5t78 29.5q44 0 68 -31q18 -22 18 -53q0 -11 -2 -22q-11 -44 -48 -74.5t-80 -30.5z M1342 3153q-45 0 -68 32q-17 23 -17 52q0 12 3 25q12 43 48.5 72.5t78.5 29.5q43 0 67 -31q18 -22 18 -53q0 -11 -2 -22q-11 -44 -48 -74.5t-80 -30.5z" glyph-name="idieresis" horiz-adv-x="977" unicode="ï"/><glyph d="M1338 -25q-280 0 -512 119q-223 116 -370 326q-212 315 -212 718q0 169 37 353q139 625 631 1072q235 210 507 325q284 120 563 120q280 0 512 -120q74 -38 140 -87q-81 294 -250 465l-114 -110h-52l140 135q-111 101 -270 144l18 38l45 -6q45 -6 120 -28.5t167 -70.5 l109 106h52l-128 -124q112 -63 226 -178.5t206.5 -298t141.5 -448.5q35 -196 35 -445q0 -89 -4 -184q-2 -66 -10 -134v-3q-9 -83 -27 -168q-139 -624 -631 -1071q-236 -210 -508 -326q-283 -119 -562 -119zM1346 15l66 2q272 28 527.5 226.5t449.5 518.5q255 420 308 906 q18 166 21 408q-23 259 -116 456t-246 311.5t-356 123.5l-26 1l-27 -1q-280 -14 -545.5 -213t-467 -528t-291.5 -735q-48 -232 -48 -440q0 -146 40.5 -374.5t212 -430t433.5 -229.5h1q32 -2 64 -2z" glyph-name="eth" horiz-adv-x="2686" unicode="ð"/><glyph d="M2828 -6h-877l8 40h284l542 2548q11 55 11 122q0 57 -17 114t-71 88q-33 20 -84 20q-32 0 -72 -8q-32 -8 -64 -19h-1q-267 -89 -550 -390q-326 -347 -659 -953q-204 -378 -350 -711t-218 -525l-61 -286h285l-9 -40h-877l9 40h284l616 2900h-284l9 40h877l-9 -40h-431 q92 0 92 -180q0 -16 -2 -48t-7 -65l-6 -34l-439 -2067q210 518 486 1028q336 612 666 964q420 444 805 444q88 0 150 -22q91 -33 138 -92q82 -103 84 -248q0 -59 -4 -88l-530 -2492h284zM2239 3137q-45 0 -85 14q-51 21 -91 51q-22 15 -42.5 27.5t-52.5 20.5q-12 3 -25 3 q-20 0 -42 -8l-19 72q38 16 76 16q55 0 113 -32q25 -15 48 -31q37 -27 76 -43q30 -10 61 -10q48 0 98 23l22 -71q-68 -32 -137 -32z" glyph-name="ntilde" horiz-adv-x="2879" unicode="ñ"/><glyph d="M1339 -17q-279 0 -512 119q-223 116 -369 326q-212 315 -212 718q0 169 37 353q139 625 631 1072q235 210 507 325q283 120 563 120t512 -120q223 -115 369 -325q213 -315 213 -719q0 -169 -37 -353q-140 -624 -631 -1071q-236 -210 -508 -326q-283 -119 -563 -119z M1348 23l66 2q274 28 531 229.5t451.5 525t281.5 719.5q48 234 48 442q0 153 -44 387.5t-225 433.5t-455 213l-27 1l-26 -1q-281 -14 -546.5 -213t-467 -528t-290.5 -735q-48 -232 -48 -440q0 -146 40.5 -374.5t212 -430t433.5 -229.5q32 -2 65 -2zM2343 3154l-635 165 l65 153l515 -260l73 -19z" glyph-name="ograve" horiz-adv-x="2686" unicode="ò"/><glyph d="M1339 -17q-279 0 -512 119q-223 116 -369 326q-212 315 -212 718q0 169 37 353q139 625 631 1072q235 210 507 325q283 120 563 120t512 -120q223 -115 369 -325q213 -315 213 -719q0 -169 -37 -353q-140 -624 -631 -1071q-236 -210 -508 -326q-283 -119 -563 -119z M1348 23l66 2q274 28 531 229.5t451.5 525t281.5 719.5q48 234 48 442q0 153 -44 387.5t-225 433.5t-455 213l-27 1l-26 -1q-281 -14 -546.5 -213t-467 -528t-290.5 -735q-48 -232 -48 -440q0 -146 40.5 -374.5t212 -430t433.5 -229.5q32 -2 65 -2zM1683 3154l-1 39l81 19 l625 260v-153z" glyph-name="oacute" horiz-adv-x="2686" unicode="ó"/><glyph d="M1339 -17q-279 0 -512 119q-223 116 -369 326q-212 315 -212 718q0 169 37 353q139 625 631 1072q235 210 507 325q283 120 563 120t512 -120q223 -115 369 -325q213 -315 213 -719q0 -169 -37 -353q-140 -624 -631 -1071q-236 -210 -508 -326q-283 -119 -563 -119z M1348 23l66 2q274 28 531 229.5t451.5 525t281.5 719.5q48 234 48 442q0 153 -44 387.5t-225 433.5t-455 213l-27 1l-26 -1q-281 -14 -546.5 -213t-467 -528t-290.5 -735q-48 -232 -48 -440q0 -146 40.5 -374.5t212 -430t433.5 -229.5q32 -2 65 -2zM2501 3152l-462 121 l-514 -121l-1 39l81 19l461 192l380 -192l73 -19z" glyph-name="ocircumflex" horiz-adv-x="2686" unicode="ô"/><glyph d="M1339 -17q-279 0 -512 119q-223 116 -369 326q-212 315 -212 718q0 169 37 353q139 625 631 1072q235 210 507 325q283 120 563 120t512 -120q223 -115 369 -325q213 -315 213 -719q0 -169 -37 -353q-140 -624 -631 -1071q-236 -210 -508 -326q-283 -119 -563 -119z M1348 23l66 2q274 28 531 229.5t451.5 525t281.5 719.5q48 234 48 442q0 153 -44 387.5t-225 433.5t-455 213l-27 1l-26 -1q-281 -14 -546.5 -213t-467 -528t-290.5 -735q-48 -232 -48 -440q0 -146 40.5 -374.5t212 -430t433.5 -229.5q32 -2 65 -2zM2146 3154q-91 0 -176 64 q-22 16 -42.5 28t-52.5 21q-12 3 -25 3q-20 0 -42 -8l-19 72q38 16 76 16q55 0 113 -32q25 -15 48 -31q37 -27 76 -43q31 -10 62 -10q47 0 97 22l22 -71q-69 -31 -137 -31z" glyph-name="otilde" horiz-adv-x="2686" unicode="õ"/><glyph d="M1339 -17q-279 0 -512 119q-223 116 -369 326q-212 315 -212 718q0 169 37 353q139 625 631 1072q235 210 507 325q283 120 563 120t512 -120q223 -115 369 -325q213 -315 213 -719q0 -169 -37 -353q-140 -624 -631 -1071q-236 -210 -508 -326q-283 -119 -563 -119z M1348 23l66 2q274 28 531 229.5t451.5 525t281.5 719.5q48 234 48 442q0 153 -44 387.5t-225 433.5t-455 213l-27 1l-26 -1q-281 -14 -546.5 -213t-467 -528t-290.5 -735q-48 -232 -48 -440q0 -146 40.5 -374.5t212 -430t433.5 -229.5q32 -2 65 -2zM1829 3146q-45 0 -69 32 q-16 22 -16 51q0 13 3 27q12 43 48.5 72t78.5 29q43 0 67 -30q18 -23 18 -54q0 -10 -2 -21q-11 -45 -48 -75.5t-80 -30.5zM2195 3146q-44 0 -68 32q-17 23 -17 52q0 12 3 26q12 43 48.5 72t78.5 29q43 0 67 -30q18 -23 18 -54q0 -10 -2 -21q-11 -45 -48 -75.5t-80 -30.5z " glyph-name="odieresis" horiz-adv-x="2686" unicode="ö"/><glyph d="M1867 2013h-1389l39 183h1388zM1254 2396q-52 0 -79 36q-21 26 -21 63q0 12 2 25q13 52 56 87.5t94 35.5t79 -35q21 -27 21 -62q0 -12 -3 -26q-12 -53 -55 -88.5t-94 -35.5zM1078 1569q-51 0 -79 35q-21 27 -21 62q0 12 3 26q12 53 55 88.5t94 35.5t79 -36q21 -26 21 -63 q0 -12 -2 -25q-13 -52 -56 -87.5t-94 -35.5z" glyph-name="divide" horiz-adv-x="1489" unicode="÷"/><glyph d="M1336 -32q-279 0 -512 120q-84 43 -157 100l-28 23q-23 20 -45 41q-113 -129 -227 -257h-48l249 282q-62 62 -113 136q-213 315 -213 718q0 169 38 354q139 624 631 1071q235 210 507 326q283 119 563 119q279 0 512 -119q127 -66 230 -163l228 258h48l-251 -284 q22 -21 42 -44q43 -50 72 -93q213 -315 213 -717q0 -169 -38 -354q-139 -625 -631 -1072q-235 -210 -507 -325q-283 -120 -563 -120zM716 444l1867 2117q-94 182 -242.5 286.5t-341.5 113.5h-53q-281 -15 -546.5 -213.5t-467 -528t-290.5 -735.5q-48 -230 -48 -438 q0 -68 13 -233.5t109 -368.5zM1345 8l65 2q275 29 532 230t451.5 524.5t281.5 719.5q48 226 48 432q0 39 -6 178t-75 332q-18 52 -41 100l-1868 -2117q15 -29 31 -56q194 -310 516 -343q32 -2 65 -2z" glyph-name="oslash" horiz-adv-x="2686" unicode="ø"/><glyph d="M2440 3154l-634 165l64 153l515 -260l73 -19zM796 -8q-88 0 -150 22q-125 47 -171.5 139t-49.5 177l-1 51q0 44 4 61l531 2500h-284l9 40h877l-9 -40h-431q70 0 87 -104q5 -33 5 -68q0 -57 -6 -104q-5 -36 -8 -48l-469 -2206q-16 -81 -16 -150q0 -8 0.5 -37t16 -76 t51.5 -78t101 -31q33 0 75 10l65 19q266 89 550 390q326 348 658 953q331 611 569 1236l62 294h-285l9 40h877l-9 -40h-431q41 0 62 -31q31 -48 31 -148q0 -54 -8 -105q-4 -27 -554 -2618h285l-9 -40h-431q-57 4 -93 41t-36 94q0 17 4 37l479 2257q-211 -522 -486 -1029 q-336 -612 -666 -964q-421 -444 -805 -444z" glyph-name="ugrave" horiz-adv-x="2880" unicode="ù"/><glyph d="M1780 3154l-1 39l81 19l625 260v-153zM796 -8q-88 0 -150 22q-125 47 -171.5 139t-49.5 177l-1 51q0 44 4 61l531 2500h-284l9 40h877l-9 -40h-431q70 0 87 -104q5 -33 5 -68q0 -57 -6 -104q-5 -36 -8 -48l-469 -2206q-16 -81 -16 -150q0 -8 0.5 -37t16 -76t51.5 -78 t101 -31q33 0 75 10l65 19q266 89 550 390q326 348 658 953q331 611 569 1236l62 294h-285l9 40h877l-9 -40h-431q41 0 62 -31q31 -48 31 -148q0 -54 -8 -105q-4 -27 -554 -2618h285l-9 -40h-431q-57 4 -93 41t-36 94q0 17 4 37l479 2257q-211 -522 -486 -1029 q-336 -612 -666 -964q-421 -444 -805 -444z" glyph-name="uacute" horiz-adv-x="2879" unicode="ú"/><glyph d="M2598 3154l-462 120l-513 -120l-1 39l81 19l461 191l379 -191l73 -19zM796 -8q-88 0 -150 22q-125 47 -171.5 139t-49.5 177l-1 51q0 44 4 61l531 2500h-284l9 40h877l-9 -40h-431q70 0 87 -104q5 -33 5 -68q0 -57 -6 -104q-5 -36 -8 -48l-469 -2206q-16 -81 -16 -150 q0 -8 0.5 -37t16 -76t51.5 -78t101 -31q33 0 75 10l65 19q266 89 550 390q326 348 658 953q331 611 569 1236l62 294h-285l9 40h877l-9 -40h-431q41 0 62 -31q31 -48 31 -148q0 -54 -8 -105q-4 -27 -554 -2618h285l-9 -40h-431q-57 4 -93 41t-36 94q0 17 4 37l479 2257 q-211 -522 -486 -1029q-336 -612 -666 -964q-421 -444 -805 -444z" glyph-name="ucircumflex" horiz-adv-x="2880" unicode="û"/><glyph d="M1927 3154q-45 0 -68 32q-17 23 -17 52q0 12 3 26q12 43 48.5 72t78.5 29q43 0 67 -31q18 -22 18 -53q0 -10 -2 -21q-11 -45 -48 -75.5t-80 -30.5zM2293 3154q-44 0 -68 32q-17 23 -17 52q0 12 3 26q12 43 48.5 72t78.5 29q43 0 67 -31q18 -22 18 -53q0 -10 -2 -21 q-11 -45 -48 -75.5t-80 -30.5zM796 -8q-88 0 -150 22q-125 47 -171.5 139t-49.5 177l-1 51q0 44 4 61l531 2500h-284l9 40h877l-9 -40h-431q70 0 87 -104q5 -33 5 -68q0 -57 -6 -104q-5 -36 -8 -48l-469 -2206q-16 -81 -16 -150q0 -8 0.5 -37t16 -76t51.5 -78t101 -31 q33 0 75 10l65 19q266 89 550 390q326 348 658 953q331 611 569 1236l62 294h-285l9 40h877l-9 -40h-431q41 0 62 -31q31 -48 31 -148q0 -54 -8 -105q-4 -27 -554 -2618h285l-9 -40h-431q-57 4 -93 41t-36 94q0 17 4 37l479 2257q-211 -522 -486 -1029q-336 -612 -666 -964 q-421 -444 -805 -444z" glyph-name="udieresis" horiz-adv-x="2879" unicode="ü"/><glyph d="M-233 -1537q-42 0 -65 4t-25 5l142 321l72 -21q71 -22 181 -36q46 -6 94 -6q66 0 160.5 14.5t195.5 90.5q457 364 933 1173q-222 1467 -442 2935h-259l9 40h877l-9 -40l-431 -1q71 0 122 -103q38 -76 59 -172l9 -52l325 -2155l1429 2483h-414l8 40h877l-8 -40h-420 l-1683 -2923q-347 -602 -709 -981q-291 -303 -579 -451q-102 -52 -187 -79t-151 -36.5t-111 -9.5zM2021 3152l-2 38l81 19l626 260v-152z" glyph-name="yacute" horiz-adv-x="3031" unicode="ý"/><glyph d="M536 -1229h-877l8 40h285l1136 5348h-284l9 40h876l-8 -40h-431q92 0 92 -180q0 -16 -2 -48.5t-7 -65.5l-6 -33l-316 -1488q91 112 197 210q224 208 483 322q268 119 533 119t484 -119q209 -114 346 -322q194 -306 194 -696q0 -174 -38 -364q-138 -617 -607 -1060 q-224 -207 -483 -322q-269 -118 -533 -118q-266 0 -484 118q-210 115 -346 322q-64 99 -107 210l-390 -1833h284zM1565 35q201 0 402 114t376.5 314.5t307 464.5t197.5 568q48 234 48 443q0 63 -11.5 225.5t-102.5 362t-243 313.5t-354 114l-29 -1q-17 -2 -34 -2 q-320 -30 -613.5 -213t-514.5 -476l-327 -1535q97 -295 314.5 -478t527.5 -212z" glyph-name="thorn" horiz-adv-x="2856" unicode="þ"/><glyph d="M-233 -1537q-63 0 -90 9l142 321l72 -21q72 -22 181 -36q47 -6 95 -6q66 0 160 14.5t195 90.5q457 364 933 1173l-442 2935h-258l8 40h877l-8 -40l-431 -1q71 0 122 -103q36 -73 58 -172l10 -52l324 -2155l1429 2483h-414l9 40h877l-9 -40h-420l-1683 -2923 q-346 -602 -708 -981q-291 -303 -579 -451q-103 -52 -187.5 -79t-151 -36.5t-111.5 -9.5zM2123 3152q-45 0 -68 32q-17 23 -17 52q0 12 3 25q12 43 48.5 72.5t78.5 29.5q43 0 67 -31q18 -23 18 -54q0 -10 -2 -21q-11 -44 -48 -74.5t-80 -30.5zM2489 3152q-44 0 -68 32 q-17 23 -17 52q0 12 3 25q12 43 48.5 72.5t78.5 29.5q43 0 67 -31q18 -23 18 -54q0 -10 -2 -21q-11 -44 -48 -74.5t-80 -30.5z" glyph-name="ydieresis" horiz-adv-x="3032" unicode="ÿ"/><glyph d="M1390 3152l-635 165l64 153l515 -260l73 -19z" glyph-name="gravecomb" horiz-adv-x="779" unicode="̀"/><glyph d="M729 3152l-1 39l81 19l625 260v-153z" glyph-name="acutecomb" horiz-adv-x="779" unicode="́"/><glyph d="M1705 3152l-462 120l-513 -120l-1 39l81 19l461 192l379 -192l73 -19z" glyph-name="uni0302" horiz-adv-x="1095" unicode="̂"/><glyph d="M1115 3149q-45 0 -86 14q-50 20 -90 50q-50 36 -95 49q-13 3 -25 3q-21 0 -42 -8l-20 72q38 16 77 16q55 0 113 -32q25 -15 48 -31q36 -27 76 -43q30 -10 62 -10q47 0 97 22l22 -71q-68 -31 -137 -31z" glyph-name="tildecomb" horiz-adv-x="626" unicode="̃"/><glyph d="M1491 3152h-771l30 140h771z" glyph-name="uni0304" horiz-adv-x="871" unicode="̄"/><glyph d="M828 3152q-44 0 -68 32q-17 23 -17 52q0 12 3 26q12 43 48.5 72t78.5 29q43 0 67 -30q18 -23 18 -54q0 -10 -2 -21q-11 -44 -48 -75t-80 -31z" glyph-name="uni0307" horiz-adv-x="313" unicode="̇"/><glyph d="M827 3152q-44 0 -68 32q-17 23 -17 52q0 12 3 26q12 43 48.5 72t78.5 29q43 0 67 -30q18 -23 18 -54q0 -10 -2 -21q-11 -44 -48 -75t-80 -31zM1193 3152q-44 0 -68 32q-17 23 -17 52q0 12 3 26q12 43 48.5 72t78.5 29q43 0 67 -30q18 -23 18 -53q0 -10 -2 -22 q-10 -44 -47 -75t-81 -31z" glyph-name="uni0308" horiz-adv-x="679" unicode="̈"/><glyph d="M825 3153q-43 0 -67 30q-18 23 -18 53q0 11 2 22q11 45 47.5 75t80.5 30t67 -30q18 -22 18 -53q0 -11 -2 -22q-11 -45 -47.5 -75t-80.5 -30zM834 3193q27 0 49.5 18.5t29.5 46.5l1 13q0 20 -13 36t-40 16t-49.5 -18.5t-29.5 -46.5l-1 -13q0 -20 13 -36t40 -16z" glyph-name="uni030A" horiz-adv-x="310" unicode="̊"/><glyph d="M1217 3152l-379 192l-73 19l17 39l463 -120l513 120l1 -39l-81 -19z" glyph-name="uni030C" horiz-adv-x="1094" unicode="̌"/><glyph d="M71 -359q-52 0 -96 10l39 98q32 -6 67 -6q29 0 51 2l10 2q16 3 33 10q24 10 24 28q0 13 -12 25v1q-18 17 -46.5 23.5t-57.5 9.5l-22 3l137 238l87 -35l-23 -40h-1l-51 -88q32 -12 57 -34q34 -32 34 -80q0 -62 -55 -113q-11 -10 -23 -17q-58 -34 -125 -36z" glyph-name="uni0327" horiz-adv-x="403" unicode="̧"/><glyph d="M912 3280q-37 0 -78.5 23t-50.5 86q-1 11 -1 24q0 29 15 83l21 51q20 50 73 128q32 47 79 97h1q49 51 117 96l18 -31q-56 -48 -106 -103l-3 -3q-44 -47 -58 -81q-5 -11 -5 -21q0 -35 58 -35q19 0 34 -5q61 -23 77 -85q4 -17 4 -33q0 -49 -35.5 -103.5t-106.5 -79.5 q-28 -8 -53 -8z" glyph-name="quoteleft" horiz-adv-x="446" unicode="‘"/><glyph d="M877 3277l-17 32q81 69 140 143q31 40 31 64q0 10 -6.5 19.5t-20.5 12.5t-32 3.5t-33 4.5q-60 23 -77 86q-3 16 -3 32q0 48 35 103t106 80q29 8 55 8q36 0 77 -22.5t50 -85.5q1 -11 1 -25q0 -29 -15 -83l-20 -50q-20 -50 -74 -128q-32 -48 -79 -97q-49 -51 -118 -97z" glyph-name="quoteright" horiz-adv-x="446" unicode="’"/><glyph d="M122 -275l-18 32q56 48 106 102l3 4q45 49 58 81q5 11 5 21t-6.5 19t-21 12t-32 3.5t-32.5 4.5q-61 23 -77 86q-4 17 -4 33q0 48 35.5 102.5t106.5 79.5q29 8 55 8q36 0 77 -22.5t50 -85.5q1 -11 1 -25q0 -29 -15 -83l-20 -50q-21 -50 -74 -128q-32 -48 -79 -97h-1 q-49 -51 -117 -97z" glyph-name="quotesinglbase" horiz-adv-x="446" unicode="‚"/><glyph d="M912 3277q-37 0 -78.5 23t-50.5 86q-1 11 -1 24q0 29 15 84l20 50q20 50 74 128q32 48 79 97q49 51 118 97l17 -32q-56 -48 -105 -103q-4 -2 -35 -41t-31 -63q0 -10 6.5 -19.5t20.5 -12.5t32 -3.5t33 -5.5q60 -23 77 -85q3 -16 3 -32q0 -48 -35 -103t-106 -81 q-28 -8 -53 -8zM1330 3277q-37 0 -78.5 23t-50.5 86q-1 11 -1 24q0 29 15 84l21 50q20 50 73 128q32 48 79 97h1q49 51 117 97l18 -32q-56 -48 -106 -103l-3 -3q-44 -47 -58 -81q-5 -11 -5 -21q0 -9 6.5 -18.5t21 -12.5t32 -3.5t32.5 -5.5q61 -23 78 -85q3 -16 3 -31 q0 -49 -35.5 -104t-106.5 -81q-28 -8 -53 -8z" glyph-name="quotedblleft" horiz-adv-x="865" unicode="“"/><glyph d="M877 3277l-17 32q56 48 105 102q15 15 35 41q31 40 31 64q0 10 -6 19.5t-20.5 12.5t-30.5 4q-20 0 -34 4q-61 23 -78 86q-3 16 -3 32q0 48 35 103t107 80q28 8 54 8q36 0 77 -22.5t51 -85.5q1 -10 1 -22q0 -29 -16 -86l-20 -50q-20 -50 -74 -128q-31 -48 -79 -97 q-49 -51 -118 -97zM1296 3277l-18 32q56 48 106 102l3 4q63 67 63 102q0 25 -27 31q-15 3 -32.5 3.5t-32.5 4.5q-61 23 -78 86q-3 16 -3 32q0 48 35.5 103t106.5 80q28 8 54 8q36 0 77 -22.5t51 -85.5q1 -10 1 -22q0 -29 -16 -86l-20 -50q-20 -50 -73 -128q-32 -48 -80 -97 q-49 -51 -117 -97z" glyph-name="quotedblright" horiz-adv-x="865" unicode="”"/><glyph d="M122 -275l-18 32q56 48 106 102l3 4q45 49 58 81q5 11 5 21t-6.5 19t-21 12t-32 3.5t-32.5 4.5q-61 23 -77 86q-4 17 -4 33q0 48 35.5 102.5t106.5 79.5q29 8 55 8q36 0 77 -22.5t50 -85.5q1 -11 1 -25q0 -29 -15 -83l-20 -50q-21 -50 -74 -128q-32 -48 -79 -97h-1 q-49 -51 -117 -97zM540 -275l-17 32q78 67 140 143q31 39 31 64q0 10 -6.5 19.5t-20.5 12.5t-32 3.5t-32 4.5q-61 23 -78 86q-3 16 -3 32q0 48 35 103t107 80q28 8 54 8q36 0 77 -22.5t50 -85.5l1 -12v-13q0 -29 -15 -83l-20 -50q-20 -50 -74 -128q-32 -48 -79 -97 q-49 -51 -118 -97z" glyph-name="quotedblbase" horiz-adv-x="865" unicode="„"/><glyph d="M1682 -16q-276 0 -496 168q-209 162 -334 455q-150 365 -150 819q0 250 45 527h-282l9 40h280q15 90 45 211h-281l9 40h282q204 781 678 1347q249 293 527 454q291 168 567 168q277 0 496 -168q85 -65 157 -154l-160 -122q-83 190 -210 295t-292 105q-197 0 -403 -148.5 t-396 -411t-346 -611t-257 -754.5h396l-8 -40h-398q-32 -140 -44 -211h397l-8 -40h-397q-65 -368 -65 -689q0 -245 38 -470t122 -400.5t207 -272t281 -96.5q162 0 330 101t330 285l176 -58q-135 -118 -277 -201q-291 -168 -568 -168z" glyph-name="Euro" horiz-adv-x="2502" unicode="€"/><glyph d="M991 3430h-40l86 402h-172l8 40h384l-8 -40h-172zM1818 3430h-40l78 366l-283 -366h-45l-127 366l-78 -366h-40l94 442h43l139 -401l310 401h43z" glyph-name="trademark" horiz-adv-x="1139" unicode="™"/><glyph d="M545 -20q-143 0 -244 92q-126 118 -126 332q0 89 22 191q27 130 88 272q137 316 373 567q226 238 486 361q265 125 555 125q203 0 409 -62q218 -68 385 -293q59 54 120 104l-330 2141l227 391h42l357 -2316l48 31q343 204 641 204q216 0 376 -116l-28 -34 q-155 111 -360 111q-301 0 -672 -235l279 -1806h284l-9 -40h-877l9 40h264l-120 781q-81 401 -245 657l-6 9q-6 10 -13 19q-253 -235 -479 -472q-3 -4 -12 -13q-237 -249 -480 -477.5t-501 -394.5q-270 -169 -463 -169zM779 139q116 0 267 78q239 163 466 379t450 449 q237 250 497 491q-160 218 -370 283q-203 62 -399 62q-41 0 -80 -2h26l-59 -13q-59 -14 -155.5 -54t-211.5 -117t-231 -203.5t-213.5 -312.5t-157.5 -443l-6 -30q-34 -161 -34 -270v-59q0 -57 28.5 -121t76.5 -90.5t106 -26.5zM2687 1190l-68 437q-53 -44 -105 -91 q101 -150 173 -346z" glyph-name="uniE009" horiz-adv-x="3598" unicode=""/><glyph d="M1604 -1218q-99 0 -99 81q0 23 9 51q-110 51 -136 172l-23 -1q-33 0 -56 14q-33 20 -33 67q0 18 5 39q17 77 73 106q29 14 62 14l22 -2q78 121 210 172q4 47 29 83q39 50 117 50q99 0 99 -81q0 -24 -9 -52q110 -51 136 -172l23 2q33 0 56 -14q32 -21 32 -68q0 -17 -4 -38 q-17 -78 -73 -106q-29 -14 -62 -14l-22 1q-78 -121 -210 -172q-4 -47 -29 -82q-39 -50 -117 -50zM1900 -854q22 2 40 18q24 23 24 54q0 16 -9 30t-30 15q-67 -23 -134 -58q52 -35 109 -59zM1766 -767q108 58 202 82q-24 96 -110 140q-43 -89 -122 -184q24 -12 30 -38z M1637 -1064q23 0 43 14t26 35q-10 61 -33 123q-49 -62 -84 -123l-1 -7q0 -16 12.5 -29t36.5 -13zM1687 -827q13 0 24 9q15 13 15 29q0 9 -6 17t-19 8t-24 -9q-15 -12 -15 -28q0 -10 6 -18t19 -8zM1715 -699q47 60 84 122l1 8q0 16 -12.5 29t-36.5 13q-23 0 -43 -14t-26 -36 q10 -62 33 -122zM1828 -520q15 34 15 59q0 10 -3 19q-10 30 -65 30t-76.5 -29.5t-21.5 -78.5q37 33 83 33q45 0 68 -33zM1634 -767q17 26 46 38q-38 95 -43 184q-106 -44 -170 -140q84 -24 167 -82zM1463 -854q67 24 134 59q-52 35 -109 58q-22 -2 -39 -18q-25 -23 -25 -54 q0 -16 9 -29.5t30 -15.5zM1366 -875q16 0 36 4q-19 22 -19 54q0 11 2 22q12 46 49 75q-19 4 -37 4q-23 0 -41 -8q-34 -17 -45 -71q-4 -17 -4 -31q0 -29 17 -39t42 -10zM1530 -1046q45 92 122 185q-24 11 -30 37q-108 -58 -202 -82q24 -96 110 -140zM1613 -1178q55 0 76 29 t21 78q-37 -33 -82 -33t-68 33q-15 -34 -15 -59q0 -10 3 -19q10 -29 65 -29zM1751 -1046q105 44 170 140q-84 24 -167 82q-17 -26 -46 -37q38 -93 43 -185zM1989 -875q24 0 43 9q34 16 45 71q4 17 4 30q0 29 -19 41q-15 8 -38 8q-17 0 -38 -4q19 -22 19 -54q0 -10 -2 -21 q-12 -47 -49 -76q18 -4 35 -4zM3847 0h-877l8 40h264l-128 834h-2110l-483 -834h415l-9 -40h-877l9 40h420l2409 4161h43l640 -4161h284zM3108 914l-437 2838l-1643 -2838h2080z" glyph-name="uniE010" horiz-adv-x="3897" unicode=""/><glyph d="M1118 -1218q-100 0 -100 79q0 24 10 53q-110 51 -136 172l-23 -1q-33 0 -57 14q-32 20 -32 66q0 18 5 40q16 77 72 106q29 14 62 14l23 -2q77 121 209 172q4 47 30 83q39 50 117 50q99 0 99 -81q0 -24 -9 -52q110 -51 136 -172l23 2q33 0 56 -14q32 -21 32 -68 q0 -17 -4 -38q-17 -78 -73 -106q-29 -14 -62 -14l-23 1q-77 -121 -209 -172q-4 -47 -30 -82q-39 -50 -116 -50zM1414 -854q22 2 40 18q24 22 24 55q0 15 -9 29t-30 15q-68 -23 -134 -58q52 -35 109 -59zM1280 -767q107 58 202 82q-24 96 -110 140q-43 -89 -122 -184 q23 -12 30 -38zM1151 -1064q23 0 42.5 14t26.5 35q-10 61 -33 123q-49 -62 -85 -123v-5q0 -18 12.5 -31t36.5 -13zM1201 -827q13 0 24 9q15 12 15 30q0 9 -6.5 16.5t-19.5 7.5t-24 -9q-15 -12 -15 -29q0 -9 6.5 -17t19.5 -8zM1228 -699q48 60 85 122l1 8q0 16 -13 29t-36 13 q-24 0 -43.5 -14t-26.5 -36q11 -62 33 -122zM1342 -520q14 35 14 60q0 10 -2 18q-10 30 -65 30t-76.5 -29.5t-21.5 -78.5q37 33 82 33q46 0 69 -33zM1148 -767q17 26 46 38q-39 95 -44 184q-105 -44 -169 -140q84 -24 167 -82zM976 -854q68 24 135 59q-52 35 -110 58 q-21 -2 -38 -18q-26 -23 -26 -55q0 -15 9 -28.5t30 -15.5zM879 -875q17 0 37 4q-19 22 -19 53q0 11 2 23q11 46 49 75q-20 4 -37 4q-23 0 -42 -8q-33 -17 -44 -71q-4 -17 -4 -31q0 -29 17 -39t41 -10zM1044 -1046q44 92 121 185q-23 11 -29 37q-108 -58 -202 -82 q23 -96 110 -140zM1126 -1178q55 0 78 29q20 29 20 78q-37 -33 -82 -33t-68 33q-15 -35 -15 -60q0 -10 2 -18q10 -29 65 -29zM1265 -1046q105 44 170 140q-85 24 -167 82q-18 -26 -46 -37q37 -93 43 -185zM1502 -875q25 0 44 9q33 16 45 71q3 16 3 29q0 30 -18 42 q-15 8 -39 8q-17 0 -38 -4q19 -22 19 -52q0 -11 -2 -23q-11 -47 -49 -76q19 -4 35 -4zM50 0l8 40h285l876 4121h-285l9 40h1768q223 -5 380.5 -114t225.5 -291q41 -110 41 -235q0 -82 -18 -172q-64 -277 -264 -484.5t-469 -290.5q482 -34 762 -380q215 -282 215 -646 q0 -134 -29 -279q-121 -540 -580 -925q-226 -186 -485 -284.5t-521 -98.5zM2387 2617q121 9 240 114.5t212.5 279t139.5 386.5q31 150 31 278q0 114 -38.5 265.5t-176.5 213.5q-45 6 -92 7h-1323q92 0 92 -180q0 -16 -2 -48.5t-7 -65.5l-5 -34l-259 -1216h1188zM1827 41 q312 18 595.5 189.5t488.5 452t282 624.5q31 155 31 297q0 502 -342 782q-211 172 -515 191h-1176l-540 -2536h1176z" glyph-name="uniE011" horiz-adv-x="3243" unicode=""/><glyph d="M1765 -1218q-100 0 -100 79q0 24 10 53q-110 51 -136 172l-23 -1q-33 0 -57 14q-32 20 -32 66q0 18 5 40q16 77 72 106q29 14 62 14l23 -2q77 121 209 172q4 47 30 83q39 50 117 50q99 0 99 -81q0 -24 -9 -52q110 -51 136 -172l23 2q33 0 56 -14q32 -21 32 -68 q0 -17 -4 -38q-17 -78 -73 -106q-29 -14 -62 -14l-23 1q-77 -121 -209 -172q-4 -47 -30 -82q-39 -50 -116 -50zM2061 -854q22 2 40 18q24 22 24 55q0 15 -9 29t-30 15q-68 -23 -134 -58q52 -35 109 -59zM1927 -767q107 58 202 82q-24 96 -110 140q-43 -89 -122 -184 q24 -12 30 -38zM1798 -1064q23 0 42.5 14t26.5 35q-10 61 -33 123q-49 -62 -85 -123v-5q0 -18 12.5 -31t36.5 -13zM1848 -827q13 0 24 9q15 12 15 30q0 9 -6 16.5t-20 7.5q-13 0 -24 -9q-15 -12 -15 -29q0 -9 6.5 -17t19.5 -8zM1875 -699q48 60 85 122l1 8q0 16 -13 29 t-36 13q-24 0 -43.5 -14t-26.5 -36q11 -62 33 -122zM1989 -520q14 35 14 60q0 10 -2 18q-10 30 -65 30t-76.5 -29.5t-21.5 -78.5q37 33 82 33q46 0 69 -33zM1795 -767q17 26 46 38q-39 95 -44 184q-105 -44 -169 -140q84 -24 167 -82zM1623 -854q68 24 135 59 q-52 35 -110 58q-21 -2 -38 -18q-26 -23 -26 -55q0 -15 9.5 -28.5t29.5 -15.5zM1526 -875q17 0 37 4q-19 22 -19 54q0 11 2 22q11 46 49 75q-20 4 -37 4q-23 0 -42 -8q-33 -17 -44 -71q-4 -17 -4 -31q0 -29 17 -39t41 -10zM1691 -1046q44 92 122 185q-24 11 -30 37 q-108 -58 -202 -82q23 -96 110 -140zM1773 -1178q55 0 78 29q20 29 20 78q-37 -33 -82 -33t-68 33q-15 -34 -15 -59q0 -10 3 -19q9 -29 64 -29zM1912 -1046q105 44 170 140q-85 24 -167 82q-18 -26 -46 -37q38 -93 43 -185zM2151 -875q24 0 42 9q33 16 45 71q4 17 4 30 q0 29 -19 41q-15 8 -39 8q-17 0 -38 -4q19 -22 19 -52q0 -11 -2 -23q-11 -47 -49 -76q20 -4 37 -4zM1981 -19q-392 0 -718 167q-313 161 -518.5 454t-272.5 673q-29 167 -29 341q0 235 53 482q91 431 327 824q227 380 557 673t712 454q397 167 790 167q392 0 718 -167 q313 -161 519 -454q31 -44 58 -89l-211 -190q-125 371 -380.5 597t-614.5 260h-1q-48 3 -97 3t-98 -3h-1q-425 -40 -817 -322.5t-684 -738.5t-415 -1014q-61 -300 -61 -570q0 -233 71.5 -566t343.5 -616t680 -322h1q48 -3 97 -3t98 3h1q400 36 773 291t662 670l174 -171 q-102 -112 -215 -212q-330 -293 -712 -454q-397 -167 -790 -167z" glyph-name="uniE012" horiz-adv-x="3575" unicode=""/><glyph d="M1037 -1218q-100 0 -100 79q0 24 10 53q-110 51 -136 172l-23 -1q-33 0 -57 14q-32 20 -32 66q0 18 5 40q16 77 72 106q29 14 62 14l23 -2q77 121 209 172q4 47 30 83q39 50 117 50q99 0 99 -81q0 -24 -9 -52q110 -51 136 -172l23 2q33 0 56 -14q32 -21 32 -68 q0 -17 -4 -38q-17 -78 -73 -106q-29 -14 -62 -14l-23 1q-77 -121 -209 -172q-4 -47 -29 -82q-39 -50 -117 -50zM1333 -854q22 2 40 18q24 22 24 55q0 15 -9 29t-30 15q-67 -23 -134 -58q52 -35 109 -59zM1199 -767q107 58 202 82q-24 96 -110 140q-43 -89 -122 -184 q24 -12 30 -38zM1070 -1064q23 0 42.5 14t26.5 35q-10 61 -33 123q-49 -62 -85 -123v-5q0 -18 12.5 -31t36.5 -13zM1120 -827q13 0 24 9q15 12 15 30q0 9 -6 16.5t-20 7.5q-13 0 -24 -9q-14 -12 -14 -28q0 -10 6 -18t19 -8zM1147 -699q48 60 85 122l1 8q0 16 -13 29t-36 13 q-24 0 -43.5 -14t-25.5 -36q10 -62 32 -122zM1261 -520q15 34 15 59q0 10 -3 19q-10 30 -65 30t-76.5 -29.5t-21.5 -78.5q37 33 82 33q46 0 69 -33zM1067 -767q17 26 46 38q-39 95 -44 184q-105 -44 -169 -140q84 -24 167 -82zM895 -854q68 24 135 59q-52 35 -110 58 q-21 -2 -38 -18q-25 -23 -25 -54q0 -16 9 -29.5t29 -15.5zM798 -875q17 0 37 4q-19 22 -19 54q0 11 2 22q11 46 49 75q-19 4 -37 4q-23 0 -42 -8q-33 -17 -44 -71q-4 -17 -4 -31q0 -29 17 -39t41 -10zM963 -1046q44 92 122 185q-24 11 -30 37q-108 -58 -202 -82 q24 -96 110 -140zM1045 -1178q55 0 78 29q20 29 20 78q-37 -33 -82 -33t-68 33q-15 -34 -15 -59q0 -10 3 -19q9 -29 64 -29zM1184 -1046q105 44 170 140q-85 24 -167 82q-18 -26 -46 -37q38 -93 43 -185zM1421 -875q25 0 44 9q33 16 45 71q4 17 4 30q0 29 -19 41 q-15 8 -38 8q-17 0 -38 -4q18 -21 18 -52q0 -11 -2 -23q-11 -47 -49 -76q19 -4 35 -4zM49 -2l9 40h284l876 4121h-284l8 40q599 -2 1199 -2q427 0 782 -165q342 -160 571 -450t308 -667q39 -186 39 -380q0 -214 -47 -437q-91 -427 -339 -817q-239 -376 -591.5 -666.5 t-762.5 -450.5q-428 -165 -852 -165zM1257 39q97 0 191 9q475 122 885.5 417t699.5 715.5t399 917.5q49 239 49 460q0 239 -83.5 558t-368 614.5t-706.5 417.5q-95 9 -190 9h-735q34 -9 51 -44t20 -82q2 -27 2 -53q0 -20 -2 -52.5t-7 -62.5l-5 -31l-806 -3793h606z" glyph-name="uniE013" horiz-adv-x="3370" unicode=""/><glyph d="M1062 -1218q-100 0 -100 79q0 24 10 53q-110 51 -136 172l-23 -1q-33 0 -57 14q-32 20 -32 66q0 18 5 40q16 77 72 106q29 14 62 14l23 -2q77 121 209 172q4 47 30 83q39 50 117 50q99 0 99 -81q0 -24 -9 -52q110 -51 136 -172l23 2q33 0 56 -14q32 -21 32 -68 q0 -17 -4 -38q-17 -78 -73 -106q-29 -14 -62 -14l-23 1q-77 -121 -209 -172q-4 -47 -30 -82q-39 -50 -116 -50zM1358 -854q22 2 40 18q24 22 24 55q0 15 -9 29t-30 15q-68 -23 -134 -58q52 -35 109 -59zM1224 -767q107 58 202 82q-24 96 -110 140q-43 -89 -122 -184 q24 -12 30 -38zM1095 -1064q23 0 42.5 14t26.5 35q-10 61 -33 123q-49 -62 -85 -123v-5q0 -18 12.5 -31t36.5 -13zM1145 -827q13 0 24 9q15 12 15 30q0 9 -6 16.5t-20 7.5q-13 0 -24 -9q-15 -12 -15 -29q0 -9 6.5 -17t19.5 -8zM1172 -699q48 60 85 122l1 8q0 16 -13 29 t-36 13q-24 0 -43.5 -14t-26.5 -36q11 -62 33 -122zM1286 -520q14 35 14 60q0 10 -2 18q-10 30 -65 30t-76.5 -29.5t-21.5 -78.5q37 33 82 33q46 0 69 -33zM1092 -767q17 26 46 38q-39 95 -44 184q-105 -44 -169 -140q84 -24 167 -82zM920 -854q68 24 135 59q-52 35 -110 58 q-21 -2 -38 -18q-26 -23 -26 -55q0 -15 9.5 -28.5t29.5 -15.5zM823 -875q17 0 37 4q-19 22 -19 54q0 11 2 22q11 46 49 75q-20 4 -37 4q-23 0 -42 -8q-33 -17 -44 -71q-4 -17 -4 -31q0 -29 17 -39t41 -10zM988 -1046q44 92 122 185q-24 11 -30 37q-108 -58 -202 -82 q23 -96 110 -140zM1070 -1178q55 0 78 29q20 29 20 78q-37 -33 -82 -33t-68 33q-15 -34 -15 -59q0 -10 3 -19q9 -29 64 -29zM1209 -1046q105 44 170 140q-85 24 -167 82q-18 -26 -46 -37q38 -93 43 -185zM1446 -875q25 0 44 9q33 16 45 71q3 16 3 29q0 30 -18 42 q-15 8 -39 8q-17 0 -38 -4q19 -22 19 -52q0 -11 -2 -23q-11 -47 -49 -76q19 -4 35 -4zM2591 -2h-2542l9 40h284l876 4121h-284l8 40l2542 -1l-8 -40h-2088q83 -9 83 -180q0 -17 -2 -49.5t-7 -64.5l-5 -32l-360 -1694h1483l-8 -40h-1483l-438 -2060h1949z" glyph-name="uniE014" horiz-adv-x="2642" unicode=""/><glyph d="M1671 -1218q-100 0 -100 79q0 24 10 53q-110 52 -136 173l-23 -1q-89 0 -89 81q0 17 4 38q17 78 73 106q29 14 62 14l23 -2q77 121 209 173q4 47 30 82q39 50 116 50q100 0 100 -80q0 -24 -9 -52q109 -52 136 -173l23 2q33 0 56 -14q32 -21 32 -68q0 -17 -4 -38 q-17 -78 -73 -106q-29 -14 -63 -14q-11 0 -22 2q-77 -121 -209 -173q-4 -47 -30 -82q-39 -50 -116 -50zM1967 -854q21 2 39 19q25 23 25 54q0 15 -9 29t-30 16q-68 -24 -135 -59q52 -35 110 -59zM1832 -767q108 59 203 83q-24 96 -111 140q-43 -90 -121 -185q23 -12 29 -38z M1703 -1064q24 0 43.5 14.5t26.5 35.5q-10 61 -33 122q-49 -61 -85 -122v-5q0 -18 12.5 -31.5t35.5 -13.5zM1754 -827q13 0 24 10q15 12 15 30q0 9 -6.5 16.5t-19.5 7.5t-24 -9q-15 -12 -15 -31q0 -8 6.5 -16t19.5 -8zM1781 -698q48 59 85 122v5q0 18 -12.5 31.5t-35.5 13.5 q-24 0 -43.5 -14.5t-26.5 -35.5q11 -63 33 -122zM1895 -519q14 34 14 59q0 10 -2 19q-10 29 -65 29t-76.5 -29.5t-21.5 -77.5q37 33 82 33t69 -33zM1701 -767q17 26 45 38q-38 95 -43 185q-105 -44 -169 -140q84 -24 167 -83zM1529 -854q68 24 135 59q-52 35 -110 59 q-22 -2 -39 -18q-25 -24 -25 -55q0 -15 9 -29t30 -16zM1430 -875q17 0 39 5q-19 21 -19 52q0 11 2 23q11 47 49 75q-20 5 -37 5q-23 0 -42 -9q-33 -16 -45 -71q-3 -16 -3 -29q0 -31 18 -42q15 -9 38 -9zM1597 -1046q44 92 121 185q-23 12 -29 38q-108 -59 -202 -83 q23 -96 110 -140zM1679 -1178q55 0 76.5 29t21.5 78q-37 -33 -82 -33t-68 33q-15 -35 -15 -60q0 -47 67 -47zM1818 -1046q105 44 169 140q-84 24 -167 83q-17 -26 -45 -38q37 -93 43 -185zM2057 -875q23 0 42 9q33 16 45 71q3 16 3 29q0 31 -17 41t-41 10q-17 0 -37 -4 q19 -22 19 -53q0 -11 -2 -23q-11 -47 -49 -75q19 -5 37 -5zM1984 -11q-393 0 -719 167q-313 161 -518.5 454t-271.5 673q-29 168 -29 343q0 234 52 480q92 431 327 824q227 380 557.5 673t711.5 454q397 167 790 167q392 0 719 -167q362 -186 576 -543l-211 -190 q-125 371 -380.5 597t-614.5 260h-1q-48 3 -97 3t-98 -3h1h-2q-424 -40 -816.5 -322.5t-684.5 -738.5t-415 -1014q-61 -300 -61 -570q0 -233 71.5 -566t343.5 -616t680 -322h1q48 -3 97 -3t98 3h1q353 31 687 236t610 542l201 942l9 34q26 97 70 179q62 115 137 115h-1539 l9 40h1985l-9 -40h-284l-267 -1258l-1 -1q-101 -111 -214 -211q-329 -293 -712 -454q-397 -167 -789 -167z" glyph-name="uniE015" horiz-adv-x="3859" unicode=""/><glyph d="M1383 -1218q-99 0 -99 81q0 23 9 51q-110 51 -136 172l-23 -1q-33 0 -57 14q-32 20 -32 66q0 18 5 40q16 77 72 106q29 14 62 14l23 -2q78 121 210 172q4 47 29 83q39 50 117 50q99 0 99 -81q0 -24 -9 -52q110 -51 136 -172l23 2q33 0 56 -14q32 -21 32 -68q0 -17 -4 -38 q-17 -78 -73 -106q-29 -14 -62 -14l-22 1q-78 -121 -210 -172q-4 -47 -29 -82q-39 -50 -117 -50zM1679 -854q22 2 40 18q24 22 24 56q0 14 -9 28t-30 15q-67 -23 -134 -58q52 -35 109 -59zM1545 -767q107 58 202 82q-24 96 -110 140q-43 -89 -122 -184q24 -12 30 -38z M1416 -1064q23 0 42.5 14t26.5 35q-10 61 -33 123q-49 -62 -84 -123l-1 -7q0 -16 12.5 -29t36.5 -13zM1466 -827q13 0 24 9q15 13 15 29q0 9 -6 17t-19 8q-14 0 -25 -9q-14 -12 -14 -28q0 -10 6 -18t19 -8zM1493 -699q48 60 85 122l1 8q0 16 -13 29t-36 13q-24 0 -43.5 -14 t-25.5 -36q10 -62 32 -122zM1607 -520q15 34 15 59q0 10 -3 19q-10 30 -65 30t-76.5 -29.5t-21.5 -78.5q37 33 82 33q46 0 69 -33zM1413 -767q17 26 46 38q-39 95 -44 184q-105 -44 -169 -140q84 -24 167 -82zM1242 -854q67 24 134 59q-52 35 -110 58q-21 -2 -38 -18 q-25 -23 -25 -54q0 -16 9 -29.5t30 -15.5zM1144 -875q17 0 37 4q-19 22 -19 54q0 11 2 22q12 46 49 75q-19 4 -37 4q-23 0 -41 -8q-34 -17 -45 -71q-4 -17 -4 -31q0 -29 17 -39t41 -10zM1309 -1046q44 92 122 185q-24 11 -30 37q-108 -58 -202 -82q24 -96 110 -140z M1391 -1178q55 0 78 29q20 29 20 78q-37 -33 -82 -33t-68 33q-15 -34 -15 -59q0 -10 3 -19q9 -29 64 -29zM1530 -1046q105 44 170 140q-84 24 -167 82q-17 -26 -46 -37q38 -93 43 -185zM1768 -875q24 0 43 9q33 16 45 71q4 17 4 30q0 29 -19 41q-15 8 -38 8q-17 0 -38 -4 q18 -21 18 -52q0 -11 -2 -23q-11 -47 -48 -76q18 -4 35 -4zM3234 0h-877l9 40h284l505 2374h-1999l-505 -2374h284l-8 -40h-877l9 40h284l876 4121h-285l9 40h877l-9 -40h-431q92 0 92 -180q0 -16 -2 -48.5t-7 -65.5l-5 -33l-294 -1380h1999l363 1707h-284l8 40h877l-8 -40 h-431q91 0 91 -176q0 -18 -2 -51.5t-7 -66.5l-5 -33l-807 -3794h285z" glyph-name="uniE016" horiz-adv-x="3284" unicode=""/><glyph d="M1354 -1218q-99 0 -99 81q0 23 9 51q-110 51 -136 172l-23 -1q-33 0 -56 14q-32 21 -32 68q0 17 4 38q17 77 73 106q29 14 62 14l22 -2q78 121 210 172q4 47 30 83q39 50 116 50q99 0 99 -81q0 -24 -9 -52q110 -51 136 -172l23 2q33 0 57 -14q32 -21 32 -67q0 -18 -5 -39 q-16 -78 -72 -106q-30 -14 -63 -14l-22 1q-78 -121 -210 -172q-4 -47 -29 -82q-39 -50 -117 -50zM1650 -854q22 2 40 18q24 23 24 54q0 16 -9 30t-30 15q-67 -23 -134 -58q52 -35 109 -59zM1516 -767q108 58 202 82q-24 96 -110 140q-43 -89 -122 -184q24 -12 30 -38z M1387 -1064q23 0 43 14t26 35q-9 61 -32 123q-50 -62 -85 -123l-1 -7q0 -16 13 -29t36 -13zM1437 -827q14 0 25 9q14 12 14 29q0 9 -6 17t-19 8t-24 -9q-15 -13 -15 -28q0 -10 6 -18t19 -8zM1465 -699q47 60 84 122l1 8q0 16 -12.5 29t-36.5 13q-23 0 -43 -14t-26 -36 q10 -62 33 -122zM1578 -520q15 34 15 59q0 10 -3 19q-10 30 -64 30q-55 0 -77 -29.5t-22 -78.5q37 33 83 33q45 0 68 -33zM1384 -767q17 26 46 38q-38 95 -43 184q-105 -44 -170 -140q84 -24 167 -82zM1213 -854q67 24 134 59q-52 35 -109 58q-22 -2 -39 -18 q-25 -22 -25 -56q0 -14 9 -27.5t30 -15.5zM1116 -875q16 0 36 4q-18 21 -18 52q0 12 2 24q11 46 48 75q-19 4 -36 4q-24 0 -42 -8q-33 -17 -45 -71q-4 -17 -4 -30q0 -30 17.5 -40t41.5 -10zM1280 -1046q45 92 122 185q-24 11 -30 37q-107 -58 -202 -82q24 -96 110 -140z M1363 -1178q55 0 76.5 29t21.5 78q-37 -33 -82 -33q-46 0 -69 33q-14 -35 -14 -60q0 -10 2 -18q10 -29 65 -29zM1501 -1046q106 44 170 140q-84 24 -167 82q-17 -26 -46 -37q38 -93 43 -185zM1739 -875q24 0 43 9q34 16 45 71q4 17 4 30q0 29 -18 41q-15 8 -39 8 q-17 0 -38 -4q19 -22 19 -54q0 -10 -2 -21q-12 -47 -49 -76q18 -4 35 -4zM3346 0h-363l-1082 2677l-832 -671l-418 -1966h284l-8 -40h-877l9 40h284l876 4121h-285l9 40h877l-9 -40h-431q92 0 92 -180q0 -16 -2 -48.5t-7 -65.5l-5 -33l-377 -1772l2604 2099h-397l8 40h877 l-8 -40h-423l-1567 -1264z" glyph-name="uniE017" horiz-adv-x="3396" unicode=""/><glyph d="M1062 -1218q-99 0 -99 81q0 23 9 51q-110 51 -136 172l-23 -1q-33 0 -56 14q-32 21 -32 68q0 17 4 38q17 77 73 106q29 14 62 14l22 -2q78 121 210 172q4 47 30 83q39 50 116 50q99 0 99 -81q0 -24 -9 -52q110 -51 136 -172l23 2q33 0 57 -14q32 -21 32 -67q0 -18 -5 -39 q-16 -78 -72 -106q-30 -14 -63 -14l-22 1q-78 -121 -210 -172q-4 -47 -29 -82q-39 -50 -117 -50zM1358 -854q22 2 40 18q24 23 24 54q0 16 -9 30t-30 15q-67 -23 -134 -58q52 -35 109 -59zM1224 -767q108 58 202 82q-24 96 -110 140q-43 -89 -122 -184q24 -12 30 -38z M1095 -1064q23 0 43 14t26 35q-9 61 -32 123q-50 -62 -85 -123l-1 -7q0 -16 13 -29t36 -13zM1145 -827q14 0 25 9q14 12 14 29q0 9 -6 17t-19 8t-24 -9q-15 -13 -15 -28q0 -10 6 -18t19 -8zM1173 -699q47 60 84 122l1 8q0 16 -12.5 29t-36.5 13q-23 0 -43 -14t-26 -36 q10 -62 33 -122zM1286 -520q15 34 15 59q0 10 -3 19q-9 30 -64 30t-77 -29.5t-22 -78.5q37 33 83 33q45 0 68 -33zM1092 -767q17 26 46 38q-38 95 -43 184q-105 -44 -170 -140q84 -24 167 -82zM921 -854q67 24 134 59q-52 35 -109 58q-22 -2 -39 -18q-25 -22 -25 -56 q0 -14 9 -27.5t30 -15.5zM824 -875q16 0 36 4q-18 21 -18 52q0 12 2 24q11 46 48 75q-19 4 -36 4q-24 0 -42 -8q-33 -17 -45 -71q-4 -17 -4 -30q0 -30 17.5 -40t41.5 -10zM989 -1046q44 92 121 185q-24 11 -30 37q-107 -58 -202 -82q24 -96 111 -140zM1071 -1178 q55 0 76.5 29t21.5 78q-37 -33 -82 -33q-46 0 -69 33q-14 -35 -14 -60q0 -10 2 -18q10 -29 65 -29zM1209 -1046q106 44 170 140q-84 24 -167 82q-17 -26 -46 -37q38 -93 43 -185zM1447 -875q24 0 43 9q34 16 45 71q4 17 4 30q0 29 -18 41q-15 8 -39 8q-17 0 -38 -4 q19 -22 19 -54q0 -10 -2 -21q-12 -47 -49 -76q18 -4 35 -4zM2592 0h-2542l9 40h284l876 4121h-285l9 40h877l-9 -40h-431q92 0 92 -180q0 -16 -2 -48.5t-7 -65.5l-5 -33l-807 -3794h1949z" glyph-name="uniE018" horiz-adv-x="2642" unicode=""/><glyph d="M1635 -1218q-100 0 -100 79q0 24 10 53q-110 51 -137 172l-22 -1q-33 0 -57 14q-32 21 -32 68q0 17 4 38q17 77 73 106q29 14 62 14l23 -2q77 121 209 172q4 47 30 83q39 50 116 50q100 0 100 -79q0 -25 -10 -54q110 -51 136 -172l23 2q34 0 57 -14q32 -21 32 -68 q0 -17 -4 -38q-17 -78 -73 -106q-30 -14 -63 -14l-22 1q-77 -121 -209 -172q-4 -47 -30 -82q-39 -50 -116 -50zM1931 -854q21 2 38.5 18t23.5 41l2 14q0 15 -9 29t-30 15q-68 -23 -135 -58q52 -35 110 -59zM1796 -767q108 58 202 82q-23 96 -110 140q-43 -89 -121 -184 q23 -12 29 -38zM1667 -1064q24 0 43.5 14t26.5 35q-10 61 -33 123q-49 -62 -85 -123v-5q0 -18 12.5 -31t35.5 -13zM1718 -827q13 0 24 9q15 12 15 30q0 8 -6.5 16t-19.5 8t-24 -9q-15 -12 -15 -30q0 -9 6.5 -16.5t19.5 -7.5zM1745 -699q48 60 85 122v6q0 18 -12.5 31 t-35.5 13q-24 0 -43.5 -14t-26.5 -36q11 -62 33 -122zM1858 -520q15 35 15 60q0 10 -2 18q-10 30 -65 30t-76.5 -29.5t-21.5 -78.5q37 33 82 33t68 -33zM1665 -767q17 26 45 38q-38 95 -43 184q-105 -44 -169 -140q84 -24 167 -82zM1493 -854q68 24 135 59q-52 35 -110 58 q-22 -2 -39 -18q-25 -22 -25 -55q0 -15 9 -28.5t30 -15.5zM1396 -875q17 0 37 4q-19 22 -19 53q0 11 2 23q11 46 49 75q-20 4 -37 4q-24 0 -42 -8q-33 -17 -45 -71q-3 -16 -3 -29q0 -31 17 -41t41 -10zM1561 -1046q44 92 121 185q-23 11 -29 37q-108 -58 -203 -82 q24 -96 111 -140zM1643 -1178q55 0 76.5 29t21.5 78q-37 -33 -82 -33t-68 33q-15 -35 -15 -60q0 -10 2 -18q10 -29 65 -29zM1782 -1046q105 44 169 140q-84 24 -167 82q-17 -26 -45 -37q37 -93 43 -185zM2019 -875q24 0 44 9q33 16 45 71q3 16 3 29q0 30 -18 42q-15 8 -39 8 q-17 0 -38 -4q19 -22 19 -52q0 -11 -2 -23q-11 -47 -49 -76q18 -4 35 -4zM1826 -1h-44l-388 4164h-1l-876 -4122h419l-9 -40h-877l9 40h418l876 4122h-418l8 40h770l342 -3680l1908 3680h580l-8 -40h-431q91 0 91 -176q0 -19 -2 -52t-7 -66l-5 -34l-806 -3794h284l-9 -40 h-877l9 40h284l847 3985z" glyph-name="uniE019" horiz-adv-x="3700" unicode=""/><glyph d="M1534 -1218q-99 0 -99 81q0 23 9 51q-110 51 -136 172l-23 -1q-33 0 -57 14q-32 20 -32 66q0 18 5 40q16 77 72 106q29 14 62 14l23 -2q78 121 209 172q5 47 30 83q39 50 117 50q99 0 99 -81q0 -24 -9 -52q110 -51 136 -172l23 2q33 0 56 -14q32 -21 32 -68q0 -17 -4 -38 q-17 -78 -73 -106q-29 -14 -62 -14l-22 1q-78 -121 -210 -172q-4 -47 -29 -82q-39 -50 -117 -50zM1830 -854q22 2 40 18q24 22 24 56q0 14 -9 28t-30 15q-67 -23 -134 -58q52 -35 109 -59zM1696 -767q107 58 202 82q-24 96 -110 140q-43 -89 -122 -184q24 -12 30 -38z M1567 -1064q23 0 42.5 14t26.5 35q-10 61 -33 123q-49 -62 -84 -123l-1 -7q0 -16 12.5 -29t36.5 -13zM1617 -827q13 0 24 9q15 13 15 29q0 9 -6 17t-19 8q-14 0 -25 -9q-14 -12 -14 -28q0 -10 6 -18t19 -8zM1644 -699q48 60 85 122l1 8q0 16 -13 29t-36 13q-24 0 -43.5 -14 t-25.5 -36q10 -62 32 -122zM1758 -520q15 34 15 59q0 10 -3 19q-10 30 -65 30t-76.5 -29.5t-21.5 -78.5q37 33 82 33q46 0 69 -33zM1564 -767q17 26 46 38q-39 95 -44 184q-105 -44 -169 -140q84 -24 167 -82zM1393 -854q67 24 134 59q-52 35 -110 58q-21 -2 -38 -18 q-25 -23 -25 -54q0 -16 9 -29.5t30 -15.5zM1295 -875q17 0 37 4q-19 22 -19 54q0 11 2 22q12 46 49 75q-19 4 -37 4q-23 0 -42 -8q-33 -17 -44 -71q-4 -17 -4 -31q0 -29 17 -39t41 -10zM1460 -1046q44 92 122 185q-24 11 -30 37q-108 -58 -202 -82q24 -96 110 -140z M1542 -1178q55 0 78 29q20 29 20 78q-37 -33 -82 -33t-68 33q-15 -34 -15 -59q0 -10 3 -19q9 -29 64 -29zM1681 -1046q105 44 170 140q-84 24 -167 82q-17 -26 -46 -37q38 -93 43 -185zM1919 -875q24 0 43 9q33 16 45 71q4 17 4 30q0 29 -19 41q-15 8 -38 8q-17 0 -38 -4 q18 -21 18 -52q0 -11 -2 -23q-11 -47 -48 -76q18 -4 35 -4zM3118 3h-40l-1790 3663l-770 -3623h418l-8 -40h-877l8 40h419l876 4120h-419l9 40h458l1790 -3662l770 3623h-418l8 40h877l-8 -40h-419z" glyph-name="uniE020" horiz-adv-x="3586" unicode=""/><glyph d="M1727 -1218q-99 0 -99 81q0 23 9 51q-110 51 -136 172l-23 -1q-33 0 -56 14q-33 20 -33 67q0 18 5 39q17 77 73 106q29 14 62 14l22 -2q78 121 210 172q4 47 29 83q39 50 117 50q99 0 99 -81q0 -24 -9 -52q110 -51 136 -172l23 2q33 0 56 -14q32 -21 32 -68q0 -17 -4 -38 q-17 -78 -73 -106q-29 -14 -62 -14l-22 1q-78 -121 -210 -172q-4 -47 -29 -82q-39 -50 -117 -50zM2023 -854q22 2 40 18q24 23 24 54q0 16 -9 30t-30 15q-67 -23 -134 -58q52 -35 109 -59zM1889 -767q108 58 202 82q-24 96 -110 140q-43 -89 -122 -184q24 -12 30 -38z M1760 -1064q23 0 43 14t26 35q-10 61 -33 123q-49 -62 -84 -123l-1 -7q0 -16 12.5 -29t36.5 -13zM1810 -827q13 0 24 9q15 13 15 29q0 9 -6 17t-19 8t-24 -9q-15 -12 -15 -28q0 -10 6 -18t19 -8zM1838 -699q47 60 84 122l1 8q0 16 -12.5 29t-36.5 13q-23 0 -43 -14t-26 -36 q10 -62 33 -122zM1951 -520q15 34 15 59q0 10 -3 19q-10 30 -65 30t-76.5 -29.5t-21.5 -78.5q37 33 83 33q45 0 68 -33zM1757 -767q17 26 46 38q-38 95 -43 184q-106 -44 -170 -140q84 -24 167 -82zM1586 -854q67 24 134 59q-52 35 -109 58q-22 -2 -39 -18q-25 -23 -25 -54 q0 -16 9 -29.5t30 -15.5zM1489 -875q16 0 36 4q-19 22 -19 54q0 11 2 22q12 46 49 75q-19 4 -37 4q-23 0 -41 -8q-34 -17 -45 -71q-4 -17 -4 -31q0 -29 17 -39t42 -10zM1653 -1046q45 92 122 185q-24 11 -30 37q-108 -58 -202 -82q24 -96 110 -140zM1736 -1178q55 0 76 29 t21 78q-37 -33 -82 -33t-68 33q-15 -34 -15 -59q0 -10 3 -19q10 -29 65 -29zM1874 -1046q105 44 170 140q-84 24 -167 82q-17 -26 -46 -37q38 -93 43 -185zM2112 -875q24 0 43 9q34 16 45 71q4 17 4 30q0 29 -19 41q-15 8 -38 8q-17 0 -38 -4q19 -22 19 -54q0 -10 -2 -21 q-12 -47 -49 -76q18 -4 35 -4zM1983 -14q-392 0 -719 166q-313 162 -518.5 455t-271.5 673q-29 168 -29 343q0 234 52 480q92 431 327 824q228 380 558 673t712 454q397 167 789 167t719 -167q313 -161 518.5 -454t271.5 -673q29 -168 29 -343q0 -234 -52 -481 q-92 -430 -327 -823q-228 -380 -558 -673t-711 -455q-398 -166 -790 -166zM1992 26q49 0 98 3q425 39 817.5 322t684.5 738.5t415 1013.5q61 300 61 571q0 232 -71.5 565.5t-344 616t-680.5 322.5h-1q-47 3 -96 3t-98 -3h-2q-424 -40 -816.5 -322.5t-684.5 -738.5 t-415 -1014q-61 -300 -61 -570q0 -233 72 -566t344 -616t680 -322h1q48 -3 97 -3z" glyph-name="uniE021" horiz-adv-x="3972" unicode=""/><glyph d="M1324 -1218q-100 0 -100 79q0 14 4 30l6 23q-110 51 -136 172l-23 -1q-33 0 -57 14q-31 20 -31 67q0 18 4 39q17 77 73 106q29 13 63 13l21 -1q78 121 210 172l3 25q7 32 26 58q39 50 117 50q100 0 100 -79q0 -14 -3.5 -28l-6.5 -26q110 -51 136 -172l21 1q90 0 90 -81 q0 -17 -4 -38q-17 -78 -73 -106q-29 -14 -62 -14l-22 1q-78 -121 -210 -172l-4 -23q-6 -33 -25 -59q-39 -50 -117 -50zM1620 -854q22 2 40 18q24 22 24 55q0 15 -9 29t-30 15q-67 -23 -134 -58q52 -35 109 -59zM1486 -767q107 58 202 82q-24 96 -110 140q-43 -89 -122 -184 q24 -12 30 -38zM1357 -1064q23 0 42.5 14t26.5 35q-10 61 -33 123q-49 -62 -85 -123v-5q0 -18 12.5 -31t36.5 -13zM1407 -827q13 0 24 9q15 13 15 29q0 9 -6 17t-19 8q-14 0 -25 -9q-14 -12 -14 -28q0 -10 6 -18t19 -8zM1434 -699q48 60 85 122l1 8q0 16 -13 29t-36 13 q-24 0 -43.5 -14t-25.5 -36q10 -62 32 -122zM1547 -520q15 36 16 60q0 48 -68 48q-55 0 -77 -30q-13 -17 -18 -40q-3 -18 -4 -38q38 33 83 33t68 -33zM1354 -767q17 26 46 38q-39 95 -44 184q-105 -44 -169 -140q84 -24 167 -82zM1183 -854q67 24 134 59q-52 35 -110 58 q-21 -2 -38 -18q-25 -23 -25 -54q0 -16 9 -29.5t30 -15.5zM1084 -875q17 0 38 4q-19 21 -19 53q0 11 2 23q11 47 49 75q-19 4 -37 4q-23 0 -42 -8q-32 -17 -44 -71q-3 -17 -3 -30q0 -30 16 -40t40 -10zM1250 -1046q44 92 122 185q-24 11 -30 37q-108 -58 -202 -82 q24 -96 110 -140zM1333 -1178q55 0 76 28t21 79q-37 -33 -82 -33t-68 33q-14 -34 -14 -60q0 -10 2 -18q9 -29 65 -29zM1471 -1046q105 44 170 140q-84 24 -167 82q-17 -26 -46 -37q38 -93 43 -185zM1710 -875q24 0 42 9q33 16 45 71q3 16 3 29q0 30 -18 42q-15 8 -37 8 q-18 0 -39 -4q18 -21 18 -51q0 -12 -2 -24q-11 -48 -48 -76q20 -4 36 -4zM1579 -9q-481 0 -807 180q-258 148 -385 411q-93 196 -93 410q0 97 22 213q58 267 245 516q212 279 520 451l160 -248l-51 -21q-51 -22 -130.5 -75t-169.5 -147q-208 -217 -304 -583 q-30 -133 -30 -242q0 -171 84.5 -348.5t299 -307.5t491.5 -164l37 -2q47 -3 126 -3q416 0 770 130q302 111 507 301q32 34 64 77q47 61 81 113q165 277 165 491q0 162 -105.5 343.5t-403.5 423.5t-769 564q-536 376 -628 736q-23 91 -23 173q0 63 14 121q41 185 174 335 l18 21q168 189 457 281q239 74 507 74q467 0 726 -178q144 -102 206 -247q42 -97 42 -199q0 -52 -11 -105l-11 -40l-308 4q11 36 18 70q18 89 18 163q0 68 -23 154.5t-99.5 159t-179.5 111t-212.5 52t-202.5 13.5q-79 0 -136 -5q-140 -11 -303 -56h4q-53 -15 -104.5 -43 t-86.5 -51.5t-36 -25.5q-62 -53 -124 -141t-90 -206q-12 -48 -12 -101q0 -74 31 -186t169.5 -276t409.5 -347q434 -283 737.5 -516t442.5 -466q99 -165 99 -354q0 -79 -17 -162q-55 -263 -309 -612q-64 -90 -131 -157q-224 -225 -574 -350q-308 -107 -660 -125h-3 q-57 -2 -113 -2z" glyph-name="uniE022" horiz-adv-x="3139" unicode=""/><glyph d="M1649 -1218q-99 0 -99 79q0 24 10 53q-111 51 -137 172l-22 -1q-34 0 -57 14q-32 21 -32 68q0 17 4 38q17 77 73 106q29 14 62 14l23 -2q77 121 209 172q4 47 30 83q39 50 116 50q100 0 100 -79q0 -25 -10 -54q110 -51 136 -172l23 2q34 0 57 -14q32 -21 32 -67 q0 -18 -5 -39q-16 -78 -72 -106q-30 -14 -63 -14l-22 1q-77 -121 -210 -172q-3 -47 -29 -82q-39 -50 -117 -50zM1946 -854q21 2 38.5 18t23.5 41l2 14q0 15 -9 29t-30 15q-68 -23 -135 -58q52 -35 110 -59zM1811 -767q108 58 202 82q-23 96 -110 140q-43 -89 -121 -184 q23 -12 29 -38zM1682 -1064q24 0 43.5 14t25.5 35q-9 61 -32 123q-49 -62 -85 -123v-5q0 -18 12.5 -31t35.5 -13zM1733 -827q13 0 24 9q15 12 15 30q0 8 -6.5 16t-19.5 8t-24 -9q-15 -12 -15 -30q0 -9 6.5 -16.5t19.5 -7.5zM1760 -699q48 60 85 122v6q0 18 -12.5 31 t-36.5 13q-23 0 -42.5 -14t-26.5 -36q11 -62 33 -122zM1873 -520q15 34 15 59q0 10 -3 19q-9 30 -64 30q-98 0 -98 -104v-4q37 33 82 33t68 -33zM1679 -767q18 26 46 38q-38 95 -43 184q-105 -44 -170 -140q85 -24 167 -82zM1508 -854q68 24 134 59q-52 35 -109 58 q-22 -2 -39 -18q-25 -22 -25 -55q0 -15 9 -28.5t30 -15.5zM1411 -875q17 0 37 4q-19 22 -19 53q0 11 2 23q11 46 49 75q-20 4 -37 4q-24 0 -42 -8q-33 -17 -45 -71q-3 -16 -3 -29q0 -31 17 -41t41 -10zM1576 -1046q44 92 121 185q-23 11 -30 37q-107 -58 -202 -82 q24 -96 111 -140zM1658 -1178q55 0 76.5 29t21.5 78q-37 -33 -82 -33t-69 33q-14 -35 -14 -60q0 -10 2 -18q10 -29 65 -29zM1796 -1046q106 44 170 140q-84 24 -167 82q-17 -26 -45 -37q37 -93 42 -185zM2036 -875q23 0 42 9q33 16 44 71q4 17 4 30q0 29 -18 41q-15 8 -39 8 q-17 0 -38 -4q19 -22 19 -52q0 -11 -2 -23q-11 -47 -49 -76q19 -4 37 -4zM1839 -3q-305 0 -562 119q-246 115 -411 323q-164 212 -221 480q-28 133 -28 273q0 109 17 222q40 184 584 2747h-284l9 40h877l-9 -40h-431q92 0 92 -180q0 -16 -2 -48t-7 -65l-6 -34l-525 -2473 l-11 -94q-8 -72 -8 -175q0 -31 2.5 -121.5t41 -256t132.5 -315.5q211 -337 706 -361l53 -1q303 0 593 114t534 314.5t414.5 465t238.5 569.5l565 2661h-418l8 40h877l-8 -40h-419l-282 -1329q-277 -1300 -283 -1332q-67 -306 -243 -581q-172 -271 -425 -479.5t-548 -323.5 q-307 -119 -613 -119z" glyph-name="uniE023" horiz-adv-x="3817" unicode=""/><glyph d="M1190 -1221q-99 0 -99 79q0 24 10 53q-111 52 -137 173l-22 -1q-89 0 -89 81q0 17 4 38q17 78 73 106q29 14 62 14l23 -2q77 121 209 173q4 47 30 82q39 50 116 50q100 0 100 -79q0 -24 -10 -53q110 -52 136 -173l23 2q34 0 57 -14q32 -20 32 -66q0 -18 -5 -40 q-16 -78 -72 -106q-30 -14 -63 -14q-11 0 -22 2q-77 -121 -210 -173q-3 -47 -29 -82q-39 -50 -117 -50zM1487 -857q21 2 39 19q25 23 25 54q0 15 -9 29t-30 16q-68 -24 -135 -59q52 -35 110 -59zM1352 -770q108 59 202 83q-23 96 -110 140q-43 -90 -121 -185q23 -12 29 -38z M1223 -1067q24 0 43.5 14.5t25.5 35.5q-9 61 -32 122q-49 -61 -85 -122v-5q0 -18 12.5 -31.5t35.5 -13.5zM1274 -830q13 0 24 10q15 12 15 29q0 9 -6.5 17t-19.5 8t-24 -9q-15 -12 -15 -31q0 -8 6.5 -16t19.5 -8zM1301 -701q48 59 85 122v5q0 18 -12.5 31.5t-36.5 13.5 q-23 0 -42.5 -14.5t-26.5 -35.5q11 -63 33 -122zM1414 -522q15 34 15 58q0 11 -3 20q-9 29 -64 29t-76.5 -29t-21.5 -74v-4q37 33 82 33t68 -33zM1220 -770q18 26 46 38q-38 95 -43 185q-105 -44 -170 -140q85 -24 167 -83zM1049 -857q68 24 134 59q-52 35 -109 59 q-22 -2 -39 -18q-25 -23 -25 -55q0 -15 9 -29t30 -16zM950 -878q17 0 39 5q-19 21 -19 52q0 11 2 23q11 47 49 75q-20 5 -37 5q-24 0 -42 -9q-33 -16 -45 -71q-3 -16 -3 -29q0 -31 18 -42q15 -9 38 -9zM1117 -1049q44 92 121 185q-23 12 -30 38q-107 -59 -202 -83 q24 -96 111 -140zM1199 -1181q55 0 76.5 29t21.5 78q-37 -33 -82 -33t-68 33q-15 -35 -15 -60q0 -47 67 -47zM1338 -1049q105 44 169 140q-84 24 -167 83q-17 -26 -45 -38q37 -93 43 -185zM1577 -878q23 0 42 9q33 16 44 71q4 17 4 31q0 29 -17 39t-41 10q-17 0 -37 -4 q19 -22 19 -53q0 -11 -2 -23q-11 -47 -49 -75q19 -5 37 -5zM2935 -7h-877l8 40h284l130 611q-91 -112 -196 -210q-225 -208 -483 -322q-267 -118 -534 -118q-265 0 -484 118q-209 114 -346 322q-194 305 -194 694q0 175 39 366q137 618 606 1060q225 207 483 322 q269 118 534 118t483 -118q210 -115 346 -322q64 -98 107 -210l125 584h-285l9 40h877l-9 -40h-431q92 0 92 -180q0 -16 -2 -48.5t-7 -65.5l-6 -34l-545 -2567h284zM1335 35q4 0 7 1q11 0 21 1q322 28 617 211t518 478l326 1535q-97 294 -312.5 477t-523.5 212q-9 3 -62 3 q-201 0 -401.5 -113.5t-376.5 -313.5t-307 -463.5t-197 -567.5q-48 -233 -48 -443q0 -64 11.5 -226.5t102 -362.5t242.5 -314t354 -114h29z" glyph-name="uniE024" unicode=""/><glyph d="M1024 -1221q-100 0 -100 79q0 24 10 53q-110 51 -136 172l-23 -1q-33 0 -57 14q-32 20 -32 66q0 18 5 40q16 77 72 106q29 14 62 14l23 -2q77 121 209 173q4 46 30 82q39 50 117 50q99 0 99 -81q0 -24 -9 -51q110 -52 136 -173l23 2q33 0 56 -14q32 -21 32 -68 q0 -17 -4 -38q-17 -78 -73 -106q-29 -14 -62 -14l-23 1q-77 -121 -209 -172q-4 -47 -30 -82q-39 -50 -116 -50zM1320 -857q22 2 40 19q24 22 24 54q0 15 -9 29t-30 15q-68 -23 -134 -58q52 -35 109 -59zM1186 -770q107 58 202 82q-24 96 -110 140q-43 -89 -122 -184 q24 -12 30 -38zM1057 -1067q23 0 42.5 14t26.5 35q-10 61 -33 123q-49 -62 -85 -123v-5q0 -18 12.5 -31t36.5 -13zM1107 -830q13 0 24 9q15 12 15 30q0 9 -6 16.5t-20 7.5q-13 0 -24 -9q-15 -12 -15 -29q0 -9 6.5 -17t19.5 -8zM1134 -701q48 59 85 122l1 7q0 16 -13 29 t-36 13q-24 0 -43.5 -14t-26.5 -35q11 -63 33 -122zM1248 -523q14 35 14 60q0 10 -2 18q-10 30 -65 30t-76.5 -29.5t-21.5 -78.5q37 33 82 33q46 0 69 -33zM1054 -770q17 26 46 38q-39 95 -44 184q-105 -44 -169 -140q84 -24 167 -82zM882 -857q68 24 135 59q-52 35 -110 58 q-21 -1 -38 -17q-26 -24 -26 -55q0 -15 9.5 -29t29.5 -16zM785 -878q17 0 37 4q-19 22 -19 54q0 11 2 22q11 46 49 75q-20 4 -37 4q-23 0 -42 -8q-33 -17 -44 -71q-4 -17 -4 -31q0 -29 17 -39t41 -10zM950 -1049q44 92 122 185q-24 11 -30 37q-108 -58 -202 -82 q23 -96 110 -140zM1032 -1181q55 0 78 29q20 29 20 78q-37 -33 -82 -33t-68 33q-15 -34 -15 -59q0 -10 3 -19q9 -29 64 -29zM1171 -1049q105 44 170 140q-85 24 -167 82q-18 -26 -46 -37q38 -93 43 -185zM1410 -878q24 0 42 9q33 16 45 71q3 16 3 29q0 30 -18 42 q-15 9 -38 9q-17 0 -39 -5q19 -22 19 -52q0 -11 -2 -23q-11 -47 -49 -76q20 -4 37 -4zM1339 -17q-279 0 -512 119q-223 116 -369 326q-212 315 -212 718q0 169 37 353q139 625 631 1072q235 210 507 325q283 120 563 120t512 -120q254 -131 405 -380l-240 -122 q-83 261 -251.5 415.5t-407.5 165.5l-27 1l-26 -1q-281 -14 -546.5 -213t-467 -528t-290.5 -735q-48 -232 -48 -440q0 -146 40.5 -374.5t212 -430t433.5 -229.5q32 -2 65 -2l66 2q236 24 462 179.5t412 410.5l227 -86q-279 -285 -613 -427q-283 -119 -563 -119z" glyph-name="uniE025" horiz-adv-x="2403" unicode=""/><glyph d="M1042 -1221q-99 0 -99 79q0 24 10 53q-111 51 -137 172l-22 -1q-34 0 -57 14q-32 21 -32 68q0 17 4 38q17 77 73 106q29 14 62 14l23 -2q77 121 209 173q4 46 30 82q39 50 116 50q100 0 100 -79q0 -25 -10 -53q110 -52 136 -173l23 2q34 0 57 -14q32 -21 32 -67 q0 -18 -5 -39q-16 -78 -72 -106q-30 -14 -63 -14l-22 1q-77 -121 -210 -172q-3 -47 -29 -82q-39 -50 -117 -50zM1339 -857q21 2 39 19q25 23 25 54q0 15 -9 29t-30 15q-68 -23 -135 -58q52 -35 110 -59zM1204 -770q108 58 202 82q-23 96 -110 140q-43 -89 -121 -184 q23 -12 29 -38zM1075 -1067q24 0 43.5 14t25.5 35q-9 61 -32 123q-49 -62 -85 -123v-5q0 -18 12.5 -31t35.5 -13zM1126 -830q13 0 24 9q15 12 15 30q0 8 -6.5 16t-19.5 8t-24 -9q-15 -12 -15 -30q0 -9 6.5 -16.5t19.5 -7.5zM1153 -701q48 59 85 122v5q0 18 -12.5 31 t-36.5 13q-23 0 -42.5 -14t-26.5 -35q11 -63 33 -122zM1266 -523q15 34 15 59q0 10 -3 19q-9 30 -64 30q-98 0 -98 -104v-4q37 33 82 33t68 -33zM1072 -770q18 26 46 38q-38 95 -43 184q-105 -44 -170 -140q85 -24 167 -82zM901 -857q68 24 134 59q-52 35 -109 58 q-22 -1 -39 -17q-25 -23 -25 -55q0 -15 9 -29t30 -16zM804 -878q17 0 37 4q-19 22 -19 53q0 11 2 23q11 46 49 75q-20 4 -37 4q-24 0 -42 -8q-33 -17 -45 -71q-3 -16 -3 -29q0 -31 17 -41t41 -10zM969 -1049q44 92 121 185q-23 11 -30 37q-107 -58 -202 -82q24 -96 111 -140 zM1051 -1181q55 0 76.5 29t21.5 78q-37 -33 -82 -33t-69 33q-14 -35 -14 -60q0 -10 2 -18q10 -29 65 -29zM1189 -1049q106 44 170 140q-84 24 -167 82q-17 -26 -46 -37q38 -93 43 -185zM1429 -878q23 0 42 9q33 16 44 71q4 17 4 30q0 29 -18 41q-15 9 -38 9q-17 0 -39 -5 q19 -22 19 -52q0 -11 -2 -23q-11 -47 -49 -76q19 -4 37 -4zM1339 -17q-279 0 -512 119q-223 116 -369 326q-212 315 -212 718q0 169 37 353q139 625 631 1072q235 210 506.5 325t541.5 119v1h14q227 -4 389 -63q300 -111 440 -377q24 -43 43 -87q54 -133 75 -262 q23 -142 23 -260q0 -82 -5 -127l-4 -40h-2207q-52 -146 -85 -301q-48 -232 -48 -440q0 -146 40.5 -374.5t212 -430t433.5 -229.5q32 -2 65 -2l66 2q236 24 462 179.5t412 410.5l227 -86q-279 -285 -613 -427q-283 -119 -563 -119zM2642 1840q18 154 18 283q0 174 -46 349 t-159 292l-2.5 2.5t-2.5 3.5q-20 20 -41 39l-6 6q-83 70 -168 104.5t-154 45.5t-105 11q-12 0 -23 -1h-4q-239 -11 -469 -159.5t-421.5 -401t-314.5 -574.5h1898z" glyph-name="uniE026" horiz-adv-x="2548" unicode=""/><glyph d="M1147 -1221q-100 0 -100 79q0 24 10 53q-110 51 -136 172l-23 -1q-33 0 -57 14q-32 20 -32 66q0 18 5 40q16 77 72 106q29 14 62 14l23 -2q77 121 209 173q4 46 30 82q39 50 117 50q99 0 99 -81q0 -24 -9 -51q110 -52 136 -173l23 2q33 0 56 -14q32 -21 32 -68 q0 -17 -4 -38q-17 -78 -73 -106q-29 -14 -62 -14l-23 1q-77 -121 -209 -172q-4 -47 -30 -82q-39 -50 -116 -50zM1443 -857q22 2 40 19q24 22 24 54q0 15 -9 29t-30 15q-68 -23 -134 -58q52 -35 109 -59zM1309 -770q107 58 202 82q-24 96 -110 140q-43 -89 -122 -184 q23 -12 30 -38zM1180 -1067q23 0 42.5 14t26.5 35q-10 61 -33 123q-49 -62 -85 -123v-5q0 -18 12.5 -31t36.5 -13zM1230 -830q13 0 24 9q15 12 15 30q0 9 -6 16.5t-20 7.5q-13 0 -24 -9q-15 -12 -15 -29q0 -9 6.5 -17t19.5 -8zM1257 -701q48 59 85 122l1 7q0 16 -13 29 t-36 13q-24 0 -43.5 -14t-26.5 -35q11 -63 33 -122zM1371 -523q14 35 14 60q0 10 -2 18q-10 30 -65 30t-76.5 -29.5t-21.5 -78.5q37 33 82 33q46 0 69 -33zM1177 -770q17 26 46 38q-39 95 -44 184q-105 -44 -169 -140q84 -24 167 -82zM1005 -857q68 24 135 59 q-52 35 -110 58q-21 -1 -38 -17q-26 -24 -26 -55q0 -15 9 -29t30 -16zM908 -878q17 0 37 4q-19 22 -19 53q0 11 2 23q11 46 49 75q-20 4 -37 4q-23 0 -42 -8q-33 -17 -44 -71q-4 -17 -4 -31q0 -29 17 -39t41 -10zM1073 -1049q44 92 121 185q-23 11 -29 37q-108 -58 -202 -82 q23 -96 110 -140zM1155 -1181q55 0 78 29q20 29 20 78q-37 -33 -82 -33t-68 33q-15 -34 -15 -59q0 -10 3 -19q9 -29 64 -29zM1294 -1049q105 44 170 140q-85 24 -167 82q-18 -26 -46 -37q38 -93 43 -185zM1533 -878q24 0 42 9q33 16 45 71q3 16 3 29q0 30 -18 42 q-15 9 -38 9q-17 0 -39 -5q19 -22 19 -52q0 -11 -2 -23q-11 -47 -49 -76q20 -4 37 -4zM2830 0h-877l8 40h284l542 2548q11 55 11 122q0 57 -17 114t-71 88q-33 20 -84 20q-32 0 -72 -8q-32 -8 -64 -19h-1q-267 -89 -550 -390q-326 -347 -659 -953q-204 -378 -350 -711 t-218 -525l-61 -286h285l-9 -40h-877l9 40h284l876 4121h-284l8 40h877l-8 -40h-431q91 0 91 -176q0 -18 -2 -51.5t-7 -66.5l-5 -33l-699 -3289q211 522 486 1029q336 612 666 964q420 444 805 444q88 0 150 -22q91 -33 138 -92q82 -103 84 -248q0 -59 -4 -88l-530 -2492 h284z" glyph-name="uniE027" horiz-adv-x="2880" unicode=""/><glyph d="M1084 -1221q-99 0 -99 81q0 23 9 51q-110 51 -136 172l-23 -1q-33 0 -57 14q-32 20 -32 66q0 18 5 40q17 77 73 106q29 14 62 14l22 -2q78 121 210 173q4 46 29 82q39 50 117 50q99 0 99 -81q0 -24 -9 -51q110 -52 136 -173l23 2q33 0 56 -14q32 -21 32 -68q0 -17 -4 -38 q-17 -78 -73 -106q-29 -14 -62 -14l-22 1q-78 -121 -210 -172q-4 -47 -29 -82q-39 -50 -117 -50zM1380 -857q22 2 40 19q24 23 24 53q0 16 -9 30t-30 15q-67 -23 -134 -58q52 -35 109 -59zM1246 -770q108 58 202 82q-24 96 -110 140q-43 -89 -122 -184q24 -12 30 -38z M1117 -1067q23 0 43 14t26 35q-10 61 -33 123q-49 -62 -84 -123l-1 -7q0 -16 12.5 -29t36.5 -13zM1167 -830q13 0 24 9q15 13 15 29q0 9 -6 17t-19 8t-24 -9q-15 -12 -15 -28q0 -10 6 -18t19 -8zM1195 -701q47 59 84 122l1 7q0 16 -12.5 29t-36.5 13t-43.5 -14t-25.5 -35 q10 -63 33 -122zM1308 -523q15 34 15 59q0 10 -3 19q-10 30 -65 30t-76.5 -29.5t-21.5 -78.5q37 33 83 33q45 0 68 -33zM1114 -770q17 26 46 38q-39 95 -44 184q-105 -44 -169 -140q84 -24 167 -82zM943 -857q67 24 134 59q-52 35 -109 58q-22 -1 -39 -17q-25 -24 -25 -54 q0 -16 9 -30t30 -16zM846 -878q16 0 36 4q-19 22 -19 54q0 11 2 22q12 46 49 75q-19 4 -37 4q-23 0 -41 -8q-34 -17 -45 -71q-4 -17 -4 -31q0 -29 17 -39t42 -10zM1010 -1049q45 92 122 185q-24 11 -30 37q-108 -58 -202 -82q24 -96 110 -140zM1092 -1181q56 0 77 29t21 78 q-37 -33 -82 -33t-68 33q-15 -34 -15 -59q0 -10 3 -19q9 -29 64 -29zM1231 -1049q105 44 170 140q-84 24 -167 82q-17 -26 -46 -37q38 -93 43 -185zM1469 -878q24 0 43 9q34 16 45 71q4 17 4 30q0 50 -57 50q-17 0 -38 -5q19 -22 19 -54q0 -10 -2 -21q-12 -47 -49 -76 q18 -4 35 -4zM2561 0h-359l-688 1821q-266 -373 -461 -725.5t-301 -580.5l-101 -475h284l-8 -40h-877l9 40h284l876 4121h-285l9 40h877l-9 -40h-431q92 0 92 -180q0 -16 -2 -48.5t-7 -65.5l-5 -33l-673 -3167q115 237 295 550.5t412 635.5q121 167 243 309q363 427 717 634 q328 191 642 191q88 0 175 -15l-63 -297l-61 21q-62 21 -163.5 42t-225.5 26h-30q-109 0 -228 -27t-231 -108q-249 -189 -503 -488q-5 -5 -9 -11z" glyph-name="uniE028" horiz-adv-x="2739" unicode=""/><glyph d="M2131 -1221q-99 0 -99 81q0 23 9 51q-110 51 -136 172l-23 -1q-33 0 -57 14q-32 20 -32 66q0 18 5 40q16 77 72 106q29 14 62 14l23 -2q78 121 210 173q4 46 29 82q39 50 117 50q99 0 99 -81q0 -24 -9 -51q110 -52 136 -173l23 2q33 0 56 -14q32 -21 32 -68q0 -17 -4 -38 q-17 -78 -73 -106q-29 -14 -62 -14l-22 1q-78 -121 -210 -172q-4 -47 -29 -82q-39 -50 -117 -50zM2427 -857q22 2 40 19q24 22 24 55q0 14 -9 28t-30 15q-67 -23 -134 -58q52 -35 109 -59zM2293 -770q108 58 202 82q-24 96 -110 140q-43 -89 -122 -184q24 -12 30 -38z M2164 -1067q23 0 42.5 14t26.5 35q-10 61 -33 123q-49 -62 -84 -123l-1 -7q0 -16 12.5 -29t36.5 -13zM2214 -830q13 0 24 9q15 13 15 29q0 9 -6 17t-19 8q-14 0 -25 -9q-14 -12 -14 -28q0 -10 6 -18t19 -8zM2241 -701q48 59 85 122l1 7q0 16 -13 29t-36 13q-24 0 -43.5 -14 t-25.5 -35q10 -63 32 -122zM2355 -523q15 34 15 59q0 10 -3 19q-10 30 -65 30t-76.5 -29.5t-21.5 -78.5q37 33 82 33q46 0 69 -33zM2161 -770q17 26 46 38q-39 95 -44 184q-105 -44 -169 -140q84 -24 167 -82zM1990 -857q67 24 134 59q-52 35 -109 58q-22 -1 -39 -17 q-25 -24 -25 -54q0 -16 9 -30t30 -16zM1892 -878q17 0 37 4q-19 22 -19 54q0 11 2 22q12 46 49 75q-19 4 -37 4q-23 0 -41 -8q-34 -17 -45 -71q-4 -17 -4 -31q0 -29 17 -39t41 -10zM2057 -1049q44 92 122 185q-24 11 -30 38q-108 -59 -202 -83q24 -96 110 -140zM2139 -1181 q55 0 78 29q20 29 20 78q-37 -33 -82 -33t-68 33q-15 -34 -15 -59q0 -10 3 -19q9 -29 64 -29zM2278 -1049q105 44 170 140q-84 24 -167 82q-17 -26 -46 -37q38 -93 43 -185zM2516 -878q24 0 43 9q33 16 45 71q4 17 4 30q0 50 -57 50q-17 0 -38 -5q18 -21 18 -52 q0 -11 -2 -23q-11 -47 -48 -76q18 -4 35 -4zM4731 -4h-877l8 40h284l542 2548q11 56 11 126q0 55 -17 111t-71 88q-32 19 -83 19q-33 0 -73 -8q-32 -8 -64 -19q-268 -89 -551 -390q-326 -347 -659 -953q-204 -379 -350 -712.5t-218 -524.5l-60 -283h284l-8 -40h-877l8 40 h284l542 2548q11 56 11 122q0 57 -17 114t-71 89q-32 19 -82 19q-33 0 -74 -8q-32 -8 -64 -18h-1q-267 -90 -550 -391q-326 -346 -659 -953q-204 -378 -350 -711t-218 -524l-61 -288h284l-8 -40h-877l8 40h285l616 2901h-284l9 40h876l-8 -40h-431q92 0 92 -180 q0 -16 -2 -48.5t-7 -65.5l-6 -34l-439 -2066q212 525 486 1028q336 613 666 965q420 444 805 444q88 0 150 -22q91 -33 138 -92q82 -103 84 -249q0 -59 -4 -87l-423 -1991q218 538 486 1030q336 612 666 964q420 444 805 444q88 0 150 -22q92 -33 139 -92q81 -104 83 -248 q0 -59 -4 -88l-530 -2492h284z" glyph-name="uniE029" horiz-adv-x="4782" unicode=""/><glyph d="M1180 -1221q-77 0 -95 50q-4 14 -4 29q0 24 10 53q-111 51 -137 172l-22 -1q-34 0 -57 14q-32 21 -32 68q0 17 4 38q17 77 73 106q29 14 62 14l23 -2q77 121 209 173q4 46 30 82q39 50 116 50q99 0 99 -81q0 -24 -9 -51q110 -52 136 -173l23 2q33 0 57 -14q32 -21 32 -67 q0 -18 -5 -39q-16 -78 -72 -106q-30 -14 -63 -14l-22 1q-78 -121 -210 -172q-3 -47 -29 -82q-39 -50 -117 -50zM1477 -857q21 2 39 19q25 23 25 54q0 15 -9.5 29t-29.5 15q-68 -23 -135 -58q52 -35 110 -59zM1342 -770q108 58 202 82q-23 96 -110 140q-43 -89 -122 -184 q24 -12 30 -38zM1213 -1067q24 0 43.5 14t25.5 35q-9 61 -32 123q-49 -62 -85 -123v-5q0 -18 12.5 -31t35.5 -13zM1264 -830q13 0 24 9q15 12 15 30q0 8 -6.5 16t-19.5 8t-24 -9q-15 -12 -15 -30q0 -9 6 -16.5t20 -7.5zM1291 -701q48 59 85 122v5q0 18 -12.5 31t-36.5 13 q-23 0 -43 -14t-26 -35q11 -63 33 -122zM1404 -523q15 34 15 59q0 10 -3 19q-9 30 -64 30t-76.5 -29t-21.5 -75v-4q37 33 82 33t68 -33zM1210 -770q18 26 46 38q-38 95 -43 184q-105 -44 -170 -140q85 -24 167 -82zM1039 -857q68 24 134 59q-52 35 -109 58q-22 -1 -39 -17 q-25 -23 -25 -55q0 -15 9 -29t30 -16zM942 -878q17 0 37 4q-19 22 -19 53q0 11 2 23q11 46 49 75q-20 4 -37 4q-24 0 -42 -8q-33 -17 -45 -71q-4 -17 -4 -30q0 -30 17.5 -40t41.5 -10zM1107 -1049q44 92 121 185q-24 11 -30 37q-107 -58 -202 -82q24 -96 111 -140z M1189 -1181q55 0 76.5 29t21.5 78q-37 -33 -82 -33t-69 33q-14 -35 -14 -60q0 -10 2 -18q10 -29 65 -29zM1327 -1049q106 44 170 140q-84 24 -167 82q-17 -26 -46 -37q38 -93 43 -185zM1565 -878q24 0 44 9q33 16 44 71q4 17 4 30q0 29 -18 41q-15 9 -38 9q-17 0 -39 -5 q19 -22 19 -54q0 -10 -2 -21q-11 -47 -49 -76q18 -4 35 -4zM2829 -3h-877l9 40h284l541 2548q12 61 12 122q0 150 -88 203q-32 19 -82 19q-33 0 -74 -8q-32 -8 -65 -18v-1q-267 -89 -551 -390q-325 -347 -658 -953q-204 -378 -350 -711t-218 -524l-61 -287h284l-8 -40h-877 l8 40h284l617 2901h-284l8 40h877l-8 -40h-431q91 0 91 -176q0 -19 -2 -52t-7 -66l-5 -34l-439 -2067q215 532 485 1028q336 613 667 965q419 444 804 444q89 0 151 -22q91 -33 138 -92q83 -104 83 -249v-19q0 -45 -4 -68l-3 -18l-527 -2475h285z" glyph-name="uniE030" horiz-adv-x="2880" unicode=""/><glyph d="M1083 -1221q-99 0 -99 81q0 23 9 51q-110 51 -136 172l-23 -1q-33 0 -57 14q-32 20 -32 66q0 18 5 40q17 77 73 106q29 14 62 14l22 -2q78 121 210 173q4 46 29 82q39 50 117 50q99 0 99 -81q0 -24 -9 -51q110 -52 136 -173l23 2q33 0 56 -14q32 -21 32 -68q0 -17 -4 -38 q-17 -78 -73 -106q-29 -14 -62 -14l-22 1q-78 -121 -210 -172q-4 -47 -29 -82q-39 -50 -117 -50zM1379 -857q22 2 40 19q24 23 24 53q0 16 -9 30t-30 15q-67 -23 -134 -58q52 -35 109 -59zM1245 -770q108 58 202 82q-24 96 -110 140q-43 -89 -122 -184q24 -12 30 -38z M1116 -1067q23 0 43 14t26 35q-10 61 -33 123q-49 -62 -84 -123l-1 -7q0 -16 12.5 -29t36.5 -13zM1166 -830q13 0 24 9q15 13 15 29q0 9 -6 17t-19 8t-24 -9q-15 -12 -15 -28q0 -10 6 -18t19 -8zM1194 -701q47 59 84 122l1 7q0 16 -12.5 29t-36.5 13q-23 0 -43 -14t-26 -35 q10 -63 33 -122zM1307 -523q15 34 15 59q0 10 -3 19q-10 30 -65 30t-76.5 -29.5t-21.5 -78.5q37 33 83 33q45 0 68 -33zM1113 -770q17 26 46 38q-39 95 -44 184q-105 -44 -169 -140q84 -24 167 -82zM942 -857q67 24 134 59q-52 35 -109 58q-22 -1 -39 -17q-25 -24 -25 -54 q0 -16 9 -30t30 -16zM845 -878q16 0 36 4q-19 22 -19 54q0 11 2 22q12 46 49 75q-19 4 -37 4q-23 0 -41 -8q-34 -17 -45 -71q-4 -17 -4 -31q0 -29 17 -39t42 -10zM1009 -1049q45 92 122 185q-24 11 -30 37q-108 -58 -202 -82q24 -96 110 -140zM1092 -1181q55 0 76 29t21 78 q-37 -33 -82 -33t-68 33q-15 -34 -15 -59q0 -10 3 -19q9 -29 65 -29zM1230 -1049q105 44 170 140q-84 24 -167 82q-17 -26 -46 -37q38 -93 43 -185zM1468 -878q24 0 43 9q34 16 45 71q4 17 4 30q0 50 -57 50q-17 0 -38 -5q19 -22 19 -54q0 -10 -2 -21q-12 -47 -49 -76 q18 -4 35 -4zM1339 -17q-279 0 -512 119q-223 116 -369 326q-212 315 -212 718q0 169 37 353q139 625 631 1072q235 210 507 325q283 120 563 120t512 -120q223 -115 369 -325q213 -315 213 -719q0 -169 -37 -353q-140 -624 -631 -1071q-236 -210 -508 -326 q-283 -119 -563 -119zM1348 23l66 2q274 28 531 229.5t451.5 525t281.5 719.5q48 234 48 442q0 153 -44 387.5t-225 433.5t-455 213l-27 1l-26 -1q-281 -14 -546.5 -213t-467 -528t-290.5 -735q-48 -232 -48 -440q0 -146 40.5 -374.5t212 -430t433.5 -229.5q32 -2 65 -2z " glyph-name="uniE031" horiz-adv-x="2686" unicode=""/><glyph d="M794 -1221q-99 0 -99 79q0 14 3.5 27.5t6.5 25.5q-111 51 -137 172l-23 -1q-33 0 -56 14q-33 20 -33 67q0 18 5 39q16 77 73 106q29 13 63 13l21 -1q77 121 209 173l4 21q6 34 27 61q38 50 116 50q99 0 99 -81q0 -14 -3 -30l-6 -21q110 -52 135 -173l22 1q91 0 91 -80 q0 -18 -5 -39q-16 -78 -73 -106q-29 -14 -62 -14l-23 1q-76 -121 -208 -172l-4 -21q-7 -34 -26 -61q-40 -50 -117 -50zM1090 -857q22 2 40 19q24 22 24 55q0 14 -9 28t-30 15q-67 -23 -134 -58q52 -35 109 -59zM956 -770q108 58 202 82q-24 96 -110 140q-43 -89 -122 -184 q24 -12 30 -38zM827 -1067q23 0 42.5 14t26.5 35q-10 61 -33 123q-49 -62 -84 -123l-1 -7q0 -16 12.5 -29t36.5 -13zM877 -830q13 0 24 9q15 13 15 29q0 9 -6 17t-19 8t-24 -9q-15 -12 -15 -28q0 -10 6 -18t19 -8zM904 -701q48 59 85 122l1 7q0 16 -13 29t-36 13 q-24 0 -43.5 -14t-25.5 -35q10 -63 32 -122zM1018 -523q15 38 15 60q0 48 -67 48q-56 0 -77.5 -30t-21.5 -78q36 33 83 33q45 0 68 -33zM824 -770q17 26 46 38q-39 95 -44 184q-105 -44 -169 -140q84 -24 167 -82zM653 -857q67 24 134 59q-52 35 -109 58q-22 -1 -39 -17 q-25 -24 -25 -54q0 -16 9 -30t30 -16zM554 -878q17 0 38 4q-19 21 -19 54q0 10 2 22q12 47 49 75q-19 4 -37 4q-24 0 -42 -8q-33 -17 -44 -71q-4 -17 -4 -31q0 -29 16.5 -39t40.5 -10zM720 -1049q44 92 122 185q-24 11 -30 37q-108 -58 -202 -82q24 -96 110 -140zM803 -1181 q54 0 77 29q12 16 17 39q3 18 4 39q-37 -33 -82 -33t-69 33q-15 -33 -15 -59q0 -10 3 -19q9 -29 65 -29zM941 -1049q105 44 170 140q-84 24 -167 82q-17 -26 -46 -37q38 -93 43 -185zM1180 -878q24 0 42 9q34 16 45 71q4 17 4 30q0 29 -19 41q-14 8 -37 8q-18 0 -40 -4 q19 -21 19 -52q0 -11 -2 -23q-11 -48 -49 -76q20 -4 37 -4zM1052 -5h-8q-342 0 -574 128q-184 107 -275 294q-67 140 -67 292q0 54 8 109l7 41q42 192 177 372q150 198 370 322l150 -239l-61 -23q-61 -24 -147 -83q-214 -147 -291 -422q-23 -96 -23 -174q0 -108 49.5 -225 t181.5 -210.5t307 -129.5q93 -12 194 -12q41 0 83 2q419 23 683 193q107 69 159.5 123.5t57.5 65.5q136 209 136 362q0 103 -70 215.5t-259.5 260t-483.5 347.5l-137 94q-373 262 -433 524q-15 64 -15 122q0 50 11 96q27 114 85.5 199t113.5 135q116 116 303 176 q170 53 362 53q331 0 516 -128q104 -73 148 -178q30 -69 30 -142q0 -38 -8 -76l-7 -28l-292 3q27 93 27 180q0 86 -41 163t-137 118t-197 47l-33 1q-113 0 -220 -17q-162 -37 -278 -118l-1 -1q-9 -6 -38 -32q-92 -82 -122 -211q-8 -32 -8 -67q0 -53 23.5 -131.5t125 -189 t298.5 -231.5l26 -16q309 -182 523 -333t311 -309q68 -110 68 -243q0 -57 -13 -119q-39 -191 -220 -454q-49 -84 -120 -155q-161 -161 -410 -250q-125 -43 -239 -62.5t-196.5 -24t-109.5 -4.5z" glyph-name="uniE032" horiz-adv-x="2107" unicode=""/><glyph d="M1179 -1221q-76 0 -95 50q-3 13 -3 27t3.5 28.5t6.5 26.5q-111 51 -137 172l-23 -1q-33 0 -56 14q-33 21 -33 69q0 17 4 37q17 77 74 106q29 13 63 13l21 -1q77 121 209 173l4 21q6 34 27 61q39 50 115 50q100 0 100 -81q0 -14 -3 -30l-6 -21q110 -52 135 -173l22 1 q91 0 91 -80q0 -18 -5 -39q-16 -78 -73 -106q-29 -14 -62 -14l-23 1q-77 -121 -209 -172l-4 -24q-7 -33 -26 -58q-39 -50 -117 -50zM1476 -857q22 2 40 19q24 22 24 54q0 15 -9 29t-30 15q-67 -23 -134 -58q52 -35 109 -59zM1342 -770q107 58 202 82q-24 96 -110 140 q-43 -89 -122 -184q24 -12 30 -38zM1213 -1067q23 0 42.5 14t26.5 35q-10 61 -33 123q-49 -62 -85 -123v-5q0 -18 12.5 -31t36.5 -13zM1263 -830q13 0 24 9q15 12 15 30q0 9 -6 16.5t-19 7.5q-14 0 -25 -9q-14 -12 -14 -28q0 -10 6 -18t19 -8zM1290 -701q48 59 85 122l1 7 q0 16 -13 29t-36 13q-24 0 -43.5 -14t-25.5 -35q10 -63 32 -122zM1404 -523q14 36 14 58q0 11 -3 20q-9 30 -64 30q-54 0 -78 -30q-20 -29 -20 -78q37 33 82 33q46 0 69 -33zM1210 -770q17 26 46 38q-39 95 -44 184q-105 -44 -169 -140q84 -24 167 -82zM1039 -857 q67 24 134 59q-52 35 -110 58q-21 -1 -38 -17q-25 -24 -25 -54q0 -16 9 -30t30 -16zM940 -878q17 0 38 4q-19 21 -19 54q0 10 2 22q12 47 49 75q-20 4 -37 4q-24 0 -42 -8q-33 -17 -45 -71q-3 -16 -3 -29q0 -31 16.5 -41t40.5 -10zM1106 -1049q44 92 122 185q-24 11 -30 37 q-108 -58 -202 -82q24 -96 110 -140zM1188 -1181q55 0 78 29q12 16 17 39q3 18 4 39q-37 -33 -83 -33q-45 0 -68 33q-15 -36 -15 -60q0 -47 67 -47zM1327 -1049q105 44 170 140q-84 24 -167 82q-17 -26 -46 -37q38 -93 43 -185zM1566 -878q24 0 42 9q34 16 45 71q4 17 4 30 q0 29 -19 41q-14 8 -37 8q-18 0 -40 -4q19 -21 19 -52q0 -11 -2 -23q-11 -48 -49 -76q20 -4 37 -4zM796 -7q-89 0 -151 22q-91 33 -138 92q-83 104 -83 249q0 58 4 87l532 2500h-284l8 40h877l-8 -40h-431q40 0 60 -31q31 -49 31 -144q0 -55 -8 -109q-4 -27 -481 -2272 q-6 -31 -9 -75q-2 -22 -2 -44q0 -23 3.5 -58t20.5 -75t52.5 -66t96.5 -26q32 0 71 9q298 72 616 408q326 347 659 954q204 378 349.5 710.5t217.5 524.5l63 294h-284l8 40h877l-8 -40h-431q39 0 59 -29q32 -48 32 -145q0 -68 -13 -149l-548 -2579h284l-9 -40h-430 q-57 4 -93.5 41t-36.5 94q0 18 4 37l480 2257q-222 -541 -486 -1029q-336 -612 -666 -964q-420 -444 -805 -444z" glyph-name="uniE033" horiz-adv-x="2879" unicode=""/><glyph d="M-1975 -1338l2 39q472 83 953 351.5t957 667.5t932.5 872t879 964t797.5 944q225 271 426 508q-214 -28 -419 -28q-319 0 -563 87q-41 14 -78 36.5t-59 60.5l44 13q33 -42 114 -72q237 -85 551 -85q218 0 447 32q279 330 512 575q315 330 669 503l-10 1l-21 3 q-79 12 -141 23q-262 50 -515 109q-221 52 -449 96.5t-463 66.5q-36 -175 -118 -357q-128 -269 -285.5 -465.5t-259.5 -282.5q-119 -103 -250 -161q-126 -54 -239 -54q-17 0 -33 1q-187 16 -292 176q-75 123 -75 265q0 79 23 164q62 204 239 382q391 384 1052 384 q76 0 207 -8q19 109 19 214q0 324 -182 611l36 26q186 -293 186 -630q0 -110 -20 -225q238 -21 468 -66.5t452 -97.5q253 -59 514 -108q75 -14 147 -24l75 -11h5l24 10q165 70 336 104l8 -46q-36 -8 -74 -22q-46 -16 -113 -66q137 -11 267 -11q400 0 738 107q50 17 67 22 q47 17 93 36l8 -37q-211 -84 -426 -124q-231 -44 -490 -44q-147 0 -304 14q-158 -132 -394.5 -386.5t-532.5 -595.5q178 30 373 56q238 31 443 31q382 0 645 -122l-23 -36q-202 90 -434 109q-101 9 -207 9q-308 0 -799 -87l-38 -6l-401 -465q-401 -469 -841.5 -969.5 t-885 -965.5t-860.5 -829q-511 -446 -886 -619l-155 -74q-155 -74 -391 -175q-589 -251 -969 -316q-5 0 -13 -2zM1439 3150q227 0 465 201q99 84 253 275.5t279 455.5q82 179 117 350q-85 9 -210 9q-655 0 -1025 -379q-159 -163 -217 -350q-21 -78 -21 -152q0 -133 70 -248 q97 -147 267 -162h22z" glyph-name="uniE034" horiz-adv-x="4562" unicode=""/><glyph d="M-158 -2085q-412 0 -815 101q-423 58 -663 308q-155 162 -197 372l40 15q40 -197 179 -347q159 -174 428 -259l360 -63q75 -5 157 -5q138 0 295 15q394 38 810 154l352 112q335 117 678 282l264 133q311 165 623 366l667 469q658 506 1318 1104t1187 1117l298 290 q319 315 719 691l-60 -1q-383 0 -709 116q-258 96 -536 248.5t-573 332.5q-261 158 -525 306t-523.5 260.5t-508.5 161.5q-140 27 -296 47.5t-323 20.5q-461 0 -831 -191q-233 -121 -398 -302q-196 -222 -250 -475q-17 -82 -17 -157q0 -137 57 -252l-37 -24q-62 119 -62 265 q0 81 19 170q64 275 262 496q110 121 250 216q228 183 530 298q358 135 775 135q282 0 615 -70q708 -151 1540 -674q1009 -630 1858 -690q618 570 1291 1064q93 69 187.5 126.5t197.5 89.5q79 23 150 23q72 0 131 -23t97 -68q52 -67 52 -165q0 -41 -9 -84q-18 -81 -58 -150 q-63 -106 -150 -187t-169 -140q-309 -229 -660.5 -393.5t-711.5 -249.5q-62 -15 -122 -26l-12 -3q-683 -646 -1772 -1713q-1077 -1055 -2014 -1765t-1771.5 -1069t-1613.5 -359zM7206 3003q362 26 651 137q335 157 643 383q74 54 153.5 127t138.5 165q33 80 33 140 q0 12 -2 36.5t-27.5 49.5t-82.5 25q-92 0 -259 -75q-193 -87 -495.5 -328.5t-752.5 -659.5z" glyph-name="uniE035" horiz-adv-x="7938" unicode=""/><glyph d="M10450 -663q-423 0 -878 108q-114 27 -284 96.5t-389 165.5q-231 102 -511 218q-659 273 -1272 435q-780 206 -1493 206q-328 0 -662.5 -48.5t-668.5 -157.5t-664 -288l-134 -73q467 422 807 706t714 582q414 329 898 739q-244 74 -478 165q-392 155 -714 326t-597 333 q-296 174 -568 314t-558 222q-278 78 -591 78q-324 0 -619 -89l-191 -70q-240 -99 -455 -280q-211 -181 -351 -415t-194 -485q-29 -136 -29 -266q0 -105 19 -206q75 -346 343 -561t641 -229l-9 -40q-379 11 -662 236q-280 228 -353 579q-20 105 -20 215q0 260 110 532 q74 184 188 346q330 507 783 740q407 210 900 210q280 0 557 -59q513 -111 1032 -378q1072 -653 2057 -1008q129 111 264 234q384 351 790 689t855 612q476 285 941 421q386 113 731 113q246 0 454 -59q279 -79 414 -279q98 -152 98 -361q0 -60 -8 -124q-36 -266 -193 -530 q-224 -373 -618 -663q-370 -266 -807 -408q-497 -162 -1128 -162q-253 0 -534 25q-782 71 -1459 270q-496 -421 -917 -755q-290 -231 -605 -492t-690 -594q200 101 408 177q56 26 185 76t322 110.5t439 115.5t534.5 91.5t608.5 36.5q261 0 538 -31t562.5 -102t575.5 -190 l296 -123q412 -172 767 -314t665 -244.5t587 -159t537 -56.5q289 0 569 78.5t570 248.5l1 2l26 -26q-216 -198 -461 -313.5t-505 -164t-517 -48.5zM8335 1775q368 31 690 130q283 105 510 275t393.5 373t270 406.5t139.5 376.5q19 90 19 163q0 56 -11 102 q-24 101 -115.5 197.5t-236.5 175t-333 125.5t-405 47q-206 0 -430 -51q-369 -131 -747 -357q-446 -272 -850 -608.5t-787 -686.5q-128 -116 -249 -221q524 -186 944 -282t722.5 -130t475.5 -35z" glyph-name="uniE036" horiz-adv-x="10152" unicode=""/><glyph d="M1480 -687q-120 0 -236 15q-451 61 -762 345q-321 303 -346 731l41 10q16 -272 157 -493.5t379 -366.5t545 -186q3 -1 11 -1q169 0 415.5 62t580.5 226t759.5 465t949 776t1150.5 1161q631 688 1124 1122q-772 56 -1460 322q-441 171 -822 421l27 35 q492 -322 1075.5 -508.5t1223.5 -230.5q414 362 735 579.5t554.5 326.5t384.5 145q71 21 145 30q30 4 60 4l30 -1q38 0 57 -3l18 -3l-4 -1q96 -16 174 -64q153 -97 161 -266v-9q0 -43 -9 -85q-30 -128 -118 -237t-196 -178q-134 -84 -281 -128t-292 -69q-512 -92 -1020 -95 l-156 1q-281 -277 -547 -568.5t-524 -584.5l-27 -30q-265 -300 -539 -599t-561 -577q-1126 -1092 -2182 -1392q-356 -101 -675 -101zM6680 3205q510 0 1031 93q142 24 284.5 67t270.5 123q101 65 183 165.5t110 217.5q8 38 8 76v8q-6 100 -63 168.5t-146.5 104t-187.5 35.5 q-32 0 -63 -4q-178 -25 -345.5 -115t-313.5 -198q-461 -336 -872 -740z" glyph-name="uniE037" horiz-adv-x="7688" unicode=""/><glyph d="M2934 -8h-877l9 40h284l474 2228q-97 294 -312.5 476.5t-523.5 212.5h-6q-13 2 -31 2q-12 1 -25 1q-201 0 -402 -113.5t-376.5 -313.5t-306.5 -463.5t-197 -567.5q-49 -234 -49 -445q0 -63 11.5 -225t102.5 -362.5t243 -314.5t354 -114q24 0 57 3q380 34 718 278l15 -34 q-142 -102 -296 -169q-268 -119 -533 -119t-484 119q-210 114 -346 322q-194 306 -194 696q0 174 38 364q138 617 607 1059q224 208 483 322q269 119 533 119q265 0 484 -119q209 -114 346 -322q64 -98 107 -210l124 584h-284l9 40h876l-8 -40h-431q42 0 62 -33 q30 -49 30 -146q0 -17 -2 -49t-7 -65l-6 -34l-545 -2567h284z" glyph-name="uniE045" unicode=""/><glyph d="M1717 -2q-265 0 -483 119q-126 68 -225 170l29 35q234 -245 601 -280h1q24 -3 56 -3q201 0 401.5 114t376.5 314.5t307.5 464.5t196.5 568q49 234 49 444q0 63 -11.5 225t-102.5 362t-243.5 313.5t-353.5 113.5q-14 0 -54 -2l-9 -1q-320 -30 -614 -212.5t-515 -476.5 l-472 -2224h284l-9 -40h-877l9 40h284l876 4121h-284l8 40h877l-8 -40h-431q91 0 91 -175q0 -19 -2 -52t-7 -66l-5 -34l-316 -1488q90 112 196 210q225 208 483 322q268 119 534 119q265 0 483 -119q210 -114 347 -322q194 -306 194 -695q0 -174 -39 -365 q-137 -617 -606 -1059q-225 -208 -483 -322q-269 -119 -534 -119z" glyph-name="uniE046" unicode=""/><glyph d="M1269 0q-265 0 -484 118q-210 115 -346 323q-194 306 -194 696q0 173 38 363q138 618 607 1060q97 91 203 164q135 94 280 158q269 119 533 119q265 0 484 -119q210 -114 346 -322q64 -98 107 -210l386 1815h-284l8 40h877l-8 -40h-431q91 0 91 -176q0 -18 -2 -51t-7 -66 l-5 -34l-806 -3794h284l-9 -40h-877l9 40h284l473 2224q-89 258 -231.5 401.5t-288.5 205.5q-203 85 -348 85l-5 -1l-25 1q-201 0 -402 -113.5t-376.5 -313.5t-306.5 -463.5t-197 -567.5q-49 -234 -49 -445q0 -63 11.5 -225t102.5 -362.5t243 -314.5t354 -114q14 0 27 1 l13 1l17 1q382 35 720 280l15 -35q-143 -102 -298 -171q-269 -118 -533 -118z" glyph-name="uniE047" unicode=""/><glyph d="M1339 -17q-279 0 -512 119q-223 116 -369 326q-212 315 -212 718q0 169 37 353q139 625 631 1072q235 210 506.5 325t541.5 119v1h14q227 -4 389 -63.5t269.5 -158t170.5 -218.5q61 -104 107 -294q34 -139 34 -311q0 -63 -5 -131l-4 -40h-1839l9 40h1535q19 151 19 275 q0 89 -16.5 216.5t-65.5 238.5t-97.5 166.5t-67.5 69.5q-6 4 -11 9q-83 70 -168 105q-139 56 -259 56q-12 0 -23 -1h-4q-281 -14 -546.5 -213t-467 -528t-290.5 -735q-48 -232 -48 -440q0 -146 40.5 -374.5t212 -430t433.5 -229.5l80 -2l51 2q236 24 462 179.5t412 410.5 l227 -86q-98 -104 -252 -220t-361 -207q-283 -119 -563 -119z" glyph-name="uniE048" horiz-adv-x="2549" unicode=""/><glyph d="M-61 -1542q-82 0 -145 22t-108 54t-73 63.5t-39 52.5q-43 79 -43 165q0 37 8 75q35 165 212 303q107 85 258 130t436 56q79 0 213 14q396 42 564 237q119 185 224 375h-1l-442 2936h-258l9 40h877l-9 -40h-431q42 0 73.5 -33.5t53.5 -82t36 -97t20 -81.5l6 -34l325 -2155 l1430 2483h-415l9 40h877l-9 -40h-420l-1704 -2963q-265 -482 -622 -917q-94 -118 -211 -237t-260 -213q-242 -153 -441 -153zM164 -1426q78 0 163 47l36 22q138 91 252 207.5t207 231.5q172 208 322 430q-181 -126 -491 -159q-135 -14 -215 -14q-145 -3 -293 -24 q-5 0 -38 -11.5t-77 -38.5q-109 -66 -139 -192q-7 -31 -7 -67q0 -58 19 -131q40 -134 86 -204v-1q43 -58 86 -80q34 -16 89 -16z" glyph-name="uniE049" horiz-adv-x="3022" unicode=""/></font>
</defs>
</svg>
