<?xml version="1.0" standalone="no"?>
<!DOCTYPE svg PUBLIC "-//W3C//DTD SVG 1.1//EN" "http://www.w3.org/Graphics/SVG/1.1/DTD/svg11.dtd">
<svg version="1.1" xmlns="http://www.w3.org/2000/svg" xmlns:xlink="http://www.w3.org/1999/xlink"><metadata>This SVG WebFont was generated by YouWorkForThem.
Copyright (c) 2022 by Kereatype.  All right reserved.</metadata><defs><font horiz-adv-x="717" id="ywftsvg"><font-face ascent="800" bbox="-140 -298 1932 962.395" cap-height="700" descent="-200" font-family="" font-stretch="normal" font-weight="700" panose-1="0 0 0 0 0 0 0 0 0 0" underline-position="0" underline-thickness="0" unicode-range="U+000D-FB04" units-per-em="1000" x-height="500"/><missing-glyph horiz-adv-x="250"/><glyph d="M145 500v45q0 76 44.5 120.5t119.5 44.5q52 0 87.5 -21t35.5 -53q0 -30 -52 -71l-4 3q4 20 4 42q0 40 -20 62.5t-55 22.5q-48 0 -76.5 -42t-28.5 -112v-41h300v45q0 76 44.5 120.5t119.5 44.5q52 0 87.5 -21t35.5 -53q0 -30 -52 -71l-4 3q4 20 4 42q0 40 -20 62.5 t-55 22.5q-48 0 -76.5 -42t-28.5 -112v-41h115v-15h-115v-440q0 -17 5.5 -23t24.5 -7l85 -5v-10h-265v10l65 5q19 1 24.5 7t5.5 23v440h-300v-440q0 -17 5.5 -23t24.5 -7l85 -5v-10h-265v10l65 5q19 1 24.5 7t5.5 23v440l-95 5v10h95z" glyph-name="uniFB00" horiz-adv-x="710" unicode="ff"/><glyph d="M378 710q75 0 122.5 -15t47.5 -38q0 -43 -43 -43t-43 43q0 16 -30 27t-75 11q-157 0 -157 -154v-41h338v-455q0 -17 5.5 -23t24.5 -7l65 -5v-10h-245v10l65 5q19 1 24.5 7t5.5 23v405q0 35 -35 35h-248v-440q0 -17 6 -23t24 -7l85 -5v-10h-265v10l65 5q19 1 24.5 7 t5.5 23v440l-95 5v10h95v45q0 165 233 165z" glyph-name="uniFB01" horiz-adv-x="683" unicode="fi"/><glyph d="M145 500v68q0 79 44.5 125.5t119.5 46.5q105 0 231 10v-705q0 -17 5.5 -23t24.5 -7l65 -5v-10h-245v10l65 5q19 1 24.5 7t5.5 23v655q0 18 -6 24t-24 6h-146q-49 0 -79 -44.5t-30 -117.5v-68h115v-15h-115v-440q0 -17 6 -23t24 -7l85 -5v-10h-265v10l65 5q19 1 24.5 7 t5.5 23v440l-95 5v10h95z" glyph-name="uniFB02" horiz-adv-x="665" unicode="fl"/><glyph d="M145 500v45q0 76 44.5 120.5t119.5 44.5q52 0 87.5 -21t35.5 -53q0 -30 -52 -71l-4 3q4 20 4 42q0 40 -20 62.5t-55 22.5q-48 0 -76.5 -42t-28.5 -112v-41h300v45q0 165 233 165q75 0 122.5 -15t47.5 -38q0 -43 -43 -43t-43 43q0 16 -30 27t-75 11q-157 0 -157 -154v-41 h338v-455q0 -17 5.5 -23t24.5 -7l65 -5v-10h-245v10l65 5q19 1 24.5 7t5.5 23v405q0 35 -35 35h-248v-440q0 -17 6 -23t24 -7l85 -5v-10h-265v10l65 5q19 1 24.5 7t5.5 23v440h-300v-440q0 -17 5.5 -23t24.5 -7l85 -5v-10h-265v10l65 5q19 1 24.5 7t5.5 23v440l-95 5v10h95z " glyph-name="uniFB03" horiz-adv-x="1038" unicode="ffi"/><glyph d="M145 500v45q0 76 44.5 120.5t119.5 44.5q52 0 87.5 -21t35.5 -53q0 -30 -52 -71l-4 3q4 20 4 42q0 40 -20 62.5t-55 22.5q-48 0 -76.5 -42t-28.5 -112v-41h300v68q0 79 44.5 125.5t119.5 46.5q105 0 231 10v-705q0 -17 5.5 -23t24.5 -7l65 -5v-10h-245v10l65 5 q19 1 24.5 7t5.5 23v655q0 18 -6 24t-24 6h-146q-49 0 -79 -44.5t-30 -117.5v-68h115v-15h-115v-440q0 -17 6 -23t24 -7l85 -5v-10h-265v10l65 5q19 1 24.5 7t5.5 23v440h-300v-440q0 -17 5.5 -23t24.5 -7l85 -5v-10h-265v10l65 5q19 1 24.5 7t5.5 23v440l-95 5v10h95z" glyph-name="uniFB04" horiz-adv-x="1020" unicode="ffl"/><glyph d="M456 0v700q0 18 -6 24t-24 6h-117q-49 0 -79 -44.5t-30 -117.5v-68h115v-15h-115v-440q0 -17 6 -23t24 -7l85 -5v-10h-265v10l65 5q19 1 24.5 7t5.5 23v440l-95 5v10h95v68q0 79 44.5 125.5t119.5 46.5q86 0 202 10v-378q19 64 68 101t113 37q92 0 149.5 -72.5 t57.5 -187.5t-57.5 -187.5t-149.5 -72.5q-71 0 -122 45t-65 119l-39 -154h-10zM511 320v-140q7 -72 53 -118.5t109 -46.5q75 0 123 66t48 170q0 102 -48 168t-123 66q-63 0 -109 -46.5t-53 -118.5z" glyph-name="f_b.liga" horiz-adv-x="934" unicode="fb"/><glyph d="M899 306v-261q0 -17 5.5 -23t24.5 -7l65 -5v-10h-245v10l65 5q19 1 24.5 7t5.5 23v261q0 83 -39 131t-107 48q-69 0 -113 -49.5t-45 -129.5v-261q0 -17 5.5 -23t24.5 -7l65 -5v-10h-245v10l65 5q19 1 24.5 7t5.5 23v655q0 18 -6 24t-24 6h-146q-49 0 -79 -44.5 t-30 -117.5v-68h115v-15h-115v-440q0 -17 6 -23t24 -7l85 -5v-10h-265v10l65 5q19 1 24.5 7t5.5 23v440l-95 5v10h95v68q0 79 44.5 125.5t119.5 46.5q105 0 231 10v-378q19 64 67.5 101t115.5 37q81 0 128.5 -54.5t47.5 -149.5z" glyph-name="f_h.liga" horiz-adv-x="1021" unicode="fh"/><glyph d="M783 447l-132 -129l175 -265q14 -22 23 -29t25 -9l65 -5v-10h-265v10l85 5q22 2 24.5 5t-7.5 19l-161 244l-75 -73v-165q0 -17 5.5 -23t24.5 -7l65 -5v-10h-245v10l65 5q19 1 24.5 7t5.5 23v655q0 18 -6 24t-24 6h-146q-49 0 -79 -44.5t-30 -117.5v-68h115v-15h-115v-440 q0 -17 6 -23t24 -7l85 -5v-10h-265v10l65 5q19 1 24.5 7t5.5 23v440l-95 5v10h95v68q0 79 44.5 125.5t119.5 46.5q105 0 231 10v-521l243 237q12 12 10.5 15t-19.5 4l-85 5v10h222v-10l-65 -4q-17 -1 -26.5 -6.5t-36.5 -32.5z" glyph-name="f_k.liga" horiz-adv-x="924" unicode="fk"/><glyph d="M379 710q74 0 121.5 -15t47.5 -38q0 -43 -43 -43t-43 43q0 16 -30 27t-76 11q-156 0 -156 -154v-41h338v-545q0 -75 -46 -120t-123 -45q-60 0 -99 26.5t-39 61.5q0 36 52 67l4 -3q-6 -21 -6 -48q0 -41 24.5 -67.5t65.5 -26.5q50 0 81 42t31 113v495q0 35 -35 35h-248 v-440q0 -17 6 -23t24 -7l85 -5v-10h-265v10l65 5q19 1 24.5 7t5.5 23v440l-95 5v10h95v45q0 165 234 165z" glyph-name="f_j.liga" horiz-adv-x="648" unicode="fj"/><glyph glyph-name=".notdef" horiz-adv-x="250"/><glyph glyph-name="glyph1" horiz-adv-x="0"/><glyph glyph-name="glyph1" horiz-adv-x="0"/><glyph glyph-name="space" horiz-adv-x="260" unicode=" "/><glyph d="M195 167l-30 522q-1 17 9.5 26.5t25.5 9.5t25.5 -9.5t9.5 -26.5l-30 -522h-10zM155 48q0 48 45 48q24 0 34.5 -11t10.5 -37t-10.5 -37t-34.5 -11q-45 0 -45 48z" glyph-name="exclam" horiz-adv-x="400" unicode="!"/><glyph d="M70 462l-2 10q23 16 37.5 44.5t14.5 56.5q0 26 -15 26q-26 0 -38 12t-12 39q0 26 12 38t39 12t38.5 -14.5t11.5 -48.5q0 -54 -23.5 -103t-62.5 -72zM201 462l-2 10q23 16 37.5 44.5t14.5 56.5q0 26 -15 26q-26 0 -38 12t-12 39q0 26 12 38t39 12t38.5 -14.5t11.5 -48.5 q0 -54 -23.5 -103t-62.5 -72z" glyph-name="quotedbl" horiz-adv-x="342" unicode="&quot;"/><glyph d="M417 406l-25 -170h110l-3 -20h-112l-31 -216h-41l32 216h-152l-32 -216h-40l32 216h-115l4 20h114l26 170h-115l4 20h114l30 204h41l-31 -204h153l30 204h41l-32 -204h112l-4 -20h-110zM199 236h152l25 170h-152z" glyph-name="numbersign" horiz-adv-x="571" unicode="#"/><glyph d="M272 -50v90q-86 3 -141.5 39t-55.5 89q0 50 50 106l4 -3q-12 -15 -12 -60q0 -66 42 -108t113 -46v293l-25 6q-83 21 -121.5 56.5t-38.5 90.5q0 69 50.5 111t134.5 46v90h30v-90q69 -4 113.5 -33.5t44.5 -72.5q0 -7 -1.5 -15.5t-3.5 -14.5t-7 -15l-7.5 -13.5t-9 -13.5 t-9 -12t-9.5 -12.5t-8 -10.5l-4 3q17 25 17 72q0 50 -31.5 82.5t-84.5 38.5v-252l15 -4q100 -25 141.5 -63t41.5 -105q0 -80 -52.5 -127t-145.5 -52v-90h-30zM272 398v246q-62 -2 -100.5 -36.5t-38.5 -87.5q0 -88 131 -120zM302 342v-286q71 3 111.5 41.5t40.5 103.5 q0 54 -35 86.5t-117 54.5z" glyph-name="dollar" horiz-adv-x="575" unicode="$"/><glyph d="M30 506q0 93 43 148.5t114 55.5q70 0 113 -54q59 -64 124 -64q40 0 83 29.5t75 78.5h43l-418 -700h-43l371 622q-57 -44 -113 -44q-50 0 -96 33q18 -45 18 -105q0 -93 -43 -148.5t-114 -55.5t-114 55.5t-43 148.5zM70 507q0 -89 29 -140.5t83 -51.5q56 0 89 52t33 140 q0 87 -33 138.5t-89 51.5q-54 0 -83 -51t-29 -139zM445 191q0 93 43 148.5t114 55.5t114 -55.5t43 -148.5t-43 -148.5t-114 -55.5t-114 55.5t-43 148.5zM485 192q0 -87 32 -139.5t85 -52.5t85 52t32 140q0 87 -32 138.5t-85 51.5t-85 -52t-32 -138z" glyph-name="percent" horiz-adv-x="789" unicode="%"/><glyph d="M486 450q0 28 -14 49l4 3q52 -39 52 -67q0 -24 -27 -44.5t-69 -28.5q47 -14 76.5 -60.5t29.5 -107.5q0 -91 -66.5 -147.5t-173.5 -56.5q-109 0 -176 57.5t-67 150.5q0 76 48 126.5t132 61.5q-59 16 -95.5 61.5t-36.5 101.5q0 71 56.5 116t146.5 45q69 0 114.5 -26.5 t45.5 -66.5q0 -23 -17 -48.5t-45 -43.5l-4 3q14 21 14 63q0 48 -29 75.5t-80 27.5q-64 0 -105 -41t-41 -106q0 -64 38 -111t90 -47v-10q-83 0 -129.5 -47.5t-46.5 -130.5q0 -88 52.5 -142t136.5 -54t135.5 54t51.5 142q0 69 -30.5 112.5t-78.5 43.5q-36 0 -61.5 -23.5 t-25.5 -57.5q0 -32 14 -51l-4 -3q-52 41 -52 69q0 32 24.5 48t59.5 21t69.5 10.5t59 24.5t24.5 55z" glyph-name="ampersand" horiz-adv-x="583" unicode="&amp;"/><glyph d="M70 462l-2 10q23 16 37.5 44.5t14.5 56.5q0 26 -15 26q-26 0 -38 12t-12 39q0 26 12 38t39 12t38.5 -14.5t11.5 -48.5q0 -54 -23.5 -103t-62.5 -72z" glyph-name="quotesingle" horiz-adv-x="211" unicode="'"/><glyph d="M40 315q0 136 77 257.5t198 177.5l3 -5q-105 -61 -169 -179t-64 -251t64 -251t169 -179l-3 -5q-121 56 -198 177.5t-77 257.5z" glyph-name="parenleft" horiz-adv-x="338" unicode="("/><glyph d="M298 315q0 -136 -77 -257.5t-198 -177.5l-3 5q105 61 169 179t64 251t-64 251t-169 179l3 5q121 -56 198 -177.5t77 -257.5z" glyph-name="parenright" horiz-adv-x="338" unicode=")"/><glyph d="M250 677q0 33 24 33t24 -33q0 -16 -6 -37q24 45 47 45q10 0 17 -7q15 -16 -8 -39q-13 -13 -37 -26q24 8 45 10q14 1 24 -6.5t9 -18.5q0 -23 -33 -23q-17 0 -44 8q30 -17 38 -25q11 -10 12.5 -22t-6.5 -20q-6 -6 -14 -6q-25 0 -51 49q9 -25 9 -43q1 -15 -6.5 -24.5 t-18.5 -8.5q-23 0 -23 33q0 18 8 44q-15 -27 -25 -38q-13 -13 -26 -13q-9 0 -16 7q-15 17 8 40q12 12 33 24q-26 -8 -40 -8q-15 -1 -24.5 6t-8.5 19q0 23 33 23q16 0 38 -6q-26 16 -32 22q-24 24 -6 41q6 6 15 6q22 0 47 -44q-6 22 -6 38z" glyph-name="asterisk" horiz-adv-x="550" unicode="*"/><glyph d="M204 140v167h-179v40h179v168h43v-168h178v-40h-178v-167h-43z" glyph-name="plus" horiz-adv-x="450" unicode="+"/><glyph d="M70 -137l-2 10q23 16 37.5 44.5t14.5 56.5q0 26 -15 26q-26 0 -38 12t-12 39q0 26 12 38t39 12t38.5 -14.5t11.5 -48.5q0 -54 -23.5 -103t-62.5 -72z" glyph-name="comma" horiz-adv-x="211" unicode=","/><glyph d="M30 239v44h294v-44h-294z" glyph-name="hyphen" horiz-adv-x="354" unicode="-"/><glyph d="M55 51q0 27 12 38.5t39 11.5q26 0 38 -11.5t12 -38.5t-12 -39t-38 -12q-27 0 -39 11.5t-12 39.5z" glyph-name="period" horiz-adv-x="211" unicode="."/><glyph d="M-25 -200l386 950h46l-386 -950h-46z" glyph-name="slash" horiz-adv-x="452" unicode="/"/><glyph d="M40 350q0 164 71.5 262t190.5 98t190.5 -98t71.5 -262t-71.5 -262t-190.5 -98t-190.5 98t-71.5 262zM95 350q0 -157 56.5 -251t150.5 -94t150.5 94t56.5 251t-56.5 251t-150.5 94t-150.5 -94t-56.5 -251z" glyph-name="zero" horiz-adv-x="604" unicode="0"/><glyph d="M235 45v585q0 18 -6 24t-24 6h-45v10q103 11 130 30v-655q0 -17 5.5 -23t24.5 -7l65 -5v-10h-245v10l65 5q19 1 24.5 7t5.5 23z" glyph-name="one" horiz-adv-x="525" unicode="1"/><glyph d="M282 690q-76 0 -125 -46t-49 -118q0 -48 14 -76l-4 -3q-62 61 -62 113q0 60 66.5 102.5t160.5 42.5q103 0 168 -52.5t65 -135.5q0 -47 -23 -85t-59.5 -64.5t-81 -50.5t-89 -49t-81 -53t-59.5 -70.5t-23 -94.5q40 87 125 87q40 0 74 -23t64 -46t59 -23q36 0 60.5 27.5 t24.5 68.5q0 36 -14 66l4 3q35 -44 35 -98q0 -52 -30.5 -87t-74.5 -35q-26 0 -50 13.5t-43 33t-37.5 39t-40.5 33t-45 13.5q-43 0 -77 -37.5t-34 -84.5h-55v60q0 45 23 82.5t59.5 64.5t81 52t89 50.5t81 53.5t59.5 68t23 87q0 75 -50.5 123.5t-128.5 48.5z" glyph-name="two" horiz-adv-x="577" unicode="2"/><glyph d="M87 700h424v-15l-239 -262q35 16 77 16q83 0 135 -57.5t52 -149.5q0 -107 -71 -175.5t-183 -68.5q-94 0 -160.5 46t-66.5 110q0 55 54 106l4 -3q-7 -19 -7 -62q0 -82 48.5 -132t127.5 -50q88 0 143.5 62t55.5 159q0 85 -43 137.5t-114 52.5q-49 0 -80 -21l-47 12l256 280 h-296q-20 0 -28.5 -6.5t-11.5 -23.5l-20 -109h-10v154z" glyph-name="three" horiz-adv-x="591" unicode="3"/><glyph d="M373 228v272h55v-272h68q20 0 29.5 6.5t13.5 23.5l16 75h10l-11 -120h-126v-168q0 -17 5.5 -23t24.5 -7l65 -5v-10h-245v10l65 5q19 1 24.5 7t5.5 23v168h-348l365 497h58l-354 -482h279z" glyph-name="four" horiz-adv-x="590" unicode="4"/><glyph d="M94 374l40 326h351l11 -120h-10l-26 75q-6 17 -15 23.5t-28 6.5h-236l-35 -290q72 62 173 62q98 0 161 -64t63 -164q0 -106 -70.5 -172.5t-182.5 -66.5q-94 0 -162 45.5t-68 108.5q0 55 54 106l4 -3q-7 -30 -7 -69q0 -79 47.5 -126t125.5 -47q89 0 146.5 61t57.5 157 q0 91 -52 150t-132 59q-43 0 -89 -16.5t-71 -40.5z" glyph-name="five" horiz-adv-x="603" unicode="5"/><glyph d="M110 325q0 -31 3 -59q17 91 73.5 141t143.5 50q98 0 157.5 -61t59.5 -161q0 -107 -67.5 -176t-171.5 -69q-117 0 -185 90.5t-68 246.5q0 169 78 276t202 107q74 0 128.5 -36t54.5 -85q0 -50 -50 -94l-4 3q2 26 2 40q0 73 -35.5 115t-97.5 42q-100 0 -161.5 -102 t-61.5 -268zM304 5q81 0 134.5 65.5t53.5 163.5q0 93 -48.5 150.5t-127.5 57.5q-83 0 -139 -63.5t-56 -158.5q0 -92 52 -153.5t131 -61.5z" glyph-name="six" horiz-adv-x="597" unicode="6"/><glyph d="M205 710q37 0 71 -23t67 -46t67 -23q38 0 62.5 23t24.5 59h25q-1 -64 -16 -112t-38.5 -79.5t-52 -61t-56.5 -65.5t-51 -82.5t-37.5 -123t-14.5 -176.5h-55q0 100 14 177t37 123t51 80.5t57.5 59.5t55.5 49t46.5 59.5t28.5 81.5q-26 -67 -101 -67q-31 0 -58.5 14.5 t-45.5 31.5t-47 31.5t-61 14.5q-45 0 -71.5 -25t-28.5 -66h-6q0 62 38.5 104t94.5 42z" glyph-name="seven" horiz-adv-x="587" unicode="7"/><glyph d="M393 424l-5 3q33 17 52.5 51.5t19.5 77.5q0 64 -42 101.5t-113 37.5t-112.5 -37t-41.5 -100t42 -101.5t112 -38.5q114 0 185.5 -58.5t71.5 -151.5q0 -95 -74 -156.5t-188 -61.5q-112 0 -181 59.5t-69 156.5q0 81 49.5 135t135.5 71q-62 17 -100.5 58t-38.5 93 q0 64 57.5 105.5t146.5 41.5q91 0 153 -41.5t62 -103.5q0 -44 -33.5 -83t-88.5 -58zM305 403q-91 0 -145.5 -54.5t-54.5 -145.5t54 -144.5t145 -53.5q92 0 147.5 54.5t55.5 144.5t-55.5 144.5t-146.5 54.5z" glyph-name="eight" horiz-adv-x="612" unicode="8"/><glyph d="M487 375q0 31 -3 59q-17 -91 -73 -141t-143 -50q-98 0 -158 61t-60 161q0 107 67.5 176t171.5 69q117 0 185 -90.5t68 -246.5q0 -169 -78 -276t-202 -107q-74 0 -128.5 36t-54.5 85q0 50 50 94l4 -3q-2 -26 -2 -40q0 -73 35.5 -115t97.5 -42q100 0 161.5 102t61.5 268z M293 695q-81 0 -134.5 -65.5t-53.5 -163.5q0 -93 48.5 -150.5t127.5 -57.5q83 0 139 63.5t56 158.5q0 92 -52 153.5t-131 61.5z" glyph-name="nine" horiz-adv-x="597" unicode="9"/><glyph d="M55 450q0 27 12 38.5t39 11.5q26 0 38 -11.5t12 -38.5q0 -28 -12 -39.5t-38 -11.5q-27 0 -39 11.5t-12 39.5zM55 51q0 27 12 38.5t39 11.5q26 0 38 -11.5t12 -38.5t-12 -39t-38 -12q-27 0 -39 11.5t-12 39.5z" glyph-name="colon" horiz-adv-x="211" unicode=":"/><glyph d="M55 451q0 27 12 38.5t39 11.5q26 0 38 -11.5t12 -38.5t-12 -39t-38 -12q-27 0 -39 11.5t-12 39.5zM70 -137l-2 10q23 16 37.5 44.5t14.5 56.5q0 26 -15 26q-26 0 -38 12t-12 39q0 26 12 38t39 12t38.5 -14.5t11.5 -48.5q0 -54 -23.5 -103t-62.5 -72z" glyph-name="semicolon" horiz-adv-x="211" unicode=";"/><glyph d="M30 316v23l412 178v-42l-344 -148l344 -148v-42z" glyph-name="less" horiz-adv-x="472" unicode="&lt;"/><glyph d="M442 389h-412v38h412v-38zM442 260h-412v38h412v-38z" glyph-name="equal" horiz-adv-x="472" unicode="="/><glyph d="M30 517l412 -178v-23l-412 -179v42l344 148l-344 148v42z" glyph-name="greater" horiz-adv-x="472" unicode=">"/><glyph d="M241 137h-10q0 46 15.5 84t38.5 62t50.5 49.5t50.5 48t38.5 58t15.5 77.5q0 77 -46.5 125.5t-120.5 48.5q-73 0 -119.5 -45.5t-46.5 -117.5q0 -49 14 -77l-4 -3q-62 47 -62 112q0 61 63 103.5t154 42.5q99 0 161 -53t62 -138q0 -38 -14 -69.5t-36.5 -54t-49.5 -42.5 t-54 -40.5t-49.5 -43t-36.5 -55.5t-14 -72zM191 48q0 48 45 48q24 0 34.5 -11t10.5 -37t-10.5 -37t-34.5 -11q-45 0 -45 48z" glyph-name="question" horiz-adv-x="530" unicode="?"/><glyph d="M518 187q-15 -50 -58.5 -81t-98.5 -31q-54 0 -88.5 29t-34.5 73q0 69 86 112q62 31 184 63v20q0 118 -100 118q-49 0 -78 -26.5t-29 -72.5q0 -28 14 -60l-3 -3q-53 49 -53 83q0 38 40.5 63.5t103.5 25.5q71 0 110.5 -35.5t39.5 -99.5v-176q0 -77 56 -77q59 0 99 71 t40 176q0 152 -87 244t-231 92q-164 0 -272 -116.5t-108 -293.5q0 -168 100.5 -269.5t266.5 -101.5q127 0 206 47v-6q-38 -26 -100.5 -41t-130.5 -15q-177 0 -282 102.5t-105 274.5q0 189 121 311.5t306 122.5q162 0 261.5 -95t99.5 -249q0 -116 -55 -192.5t-138 -76.5 q-82 0 -82 90zM508 341q-106 -31 -161 -63q-64 -40 -64 -96q0 -38 27.5 -62.5t70.5 -24.5q56 0 91.5 41.5t35.5 107.5v97z" glyph-name="at" horiz-adv-x="803" unicode="@"/><glyph d="M480 280l-134 378q-7 15 -7 16l-140 -394h281zM194 264l-78 -220q-7 -20 -3.5 -24t29.5 -6l70 -4v-10h-217v10l70 5q17 1 22 6t14 29l224 633q-6 2 -13 2l-65 5v10h141l230 -650q8 -24 13 -29t23 -6l70 -5v-10h-257v10l70 5q26 2 29.5 5.5t-3.5 23.5l-78 220h-291z" glyph-name="A" horiz-adv-x="719" unicode="A"/><glyph d="M209 376v-360h179q84 0 134.5 50.5t50.5 133.5q0 79 -44.5 127.5t-115.5 48.5h-204zM209 654v-262h204q47 0 80 43t33 104q0 65 -39.5 105t-103.5 40h-144q-18 0 -24 -6t-6 -24zM153 45v610q0 17 -5.5 23t-24.5 7l-70 5v10h330q89 0 144 -43t55 -113q0 -58 -36.5 -101.5 t-92.5 -56.5q81 -11 129 -61t48 -127q0 -90 -66 -144t-176 -54h-335v10l70 5q19 1 24.5 7t5.5 23z" glyph-name="B" horiz-adv-x="680" unicode="B"/><glyph d="M101 359q0 -152 74 -245t195 -93q89 0 151.5 52.5t85.5 147.5h10q-25 -112 -93.5 -171.5t-171.5 -59.5q-137 0 -222 99.5t-85 260.5t83.5 260.5t217.5 99.5q122 0 194 -75q10 -12 16 -12t7 22l4 55h10v-200h-10l-6 59q-3 27 -27 57q-30 36 -78 57t-101 21 q-113 0 -183.5 -93t-70.5 -242z" glyph-name="C" horiz-adv-x="647" unicode="C"/><glyph d="M209 654v-638h169q104 0 169.5 93t65.5 241t-65.5 241t-169.5 93h-139q-18 0 -24 -6t-6 -24zM53 700h325q130 0 211 -97t81 -253t-81 -253t-211 -97h-325v10l70 5q19 1 24.5 7t5.5 23v610q0 17 -5.5 23t-24.5 7l-70 5v10z" glyph-name="D" horiz-adv-x="715" unicode="D"/><glyph d="M153 45v610q0 17 -5.5 23t-24.5 7l-70 5v10h519v-155h-10l-30 109q-5 17 -12.5 23.5t-27.5 6.5h-253q-18 0 -24 -6t-6 -24v-295h163q17 0 22 5.5t8 24.5l10 65h10v-206h-10l-10 65q-3 19 -8 24.5t-22 5.5h-163v-327h293q20 0 29 7t14 23l37 124h10l-10 -170h-529v10l70 5 q19 1 24.5 7t5.5 23z" glyph-name="E" horiz-adv-x="642" unicode="E"/><glyph d="M153 45v610q0 17 -5.5 23t-24.5 7l-70 5v10h513v-155h-10l-30 109q-5 17 -12.5 23.5t-27.5 6.5h-247q-18 0 -24 -6t-6 -24v-310h163q17 0 22 5.5t8 24.5l10 65h10v-206h-10l-10 65q-3 19 -8 24.5t-22 5.5h-163v-283q0 -17 5.5 -23t24.5 -7l85 -5v-10h-271v10l70 5 q19 1 24.5 7t5.5 23z" glyph-name="F" horiz-adv-x="591" unicode="F"/><glyph d="M101 356q0 -149 65.5 -241.5t170.5 -92.5q80 0 135 53.5t63 133.5v69q0 17 -7.5 22.5t-31.5 7.5l-66 5v10h256v-10l-65 -5q-19 -2 -24.5 -7.5t-5.5 -22.5v-278h-10l-46 163q-18 -79 -77 -126t-141 -47q-120 0 -196 100t-76 260t85 260t222 100q112 0 184 -72 q15 -15 20 -15q8 0 9 22l4 55h10v-201h-10l-5 60q-2 25 -25 55q-29 36 -78 58t-103 22q-113 0 -185 -94t-72 -244z" glyph-name="G" horiz-adv-x="671" unicode="G"/><glyph d="M153 45v610q0 17 -5.5 23t-24.5 7l-70 5v10h256v-10l-70 -5q-19 -1 -24.5 -7t-5.5 -23v-292h345v292q0 17 -5.5 23t-24.5 7l-70 5v10h256v-10l-70 -5q-19 -1 -24.5 -7t-5.5 -23v-610q0 -17 5.5 -23t24.5 -7l70 -5v-10h-256v10l70 5q19 1 24.5 7t5.5 23v302h-345v-302 q0 -17 5.5 -23t24.5 -7l70 -5v-10h-256v10l70 5q19 1 24.5 7t5.5 23z" glyph-name="H" horiz-adv-x="763" unicode="H"/><glyph d="M153 45v610q0 17 -5.5 23t-24.5 7l-70 5v10h256v-10l-70 -5q-19 -1 -24.5 -7t-5.5 -23v-610q0 -17 5.5 -23t24.5 -7l70 -5v-10h-256v10l70 5q19 1 24.5 7t5.5 23z" glyph-name="I" horiz-adv-x="362" unicode="I"/><glyph d="M315 181v474q0 17 -5.5 23t-24.5 7l-70 5v10h256v-10l-70 -5q-19 -1 -24.5 -7t-5.5 -23v-474q0 -88 -55 -139.5t-148 -51.5q-73 0 -120.5 31t-47.5 79q0 29 17 59t43 47l6 -2q-14 -28 -14 -78q0 -51 35 -85.5t89 -34.5q62 0 100.5 48.5t38.5 126.5z" glyph-name="J" horiz-adv-x="496" unicode="J"/><glyph d="M153 45v610q0 17 -5.5 23t-24.5 7l-70 5v10h256v-10l-70 -5q-19 -1 -24.5 -7t-5.5 -23v-345l365 362q10 10 3 12q-5 1 -22 2l-70 4v10h212v-10l-70 -5q-14 -1 -20 -4.5t-23 -20.5l-231 -229l262 -388q13 -19 18.5 -23t20.5 -5l70 -5v-10h-256v10l71 5q24 1 27 3.5 t-3 12.5l-246 364l-108 -107v-243q0 -17 5.5 -23t24.5 -7l70 -5v-10h-256v10l70 5q19 1 24.5 7t5.5 23z" glyph-name="K" horiz-adv-x="724" unicode="K"/><glyph d="M153 45v610q0 17 -5.5 23t-24.5 7l-70 5v10h256v-10l-70 -5q-19 -1 -24.5 -7t-5.5 -23v-639h268q20 0 29 7t14 23l37 124h10l-10 -170h-504v10l70 5q19 1 24.5 7t5.5 23z" glyph-name="L" horiz-adv-x="577" unicode="L"/><glyph d="M130 45l26 610q0 17 -5.5 23t-24.5 7l-65 5v10h150l227 -675l226 675h150v-10l-65 -5q-19 -1 -24.5 -7t-5.5 -23l26 -610q1 -18 6.5 -23t23.5 -7l70 -5v-10h-256v10l70 5q19 1 25 7t5 23l-26 602l-217 -647h-57l-217 647l-26 -602q-1 -17 4.5 -23t25.5 -7l70 -5v-10h-216 v10l70 5q18 2 23.5 7t6.5 23z" glyph-name="M" horiz-adv-x="878" unicode="M"/><glyph d="M580 98v557q0 17 -5.5 23t-24.5 7l-70 5v10h216v-10l-70 -5q-19 -1 -24.5 -7t-5.5 -23v-655h-16l-411 658v-613q0 -17 5.5 -23t24.5 -7l70 -5v-10h-216v10l70 5q19 1 24.5 7t5.5 23v610q0 17 -5.5 23t-24.5 7l-65 5v10h146z" glyph-name="N" horiz-adv-x="736" unicode="N"/><glyph d="M45 350q0 162 86.5 261t228.5 99q140 0 226 -99t86 -261t-86 -261t-226 -99q-142 0 -228.5 99t-86.5 261zM101 350q0 -155 71 -249.5t188 -94.5q115 0 185.5 95t70.5 249t-70.5 249t-185.5 95q-117 0 -188 -94.5t-71 -249.5z" glyph-name="O" unicode="O"/><glyph d="M153 45v610q0 17 -5.5 23t-24.5 7l-70 5v10h330q103 0 164 -52t61 -140q0 -81 -58 -138t-142 -57h-199v-268q0 -17 5.5 -23t24.5 -7l90 -5v-10h-276v10l70 5q19 1 24.5 7t5.5 23zM209 654v-325h199q58 0 101 53t43 126q0 80 -46 128t-123 48h-144q-18 0 -24 -6t-6 -24z " glyph-name="P" horiz-adv-x="633" unicode="P"/><glyph d="M45 350q0 162 86.5 261t228.5 99q140 0 226 -99t86 -261q0 -143 -68 -238t-183 -116q36 -6 127 -36t150 -30q87 0 113 44l4 -4q-29 -90 -130 -90q-52 0 -108.5 27.5t-111.5 55t-105 27.5q-142 0 -228.5 99t-86.5 261zM101 350q0 -155 71 -249.5t188 -94.5q115 0 185.5 95 t70.5 249t-70.5 249t-185.5 95q-117 0 -188 -94.5t-71 -249.5z" glyph-name="Q" unicode="Q"/><glyph d="M153 45v610q0 17 -5.5 23t-24.5 7l-70 5v10h330q103 0 164 -48.5t61 -129.5q0 -73 -55.5 -126t-135.5 -56l161 -295q9 -17 17.5 -23t26.5 -7l65 -5v-10h-143l-185 340h-150v-295q0 -17 5.5 -23t24.5 -7l90 -5v-10h-276v10l70 5q19 1 24.5 7t5.5 23zM209 654v-298h199 q58 0 101 49.5t43 116.5q0 74 -46 118t-123 44h-144q-18 0 -24 -6t-6 -24z" glyph-name="R" horiz-adv-x="672" unicode="R"/><glyph d="M292 710q83 0 174 -49l24 -132h-10q-17 79 -67 122.5t-124 43.5q-73 0 -119.5 -40.5t-46.5 -104.5q0 -53 35.5 -87t110.5 -54l58 -15q107 -28 155 -75t48 -125q0 -94 -62.5 -149t-168.5 -55q-133 0 -226 72l-23 134h10q25 -86 90 -138t147 -52q79 0 128 47t49 122 q0 65 -40.5 105t-131.5 63l-59 15q-92 23 -134 64.5t-42 108.5q0 82 61 130.5t164 48.5z" glyph-name="S" horiz-adv-x="575" unicode="S"/><glyph d="M273 45v610q0 17 -5.5 23t-24.5 6h-123q-20 0 -29 -7t-14 -23l-37 -124h-10l10 170h522l10 -170h-10l-37 124q-5 16 -14 23t-29 7h-123q-19 0 -24.5 -6t-5.5 -23v-610q0 -17 5.5 -23t24.5 -7l70 -5v-10h-256v10l70 5q19 1 24.5 7t5.5 23z" glyph-name="T" horiz-adv-x="602" unicode="T"/><glyph d="M128 208v447q0 17 -5.5 23t-24.5 7l-70 5v10h256v-10l-70 -5q-19 -1 -24.5 -7t-5.5 -23v-447q0 -82 54.5 -135.5t138.5 -53.5t138.5 53.5t54.5 135.5v447q0 17 -5.5 23t-24.5 7l-70 5v10h216v-10l-70 -5q-19 -1 -24.5 -7t-5.5 -23v-447q0 -95 -64 -156.5t-164 -61.5 t-165 61.5t-65 156.5z" glyph-name="U" horiz-adv-x="711" unicode="U"/><glyph d="M583 650l-218 -650h-56l-218 650q-8 24 -13 29t-23 6l-70 5v10h276v-10l-90 -5q-23 -1 -27.5 -6.5t1.5 -22.5l212 -631l211 631q6 18 2 23t-28 6l-90 5v10h237v-10l-70 -5q-18 -1 -23 -6t-13 -29z" glyph-name="V" horiz-adv-x="674" unicode="V"/><glyph d="M447 621l-141 -621h-57l-148 650q-5 24 -10 29t-26 6l-70 5v10h277v-10l-90 -5q-20 -2 -25 -7t-1 -22l142 -619l141 619h56l141 -617l141 617q4 17 -1 22t-25 7l-90 5v10h237v-10l-70 -5q-21 -1 -26 -6t-10 -29l-148 -648l1 -2h-57z" glyph-name="W" horiz-adv-x="893" unicode="W"/><glyph d="M323 358l-190 288q-19 27 -25.5 32.5t-21.5 6.5l-70 5v10h256v-10l-70 -5q-22 -1 -25.5 -5.5t7.5 -20.5l179 -271l188 271q11 16 7.5 20.5t-25.5 5.5l-70 5v10h216v-10l-70 -5q-15 -1 -21.5 -6.5t-25.5 -32.5l-190 -273l211 -319q19 -27 25.5 -32.5t21.5 -6.5l70 -5v-10 h-256v10l70 5q22 1 25.5 5.5t-7.5 20.5l-200 303l-209 -303q-11 -16 -7.5 -20.5t25.5 -5.5l70 -5v-10h-216v10l70 5q15 1 21.5 6.5t25.5 32.5z" glyph-name="X" horiz-adv-x="695" unicode="X"/><glyph d="M289 45v246l-202 357q-14 25 -20 30t-22 7l-70 5v10h256v-10l-70 -5q-24 -2 -28 -6.5t6 -21.5l198 -352l198 352q10 17 6 21.5t-28 6.5l-70 5v10h216v-10l-70 -5q-16 -2 -22 -7t-20 -30l-202 -357v-246q0 -17 5.5 -23t24.5 -7l70 -5v-10h-256v10l70 5q19 1 24.5 7t5.5 23 z" glyph-name="Y" horiz-adv-x="634" unicode="Y"/><glyph d="M25 0v14l466 670h-368q-12 0 -18.5 -1t-11 -9t-5.5 -11t-5 -21l-28 -110h-10v168h507v-14l-466 -670h392q36 0 43 30l37 145h10l-10 -191h-533z" glyph-name="Z" horiz-adv-x="593" unicode="Z"/><glyph d="M60 315q0 137 22 240.5t61 147.5q45 52 132 47l3 -5q-42 -2 -66.5 -13.5t-41.5 -37.5q-65 -96 -65 -379q0 -284 67 -380q32 -46 106 -50l-3 -5q-85 -5 -131 46q-40 43 -62 146t-22 243z" glyph-name="bracketleft" horiz-adv-x="293" unicode="["/><glyph d="M20 825h46l416 -950h-46z" glyph-name="backslash" horiz-adv-x="527" unicode="\"/><glyph d="M233 315q0 -140 -22 -243t-62 -146q-46 -51 -131 -46l-3 5q74 4 106 50q67 94 67 380q0 285 -65 379q-17 26 -41.5 37.5t-66.5 13.5l3 5q86 5 133 -47q38 -44 60 -147.5t22 -240.5z" glyph-name="bracketright" horiz-adv-x="293" unicode="]"/><glyph d="M84 437h-44l180 263h45l181 -263h-25l-168 246z" glyph-name="asciicircum" horiz-adv-x="486" unicode="^"/><glyph d="M475 -77h-475v34h475v-34z" glyph-name="underscore" horiz-adv-x="475" unicode="_"/><glyph d="M186 752l119 -80l-4 -9l-153 57q-26 10 -22 29q5 18 29 15q15 -1 31 -12z" glyph-name="grave" horiz-adv-x="485" unicode="`"/><glyph d="M272 510q88 0 136 -43t48 -122v-295q0 -18 6 -24t24 -6h65v-10l-150 -10v127q-19 -59 -74 -98t-120 -39q-63 0 -105 36t-42 89q0 85 106 137q72 38 235 80v23q0 68 -33.5 106.5t-94.5 38.5q-57 0 -91 -33t-34 -89q0 -32 12 -75l-4 -4q-60 45 -60 96q0 50 49 82.5 t127 32.5zM401 321q-129 -34 -203 -76q-82 -50 -82 -124q0 -46 33 -76t85 -30q71 0 119 54.5t48 134.5v117z" glyph-name="a" horiz-adv-x="578" unicode="a"/><glyph d="M337 510q92 0 149.5 -72.5t57.5 -187.5t-57.5 -187.5t-149.5 -72.5q-71 0 -122 45t-65 119l-39 -154h-10v700q0 18 -6 24t-24 6h-65v10l150 10v-378q20 64 68.5 101t112.5 37zM156 180q7 -72 53 -118.5t109 -46.5q75 0 123 66t48 170q0 102 -48 168t-123 66 q-63 0 -109 -46.5t-53 -118.5v-140z" glyph-name="b" horiz-adv-x="579" unicode="b"/><glyph d="M268 510q75 0 126.5 -34.5t51.5 -82.5q0 -54 -53 -94l-4 4q5 27 5 55q0 59 -38.5 98t-96.5 39q-76 0 -122.5 -65t-46.5 -170q0 -111 52.5 -176.5t140.5 -65.5q91 0 161 80l5 -3q-71 -105 -194 -105q-98 0 -159 71.5t-61 186.5q0 118 64 190t169 72z" glyph-name="c" horiz-adv-x="479" unicode="c"/><glyph d="M478 50q0 -18 6 -24t24 -6h65v-10l-150 -10v129q-20 -63 -69.5 -101t-113.5 -38q-91 0 -148 72.5t-57 187.5t57 187.5t148 72.5q64 0 113.5 -38t69.5 -101v329q0 18 -6 24t-24 6h-65v10l150 10v-700zM423 180v140q-8 72 -54 118.5t-108 46.5q-75 0 -123 -66t-48 -168 q0 -104 48 -170t123 -66q62 0 108 46.5t54 118.5z" glyph-name="d" horiz-adv-x="603" unicode="d"/><glyph d="M259 510q92 0 148.5 -59t60.5 -158h-377q0 -5 -0.5 -17t-0.5 -18q0 -108 53 -174t140 -66q91 0 161 80l5 -3q-71 -105 -194 -105q-98 0 -159 72t-61 188q0 117 61.5 188.5t162.5 71.5zM93 303l319 4q-6 86 -48 137t-106 51q-66 0 -110.5 -52.5t-54.5 -139.5z" glyph-name="e" horiz-adv-x="498" unicode="e"/><glyph d="M145 500v45q0 76 44.5 120.5t119.5 44.5q52 0 87.5 -21t35.5 -53q0 -30 -52 -71l-4 3q4 20 4 42q0 40 -20 62.5t-55 22.5q-48 0 -76.5 -42t-28.5 -112v-41h115v-15h-115v-440q0 -17 5.5 -23t24.5 -7l85 -5v-10h-265v10l65 5q19 1 24.5 7t5.5 23v440l-95 5v10h95z" glyph-name="f" horiz-adv-x="355" unicode="f"/><glyph d="M289 510q38 0 68 -10h180v-55l-134 33q69 -47 69 -134q0 -74 -50.5 -120.5t-132.5 -46.5q-95 0 -146 61q-34 -23 -34 -57q0 -37 48 -58.5t132 -21.5q115 0 186.5 -43t71.5 -113t-71 -112.5t-187 -42.5t-187.5 41t-71.5 108q0 58 55 98t146 51q-84 6 -130.5 29t-46.5 59 q0 45 77 78q-25 39 -25 90q0 74 50.5 120t132.5 46zM289 192q57 0 92.5 42t35.5 110q0 67 -35.5 109t-92.5 42t-92.5 -42t-35.5 -109q0 -68 35.5 -110t92.5 -42zM290 -195q89 0 145.5 39.5t56.5 100.5q0 62 -56.5 101.5t-145.5 39.5q-92 0 -148.5 -39t-56.5 -102 q0 -62 57 -101t148 -39z" glyph-name="g" horiz-adv-x="552" unicode="g"/><glyph d="M185 306v-261q0 -17 5.5 -23t24.5 -7l65 -5v-10h-245v10l65 5q19 1 24.5 7t5.5 23v655q0 18 -6 24t-24 6h-65v10l150 10v-378q19 64 67.5 101t115.5 37q81 0 128.5 -54.5t47.5 -149.5v-261q0 -17 5.5 -23t24.5 -7l65 -5v-10h-245v10l65 5q19 1 24.5 7t5.5 23v261 q0 83 -39 131t-107 48q-69 0 -113 -49.5t-45 -129.5z" glyph-name="h" horiz-adv-x="666" unicode="h"/><glyph d="M127 657q0 43 43 43t43 -43t-43 -43t-43 43zM148 45v405q0 18 -6 24t-24 6h-65v10l150 10v-455q0 -17 5.5 -23t24.5 -7l65 -5v-10h-245v10l65 5q19 1 24.5 7t5.5 23z" glyph-name="i" horiz-adv-x="328" unicode="i"/><glyph d="M127 657q0 43 43 43t43 -43t-43 -43t-43 43zM203 500v-545q0 -75 -46 -120t-123 -45q-60 0 -99 26.5t-39 61.5q0 36 52 67l4 -3q-6 -21 -6 -48q0 -41 24.5 -67.5t65.5 -26.5q50 0 81 42t31 113v495q0 18 -6 24t-24 6h-65v10z" glyph-name="j" horiz-adv-x="293" unicode="j"/><glyph d="M428 447l-132 -129l175 -265q14 -22 23 -29t25 -9l65 -5v-10h-265v10l85 5q22 2 24.5 5t-7.5 19l-161 244l-75 -73v-165q0 -17 5.5 -23t24.5 -7l65 -5v-10h-245v10l65 5q19 1 24.5 7t5.5 23v655q0 18 -6 24t-24 6h-65v10l150 10v-521l243 237q12 12 10.5 15t-19.5 4 l-85 5v10h222v-10l-65 -4q-17 -1 -26.5 -6.5t-36.5 -32.5z" glyph-name="k" horiz-adv-x="569" unicode="k"/><glyph d="M130 45v655q0 18 -6 24t-24 6h-65v10l150 10v-705q0 -17 5.5 -23t24.5 -7l65 -5v-10h-245v10l65 5q19 1 24.5 7t5.5 23z" glyph-name="l" horiz-adv-x="310" unicode="l"/><glyph d="M203 306v-261q0 -17 5.5 -23t24.5 -7l65 -5v-10h-245v10l65 5q19 1 24.5 7t5.5 23v405q0 18 -6 24t-24 6h-65v10l150 10v-126q18 64 63.5 100t108.5 36q66 0 109 -40t54 -112q15 70 62 111t114 41q77 0 122 -54.5t45 -149.5v-261q0 -17 5.5 -23t24.5 -7l65 -5v-10h-245 v10l65 5q19 1 24.5 7t5.5 23v261q0 83 -36.5 131t-99.5 48q-65 0 -105.5 -49.5t-42.5 -129.5v-261q0 -17 5.5 -23t24.5 -7l65 -5v-10h-245v10l65 5q19 1 24.5 7t5.5 23v261q0 83 -36.5 131t-99.5 48q-65 0 -105.5 -49.5t-42.5 -129.5z" glyph-name="m" horiz-adv-x="1003" unicode="m"/><glyph d="M203 306v-261q0 -17 5.5 -23t24.5 -7l65 -5v-10h-245v10l65 5q19 1 24.5 7t5.5 23v405q0 18 -6 24t-24 6h-65v10l150 10v-128q19 64 67.5 101t115.5 37q82 0 129 -54.5t47 -149.5v-261q0 -17 5.5 -23t24.5 -7l65 -5v-10h-245v10l65 5q19 1 24.5 7t5.5 23v261 q0 83 -39 131t-107 48q-69 0 -113 -49.5t-45 -129.5z" glyph-name="n" horiz-adv-x="684" unicode="n"/><glyph d="M272 510q103 0 167 -72t64 -188t-64 -188t-167 -72q-107 0 -172 71.5t-65 188.5t65 188.5t172 71.5zM271 5q78 0 127 68t49 177t-49 177t-127 68q-80 0 -130 -68t-50 -177t50 -177t130 -68z" glyph-name="o" horiz-adv-x="538" unicode="o"/><glyph d="M122 450q0 18 -6 24t-24 6h-65v10l150 10v-128q20 64 68.5 101t112.5 37q92 0 149.5 -72.5t57.5 -187.5t-57.5 -187.5t-149.5 -72.5q-64 0 -112.5 37t-68.5 101v-283q0 -17 5.5 -23t24.5 -7l85 -5v-10h-265v10l65 5q19 1 24.5 7t5.5 23v605zM177 180q7 -72 53 -118.5 t109 -46.5q75 0 123 66t48 170q0 102 -48 168t-123 66q-63 0 -109 -46.5t-53 -118.5v-140z" glyph-name="p" horiz-adv-x="600" unicode="p"/><glyph d="M478 500v-655q0 -17 5.5 -23t24.5 -7l65 -5v-10h-265v10l85 5q19 1 24.5 7t5.5 23v283q-20 -64 -68.5 -101t-112.5 -37q-92 0 -149.5 72.5t-57.5 187.5t57.5 187.5t149.5 72.5q71 0 122 -45t65 -119l39 154h10zM423 180v140q-7 72 -53 118.5t-109 46.5q-75 0 -123 -66 t-48 -168q0 -104 48 -170t123 -66q63 0 109 46.5t53 118.5z" glyph-name="q" horiz-adv-x="563" unicode="q"/><glyph d="M203 286v-241q0 -17 6 -23t24 -7l85 -5v-10h-265v10l65 5q19 1 24.5 7t5.5 23v405q0 18 -6 24t-24 6h-65v10l150 10v-155q20 72 74.5 118.5t119.5 46.5q53 0 86 -30t33 -78q0 -51 -56 -103l-4 4q8 37 8 65q0 49 -26 78t-69 29q-63 0 -112 -56t-54 -133z" glyph-name="r" horiz-adv-x="531" unicode="r"/><glyph d="M224 510q38 0 82.5 -10.5t68.5 -25.5l19 -91h-10q-51 112 -150 112q-52 0 -85 -28.5t-33 -74.5q0 -38 27 -61t87 -36l44 -10q82 -19 120 -53t38 -89q0 -68 -54 -110.5t-140 -42.5q-91 0 -173 52l-15 109h10q53 -146 177 -146q61 0 100.5 34t39.5 86q0 44 -31.5 70 t-102.5 42l-45 10q-137 30 -137 127q0 60 45.5 98t117.5 38z" glyph-name="s" horiz-adv-x="477" unicode="s"/><glyph d="M352 78l5 -3q-56 -85 -141 -85q-53 0 -84.5 33.5t-31.5 90.5v371l-95 5v10h95v100h55v-100h115v-15h-115v-375q0 -47 22.5 -74.5t60.5 -27.5q31 0 62.5 19t51.5 51z" glyph-name="t" horiz-adv-x="360" unicode="t"/><glyph d="M522 500v-450q0 -18 6 -24t24 -6h65v-10l-150 -10v127q-18 -64 -65.5 -100.5t-112.5 -36.5q-79 0 -125 54.5t-46 149.5v256q0 18 -6 24t-24 6h-65v10l150 10v-306q0 -83 38 -131t103 -48q67 0 109.5 49.5t43.5 129.5v256q0 18 -6 24t-24 6h-65v10z" glyph-name="u" horiz-adv-x="647" unicode="u"/><glyph d="M135 455l170 -436l169 436q7 19 3 23.5t-27 6.5l-85 5v10h224v-10l-65 -5q-16 -1 -21.5 -6t-13.5 -24l-177 -455h-55l-177 455q-8 19 -13.5 24t-21.5 6l-65 5v10h264v-10l-85 -5q-23 -2 -27 -6.5t3 -23.5z" glyph-name="v" horiz-adv-x="569" unicode="v"/><glyph d="M141 455l115 -427l114 427h55l115 -427l114 427q4 19 -0.5 23.5t-27.5 6.5l-85 5v10h224v-10l-65 -5q-16 -1 -21 -6t-10 -24l-122 -455h-55l-114 427l-115 -427h-55l-122 455q-5 19 -10 24t-21 6l-65 5v10h264v-10l-85 -5q-23 -2 -27.5 -6.5t-0.5 -23.5z" glyph-name="w" horiz-adv-x="755" unicode="w"/><glyph d="M168 459l139 -183l145 183q12 16 10 20.5t-26 5.5l-85 5v10h222v-10l-65 -5q-13 -1 -21 -7.5t-28 -31.5l-144 -181l161 -211q20 -25 28 -31.5t21 -7.5l65 -5v-10h-265v10l85 5q24 1 26.5 5.5t-9.5 20.5l-152 200l-159 -200q-12 -16 -10 -20.5t26 -5.5l85 -5v-10h-222v10 l65 5q13 1 21 7.5t28 31.5l157 198l-147 194q-20 25 -28 31.5t-21 7.5l-65 5v10h265v-10l-85 -5q-24 -1 -26.5 -5.5t9.5 -20.5z" glyph-name="x" horiz-adv-x="590" unicode="x"/><glyph d="M135 455l170 -436l169 436q7 19 3 23.5t-27 6.5l-85 5v10h224v-10l-65 -5q-16 -1 -21.5 -6t-13.5 -24l-177 -455q-46 -114 -92.5 -162t-108.5 -48q-44 0 -71 19.5t-27 51.5q0 43 30 81h6q2 -50 24 -84.5t70 -34.5q38 0 69.5 30.5t63.5 98.5l-196 503q-8 19 -13.5 24 t-21.5 6l-65 5v10h264v-10l-85 -5q-23 -2 -27 -6.5t3 -23.5z" glyph-name="y" horiz-adv-x="569" unicode="y"/><glyph d="M35 0v10l340 475h-265q-17 0 -21 -5t-9 -25l-20 -75h-10v120h392v-10l-340 -475h275h7t5.5 1t4.5 1.5t3.5 2.5t2 3l2 4t2 5l1.5 6t2 7l30 95h10v-140h-412z" glyph-name="z" horiz-adv-x="482" unicode="z"/><glyph d="M160 314v10q48 0 48 79v214q0 69 31 101t97 32v-10q-46 0 -64.5 -24t-18.5 -78v-224q0 -77 -58 -95q58 -18 58 -95v-224q0 -54 18.5 -78t64.5 -24v-10q-66 0 -97 32t-31 101v214q0 79 -48 79z" glyph-name="braceleft" horiz-adv-x="391" unicode="{"/><glyph d="M230 -251v1051h30v-1051h-30z" glyph-name="bar" horiz-adv-x="490" unicode="|"/><glyph d="M231 324v-10q-48 0 -48 -79v-214q0 -69 -31 -101t-97 -32v10q83 0 83 102v224q0 79 55 95q-55 16 -55 95v224q0 102 -83 102v10q66 0 97 -32t31 -101v-214q0 -79 48 -79z" glyph-name="braceright" horiz-adv-x="391" unicode="}"/><glyph d="M197 707q-62 0 -102 -60l-5 3q50 100 124 100q35 0 112.5 -37.5t111.5 -37.5q57 0 99 59l5 -3q-53 -100 -128 -100q-36 0 -108 38t-109 38z" glyph-name="asciitilde" horiz-adv-x="632" unicode="~"/><glyph d="M155 452q0 48 45 48q24 0 34.5 -11t10.5 -37t-10.5 -37t-34.5 -11q-45 0 -45 48zM165 -189l30 522h10l30 -522q1 -17 -9.5 -26.5t-25.5 -9.5t-25.5 9.5t-9.5 26.5z" glyph-name="exclamdown" horiz-adv-x="400" unicode="¡"/><glyph d="M299 0v90q-94 5 -151.5 75.5t-57.5 182.5q0 111 57 181.5t152 79.5v91h28v-90q73 -1 123.5 -35t50.5 -82q0 -54 -53 -94l-4 4q5 27 5 56q0 58 -34 96.5t-88 43.5v-481q55 0 95 19t77 61l5 -3q-65 -96 -177 -104v-91h-28zM299 122v477q-69 -6 -111.5 -71t-42.5 -165 q0 -99 41 -163t113 -78z" glyph-name="cent" horiz-adv-x="594" unicode="¢"/><glyph d="M246 690q-76 0 -123.5 -47t-47.5 -123q0 -53 35.5 -120t39.5 -96h167v-20h-165q0 -37 -30 -105t-38 -104q40 62 110 62q38 0 72.5 -23t66.5 -46t63 -23q36 0 57.5 25t21.5 67q0 38 -17 70l4 3q45 -57 45 -108q0 -47 -31 -79.5t-75 -32.5q-27 0 -51 13.5t-42 33t-35.5 39 t-39.5 33t-46 13.5q-44 0 -78 -37t-34 -85h-55q0 42 16.5 85t37 72.5t37 64.5t16.5 62h-107v20h105q-5 23 -22.5 50.5t-35.5 49.5t-32.5 55.5t-14.5 68.5q0 78 62 127.5t159 49.5q94 0 161.5 -43.5t67.5 -102.5q0 -56 -62 -112l-4 3q14 28 14 77q0 71 -48 117t-124 46z" glyph-name="sterling" horiz-adv-x="522" unicode="£"/><glyph d="M135 204q-59 59 -59 146t60 147q61 61 147 61t146 -60t60 -147t-60 -147q-61 -60 -147 -60q-87 0 -147 60zM152 222q55 -54 132 -54q75 0 128 53t53 129.5t-53 129.5q-52 53 -129 53t-130 -53q-54 -53 -54 -129t53 -129zM416 203l14 14l55 -54l-15 -15zM148 202l-53 -53 l-14 14l53 53zM431 485l-14 14l53 53l14 -14zM133 486l-52 51l15 15l51 -52z" glyph-name="currency" horiz-adv-x="564" unicode="¤"/><glyph d="M526 273v-20h-156v-208q0 -17 5.5 -23t24.5 -7l70 -5v-10h-256v10l70 5q19 1 24.5 7t5.5 23v208h-155v20h155v18l-23 40h-132v20h121l-168 297q-14 25 -20 30t-22 7l-70 5v10h256v-10l-70 -5q-24 -2 -28 -6.5t6 -21.5l198 -352l198 352q10 17 6 21.5t-28 6.5l-70 5v10 h216v-10l-70 -5q-16 -2 -22 -7t-20 -30l-168 -297h121v-20h-132l-23 -40v-18h156z" glyph-name="yen" horiz-adv-x="684" unicode="¥"/><glyph d="M255 345h-30v455h30v-455zM225 -251v455h30v-455h-30z" glyph-name="brokenbar" horiz-adv-x="480" unicode="¦"/><glyph d="M321 750q71 0 118 -26t47 -64q0 -47 -52 -91l-3 2q15 19 15 61q0 47 -35.5 75.5t-94.5 28.5q-65 0 -105.5 -34t-40.5 -89q0 -88 127 -119l50 -12q95 -23 135.5 -62t40.5 -107q0 -71 -45 -118q45 -41 45 -111q0 -80 -56.5 -128.5t-150.5 -48.5q-83 0 -142 35.5t-59 84.5 q0 42 48 90l3 -2q-11 -15 -11 -53q0 -61 46.5 -101t118.5 -40q71 0 115.5 40t44.5 105q0 55 -35 88t-115 54l-50 13q-81 21 -117 55t-36 90q0 79 63 120q-63 37 -63 109q0 71 53 113t141 42zM209 476q-39 -34 -39 -94q0 -88 126 -118l51 -12q73 -17 113 -44q20 40 20 89 q0 54 -35 87t-115 54l-50 13q-42 11 -71 25z" glyph-name="section" horiz-adv-x="618" unicode="§"/><glyph d="M115 707q0 43 43 43t43 -43t-43 -43t-43 43zM231 707q0 43 43 43t43 -43t-43 -43t-43 43z" glyph-name="dieresis" horiz-adv-x="432" unicode="¨"/><glyph d="M45 350q0 150 100 250t250 100q151 0 250.5 -99.5t99.5 -250.5t-99.5 -250.5t-250.5 -99.5t-250.5 99.5t-99.5 250.5zM66 350q0 -141 95 -237t235 -96q139 0 234 96t95 237t-95 237.5t-234 96.5q-140 0 -235 -96.5t-95 -237.5zM253 356q0 -97 44 -156t117 -59 q52 0 88 31.5t52 91.5h7q-34 -150 -162 -150q-83 0 -134.5 64.5t-51.5 169.5q0 104 51 169t134 65q68 0 117 -48q11 -10 14 -9t4 14l2 36h7v-135h-7l-4 39q-4 38 -44.5 64t-80.5 26q-68 0 -110.5 -59t-42.5 -154z" glyph-name="copyright" horiz-adv-x="790" unicode="©"/><glyph d="M148 704q34 0 54 -17.5t20 -48.5v-118q0 -7 2 -9t9 -2h26v-5l-57 -4v51q-7 -24 -28.5 -39.5t-46.5 -15.5q-24 0 -40.5 14.5t-16.5 35.5q0 31 39 53q38 19 93 33v9q0 27 -14 42.5t-37 15.5q-22 0 -36 -13t-14 -35q0 -14 9 -29l-4 -3q-25 24 -25 41q0 20 18.5 32t48.5 12z M202 628q-53 -17 -80 -33q-31 -19 -31 -46q0 -19 12.5 -31t32.5 -12q27 0 46.5 22t19.5 53v47zM70 456v15h189v-15h-189z" glyph-name="ordfeminine" horiz-adv-x="304" unicode="ª"/><glyph d="M40 259l111 186h30l-108 -186l108 -186h-30zM153 259l111 186h30l-108 -186l108 -186h-30z" glyph-name="guillemotleft" horiz-adv-x="354" unicode="«"/><glyph d="M467 274v-194h-38v160h-404v34h442z" glyph-name="logicalnot" horiz-adv-x="492" unicode="¬"/><glyph d="M45 560q0 86 57.5 143t142.5 57t142.5 -57t57.5 -143t-57.5 -143t-142.5 -57t-142.5 57t-57.5 143zM65 563q0 -80 51.5 -133.5t130.5 -53.5q76 0 127 53.5t51 133.5q0 76 -51.5 128.5t-126.5 52.5q-78 0 -130 -52t-52 -129zM198 665v-96h70q19 0 32 15.5t13 37.5 q0 25 -14.5 39t-39.5 14h-50q-11 0 -11 -10zM173 456v213q0 6 -1.5 7.5t-8.5 2.5l-19 2v4h115q36 0 57.5 -17t21.5 -46q0 -25 -19.5 -43.5t-47.5 -19.5l56 -104q4 -9 16 -10l22 -2v-3h-55l-65 119h-47v-103q0 -10 11 -11l31 -2v-3h-96v3l19 2q10 1 10 11z" glyph-name="registered" horiz-adv-x="490" unicode="®"/><glyph d="M360 666h-275v34h275v-34z" glyph-name="macron" horiz-adv-x="445" unicode="¯"/><glyph d="M115 635q0 52 36.5 88.5t88.5 36.5t88.5 -36.5t36.5 -88.5t-36.5 -88.5t-88.5 -36.5t-88.5 36.5t-36.5 88.5zM136 635q0 -43 30.5 -74t73.5 -31t73.5 31t30.5 74t-30.5 74t-73.5 31t-73.5 -31t-30.5 -74z" glyph-name="degree" horiz-adv-x="480" unicode="°"/><glyph d="M204 140v167h-179v40h179v168h43v-168h178v-40h-178v-167h-43zM25 58v40h400v-40h-400z" glyph-name="plusminus" horiz-adv-x="450" unicode="±"/><glyph d="M131 746q-32 0 -52.5 -19.5t-20.5 -49.5q0 -20 5 -32l-1 -1q-26 25 -26 47q0 26 27.5 43.5t67.5 17.5q44 0 71 -22t27 -57q0 -27 -18 -47t-43.5 -33.5t-51.5 -27.5t-44 -36t-18 -52q18 37 53 37q21 0 45 -19.5t37 -19.5q15 0 25.5 11.5t10.5 28.5t-6 28l2 1 q15 -18 15 -41q0 -22 -13 -36.5t-32 -14.5q-20 0 -46.5 27.5t-43.5 27.5q-18 0 -32.5 -15.5t-14.5 -35.5h-23v25q0 26 18 46t43.5 34t51.5 28.5t44 36t18 48.5q0 31 -21.5 51.5t-53.5 20.5z" glyph-name="uni00B2" horiz-adv-x="266" unicode="²"/><glyph d="M49 750h178v-6l-101 -110q15 6 33 6q35 0 56.5 -24t21.5 -62q0 -46 -29.5 -74.5t-76.5 -28.5q-40 0 -68 19.5t-28 45.5q0 24 23 45l2 -1q-3 -8 -3 -27q0 -34 20.5 -55t53.5 -21q37 0 60 26t23 67q0 36 -18 58t-47 22q-22 0 -34 -9l-20 5l108 118h-125q-15 0 -16 -13 l-9 -46h-4v65z" glyph-name="uni00B3" horiz-adv-x="273" unicode="³"/><glyph d="M180 672l119 80q36 24 55 5q13 -13 -2 -28q-6 -6 -15 -9l-153 -57z" glyph-name="acute" horiz-adv-x="485" unicode="´"/><glyph d="M253 713v-713h-40v372q-92 0 -147.5 48.5t-55.5 139.5q0 92 57 141t149 49h190v-37h-37v-713h-40v713h-76z" glyph-name="paragraph" horiz-adv-x="466" unicode="¶"/><glyph d="M0 351q0 27 12 38.5t39 11.5q26 0 38 -11.5t12 -38.5t-11.5 -39t-38.5 -12t-39 11.5t-12 39.5z" glyph-name="periodcentered" horiz-adv-x="101" unicode="·"/><glyph d="M188 -79l35 79h20l-26 -60q26 5 43 5q38 0 60.5 -16.5t22.5 -44.5q0 -31 -28 -52t-70 -21q-68 0 -90 48l5 4q18 -27 65 -27q33 0 53 14.5t20 37.5q0 20 -16 31.5t-43 11.5q-22 0 -51 -10z" glyph-name="cedilla" horiz-adv-x="463" unicode="¸"/><glyph d="M131 474v247q0 7 -2.5 9.5t-9.5 2.5h-19v4q44 5 55 13v-276q0 -12 12 -13l28 -2v-4h-104v4l28 2q12 1 12 13z" glyph-name="uni00B9" horiz-adv-x="285" unicode="¹"/><glyph d="M167 704q39 0 63.5 -29t24.5 -75t-24.5 -75t-63.5 -29q-40 0 -64.5 29t-24.5 75t24.5 75t64.5 29zM168 503q29 0 47 27t18 70t-18 70.5t-47 27.5q-31 0 -49.5 -27t-18.5 -71t18.5 -70.5t49.5 -26.5zM75 456v15h182v-15h-182z" glyph-name="ordmasculine" horiz-adv-x="332" unicode="º"/><glyph d="M173 445h30l111 -186l-111 -186h-30l108 186zM60 445h30l111 -186l-111 -186h-30l108 186z" glyph-name="guillemotright" horiz-adv-x="354" unicode="»"/><glyph d="M70 377v333q0 10 -3.5 13.5t-13.5 3.5h-26v6q58 5 74 17v-373q0 -10 3 -13t14 -4l37 -3v-6h-139v6l37 3q11 1 14 4t3 13zM52 0l418 700h33l-418 -700h-33zM515 26v95h-198l208 284h33l-202 -275h159v155h31v-155h39q21 0 25 17l9 43h6l-7 -69h-72v-95q0 -10 3.5 -13 t14.5 -4l37 -3v-6h-140v6l37 3q10 1 13.5 4t3.5 13z" glyph-name="onequarter" horiz-adv-x="640" unicode="¼"/><glyph d="M70 381v333q0 10 -3.5 13.5t-13.5 3.5h-26v6q58 5 74 17v-373q0 -10 3 -13t14 -4l37 -3v-6h-139v6l37 3q11 1 14 4t3 13zM51 0l418 700h33l-418 -700h-33zM500 393q-44 0 -72 -26t-28 -67q0 -25 8 -43l-2 -2q-35 34 -35 64q0 35 37.5 59t91.5 24q59 0 96 -30t37 -77 q0 -37 -24.5 -64t-59.5 -45.5t-69.5 -37t-59 -49t-24.5 -70.5q22 49 71 49q29 0 61.5 -26t50.5 -26q20 0 34.5 15.5t14.5 38.5q0 18 -8 38l2 2q20 -26 20 -56q0 -29 -17.5 -49.5t-42.5 -20.5q-27 0 -63.5 38t-59.5 38q-24 0 -43.5 -21.5t-19.5 -48.5h-31v34q0 35 24.5 62.5 t59.5 46.5t69.5 38.5t59 48.5t24.5 66q0 42 -29 69.5t-73 27.5z" glyph-name="onehalf" horiz-adv-x="658" unicode="½"/><glyph d="M33 750h242v-9l-136 -149q18 9 44 9q47 0 76.5 -32.5t29.5 -85.5q0 -61 -40.5 -100t-104.5 -39q-53 0 -91 26.5t-38 62.5q0 32 31 61l2 -2q-4 -12 -4 -36q0 -46 28 -74.5t72 -28.5q50 0 82 35t32 91q0 49 -24.5 78.5t-64.5 29.5q-27 0 -46 -12l-27 7l146 159h-169 q-11 0 -16 -3.5t-7 -13.5l-11 -62h-6v88zM119 0l418 700h33l-418 -700h-33zM581 26v95h-198l208 284h33l-202 -275h159v155h31v-155h39q21 0 25 17l9 43h6l-7 -69h-72v-95q0 -10 3.5 -13t14.5 -4l37 -3v-6h-140v6l37 3q10 1 13.5 4t3.5 13z" glyph-name="threequarters" horiz-adv-x="706" unicode="¾"/><glyph d="M339 452q0 -48 -45 -48q-24 0 -34.5 11t-10.5 37t10.5 37t34.5 11q45 0 45 -48zM289 363h10q0 -46 -15.5 -84t-38.5 -62t-50.5 -49.5t-50.5 -48t-38.5 -58t-15.5 -77.5q0 -77 46.5 -125.5t120.5 -48.5q73 0 119.5 45.5t46.5 117.5q0 49 -14 77l4 3q62 -47 62 -112 q0 -61 -63 -103.5t-154 -42.5q-99 0 -161 53t-62 138q0 38 14 69.5t36.5 54t49.5 42.5t54 40.5t49.5 43t36.5 55.5t14 72z" glyph-name="questiondown" horiz-adv-x="530" unicode="¿"/><glyph d="M331 859l119 -80l-4 -9l-153 57q-26 10 -22 29q5 18 29 15q15 -1 31 -12zM480 280l-134 378q-7 15 -7 16l-140 -394h281zM194 264l-78 -220q-7 -20 -3.5 -24t29.5 -6l70 -4v-10h-217v10l70 5q17 1 22 6t14 29l224 633q-6 2 -13 2l-65 5v10h141l230 -650q8 -24 13 -29 t23 -6l70 -5v-10h-257v10l70 5q26 2 29.5 5.5t-3.5 23.5l-78 220h-291z" glyph-name="Agrave" horiz-adv-x="719" unicode="À"/><glyph d="M270 779l119 80q36 24 55 5q13 -13 -2 -28q-6 -6 -15 -9l-153 -57zM480 280l-134 378q-7 15 -7 16l-140 -394h281zM194 264l-78 -220q-7 -20 -3.5 -24t29.5 -6l70 -4v-10h-217v10l70 5q17 1 22 6t14 29l224 633q-6 2 -13 2l-65 5v10h141l230 -650q8 -24 13 -29t23 -6 l70 -5v-10h-257v10l70 5q26 2 29.5 5.5t-3.5 23.5l-78 220h-291z" glyph-name="Aacute" horiz-adv-x="719" unicode="Á"/><glyph d="M389 869l119 -90l-4 -9l-133 57q-8 4 -11 6q-3 -2 -11 -6l-133 -57l-4 9l119 90q14 11 29 11t29 -11zM480 280l-134 378q-7 15 -7 16l-140 -394h281zM194 264l-78 -220q-7 -20 -3.5 -24t29.5 -6l70 -4v-10h-217v10l70 5q17 1 22 6t14 29l224 633q-6 2 -13 2l-65 5v10h141 l230 -650q8 -24 13 -29t23 -6l70 -5v-10h-257v10l70 5q26 2 29.5 5.5t-3.5 23.5l-78 220h-291z" glyph-name="Acircumflex" horiz-adv-x="719" unicode="Â"/><glyph d="M319 851q21 0 58.5 -15.5t60.5 -15.5q44 0 80 31l4 -4q-66 -77 -126 -77q-22 0 -55.5 17.5t-57.5 17.5q-41 0 -82 -30l-4 4q61 72 122 72zM480 280l-134 378q-7 15 -7 16l-140 -394h281zM194 264l-78 -220q-7 -20 -3.5 -24t29.5 -6l70 -4v-10h-217v10l70 5q17 1 22 6 t14 29l224 633q-6 2 -13 2l-65 5v10h141l230 -650q8 -24 13 -29t23 -6l70 -5v-10h-257v10l70 5q26 2 29.5 5.5t-3.5 23.5l-78 220h-291z" glyph-name="Atilde" horiz-adv-x="719" unicode="Ã"/><glyph d="M259 813q0 43 43 43t43 -43t-43 -43t-43 43zM375 813q0 43 43 43t43 -43t-43 -43t-43 43zM480 280l-134 378q-7 15 -7 16l-140 -394h281zM194 264l-78 -220q-7 -20 -3.5 -24t29.5 -6l70 -4v-10h-217v10l70 5q17 1 22 6t14 29l224 633q-6 2 -13 2l-65 5v10h141l230 -650 q8 -24 13 -29t23 -6l70 -5v-10h-257v10l70 5q26 2 29.5 5.5t-3.5 23.5l-78 220h-291z" glyph-name="Adieresis" horiz-adv-x="719" unicode="Ä"/><glyph d="M282 848q0 32 22.5 54.5t55.5 22.5q32 0 54.5 -22.5t22.5 -54.5q0 -33 -22.5 -55.5t-54.5 -22.5q-33 0 -55.5 22.5t-22.5 55.5zM310 848q0 -22 15 -37t35 -15t34.5 15t14.5 37q0 21 -14.5 36t-34.5 15t-35 -15t-15 -36zM480 280l-134 378q-7 15 -7 16l-140 -394h281z M194 264l-78 -220q-7 -20 -3.5 -24t29.5 -6l70 -4v-10h-217v10l70 5q17 1 22 6t14 29l224 633q-6 2 -13 2l-65 5v10h141l230 -650q8 -24 13 -29t23 -6l70 -5v-10h-257v10l70 5q26 2 29.5 5.5t-3.5 23.5l-78 220h-291z" glyph-name="Aring" horiz-adv-x="719" unicode="Å"/><glyph d="M576 653v2q0 17 -5.5 23t-24.5 7l-70 5v10h519v-155h-10l-30 109q-5 17 -12.5 23.5t-27.5 6.5h-253q-18 0 -24 -6t-6 -24v-295h163q17 0 22 5.5t8 24.5l10 65h10v-206h-10l-10 65q-3 19 -8 24.5t-22 5.5h-163v-327h293q20 0 29 7t14 23l37 124h10l-10 -170h-529v10l70 5 q19 1 24.5 7t5.5 23v219h-282l-174 -226q-10 -14 -6.5 -18.5t28.5 -5.5l70 -4v-10h-217v10l66 5q17 1 23.5 5.5t23.5 26.5zM576 629l-269 -349h269v349z" glyph-name="AE" horiz-adv-x="1065" unicode="Æ"/><glyph d="M101 359q0 -152 74 -245t195 -93q89 0 151.5 52.5t85.5 147.5h10q-25 -110 -91.5 -169.5t-166.5 -61.5l-22 -50q26 5 43 5q38 0 60.5 -16.5t22.5 -44.5q0 -31 -28 -52t-70 -21q-68 0 -90 48l5 4q18 -27 65 -27q33 0 53 14.5t20 37.5q0 20 -16 31.5t-43 11.5 q-22 0 -51 -10l31 69q-132 5 -213 104t-81 256q0 161 83.5 260.5t217.5 99.5q122 0 194 -75q10 -12 16 -12t7 22l4 55h10v-200h-10l-6 59q-3 27 -27 57q-30 36 -78 57t-101 21q-113 0 -183.5 -93t-70.5 -242z" glyph-name="Ccedilla" horiz-adv-x="652" unicode="Ç"/><glyph d="M314 859l119 -80l-4 -9l-153 57q-26 10 -22 29q5 18 29 15q15 -1 31 -12zM153 45v610q0 17 -5.5 23t-24.5 7l-70 5v10h519v-155h-10l-30 109q-5 17 -12.5 23.5t-27.5 6.5h-253q-18 0 -24 -6t-6 -24v-295h163q17 0 22 5.5t8 24.5l10 65h10v-206h-10l-10 65q-3 19 -8 24.5 t-22 5.5h-163v-327h293q20 0 29 7t14 23l37 124h10l-10 -170h-529v10l70 5q19 1 24.5 7t5.5 23z" glyph-name="Egrave" horiz-adv-x="642" unicode="È"/><glyph d="M253 779l119 80q36 24 55 5q13 -13 -2 -28q-6 -6 -15 -9l-153 -57zM153 45v610q0 17 -5.5 23t-24.5 7l-70 5v10h519v-155h-10l-30 109q-5 17 -12.5 23.5t-27.5 6.5h-253q-18 0 -24 -6t-6 -24v-295h163q17 0 22 5.5t8 24.5l10 65h10v-206h-10l-10 65q-3 19 -8 24.5 t-22 5.5h-163v-327h293q20 0 29 7t14 23l37 124h10l-10 -170h-529v10l70 5q19 1 24.5 7t5.5 23z" glyph-name="Eacute" horiz-adv-x="642" unicode="É"/><glyph d="M372 869l119 -90l-4 -9l-133 57q-8 4 -11 6q-3 -2 -11 -6l-133 -57l-4 9l119 90q14 11 29 11t29 -11zM153 45v610q0 17 -5.5 23t-24.5 7l-70 5v10h519v-155h-10l-30 109q-5 17 -12.5 23.5t-27.5 6.5h-253q-18 0 -24 -6t-6 -24v-295h163q17 0 22 5.5t8 24.5l10 65h10v-206 h-10l-10 65q-3 19 -8 24.5t-22 5.5h-163v-327h293q20 0 29 7t14 23l37 124h10l-10 -170h-529v10l70 5q19 1 24.5 7t5.5 23z" glyph-name="Ecircumflex" horiz-adv-x="642" unicode="Ê"/><glyph d="M242 813q0 43 43 43t43 -43t-43 -43t-43 43zM358 813q0 43 43 43t43 -43t-43 -43t-43 43zM153 45v610q0 17 -5.5 23t-24.5 7l-70 5v10h519v-155h-10l-30 109q-5 17 -12.5 23.5t-27.5 6.5h-253q-18 0 -24 -6t-6 -24v-295h163q17 0 22 5.5t8 24.5l10 65h10v-206h-10l-10 65 q-3 19 -8 24.5t-22 5.5h-163v-327h293q20 0 29 7t14 23l37 124h10l-10 -170h-529v10l70 5q19 1 24.5 7t5.5 23z" glyph-name="Edieresis" horiz-adv-x="642" unicode="Ë"/><glyph d="M152 859l119 -80l-4 -9l-153 57q-26 10 -22 29q5 18 29 15q15 -1 31 -12zM153 45v610q0 17 -5.5 23t-24.5 7l-70 5v10h256v-10l-70 -5q-19 -1 -24.5 -7t-5.5 -23v-610q0 -17 5.5 -23t24.5 -7l70 -5v-10h-256v10l70 5q19 1 24.5 7t5.5 23z" glyph-name="Igrave" horiz-adv-x="362" unicode="Ì"/><glyph d="M91 779l119 80q36 24 55 5q13 -13 -2 -28q-6 -6 -15 -9l-153 -57zM153 45v610q0 17 -5.5 23t-24.5 7l-70 5v10h256v-10l-70 -5q-19 -1 -24.5 -7t-5.5 -23v-610q0 -17 5.5 -23t24.5 -7l70 -5v-10h-256v10l70 5q19 1 24.5 7t5.5 23z" glyph-name="Iacute" horiz-adv-x="362" unicode="Í"/><glyph d="M210 869l119 -90l-4 -9l-133 57q-8 4 -11 6q-3 -2 -11 -6l-133 -57l-4 9l119 90q14 11 29 11t29 -11zM153 45v610q0 17 -5.5 23t-24.5 7l-70 5v10h256v-10l-70 -5q-19 -1 -24.5 -7t-5.5 -23v-610q0 -17 5.5 -23t24.5 -7l70 -5v-10h-256v10l70 5q19 1 24.5 7t5.5 23z" glyph-name="Icircumflex" horiz-adv-x="362" unicode="Î"/><glyph d="M80 813q0 43 43 43t43 -43t-43 -43t-43 43zM196 813q0 43 43 43t43 -43t-43 -43t-43 43zM153 45v610q0 17 -5.5 23t-24.5 7l-70 5v10h256v-10l-70 -5q-19 -1 -24.5 -7t-5.5 -23v-610q0 -17 5.5 -23t24.5 -7l70 -5v-10h-256v10l70 5q19 1 24.5 7t5.5 23z" glyph-name="Idieresis" horiz-adv-x="362" unicode="Ï"/><glyph d="M209 654v-296h138v-15h-138v-327h169q104 0 169.5 93t65.5 241t-65.5 241t-169.5 93h-139q-18 0 -24 -6t-6 -24zM53 700h325q130 0 211 -97t81 -253t-81 -253t-211 -97h-325v10l70 5q19 1 24.5 7t5.5 23v298h-100v15h100v297q0 17 -5.5 23t-24.5 7l-70 5v10z" glyph-name="Eth" horiz-adv-x="715" unicode="Ð"/><glyph d="M334 851q21 0 58.5 -15.5t60.5 -15.5q44 0 80 31l4 -4q-66 -77 -126 -77q-22 0 -55.5 17.5t-57.5 17.5q-41 0 -82 -30l-4 4q61 72 122 72zM580 98v557q0 17 -5.5 23t-24.5 7l-70 5v10h216v-10l-70 -5q-19 -1 -24.5 -7t-5.5 -23v-655h-16l-411 658v-613q0 -17 5.5 -23 t24.5 -7l70 -5v-10h-216v10l70 5q19 1 24.5 7t5.5 23v610q0 17 -5.5 23t-24.5 7l-65 5v10h146z" glyph-name="Ntilde" horiz-adv-x="736" unicode="Ñ"/><glyph d="M330 869l119 -80l-4 -9l-153 57q-26 10 -22 29q5 18 29 15q15 -1 31 -12zM45 350q0 162 86.5 261t228.5 99q140 0 226 -99t86 -261t-86 -261t-226 -99q-142 0 -228.5 99t-86.5 261zM101 350q0 -155 71 -249.5t188 -94.5q115 0 185.5 95t70.5 249t-70.5 249t-185.5 95 q-117 0 -188 -94.5t-71 -249.5z" glyph-name="Ograve" unicode="Ò"/><glyph d="M269 789l119 80q36 24 55 5q13 -13 -2 -28q-6 -6 -15 -9l-153 -57zM45 350q0 162 86.5 261t228.5 99q140 0 226 -99t86 -261t-86 -261t-226 -99q-142 0 -228.5 99t-86.5 261zM101 350q0 -155 71 -249.5t188 -94.5q115 0 185.5 95t70.5 249t-70.5 249t-185.5 95 q-117 0 -188 -94.5t-71 -249.5z" glyph-name="Oacute" unicode="Ó"/><glyph d="M388 879l119 -90l-4 -9l-133 57q-8 4 -11 6q-3 -2 -11 -6l-133 -57l-4 9l119 90q14 11 29 11t29 -11zM45 350q0 162 86.5 261t228.5 99q140 0 226 -99t86 -261t-86 -261t-226 -99q-142 0 -228.5 99t-86.5 261zM101 350q0 -155 71 -249.5t188 -94.5q115 0 185.5 95 t70.5 249t-70.5 249t-185.5 95q-117 0 -188 -94.5t-71 -249.5z" glyph-name="Ocircumflex" unicode="Ô"/><glyph d="M318 861q21 0 58.5 -15.5t60.5 -15.5q44 0 80 31l4 -4q-66 -77 -126 -77q-22 0 -55.5 17.5t-57.5 17.5q-41 0 -82 -30l-4 4q61 72 122 72zM45 350q0 162 86.5 261t228.5 99q140 0 226 -99t86 -261t-86 -261t-226 -99q-142 0 -228.5 99t-86.5 261zM101 350 q0 -155 71 -249.5t188 -94.5q115 0 185.5 95t70.5 249t-70.5 249t-185.5 95q-117 0 -188 -94.5t-71 -249.5z" glyph-name="Otilde" unicode="Õ"/><glyph d="M258 823q0 43 43 43t43 -43t-43 -43t-43 43zM374 823q0 43 43 43t43 -43t-43 -43t-43 43zM45 350q0 162 86.5 261t228.5 99q140 0 226 -99t86 -261t-86 -261t-226 -99q-142 0 -228.5 99t-86.5 261zM101 350q0 -155 71 -249.5t188 -94.5q115 0 185.5 95t70.5 249 t-70.5 249t-185.5 95q-117 0 -188 -94.5t-71 -249.5z" glyph-name="Odieresis" unicode="Ö"/><glyph d="M363 194l-127 127l-127 -127l-29 29l127 127l-127 127l29 29l127 -127l127 127l29 -29l-127 -127l127 -127z" glyph-name="multiply" horiz-adv-x="472" unicode="×"/><glyph d="M45 350q0 162 86.5 261t228.5 99q125 0 208 -80l58 70h46l-80 -96q80 -99 80 -254q0 -162 -86 -261t-226 -99q-126 0 -211 80l-58 -70h-46l80 96q-80 99 -80 254zM101 350q0 -130 52 -220l391 471q-71 93 -184 93q-117 0 -188 -94.5t-71 -249.5zM564 570l-391 -471 q71 -93 187 -93q115 0 185.5 95t70.5 249q0 130 -52 220z" glyph-name="Oslash" unicode="Ø"/><glyph d="M328 859l119 -80l-4 -9l-153 57q-26 10 -22 29q5 18 29 15q15 -1 31 -12zM128 208v447q0 17 -5.5 23t-24.5 7l-70 5v10h256v-10l-70 -5q-19 -1 -24.5 -7t-5.5 -23v-447q0 -82 54.5 -135.5t138.5 -53.5t138.5 53.5t54.5 135.5v447q0 17 -5.5 23t-24.5 7l-70 5v10h216v-10 l-70 -5q-19 -1 -24.5 -7t-5.5 -23v-447q0 -95 -64 -156.5t-164 -61.5t-165 61.5t-65 156.5z" glyph-name="Ugrave" horiz-adv-x="711" unicode="Ù"/><glyph d="M267 779l119 80q36 24 55 5q13 -13 -2 -28q-6 -6 -15 -9l-153 -57zM128 208v447q0 17 -5.5 23t-24.5 7l-70 5v10h256v-10l-70 -5q-19 -1 -24.5 -7t-5.5 -23v-447q0 -82 54.5 -135.5t138.5 -53.5t138.5 53.5t54.5 135.5v447q0 17 -5.5 23t-24.5 7l-70 5v10h216v-10l-70 -5 q-19 -1 -24.5 -7t-5.5 -23v-447q0 -95 -64 -156.5t-164 -61.5t-165 61.5t-65 156.5z" glyph-name="Uacute" horiz-adv-x="711" unicode="Ú"/><glyph d="M386 869l119 -90l-4 -9l-133 57q-8 4 -11 6q-3 -2 -11 -6l-133 -57l-4 9l119 90q14 11 29 11t29 -11zM128 208v447q0 17 -5.5 23t-24.5 7l-70 5v10h256v-10l-70 -5q-19 -1 -24.5 -7t-5.5 -23v-447q0 -82 54.5 -135.5t138.5 -53.5t138.5 53.5t54.5 135.5v447q0 17 -5.5 23 t-24.5 7l-70 5v10h216v-10l-70 -5q-19 -1 -24.5 -7t-5.5 -23v-447q0 -95 -64 -156.5t-164 -61.5t-165 61.5t-65 156.5z" glyph-name="Ucircumflex" horiz-adv-x="711" unicode="Û"/><glyph d="M256 813q0 43 43 43t43 -43t-43 -43t-43 43zM372 813q0 43 43 43t43 -43t-43 -43t-43 43zM128 208v447q0 17 -5.5 23t-24.5 7l-70 5v10h256v-10l-70 -5q-19 -1 -24.5 -7t-5.5 -23v-447q0 -82 54.5 -135.5t138.5 -53.5t138.5 53.5t54.5 135.5v447q0 17 -5.5 23t-24.5 7 l-70 5v10h216v-10l-70 -5q-19 -1 -24.5 -7t-5.5 -23v-447q0 -95 -64 -156.5t-164 -61.5t-165 61.5t-65 156.5z" glyph-name="Udieresis" horiz-adv-x="711" unicode="Ü"/><glyph d="M227 779l119 80q36 24 55 5q13 -13 -2 -28q-6 -6 -15 -9l-153 -57zM289 45v246l-202 357q-14 25 -20 30t-22 7l-70 5v10h256v-10l-70 -5q-24 -2 -28 -6.5t6 -21.5l198 -352l198 352q10 17 6 21.5t-28 6.5l-70 5v10h216v-10l-70 -5q-16 -2 -22 -7t-20 -30l-202 -357v-246 q0 -17 5.5 -23t24.5 -7l70 -5v-10h-256v10l70 5q19 1 24.5 7t5.5 23z" glyph-name="Yacute" horiz-adv-x="634" unicode="Ý"/><glyph d="M153 45v610q0 17 -5.5 23t-24.5 7l-70 5v10h256v-10l-70 -5q-19 -1 -24.5 -7t-5.5 -23v-111h161q103 0 164 -52t61 -140q0 -81 -58 -138t-142 -57h-186v-112q0 -17 5.5 -23t24.5 -7l70 -5v-10h-256v10l70 5q19 1 24.5 7t5.5 23zM209 528v-355h186q58 0 101 53t43 126 q0 80 -46 128t-123 48h-161z" glyph-name="Thorn" horiz-adv-x="640" unicode="Þ"/><glyph d="M135 507q0 90 59.5 146t155.5 56q75 0 122 -34.5t47 -89.5q0 -36 -23 -65t-50 -44.5t-50 -36t-23 -41.5t22 -36.5t53.5 -28t62.5 -29.5t53 -51t22 -81q0 -81 -59 -131.5t-155 -50.5q-70 0 -116 26.5t-46 67.5q0 24 16.5 49t40.5 39l5 -3q-7 -20 -7 -43q0 -54 35 -87.5 t90 -33.5q63 0 102 45.5t39 118.5q0 47 -18 80.5t-43.5 50t-50.5 29t-43 29.5t-18 41q0 19 11 36t26.5 31.5t31 30t26.5 38.5t11 50q0 49 -32.5 79t-85.5 30q-70 0 -113 -52t-43 -135v-507h-155v10l70 5q19 1 24.5 7t5.5 23v440l-95 5v10h95v7z" glyph-name="germandbls" horiz-adv-x="636" unicode="ß"/><glyph d="M237 659l119 -80l-4 -9l-153 57q-26 10 -22 29q5 18 29 15q15 -1 31 -12zM262 510q88 0 136 -43t48 -122v-295q0 -18 6 -24t24 -6h65v-10l-150 -10v127q-19 -59 -74 -98t-120 -39q-63 0 -105 36t-42 89q0 85 106 137q72 38 235 80v23q0 68 -33.5 106.5t-94.5 38.5 q-57 0 -91 -33t-34 -89q0 -32 12 -75l-4 -4q-60 45 -60 96q0 50 49 82.5t127 32.5zM391 321q-129 -34 -203 -76q-82 -50 -82 -124q0 -46 33 -76t85 -30q71 0 119 54.5t48 134.5v117z" glyph-name="agrave" horiz-adv-x="568" unicode="à"/><glyph d="M176 579l119 80q36 24 55 5q13 -13 -2 -28q-6 -6 -15 -9l-153 -57zM262 510q88 0 136 -43t48 -122v-295q0 -18 6 -24t24 -6h65v-10l-150 -10v127q-19 -59 -74 -98t-120 -39q-63 0 -105 36t-42 89q0 85 106 137q72 38 235 80v23q0 68 -33.5 106.5t-94.5 38.5 q-57 0 -91 -33t-34 -89q0 -32 12 -75l-4 -4q-60 45 -60 96q0 50 49 82.5t127 32.5zM391 321q-129 -34 -203 -76q-82 -50 -82 -124q0 -46 33 -76t85 -30q71 0 119 54.5t48 134.5v117z" glyph-name="aacute" horiz-adv-x="568" unicode="á"/><glyph d="M295 669l119 -90l-4 -9l-133 57q-8 4 -11 6q-3 -2 -11 -6l-133 -57l-4 9l119 90q14 11 29 11t29 -11zM262 510q88 0 136 -43t48 -122v-295q0 -18 6 -24t24 -6h65v-10l-150 -10v127q-19 -59 -74 -98t-120 -39q-63 0 -105 36t-42 89q0 85 106 137q72 38 235 80v23 q0 68 -33.5 106.5t-94.5 38.5q-57 0 -91 -33t-34 -89q0 -32 12 -75l-4 -4q-60 45 -60 96q0 50 49 82.5t127 32.5zM391 321q-129 -34 -203 -76q-82 -50 -82 -124q0 -46 33 -76t85 -30q71 0 119 54.5t48 134.5v117z" glyph-name="acircumflex" horiz-adv-x="568" unicode="â"/><glyph d="M225 651q21 0 58.5 -15.5t60.5 -15.5q44 0 80 31l4 -4q-66 -77 -126 -77q-22 0 -55.5 17.5t-57.5 17.5q-41 0 -82 -30l-4 4q61 72 122 72zM262 510q88 0 136 -43t48 -122v-295q0 -18 6 -24t24 -6h65v-10l-150 -10v127q-19 -59 -74 -98t-120 -39q-63 0 -105 36t-42 89 q0 85 106 137q72 38 235 80v23q0 68 -33.5 106.5t-94.5 38.5q-57 0 -91 -33t-34 -89q0 -32 12 -75l-4 -4q-60 45 -60 96q0 50 49 82.5t127 32.5zM391 321q-129 -34 -203 -76q-82 -50 -82 -124q0 -46 33 -76t85 -30q71 0 119 54.5t48 134.5v117z" glyph-name="atilde" horiz-adv-x="568" unicode="ã"/><glyph d="M175 613q0 43 43 43t43 -43t-43 -43t-43 43zM291 613q0 43 43 43t43 -43t-43 -43t-43 43zM272 510q88 0 136 -43t48 -122v-295q0 -18 6 -24t24 -6h65v-10l-150 -10v127q-19 -59 -74 -98t-120 -39q-63 0 -105 36t-42 89q0 85 106 137q72 38 235 80v23q0 68 -33.5 106.5 t-94.5 38.5q-57 0 -91 -33t-34 -89q0 -32 12 -75l-4 -4q-60 45 -60 96q0 50 49 82.5t127 32.5zM401 321q-129 -34 -203 -76q-82 -50 -82 -124q0 -46 33 -76t85 -30q71 0 119 54.5t48 134.5v117z" glyph-name="adieresis" horiz-adv-x="578" unicode="ä"/><glyph d="M188 648q0 32 22.5 54.5t55.5 22.5q32 0 54.5 -22.5t22.5 -54.5q0 -33 -22.5 -55.5t-54.5 -22.5q-33 0 -55.5 22.5t-22.5 55.5zM216 648q0 -22 15 -37t35 -15t34.5 15t14.5 37q0 21 -14.5 36t-34.5 15t-35 -15t-15 -36zM262 510q88 0 136 -43t48 -122v-295q0 -18 6 -24 t24 -6h65v-10l-150 -10v127q-19 -59 -74 -98t-120 -39q-63 0 -105 36t-42 89q0 85 106 137q72 38 235 80v23q0 68 -33.5 106.5t-94.5 38.5q-57 0 -91 -33t-34 -89q0 -32 12 -75l-4 -4q-60 45 -60 96q0 50 49 82.5t127 32.5zM391 321q-129 -34 -203 -76q-82 -50 -82 -124 q0 -46 33 -76t85 -30q71 0 119 54.5t48 134.5v117z" glyph-name="aring" horiz-adv-x="568" unicode="å"/><glyph d="M635 510q92 0 148.5 -59t60.5 -158h-377q0 -5 -0.5 -17t-0.5 -18q0 -108 53 -174t140 -66q91 0 161 80l5 -3q-71 -105 -194 -105q-76 0 -131 44.5t-76 120.5q-25 -77 -80 -121t-128 -44q-67 0 -111.5 35.5t-44.5 89.5q0 42 26.5 76t65.5 53.5t89.5 33t91 18.5t78.5 6v53 q0 68 -35 106.5t-98 38.5q-59 0 -94.5 -33t-35.5 -89q0 -32 12 -75l-4 -4q-60 45 -60 95q0 51 51 83.5t131 32.5q139 0 176 -96q64 96 181 96zM469 303l319 4q-6 86 -48 137t-106 51q-66 0 -110.5 -52.5t-54.5 -139.5zM411 204v88q-34 -1 -69.5 -6.5t-77 -18t-73.5 -30.5 t-53.5 -48.5t-21.5 -67.5q0 -46 34.5 -76t87.5 -30q73 0 123 54.5t50 134.5z" glyph-name="ae" horiz-adv-x="874" unicode="æ"/><glyph d="M268 510q75 0 126.5 -34.5t51.5 -82.5q0 -54 -53 -94l-4 4q5 27 5 55q0 59 -38.5 98t-96.5 39q-76 0 -122.5 -65t-46.5 -170q0 -111 52.5 -176.5t140.5 -65.5q91 0 161 80l5 -3q-69 -102 -187 -105l-22 -50q26 5 43 5q38 0 60.5 -16.5t22.5 -44.5q0 -31 -28 -52t-70 -21 q-68 0 -90 48l5 4q18 -27 65 -27q33 0 53 14.5t20 37.5q0 20 -16 31.5t-43 11.5q-22 0 -51 -10l31 69q-93 5 -150 76t-57 182q0 118 64 190t169 72z" glyph-name="ccedilla" horiz-adv-x="479" unicode="ç"/><glyph d="M230 659l119 -80l-4 -9l-153 57q-26 10 -22 29q5 18 29 15q15 -1 31 -12zM259 510q92 0 148.5 -59t60.5 -158h-377q0 -5 -0.5 -17t-0.5 -18q0 -108 53 -174t140 -66q91 0 161 80l5 -3q-71 -105 -194 -105q-98 0 -159 72t-61 188q0 117 61.5 188.5t162.5 71.5zM93 303 l319 4q-6 86 -48 137t-106 51q-66 0 -110.5 -52.5t-54.5 -139.5z" glyph-name="egrave" horiz-adv-x="498" unicode="è"/><glyph d="M169 579l119 80q36 24 55 5q13 -13 -2 -28q-6 -6 -15 -9l-153 -57zM259 510q92 0 148.5 -59t60.5 -158h-377q0 -5 -0.5 -17t-0.5 -18q0 -108 53 -174t140 -66q91 0 161 80l5 -3q-71 -105 -194 -105q-98 0 -159 72t-61 188q0 117 61.5 188.5t162.5 71.5zM93 303l319 4 q-6 86 -48 137t-106 51q-66 0 -110.5 -52.5t-54.5 -139.5z" glyph-name="eacute" horiz-adv-x="498" unicode="é"/><glyph d="M288 669l119 -90l-4 -9l-133 57q-8 4 -11 6q-3 -2 -11 -6l-133 -57l-4 9l119 90q14 11 29 11t29 -11zM259 510q92 0 148.5 -59t60.5 -158h-377q0 -5 -0.5 -17t-0.5 -18q0 -108 53 -174t140 -66q91 0 161 80l5 -3q-71 -105 -194 -105q-98 0 -159 72t-61 188 q0 117 61.5 188.5t162.5 71.5zM93 303l319 4q-6 86 -48 137t-106 51q-66 0 -110.5 -52.5t-54.5 -139.5z" glyph-name="ecircumflex" horiz-adv-x="498" unicode="ê"/><glyph d="M158 613q0 43 43 43t43 -43t-43 -43t-43 43zM274 613q0 43 43 43t43 -43t-43 -43t-43 43zM259 510q92 0 148.5 -59t60.5 -158h-377q0 -5 -0.5 -17t-0.5 -18q0 -108 53 -174t140 -66q91 0 161 80l5 -3q-71 -105 -194 -105q-98 0 -159 72t-61 188q0 117 61.5 188.5 t162.5 71.5zM93 303l319 4q-6 86 -48 137t-106 51q-66 0 -110.5 -52.5t-54.5 -139.5z" glyph-name="edieresis" horiz-adv-x="498" unicode="ë"/><glyph d="M147 649l119 -80l-4 -9l-153 57q-26 10 -22 29q5 18 29 15q15 -1 31 -12zM148 45v405q0 18 -6 24t-24 6h-65v10l150 10v-455q0 -17 5.5 -23t24.5 -7l65 -5v-10h-245v10l65 5q19 1 24.5 7t5.5 23z" glyph-name="igrave" horiz-adv-x="328" unicode="ì"/><glyph d="M86 569l119 80q36 24 55 5q13 -13 -2 -28q-6 -6 -15 -9l-153 -57zM148 45v405q0 18 -6 24t-24 6h-65v10l150 10v-455q0 -17 5.5 -23t24.5 -7l65 -5v-10h-245v10l65 5q19 1 24.5 7t5.5 23z" glyph-name="iacute" horiz-adv-x="328" unicode="í"/><glyph d="M205 659l119 -90l-4 -9l-133 57q-8 4 -11 6q-3 -2 -11 -6l-133 -57l-4 9l119 90q14 11 29 11t29 -11zM148 45v405q0 18 -6 24t-24 6h-65v10l150 10v-455q0 -17 5.5 -23t24.5 -7l65 -5v-10h-245v10l65 5q19 1 24.5 7t5.5 23z" glyph-name="icircumflex" horiz-adv-x="328" unicode="î"/><glyph d="M75 603q0 43 43 43t43 -43t-43 -43t-43 43zM191 603q0 43 43 43t43 -43t-43 -43t-43 43zM148 45v405q0 18 -6 24t-24 6h-65v10l150 10v-455q0 -17 5.5 -23t24.5 -7l65 -5v-10h-245v10l65 5q19 1 24.5 7t5.5 23z" glyph-name="idieresis" horiz-adv-x="328" unicode="ï"/><glyph d="M183 693l10 7q65 -33 124 -85l85 85l14 -12l-86 -86q71 -70 110.5 -159t39.5 -184q0 -121 -61.5 -195t-161.5 -74q-95 0 -158.5 64t-63.5 159q0 93 62 153.5t159 60.5q86 0 146 -52q-37 124 -96 203l-88 -88l-14 12l91 91q-46 60 -112 100zM257 5q70 0 118 60t48 147 t-48 143.5t-119 56.5t-118.5 -56.5t-47.5 -143.5q0 -88 48 -147.5t119 -59.5z" glyph-name="eth" horiz-adv-x="525" unicode="ð"/><glyph d="M324 651q21 0 58.5 -15.5t60.5 -15.5q44 0 80 31l4 -4q-66 -77 -126 -77q-22 0 -55.5 17.5t-57.5 17.5q-41 0 -82 -30l-4 4q61 72 122 72zM203 306v-261q0 -17 5.5 -23t24.5 -7l65 -5v-10h-245v10l65 5q19 1 24.5 7t5.5 23v405q0 18 -6 24t-24 6h-65v10l150 10v-128 q19 64 67.5 101t115.5 37q82 0 129 -54.5t47 -149.5v-261q0 -17 5.5 -23t24.5 -7l65 -5v-10h-245v10l65 5q19 1 24.5 7t5.5 23v261q0 83 -39 131t-107 48q-69 0 -113 -49.5t-45 -129.5z" glyph-name="ntilde" horiz-adv-x="684" unicode="ñ"/><glyph d="M240 659l119 -80l-4 -9l-153 57q-26 10 -22 29q5 18 29 15q15 -1 31 -12zM272 510q103 0 167 -72t64 -188t-64 -188t-167 -72q-107 0 -172 71.5t-65 188.5t65 188.5t172 71.5zM271 5q78 0 127 68t49 177t-49 177t-127 68q-80 0 -130 -68t-50 -177t50 -177t130 -68z" glyph-name="ograve" horiz-adv-x="538" unicode="ò"/><glyph d="M179 579l119 80q36 24 55 5q13 -13 -2 -28q-6 -6 -15 -9l-153 -57zM272 510q103 0 167 -72t64 -188t-64 -188t-167 -72q-107 0 -172 71.5t-65 188.5t65 188.5t172 71.5zM271 5q78 0 127 68t49 177t-49 177t-127 68q-80 0 -130 -68t-50 -177t50 -177t130 -68z" glyph-name="oacute" horiz-adv-x="538" unicode="ó"/><glyph d="M298 669l119 -90l-4 -9l-133 57q-8 4 -11 6q-3 -2 -11 -6l-133 -57l-4 9l119 90q14 11 29 11t29 -11zM272 510q103 0 167 -72t64 -188t-64 -188t-167 -72q-107 0 -172 71.5t-65 188.5t65 188.5t172 71.5zM271 5q78 0 127 68t49 177t-49 177t-127 68q-80 0 -130 -68 t-50 -177t50 -177t130 -68z" glyph-name="ocircumflex" horiz-adv-x="538" unicode="ô"/><glyph d="M228 651q21 0 58.5 -15.5t60.5 -15.5q44 0 80 31l4 -4q-66 -77 -126 -77q-22 0 -55.5 17.5t-57.5 17.5q-41 0 -82 -30l-4 4q61 72 122 72zM272 510q103 0 167 -72t64 -188t-64 -188t-167 -72q-107 0 -172 71.5t-65 188.5t65 188.5t172 71.5zM271 5q78 0 127 68t49 177 t-49 177t-127 68q-80 0 -130 -68t-50 -177t50 -177t130 -68z" glyph-name="otilde" horiz-adv-x="538" unicode="õ"/><glyph d="M168 613q0 43 43 43t43 -43t-43 -43t-43 43zM284 613q0 43 43 43t43 -43t-43 -43t-43 43zM272 510q103 0 167 -72t64 -188t-64 -188t-167 -72q-107 0 -172 71.5t-65 188.5t65 188.5t172 71.5zM271 5q78 0 127 68t49 177t-49 177t-127 68q-80 0 -130 -68t-50 -177t50 -177 t130 -68z" glyph-name="odieresis" horiz-adv-x="538" unicode="ö"/><glyph d="M174 450q0 27 12 38.5t39 11.5q26 0 38 -11.5t12 -38.5q0 -28 -11.5 -39.5t-38.5 -11.5t-39 11.5t-12 39.5zM25 307v40h400v-40h-400zM174 205q0 27 12 38.5t39 11.5q26 0 38 -11.5t12 -38.5t-11.5 -39t-38.5 -12t-39 11.5t-12 39.5z" glyph-name="divide" horiz-adv-x="450" unicode="÷"/><glyph d="M272 510q86 0 146 -51l35 42h46l-56 -67q60 -73 60 -184q0 -116 -64 -188t-167 -72q-92 0 -154 54l-37 -44h-46l58 70q-58 71 -58 180q0 117 65 188.5t172 71.5zM122 104l273 327q-48 64 -124 64q-80 0 -130 -68t-50 -177q0 -84 31 -146zM271 5q78 0 127 68t49 177 q0 86 -32 150l-274 -328q51 -67 130 -67z" glyph-name="oslash" horiz-adv-x="538" unicode="ø"/><glyph d="M291 649l119 -80l-4 -9l-153 57q-26 10 -22 29q5 18 29 15q15 -1 31 -12zM522 500v-450q0 -18 6 -24t24 -6h65v-10l-150 -10v127q-18 -64 -65.5 -100.5t-112.5 -36.5q-79 0 -125 54.5t-46 149.5v256q0 18 -6 24t-24 6h-65v10l150 10v-306q0 -83 38 -131t103 -48 q67 0 109.5 49.5t43.5 129.5v256q0 18 -6 24t-24 6h-65v10z" glyph-name="ugrave" horiz-adv-x="647" unicode="ù"/><glyph d="M230 569l119 80q36 24 55 5q13 -13 -2 -28q-6 -6 -15 -9l-153 -57zM522 500v-450q0 -18 6 -24t24 -6h65v-10l-150 -10v127q-18 -64 -65.5 -100.5t-112.5 -36.5q-79 0 -125 54.5t-46 149.5v256q0 18 -6 24t-24 6h-65v10l150 10v-306q0 -83 38 -131t103 -48 q67 0 109.5 49.5t43.5 129.5v256q0 18 -6 24t-24 6h-65v10z" glyph-name="uacute" horiz-adv-x="647" unicode="ú"/><glyph d="M349 659l119 -90l-4 -9l-133 57q-8 4 -11 6q-3 -2 -11 -6l-133 -57l-4 9l119 90q14 11 29 11t29 -11zM522 500v-450q0 -18 6 -24t24 -6h65v-10l-150 -10v127q-18 -64 -65.5 -100.5t-112.5 -36.5q-79 0 -125 54.5t-46 149.5v256q0 18 -6 24t-24 6h-65v10l150 10v-306 q0 -83 38 -131t103 -48q67 0 109.5 49.5t43.5 129.5v256q0 18 -6 24t-24 6h-65v10z" glyph-name="ucircumflex" horiz-adv-x="647" unicode="û"/><glyph d="M219 603q0 43 43 43t43 -43t-43 -43t-43 43zM335 603q0 43 43 43t43 -43t-43 -43t-43 43zM522 500v-450q0 -18 6 -24t24 -6h65v-10l-150 -10v127q-18 -64 -65.5 -100.5t-112.5 -36.5q-79 0 -125 54.5t-46 149.5v256q0 18 -6 24t-24 6h-65v10l150 10v-306q0 -83 38 -131 t103 -48q67 0 109.5 49.5t43.5 129.5v256q0 18 -6 24t-24 6h-65v10z" glyph-name="udieresis" horiz-adv-x="647" unicode="ü"/><glyph d="M195 569l119 80q36 24 55 5q13 -13 -2 -28q-6 -6 -15 -9l-153 -57zM135 455l170 -436l169 436q7 19 3 23.5t-27 6.5l-85 5v10h224v-10l-65 -5q-16 -1 -21.5 -6t-13.5 -24l-177 -455q-46 -114 -92.5 -162t-108.5 -48q-44 0 -71 19.5t-27 51.5q0 43 30 81h6q2 -50 24 -84.5 t70 -34.5q38 0 69.5 30.5t63.5 98.5l-196 503q-8 19 -13.5 24t-21.5 6l-65 5v10h264v-10l-85 -5q-23 -2 -27 -6.5t3 -23.5z" glyph-name="yacute" horiz-adv-x="569" unicode="ý"/><glyph d="M130 701q0 18 -6 24t-24 6h-65v10l150 10v-379q20 64 68.5 101t112.5 37q92 0 149.5 -72.5t57.5 -187.5t-57.5 -187.5t-149.5 -72.5q-64 0 -112.5 37t-68.5 101v-283q0 -17 5.5 -23t24.5 -7l85 -5v-10h-265v10l65 5q19 1 24.5 7t5.5 23v856zM185 180q7 -72 53 -118.5 t109 -46.5q75 0 123 66t48 170q0 102 -48 168t-123 66q-63 0 -109 -46.5t-53 -118.5v-140z" glyph-name="thorn" horiz-adv-x="608" unicode="þ"/><glyph d="M169 613q0 43 43 43t43 -43t-43 -43t-43 43zM285 613q0 43 43 43t43 -43t-43 -43t-43 43zM135 455l170 -436l169 436q7 19 3 23.5t-27 6.5l-85 5v10h224v-10l-65 -5q-16 -1 -21.5 -6t-13.5 -24l-177 -455q-46 -114 -92.5 -162t-108.5 -48q-44 0 -71 19.5t-27 51.5 q0 43 30 81h6q2 -50 24 -84.5t70 -34.5q38 0 69.5 30.5t63.5 98.5l-196 503q-8 19 -13.5 24t-21.5 6l-65 5v10h264v-10l-85 -5q-23 -2 -27 -6.5t3 -23.5z" glyph-name="ydieresis" horiz-adv-x="569" unicode="ÿ"/><glyph d="M497 770h-275v34h275v-34zM480 280l-134 378q-7 15 -7 16l-140 -394h281zM194 264l-78 -220q-7 -20 -3.5 -24t29.5 -6l70 -4v-10h-217v10l70 5q17 1 22 6t14 29l224 633q-6 2 -13 2l-65 5v10h141l230 -650q8 -24 13 -29t23 -6l70 -5v-10h-257v10l70 5q26 2 29.5 5.5 t-3.5 23.5l-78 220h-291z" glyph-name="Amacron" horiz-adv-x="719" unicode="Ā"/><glyph d="M403 570h-275v34h275v-34zM262 510q88 0 136 -43t48 -122v-295q0 -18 6 -24t24 -6h65v-10l-150 -10v127q-19 -59 -74 -98t-120 -39q-63 0 -105 36t-42 89q0 85 106 137q72 38 235 80v23q0 68 -33.5 106.5t-94.5 38.5q-57 0 -91 -33t-34 -89q0 -32 12 -75l-4 -4 q-60 45 -60 96q0 50 49 82.5t127 32.5zM391 321q-129 -34 -203 -76q-82 -50 -82 -124q0 -46 33 -76t85 -30q71 0 119 54.5t48 134.5v117z" glyph-name="amacron" horiz-adv-x="568" unicode="ā"/><glyph d="M360 770q-56 0 -97.5 29.5t-54.5 78.5l6 6q38 -69 147 -69q108 0 145 69l5 -7q-13 -48 -54.5 -77.5t-96.5 -29.5zM480 280l-134 378q-7 15 -7 16l-140 -394h281zM194 264l-78 -220q-7 -20 -3.5 -24t29.5 -6l70 -4v-10h-217v10l70 5q17 1 22 6t14 29l224 633q-6 2 -13 2 l-65 5v10h141l230 -650q8 -24 13 -29t23 -6l70 -5v-10h-257v10l70 5q26 2 29.5 5.5t-3.5 23.5l-78 220h-291z" glyph-name="Abreve" horiz-adv-x="719" unicode="Ă"/><glyph d="M266 570q-56 0 -97.5 29.5t-54.5 78.5l6 6q38 -69 147 -69q108 0 145 69l5 -7q-13 -48 -54.5 -77.5t-96.5 -29.5zM262 510q88 0 136 -43t48 -122v-295q0 -18 6 -24t24 -6h65v-10l-150 -10v127q-19 -59 -74 -98t-120 -39q-63 0 -105 36t-42 89q0 85 106 137q72 38 235 80 v23q0 68 -33.5 106.5t-94.5 38.5q-57 0 -91 -33t-34 -89q0 -32 12 -75l-4 -4q-60 45 -60 96q0 50 49 82.5t127 32.5zM391 321q-129 -34 -203 -76q-82 -50 -82 -124q0 -46 33 -76t85 -30q71 0 119 54.5t48 134.5v117z" glyph-name="abreve" horiz-adv-x="568" unicode="ă"/><glyph d="M480 280l-134 378q-7 15 -7 16l-140 -394h281zM194 264l-78 -220q-7 -20 -3.5 -24t29.5 -6l70 -4v-10h-217v10l70 5q17 1 22 6t14 29l224 633q-6 2 -13 2l-65 5v10h141l230 -650q8 -24 13 -29t23 -6l70 -5v-10h-112q-61 -44 -61 -99q0 -32 21 -50.5t58 -18.5q36 0 66 18 l4 -4q-37 -39 -96 -39q-44 0 -71 22t-27 57q0 63 89 114h-128v10l70 5q26 2 29.5 5.5t-3.5 23.5l-78 220h-291z" glyph-name="Aogonek" horiz-adv-x="719" unicode="Ą"/><glyph d="M262 510q88 0 136 -43t48 -122v-295q0 -18 6 -24t24 -6h65v-10l-131 -9q-56 -42 -56 -95q0 -32 21 -50.5t58 -18.5q36 0 66 18l4 -4q-37 -39 -96 -39q-44 0 -71 22t-27 57q0 60 82 110v126q-19 -59 -74 -98t-120 -39q-63 0 -105 36t-42 89q0 85 106 137q72 38 235 80v23 q0 68 -33.5 106.5t-94.5 38.5q-57 0 -91 -33t-34 -89q0 -32 12 -75l-4 -4q-60 45 -60 96q0 50 49 82.5t127 32.5zM391 321q-129 -34 -203 -76q-82 -50 -82 -124q0 -46 33 -76t85 -30q71 0 119 54.5t48 134.5v117z" glyph-name="aogonek" horiz-adv-x="568" unicode="ą"/><glyph d="M251 789l119 80q36 24 55 5q13 -13 -2 -28q-6 -6 -15 -9l-153 -57zM101 359q0 -152 74 -245t195 -93q89 0 151.5 52.5t85.5 147.5h10q-25 -112 -93.5 -171.5t-171.5 -59.5q-137 0 -222 99.5t-85 260.5t83.5 260.5t217.5 99.5q122 0 194 -75q10 -12 16 -12t7 22l4 55h10 v-200h-10l-6 59q-3 27 -27 57q-30 36 -78 57t-101 21q-113 0 -183.5 -93t-70.5 -242z" glyph-name="Cacute" horiz-adv-x="652" unicode="Ć"/><glyph d="M172 579l119 80q36 24 55 5q13 -13 -2 -28q-6 -6 -15 -9l-153 -57zM268 510q75 0 126.5 -34.5t51.5 -82.5q0 -54 -53 -94l-4 4q5 27 5 55q0 59 -38.5 98t-96.5 39q-76 0 -122.5 -65t-46.5 -170q0 -111 52.5 -176.5t140.5 -65.5q91 0 161 80l5 -3q-71 -105 -194 -105 q-98 0 -159 71.5t-61 186.5q0 118 64 190t169 72z" glyph-name="cacute" horiz-adv-x="479" unicode="ć"/><glyph d="M370 879l119 -90l-4 -9l-133 57q-8 4 -11 6q-3 -2 -11 -6l-133 -57l-4 9l119 90q14 11 29 11t29 -11zM101 359q0 -152 74 -245t195 -93q89 0 151.5 52.5t85.5 147.5h10q-25 -112 -93.5 -171.5t-171.5 -59.5q-137 0 -222 99.5t-85 260.5t83.5 260.5t217.5 99.5 q122 0 194 -75q10 -12 16 -12t7 22l4 55h10v-200h-10l-6 59q-3 27 -27 57q-30 36 -78 57t-101 21q-113 0 -183.5 -93t-70.5 -242z" glyph-name="Ccircumflex" horiz-adv-x="652" unicode="Ĉ"/><glyph d="M291 669l119 -90l-4 -9l-133 57q-8 4 -11 6q-3 -2 -11 -6l-133 -57l-4 9l119 90q14 11 29 11t29 -11zM268 510q75 0 126.5 -34.5t51.5 -82.5q0 -54 -53 -94l-4 4q5 27 5 55q0 59 -38.5 98t-96.5 39q-76 0 -122.5 -65t-46.5 -170q0 -111 52.5 -176.5t140.5 -65.5 q91 0 161 80l5 -3q-71 -105 -194 -105q-98 0 -159 71.5t-61 186.5q0 118 64 190t169 72z" glyph-name="ccircumflex" horiz-adv-x="479" unicode="ĉ"/><glyph d="M298 833q0 43 43 43t43 -43t-43 -43t-43 43zM101 359q0 -152 74 -245t195 -93q89 0 151.5 52.5t85.5 147.5h10q-25 -112 -93.5 -171.5t-171.5 -59.5q-137 0 -222 99.5t-85 260.5t83.5 260.5t217.5 99.5q122 0 194 -75q10 -12 16 -12t7 22l4 55h10v-200h-10l-6 59 q-3 27 -27 57q-30 36 -78 57t-101 21q-113 0 -183.5 -93t-70.5 -242z" glyph-name="Cdotaccent" horiz-adv-x="652" unicode="Ċ"/><glyph d="M219 623q0 43 43 43t43 -43t-43 -43t-43 43zM268 510q75 0 126.5 -34.5t51.5 -82.5q0 -54 -53 -94l-4 4q5 27 5 55q0 59 -38.5 98t-96.5 39q-76 0 -122.5 -65t-46.5 -170q0 -111 52.5 -176.5t140.5 -65.5q91 0 161 80l5 -3q-71 -105 -194 -105q-98 0 -159 71.5t-61 186.5 q0 118 64 190t169 72z" glyph-name="cdotaccent" horiz-adv-x="479" unicode="ċ"/><glyph d="M489 875l-119 -85q-15 -10 -29 -10q-12 0 -29 10l-119 85l4 9l133 -57q8 -4 11 -6q3 2 11 6l133 57zM101 359q0 -152 74 -245t195 -93q89 0 151.5 52.5t85.5 147.5h10q-25 -112 -93.5 -171.5t-171.5 -59.5q-137 0 -222 99.5t-85 260.5t83.5 260.5t217.5 99.5 q122 0 194 -75q10 -12 16 -12t7 22l4 55h10v-200h-10l-6 59q-3 27 -27 57q-30 36 -78 57t-101 21q-113 0 -183.5 -93t-70.5 -242z" glyph-name="Ccaron" horiz-adv-x="652" unicode="Č"/><glyph d="M410 665l-119 -85q-15 -10 -29 -10q-12 0 -29 10l-119 85l4 9l133 -57q8 -4 11 -6q3 2 11 6l133 57zM268 510q75 0 126.5 -34.5t51.5 -82.5q0 -54 -53 -94l-4 4q5 27 5 55q0 59 -38.5 98t-96.5 39q-76 0 -122.5 -65t-46.5 -170q0 -111 52.5 -176.5t140.5 -65.5 q91 0 161 80l5 -3q-71 -105 -194 -105q-98 0 -159 71.5t-61 186.5q0 118 64 190t169 72z" glyph-name="ccaron" horiz-adv-x="479" unicode="č"/><glyph d="M500 865l-119 -85q-15 -10 -29 -10q-12 0 -29 10l-119 85l4 9l133 -57q8 -4 11 -6q3 2 11 6l133 57zM209 654v-638h169q104 0 169.5 93t65.5 241t-65.5 241t-169.5 93h-139q-18 0 -24 -6t-6 -24zM53 700h325q130 0 211 -97t81 -253t-81 -253t-211 -97h-325v10l70 5 q19 1 24.5 7t5.5 23v610q0 17 -5.5 23t-24.5 7l-70 5v10z" glyph-name="Dcaron" horiz-adv-x="715" unicode="Ď"/><glyph d="M478 50q0 -18 6 -24t24 -6h65v-10l-150 -10v129q-20 -63 -69.5 -101t-113.5 -38q-91 0 -148 72.5t-57 187.5t57 187.5t148 72.5q64 0 113.5 -38t69.5 -101v329q0 18 -6 24t-24 6h-65v10l150 10v-700zM623 512l-2 10q23 16 37.5 44.5t14.5 56.5q0 26 -15 26q-26 0 -38 12 t-12 39q0 26 12 38t39 12t38.5 -14.5t11.5 -48.5q0 -54 -23.5 -103t-62.5 -72zM423 180v140q-8 72 -54 118.5t-108 46.5q-75 0 -123 -66t-48 -168q0 -104 48 -170t123 -66q62 0 108 46.5t54 118.5z" glyph-name="dcaron" horiz-adv-x="829" unicode="ď"/><glyph d="M209 654v-296h138v-16h-138v-326h169q104 0 169.5 93t65.5 241t-65.5 241t-169.5 93h-139q-18 0 -24 -6t-6 -24zM53 700h325q130 0 211 -97t81 -253t-81 -253t-211 -97h-325v10l70 5q19 1 24.5 7t5.5 23v297h-100v16h100v297q0 17 -5.5 23t-24.5 7l-70 5v10z" glyph-name="Dcroat" horiz-adv-x="715" unicode="Đ"/><glyph d="M478 50q0 -18 6 -24t24 -6h65v-10l-150 -10v129q-20 -63 -69.5 -101t-113.5 -38q-91 0 -148 72.5t-57 187.5t57 187.5t148 72.5q64 0 113.5 -38t69.5 -101v213h-125v16h125v100q0 18 -6 24t-24 6h-65v10l150 10v-150h95v-16h-95v-534zM423 180v140q-8 72 -54 118.5 t-108 46.5q-75 0 -123 -66t-48 -168q0 -104 48 -170t123 -66q62 0 108 46.5t54 118.5z" glyph-name="dcroat" horiz-adv-x="603" unicode="đ"/><glyph d="M480 770h-275v34h275v-34zM153 45v610q0 17 -5.5 23t-24.5 7l-70 5v10h519v-155h-10l-30 109q-5 17 -12.5 23.5t-27.5 6.5h-253q-18 0 -24 -6t-6 -24v-295h163q17 0 22 5.5t8 24.5l10 65h10v-206h-10l-10 65q-3 19 -8 24.5t-22 5.5h-163v-327h293q20 0 29 7t14 23l37 124 h10l-10 -170h-529v10l70 5q19 1 24.5 7t5.5 23z" glyph-name="Emacron" horiz-adv-x="642" unicode="Ē"/><glyph d="M396 570h-275v34h275v-34zM259 510q92 0 148.5 -59t60.5 -158h-377q0 -5 -0.5 -17t-0.5 -18q0 -108 53 -174t140 -66q91 0 161 80l5 -3q-71 -105 -194 -105q-98 0 -159 72t-61 188q0 117 61.5 188.5t162.5 71.5zM93 303l319 4q-6 86 -48 137t-106 51q-66 0 -110.5 -52.5 t-54.5 -139.5z" glyph-name="emacron" horiz-adv-x="498" unicode="ē"/><glyph d="M343 770q-56 0 -97.5 29.5t-54.5 78.5l6 6q38 -69 147 -69q108 0 145 69l5 -7q-13 -48 -54.5 -77.5t-96.5 -29.5zM153 45v610q0 17 -5.5 23t-24.5 7l-70 5v10h519v-155h-10l-30 109q-5 17 -12.5 23.5t-27.5 6.5h-253q-18 0 -24 -6t-6 -24v-295h163q17 0 22 5.5t8 24.5 l10 65h10v-206h-10l-10 65q-3 19 -8 24.5t-22 5.5h-163v-327h293q20 0 29 7t14 23l37 124h10l-10 -170h-529v10l70 5q19 1 24.5 7t5.5 23z" glyph-name="Ebreve" horiz-adv-x="642" unicode="Ĕ"/><glyph d="M259 570q-56 0 -97.5 29.5t-54.5 78.5l6 6q38 -69 147 -69q108 0 145 69l5 -7q-13 -48 -54.5 -77.5t-96.5 -29.5zM259 510q92 0 148.5 -59t60.5 -158h-377q0 -5 -0.5 -17t-0.5 -18q0 -108 53 -174t140 -66q91 0 161 80l5 -3q-71 -105 -194 -105q-98 0 -159 72t-61 188 q0 117 61.5 188.5t162.5 71.5zM93 303l319 4q-6 86 -48 137t-106 51q-66 0 -110.5 -52.5t-54.5 -139.5z" glyph-name="ebreve" horiz-adv-x="498" unicode="ĕ"/><glyph d="M300 823q0 43 43 43t43 -43t-43 -43t-43 43zM153 45v610q0 17 -5.5 23t-24.5 7l-70 5v10h519v-155h-10l-30 109q-5 17 -12.5 23.5t-27.5 6.5h-253q-18 0 -24 -6t-6 -24v-295h163q17 0 22 5.5t8 24.5l10 65h10v-206h-10l-10 65q-3 19 -8 24.5t-22 5.5h-163v-327h293 q20 0 29 7t14 23l37 124h10l-10 -170h-529v10l70 5q19 1 24.5 7t5.5 23z" glyph-name="Edotaccent" horiz-adv-x="642" unicode="Ė"/><glyph d="M216 623q0 43 43 43t43 -43t-43 -43t-43 43zM259 510q92 0 148.5 -59t60.5 -158h-377q0 -5 -0.5 -17t-0.5 -18q0 -108 53 -174t140 -66q91 0 161 80l5 -3q-71 -105 -194 -105q-98 0 -159 72t-61 188q0 117 61.5 188.5t162.5 71.5zM93 303l319 4q-6 86 -48 137t-106 51 q-66 0 -110.5 -52.5t-54.5 -139.5z" glyph-name="edotaccent" horiz-adv-x="498" unicode="ė"/><glyph d="M153 45v610q0 17 -5.5 23t-24.5 7l-70 5v10h519v-155h-10l-30 109q-5 17 -12.5 23.5t-27.5 6.5h-253q-18 0 -24 -6t-6 -24v-295h163q17 0 22 5.5t8 24.5l10 65h10v-206h-10l-10 65q-3 19 -8 24.5t-22 5.5h-163v-327h293q20 0 29 7t14 23l37 124h10l-10 -170h-71 q-61 -44 -61 -99q0 -32 21 -50.5t58 -18.5q36 0 66 18l4 -4q-37 -39 -96 -39q-44 0 -71 22t-27 57q0 63 89 114h-441v10l70 5q19 1 24.5 7t5.5 23z" glyph-name="Eogonek" horiz-adv-x="642" unicode="Ę"/><glyph d="M259 510q92 0 148.5 -59t60.5 -158h-377q0 -5 -0.5 -17t-0.5 -18q0 -108 53 -174t140 -66q91 0 161 80l5 -3q-49 -72 -126 -95h1q-61 -44 -61 -99q0 -32 21 -50.5t58 -18.5q36 0 66 18l4 -4q-37 -39 -96 -39q-44 0 -71 22t-27 57q0 59 78 108q-17 -4 -41 -4 q-98 0 -159 72t-61 188q0 117 61.5 188.5t162.5 71.5zM93 303l319 4q-6 86 -48 137t-106 51q-66 0 -110.5 -52.5t-54.5 -139.5z" glyph-name="eogonek" horiz-adv-x="498" unicode="ę"/><glyph d="M491 865l-119 -85q-15 -10 -29 -10q-12 0 -29 10l-119 85l4 9l133 -57q8 -4 11 -6q3 2 11 6l133 57zM153 45v610q0 17 -5.5 23t-24.5 7l-70 5v10h519v-155h-10l-30 109q-5 17 -12.5 23.5t-27.5 6.5h-253q-18 0 -24 -6t-6 -24v-295h163q17 0 22 5.5t8 24.5l10 65h10v-206 h-10l-10 65q-3 19 -8 24.5t-22 5.5h-163v-327h293q20 0 29 7t14 23l37 124h10l-10 -170h-529v10l70 5q19 1 24.5 7t5.5 23z" glyph-name="Ecaron" horiz-adv-x="642" unicode="Ě"/><glyph d="M407 665l-119 -85q-15 -10 -29 -10q-12 0 -29 10l-119 85l4 9l133 -57q8 -4 11 -6q3 2 11 6l133 57zM259 510q92 0 148.5 -59t60.5 -158h-377q0 -5 -0.5 -17t-0.5 -18q0 -108 53 -174t140 -66q91 0 161 80l5 -3q-71 -105 -194 -105q-98 0 -159 72t-61 188 q0 117 61.5 188.5t162.5 71.5zM93 303l319 4q-6 86 -48 137t-106 51q-66 0 -110.5 -52.5t-54.5 -139.5z" glyph-name="ecaron" horiz-adv-x="498" unicode="ě"/><glyph d="M385 879l119 -90l-4 -9l-133 57q-8 4 -11 6q-3 -2 -11 -6l-133 -57l-4 9l119 90q14 11 29 11t29 -11zM101 356q0 -149 65.5 -241.5t170.5 -92.5q80 0 135 53.5t63 133.5v69q0 17 -7.5 22.5t-31.5 7.5l-66 5v10h256v-10l-65 -5q-19 -2 -24.5 -7.5t-5.5 -22.5v-278h-10 l-46 163q-18 -79 -77 -126t-141 -47q-120 0 -196 100t-76 260t85 260t222 100q112 0 184 -72q15 -15 20 -15q8 0 9 22l4 55h10v-201h-10l-5 60q-2 25 -25 55q-29 36 -78 58t-103 22q-113 0 -185 -94t-72 -244z" glyph-name="Gcircumflex" horiz-adv-x="671" unicode="Ĝ"/><glyph d="M318 669l119 -90l-4 -9l-133 57q-8 4 -11 6q-3 -2 -11 -6l-133 -57l-4 9l119 90q14 11 29 11t29 -11zM289 510q38 0 68 -10h180v-55l-134 33q69 -47 69 -134q0 -74 -50.5 -120.5t-132.5 -46.5q-95 0 -146 61q-34 -23 -34 -57q0 -37 48 -58.5t132 -21.5q115 0 186.5 -43 t71.5 -113t-71 -112.5t-187 -42.5t-187.5 41t-71.5 108q0 58 55 98t146 51q-84 6 -130.5 29t-46.5 59q0 45 77 78q-25 39 -25 90q0 74 50.5 120t132.5 46zM289 192q57 0 92.5 42t35.5 110q0 67 -35.5 109t-92.5 42t-92.5 -42t-35.5 -109q0 -68 35.5 -110t92.5 -42zM290 -195 q89 0 145.5 39.5t56.5 100.5q0 62 -56.5 101.5t-145.5 39.5q-92 0 -148.5 -39t-56.5 -102q0 -62 57 -101t148 -39z" glyph-name="gcircumflex" horiz-adv-x="547" unicode="ĝ"/><glyph d="M356 780q-56 0 -97.5 29.5t-54.5 78.5l6 6q38 -69 147 -69q108 0 145 69l5 -7q-13 -48 -54.5 -77.5t-96.5 -29.5zM101 356q0 -149 65.5 -241.5t170.5 -92.5q80 0 135 53.5t63 133.5v69q0 17 -7.5 22.5t-31.5 7.5l-66 5v10h256v-10l-65 -5q-19 -2 -24.5 -7.5t-5.5 -22.5 v-278h-10l-46 163q-18 -79 -77 -126t-141 -47q-120 0 -196 100t-76 260t85 260t222 100q112 0 184 -72q15 -15 20 -15q8 0 9 22l4 55h10v-201h-10l-5 60q-2 25 -25 55q-29 36 -78 58t-103 22q-113 0 -185 -94t-72 -244z" glyph-name="Gbreve" horiz-adv-x="671" unicode="Ğ"/><glyph d="M289 570q-56 0 -97.5 29.5t-54.5 78.5l6 6q38 -69 147 -69q108 0 145 69l5 -7q-13 -48 -54.5 -77.5t-96.5 -29.5zM289 510q38 0 68 -10h180v-55l-134 33q69 -47 69 -134q0 -74 -50.5 -120.5t-132.5 -46.5q-95 0 -146 61q-34 -23 -34 -57q0 -37 48 -58.5t132 -21.5 q115 0 186.5 -43t71.5 -113t-71 -112.5t-187 -42.5t-187.5 41t-71.5 108q0 58 55 98t146 51q-84 6 -130.5 29t-46.5 59q0 45 77 78q-25 39 -25 90q0 74 50.5 120t132.5 46zM289 192q57 0 92.5 42t35.5 110q0 67 -35.5 109t-92.5 42t-92.5 -42t-35.5 -109q0 -68 35.5 -110 t92.5 -42zM290 -195q89 0 145.5 39.5t56.5 100.5q0 62 -56.5 101.5t-145.5 39.5q-92 0 -148.5 -39t-56.5 -102q0 -62 57 -101t148 -39z" glyph-name="gbreve" horiz-adv-x="547" unicode="ğ"/><glyph d="M313 833q0 43 43 43t43 -43t-43 -43t-43 43zM101 356q0 -149 65.5 -241.5t170.5 -92.5q80 0 135 53.5t63 133.5v69q0 17 -7.5 22.5t-31.5 7.5l-66 5v10h256v-10l-65 -5q-19 -2 -24.5 -7.5t-5.5 -22.5v-278h-10l-46 163q-18 -79 -77 -126t-141 -47q-120 0 -196 100 t-76 260t85 260t222 100q112 0 184 -72q15 -15 20 -15q8 0 9 22l4 55h10v-201h-10l-5 60q-2 25 -25 55q-29 36 -78 58t-103 22q-113 0 -185 -94t-72 -244z" glyph-name="Gdotaccent" horiz-adv-x="671" unicode="Ġ"/><glyph d="M246 623q0 43 43 43t43 -43t-43 -43t-43 43zM289 510q38 0 68 -10h180v-55l-134 33q69 -47 69 -134q0 -74 -50.5 -120.5t-132.5 -46.5q-95 0 -146 61q-34 -23 -34 -57q0 -37 48 -58.5t132 -21.5q115 0 186.5 -43t71.5 -113t-71 -112.5t-187 -42.5t-187.5 41t-71.5 108 q0 58 55 98t146 51q-84 6 -130.5 29t-46.5 59q0 45 77 78q-25 39 -25 90q0 74 50.5 120t132.5 46zM289 192q57 0 92.5 42t35.5 110q0 67 -35.5 109t-92.5 42t-92.5 -42t-35.5 -109q0 -68 35.5 -110t92.5 -42zM290 -195q89 0 145.5 39.5t56.5 100.5q0 62 -56.5 101.5 t-145.5 39.5q-92 0 -148.5 -39t-56.5 -102q0 -62 57 -101t148 -39z" glyph-name="gdotaccent" horiz-adv-x="547" unicode="ġ"/><glyph d="M101 356q0 -149 65.5 -241.5t170.5 -92.5q80 0 135 53.5t63 133.5v69q0 17 -7.5 22.5t-31.5 7.5l-66 5v10h256v-10l-65 -5q-19 -2 -24.5 -7.5t-5.5 -22.5v-278h-10l-46 163q-18 -79 -77 -126t-141 -47q-120 0 -196 100t-76 260t85 260t222 100q112 0 184 -72 q15 -15 20 -15q8 0 9 22l4 55h10v-201h-10l-5 60q-2 25 -25 55q-29 36 -78 58t-103 22q-113 0 -185 -94t-72 -244zM305 -298l-2 10q23 16 37.5 44.5t14.5 56.5q0 26 -15 26q-26 0 -38 12t-12 39q0 26 12 38t39 12t38.5 -14.5t11.5 -48.5q0 -54 -23.5 -103t-62.5 -72z" glyph-name="uni0122" horiz-adv-x="671" unicode="Ģ"/><glyph d="M317 823l2 -10q-23 -16 -37.5 -44.5t-14.5 -56.5q0 -26 15 -26q26 0 38 -12t12 -39q0 -26 -12 -38t-39 -12t-38.5 14.5t-11.5 48.5q0 54 23.5 103t62.5 72zM289 510q38 0 68 -10h180v-55l-134 33q69 -47 69 -134q0 -74 -50.5 -120.5t-132.5 -46.5q-95 0 -146 61 q-34 -23 -34 -57q0 -37 48 -58.5t132 -21.5q115 0 186.5 -43t71.5 -113t-71 -112.5t-187 -42.5t-187.5 41t-71.5 108q0 58 55 98t146 51q-84 6 -130.5 29t-46.5 59q0 45 77 78q-25 39 -25 90q0 74 50.5 120t132.5 46zM289 192q57 0 92.5 42t35.5 110q0 67 -35.5 109 t-92.5 42t-92.5 -42t-35.5 -109q0 -68 35.5 -110t92.5 -42zM290 -195q89 0 145.5 39.5t56.5 100.5q0 62 -56.5 101.5t-145.5 39.5q-92 0 -148.5 -39t-56.5 -102q0 -62 57 -101t148 -39z" glyph-name="uni0123" horiz-adv-x="547" unicode="ģ"/><glyph d="M411 869l119 -90l-4 -9l-133 57q-8 4 -11 6q-3 -2 -11 -6l-133 -57l-4 9l119 90q14 11 29 11t29 -11zM153 45v610q0 17 -5.5 23t-24.5 7l-70 5v10h256v-10l-70 -5q-19 -1 -24.5 -7t-5.5 -23v-292h345v292q0 17 -5.5 23t-24.5 7l-70 5v10h256v-10l-70 -5q-19 -1 -24.5 -7 t-5.5 -23v-610q0 -17 5.5 -23t24.5 -7l70 -5v-10h-256v10l70 5q19 1 24.5 7t5.5 23v302h-345v-302q0 -17 5.5 -23t24.5 -7l70 -5v-10h-256v10l70 5q19 1 24.5 7t5.5 23z" glyph-name="Hcircumflex" horiz-adv-x="763" unicode="Ĥ"/><glyph d="M187 909l119 -90l-4 -9l-133 57q-8 4 -11 6q-3 -2 -11 -6l-133 -57l-4 9l119 90q14 11 29 11t29 -11zM185 306v-261q0 -17 5.5 -23t24.5 -7l65 -5v-10h-245v10l65 5q19 1 24.5 7t5.5 23v655q0 18 -6 24t-24 6h-65v10l150 10v-378q19 64 67.5 101t115.5 37 q81 0 128.5 -54.5t47.5 -149.5v-261q0 -17 5.5 -23t24.5 -7l65 -5v-10h-245v10l65 5q19 1 24.5 7t5.5 23v261q0 83 -39 131t-107 48q-69 0 -113 -49.5t-45 -129.5z" glyph-name="hcircumflex" horiz-adv-x="666" unicode="ĥ"/><glyph d="M153 605v50q0 17 -5.5 23t-24.5 7l-70 5v10h256v-10l-70 -5q-19 -1 -24.5 -7t-5.5 -23v-50h345v50q0 17 -5.5 23t-24.5 7l-70 5v10h256v-10l-70 -5q-19 -1 -24.5 -7t-5.5 -23v-50h101v-16h-101v-544q0 -17 5.5 -23t24.5 -7l70 -5v-10h-256v10l70 5q19 1 24.5 7t5.5 23 v302h-345v-302q0 -17 5.5 -23t24.5 -7l70 -5v-10h-256v10l70 5q19 1 24.5 7t5.5 23v544h-101v16h101zM209 589v-226h345v226h-345z" glyph-name="Hbar" horiz-adv-x="763" unicode="Ħ"/><glyph d="M185 306v-261q0 -17 5.5 -23t24.5 -7l65 -5v-10h-245v10l65 5q19 1 24.5 7t5.5 23v540h-95v16h95v99q0 18 -6 24t-24 6h-65v10l150 10v-149h125v-16h-125v-213q19 64 67.5 101t115.5 37q81 0 128.5 -54.5t47.5 -149.5v-261q0 -17 5.5 -23t24.5 -7l65 -5v-10h-245v10l65 5 q19 1 24.5 7t5.5 23v261q0 83 -39 131t-107 48q-69 0 -113 -49.5t-45 -129.5z" glyph-name="hbar" horiz-adv-x="666" unicode="ħ"/><glyph d="M140 851q21 0 58.5 -15.5t60.5 -15.5q44 0 80 31l4 -4q-66 -77 -126 -77q-22 0 -55.5 17.5t-57.5 17.5q-41 0 -82 -30l-4 4q61 72 122 72zM153 45v610q0 17 -5.5 23t-24.5 7l-70 5v10h256v-10l-70 -5q-19 -1 -24.5 -7t-5.5 -23v-610q0 -17 5.5 -23t24.5 -7l70 -5v-10 h-256v10l70 5q19 1 24.5 7t5.5 23z" glyph-name="Itilde" horiz-adv-x="362" unicode="Ĩ"/><glyph d="M135 641q21 0 58.5 -15.5t60.5 -15.5q44 0 80 31l4 -4q-66 -77 -126 -77q-22 0 -55.5 17.5t-57.5 17.5q-41 0 -82 -30l-4 4q61 72 122 72zM148 45v405q0 18 -6 24t-24 6h-65v10l150 10v-455q0 -17 5.5 -23t24.5 -7l65 -5v-10h-245v10l65 5q19 1 24.5 7t5.5 23z" glyph-name="itilde" horiz-adv-x="328" unicode="ĩ"/><glyph d="M318 770h-275v34h275v-34zM153 45v610q0 17 -5.5 23t-24.5 7l-70 5v10h256v-10l-70 -5q-19 -1 -24.5 -7t-5.5 -23v-610q0 -17 5.5 -23t24.5 -7l70 -5v-10h-256v10l70 5q19 1 24.5 7t5.5 23z" glyph-name="Imacron" horiz-adv-x="362" unicode="Ī"/><glyph d="M313 560h-275v34h275v-34zM148 45v405q0 18 -6 24t-24 6h-65v10l150 10v-455q0 -17 5.5 -23t24.5 -7l65 -5v-10h-245v10l65 5q19 1 24.5 7t5.5 23z" glyph-name="imacron" horiz-adv-x="328" unicode="ī"/><glyph d="M153 45v610q0 17 -5.5 23t-24.5 7l-70 5v10h256v-10l-70 -5q-19 -1 -24.5 -7t-5.5 -23v-610q0 -17 5.5 -23t24.5 -7l70 -5v-10h-119q-61 -44 -61 -99q0 -32 21 -50.5t58 -18.5q36 0 66 18l4 -4q-37 -39 -96 -39q-44 0 -71 22t-27 57q0 63 89 114h-120v10l70 5 q19 1 24.5 7t5.5 23z" glyph-name="Iogonek" horiz-adv-x="362" unicode="Į"/><glyph d="M127 657q0 43 43 43t43 -43t-43 -43t-43 43zM148 45v405q0 18 -6 24t-24 6h-65v10l150 10v-455q0 -17 5.5 -23t24.5 -7l65 -5v-10h-113q-61 -44 -61 -99q0 -32 21 -50.5t58 -18.5q36 0 66 18l4 -4q-37 -39 -96 -39q-44 0 -71 22t-27 57q0 63 89 114h-115v10l65 5 q19 1 24.5 7t5.5 23z" glyph-name="iogonek" horiz-adv-x="328" unicode="į"/><glyph d="M138 823q0 43 43 43t43 -43t-43 -43t-43 43zM153 45v610q0 17 -5.5 23t-24.5 7l-70 5v10h256v-10l-70 -5q-19 -1 -24.5 -7t-5.5 -23v-610q0 -17 5.5 -23t24.5 -7l70 -5v-10h-256v10l70 5q19 1 24.5 7t5.5 23z" glyph-name="Idotaccent" horiz-adv-x="362" unicode="İ"/><glyph d="M148 45v405q0 18 -6 24t-24 6h-65v10l150 10v-455q0 -17 5.5 -23t24.5 -7l65 -5v-10h-245v10l65 5q19 1 24.5 7t5.5 23z" glyph-name="dotlessi" horiz-adv-x="328" unicode="ı"/><glyph d="M153 45v610q0 17 -5.5 23t-24.5 7l-70 5v10h256v-10l-70 -5q-19 -1 -24.5 -7t-5.5 -23v-610q0 -17 5.5 -23t24.5 -7l70 -5v-10h-256v10l70 5q19 1 24.5 7t5.5 23zM677 181v474q0 17 -5.5 23t-24.5 7l-70 5v10h256v-10l-70 -5q-19 -1 -24.5 -7t-5.5 -23v-474 q0 -88 -55 -139.5t-148 -51.5q-73 0 -120.5 31t-47.5 79q0 29 17 59t43 47l6 -2q-14 -28 -14 -78q0 -51 35 -85.5t89 -34.5q62 0 100.5 48.5t38.5 126.5z" glyph-name="IJ" horiz-adv-x="858" unicode="Ĳ"/><glyph d="M127 657q0 43 43 43t43 -43t-43 -43t-43 43zM455 657q0 43 43 43t43 -43t-43 -43t-43 43zM148 45v405q0 18 -6 24t-24 6h-65v10l150 10v-455q0 -17 5.5 -23t24.5 -7l65 -5v-10h-245v10l65 5q19 1 24.5 7t5.5 23zM531 500v-545q0 -75 -46 -120t-123 -45q-60 0 -99 26.5 t-39 61.5q0 36 52 67l4 -3q-6 -21 -6 -48q0 -41 24.5 -67.5t65.5 -26.5q50 0 81 42t31 113v495q0 18 -6 24t-24 6h-65v10z" glyph-name="ij" horiz-adv-x="621" unicode="ĳ"/><glyph d="M372 869l119 -90l-4 -9l-133 57q-8 4 -11 6q-3 -2 -11 -6l-133 -57l-4 9l119 90q14 11 29 11t29 -11zM315 181v474q0 17 -5.5 23t-24.5 7l-70 5v10h256v-10l-70 -5q-19 -1 -24.5 -7t-5.5 -23v-474q0 -88 -55 -139.5t-148 -51.5q-73 0 -120.5 31t-47.5 79q0 29 17 59 t43 47l6 -2q-14 -28 -14 -78q0 -51 35 -85.5t89 -34.5q62 0 100.5 48.5t38.5 126.5z" glyph-name="Jcircumflex" horiz-adv-x="496" unicode="Ĵ"/><glyph d="M204 659l119 -90l-4 -9l-133 57q-8 4 -11 6q-3 -2 -11 -6l-133 -57l-4 9l119 90q14 11 29 11t29 -11zM203 500v-545q0 -75 -46 -120t-123 -45q-60 0 -99 26.5t-39 61.5q0 36 52 67l4 -3q-6 -21 -6 -48q0 -41 24.5 -67.5t65.5 -26.5q50 0 81 42t31 113v495q0 18 -6 24 t-24 6h-65v10z" glyph-name="jcircumflex" horiz-adv-x="293" unicode="ĵ"/><glyph d="M153 45v610q0 17 -5.5 23t-24.5 7l-70 5v10h256v-10l-70 -5q-19 -1 -24.5 -7t-5.5 -23v-345l365 362q10 10 3 12q-5 1 -22 2l-70 4v10h212v-10l-70 -5q-14 -1 -20 -4.5t-23 -20.5l-231 -229l262 -388q13 -19 18.5 -23t20.5 -5l70 -5v-10h-256v10l71 5q24 1 27 3.5 t-3 12.5l-246 364l-108 -107v-243q0 -17 5.5 -23t24.5 -7l70 -5v-10h-256v10l70 5q19 1 24.5 7t5.5 23zM331 -298l-2 10q23 16 37.5 44.5t14.5 56.5q0 26 -15 26q-26 0 -38 12t-12 39q0 26 12 38t39 12t38.5 -14.5t11.5 -48.5q0 -54 -23.5 -103t-62.5 -72z" glyph-name="uni0136" horiz-adv-x="724" unicode="Ķ"/><glyph d="M428 447l-132 -129l175 -265q14 -22 23 -29t25 -9l65 -5v-10h-265v10l85 5q22 2 24.5 5t-7.5 19l-161 244l-75 -73v-165q0 -17 5.5 -23t24.5 -7l65 -5v-10h-245v10l65 5q19 1 24.5 7t5.5 23v655q0 18 -6 24t-24 6h-65v10l150 10v-521l243 237q12 12 10.5 15t-19.5 4 l-85 5v10h222v-10l-65 -4q-17 -1 -26.5 -6.5t-36.5 -32.5zM254 -298l-2 10q23 16 37.5 44.5t14.5 56.5q0 26 -15 26q-26 0 -38 12t-12 39q0 26 12 38t39 12t38.5 -14.5t11.5 -48.5q0 -54 -23.5 -103t-62.5 -72z" glyph-name="uni0137" horiz-adv-x="569" unicode="ķ"/><glyph d="M428 447l-132 -129l175 -265q14 -22 23 -29t25 -9l65 -5v-10h-265v10l85 5q22 2 24.5 5t-7.5 19l-161 244l-75 -73v-165q0 -17 5.5 -23t24.5 -7l65 -5v-10h-245v10l65 5q19 1 24.5 7t5.5 23v404q0 18 -6 24t-24 6h-65v10l150 10v-270l243 237q12 12 10.5 15t-19.5 4 l-85 5v10h222v-10l-65 -4q-17 -1 -26.5 -6.5t-36.5 -32.5z" glyph-name="kgreenlandic" horiz-adv-x="569" unicode="ĸ"/><glyph d="M91 779l119 80q36 24 55 5q13 -13 -2 -28q-6 -6 -15 -9l-153 -57zM153 45v610q0 17 -5.5 23t-24.5 7l-70 5v10h256v-10l-70 -5q-19 -1 -24.5 -7t-5.5 -23v-639h268q20 0 29 7t14 23l37 124h10l-10 -170h-504v10l70 5q19 1 24.5 7t5.5 23z" glyph-name="Lacute" horiz-adv-x="577" unicode="Ĺ"/><glyph d="M68 869l119 80q36 24 55 5q13 -13 -2 -28q-6 -6 -15 -9l-153 -57zM130 45v655q0 18 -6 24t-24 6h-65v10l150 10v-705q0 -17 5.5 -23t24.5 -7l65 -5v-10h-245v10l65 5q19 1 24.5 7t5.5 23z" glyph-name="lacute" horiz-adv-x="310" unicode="ĺ"/><glyph d="M153 45v610q0 17 -5.5 23t-24.5 7l-70 5v10h256v-10l-70 -5q-19 -1 -24.5 -7t-5.5 -23v-639h268q20 0 29 7t14 23l37 124h10l-10 -170h-504v10l70 5q19 1 24.5 7t5.5 23zM258 -298l-2 10q23 16 37.5 44.5t14.5 56.5q0 26 -15 26q-26 0 -38 12t-12 39q0 26 12 38t39 12 t38.5 -14.5t11.5 -48.5q0 -54 -23.5 -103t-62.5 -72z" glyph-name="uni013B" horiz-adv-x="577" unicode="Ļ"/><glyph d="M130 45v655q0 18 -6 24t-24 6h-65v10l150 10v-705q0 -17 5.5 -23t24.5 -7l65 -5v-10h-245v10l65 5q19 1 24.5 7t5.5 23zM124 -298l-2 10q23 16 37.5 44.5t14.5 56.5q0 26 -15 26q-26 0 -38 12t-12 39q0 26 12 38t39 12t38.5 -14.5t11.5 -48.5q0 -54 -23.5 -103t-62.5 -72 z" glyph-name="uni013C" horiz-adv-x="310" unicode="ļ"/><glyph d="M153 45v610q0 17 -5.5 23t-24.5 7l-70 5v10h256v-10l-70 -5q-19 -1 -24.5 -7t-5.5 -23v-639h268q20 0 29 7t14 23l37 124h10l-10 -170h-504v10l70 5q19 1 24.5 7t5.5 23zM382 462l-2 10q23 16 37.5 44.5t14.5 56.5q0 26 -15 26q-26 0 -38 12t-12 39q0 26 12 38t39 12 t38.5 -14.5t11.5 -48.5q0 -54 -23.5 -103t-62.5 -72z" glyph-name="Lcaron" horiz-adv-x="577" unicode="Ľ"/><glyph d="M130 45v655q0 18 -6 24t-24 6h-65v10l150 10v-705q0 -17 5.5 -23t24.5 -7l65 -5v-10h-245v10l65 5q19 1 24.5 7t5.5 23zM330 512l-2 10q23 16 37.5 44.5t14.5 56.5q0 26 -15 26q-26 0 -38 12t-12 39q0 26 12 38t39 12t38.5 -14.5t11.5 -48.5q0 -54 -23.5 -103t-62.5 -72z " glyph-name="lcaron" horiz-adv-x="536" unicode="ľ"/><glyph d="M153 45v610q0 17 -5.5 23t-24.5 7l-70 5v10h256v-10l-70 -5q-19 -1 -24.5 -7t-5.5 -23v-639h268q20 0 29 7t14 23l37 124h10l-10 -170h-504v10l70 5q19 1 24.5 7t5.5 23zM444 443q0 27 12 38.5t39 11.5q26 0 38 -11.5t12 -38.5t-11.5 -39t-38.5 -12t-39 11.5t-12 39.5z " glyph-name="Ldot" horiz-adv-x="577" unicode="Ŀ"/><glyph d="M130 45v655q0 18 -6 24t-24 6h-65v10l150 10v-705q0 -17 5.5 -23t24.5 -7l65 -5v-10h-245v10l65 5q19 1 24.5 7t5.5 23zM318 351q0 27 12 38.5t39 11.5q26 0 38 -11.5t12 -38.5t-11.5 -39t-38.5 -12t-39 11.5t-12 39.5z" glyph-name="ldot" horiz-adv-x="426" unicode="ŀ"/><glyph d="M153 372v283q0 17 -5.5 23t-24.5 7l-70 5v10h256v-10l-70 -5q-19 -1 -24.5 -7t-5.5 -23v-216l73 88l16 -14l-89 -106v-391h268q20 0 29 7t14 23l37 124h10l-10 -170h-504v10l70 5q19 1 24.5 7t5.5 23v295l-84 -101l-16 13z" glyph-name="Lslash" horiz-adv-x="577" unicode="Ł"/><glyph d="M130 45v289l-79 -95l-16 13l95 114v334q0 18 -6 24t-24 6h-65v10l150 10v-318l79 95l16 -14l-95 -114v-354q0 -17 5.5 -23t24.5 -7l65 -5v-10h-245v10l65 5q19 1 24.5 7t5.5 23z" glyph-name="lslash" horiz-adv-x="310" unicode="ł"/><glyph d="M285 779l119 80q36 24 55 5q13 -13 -2 -28q-6 -6 -15 -9l-153 -57zM580 98v557q0 17 -5.5 23t-24.5 7l-70 5v10h216v-10l-70 -5q-19 -1 -24.5 -7t-5.5 -23v-655h-16l-411 658v-613q0 -17 5.5 -23t24.5 -7l70 -5v-10h-216v10l70 5q19 1 24.5 7t5.5 23v610q0 17 -5.5 23 t-24.5 7l-65 5v10h146z" glyph-name="Nacute" horiz-adv-x="736" unicode="Ń"/><glyph d="M275 579l119 80q36 24 55 5q13 -13 -2 -28q-6 -6 -15 -9l-153 -57zM203 306v-261q0 -17 5.5 -23t24.5 -7l65 -5v-10h-245v10l65 5q19 1 24.5 7t5.5 23v405q0 18 -6 24t-24 6h-65v10l150 10v-128q19 64 67.5 101t115.5 37q82 0 129 -54.5t47 -149.5v-261q0 -17 5.5 -23 t24.5 -7l65 -5v-10h-245v10l65 5q19 1 24.5 7t5.5 23v261q0 83 -39 131t-107 48q-69 0 -113 -49.5t-45 -129.5z" glyph-name="nacute" horiz-adv-x="684" unicode="ń"/><glyph d="M580 98v557q0 17 -5.5 23t-24.5 7l-70 5v10h216v-10l-70 -5q-19 -1 -24.5 -7t-5.5 -23v-655h-16l-411 658v-613q0 -17 5.5 -23t24.5 -7l70 -5v-10h-216v10l70 5q19 1 24.5 7t5.5 23v610q0 17 -5.5 23t-24.5 7l-65 5v10h146zM337 -298l-2 10q23 16 37.5 44.5t14.5 56.5 q0 26 -15 26q-26 0 -38 12t-12 39q0 26 12 38t39 12t38.5 -14.5t11.5 -48.5q0 -54 -23.5 -103t-62.5 -72z" glyph-name="uni0145" horiz-adv-x="736" unicode="Ņ"/><glyph d="M203 306v-261q0 -17 5.5 -23t24.5 -7l65 -5v-10h-245v10l65 5q19 1 24.5 7t5.5 23v405q0 18 -6 24t-24 6h-65v10l150 10v-128q19 64 67.5 101t115.5 37q82 0 129 -54.5t47 -149.5v-261q0 -17 5.5 -23t24.5 -7l65 -5v-10h-245v10l65 5q19 1 24.5 7t5.5 23v261 q0 83 -39 131t-107 48q-69 0 -113 -49.5t-45 -129.5zM311 -298l-2 10q23 16 37.5 44.5t14.5 56.5q0 26 -15 26q-26 0 -38 12t-12 39q0 26 12 38t39 12t38.5 -14.5t11.5 -48.5q0 -54 -23.5 -103t-62.5 -72z" glyph-name="uni0146" horiz-adv-x="684" unicode="ņ"/><glyph d="M523 865l-119 -85q-15 -10 -29 -10q-12 0 -29 10l-119 85l4 9l133 -57q8 -4 11 -6q3 2 11 6l133 57zM580 98v557q0 17 -5.5 23t-24.5 7l-70 5v10h216v-10l-70 -5q-19 -1 -24.5 -7t-5.5 -23v-655h-16l-411 658v-613q0 -17 5.5 -23t24.5 -7l70 -5v-10h-216v10l70 5 q19 1 24.5 7t5.5 23v610q0 17 -5.5 23t-24.5 7l-65 5v10h146z" glyph-name="Ncaron" horiz-adv-x="736" unicode="Ň"/><glyph d="M513 665l-119 -85q-15 -10 -29 -10q-12 0 -29 10l-119 85l4 9l133 -57q8 -4 11 -6q3 2 11 6l133 57zM203 306v-261q0 -17 5.5 -23t24.5 -7l65 -5v-10h-245v10l65 5q19 1 24.5 7t5.5 23v405q0 18 -6 24t-24 6h-65v10l150 10v-128q19 64 67.5 101t115.5 37q82 0 129 -54.5 t47 -149.5v-261q0 -17 5.5 -23t24.5 -7l65 -5v-10h-245v10l65 5q19 1 24.5 7t5.5 23v261q0 83 -39 131t-107 48q-69 0 -113 -49.5t-45 -129.5z" glyph-name="ncaron" horiz-adv-x="684" unicode="ň"/><glyph d="M-82 462l-2 10q23 16 37.5 44.5t14.5 56.5q0 26 -15 26q-26 0 -38 12t-12 39q0 26 12 38t39 12t38.5 -14.5t11.5 -48.5q0 -54 -23.5 -103t-62.5 -72zM203 306v-261q0 -17 5.5 -23t24.5 -7l65 -5v-10h-245v10l65 5q19 1 24.5 7t5.5 23v405q0 18 -6 24t-24 6h-65v10l150 10 v-128q19 64 67.5 101t115.5 37q82 0 129 -54.5t47 -149.5v-261q0 -17 5.5 -23t24.5 -7l65 -5v-10h-245v10l65 5q19 1 24.5 7t5.5 23v261q0 83 -39 131t-107 48q-69 0 -113 -49.5t-45 -129.5z" glyph-name="napostrophe" horiz-adv-x="684" unicode="ŉ"/><glyph d="M496 780h-275v34h275v-34zM45 350q0 162 86.5 261t228.5 99q140 0 226 -99t86 -261t-86 -261t-226 -99q-142 0 -228.5 99t-86.5 261zM101 350q0 -155 71 -249.5t188 -94.5q115 0 185.5 95t70.5 249t-70.5 249t-185.5 95q-117 0 -188 -94.5t-71 -249.5z" glyph-name="Omacron" unicode="Ō"/><glyph d="M406 570h-275v34h275v-34zM272 510q103 0 167 -72t64 -188t-64 -188t-167 -72q-107 0 -172 71.5t-65 188.5t65 188.5t172 71.5zM271 5q78 0 127 68t49 177t-49 177t-127 68q-80 0 -130 -68t-50 -177t50 -177t130 -68z" glyph-name="omacron" horiz-adv-x="538" unicode="ō"/><glyph d="M359 780q-56 0 -97.5 29.5t-54.5 78.5l6 6q38 -69 147 -69q108 0 145 69l5 -7q-13 -48 -54.5 -77.5t-96.5 -29.5zM45 350q0 162 86.5 261t228.5 99q140 0 226 -99t86 -261t-86 -261t-226 -99q-142 0 -228.5 99t-86.5 261zM101 350q0 -155 71 -249.5t188 -94.5 q115 0 185.5 95t70.5 249t-70.5 249t-185.5 95q-117 0 -188 -94.5t-71 -249.5z" glyph-name="Obreve" unicode="Ŏ"/><glyph d="M269 570q-56 0 -97.5 29.5t-54.5 78.5l6 6q38 -69 147 -69q108 0 145 69l5 -7q-13 -48 -54.5 -77.5t-96.5 -29.5zM272 510q103 0 167 -72t64 -188t-64 -188t-167 -72q-107 0 -172 71.5t-65 188.5t65 188.5t172 71.5zM271 5q78 0 127 68t49 177t-49 177t-127 68 q-80 0 -130 -68t-50 -177t50 -177t130 -68z" glyph-name="obreve" horiz-adv-x="538" unicode="ŏ"/><glyph d="M199 789l119 80q36 24 55 5q13 -13 -2 -28q-6 -6 -15 -9l-153 -57zM339 789l119 80q36 24 55 5q13 -13 -2 -28q-6 -6 -15 -9l-153 -57zM45 350q0 162 86.5 261t228.5 99q140 0 226 -99t86 -261t-86 -261t-226 -99q-142 0 -228.5 99t-86.5 261zM101 350q0 -155 71 -249.5 t188 -94.5q115 0 185.5 95t70.5 249t-70.5 249t-185.5 95q-117 0 -188 -94.5t-71 -249.5z" glyph-name="Ohungarumlaut" unicode="Ő"/><glyph d="M109 579l119 80q36 24 55 5q13 -13 -2 -28q-6 -6 -15 -9l-153 -57zM249 579l119 80q36 24 55 5q13 -13 -2 -28q-6 -6 -15 -9l-153 -57zM272 510q103 0 167 -72t64 -188t-64 -188t-167 -72q-107 0 -172 71.5t-65 188.5t65 188.5t172 71.5zM271 5q78 0 127 68t49 177 t-49 177t-127 68q-80 0 -130 -68t-50 -177t50 -177t130 -68z" glyph-name="ohungarumlaut" horiz-adv-x="538" unicode="ő"/><glyph d="M337 700h518v-155h-10l-30 109q-5 17 -12.5 23.5t-27.5 6.5h-253q-18 0 -24 -6t-6 -24v-295h163q17 0 22 5.5t8 24.5l10 65h10v-206h-10l-10 65q-3 19 -8 24.5t-22 5.5h-163v-298q0 -17 6 -23t24 -6h263q20 0 29 7t14 23l37 124h10l-10 -170h-528q-130 0 -211 97t-81 253 t81 253t211 97zM337 16h69q18 0 24 6t6 24v608q0 18 -6 24t-24 6h-69q-104 0 -169.5 -93t-65.5 -241t65.5 -241t169.5 -93z" glyph-name="OE" horiz-adv-x="925" unicode="Œ"/><glyph d="M272 510q68 0 121 -33.5t82 -92.5q27 60 78.5 93t118.5 33q92 0 148.5 -59t60.5 -158h-377q0 -5 -0.5 -17t-0.5 -18q0 -108 53 -174t140 -66q91 0 161 80l5 -3q-71 -105 -194 -105q-65 0 -115.5 33.5t-77.5 92.5q-29 -59 -82 -92.5t-121 -33.5q-107 0 -172 71.5 t-65 188.5t65 188.5t172 71.5zM271 5q78 0 127 68t49 177t-49 177t-127 68q-80 0 -130 -68t-50 -177t50 -177t130 -68zM506 303l319 4q-6 86 -48 137t-106 51q-66 0 -110.5 -52.5t-54.5 -139.5z" glyph-name="oe" horiz-adv-x="911" unicode="œ"/><glyph d="M270 779l119 80q36 24 55 5q13 -13 -2 -28q-6 -6 -15 -9l-153 -57zM153 45v610q0 17 -5.5 23t-24.5 7l-70 5v10h330q103 0 164 -48.5t61 -129.5q0 -73 -55.5 -126t-135.5 -56l161 -295q9 -17 17.5 -23t26.5 -7l65 -5v-10h-143l-185 340h-150v-295q0 -17 5.5 -23t24.5 -7 l90 -5v-10h-276v10l70 5q19 1 24.5 7t5.5 23zM209 654v-298h199q58 0 101 49.5t43 116.5q0 74 -46 118t-123 44h-144q-18 0 -24 -6t-6 -24z" glyph-name="Racute" horiz-adv-x="672" unicode="Ŕ"/><glyph d="M195 579l119 80q36 24 55 5q13 -13 -2 -28q-6 -6 -15 -9l-153 -57zM203 286v-241q0 -17 6 -23t24 -7l85 -5v-10h-265v10l65 5q19 1 24.5 7t5.5 23v405q0 18 -6 24t-24 6h-65v10l150 10v-155q20 72 74.5 118.5t119.5 46.5q53 0 86 -30t33 -78q0 -51 -56 -103l-4 4 q8 37 8 65q0 49 -26 78t-69 29q-63 0 -112 -56t-54 -133z" glyph-name="racute" horiz-adv-x="531" unicode="ŕ"/><glyph d="M153 45v610q0 17 -5.5 23t-24.5 7l-70 5v10h330q103 0 164 -48.5t61 -129.5q0 -73 -55.5 -126t-135.5 -56l161 -295q9 -17 17.5 -23t26.5 -7l65 -5v-10h-143l-185 340h-150v-295q0 -17 5.5 -23t24.5 -7l90 -5v-10h-276v10l70 5q19 1 24.5 7t5.5 23zM209 654v-298h199 q58 0 101 49.5t43 116.5q0 74 -46 118t-123 44h-144q-18 0 -24 -6t-6 -24zM329 -298l-2 10q23 16 37.5 44.5t14.5 56.5q0 26 -15 26q-26 0 -38 12t-12 39q0 26 12 38t39 12t38.5 -14.5t11.5 -48.5q0 -54 -23.5 -103t-62.5 -72z" glyph-name="uni0156" horiz-adv-x="672" unicode="Ŗ"/><glyph d="M203 286v-241q0 -17 6 -23t24 -7l85 -5v-10h-265v10l65 5q19 1 24.5 7t5.5 23v405q0 18 -6 24t-24 6h-65v10l150 10v-155q20 72 74.5 118.5t119.5 46.5q53 0 86 -30t33 -78q0 -51 -56 -103l-4 4q8 37 8 65q0 49 -26 78t-69 29q-63 0 -112 -56t-54 -133zM143 -298l-2 10 q23 16 37.5 44.5t14.5 56.5q0 26 -15 26q-26 0 -38 12t-12 39q0 26 12 38t39 12t38.5 -14.5t11.5 -48.5q0 -54 -23.5 -103t-62.5 -72z" glyph-name="uni0157" horiz-adv-x="531" unicode="ŗ"/><glyph d="M508 865l-119 -85q-15 -10 -29 -10q-12 0 -29 10l-119 85l4 9l133 -57q8 -4 11 -6q3 2 11 6l133 57zM153 45v610q0 17 -5.5 23t-24.5 7l-70 5v10h330q103 0 164 -48.5t61 -129.5q0 -73 -55.5 -126t-135.5 -56l161 -295q9 -17 17.5 -23t26.5 -7l65 -5v-10h-143l-185 340 h-150v-295q0 -17 5.5 -23t24.5 -7l90 -5v-10h-276v10l70 5q19 1 24.5 7t5.5 23zM209 654v-298h199q58 0 101 49.5t43 116.5q0 74 -46 118t-123 44h-144q-18 0 -24 -6t-6 -24z" glyph-name="Rcaron" horiz-adv-x="672" unicode="Ř"/><glyph d="M433 665l-119 -85q-15 -10 -29 -10q-12 0 -29 10l-119 85l4 9l133 -57q8 -4 11 -6q3 2 11 6l133 57zM203 286v-241q0 -17 6 -23t24 -7l85 -5v-10h-265v10l65 5q19 1 24.5 7t5.5 23v405q0 18 -6 24t-24 6h-65v10l150 10v-155q20 72 74.5 118.5t119.5 46.5q53 0 86 -30 t33 -78q0 -51 -56 -103l-4 4q8 37 8 65q0 49 -26 78t-69 29q-63 0 -112 -56t-54 -133z" glyph-name="rcaron" horiz-adv-x="531" unicode="ř"/><glyph d="M195 789l119 80q36 24 55 5q13 -13 -2 -28q-6 -6 -15 -9l-153 -57zM287 710q83 0 174 -49l24 -132h-10q-17 79 -67 122.5t-124 43.5q-73 0 -119.5 -40.5t-46.5 -104.5q0 -53 35.5 -87t110.5 -54l58 -15q107 -28 155 -75t48 -125q0 -94 -62.5 -149t-168.5 -55 q-133 0 -226 72l-23 134h10q25 -86 90 -138t147 -52q79 0 128 47t49 122q0 65 -40.5 105t-131.5 63l-59 15q-92 23 -134 64.5t-42 108.5q0 82 61 130.5t164 48.5z" glyph-name="Sacute" horiz-adv-x="570" unicode="Ś"/><glyph d="M143 579l119 80q36 24 55 5q13 -13 -2 -28q-6 -6 -15 -9l-153 -57zM224 510q38 0 82.5 -10.5t68.5 -25.5l19 -91h-10q-51 112 -150 112q-52 0 -85 -28.5t-33 -74.5q0 -38 27 -61t87 -36l44 -10q82 -19 120 -53t38 -89q0 -68 -54 -110.5t-140 -42.5q-91 0 -173 52l-15 109 h10q53 -146 177 -146q61 0 100.5 34t39.5 86q0 44 -31.5 70t-102.5 42l-45 10q-137 30 -137 127q0 60 45.5 98t117.5 38z" glyph-name="sacute" horiz-adv-x="477" unicode="ś"/><glyph d="M314 879l119 -90l-4 -9l-133 57q-8 4 -11 6q-3 -2 -11 -6l-133 -57l-4 9l119 90q14 11 29 11t29 -11zM287 710q83 0 174 -49l24 -132h-10q-17 79 -67 122.5t-124 43.5q-73 0 -119.5 -40.5t-46.5 -104.5q0 -53 35.5 -87t110.5 -54l58 -15q107 -28 155 -75t48 -125 q0 -94 -62.5 -149t-168.5 -55q-133 0 -226 72l-23 134h10q25 -86 90 -138t147 -52q79 0 128 47t49 122q0 65 -40.5 105t-131.5 63l-59 15q-92 23 -134 64.5t-42 108.5q0 82 61 130.5t164 48.5z" glyph-name="Scircumflex" horiz-adv-x="570" unicode="Ŝ"/><glyph d="M262 669l119 -90l-4 -9l-133 57q-8 4 -11 6q-3 -2 -11 -6l-133 -57l-4 9l119 90q14 11 29 11t29 -11zM224 510q38 0 82.5 -10.5t68.5 -25.5l19 -91h-10q-51 112 -150 112q-52 0 -85 -28.5t-33 -74.5q0 -38 27 -61t87 -36l44 -10q82 -19 120 -53t38 -89q0 -68 -54 -110.5 t-140 -42.5q-91 0 -173 52l-15 109h10q53 -146 177 -146q61 0 100.5 34t39.5 86q0 44 -31.5 70t-102.5 42l-45 10q-137 30 -137 127q0 60 45.5 98t117.5 38z" glyph-name="scircumflex" horiz-adv-x="477" unicode="ŝ"/><glyph d="M287 710q83 0 174 -49l24 -132h-10q-17 79 -67 122.5t-124 43.5q-73 0 -119.5 -40.5t-46.5 -104.5q0 -53 35.5 -87t110.5 -54l58 -15q107 -28 155 -75t48 -125q0 -92 -59.5 -147t-162.5 -57l-22 -50q26 5 43 5q38 0 60.5 -16.5t22.5 -44.5q0 -31 -28 -52t-70 -21 q-68 0 -90 48l5 4q18 -27 65 -27q33 0 53 14.5t20 37.5q0 20 -16 31.5t-43 11.5q-22 0 -51 -10l31 69q-129 5 -215 72l-23 134h10q25 -86 90 -138t147 -52q79 0 128 47t49 122q0 65 -40.5 105t-131.5 63l-59 15q-92 23 -134 64.5t-42 108.5q0 82 61 130.5t164 48.5z" glyph-name="Scedilla" horiz-adv-x="570" unicode="Ş"/><glyph d="M224 510q38 0 82.5 -10.5t68.5 -25.5l19 -91h-10q-51 112 -150 112q-52 0 -85 -28.5t-33 -74.5q0 -38 27 -61t87 -36l44 -10q82 -19 120 -53t38 -89q0 -67 -53 -109.5t-139 -43.5l-22 -50q26 5 43 5q38 0 60.5 -16.5t22.5 -44.5q0 -31 -28 -52t-70 -21q-68 0 -90 48l5 4 q18 -27 65 -27q33 0 53 14.5t20 37.5q0 20 -16 31.5t-43 11.5q-22 0 -51 -10l31 69q-83 6 -155 52l-15 109h10q53 -146 177 -146q61 0 100.5 34t39.5 86q0 44 -31.5 70t-102.5 42l-45 10q-137 30 -137 127q0 60 45.5 98t117.5 38z" glyph-name="scedilla" horiz-adv-x="477" unicode="ş"/><glyph d="M433 875l-119 -85q-15 -10 -29 -10q-12 0 -29 10l-119 85l4 9l133 -57q8 -4 11 -6q3 2 11 6l133 57zM287 710q83 0 174 -49l24 -132h-10q-17 79 -67 122.5t-124 43.5q-73 0 -119.5 -40.5t-46.5 -104.5q0 -53 35.5 -87t110.5 -54l58 -15q107 -28 155 -75t48 -125 q0 -94 -62.5 -149t-168.5 -55q-133 0 -226 72l-23 134h10q25 -86 90 -138t147 -52q79 0 128 47t49 122q0 65 -40.5 105t-131.5 63l-59 15q-92 23 -134 64.5t-42 108.5q0 82 61 130.5t164 48.5z" glyph-name="Scaron" horiz-adv-x="570" unicode="Š"/><glyph d="M381 665l-119 -85q-15 -10 -29 -10q-12 0 -29 10l-119 85l4 9l133 -57q8 -4 11 -6q3 2 11 6l133 57zM224 510q38 0 82.5 -10.5t68.5 -25.5l19 -91h-10q-51 112 -150 112q-52 0 -85 -28.5t-33 -74.5q0 -38 27 -61t87 -36l44 -10q82 -19 120 -53t38 -89q0 -68 -54 -110.5 t-140 -42.5q-91 0 -173 52l-15 109h10q53 -146 177 -146q61 0 100.5 34t39.5 86q0 44 -31.5 70t-102.5 42l-45 10q-137 30 -137 127q0 60 45.5 98t117.5 38z" glyph-name="scaron" horiz-adv-x="477" unicode="š"/><glyph d="M273 45v610q0 17 -5.5 23t-24.5 6h-123q-20 0 -29 -7t-14 -23l-37 -124h-10l10 170h522l10 -170h-10l-37 124q-5 16 -14 23t-29 7h-123q-19 0 -24.5 -6t-5.5 -23v-610q0 -17 5.5 -23t24.5 -7l70 -5v-10h-117l-26 -60q26 5 43 5q38 0 60.5 -16.5t22.5 -44.5q0 -31 -28 -52 t-70 -21q-68 0 -90 48l5 4q18 -27 65 -27q33 0 53 14.5t20 37.5q0 20 -16 31.5t-43 11.5q-22 0 -51 -10l35 79h-119v10l70 5q19 1 24.5 7t5.5 23z" glyph-name="uni0162" horiz-adv-x="602" unicode="Ţ"/><glyph d="M352 78l5 -3q-54 -82 -134 -85l-22 -50q26 5 43 5q38 0 60.5 -16.5t22.5 -44.5q0 -31 -28 -52t-70 -21q-68 0 -90 48l5 4q18 -27 65 -27q33 0 53 14.5t20 37.5q0 20 -16 31.5t-43 11.5q-22 0 -51 -10l31 70q-48 4 -75.5 37t-27.5 86v371l-95 5v10h95v100h55v-100h115v-15 h-115v-375q0 -47 22.5 -74.5t60.5 -27.5q31 0 62.5 19t51.5 51z" glyph-name="uni0163" horiz-adv-x="360" unicode="ţ"/><glyph d="M449 865l-119 -85q-15 -10 -29 -10q-12 0 -29 10l-119 85l4 9l133 -57q8 -4 11 -6q3 2 11 6l133 57zM273 45v610q0 17 -5.5 23t-24.5 6h-123q-20 0 -29 -7t-14 -23l-37 -124h-10l10 170h522l10 -170h-10l-37 124q-5 16 -14 23t-29 7h-123q-19 0 -24.5 -6t-5.5 -23v-610 q0 -17 5.5 -23t24.5 -7l70 -5v-10h-256v10l70 5q19 1 24.5 7t5.5 23z" glyph-name="Tcaron" horiz-adv-x="602" unicode="Ť"/><glyph d="M390 512l-2 10q23 16 37.5 44.5t14.5 56.5q0 26 -15 26q-26 0 -38 12t-12 39q0 26 12 38t39 12t38.5 -14.5t11.5 -48.5q0 -54 -23.5 -103t-62.5 -72zM352 78l5 -3q-56 -85 -141 -85q-53 0 -84.5 33.5t-31.5 90.5v371l-95 5v10h95v100h55v-100h115v-15h-115v-375 q0 -47 22.5 -74.5t60.5 -27.5q31 0 62.5 19t51.5 51z" glyph-name="tcaron" horiz-adv-x="586" unicode="ť"/><glyph d="M273 45v305h-109v16h109v289q0 17 -5.5 23t-24.5 6h-123q-20 0 -29 -7t-14 -23l-37 -124h-10l10 170h522l10 -170h-10l-37 124q-5 16 -14 23t-29 7h-123q-19 0 -24.5 -6t-5.5 -23v-289h110v-16h-110v-305q0 -17 5.5 -23t24.5 -7l70 -5v-10h-256v10l70 5q19 1 24.5 7 t5.5 23z" glyph-name="Tbar" horiz-adv-x="602" unicode="Ŧ"/><glyph d="M352 78l5 -3q-56 -85 -141 -85q-53 0 -84.5 33.5t-31.5 90.5v236h-95v16h95v119l-95 5v10h95v100h55v-100h115v-15h-115v-119h115v-16h-115v-240q0 -47 22.5 -74.5t60.5 -27.5q31 0 62.5 19t51.5 51z" glyph-name="tbar" horiz-adv-x="360" unicode="ŧ"/><glyph d="M316 851q21 0 58.5 -15.5t60.5 -15.5q44 0 80 31l4 -4q-66 -77 -126 -77q-22 0 -55.5 17.5t-57.5 17.5q-41 0 -82 -30l-4 4q61 72 122 72zM128 208v447q0 17 -5.5 23t-24.5 7l-70 5v10h256v-10l-70 -5q-19 -1 -24.5 -7t-5.5 -23v-447q0 -82 54.5 -135.5t138.5 -53.5 t138.5 53.5t54.5 135.5v447q0 17 -5.5 23t-24.5 7l-70 5v10h216v-10l-70 -5q-19 -1 -24.5 -7t-5.5 -23v-447q0 -95 -64 -156.5t-164 -61.5t-165 61.5t-65 156.5z" glyph-name="Utilde" horiz-adv-x="711" unicode="Ũ"/><glyph d="M279 641q21 0 58.5 -15.5t60.5 -15.5q44 0 80 31l4 -4q-66 -77 -126 -77q-22 0 -55.5 17.5t-57.5 17.5q-41 0 -82 -30l-4 4q61 72 122 72zM522 500v-450q0 -18 6 -24t24 -6h65v-10l-150 -10v127q-18 -64 -65.5 -100.5t-112.5 -36.5q-79 0 -125 54.5t-46 149.5v256 q0 18 -6 24t-24 6h-65v10l150 10v-306q0 -83 38 -131t103 -48q67 0 109.5 49.5t43.5 129.5v256q0 18 -6 24t-24 6h-65v10z" glyph-name="utilde" horiz-adv-x="647" unicode="ũ"/><glyph d="M494 770h-275v34h275v-34zM128 208v447q0 17 -5.5 23t-24.5 7l-70 5v10h256v-10l-70 -5q-19 -1 -24.5 -7t-5.5 -23v-447q0 -82 54.5 -135.5t138.5 -53.5t138.5 53.5t54.5 135.5v447q0 17 -5.5 23t-24.5 7l-70 5v10h216v-10l-70 -5q-19 -1 -24.5 -7t-5.5 -23v-447 q0 -95 -64 -156.5t-164 -61.5t-165 61.5t-65 156.5z" glyph-name="Umacron" horiz-adv-x="711" unicode="Ū"/><glyph d="M457 560h-275v34h275v-34zM522 500v-450q0 -18 6 -24t24 -6h65v-10l-150 -10v127q-18 -64 -65.5 -100.5t-112.5 -36.5q-79 0 -125 54.5t-46 149.5v256q0 18 -6 24t-24 6h-65v10l150 10v-306q0 -83 38 -131t103 -48q67 0 109.5 49.5t43.5 129.5v256q0 18 -6 24t-24 6h-65 v10z" glyph-name="umacron" horiz-adv-x="647" unicode="ū"/><glyph d="M357 770q-56 0 -97.5 29.5t-54.5 78.5l6 6q38 -69 147 -69q108 0 145 69l5 -7q-13 -48 -54.5 -77.5t-96.5 -29.5zM128 208v447q0 17 -5.5 23t-24.5 7l-70 5v10h256v-10l-70 -5q-19 -1 -24.5 -7t-5.5 -23v-447q0 -82 54.5 -135.5t138.5 -53.5t138.5 53.5t54.5 135.5v447 q0 17 -5.5 23t-24.5 7l-70 5v10h216v-10l-70 -5q-19 -1 -24.5 -7t-5.5 -23v-447q0 -95 -64 -156.5t-164 -61.5t-165 61.5t-65 156.5z" glyph-name="Ubreve" horiz-adv-x="711" unicode="Ŭ"/><glyph d="M320 560q-56 0 -97.5 29.5t-54.5 78.5l6 6q38 -69 147 -69q108 0 145 69l5 -7q-13 -48 -54.5 -77.5t-96.5 -29.5zM522 500v-450q0 -18 6 -24t24 -6h65v-10l-150 -10v127q-18 -64 -65.5 -100.5t-112.5 -36.5q-79 0 -125 54.5t-46 149.5v256q0 18 -6 24t-24 6h-65v10 l150 10v-306q0 -83 38 -131t103 -48q67 0 109.5 49.5t43.5 129.5v256q0 18 -6 24t-24 6h-65v10z" glyph-name="ubreve" horiz-adv-x="647" unicode="ŭ"/><glyph d="M279 848q0 32 22.5 54.5t55.5 22.5q32 0 54.5 -22.5t22.5 -54.5q0 -33 -22.5 -55.5t-54.5 -22.5q-33 0 -55.5 22.5t-22.5 55.5zM307 848q0 -22 15 -37t35 -15t34.5 15t14.5 37q0 21 -14.5 36t-34.5 15t-35 -15t-15 -36zM128 208v447q0 17 -5.5 23t-24.5 7l-70 5v10h256 v-10l-70 -5q-19 -1 -24.5 -7t-5.5 -23v-447q0 -82 54.5 -135.5t138.5 -53.5t138.5 53.5t54.5 135.5v447q0 17 -5.5 23t-24.5 7l-70 5v10h216v-10l-70 -5q-19 -1 -24.5 -7t-5.5 -23v-447q0 -95 -64 -156.5t-164 -61.5t-165 61.5t-65 156.5z" glyph-name="Uring" horiz-adv-x="711" unicode="Ů"/><glyph d="M242 638q0 32 22.5 54.5t55.5 22.5q32 0 54.5 -22.5t22.5 -54.5q0 -33 -22.5 -55.5t-54.5 -22.5q-33 0 -55.5 22.5t-22.5 55.5zM270 638q0 -22 15 -37t35 -15t34.5 15t14.5 37q0 21 -14.5 36t-34.5 15t-35 -15t-15 -36zM522 500v-450q0 -18 6 -24t24 -6h65v-10l-150 -10 v127q-18 -64 -65.5 -100.5t-112.5 -36.5q-79 0 -125 54.5t-46 149.5v256q0 18 -6 24t-24 6h-65v10l150 10v-306q0 -83 38 -131t103 -48q67 0 109.5 49.5t43.5 129.5v256q0 18 -6 24t-24 6h-65v10z" glyph-name="uring" horiz-adv-x="647" unicode="ů"/><glyph d="M197 779l119 80q36 24 55 5q13 -13 -2 -28q-6 -6 -15 -9l-153 -57zM337 779l119 80q36 24 55 5q13 -13 -2 -28q-6 -6 -15 -9l-153 -57zM128 208v447q0 17 -5.5 23t-24.5 7l-70 5v10h256v-10l-70 -5q-19 -1 -24.5 -7t-5.5 -23v-447q0 -82 54.5 -135.5t138.5 -53.5 t138.5 53.5t54.5 135.5v447q0 17 -5.5 23t-24.5 7l-70 5v10h216v-10l-70 -5q-19 -1 -24.5 -7t-5.5 -23v-447q0 -95 -64 -156.5t-164 -61.5t-165 61.5t-65 156.5z" glyph-name="Uhungarumlaut" horiz-adv-x="711" unicode="Ű"/><glyph d="M160 569l119 80q36 24 55 5q13 -13 -2 -28q-6 -6 -15 -9l-153 -57zM300 569l119 80q36 24 55 5q13 -13 -2 -28q-6 -6 -15 -9l-153 -57zM522 500v-450q0 -18 6 -24t24 -6h65v-10l-150 -10v127q-18 -64 -65.5 -100.5t-112.5 -36.5q-79 0 -125 54.5t-46 149.5v256 q0 18 -6 24t-24 6h-65v10l150 10v-306q0 -83 38 -131t103 -48q67 0 109.5 49.5t43.5 129.5v256q0 18 -6 24t-24 6h-65v10z" glyph-name="uhungarumlaut" horiz-adv-x="647" unicode="ű"/><glyph d="M128 208v447q0 17 -5.5 23t-24.5 7l-70 5v10h256v-10l-70 -5q-19 -1 -24.5 -7t-5.5 -23v-447q0 -82 54.5 -135.5t138.5 -53.5t138.5 53.5t54.5 135.5v447q0 17 -5.5 23t-24.5 7l-70 5v10h216v-10l-70 -5q-19 -1 -24.5 -7t-5.5 -23v-447q0 -100 -66.5 -159t-166.5 -59 q-48 -42 -48 -89q0 -32 21 -50.5t58 -18.5q36 0 66 18l4 -4q-37 -39 -96 -39q-44 0 -71 22t-27 57q0 57 74 105q-91 8 -148.5 68t-57.5 149z" glyph-name="Uogonek" horiz-adv-x="711" unicode="Ų"/><glyph d="M522 500v-450q0 -18 6 -24t24 -6h65v-10l-130 -9q-56 -42 -56 -95q0 -32 21 -50.5t58 -18.5q36 0 66 18l4 -4q-37 -39 -96 -39q-44 0 -71 22t-27 57q0 60 81 109v127q-18 -64 -65.5 -100.5t-112.5 -36.5q-79 0 -125 54.5t-46 149.5v256q0 18 -6 24t-24 6h-65v10l150 10 v-306q0 -83 38 -131t103 -48q67 0 109.5 49.5t43.5 129.5v256q0 18 -6 24t-24 6h-65v10z" glyph-name="uogonek" horiz-adv-x="647" unicode="ų"/><glyph d="M476 869l119 -90l-4 -9l-133 57q-8 4 -11 6q-3 -2 -11 -6l-133 -57l-4 9l119 90q14 11 29 11t29 -11zM447 621l-141 -621h-57l-148 650q-5 24 -10 29t-26 6l-70 5v10h277v-10l-90 -5q-20 -2 -25 -7t-1 -22l142 -619l141 619h56l141 -617l141 617q4 17 -1 22t-25 7l-90 5 v10h237v-10l-70 -5q-21 -1 -26 -6t-10 -29l-148 -648l1 -2h-57z" glyph-name="Wcircumflex" horiz-adv-x="893" unicode="Ŵ"/><glyph d="M407 659l119 -90l-4 -9l-133 57q-8 4 -11 6q-3 -2 -11 -6l-133 -57l-4 9l119 90q14 11 29 11t29 -11zM141 455l115 -427l114 427h55l115 -427l114 427q4 19 -0.5 23.5t-27.5 6.5l-85 5v10h224v-10l-65 -5q-16 -1 -21 -6t-10 -24l-122 -455h-55l-114 427l-115 -427h-55 l-122 455q-5 19 -10 24t-21 6l-65 5v10h264v-10l-85 -5q-23 -2 -27.5 -6.5t-0.5 -23.5z" glyph-name="wcircumflex" horiz-adv-x="755" unicode="ŵ"/><glyph d="M346 869l119 -90l-4 -9l-133 57q-8 4 -11 6q-3 -2 -11 -6l-133 -57l-4 9l119 90q14 11 29 11t29 -11zM289 45v246l-202 357q-14 25 -20 30t-22 7l-70 5v10h256v-10l-70 -5q-24 -2 -28 -6.5t6 -21.5l198 -352l198 352q10 17 6 21.5t-28 6.5l-70 5v10h216v-10l-70 -5 q-16 -2 -22 -7t-20 -30l-202 -357v-246q0 -17 5.5 -23t24.5 -7l70 -5v-10h-256v10l70 5q19 1 24.5 7t5.5 23z" glyph-name="Ycircumflex" horiz-adv-x="634" unicode="Ŷ"/><glyph d="M314 659l119 -90l-4 -9l-133 57q-8 4 -11 6q-3 -2 -11 -6l-133 -57l-4 9l119 90q14 11 29 11t29 -11zM135 455l170 -436l169 436q7 19 3 23.5t-27 6.5l-85 5v10h224v-10l-65 -5q-16 -1 -21.5 -6t-13.5 -24l-177 -455q-46 -114 -92.5 -162t-108.5 -48q-44 0 -71 19.5 t-27 51.5q0 43 30 81h6q2 -50 24 -84.5t70 -34.5q38 0 69.5 30.5t63.5 98.5l-196 503q-8 19 -13.5 24t-21.5 6l-65 5v10h264v-10l-85 -5q-23 -2 -27 -6.5t3 -23.5z" glyph-name="ycircumflex" horiz-adv-x="569" unicode="ŷ"/><glyph d="M216 813q0 43 43 43t43 -43t-43 -43t-43 43zM332 813q0 43 43 43t43 -43t-43 -43t-43 43zM289 45v246l-202 357q-14 25 -20 30t-22 7l-70 5v10h256v-10l-70 -5q-24 -2 -28 -6.5t6 -21.5l198 -352l198 352q10 17 6 21.5t-28 6.5l-70 5v10h216v-10l-70 -5q-16 -2 -22 -7 t-20 -30l-202 -357v-246q0 -17 5.5 -23t24.5 -7l70 -5v-10h-256v10l70 5q19 1 24.5 7t5.5 23z" glyph-name="Ydieresis" horiz-adv-x="634" unicode="Ÿ"/><glyph d="M197 779l119 80q36 24 55 5q13 -13 -2 -28q-6 -6 -15 -9l-153 -57zM15 0v14l466 670h-368q-12 0 -18.5 -1t-11 -9t-5.5 -11t-5 -21l-28 -110h-10v168h507v-14l-466 -670h392q36 0 43 30l37 145h10l-10 -191h-533z" glyph-name="Zacute" horiz-adv-x="583" unicode="Ź"/><glyph d="M141 569l119 80q36 24 55 5q13 -13 -2 -28q-6 -6 -15 -9l-153 -57zM25 0v10l340 475h-265q-17 0 -21 -5t-9 -25l-20 -75h-10v120h392v-10l-340 -475h275h7t5.5 1t4.5 1.5t3.5 2.5t2 3l2 4t2 5l1.5 6t2 7l30 95h10v-140h-412z" glyph-name="zacute" horiz-adv-x="467" unicode="ź"/><glyph d="M244 823q0 43 43 43t43 -43t-43 -43t-43 43zM15 0v14l466 670h-368q-12 0 -18.5 -1t-11 -9t-5.5 -11t-5 -21l-28 -110h-10v168h507v-14l-466 -670h392q36 0 43 30l37 145h10l-10 -191h-533z" glyph-name="Zdotaccent" horiz-adv-x="583" unicode="Ż"/><glyph d="M188 613q0 43 43 43t43 -43t-43 -43t-43 43zM25 0v10l340 475h-265q-17 0 -21 -5t-9 -25l-20 -75h-10v120h392v-10l-340 -475h275h7t5.5 1t4.5 1.5t3.5 2.5t2 3l2 4t2 5l1.5 6t2 7l30 95h10v-140h-412z" glyph-name="zdotaccent" horiz-adv-x="467" unicode="ż"/><glyph d="M435 865l-119 -85q-15 -10 -29 -10q-12 0 -29 10l-119 85l4 9l133 -57q8 -4 11 -6q3 2 11 6l133 57zM15 0v14l466 670h-368q-12 0 -18.5 -1t-11 -9t-5.5 -11t-5 -21l-28 -110h-10v168h507v-14l-466 -670h392q36 0 43 30l37 145h10l-10 -191h-533z" glyph-name="Zcaron" horiz-adv-x="583" unicode="Ž"/><glyph d="M379 655l-119 -85q-15 -10 -29 -10q-12 0 -29 10l-119 85l4 9l133 -57q8 -4 11 -6q3 2 11 6l133 57zM25 0v10l340 475h-265q-17 0 -21 -5t-9 -25l-20 -75h-10v120h392v-10l-340 -475h275h7t5.5 1t4.5 1.5t3.5 2.5t2 3l2 4t2 5l1.5 6t2 7l30 95h10v-140h-412z" glyph-name="zcaron" horiz-adv-x="467" unicode="ž"/><glyph d="M145 500v45q0 76 44.5 120.5t119.5 44.5q52 0 87.5 -21t35.5 -53q0 -30 -52 -71l-4 3q4 20 4 44q0 41 -20 64t-55 23q-48 0 -76.5 -42t-28.5 -113v-499q0 -17 5.5 -23t24.5 -7l85 -5v-10h-265v10l65 5q19 1 24.5 7t5.5 23v440l-95 5v10h95z" glyph-name="longs" horiz-adv-x="355" unicode="ſ"/><glyph d="M524 710q52 0 83.5 -21t26.5 -53q-6 -31 -64 -71l-4 3q6 16 12 44q7 41 -9 64t-51 23q-48 0 -83.5 -42t-48.5 -113l-8 -44h115l-3 -15h-114l-94 -530q-14 -75 -68 -120t-130 -45q-60 0 -94.5 26.5t-28.5 61.5q7 36 64 67l4 -3q-11 -22 -15 -48q-8 -40 12.5 -67t61.5 -27 q50 0 88 42t51 113l93 530l-94 5l2 10h95l8 45q13 76 65.5 120.5t127.5 44.5z" glyph-name="florin" horiz-adv-x="635" unicode="ƒ"/><glyph d="M287 710q83 0 174 -49l24 -132h-10q-17 79 -67 122.5t-124 43.5q-73 0 -119.5 -40.5t-46.5 -104.5q0 -53 35.5 -87t110.5 -54l58 -15q107 -28 155 -75t48 -125q0 -94 -62.5 -149t-168.5 -55q-133 0 -226 72l-23 134h10q25 -86 90 -138t147 -52q79 0 128 47t49 122 q0 65 -40.5 105t-131.5 63l-59 15q-92 23 -134 64.5t-42 108.5q0 82 61 130.5t164 48.5zM254 -298l-2 10q23 16 37.5 44.5t14.5 56.5q0 26 -15 26q-26 0 -38 12t-12 39q0 26 12 38t39 12t38.5 -14.5t11.5 -48.5q0 -54 -23.5 -103t-62.5 -72z" glyph-name="uni0218" horiz-adv-x="570" unicode="Ș"/><glyph d="M219 510q38 0 82.5 -10.5t68.5 -25.5l19 -91h-10q-51 112 -150 112q-52 0 -85 -28.5t-33 -74.5q0 -38 27 -61t87 -36l44 -10q82 -19 120 -53t38 -89q0 -68 -54 -110.5t-140 -42.5q-91 0 -173 52l-15 109h10q53 -146 177 -146q61 0 100.5 34t39.5 86q0 44 -31.5 70 t-102.5 42l-45 10q-137 30 -137 127q0 60 45.5 98t117.5 38zM209 -298l-2 10q23 16 37.5 44.5t14.5 56.5q0 26 -15 26q-26 0 -38 12t-12 39q0 26 12 38t39 12t38.5 -14.5t11.5 -48.5q0 -54 -23.5 -103t-62.5 -72z" glyph-name="uni0219" horiz-adv-x="479" unicode="ș"/><glyph d="M273 45v610q0 17 -5.5 23t-24.5 6h-123q-20 0 -29 -7t-14 -23l-37 -124h-10l10 170h522l10 -170h-10l-37 124q-5 16 -14 23t-29 7h-123q-19 0 -24.5 -6t-5.5 -23v-610q0 -17 5.5 -23t24.5 -7l70 -5v-10h-256v10l70 5q19 1 24.5 7t5.5 23zM270 -298l-2 10q23 16 37.5 44.5 t14.5 56.5q0 26 -15 26q-26 0 -38 12t-12 39q0 26 12 38t39 12t38.5 -14.5t11.5 -48.5q0 -54 -23.5 -103t-62.5 -72z" glyph-name="uni021A" horiz-adv-x="602" unicode="Ț"/><glyph d="M352 78l5 -3q-56 -85 -141 -85q-53 0 -84.5 33.5t-31.5 90.5v371l-95 5v10h95v100h55v-100h115v-15h-115v-375q0 -47 22.5 -74.5t60.5 -27.5q31 0 62.5 19t51.5 51zM149 -298l-2 10q23 16 37.5 44.5t14.5 56.5q0 26 -15 26q-26 0 -38 12t-12 39q0 26 12 38t39 12 t38.5 -14.5t11.5 -48.5q0 -54 -23.5 -103t-62.5 -72z" glyph-name="uni021B" horiz-adv-x="360" unicode="ț"/><glyph d="M203 500v-545q0 -75 -46 -120t-123 -45q-60 0 -99 26.5t-39 61.5q0 36 52 67l4 -3q-6 -21 -6 -48q0 -41 24.5 -67.5t65.5 -26.5q50 0 81 42t31 113v495q0 18 -6 24t-24 6h-65v10z" glyph-name="uni0237" horiz-adv-x="293" unicode="ȷ"/><glyph d="M257 739l119 -90l-4 -9l-133 57q-8 4 -11 6q-3 -2 -11 -6l-133 -57l-4 9l119 90q14 11 29 11t29 -11z" glyph-name="circumflex" horiz-adv-x="456" unicode="ˆ"/><glyph d="M376 741l-119 -85q-15 -10 -29 -10q-12 0 -29 10l-119 85l4 9l133 -57q8 -4 11 -6q3 2 11 6l133 57z" glyph-name="caron" horiz-adv-x="456" unicode="ˇ"/><glyph d="M232 636q-56 0 -97.5 29.5t-54.5 78.5l6 6q38 -69 147 -69q108 0 145 69l5 -7q-13 -48 -54.5 -77.5t-96.5 -29.5z" glyph-name="breve" horiz-adv-x="463" unicode="˘"/><glyph d="M200 707q0 43 43 43t43 -43t-43 -43t-43 43z" glyph-name="dotaccent" horiz-adv-x="486" unicode="˙"/><glyph d="M145 673q0 32 22.5 54.5t55.5 22.5q32 0 54.5 -22.5t22.5 -54.5q0 -33 -22.5 -55.5t-54.5 -22.5q-33 0 -55.5 22.5t-22.5 55.5zM173 673q0 -22 15 -37t35 -15t34.5 15t14.5 37q0 21 -14.5 36t-34.5 15t-35 -15t-15 -36z" glyph-name="ring" horiz-adv-x="445" unicode="˚"/><glyph d="M195 -114q0 63 89 114h17q-61 -44 -61 -99q0 -32 21 -50.5t58 -18.5q36 0 66 18l4 -4q-37 -39 -96 -39q-44 0 -71 22t-27 57z" glyph-name="ogonek" horiz-adv-x="469" unicode="˛"/><glyph d="M207 700q21 0 58.5 -15.5t60.5 -15.5q44 0 80 31l4 -4q-66 -77 -126 -77q-22 0 -55.5 17.5t-57.5 17.5q-41 0 -82 -30l-4 4q61 72 122 72z" glyph-name="tilde" horiz-adv-x="495" unicode="˜"/><glyph d="M180 672l119 80q36 24 55 5q13 -13 -2 -28q-6 -6 -15 -9l-153 -57zM320 672l119 80q36 24 55 5q13 -13 -2 -28q-6 -6 -15 -9l-153 -57z" glyph-name="hungarumlaut" horiz-adv-x="485" unicode="˝"/><glyph d="M98 -298l-2 10q23 16 37.5 44.5t14.5 56.5q0 26 -15 26q-26 0 -38 12t-12 39q0 26 12 38t39 12t38.5 -14.5t11.5 -48.5q0 -54 -23.5 -103t-62.5 -72z" glyph-name="uni0326" horiz-adv-x="260" unicode="̦"/><glyph d="M331 700l269 -700h-563l269 700h25zM85 35h466l-233 608z" glyph-name="uni0394" horiz-adv-x="637" unicode="Δ"/><glyph d="M559 500v-450q0 -18 6 -24t24 -6h65v-10l-150 -10v127q-18 -64 -65.5 -100.5t-112.5 -36.5q-71 0 -116 45v-187h-55v602q0 18 -6 24t-24 6h-65v10l150 10v-306q0 -83 38 -131t103 -48q67 0 109.5 49.5t43.5 129.5v256q0 18 -6 24t-24 6h-65v10z" glyph-name="uni03BC" horiz-adv-x="714" unicode="μ"/><glyph d="M418 859l119 -80l-4 -9l-153 57q-26 10 -22 29q5 18 29 15q15 -1 31 -12zM447 621l-141 -621h-57l-148 650q-5 24 -10 29t-26 6l-70 5v10h277v-10l-90 -5q-20 -2 -25 -7t-1 -22l142 -619l141 619h56l141 -617l141 617q4 17 -1 22t-25 7l-90 5v10h237v-10l-70 -5 q-21 -1 -26 -6t-10 -29l-148 -648l1 -2h-57z" glyph-name="Wgrave" horiz-adv-x="893" unicode="Ẁ"/><glyph d="M349 649l119 -80l-4 -9l-153 57q-26 10 -22 29q5 18 29 15q15 -1 31 -12zM141 455l115 -427l114 427h55l115 -427l114 427q4 19 -0.5 23.5t-27.5 6.5l-85 5v10h224v-10l-65 -5q-16 -1 -21 -6t-10 -24l-122 -455h-55l-114 427l-115 -427h-55l-122 455q-5 19 -10 24t-21 6 l-65 5v10h264v-10l-85 -5q-23 -2 -27.5 -6.5t-0.5 -23.5z" glyph-name="wgrave" horiz-adv-x="755" unicode="ẁ"/><glyph d="M357 779l119 80q36 24 55 5q13 -13 -2 -28q-6 -6 -15 -9l-153 -57zM447 621l-141 -621h-57l-148 650q-5 24 -10 29t-26 6l-70 5v10h277v-10l-90 -5q-20 -2 -25 -7t-1 -22l142 -619l141 619h56l141 -617l141 617q4 17 -1 22t-25 7l-90 5v10h237v-10l-70 -5q-21 -1 -26 -6 t-10 -29l-148 -648l1 -2h-57z" glyph-name="Wacute" horiz-adv-x="893" unicode="Ẃ"/><glyph d="M288 569l119 80q36 24 55 5q13 -13 -2 -28q-6 -6 -15 -9l-153 -57zM141 455l115 -427l114 427h55l115 -427l114 427q4 19 -0.5 23.5t-27.5 6.5l-85 5v10h224v-10l-65 -5q-16 -1 -21 -6t-10 -24l-122 -455h-55l-114 427l-115 -427h-55l-122 455q-5 19 -10 24t-21 6l-65 5 v10h264v-10l-85 -5q-23 -2 -27.5 -6.5t-0.5 -23.5z" glyph-name="wacute" horiz-adv-x="755" unicode="ẃ"/><glyph d="M346 813q0 43 43 43t43 -43t-43 -43t-43 43zM462 813q0 43 43 43t43 -43t-43 -43t-43 43zM447 621l-141 -621h-57l-148 650q-5 24 -10 29t-26 6l-70 5v10h277v-10l-90 -5q-20 -2 -25 -7t-1 -22l142 -619l141 619h56l141 -617l141 617q4 17 -1 22t-25 7l-90 5v10h237v-10 l-70 -5q-21 -1 -26 -6t-10 -29l-148 -648l1 -2h-57z" glyph-name="Wdieresis" horiz-adv-x="893" unicode="Ẅ"/><glyph d="M277 603q0 43 43 43t43 -43t-43 -43t-43 43zM393 603q0 43 43 43t43 -43t-43 -43t-43 43zM141 455l115 -427l114 427h55l115 -427l114 427q4 19 -0.5 23.5t-27.5 6.5l-85 5v10h224v-10l-65 -5q-16 -1 -21 -6t-10 -24l-122 -455h-55l-114 427l-115 -427h-55l-122 455 q-5 19 -10 24t-21 6l-65 5v10h264v-10l-85 -5q-23 -2 -27.5 -6.5t-0.5 -23.5z" glyph-name="wdieresis" horiz-adv-x="755" unicode="ẅ"/><glyph d="M425 311h-400v35h400v-35z" glyph-name="endash" horiz-adv-x="450" unicode="–"/><glyph d="M610 311h-585v35h585v-35z" glyph-name="emdash" horiz-adv-x="635" unicode="—"/><glyph d="M141 750l2 -10q-23 -16 -37.5 -44.5t-14.5 -56.5q0 -26 15 -26q26 0 38 -12t12 -39q0 -26 -12 -38t-39 -12t-38.5 14.5t-11.5 48.5q0 54 23.5 103t62.5 72z" glyph-name="quoteleft" horiz-adv-x="211" unicode="‘"/><glyph d="M70 512l-2 10q23 16 37.5 44.5t14.5 56.5q0 26 -15 26q-26 0 -38 12t-12 39q0 26 12 38t39 12t38.5 -14.5t11.5 -48.5q0 -54 -23.5 -103t-62.5 -72z" glyph-name="quoteright" horiz-adv-x="211" unicode="’"/><glyph d="M70 -137l-2 10q23 16 37.5 44.5t14.5 56.5q0 26 -15 26q-26 0 -38 12t-12 39q0 26 12 38t39 12t38.5 -14.5t11.5 -48.5q0 -54 -23.5 -103t-62.5 -72z" glyph-name="quotesinglbase" horiz-adv-x="211" unicode="‚"/><glyph d="M141 750l2 -10q-23 -16 -37.5 -44.5t-14.5 -56.5q0 -26 15 -26q26 0 38 -12t12 -39q0 -26 -12 -38t-39 -12t-38.5 14.5t-11.5 48.5q0 54 23.5 103t62.5 72zM272 750l2 -10q-23 -16 -37.5 -44.5t-14.5 -56.5q0 -26 15 -26q26 0 38 -12t12 -39q0 -26 -12 -38t-39 -12 t-38.5 14.5t-11.5 48.5q0 54 23.5 103t62.5 72z" glyph-name="quotedblleft" horiz-adv-x="342" unicode="“"/><glyph d="M201 512l-2 10q23 16 37.5 44.5t14.5 56.5q0 26 -15 26q-26 0 -38 12t-12 39q0 26 12 38t39 12t38.5 -14.5t11.5 -48.5q0 -54 -23.5 -103t-62.5 -72zM70 512l-2 10q23 16 37.5 44.5t14.5 56.5q0 26 -15 26q-26 0 -38 12t-12 39q0 26 12 38t39 12t38.5 -14.5t11.5 -48.5 q0 -54 -23.5 -103t-62.5 -72z" glyph-name="quotedblright" horiz-adv-x="342" unicode="”"/><glyph d="M70 -137l-2 10q23 16 37.5 44.5t14.5 56.5q0 26 -15 26q-26 0 -38 12t-12 39q0 26 12 38t39 12t38.5 -14.5t11.5 -48.5q0 -54 -23.5 -103t-62.5 -72zM201 -137l-2 10q23 16 37.5 44.5t14.5 56.5q0 26 -15 26q-26 0 -38 12t-12 39q0 26 12 38t39 12t38.5 -14.5t11.5 -48.5 q0 -54 -23.5 -103t-62.5 -72z" glyph-name="quotedblbase" horiz-adv-x="342" unicode="„"/><glyph d="M337 516l-10 212q-1 14 6 22t17 8t17 -8t6 -22l-10 -212h-26zM575 480l-212 10l10 -609q1 -14 -6 -22t-17 -8q-23 0 -23 30l10 609l-212 -10q-19 -1 -27 11t0 24t27 11l212 -10h26l212 10q19 1 27 -11t0 -24t-27 -11z" glyph-name="dagger" horiz-adv-x="700" unicode="†"/><glyph d="M337 516l-10 212q-1 14 6 22t17 8t17 -8t6 -22l-10 -212h-26zM327 305q0 45 9 185l-211 -10q-19 -1 -27 11t0 24t27 11l212 -10h26l212 10q19 1 27 -11t0 -24t-27 -11l-211 10q9 -139 9 -186q0 -46 -9 -185l211 10q19 1 27 -11t0 -24t-27 -11l-212 10h-26l-212 -10 q-19 -1 -27 11t0 24t27 11l211 -10q-9 140 -9 186zM327 -119l10 212h26l10 -212q1 -14 -6 -22t-17 -8t-17 8t-6 22z" glyph-name="daggerdbl" horiz-adv-x="700" unicode="‡"/><glyph d="M190 353q0 62 44 106t106 44t106 -44t44 -106t-44 -106t-106 -44t-106 44t-44 106z" glyph-name="bullet" horiz-adv-x="680" unicode="•"/><glyph d="M55 51q0 27 12 38.5t39 11.5q26 0 38 -11.5t12 -38.5t-12 -39t-38 -12q-27 0 -39 11.5t-12 39.5zM266 51q0 27 12 38.5t39 11.5q26 0 38 -11.5t12 -38.5t-11.5 -39t-38.5 -12t-39 11.5t-12 39.5zM477 51q0 27 12 38.5t39 11.5q26 0 38 -11.5t12 -38.5t-12 -39t-38 -12 q-27 0 -39 11.5t-12 39.5z" glyph-name="ellipsis" horiz-adv-x="633" unicode="…"/><glyph d="M30 506q0 93 43 148.5t114 55.5q70 0 113 -54q59 -64 124 -64q40 0 83 29.5t75 78.5h43l-418 -700h-43l371 622q-57 -44 -113 -44q-50 0 -96 33q18 -45 18 -105q0 -93 -43 -148.5t-114 -55.5t-114 55.5t-43 148.5zM70 507q0 -89 29 -140.5t83 -51.5q56 0 89 52t33 140 q0 87 -33 138.5t-89 51.5q-54 0 -83 -51t-29 -139zM445 191q0 93 43 148.5t114 55.5t114 -55.5t43 -148.5t-43 -148.5t-114 -55.5t-114 55.5t-43 148.5zM809 191q0 93 43 148.5t114 55.5t114 -55.5t43 -148.5t-43 -148.5t-114 -55.5t-114 55.5t-43 148.5zM485 192 q0 -87 32 -139.5t85 -52.5t85 52t32 140q0 87 -32 138.5t-85 51.5t-85 -52t-32 -138zM849 192q0 -87 32 -139.5t85 -52.5t85 52t32 140q0 87 -32 138.5t-85 51.5t-85 -52t-32 -138z" glyph-name="perthousand" horiz-adv-x="1153" unicode="‰"/><glyph d="M40 259l111 186h30l-108 -186l108 -186h-30z" glyph-name="guilsinglleft" horiz-adv-x="241" unicode="‹"/><glyph d="M60 445h30l111 -186l-111 -186h-30l108 186z" glyph-name="guilsinglright" horiz-adv-x="241" unicode="›"/><glyph d="M-140 0l418 700h33l-418 -700h-33z" glyph-name="fraction" horiz-adv-x="171" unicode="⁄"/><glyph d="M110 359q0 -18 2 -50h190v-20h-188q14 -122 74.5 -194t151.5 -72q75 0 127.5 51t74.5 147h10q-25 -113 -84.5 -172t-147.5 -59q-106 0 -177 81.5t-85 217.5h-53v20h51q-1 13 -1 41q0 19 2 53h-52v20h54q17 131 86 209t173 78q100 0 168 -73q12 -13 17 -13t7 21l4 55h10 v-201h-10l-6 60q-1 22 -21 52q-25 39 -66.5 61t-88.5 22q-88 0 -147 -73.5t-72 -197.5h189v-20h-190q-2 -28 -2 -44z" glyph-name="Euro" horiz-adv-x="587" unicode="€"/><glyph d="M153 343v332q0 10 -3 13t-13 3h-67q-18 0 -24 -16l-20 -68h-5l5 93h285l5 -93h-5l-20 68q-6 16 -24 16h-67q-10 0 -13 -3t-3 -13v-332q0 -10 3 -13t13 -4l38 -2v-6h-139v6l38 2q10 1 13 4t3 13zM391 343l14 332q0 10 -3 13t-14 4l-35 3v5h82l123 -368l124 368h82v-5 l-36 -3q-10 -1 -13 -4t-3 -13l14 -332q1 -10 4 -13t13 -4l38 -2v-6h-140v6l38 2q11 1 14 4t3 13l-14 328l-119 -353h-31l-119 353l-14 -328q0 -10 3.5 -13t13.5 -4l38 -2v-6h-118v6l38 2q10 1 13 4t4 13z" glyph-name="trademark" horiz-adv-x="802" unicode="™"/><glyph d="M40 227v51h400v-51h-400z" glyph-name="minus" horiz-adv-x="480" unicode="−"/><glyph d="M295 710q85 0 140 -31.5t55 -80.5q0 -52 -54 -101l-4 3q7 21 7 63q0 61 -40.5 96t-110.5 35q-76 0 -123 -40t-47 -104q0 -103 147 -140l59 -15q110 -28 156.5 -73t46.5 -123q0 -95 -66 -152t-176 -57q-99 0 -167 43.5t-68 106.5q0 32 17 61t39 46l4 -3q-6 -54 -6 -61 q0 -77 52.5 -127t134.5 -50q79 0 128.5 47t49.5 122q0 65 -40 103.5t-132 62.5l-57 15q-92 24 -134 65t-42 106q0 83 62.5 133t168.5 50z" glyph-name="S.ss01" horiz-adv-x="572"/><glyph d="M280 510q83 0 129.5 -43.5t46.5 -121.5v-295q0 -18 6 -24t24 -6h65v-10l-150 -10v127q-19 -59 -74 -98t-120 -39q-63 0 -105 36t-42 89q0 82 104 136q-68 50 -68 118q0 62 51.5 101.5t132.5 39.5zM401 331v24q0 68 -32.5 106.5t-89.5 38.5q-59 0 -95 -40.5t-36 -106.5 q0 -46 22 -99q77 38 231 77zM401 321q-135 -37 -202 -75q-83 -48 -83 -124q0 -47 33 -77t85 -30q71 0 119 54.5t48 134.5v117z" glyph-name="a.aalt" horiz-adv-x="578"/><glyph d="M258 510q73 0 123 -26t50 -63q0 -35 -49 -79l-4 3q4 27 4 45q0 48 -35 76.5t-94 28.5q-60 0 -99.5 -29t-39.5 -74q0 -36 29 -57.5t97 -36.5l49 -11q173 -39 173 -143q0 -70 -59 -112t-157 -42q-85 0 -140.5 31t-55.5 78q0 24 15 49t40 42l4 -3q-4 -41 -4 -55 q0 -57 40.5 -92t107.5 -35t110.5 34.5t43.5 87.5q0 42 -33.5 67t-112.5 42l-51 11q-149 32 -149 126q0 61 55 99t142 38z" glyph-name="s.ss01" horiz-adv-x="507"/><glyph d="M289 510q88 0 138 -52q67 50 67 105q0 26 -17 42t-45 16q-19 0 -32 -7l-2 5q22 51 68 51q29 0 48 -21t19 -54q0 -39 -26.5 -77.5t-71.5 -67.5q37 -43 37 -106q0 -74 -50.5 -120.5t-132.5 -46.5q-95 0 -146 61q-34 -24 -34 -57q0 -37 48 -58.5t132 -21.5q115 0 186.5 -43 t71.5 -113t-71 -112.5t-187 -42.5t-187.5 41t-71.5 108q0 59 55 99t146 50q-84 6 -130.5 29t-46.5 59q0 45 77 78q-25 39 -25 90q0 74 50.5 120t132.5 46zM289 192q57 0 92.5 42t35.5 110q0 67 -35.5 109t-92.5 42t-92.5 -42t-35.5 -109q0 -68 35.5 -110t92.5 -42zM290 -195 q89 0 145.5 39.5t56.5 100.5q0 62 -56.5 101.5t-145.5 39.5q-92 0 -148.5 -39t-56.5 -102q0 -62 57 -101t148 -39z" glyph-name="g.aalt" horiz-adv-x="547"/><glyph d="M280 710q88 0 162 -48q22 -14 27 -14q4 0 7 6l24 50l9 -4l-126 -323q77 -29 112 -72.5t35 -110.5q0 -94 -62.5 -149t-168.5 -55q-133 0 -226 72l-23 134h10q25 -86 90 -138t147 -52q79 0 128 47t49 122q0 54 -26.5 89.5t-84.5 58.5l-32 -81l-10 4l31 81q-23 9 -50 16 l-59 15q-92 23 -134 64.5t-42 108.5q0 81 58.5 130t154.5 49zM296 695q-77 0 -125 -40t-48 -105q0 -53 35.5 -87t110.5 -54l58 -15q16 -4 46 -14l74 194q15 39 13.5 52t-23.5 26q-69 43 -141 43z" glyph-name="S.ss02" horiz-adv-x="580"/><glyph d="M120 662q38 9 45 45q1 -6 5 -16q4 10 5 16q8 -37 45 -45q-6 -1 -16 -5q10 -4 16 -5q-36 -7 -45 -45q-1 6 -5 16q-4 -10 -5 -16q-7 38 -45 45q6 1 16 5q-10 4 -16 5zM148 45v405q0 18 -6 24t-24 6h-65v10l150 10v-455q0 -17 5.5 -23t24.5 -7l65 -5v-10h-245v10l65 5 q19 1 24.5 7t5.5 23z" glyph-name="i.aalt" horiz-adv-x="328"/><glyph d="M153 45v610q0 17 -5.5 23t-24.5 7l-70 5v10h256v-10l-70 -5q-19 -1 -24.5 -7t-5.5 -23v-328l365 345q10 10 3 12q-5 1 -22 2l-70 4v10h212v-10l-70 -5q-13 -1 -18.5 -4t-24.5 -21l-309 -292q37 19 72 19q48 0 90 -39q32 -31 57 -88t39 -102.5t43 -80.5t71 -35q27 0 50 12 t32 31l5 -2q-8 -41 -40 -67t-74 -26q-39 0 -66 24.5t-42 65t-27 84t-30.5 89.5t-42.5 73q-36 41 -82 41q-47 0 -102 -43l-19 -18v-261q0 -17 5.5 -23t24.5 -7l70 -5v-10h-256v10l70 5q19 1 24.5 7t5.5 23z" glyph-name="K.aalt" horiz-adv-x="724"/><glyph d="M153 45v610q0 17 -5.5 23t-24.5 7l-70 5v10h330q103 0 164 -48.5t61 -129.5q0 -76 -58.5 -129t-141.5 -53h-110q54 -12 95 -40t62 -60.5t41 -68t34.5 -64t39 -47t58.5 -18.5q56 0 84 43l5 -2q-8 -41 -40 -67t-75 -26q-47 0 -78.5 35.5t-52 86t-47 101.5t-80.5 88t-135 39 v-295q0 -17 6 -23t24 -7l90 -5v-10h-276v10l70 5q19 1 24.5 7t5.5 23zM209 654v-298h199q58 0 101 49.5t43 116.5q0 74 -46 118t-123 44h-144q-18 0 -24 -6t-6 -24z" glyph-name="R.aalt" horiz-adv-x="672"/><glyph d="M45 350q0 162 86.5 261t228.5 99q140 0 226 -99t86 -261q0 -141 -66.5 -235.5t-178.5 -117.5q79 -8 162.5 -33.5t143 -51.5t141.5 -46.5t162 -20.5q98 0 186.5 26.5t131.5 69.5l6 -4q-54 -65 -150.5 -106t-196.5 -41q-66 0 -132 20.5t-123 50t-116 59t-133.5 50 t-153.5 20.5q-140 2 -225 100.5t-85 259.5zM101 350q0 -155 71 -249.5t188 -94.5q115 0 185.5 95t70.5 249t-70.5 249t-185.5 95q-117 0 -188 -94.5t-71 -249.5z" glyph-name="Q.aalt"/><glyph d="M203 306v-261q0 -17 5.5 -23t24.5 -7l65 -5v-10h-245v10l65 5q19 1 24.5 7t5.5 23v405q0 18 -6 24t-24 6h-65v10l150 10v-126q18 64 63.5 100t108.5 36q66 0 108.5 -40t54.5 -112q15 70 62 111t114 41q78 0 122.5 -56t44.5 -155q0 -116 -59 -235t-153 -193l-8 6 q72 58 118.5 171t46.5 231q0 100 -35.5 153t-100.5 53t-105.5 -49.5t-42.5 -129.5v-261q0 -17 5.5 -23t24.5 -7l65 -5v-10h-245v10l65 5q19 1 24.5 7t5.5 23v261q0 83 -36.5 131t-99.5 48q-65 0 -105.5 -49.5t-42.5 -129.5z" glyph-name="m.aalt" horiz-adv-x="936"/><glyph d="M562 28l114 427q5 19 0.5 23.5t-28.5 6.5l-85 5v10h224v-10l-65 -5q-16 -1 -21 -6t-10 -24l-122 -455h-55l-115 427l-56 -210q-34 -126 -64.5 -176.5t-74.5 -50.5q-61 0 -105 75t-44 179q0 131 73 216.5t185 85.5l25 -46q-117 0 -192.5 -72.5t-75.5 -185.5 q0 -83 39.5 -140t96.5 -57q42 0 69.5 38.5t52.5 132.5l64 239h55z" glyph-name="w.aalt" horiz-adv-x="777"/><glyph d="M203 325v-280q0 -17 5.5 -23t24.5 -7l65 -5v-10h-245v10l65 5q19 1 24.5 7t5.5 23v405q0 18 -6 24t-24 6h-65v10l150 10v-124q19 62 67 98t114 36q83 0 130 -56t47 -154q0 -117 -64.5 -236t-167.5 -193l-8 6q81 58 133 171.5t52 232.5q0 98 -38 151t-108 53 q-65 0 -107.5 -44t-49.5 -116z" glyph-name="n.aalt" horiz-adv-x="616"/><glyph d="M120 662q38 9 45 45q1 -6 5 -16q4 10 5 16q8 -37 45 -45q-6 -1 -16 -5q10 -4 16 -5q-36 -7 -45 -45q-1 6 -5 16q-4 -10 -5 -16q-7 38 -45 45q6 1 16 5q-10 4 -16 5zM203 500v-545q0 -75 -46 -120t-123 -45q-60 0 -99 26.5t-39 61.5q0 36 52 67l4 -3q-6 -21 -6 -48 q0 -41 24.5 -67.5t65.5 -26.5q50 0 81 42t31 113v495q0 18 -6 24t-24 6h-65v10z" glyph-name="j.aalt" horiz-adv-x="293"/><glyph d="M185 306v-261q0 -17 5.5 -23t24.5 -7l65 -5v-10h-245v10l65 5q19 1 24.5 7t5.5 23v655q0 18 -6 24t-24 6h-65v10l150 10v-377q19 64 67 100.5t115 36.5q83 0 130 -56t47 -154q0 -117 -64.5 -236t-167.5 -193l-8 6q81 58 133 171.5t52 232.5q0 98 -38 151t-108 53 t-113 -49.5t-45 -129.5z" glyph-name="h.aalt" horiz-adv-x="599"/><glyph d="M459 500v-450q0 -18 6 -24t24 -6h65v-10l-150 -10v126q-18 -63 -65 -99.5t-112 -36.5q-80 0 -126 56t-46 155q0 116 61.5 235t160.5 193l8 -6q-77 -58 -126 -171.5t-49 -232.5q0 -98 36.5 -151t104.5 -53q67 0 109 49.5t44 129.5v256q0 18 -6 24t-24 6h-65v10z" glyph-name="u.aalt" horiz-adv-x="584"/><glyph d="M299 290q38 9 45 45q1 -6 5 -16q4 10 5 16q8 -37 45 -45q-6 -1 -16 -5q10 -4 16 -5q-36 -7 -45 -45q-1 6 -5 16q-4 -10 -5 -16q-7 38 -45 45q6 1 16 5q-10 4 -16 5zM339 674l-223 -630q-7 -20 -3.5 -24t29.5 -6l70 -4v-10h-217v10l70 5q17 1 22 6t14 29l224 633 q-6 2 -13 2l-65 5v10h141l230 -650q8 -24 13 -29t23 -6l70 -5v-10h-257v10l70 5q26 2 29.5 5.5t-3.5 23.5l-217 614q-7 15 -7 16z" glyph-name="A.aalt" horiz-adv-x="719"/><glyph d="M153 45v610q0 17 -5.5 23t-24.5 7l-70 5v10h519v-155h-10l-30 109q-5 17 -12.5 23.5t-27.5 6.5h-253q-18 0 -24 -6t-6 -24v-638h293q20 0 29 7t14 23l37 124h10l-10 -170h-529v10l70 5q19 1 24.5 7t5.5 23zM302 359q38 9 45 45q1 -6 5 -16q4 10 5 16q8 -37 45 -45 q-6 -1 -16 -5q10 -4 16 -5q-36 -7 -45 -45q-1 6 -5 16q-4 -10 -5 -16q-7 38 -45 45q6 1 16 5q-10 4 -16 5z" glyph-name="E.aalt" horiz-adv-x="642"/><glyph d="M153 45v610q0 17 -5.5 23t-24.5 7l-70 5v10h256v-10l-70 -5q-19 -1 -24.5 -7t-5.5 -23v-610q0 -17 5.5 -23t24.5 -7l70 -5v-10h-256v10l70 5q19 1 24.5 7t5.5 23zM554 45v610q0 17 -5.5 23t-24.5 7l-70 5v10h256v-10l-70 -5q-19 -1 -24.5 -7t-5.5 -23v-610q0 -17 5.5 -23 t24.5 -7l70 -5v-10h-256v10l70 5q19 1 24.5 7t5.5 23zM332 359q38 9 45 45q1 -6 5 -16q4 10 5 16q8 -37 45 -45q-6 -1 -16 -5q10 -4 16 -5q-36 -7 -45 -45q-1 6 -5 16q-4 -10 -5 -16q-7 38 -45 45q6 1 16 5q-10 4 -16 5z" glyph-name="H.aalt" horiz-adv-x="763"/><glyph d="M45 350q0 162 86.5 261t228.5 99q140 0 226 -99t86 -261t-86 -261t-226 -99q-142 0 -228.5 99t-86.5 261zM101 350q0 -155 71 -249.5t188 -94.5q115 0 185.5 95t70.5 249t-70.5 249t-185.5 95q-117 0 -188 -94.5t-71 -249.5zM309 355q38 9 45 45q1 -6 5 -16q4 10 5 16 q8 -37 45 -45q-6 -1 -16 -5q10 -4 16 -5q-36 -7 -45 -45q-1 6 -5 16q-4 -10 -5 -16q-7 38 -45 45q6 1 16 5q-10 4 -16 5z" glyph-name="O.aalt"/><glyph d="M153 45v610q0 17 -5.5 23t-24.5 7l-70 5v10h256v-10l-70 -5q-19 -1 -24.5 -7t-5.5 -23v-328l365 345q10 10 3 12q-5 1 -22 2l-70 4v10h212v-10l-70 -5q-13 -1 -18.5 -4t-24.5 -21l-317 -299q55 29 107 29q60 0 123 -37q48 -28 87.5 -72t66 -83.5t59.5 -76t84.5 -58 t123.5 -21.5q122 0 173 43l5 -2q-66 -93 -213 -93q-69 0 -122.5 24.5t-89.5 65.5t-66 84t-68.5 91t-79.5 77q-57 39 -111 39q-59 0 -116 -45l-21 -20v-261q0 -17 5.5 -23t24.5 -7l70 -5v-10h-256v10l70 5q19 1 24.5 7t5.5 23zM867 205v450q0 17 -5.5 23t-24.5 7l-70 5v10 h439v-155h-10l-30 109q-5 17 -12.5 23.5t-27.5 6.5h-173q-18 0 -24 -6t-6 -24v-215h83q17 0 22 5.5t8 24.5l10 65h10v-206h-10l-10 65q-3 19 -8 24.5t-22 5.5h-83v-218q0 -17 6 -23t24 -6h183q20 0 29 7t14 23l37 124h10l-10 -170h-449v10l70 5q19 1 24.5 7t5.5 23z" glyph-name="K_E.dlig" horiz-adv-x="1261"/><glyph d="M729 430q0 126 72.5 203t192.5 77q118 0 190 -77t72 -203t-72 -203t-190 -77q-120 0 -192.5 77t-72.5 203zM153 45v610q0 17 -5.5 23t-24.5 7l-70 5v10h256v-10l-70 -5q-19 -1 -24.5 -7t-5.5 -23v-328l365 345q10 10 3 12q-5 1 -22 2l-70 4v10h212v-10l-70 -5 q-13 -1 -18.5 -4t-24.5 -21l-317 -299q55 29 107 29q60 0 123 -37q48 -28 87.5 -72t66 -83.5t59.5 -76t84.5 -58t123.5 -21.5q122 0 173 43l5 -2q-66 -93 -213 -93q-69 0 -122.5 24.5t-89.5 65.5t-66 84t-68.5 91t-79.5 77q-57 39 -111 39q-59 0 -116 -45l-21 -20v-261 q0 -17 5.5 -23t24.5 -7l70 -5v-10h-256v10l70 5q19 1 24.5 7t5.5 23zM785 430q0 -119 57.5 -191.5t151.5 -72.5q92 0 149 73t57 191t-57 191t-149 73q-94 0 -151.5 -72.5t-57.5 -191.5z" glyph-name="K_O.dlig" horiz-adv-x="1291"/><glyph d="M153 45v610q0 17 -5.5 23t-24.5 7l-70 5v10h256v-10l-70 -5q-19 -1 -24.5 -7t-5.5 -23v-328l365 345q10 10 3 12q-5 1 -22 2l-70 4v10h212v-10l-70 -5q-13 -1 -18.5 -4t-24.5 -21l-316 -299q53 29 106 29q59 0 122 -37q48 -28 87.5 -72t66.5 -83t60 -75.5t85 -58.5 t124 -22q121 0 172 43l5 -2q-66 -93 -213 -93q-69 0 -122.5 24.5t-89.5 65.5t-66 84t-68.5 91t-79.5 77q-57 39 -111 39q-59 0 -116 -45l-21 -20v-261q0 -17 5.5 -23t24.5 -7l70 -5v-10h-256v10l70 5q19 1 24.5 7t5.5 23zM852 348v307q0 17 -5.5 23t-24.5 7l-70 5v10h256 v-10l-70 -5q-19 -1 -24.5 -7t-5.5 -23v-307q0 -78 41 -123.5t112 -45.5t112 45.5t41 123.5v307q0 17 -5.5 23t-24.5 7l-70 5v10h216v-10l-70 -5q-19 -1 -24.5 -7t-5.5 -23v-307q0 -91 -51 -144.5t-137 -53.5q-87 0 -138.5 53.5t-51.5 144.5z" glyph-name="K_U.dlig" horiz-adv-x="1355"/><glyph d="M153 45v610q0 17 -5.5 23t-24.5 7l-70 5v10h256v-10l-70 -5q-19 -1 -24.5 -7t-5.5 -23v-639h268q20 0 29 7t14 23l37 124h10l-10 -170h-504v10l70 5q19 1 24.5 7t5.5 23zM724 280l-134 378q-7 15 -7 16l-140 -394h281zM437 264l-21 -60q-7 -20 -3.5 -24t29.5 -6l70 -4 v-10h-217v10l70 5q17 1 22 6t14 29l168 473q-6 2 -13 2l-65 5v10h141l230 -650q8 -24 13 -29t23 -6l70 -5v-10h-257v10l70 5q26 2 29.5 5.5t-3.5 23.5l-78 220h-292z" glyph-name="L_A.dlig" horiz-adv-x="963"/><glyph d="M481 205v450q0 17 -5.5 23t-24.5 7l-70 5v10h439v-155h-10l-30 109q-5 17 -12.5 23.5t-27.5 6.5h-173q-18 0 -24 -6t-6 -24v-215h83q17 0 22 5.5t8 24.5l10 65h10v-206h-10l-10 65q-3 19 -8 24.5t-22 5.5h-83v-247h213q20 0 29 7t14 23l37 124h10l-10 -170h-449v10l70 5 q19 1 24.5 7t5.5 23zM153 45v610q0 17 -5.5 23t-24.5 7l-70 5v10h256v-10l-70 -5q-19 -1 -24.5 -7t-5.5 -23v-639h418q34 0 42 21l35 88h10l-7 -125h-654v10l70 5q19 1 24.5 7t5.5 23z" glyph-name="L_E.dlig" horiz-adv-x="875"/><glyph d="M451 430q0 126 72.5 203t192.5 77q118 0 190 -77t72 -203t-72 -203t-190 -77q-120 0 -192.5 77t-72.5 203zM153 45v610q0 17 -5.5 23t-24.5 7l-70 5v10h256v-10l-70 -5q-19 -1 -24.5 -7t-5.5 -23v-639h418q34 0 42 21l35 88h10l-7 -125h-654v10l70 5q19 1 24.5 7t5.5 23z M507 430q0 -119 57.5 -191.5t151.5 -72.5q92 0 149 73t57 191t-57 191t-149 73q-94 0 -151.5 -72.5t-57.5 -191.5z" glyph-name="L_O.dlig" horiz-adv-x="1013"/><glyph d="M524 348v307q0 17 -5.5 23t-24.5 7l-70 5v10h256v-10l-70 -5q-19 -1 -24.5 -7t-5.5 -23v-307q0 -78 41 -123.5t112 -45.5t112 45.5t41 123.5v307q0 17 -5.5 23t-24.5 7l-70 5v10h216v-10l-70 -5q-19 -1 -24.5 -7t-5.5 -23v-307q0 -91 -51 -144.5t-137 -53.5 q-87 0 -138.5 53.5t-51.5 144.5zM153 45v610q0 17 -5.5 23t-24.5 7l-70 5v10h256v-10l-70 -5q-19 -1 -24.5 -7t-5.5 -23v-639h418q34 0 42 21l35 88h10l-7 -125h-654v10l70 5q19 1 24.5 7t5.5 23z" glyph-name="L_U.dlig" horiz-adv-x="1027"/><glyph d="M45 350q0 162 86.5 261t228.5 99q101 0 174 -52q70 52 167 52q122 0 194 -75q10 -12 16 -12t7 22l4 55h10v-200h-10l-6 59q-3 27 -27 57q-30 36 -78 57t-101 21q-87 0 -150 -57q112 -99 112 -287q0 -178 -101 -277q64 -52 154 -52q89 0 151.5 52.5t85.5 147.5h10 q-25 -112 -93.5 -171.5t-171.5 -59.5q-97 0 -172 53q-75 -53 -175 -53q-142 0 -228.5 99t-86.5 261zM101 350q0 -155 71 -249.5t188 -94.5q88 0 151 57q-111 100 -111 287q0 188 110 288q-64 56 -150 56q-117 0 -188 -94.5t-71 -249.5zM456 359q0 -167 88 -261q72 95 72 252 q0 165 -81 262q-79 -93 -79 -253z" glyph-name="O_C.dlig" horiz-adv-x="1002"/><glyph d="M101 350q0 -155 71 -249.5t188 -94.5q84 0 145 52q-105 100 -105 292q0 187 111 287q-63 57 -151 57q-117 0 -188 -94.5t-71 -249.5zM456 356q0 -169 83 -263q77 94 77 257q0 165 -80 261q-80 -96 -80 -255zM45 350q0 162 86.5 261t228.5 99q100 0 176 -53q73 53 171 53 q112 0 184 -72q15 -15 20 -15q8 0 9 22l4 55h10v-201h-10l-5 60q-2 25 -25 55q-29 36 -78 58t-103 22q-86 0 -152 -58q111 -100 111 -286q0 -184 -107 -283q56 -45 127 -45q80 0 135 53.5t63 133.5v69q0 17 -7.5 22.5t-31.5 7.5l-66 5v10h256v-10l-65 -5q-19 -2 -24.5 -7.5 t-5.5 -22.5v-278h-10l-46 163q-18 -79 -77 -126t-141 -47q-81 0 -144 48q-73 -48 -168 -48q-142 0 -228.5 99t-86.5 261z" glyph-name="O_G.dlig" horiz-adv-x="1026"/><glyph d="M45 350q0 162 86.5 261t228.5 99q102 0 176 -54q76 54 179 54q140 0 226 -99t86 -261t-86 -261t-226 -99q-103 0 -179 54q-74 -54 -176 -54q-142 0 -228.5 99t-86.5 261zM101 350q0 -155 71 -249.5t188 -94.5q87 0 152 57q-112 99 -112 287t112 287q-65 57 -152 57 q-117 0 -188 -94.5t-71 -249.5zM561 64q66 -58 154 -58q115 0 185.5 95t70.5 249t-70.5 249t-185.5 95q-88 0 -154 -58q111 -98 111 -286t-111 -286zM456 350q0 -165 80 -261q80 96 80 261t-80 261q-80 -96 -80 -261z" glyph-name="O_O.dlig" horiz-adv-x="1072"/><glyph d="M153 45v610q0 17 -5.5 23t-24.5 7l-70 5v10h256v-10l-70 -5q-19 -1 -24.5 -7t-5.5 -23v-328l365 345q10 10 3 12q-5 1 -22 2l-70 4v10h212v-10l-70 -5q-13 -1 -18.5 -4t-24.5 -21l-317 -299q55 29 107 29q60 0 123 -37q48 -28 87.5 -72t66 -83.5t59.5 -76t84.5 -58 t123.5 -21.5q122 0 173 43l5 -2q-66 -93 -213 -93q-69 0 -122.5 24.5t-89.5 65.5t-66 84t-68.5 91t-79.5 77q-57 39 -111 39q-59 0 -116 -45l-21 -20v-261q0 -17 5.5 -23t24.5 -7l70 -5v-10h-256v10l70 5q19 1 24.5 7t5.5 23zM1134 280l-134 378q-1 3 -3.5 9t-3.5 8 l-141 -395h282zM846 264l-21 -60q-7 -20 -3.5 -24t29.5 -6l70 -4v-10h-187v10l40 4q18 2 22.5 6.5t13.5 29.5l169 473q-6 2 -13 2l-65 5v10h141l230 -650q8 -24 13 -29t23 -6l70 -5v-10h-257v10l70 5q26 2 29.5 5.5t-3.5 23.5l-78 220h-293z" glyph-name="K_A.dlig" horiz-adv-x="1373"/><glyph d="M153 45v610q0 17 -5.5 23t-24.5 7l-70 5v10h330q103 0 164 -48.5t61 -129.5q0 -76 -58.5 -129t-141.5 -53h-81q71 -12 127 -40t87 -60.5t61.5 -68t54 -64t61 -47t84.5 -18.5q76 0 110 43l5 -2q-39 -93 -156 -93q-49 0 -87 19t-64 49.5t-50.5 67.5t-54 74t-66 68t-95.5 51 t-135 21v-295q0 -17 6 -23t24 -7l90 -5v-10h-276v10l70 5q19 1 24.5 7t5.5 23zM209 654v-298h199q58 0 101 49.5t43 116.5q0 74 -46 118t-123 44h-144q-18 0 -24 -6t-6 -24zM1084 280l-134 378q-1 3 -3.5 9t-3.5 8l-141 -395h282zM796 264l-21 -60q-7 -20 -3.5 -24t29.5 -6 l70 -4v-10h-187v10l40 4q18 2 22.5 6.5t13.5 29.5l169 473q-6 2 -13 2l-65 5v10h141l230 -650q8 -24 13 -29t23 -6l70 -5v-10h-257v10l70 5q26 2 29.5 5.5t-3.5 23.5l-78 220h-293z" glyph-name="R_A.dlig" horiz-adv-x="1323"/><glyph d="M153 45v610q0 17 -5.5 23t-24.5 7l-70 5v10h330q103 0 164 -48.5t61 -129.5q0 -76 -58.5 -129t-141.5 -53h-81q71 -12 127 -40t87 -60.5t61.5 -68t54 -64t61 -47t84.5 -18.5q76 0 110 43l5 -2q-39 -93 -156 -93q-49 0 -87 19t-64 49.5t-50.5 67.5t-54 74t-66 68t-95.5 51 t-135 21v-295q0 -17 6 -23t24 -7l90 -5v-10h-276v10l70 5q19 1 24.5 7t5.5 23zM759 205v450q0 17 -5.5 23t-24.5 7l-70 5v10h439v-155h-10l-30 109q-5 17 -12.5 23.5t-27.5 6.5h-173q-18 0 -24 -6t-6 -24v-215h83q17 0 22 5.5t8 24.5l10 65h10v-206h-10l-10 65 q-3 19 -8 24.5t-22 5.5h-83v-218q0 -17 6 -23t24 -6h183q20 0 29 7t14 23l37 124h10l-10 -170h-449v10l70 5q19 1 24.5 7t5.5 23zM209 654v-298h199q58 0 101 49.5t43 116.5q0 74 -46 118t-123 44h-144q-18 0 -24 -6t-6 -24z" glyph-name="R_E.dlig" horiz-adv-x="1153"/><glyph d="M708 430q0 126 72.5 203t192.5 77q118 0 190 -77t72 -203t-72 -203t-190 -77q-120 0 -192.5 77t-72.5 203zM153 45v610q0 17 -5.5 23t-24.5 7l-70 5v10h330q103 0 164 -48.5t61 -129.5q0 -76 -58.5 -129t-141.5 -53h-81q71 -12 127 -40t87 -60.5t61.5 -68t54 -64t61 -47 t84.5 -18.5q76 0 110 43l5 -2q-39 -93 -156 -93q-49 0 -87 19t-64 49.5t-50.5 67.5t-54 74t-66 68t-95.5 51t-135 21v-295q0 -17 6 -23t24 -7l90 -5v-10h-276v10l70 5q19 1 24.5 7t5.5 23zM764 430q0 -119 57.5 -191.5t151.5 -72.5q92 0 149 73t57 191t-57 191t-149 73 q-94 0 -151.5 -72.5t-57.5 -191.5zM209 654v-298h199q58 0 101 49.5t43 116.5q0 74 -46 118t-123 44h-144q-18 0 -24 -6t-6 -24z" glyph-name="R_O.dlig" horiz-adv-x="1270"/><glyph d="M153 45v610q0 17 -5.5 23t-24.5 7l-70 5v10h330q103 0 164 -48.5t61 -129.5q0 -76 -58.5 -129t-141.5 -53h-81q71 -12 127 -40t87 -60.5t61.5 -68t54 -64t61 -47t84.5 -18.5q76 0 110 43l5 -2q-39 -93 -156 -93q-49 0 -87 19t-64 49.5t-50.5 67.5t-54 74t-66 68t-95.5 51 t-135 21v-295q0 -17 6 -23t24 -7l90 -5v-10h-276v10l70 5q19 1 24.5 7t5.5 23zM773 348v307q0 17 -5.5 23t-24.5 7l-70 5v10h256v-10l-70 -5q-19 -1 -24.5 -7t-5.5 -23v-307q0 -78 41 -123.5t112 -45.5t112 45.5t41 123.5v307q0 17 -5.5 23t-24.5 7l-70 5v10h216v-10l-70 -5 q-19 -1 -24.5 -7t-5.5 -23v-307q0 -91 -51 -144.5t-137 -53.5q-87 0 -138.5 53.5t-51.5 144.5zM209 654v-298h199q58 0 101 49.5t43 116.5q0 74 -46 118t-123 44h-144q-18 0 -24 -6t-6 -24z" glyph-name="R_U.dlig" horiz-adv-x="1276"/><glyph d="M153 45v610q0 17 -5.5 23t-24.5 7l-70 5v10h256v-10l-70 -5q-19 -1 -24.5 -7t-5.5 -23v-328l365 345q10 10 3 12q-5 1 -22 2l-70 4v10h212v-10l-70 -5q-13 -1 -18.5 -4t-24.5 -21l-316 -299q52 28 106 28q59 0 122 -36q48 -28 87.5 -72t66.5 -83t60 -75.5t84.5 -58.5 t123.5 -22q122 0 173 43l5 -2q-66 -93 -213 -93q-69 0 -122.5 24.5t-89.5 65.5t-66 84t-68.5 91t-79.5 77q-57 39 -111 39q-59 0 -116 -45l-21 -20v-261q0 -17 5.5 -23t24.5 -7l70 -5v-10h-256v10l70 5q19 1 24.5 7t5.5 23zM877 205v450q0 17 -5.5 23t-24.5 7l-70 5v10h256 v-10l-70 -5q-19 -1 -24.5 -7t-5.5 -23v-450q0 -17 5.5 -23t24.5 -7l70 -5v-10h-256v10l70 5q19 1 24.5 7t5.5 23z" glyph-name="K_I.dlig" horiz-adv-x="1086"/><glyph d="M153 45v610q0 17 -5.5 23t-24.5 7l-70 5v10h256v-10l-70 -5q-19 -1 -24.5 -7t-5.5 -23v-639h418q34 0 42 21l35 88h10l-7 -125h-654v10l70 5q19 1 24.5 7t5.5 23zM558 205v450q0 17 -5.5 23t-24.5 7l-70 5v10h256v-10l-70 -5q-19 -1 -24.5 -7t-5.5 -23v-450 q0 -17 5.5 -23t24.5 -7l70 -5v-10h-256v10l70 5q19 1 24.5 7t5.5 23z" glyph-name="L_I.dlig" horiz-adv-x="767"/><glyph d="M153 45v610q0 17 -5.5 23t-24.5 7l-70 5v10h330q103 0 164 -48.5t61 -129.5q0 -76 -58.5 -129t-141.5 -53h-81q71 -12 127 -40t87 -60.5t61.5 -68t54 -64t61 -47t84.5 -18.5q76 0 110 43l5 -2q-39 -93 -156 -93q-49 0 -87 19t-64 49.5t-50.5 67.5t-54 74t-66 68t-95.5 51 t-135 21v-295q0 -17 6 -23t24 -7l90 -5v-10h-276v10l70 5q19 1 24.5 7t5.5 23zM825 205v450q0 17 -5.5 23t-24.5 7l-70 5v10h256v-10l-70 -5q-19 -1 -24.5 -7t-5.5 -23v-450q0 -17 5.5 -23t24.5 -7l70 -5v-10h-256v10l70 5q19 1 24.5 7t5.5 23zM209 654v-298h199 q58 0 101 49.5t43 116.5q0 74 -46 118t-123 44h-144q-18 0 -24 -6t-6 -24z" glyph-name="R_I.dlig" horiz-adv-x="1034"/><glyph d="M745 654v-295h163q17 0 22 5.5t8 24.5l10 65h10v-206h-10l-10 65q-3 19 -8 24.5t-22 5.5h-163v-327h293q20 0 29 7t14 23l37 124h10l-10 -170h-529v10l70 5q19 1 24.5 7t5.5 23v609l-243 -654h-57l-217 647l-26 -602q-1 -17 4.5 -23t25.5 -7l70 -5v-10h-216v10l70 5 q18 2 23.5 7t6.5 23l26 610q0 17 -5.5 23t-24.5 7l-65 5v10h150l227 -676l243 656q-5 3 -22 5l-70 5v10h519v-155h-10l-30 109q-5 17 -12.5 23.5t-27.5 6.5h-253q-18 0 -24 -6t-6 -24z" glyph-name="M_E.dlig" horiz-adv-x="1178"/><glyph d="M382 264l-78 -220q-7 -20 -3.5 -24t29.5 -6l70 -4v-10h-217v10l70 5q17 1 22 6t14 29l224 633q-8 2 -13 2l-65 5v10h141l230 -650q8 -24 13 -29t23 -6q19 1 24.5 7t5.5 23v610q0 17 -5.5 23t-24.5 7l-65 5v10h146l376 -602v557q0 17 -5.5 23t-24.5 7l-70 5v10h441 q130 0 211 -97t81 -253t-81 -253t-211 -97h-341l-411 658v-613q0 -17 5.5 -23t24.5 -7l70 -5v-10h-333v10l70 5q26 2 29.5 5.5t-3.5 23.5l-78 220h-291zM1315 655v-645l70 5q19 1 24.5 7t5.5 23v610q0 17 -5.5 23t-24.5 7l-20 1l-20 -1q-19 -1 -24.5 -7t-5.5 -23zM1471 654 v-638h169q104 0 169.5 93t65.5 241t-65.5 241t-169.5 93h-139q-18 0 -24 -6t-6 -24zM668 280l-134 378q-6 14 -7 16l-140 -394h281z" glyph-name="A_N_D.dlig" horiz-adv-x="2160"/><glyph d="M101 359q0 -152 74 -245t195 -93q89 0 151.5 52.5t85.5 147.5h10q-25 -112 -93.5 -171.5t-171.5 -59.5q-137 0 -222 99.5t-85 260.5t83.5 260.5t217.5 99.5q122 0 194 -75q10 -12 16 -12t7 22l4 55h10v-200h-10l-6 59q-3 27 -27 57q-30 36 -78 57t-101 21 q-113 0 -183.5 -93t-70.5 -242zM854 710q103 0 167 -72t64 -188t-64 -188t-167 -72q-107 0 -172 71.5t-65 188.5t65 188.5t172 71.5zM853 205q78 0 127 68t49 177t-49 177t-127 68q-80 0 -130 -68t-50 -177t50 -177t130 -68z" glyph-name="C_o.dlig" horiz-adv-x="1115"/><glyph d="M273 510q87 0 135 -43t48 -122v-85q101 -15 166 -15q34 0 71 3v452q0 18 -6 24t-24 6h-65v10l150 10v-494q89 25 243 210q10 13 9 15.5t-18 3.5l-85 5v10h222v-10l-65 -4q-20 -2 -30.5 -8t-32.5 -31q-83 -94 -128 -134l171 -260q14 -22 23 -29t25 -9l65 -5v-10h-265v10 l85 5q22 2 24.5 5t-7.5 19l-160 243q-38 -29 -76 -38v-199q0 -17 5.5 -23t24.5 -7l65 -5v-10h-245v10l65 5q19 1 24.5 7t5.5 23v190q-107 -7 -237 14v-199q0 -18 6 -24t24 -6h65v-10l-150 -10v127q-19 -59 -74 -98t-120 -39q-63 0 -105 36t-42 89q0 39 24 73.5t65 55.5 q64 31 162 31q43 0 90 -6v86q0 68 -33.5 106.5t-94.5 38.5q-57 0 -91 -33t-34 -89q0 -32 12 -75l-4 -4q-60 45 -60 95q0 51 49.5 83.5t127.5 32.5zM401 258q-41 6 -79 6q-93 0 -141 -30q-29 -18 -47 -49.5t-18 -64.5q0 -46 33 -75.5t85 -29.5q71 0 119 54.5t48 134.5v54z " glyph-name="a_k.dlig" horiz-adv-x="1132"/></font>
</defs>
</svg>
