<svg width="12" height="13" viewBox="0 0 12 13" fill="none" xmlns="http://www.w3.org/2000/svg">
<g clip-path="url(#clip0_29_25)">
<path d="M12 6.5C12 3.18632 9.31368 0.5 6 0.5C2.68632 0.5 0 3.18632 0 6.5C0 9.31376 1.93728 11.6749 4.55064 12.3234V8.3336H3.31344V6.5H4.55064V5.70992C4.55064 3.66776 5.47488 2.7212 7.47984 2.7212C7.86 2.7212 8.51592 2.79584 8.78424 2.87024V4.53224C8.64264 4.51736 8.39664 4.50992 8.09112 4.50992C7.10736 4.50992 6.7272 4.88264 6.7272 5.85152V6.5H8.68704L8.35032 8.3336H6.7272V12.4561C9.69816 12.0973 12.0002 9.56768 12.0002 6.5H12Z" fill="#0866FF"/>
<path d="M8.35011 8.33361L8.68683 6.50001H6.72699V5.85153C6.72699 4.88265 7.10715 4.50993 8.09091 4.50993C8.39643 4.50993 8.64243 4.51737 8.78403 4.53225V2.87025C8.51571 2.79561 7.85979 2.72121 7.47963 2.72121C5.47467 2.72121 4.55043 3.66777 4.55043 5.70993V6.50001H3.31323V8.33361H4.55043V12.3234C5.01459 12.4386 5.50011 12.5 5.99979 12.5C6.24579 12.5 6.48843 12.4849 6.72675 12.4561V8.33361H8.34987H8.35011Z" fill="white"/>
</g>
<defs>
<clipPath id="clip0_29_25">
<rect width="12" height="12" fill="white" transform="translate(0 0.5)"/>
</clipPath>
</defs>
</svg>
