<svg width="12" height="13" viewBox="0 0 12 13" fill="none" xmlns="http://www.w3.org/2000/svg">
<g clip-path="url(#clip0_29_21)">
<path d="M6 1.58047C7.60313 1.58047 7.79297 1.5875 8.42344 1.61562C9.00938 1.64141 9.32578 1.73984 9.53672 1.82188C9.81563 1.92969 10.0172 2.06094 10.2258 2.26953C10.4367 2.48047 10.5656 2.67969 10.6734 2.95859C10.7555 3.16953 10.8539 3.48828 10.8797 4.07187C10.9078 4.70469 10.9148 4.89453 10.9148 6.49531C10.9148 8.09844 10.9078 8.28828 10.8797 8.91875C10.8539 9.50469 10.7555 9.82109 10.6734 10.032C10.5656 10.3109 10.4344 10.5125 10.2258 10.7211C10.0148 10.932 9.81563 11.0609 9.53672 11.1688C9.32578 11.2508 9.00703 11.3492 8.42344 11.375C7.79063 11.4031 7.60078 11.4102 6 11.4102C4.39688 11.4102 4.20703 11.4031 3.57656 11.375C2.99063 11.3492 2.67422 11.2508 2.46328 11.1688C2.18438 11.0609 1.98281 10.9297 1.77422 10.7211C1.56328 10.5102 1.43438 10.3109 1.32656 10.032C1.24453 9.82109 1.14609 9.50234 1.12031 8.91875C1.09219 8.28594 1.08516 8.09609 1.08516 6.49531C1.08516 4.89219 1.09219 4.70234 1.12031 4.07187C1.14609 3.48594 1.24453 3.16953 1.32656 2.95859C1.43438 2.67969 1.56563 2.47812 1.77422 2.26953C1.98516 2.05859 2.18438 1.92969 2.46328 1.82188C2.67422 1.73984 2.99297 1.64141 3.57656 1.61562C4.20703 1.5875 4.39688 1.58047 6 1.58047ZM6 0.5C4.37109 0.5 4.16719 0.507031 3.52734 0.535156C2.88984 0.563281 2.45156 0.666406 2.07188 0.814062C1.67578 0.96875 1.34063 1.17266 1.00781 1.50781C0.672656 1.84063 0.46875 2.17578 0.314063 2.56953C0.166406 2.95156 0.0632813 3.3875 0.0351563 4.025C0.00703125 4.66719 0 4.87109 0 6.5C0 8.12891 0.00703125 8.33281 0.0351563 8.97266C0.0632813 9.61016 0.166406 10.0484 0.314063 10.4281C0.46875 10.8242 0.672656 11.1594 1.00781 11.4922C1.34063 11.825 1.67578 12.0312 2.06953 12.1836C2.45156 12.3313 2.8875 12.4344 3.525 12.4625C4.16484 12.4906 4.36875 12.4977 5.99766 12.4977C7.62656 12.4977 7.83047 12.4906 8.47031 12.4625C9.10781 12.4344 9.54609 12.3313 9.92578 12.1836C10.3195 12.0312 10.6547 11.825 10.9875 11.4922C11.3203 11.1594 11.5266 10.8242 11.6789 10.4305C11.8266 10.0484 11.9297 9.6125 11.9578 8.975C11.9859 8.33516 11.993 8.13125 11.993 6.50234C11.993 4.87344 11.9859 4.66953 11.9578 4.02969C11.9297 3.39219 11.8266 2.95391 11.6789 2.57422C11.5312 2.17578 11.3273 1.84063 10.9922 1.50781C10.6594 1.175 10.3242 0.96875 9.93047 0.816406C9.54844 0.66875 9.1125 0.565625 8.475 0.5375C7.83281 0.507031 7.62891 0.5 6 0.5Z" fill="#000100"/>
<path d="M6 3.41797C4.29844 3.41797 2.91797 4.79844 2.91797 6.5C2.91797 8.20156 4.29844 9.58203 6 9.58203C7.70156 9.58203 9.08203 8.20156 9.08203 6.5C9.08203 4.79844 7.70156 3.41797 6 3.41797ZM6 8.49922C4.89609 8.49922 4.00078 7.60391 4.00078 6.5C4.00078 5.39609 4.89609 4.50078 6 4.50078C7.10391 4.50078 7.99922 5.39609 7.99922 6.5C7.99922 7.60391 7.10391 8.49922 6 8.49922Z" fill="#000100"/>
<path d="M9.92344 3.2961C9.92344 3.69454 9.6 4.01563 9.20391 4.01563C8.80547 4.01563 8.48438 3.6922 8.48438 3.2961C8.48438 2.89766 8.80781 2.57657 9.20391 2.57657C9.6 2.57657 9.92344 2.90001 9.92344 3.2961Z" fill="#000100"/>
</g>
<defs>
<clipPath id="clip0_29_21">
<rect width="12" height="12" fill="white" transform="translate(0 0.5)"/>
</clipPath>
</defs>
</svg>
