<svg width="12" height="13" viewBox="0 0 12 13" fill="none" xmlns="http://www.w3.org/2000/svg">
<g clip-path="url(#clip0_29_28)">
<path d="M11.7611 3.59274C11.6932 3.33744 11.5595 3.10445 11.3733 2.91706C11.1871 2.72968 10.955 2.59449 10.7001 2.52501C9.76196 2.27274 6.01196 2.27274 6.01196 2.27274C6.01196 2.27274 2.26196 2.27274 1.32378 2.52501C1.06893 2.59449 0.836792 2.72968 0.650607 2.91706C0.464421 3.10445 0.330716 3.33744 0.262872 3.59274C0.0119629 4.53501 0.0119629 6.50001 0.0119629 6.50001C0.0119629 6.50001 0.0119629 8.46501 0.262872 9.40728C0.330716 9.66257 0.464421 9.89557 0.650607 10.083C0.836792 10.2703 1.06893 10.4055 1.32378 10.475C2.26196 10.7273 6.01196 10.7273 6.01196 10.7273C6.01196 10.7273 9.76196 10.7273 10.7001 10.475C10.955 10.4055 11.1871 10.2703 11.3733 10.083C11.5595 9.89557 11.6932 9.66257 11.7611 9.40728C12.012 8.46501 12.012 6.50001 12.012 6.50001C12.012 6.50001 12.012 4.53501 11.7611 3.59274Z" fill="#FF0302"/>
<path d="M4.78467 8.28434V4.7157L7.92103 6.50002L4.78467 8.28434Z" fill="#FEFEFE"/>
</g>
<defs>
<clipPath id="clip0_29_28">
<rect width="12" height="12" fill="white" transform="translate(0 0.5)"/>
</clipPath>
</defs>
</svg>
