<?xml version="1.0" standalone="no"?>
<!DOCTYPE svg PUBLIC "-//W3C//DTD SVG 1.1//EN" "http://www.w3.org/Graphics/SVG/1.1/DTD/svg11.dtd">
<svg version="1.1" xmlns="http://www.w3.org/2000/svg" xmlns:xlink="http://www.w3.org/1999/xlink"><metadata>This SVG WebFont was generated by YouWorkForThem.
</metadata><defs><font horiz-adv-x="574" id="ywftsvg"><font-face ascent="800" bbox="-889.162 -1112 2504 1701" cap-height="1235" descent="-200" font-family="" font-stretch="normal" font-weight="400" panose-1="0 0 0 0 0 0 0 0 0 0" underline-position="0" underline-thickness="0" unicode-range="U+0020-FB06" units-per-em="1000" x-height="320"/><missing-glyph horiz-adv-x="600"/><glyph d="M-104 -555q-50 0 -91 10.5t-73.5 43t-31.5 83.5q0 50 46 102t148 113t225.5 114t226.5 92t191 68q-20 50 -60.5 109t-74.5 101.5t-60 100.5t-25 115q3 107 84 226q87 126 263 251t339 193q146 64 229 64q46 0 73.5 -26.5t26.5 -72.5q-1 -52 -38 -113q-29 -47 -69 -100 t-65.5 -82.5t-84 -95t-73.5 -82.5q-1 -1 -9.5 -10.5t-15 -16.5t-15.5 -15.5t-16 -13.5t-11 -5q-19 0 -33 12t-14 30q0 10 5 22q2 4 30 22t61 40.5t45 33.5q78 70 159 181.5t82 184.5q0 22 -14 34t-30 14.5t-39 2.5q-139 0 -353 -123.5t-327 -243.5q-144 -154 -147 -300 q-1 -54 25 -112t59.5 -102t74 -103.5t59.5 -106.5q276 111 462.5 206.5t364.5 218t426 325.5q-299 -2 -426 -29q7 -12 7 -15q2 -19 -27 -27q-8 2 -28.5 4.5t-31.5 5.5t-21.5 13.5t-11.5 28.5q-4 42 15 42q20 -1 57 -5.5t54 -5.5q78 -3 225 2t207 5q17 15 40 45q17 25 57 74 t58 76q6 9 18.5 28t18.5 28q11 9 15 8q12 -1 27 -19.5t17 -31.5q0 -5 -2 -9l3 -9q-1 -5 -13.5 -9.5t-15.5 -6.5t-26 -22q-106 -98 -153 -152q299 2 482 -5q6 0 20 -0.5t21 -0.5q20 -11 19 -20q2 -13 -22 -13q-46 12 -126 14q-192 7 -409 7q-253 -311 -452 -624 q-106 -164 -138 -222q-7 -12 -23.5 -39t-26.5 -43.5t-21.5 -40.5t-17.5 -45q-10 -10 -21 -10q-14 0 -14 24v8q21 26 42 65q34 52 98 159.5t98 160.5q32 49 70 101t88.5 118.5t73.5 98.5q53 73 159 223q-148 -115 -224 -172.5t-181.5 -132t-175 -115t-171.5 -93.5t-207 -96.5 t-248 -96.5q37 -105 36 -190q-1 -67 -19.5 -123t-47.5 -96t-73.5 -71.5t-90 -52t-104.5 -35.5t-109.5 -23t-112.5 -14q-146 -13 -170 -13zM-236 -420q-1 -28 20.5 -48t55.5 -28.5t62.5 -12t55.5 -3.5q78 0 154.5 9t162.5 34.5t150.5 64.5t108 106t44.5 152q2 90 -34 195 q-47 -15 -95.5 -32.5t-129 -49t-150.5 -63t-147 -73t-131.5 -81t-90 -84.5t-36.5 -86z" glyph-name="uniE000" horiz-adv-x="1719" unicode="St"/><glyph d="M544 -25q-44 0 -70 28.5t-24 73.5q1 15 4 29t11.5 32.5t11.5 25.5t17 30.5t15 25.5q-69 -43 -115 -76q-170 -130 -233 -130q-41 0 -62.5 26.5t-19.5 68.5q1 31 15 72.5t16 53.5q-58 -70 -101 -117q-13 -13 -42 -47.5t-47 -51.5q-8 -8 -17 -8q-14 0 -30.5 16.5t-16.5 31.5 q0 5 5.5 16t13 24t8.5 16q34 60 97.5 136.5t116.5 121.5q37 30 59 30q14 0 32 -18q11 -4 25 -15t14 -20q0 -2 -6.5 -11.5t-14 -19.5t-8.5 -13q-24 -38 -44 -90t-21 -91q-2 -54 38 -54q31 0 73 20q29 14 132 81q12 8 80.5 51.5t104.5 65.5q21 27 78.5 66.5t84.5 39.5 q10 0 16 -17.5t6 -29.5q-1 -7 -9 -17q-2 -10 -24 -10q-10 -6 -34.5 -13.5t-35.5 -14.5q-46 -27 -91.5 -90t-46.5 -112q-1 -33 13.5 -46.5t48.5 -13.5q27 0 62 12.5t81.5 41.5t72 45t78 55t54.5 40l8 6q16 12 23 -4q6 -15 -8 -29l-105 -72q-6 -4 -33 -23t-41.5 -28.5 t-42 -27.5t-47 -28.5t-43.5 -21.5t-44.5 -16.5t-37.5 -5.5zM-74 100q2 3 26 21.5t29 23.5q94 94 151 184q-52 -24 -116 -97t-90 -132z" glyph-name="uniE003" horiz-adv-x="954" unicode="ac"/><glyph d="M705 -175q-11 0 -11 28q13 38 62.5 138.5t76.5 150.5q154 296 233 442q-172 -222 -199 -254q-2 -20 -18 -24q-178 -212 -269 -286q-14 -11 -31 -11q-46 0 -48 47q-1 24 37.5 90.5t65.5 100.5q-63 -38 -134 -90q-7 -5 -36 -26.5t-48 -35t-46.5 -32t-49 -31t-37.5 -18.5 q-19 -8 -39 -8q-28 0 -49 19t-22 47q-1 21 6.5 51t15 51.5t21.5 57.5t18 46q-7 -8 -44.5 -50t-75.5 -83t-81 -86t-75.5 -72.5t-44.5 -27.5q-14 0 -25.5 18t-11.5 33q-1 11 35 78q44 84 89 146q23 34 54 73.5t76 82.5t69 43q18 0 35 -18t17 -36l3 -28l3 5q0 6 2.5 10.5 t8.5 3.5q8 8 16 8q11 0 28 -14t16 -25q0 -2 -1.5 -6t-1.5 -5q-106 -134 -104 -231q0 -16 10 -25q4 0 12 -1t12 -1q18 0 40 6t50 19.5t48.5 24.5t54 32.5t47 30.5t47 32.5t35.5 24.5q10 7 55.5 36t56.5 39q9 7 40.5 40t59.5 53.5t50 20.5q21 0 34.5 -20t17.5 -43l3 -5 q65 79 191 241q48 56 68 84q12 20 37.5 65.5t39.5 68.5l66 102q10 16 31.5 48.5t34 52t29 48t28.5 53.5q5 9 11 9q10 0 29 -15.5t20 -25.5v-3q2 -2 2 -8q0 -3 -6.5 -8t-14 -9.5t-9.5 -6.5q-23 -21 -102 -136q-128 -187 -204.5 -310.5t-114.5 -195t-149 -285.5 q-3 -7 -22.5 -45t-25.5 -50t-21.5 -44.5t-22.5 -51t-16.5 -45.5t-16.5 -52q-8 -17 -21 -17zM-103 35q101 44 281 255q-9 5 -16.5 19t-7.5 25q0 5 2.5 13.5t2.5 11.5q-75 -38 -154 -137t-108 -187zM558 82q52 18 127.5 87.5t134.5 138.5q-34 9 -33 23q-53 -10 -82 -28 q-38 -24 -86.5 -98.5t-60.5 -122.5z" glyph-name="uniE004" horiz-adv-x="1147" unicode="ad"/><glyph d="M529 -4q-36 1 -60.5 22t-23.5 57q0 22 6 43q-184 -119 -267 -117q-37 1 -58.5 25.5t-20.5 61.5q1 51 49 147q-226 -212 -256 -211q-14 0 -29.5 16t-14.5 31q0 13 36 60q82 111 95 126q28 34 60 69.5t80.5 80.5t66.5 45q20 -1 37 -19t19 -38q1 1 8.5 13t14.5 19t12 7 q12 0 26.5 -18t13.5 -30q0 -7 -7 -14q0 -5 -6 -7q-17 -6 -45.5 -32.5t-40.5 -44.5q-72 -108 -73 -184q0 -22 15 -34.5t38 -13.5q102 -1 262 105q51 144 172 247q27 22 48 22q16 -1 28.5 -18t11.5 -34q0 -25 -85.5 -105t-134.5 -116q-11 -34 -12 -57q0 -48 47 -49 q93 -1 237 130l77 71q11 11 20.5 11.5t13.5 -6t0 -16.5q-13 -32 -118.5 -113.5t-149.5 -104.5q-50 -27 -92 -27zM-81 103q71 21 240 174q-4 8 -4 15q0 22 11 45t14 35l-7 -3q-57 -24 -138 -112.5t-116 -153.5zM531 212q88 78 123 134q-33 -15 -68 -55t-55 -79z" glyph-name="uniE005" horiz-adv-x="868" unicode="ae"/><glyph d="M851 -179q-44 0 -72.5 29.5t-30.5 73.5q-4 93 140 351q19 29 26 56q-79 -46 -221 -186.5t-199 -224.5q-10 -12 -24.5 -37t-16.5 -28q-7 -14 -24 -14q-18 0 -39.5 23.5t-16.5 37.5q17 43 46.5 86t70.5 92.5t60 77.5q30 43 110.5 161.5t126.5 183.5q-52 -58 -126.5 -135.5 t-183.5 -185t-202.5 -179t-134.5 -71.5q-53 0 -57 48q-1 18 9 47.5t21 53t27.5 57t21.5 43.5q-33 -33 -78 -75.5t-106.5 -91.5t-81.5 -49q-18 0 -35 18.5t-18 35.5t29 70q22 40 53 87t73.5 101.5t90 90.5t85.5 36q26 0 45.5 -17.5t24.5 -42.5q2 6 8 6q7 0 12 -5q11 4 31 -13 t20 -28q0 -4 -7 -12t-18 -18l-11 -9q-42 -39 -94 -125.5t-51 -132.5l4 -11q31 1 71 22q91 43 168 114q8 7 51.5 46.5t53 48t46 42t50 47t44 42.5t49.5 49t44.5 47t49.5 54q15 17 42 46.5t49.5 55.5t41.5 49q30 39 84.5 116.5t83.5 114.5q10 13 46 61.5t56 74.5q16 21 64 81 t78 103t53 87q7 12 15 12q14 0 36 -18.5t23 -31.5q0 -5 -4 -9q5 -9 0 -15t-17 -11.5t-16 -8.5q-4 -2 -9 -8.5t-6 -7.5q-10 -12 -103 -122t-142 -168q-14 -17 -99 -114.5t-128 -150.5q-8 -10 -16 -21.5t-17.5 -25.5t-14.5 -22q-69 -98 -205 -298q-139 -203 -192 -302 q29 25 80 76t58 57q195 193 298 282q34 27 58 27q17 0 35 -19.5t19 -37.5q0 -10 -33 -58.5t-73 -105.5t-72 -126t-30 -113q2 -64 49 -64q83 0 246 141t211 229q11 4 21 -5t5 -25q-27 -22 -99 -95.5t-137 -140.5t-138 -121.5t-115 -54.5zM-97 45q57 15 137.5 79t139.5 127 q-1 3 -2.5 6t-2.5 6.5t-2 5.5q10 52 9 57q0 6 -4 6q-2 0 -16.5 -1.5t-21.5 -4.5q-20 -5 -47 -22q-55 -38 -116 -118t-74 -141z" glyph-name="uniE006" horiz-adv-x="1321" unicode="ah"/><glyph d="M-106 -14q-17 0 -32 14.5t-14 31.5q1 40 90 160.5t135 162.5q58 52 95 51q22 -1 41 -19t18 -40q0 -5 -2 -17q11 -11 11 -21q0 -5 -2 -7l1 -8q0 -2 -3 -4q-40 -21 -75 -80t-37 -105q-2 -19 7 -29q20 -5 24 -5q76 -3 185.5 70.5t202.5 159.5q5 5 35 34.5t48 41.5q6 4 12 4 q12 -1 28 -17.5t15 -28.5q0 -5 -9.5 -17t-22 -25.5t-14.5 -15.5q-40 -46 -81 -116t-59 -125q-19 -8 -23 -8q-15 1 -20 29q12 19 66 112q4 7 30 51.5t37 68.5q-14 -11 -68 -55t-97 -76.5t-98 -70.5t-101.5 -58.5t-77.5 -19.5q-33 1 -52.5 22.5t-17.5 54.5q1 32 20 85 q-13 -12 -53 -56.5t-75 -81t-49 -43.5q-9 -5 -18 -4zM-87 69q66 33 222 198q-4 12 -0.5 22.5t11.5 22t11 19.5q-66 -13 -143.5 -101.5t-100.5 -160.5zM726 587q7 12 13.5 16t19.5 3q36 -1 34 -40q-3 -6 -9 -16q-2 0 -7 -0.5t-8 -0.5q-31 1 -43 38z" glyph-name="uniE007" horiz-adv-x="902" unicode="ai"/><glyph d="M387 -160q-13 0 -34.5 15t-21.5 28q0 1 3 10q-1 3 -1 10q0 3 7 9t17.5 14t15.5 14q27 34 129 182q68 99 234 333q-129 -138 -308.5 -299.5t-271.5 -195.5q-25 -15 -51 -15q-29 0 -47 22t-18 52q0 36 38 125q-46 -50 -75 -82q-10 -11 -28.5 -32.5t-34 -38.5t-30.5 -31 q-13 -11 -26 -11q-20 0 -38 13t-18 31q0 48 104 201t153 192q27 20 51 20q30 0 46.5 -21.5t16.5 -51.5v-9q11 -7 23 -19.5t12 -23.5q0 -3 -6 -12q-48 -43 -87 -111.5t-39 -124.5q0 -39 102 8q46 21 74 41q188 132 416 367q10 11 65.5 68t81.5 89q4 6 34 52q216 321 247 366 q7 10 24 37.5t30.5 46.5t27.5 34q7 9 17 9q14 0 33.5 -18.5t19.5 -33.5q0 -17 -88 -123q-19 -22 -68.5 -85t-78.5 -96q-19 -22 -57.5 -64.5t-69 -76.5t-55.5 -66q-3 -3 -61 -88q-34 -51 -101 -146.5t-97 -139.5q20 9 38 9q14 0 30 -7q266 253 305 253q18 0 40 -17t22 -35 q0 -62 -315 -263q6 -16 19.5 -65.5t25.5 -84t37 -64.5t58 -30q47 0 156.5 71t203.5 153.5t107 115.5q15 25 36 21q17 -4 8 -21q-3 -5 -8 -11q-119 -126 -149 -154q-11 -9 -50 -44t-62.5 -55t-59 -48.5t-66 -48.5t-56.5 -31q-33 -14 -66 -14q-40 0 -69.5 18t-48.5 50 t-31.5 64t-27 72.5t-27.5 62.5q-34 -24 -61 -28q-48 -52 -69 -75.5t-56 -70t-56 -84.5q-8 -13 -19 -13zM-98 42q47 29 114.5 97t109.5 123q-1 4 -4.5 11t-3.5 12q0 6 2.5 17.5t2.5 17.5q-60 -20 -128 -112t-93 -166zM474 25l77 77q-8 9 -14 20q-42 -64 -63 -97zM697 197 q57 31 125.5 83t96.5 93q-115 -70 -222 -176z" glyph-name="uniE008" horiz-adv-x="1341" unicode="ak"/><glyph d="M268 -271q-18 13 -18 35q0 24 23 62l66 115.5t74 129t65 108.5t77 120q-230 -232 -345 -312q-53 -36 -95 -34q-36 3 -56 27.5t-20 60.5q0 41 18 90q-38 -32 -146 -137q-34 -34 -60 -31q-17 1 -32 21.5t-15 38.5q0 17 71.5 108.5t118.5 147.5q56 64 92 89q35 22 53 20 q24 -1 42 -24t18 -47q0 -8 -12 -68q3 -6 3 -9l-1 -4q5 -10 5 -12t-9 -9.5t-21 -16.5t-13 -10q-22 -21 -38.5 -60.5t-16.5 -70.5q0 -33 19 -34q118 -8 432 302q9 9 28 27t33 32.5t26 28.5q3 4 30 44q43 60 118.5 172t104.5 153q34 49 155 190q37 46 49 45q14 -1 34 -21.5 t20 -35.5q0 -4 -11 -20t-28.5 -38t-33 -41.5t-32 -39.5t-18.5 -23q-28 -34 -65 -75t-55.5 -60.5t-71.5 -76t-60 -63.5q-106 -108 -117 -122q-8 -10 -55 -80q-94 -133 -209 -348q-84 -160 -84 -198v-2q-1 0 -4 3.5t-3 4.5q2 -8 2 -13q0 -24 -32 -39zM-120 56q29 12 112 76.5 t109 92.5l4 8t5 8v4v6v4q0 14 6.5 27.5t7.5 18.5q-61 -16 -137.5 -97t-106.5 -148zM748 532q72 75 110.5 117t93.5 112t91 132q-28 -23 -57.5 -53t-50.5 -54t-51 -64t-45 -60.5t-47.5 -67.5t-43.5 -62z" glyph-name="uniE009" horiz-adv-x="878" unicode="al"/><glyph d="M799 -217q-4 0 -6.5 3.5t-3.5 7.5l-2.5 10t-1.5 7q34 91 74.5 179.5t99.5 195.5t91 162.5t107 182.5q-163 -183 -392 -413q-16 -16 -54.5 -56t-59.5 -62t-54 -53.5t-62 -55.5q-56 -47 -90 -48q-31 -1 -47 16.5t-16 48.5q0 68 130 312q-37 -45 -59.5 -71.5t-74 -82.5 t-90 -89t-85 -61.5t-79.5 -29.5q-36 -1 -57.5 23t-22.5 62q-1 62 35 161q-179 -205 -207 -206q-19 -1 -37 14t-19 34q0 21 11 41q30 61 105.5 182t107.5 150q32 28 59 29q21 1 39.5 -13t23.5 -34q3 3 7 3q12 0 30 -11t22 -22q11 -11 10 -17q0 -2 -2 -6q-36 -29 -56 -67 q-69 -132 -68 -212q0 -31 13 -39h19q116 5 354 281q9 10 27.5 31t33.5 38t25 33q13 19 35 58t27 47q8 14 30 51.5t35 57.5q165 264 183 295q12 19 37 62t40.5 68.5t38.5 60.5t44 61q8 12 20 12q15 1 34.5 -11t19.5 -27q0 -24 -15 -47q-57 -96 -141 -215t-127.5 -176.5 t-156.5 -205.5q-8 -11 -35.5 -44.5t-40.5 -52.5q-10 -15 -20 -34t-21.5 -42.5t-16.5 -34.5q-107 -208 -106 -290q0 -17 3 -23l1 3q9 5 29 11t32 12q69 36 212.5 171.5t253.5 252t196 213.5q28 30 44 52q12 18 65 108q143 242 217 342q10 13 29.5 42t29.5 42q6 8 12 8 q14 1 34.5 -14.5t20.5 -29.5q0 -17 -65.5 -109.5t-103.5 -140.5q-63 -83 -167 -201q-3 -4 -19.5 -21.5t-23.5 -26.5q-15 -21 -30.5 -46t-32.5 -56t-27 -47q-70 -117 -97.5 -165t-85.5 -155t-92 -192t-53 -162q-1 -1 -6 -7t-9 -9t-9 -3zM-105 21q68 42 202 199q-16 4 -25 33 q2 6 4 17t3 16q-45 -33 -103 -118.5t-81 -146.5zM691 485q261 340 339 501q-50 -58 -172 -244q-112 -170 -167 -257zM1315 743q127 155 188 259q-86 -95 -188 -259z" glyph-name="uniE00A" horiz-adv-x="1329" unicode="all"/><glyph d="M88 -23q-24 0 -40.5 13t-16.5 36q0 25 18 76t34 83q-19 -17 -54.5 -47.5t-45.5 -39.5q-11 -9 -48.5 -44t-60.5 -51q-12 -6 -17 -6q-15 0 -27 18.5t-12 34.5q0 27 95.5 144.5t132.5 147.5q17 14 43 14q18 0 33 -13.5t19 -31.5q1 1 5 6.5t8 7.5q2 9 9 8q10 8 17 8 q13 0 29.5 -17.5t16.5 -29.5q0 -7 -37 -40q-32 -35 -66 -98t-34 -101v-7q27 5 60 19q32 14 73 42q18 12 103 81t161.5 128.5t86.5 59.5q14 0 28.5 -17.5t14.5 -31.5q0 -9 -7 -18q-59 -71 -92 -114q1 1 29 22.5t49 37.5t49 36.5t47.5 32t26.5 11.5q18 0 36.5 -13t18.5 -31 q0 -8 -4 -19t-11.5 -24t-13.5 -22.5t-15.5 -23t-11.5 -16.5q4 3 56 44t94.5 72t50.5 31q16 0 37 -15t21 -31q0 -8 -20 -42t-40 -79.5t-20 -81.5q0 -29 7 -36q2 2 9 2q34 3 77 35q37 27 103.5 86t96.5 91q10 7 22.5 -2t6.5 -24q-58 -62 -148 -146q-1 -1 -17.5 -16t-23 -20.5 t-23 -19t-27 -20t-25 -15.5t-26.5 -12.5t-23 -3.5q-31 0 -48 25.5t-17 58.5q0 39 24.5 108.5t26.5 77.5q-52 -25 -108.5 -66.5t-89.5 -82.5q-1 -1 -14 -18.5t-22.5 -27t-16.5 -9.5q-13 0 -30 11.5t-17 24.5t10 28q78 100 91 154q-47 -21 -118 -79t-108 -102q-1 -2 -5.5 -9 t-9 -13t-9.5 -13t-9.5 -11t-7.5 -4q-12 0 -31 16t-19 28q0 5 3 8q-1 5 0.5 8.5t3.5 5t7.5 4t6.5 2.5q91 106 130 193q-66 -42 -134 -99q-6 -5 -41.5 -35.5t-48 -41t-44 -36.5t-50 -40t-44.5 -32.5t-48 -32.5q-12 -9 -30 -9zM-117 83q78 38 183 143q-3 17 -2.5 24.5t6.5 25.5 q-47 -21 -102 -80.5t-85 -112.5z" glyph-name="uniE00B" horiz-adv-x="1196" unicode="am"/><glyph d="M613 9q-25 0 -38.5 19.5t-12.5 44.5q0 22 9.5 51t27.5 68t22 50q-87 -65 -164 -150q-2 -2 -11 -12.5l-15 -17.5t-15 -13.5t-15 -6.5q-14 0 -31.5 14t-16.5 27q0 22 17 39q72 98 93 154q-65 -41 -221 -164q-10 -8 -32.5 -27t-40.5 -33t-35 -24q-11 -7 -26 -7 q-24 0 -37 14.5t-12 37.5q0 14 13 41.5t38 69.5l24 42q-5 -4 -61 -61.5t-100.5 -96t-61.5 -38.5q-15 0 -30 18t-14 33q0 9 32 61q27 42 43.5 65.5t53 70.5t70 71.5t61.5 24.5q19 0 34.5 -14t17.5 -33q6 8 15 8q12 0 31 -14.5t19 -25.5q0 -4 -9.5 -15t-21.5 -23t-14 -15 q-26 -29 -51.5 -72t-31.5 -76q29 5 66 23.5t84 53t74 55.5t79 64.5t57 47.5q11 9 23 9q16 0 31.5 -10t14.5 -25q0 -25 -30 -55q-43 -49 -84 -120q126 87 211 176q10 8 18 8q13 0 31.5 -12t18.5 -25q0 -5 -24 -37.5t-48 -76.5t-25 -78q0 -20 3 -21q15 -8 41.5 4t60 39.5 t61 53t61.5 58.5t44 43q13 16 26 5q14 -12 -4 -31q-2 -1 -3 -2q-21 -19 -59 -56t-50 -48q-94 -87 -126 -109q-27 -19 -55 -19zM-70 110q57 21 177 141l-2 6q9 38 12 46q-50 -8 -106 -71.5t-81 -121.5z" glyph-name="uniE00C" horiz-adv-x="891" unicode="an"/><glyph d="M828 -135q-17 -8 -31.5 2t-14.5 31q1 34 155 278.5t225 346.5q-34 -37 -111 -122t-136 -147.5t-116 -116.5q-94 -87 -126 -109q-27 -19 -55 -19q-25 0 -38.5 19.5t-12.5 44.5q0 22 9.5 51t27.5 68t22 50q-87 -65 -164 -150q-2 -2 -11 -12.5l-15 -17.5t-15 -13.5t-15 -6.5 q-14 0 -31.5 14t-16.5 27q0 22 17 39q72 98 93 154q-65 -41 -221 -164q-10 -8 -32.5 -27t-40.5 -33t-35 -24q-11 -7 -26 -7q-24 0 -37 14.5t-12 37.5q0 14 13 41.5t37 69.5l25 42q-5 -4 -61 -61.5t-100.5 -96t-61.5 -38.5q-15 0 -30 18t-14 33q0 9 32 61q27 42 43.5 65.5 t53 70.5t70 71.5t61.5 24.5q19 0 34.5 -14t17.5 -33q6 8 15 8q12 0 31 -14.5t19 -25.5q0 -4 -9.5 -15t-21.5 -23t-14 -15q-26 -29 -51.5 -72t-31.5 -76q29 5 66 23.5t84 53t74 55.5t79 64.5t57 47.5q11 9 23 9q16 0 31.5 -10t14.5 -25q0 -25 -30 -55q-43 -49 -84 -120 q126 87 211 176q10 8 18 8q13 0 31.5 -12t18.5 -25q0 -5 -24 -37.5t-48 -76.5t-25 -78q0 -15 3 -21q6 2 16.5 4.5t13.5 3.5q20 7 56 29q19 12 42 30t43 34.5t48.5 43.5t47 44.5t50.5 50.5t46.5 48t48 51t42.5 46t41.5 45.5t34.5 37.5q39 39 125 149q10 13 97 138 q-166 -6 -429 -26l-1 -1q-2 0 -13 -3.5t-17 -3.5q-5 0 -17 1t-18 1q-15 0 -47 -6.5t-41 -6.5q-23 0 -23 42q2 16 9 19q5 10 15 10q4 0 11 -2l7 -2l48 3q5 1 26.5 6t32.5 5q1 0 28 -6q17 -12 20 -26h4q82 0 238 6t179 7q31 45 81 134q6 11 16 11q12 0 29.5 -13.5t17.5 -25.5 q0 -8 -7 -13q2 -6 -5 -11q-9 -5 -22.5 -19.5t-30.5 -35.5t-21 -25q32 1 188.5 1.5t240.5 5.5q22 -9 22 -19q-1 -10 -24 -17q-111 11 -337 13q-35 0 -105 -2q-8 -9 -42.5 -46.5t-51.5 -58.5q-46 -55 -153.5 -209.5t-151.5 -227.5q-116 -185 -159 -281q-22 -53 -34 -102 q11 -6 9 -18t-17 -19zM-65 110q57 21 177 141l-2 6q9 38 12 46q-50 -8 -106 -71.5t-81 -121.5z" glyph-name="uniE00D" horiz-adv-x="1288" unicode="ant"/><glyph d="M395 -95q-18 0 -31 18t-13 37q1 18 31 63t66 92t66.5 103t31.5 94q1 19 -3.5 29.5t-8.5 14t-20 8.5t-24 8q-3 -3 -51 -57.5t-80 -87.5t-80 -80t-86 -71t-63 -24q-29 0 -43.5 17t-12.5 46q1 34 40 115q-103 -105 -136 -142q-26 -30 -52 -30q-16 0 -26 16t-10 33 q1 23 65.5 117.5t90.5 119.5q41 41 78 41q32 0 44 -28h9q5 5 10 5q12 0 31 -14.5t18 -25.5q0 -2 -7.5 -10.5t-16.5 -17.5t-11 -12q-28 -33 -52 -79t-25 -80q0 -8 6 -9q7 3 26.5 7.5t34.5 13.5q62 34 138.5 109.5t126.5 143.5q-24 26 -23 47q1 25 23.5 50t47.5 25 q17 0 32 -14.5t14 -31.5q0 -19 -13 -37l23 -9q25 -8 39.5 -31.5t12.5 -50.5q-1 -43 -31.5 -96t-76.5 -113.5t-61 -87.5q-4 -7 -29 -65q39 0 96.5 35t115 88t100 96.5t72.5 78.5q13 5 23 -3.5t6 -21.5q-25 -17 -87 -77.5t-120 -116.5t-122.5 -102t-102.5 -46zM-47 142 q12 6 28 17.5t35 28t32.5 29t33 32t25.5 24.5q-5 20 -3 35q-38 -13 -81.5 -65t-69.5 -101z" glyph-name="uniE00E" horiz-adv-x="798" unicode="ar"/><glyph d="M353 -152q-17 0 -37.5 15.5t-20.5 31.5q0 26 59.5 73t98.5 66q22 39 41 82t42 103t33 85q-36 -28 -104.5 -78t-92.5 -68q-32 -24 -103.5 -81t-110.5 -86q-35 -25 -68 -25q-22 0 -36 21t-14 45q0 22 10 53t28.5 74t21.5 52l-3 1q-73 -73 -98 -102q-14 -16 -42 -52.5 t-43 -53.5q-8 -8 -16 -8q-15 0 -35 16.5t-20 31.5q0 4 6.5 15.5t16 25t10.5 15.5q0 1 27 44.5t46 71.5t47.5 67t52 59.5t40.5 20.5q18 0 37 -15.5t20 -33.5q14 0 33.5 -14t19.5 -28q0 -3 -26.5 -41.5t-52.5 -91.5t-26 -91q0 -2 0.5 -6t0.5 -7q62 20 96 41q95 56 220.5 148.5 t192.5 159.5q5 16 17 39t20 23q13 0 31.5 -14.5t18.5 -26.5q0 -1 -1 -3v-3q5 -7 5 -13q0 -3 -34 -30q-27 -27 -51.5 -77.5t-48 -113t-36.5 -88.5q70 37 166 96.5t119 90.5q12 15 24 2q10 -13 3 -28q-40 -35 -116.5 -89t-126.5 -81q-41 -23 -105 -63q-23 -41 -68 -99t-68 -58 zM-66 111q47 35 136 130q-3 21 -3 23l1 2v3q-21 -14 -41.5 -35t-31.5 -35.5t-32 -45.5t-29 -42z" glyph-name="uniE00F" horiz-adv-x="816" unicode="as"/><glyph d="M446 -256q-15 0 -18 32q195 377 350 614q60 92 185 270.5t184 269.5h-6q-38 -40 -111 -119.5t-110 -118.5q-60 -63 -179.5 -188.5t-179.5 -187.5q-199 -209 -348 -316q-65 -45 -97 -45q-37 0 -55 25.5t-16 62.5q3 49 24 113q-134 -162 -173 -162q-17 0 -32 19t-14 36 q0 5 5.5 15.5t14.5 25t16.5 27t16.5 26l11 16.5q24 40 39 63t48.5 69.5t64.5 71t56 24.5q24 0 43 -29q13 6 33 -11.5t22 -30.5q4 -8 3 -10q0 -3 -2 -5q-6 -5 -16.5 -14.5t-11.5 -10.5q-32 -31 -60 -98.5t-30 -113.5q-2 -33 14 -39q56 5 135 60q149 103 293 247 q28 28 58.5 59t55 56t58 61t54 57.5t57.5 62t53 58t57 63t52.5 58.5t56.5 63l54 60q-232 0 -381 -7q-39 -2 -109.5 -8t-95.5 -8q-12 -1 -51.5 -4.5t-61.5 -3.5q-19 0 -26.5 6.5t-6.5 26.5q0 14 2.5 25t9 17.5t9.5 10.5t15.5 5.5t16 2t21 0t21.5 -0.5q10 0 22 -6.5t18 -7.5 q2 -3 6.5 -8.5t6.5 -8.5q124 -6 375 -6h232q71 79 144 173q4 5 8.5 16.5t8.5 18.5t10 7h4q5 5 12 5q13 0 33 -16t19 -29q0 -6 -9 -13q-23 -23 -44 -47.5t-51 -63.5t-40 -51h102q263 0 396 11q23 -13 23 -26q0 -15 -25 -25q-231 13 -515 15q-396 -499 -608 -911 q-79 -149 -120 -261q-16 -14 -26 -14zM-74 85q55 28 178 180q6 8 9 11q-5 6 -9 16l-1 11q-43 -15 -97 -87t-80 -131z" glyph-name="uniE010" horiz-adv-x="1028" unicode="at"/><glyph d="M713 -340q-8 0 -13 30q6 22 16 47.5t17 40t23 46t21 40.5q32 62 65.5 122.5t78 131t71 113.5t84.5 126.5t76 110t87.5 125t80.5 113.5q-244 -263 -620 -641l-178 -178q-8 -8 -36 -37t-47 -47t-39 -33q-24 -19 -49 -19q-22 0 -35.5 17t-12.5 40q1 28 67 139t167 258 t165.5 239.5t116.5 164.5q-205 -218 -442 -447q-27 -26 -55 -49.5t-75.5 -59t-59.5 -44.5q-39 -30 -67 -30q-26 0 -43 21.5t-16 48.5q2 42 60 153q-31 -29 -84.5 -84.5t-75.5 -76.5q-33 -36 -55 -36q-17 0 -33 15t-16 31q2 42 80 143t132 152q31 31 60 31q20 0 34 -13 t18 -33q2 8 10 8l3 -1q4 3 9 3q11 0 29.5 -15.5t17.5 -25.5q0 -3 -6.5 -10.5t-15.5 -15.5t-10 -10q-28 -32 -60 -95.5t-33 -99.5q0 -7 2 -21h3q35 0 132 74.5t212 183t197 189.5t132 133q10 10 37.5 38t46.5 49t35 41q22 27 51 73q-334 -29 -378 -34q-11 -2 -43 -6.5 t-49 -7.5q-5 -1 -35 -8t-44 -7q-23 0 -20 42q0 13 6 25.5t19 9.5l1 -1l2 2q2 1 3 1q5 0 33 -6t35 -7q22 -3 49 -3q29 0 82 3.5t69 4.5l144 9t144 8q55 79 68 99q23 37 33 51q6 8 12 8q13 0 30.5 -18.5t17.5 -32.5q0 -4 -5 -11q2 -9 -10 -11q-19 -21 -80 -80q136 7 384 23 q14 21 53.5 75.5t66.5 96.5t43 77q6 13 19 13q12 0 29.5 -10t17.5 -21l-1 -4q0 -1 1 -3.5t1.5 -4.5t0.5 -4q0 -5 -5.5 -10.5t-14 -12t-10.5 -8.5q-18 -18 -48.5 -55t-36.5 -44q-8 -9 -32.5 -37t-37.5 -44q8 0 120.5 5.5t169.5 9.5q25 -8 25 -19q0 -8 -26 -17q-120 4 -306 -2 q-59 -73 -162 -215q-294 -401 -453 -696q-68 -128 -92 -189q-4 -9 -13 -41t-14 -41q-3 -6 -10.5 -13.5t-12.5 -7.5zM-71 91q51 27 186 165q-6 12 -6 14q0 5 -1 12.5t-1 10.5l1 4q-45 -23 -100.5 -89t-78.5 -117zM366 -169q47 12 132 82q36 29 78.5 67.5t65 60t77.5 76 t66 65.5q141 140 411 420q119 125 204 225q20 22 28 35q-177 -8 -395 -28q-20 -21 -42.5 -48t-37.5 -46t-40 -53t-36 -49q-55 -71 -126 -168.5t-161.5 -229t-154 -244.5t-69.5 -165z" glyph-name="uniE011" horiz-adv-x="1300" unicode="att"/><glyph d="M105 4q-20 0 -36 18t-15 38q0 18 15 63t26 66q-5 -5 -43.5 -48.5t-69 -68.5t-52.5 -25q-17 0 -30 16t-13 34q0 30 78 136.5t114 133.5q18 13 38 13q10 0 25 -7t20 -15q2 11 9 11q3 0 9 -2q10 2 31.5 -12.5t21.5 -24.5q0 -2 -7 -10t-15.5 -16.5l-10.5 -10.5 q-24 -29 -55.5 -98.5t-31.5 -100.5q0 -13 1 -20q59 19 123 73q70 57 133 115q101 88 115 102q4 4 11 11.5t13 13t11 10.5q8 5 14 5q12 0 30.5 -16t18.5 -28q0 -6 -5 -11q-83 -82 -137 -187q-4 -7 -10.5 -25t-10.5 -25q31 16 82 61.5t75.5 71.5t72.5 79q6 6 27 32t34 38 q6 6 15 6q13 0 32 -13.5t19 -26.5q0 -10 -32 -53t-64.5 -100.5t-32.5 -101.5q0 -23 8 -30h12q40 0 124.5 69t109.5 118q13 5 21.5 -4t4.5 -25q-108 -113 -161 -154q-72 -54 -118 -54q-30 0 -43.5 10.5t-12.5 38.5q0 57 76 209q-42 -38 -113.5 -116t-100.5 -106 q-34 -31 -54 -31q-15 0 -31 17t-16 32t52.5 111t69.5 117q-27 -19 -58 -44.5t-50.5 -44t-55 -52t-50.5 -47.5q-9 -8 -31 -29.5t-38.5 -36.5t-32.5 -28q-26 -21 -55 -21zM-43 127q63 34 125 108q5 6 20 27.5t25 30.5l-2 2q-2 8 -9 11q-42 -14 -93 -73t-66 -106z" glyph-name="uniE012" horiz-adv-x="908" unicode="au"/><glyph d="M-97 -723q-25 0 -37 18.5t-11 44.5q1 28 21 77q30 78 92.5 161.5t143.5 158t157.5 134t157.5 113.5q20 39 61.5 115.5t61.5 114.5q-5 -6 -30.5 -37t-47 -55.5t-46 -46.5t-36.5 -22q-16 0 -30 13t-14 29q1 12 5.5 26t9.5 23.5t14 25.5t12 22q-17 -22 -167 -106.5 t-167 -84.5q-19 0 -31.5 16t-11.5 35q1 23 65 151q-5 -6 -33.5 -41t-52 -63.5t-51 -53.5t-39.5 -25q-14 0 -26 18t-11 33q1 10 21.5 48.5t31.5 55.5q139 201 202 201q26 0 45 -26q10 0 27.5 -13.5t16.5 -23.5q0 -5 -39 -44q-37 -40 -80 -113.5t-30 -103.5q9 -21 101.5 36 t185.5 129.5t110 96.5q2 3 20 42q2 6 7 6t13 -4q10 1 28 -15t17 -26q0 -2 -8 -9.5t-18 -15.5t-12 -10q-25 -22 -52 -65t-42 -79q35 17 116 101.5t90 116.5q4 13 13 13q3 6 11 6q11 0 27.5 -14.5t16.5 -25.5q0 -6 -8 -14q-37 -35 -71.5 -87t-72.5 -119t-59 -99l-2 -3 q16 11 181.5 115.5t207.5 141.5q14 5 20 -8.5t1 -25.5q-11 -7 -158.5 -95.5t-176.5 -108.5q-10 -7 -49 -33t-59 -41q-217 -355 -359 -529q-80 -100 -120 -132q-27 -20 -53 -20zM-85 -630q0 -6 2 -18t2 -18q0 -7 1 -7q6 0 18 6q55 23 156.5 150t180.5 249.5t122 200.5 q-62 -38 -140 -102.5t-155.5 -143t-131 -165t-55.5 -152.5zM-63 116q15 11 31.5 26.5t39.5 40t33 36t37 43.5l28 32l-1 5q-41 -14 -95 -75.5t-73 -107.5z" glyph-name="uniE013" horiz-adv-x="857" unicode="ay"/><glyph d="M-108 -756q-53 0 -51 56q0 38 43 107q30 50 64.5 95.5t78 89t77.5 75.5t90.5 75t87 65.5t96.5 69.5t93 66q6 12 27.5 52.5t31.5 61.5t20.5 55t10.5 62v19q-64 -19 -136 -111q-6 -8 -13 -8q-4 0 -14 5q-11 -3 -20.5 13t-9.5 28q0 9 12 16q51 25 83 50q34 27 89.5 103 t68.5 116q-47 -13 -117.5 -62.5t-125.5 -98.5t-130.5 -119t-99.5 -91q-28 -23 -56 -23q-17 0 -27 7.5t-9 24.5q0 12 4 26.5t7.5 26t12.5 30.5t13 26.5t15 28.5t12 23q-39 -48 -118.5 -124.5t-106.5 -76.5q-16 0 -30.5 17t-14.5 33q0 8 14 29.5t34.5 48.5t22.5 30 q212 305 274 305q18 0 35 -10t17 -26q0 -10 -2.5 -19.5t-7 -20.5t-6.5 -18q32 -19 32 -35q0 -4 -9.5 -14.5t-21.5 -23t-14 -15.5q-33 -39 -71 -105t-47 -107q2 2 21 10q34 13 68 38q18 13 132 105.5t213.5 169t114.5 76.5t33 -15.5t17 -29.5q0 -15 -26.5 -50t-70 -82.5 t-44.5 -48.5q18 6 28 6q19 0 31 -18t11 -38q0 -42 -107 -216q110 79 318 274q15 3 22 -3t3 -24q-63 -43 -182.5 -144t-165.5 -134l-12 -8q-11 -8 -15 -12q-3 -3 -72 -109q-79 -115 -129 -185.5t-135 -170.5t-157 -160q-1 -1 -17 -14t-22 -17l-19.5 -13t-24.5 -12t-21 -3z M-100 -701q0 -1 0.5 -4t0.5 -4h2q46 0 129.5 76.5t166 182.5t149 201t95.5 147q-22 -17 -69.5 -49t-70.5 -49q-239 -174 -342 -339q-60 -97 -61 -162zM-84 80q61 20 125.5 82t106.5 128q-8 12 -9 25q3 13 10 25.5t16.5 26.5t14.5 24q-48 -14 -115 -95t-111 -153zM567 195h3 h-3z" glyph-name="uniE014" horiz-adv-x="850" unicode="az"/><glyph d="M512 -317q-13 0 -21 23q11 37 25.5 73t38.5 83t33.5 66.5t44 80.5t38.5 68q132 238 220 382q-86 -70 -201 -149.5t-182 -121.5t-213 -133q-39 -57 -136.5 -160.5t-133.5 -103.5q-24 0 -38 14t-15 38q0 22 19.5 47t58 51t66 43t73.5 41.5t50 26.5q63 92 62 152q0 12 -3 23 q-36 -3 -102.5 -53t-136.5 -120.5t-123.5 -128.5t-88.5 -100q-12 -15 -36.5 -49t-38.5 -51q-8 -8 -13 -8q-12 0 -29 16t-17 29q0 8 10 16q-1 6 8 8q28 29 60 68.5t52.5 66.5t58.5 78t51 69q159 210 266 367q-4 -4 -30 -33t-54.5 -60.5t-59 -64.5t-51 -54.5t-22.5 -21.5 q-46 0 -46 40q0 13 14 22q11 9 32 24t32 24q2 2 101 86q115 98 174 169q11 14 22.5 30.5t25 38.5t20.5 32q9 13 34.5 49.5t39.5 56.5q124 173 231 317q2 2 10.5 15t14.5 21.5t15 16.5t15 8q14 0 34 -14t20 -27q0 -12 -16 -41q-15 -24 -34.5 -48.5t-46.5 -54.5t-39 -44 q-129 -155 -199 -232q-12 -13 -35 -38.5t-35 -38.5q-7 -8 -35.5 -36.5t-42.5 -45.5q-15 -19 -40 -57t-34 -51q-42 -61 -87 -123q-42 -59 -149.5 -204t-163.5 -226q13 13 44.5 47t49.5 52q32 32 68.5 65.5t84 76.5t69.5 63q83 76 104 91q37 27 56 27q28 0 43.5 -17.5 t15.5 -46.5q0 -51 -44 -126q317 188 471 305q107 78 124 99q12 15 38.5 59.5t30.5 50.5q13 21 39.5 62.5t39.5 62.5q94 140 183 257q8 10 35.5 47.5t44.5 54.5q14 14 34 14q48 0 50 -51q0 -41 -81.5 -148t-164 -195t-132.5 -134q-6 -5 -51 -43.5t-54 -49.5q-5 -5 -14 -22 q-66 -106 -158 -271q-5 -9 -27.5 -48.5t-30 -53.5t-26.5 -48t-29 -53.5t-25 -48.5t-26.5 -54.5t-22.5 -51.5q-40 -100 -39 -144q-12 -15 -22 -15zM50 -140q49 24 136 123q-110 -73 -136 -123zM424 694q17 19 68.5 77.5t82 94.5t68.5 87t59 89q-27 -25 -55 -55.5t-64.5 -77.5 t-52 -67t-60 -82.5t-46.5 -65.5zM964 545q120 107 247 253t145 237q-122 -75 -392 -490z" glyph-name="uniE015" horiz-adv-x="1044" unicode="bl"/><glyph d="M-80 -34q-22 0 -40 17.5t-18 39.5q0 49 58 146.5t134 177.5t119 80q30 0 46 -22t16 -53q0 -11 -1 -17q-2 -14 -16 -30t-28 -16q-13 0 -21 17.5t-8 31.5q0 4 2 12q-62 -29 -153 -133t-91 -171q0 -10 2 -15q3 1 9 1q12 -1 36 3q40 8 128 51q58 29 279 156q88 47 94 52 q10 8 34.5 31.5t38.5 33.5q35 28 77 33h4q15 0 37.5 -17t29.5 -32q9 8 25 23.5t24 22.5q0 1 1.5 4.5t2.5 5t2.5 4t3.5 3.5t5 1q2 0 6 1.5t7 1.5q11 0 25.5 -18t14.5 -29q0 -3 -6.5 -10t-14 -12.5t-17.5 -12.5t-11 -8q-49 -43 -103 -132t-68 -151q-14 -10 -23 -10 q-17 0 -24 27q47 97 125 219q-38 -29 -76 -63t-87.5 -82t-71.5 -68q-35 -32 -58 -32q-16 0 -30.5 18t-14.5 35q0 21 31.5 71.5t56.5 80.5q-59 -30 -122 -68q-7 -4 -74.5 -46.5t-114 -70.5t-102.5 -55t-80 -27zM391 107q13 6 30 16t37 25t37 28t40 32.5t35.5 30.5t35 31 t27.5 24q-14 4 -21 18q-38 -4 -69 -20q-43 -21 -89 -78.5t-63 -106.5z" glyph-name="uniE017" horiz-adv-x="904" unicode="ca"/><glyph d="M399 -38q-33 0 -50.5 18t-17.5 51q0 44 51.5 140t93.5 152q-92 -50 -237 -146q-9 -6 -53.5 -37t-80 -54.5t-80.5 -51.5t-81 -44t-56 -16q-25 0 -42 13.5t-17 37.5q0 17 9 31q53 83 182.5 243.5t165.5 160.5q22 0 38.5 -17t16.5 -39q0 -14 -6 -48t-11 -45q-16 -14 -30 -14 q-18 0 -32 27q4 35 8 46q2 6 2 9q-26 -12 -63 -46q-46 -41 -126 -147q-113 -148 -68 -147q49 4 165.5 70.5t253 155.5t168.5 107q12 7 39.5 31t46.5 30q27 8 60 8q23 0 37 -14t14 -38q0 -14 -12.5 -35.5t-14.5 -29.5q-1 -5 -8 -5h-4q-8 -4 -13 -4q-12 0 -31 13t-19 24 q0 5 5 8q-57 -18 -109.5 -87t-82.5 -142q-24 -59 -24 -86q0 -11 3 -21q10 -2 14 -2q73 0 238 90t220 152q31 0 25 -27q-4 -2 -78 -50t-149.5 -95.5t-154 -88.5t-105.5 -41z" glyph-name="uniE018" horiz-adv-x="864" unicode="cc"/><glyph d="M457 -41q-13 0 -21 26q7 21 28.5 60.5t53.5 91.5t58 92.5t60.5 93t41.5 63.5q-148 -184 -269 -308q-35 -38 -58 -39q-17 -1 -34.5 13t-18.5 31q-2 35 52.5 111.5t97.5 120.5q-26 -12 -53 -26.5t-48 -26.5t-52 -31.5t-46.5 -29t-50 -34t-45.5 -31.5t-49.5 -35.5t-44 -32.5 t-48 -36.5t-44.5 -33.5q-24 -18 -49 -19t-40 14.5t-16 40.5q-1 38 26 87q37 66 129 178t132 114q22 2 40.5 -12.5t19.5 -36.5q1 -12 -6 -36.5t-15 -32.5l-15 -15q-11 -4 -20 -5q-14 -1 -20.5 9t-7.5 26q4 9 3 18q-68 -39 -136 -123.5t-65 -151.5v-4q49 15 76 29 q41 21 178.5 110t256 155t172.5 69q29 2 46 -15q107 124 138 166q27 38 77 113t59 89q25 37 85 120.5t91 129.5q3 4 14.5 21.5t21.5 30.5t17 13q13 0 29.5 -12.5t17.5 -24.5q1 -7 -9 -19q-1 -8 -10 -10q-80 -89 -223 -268q-122 -152 -149 -188q-81 -112 -201.5 -312 t-133.5 -273q-13 -13 -23 -14zM365 120q17 8 39 24t39.5 31t45 42.5t39.5 40t40.5 43t30.5 33.5l-4 3q0 3 -5 3q-2 0 -7.5 -1.5t-11.5 -3.5t-7 -2q-56 -18 -119 -86.5t-80 -126.5z" glyph-name="uniE019" horiz-adv-x="884" unicode="cd"/><glyph d="M261 -24q-37 16 -37 109q0 26 7 48q-41 -31 -151 -86.5t-149 -55.5q-28 0 -48.5 16.5t-20.5 43.5q0 33 51.5 117t116.5 156.5t97 72.5q22 0 42 -16.5t20 -37.5q0 -13 -8 -36t-9 -26q-3 -13 -13 -16q-5 -2 -17 -9.5t-19 -7.5q-8 0 -12.5 9t-4.5 18q0 5 -2.5 12t-2.5 11 t7 16q-6 -5 -19.5 -13.5t-19.5 -13.5q-44 -37 -93 -107.5t-49 -115.5q0 -8 30 -8q49 0 139.5 44t156.5 87q34 62 54 91q38 56 97 109.5t107 53.5q16 0 29 -17t13 -34t-31.5 -49t-81.5 -68t-82 -58t-62 -41q-19 -47 -19 -66q0 -61 37 -61q65 0 172 72.5t150 133.5q12 6 20 -1 t5 -24q-16 -18 -132.5 -112.5t-140.5 -107.5q-90 -47 -127 -32zM337 243q15 13 45 35t53.5 42t38.5 43q-85 -42 -137 -120z" glyph-name="uniE01A" horiz-adv-x="646" unicode="ce"/><glyph d="M669 -279q-20 0 -36 15t-16 35q0 44 67.5 120.5t123.5 120.5q44 34 114 71q23 47 93 217q5 13 16 38t16 37q-9 -9 -25 -21.5t-36 -26.5t-28 -20q-248 -187 -371 -262q-160 -99 -227 -99q-29 0 -45.5 17.5t-16.5 47.5q0 41 63 148q-143 -78 -152 -83q-31 -15 -89.5 -40.5 t-83.5 -37.5q-82 -38 -108 -38q-34 0 -53.5 24t-19.5 59q0 25 14 57q18 36 46 74q51 69 125.5 152t92.5 83t36.5 -15t18.5 -32q0 -12 -8 -48t-13 -40l-9.5 -9.5t-13.5 -11t-13 -3.5q-11 0 -20.5 17t-9.5 29q0 7 6 19q-37 -25 -62 -49q-38 -37 -79.5 -104t-41.5 -107 q0 -13 7 -21q2 0 7 -1t8 -1q56 0 186.5 53t194.5 93q20 12 51 36q5 4 20.5 18t23.5 21q62 88 94 111q48 34 76 34q20 0 35.5 -20.5t15.5 -40.5q0 -47 -86 -106q-25 -17 -74 -32t-53 -8q-74 -112 -74 -170v-10l1 1l4 2q18 -5 36 -5q69 0 191 71q115 68 254.5 171t223.5 186 q21 21 23 24q4 7 10 22t10 22q5 8 11 8q10 0 26.5 -13t16.5 -24q8 -11 8 -17q0 -3 -3 -5q-28 -16 -55 -61q-26 -41 -49.5 -86.5t-54.5 -111.5t-43 -90q17 9 91 40t130 62.5t76 62.5q11 6 20 -4.5t7 -21.5q-23 -23 -174 -99.5t-178 -94.5q-16 -40 -63.5 -115.5t-109 -144.5 t-96.5 -69zM479 250q55 18 85 66q-34 -17 -85 -66zM691 -207q86 31 199 228h-1q-69 -44 -128 -105.5t-70 -122.5z" glyph-name="uniE01B" horiz-adv-x="1263" unicode="ces"/><glyph d="M444 -129q-16 -2 -39 16.5t-24 35.5q-1 15 22 54q71 100 204.5 291.5t196.5 280.5q-152 -145 -258 -234q-49 -43 -126 -103.5t-178 -135t-191 -126t-132 -51.5q-33 -1 -56.5 20.5t-24.5 55.5q-4 50 60.5 162.5t150 206.5t133.5 95q26 1 44 -17.5t20 -44.5q1 -8 -11 -46.5 t-18 -54.5q-15 -12 -28 -12q-28 0 -38 33q-1 24 17 59q-74 -20 -172.5 -152t-93.5 -208q0 -4 5 -22q7 -3 31 -3q51 0 132 45q338 182 739 567q1 1 30.5 27.5t42.5 41.5q16 17 31.5 38.5t34.5 50t29 41.5l102 134q34 44 74.5 91.5t90.5 105.5t77 90q3 3 14 18t19.5 25.5 t19.5 20.5t18 10q15 0 35 -13.5t22 -28.5q1 -20 -30 -51q-62 -63 -174.5 -184.5t-160.5 -171.5q-7 -7 -77.5 -78t-100.5 -105q-19 -22 -39.5 -50t-44.5 -62.5t-37 -52.5q-9 -13 -43 -61.5t-46.5 -66.5t-41.5 -60t-45 -67t-39.5 -61.5t-42 -69t-36.5 -65.5q44 44 96 95 t137.5 132t153 133t91.5 52q20 0 43 -19t24 -39t-20.5 -64t-48 -88t-47 -100t-17.5 -98q2 -16 5 -25.5t11.5 -16.5t23.5 -7q48 1 128 56t141.5 113.5t101.5 105.5q12 7 21.5 -0.5t5.5 -25.5q-3 -3 -58.5 -61t-89.5 -91t-88.5 -81.5t-96.5 -73t-71 -24.5q-45 -1 -74 28 t-32 75q-4 52 19.5 115t54 127t36.5 105q-92 -38 -215 -155t-196 -218l-22 -33q-23 -33 -39.5 -54t-24.5 -21zM1006 780q212 218 304 338q-53 -46 -111 -108t-96 -109t-97 -121z" glyph-name="uniE01C" horiz-adv-x="1320" unicode="ch"/><glyph d="M780 -137q-15 0 -24 23q72 229 330 605q-48 -49 -103.5 -102.5t-124.5 -118.5t-106 -101q-1 -1 -35.5 -34.5t-44 -42.5t-41 -38.5t-48.5 -43.5t-43 -35.5t-47 -36.5t-41 -26q-29 -17 -55 -17q-27 0 -44 19.5t-19 47.5q0 22 11.5 59t27.5 72t42 85t42.5 80t43 76t31.5 55 q-63 -58 -168.5 -144t-235.5 -171.5t-182 -85.5q-28 0 -50 18.5t-23 46.5q0 9 5.5 25.5t13.5 34.5t18 38.5t18 35.5t15 27.5t7 13.5q20 37 55.5 89.5t90.5 108.5t92 56q19 0 34.5 -16t16.5 -36q0 -25 -56.5 -83.5t-116.5 -106t-91 -67.5q-36 -72 -36 -100l4 -15h2 q9 -3 20 -3q51 0 138 46t180 115.5t164.5 128.5t123.5 107q15 30 77 120q322 486 387 535q12 9 29 9q50 0 52 -49q0 -34 -80 -140t-159.5 -195.5t-123.5 -133.5q-43 -44 -98 -96q-7 -7 -21 -19t-25.5 -22.5t-19.5 -20.5q-9 -11 -19 -27.5t-22 -38.5t-17 -30 q-41 -73 -63 -114.5t-53.5 -120t-30.5 -121.5q2 -23 9 -31q1 0 4 -0.5t5 -0.5q35 0 89 31q32 18 68 44.5t58.5 46.5t63 57t56.5 51q2 2 209 194q18 18 56 53.5t57 54.5q4 4 33 32.5t42 44.5q11 13 22 29.5t24.5 37t20.5 30.5q81 121 236.5 326.5t188.5 205.5q14 0 30 -15.5 t17 -29.5q0 -21 -20 -41q-42 -51 -94.5 -110.5t-87 -97t-102 -110t-91.5 -99.5q-8 -8 -48.5 -49.5t-57.5 -63.5q-14 -18 -29 -39.5t-32.5 -49t-26.5 -41.5q-182 -271 -252 -459q-27 -79 -29 -113q-11 -13 -23 -13zM46 287q10 10 34.5 32t41 39t29.5 36q-20 -12 -41 -32.5 t-31.5 -33t-32.5 -41.5zM631 507q25 21 109 105q100 103 196.5 225.5t118.5 202.5q-37 -22 -87.5 -75t-90.5 -103.5t-98 -134t-80.5 -117.5t-67.5 -103zM1241 678q122 140 185 209q118 128 165 208q-43 -35 -90.5 -85t-98 -115t-82 -107.5t-79.5 -109.5z" glyph-name="uniE01D" horiz-adv-x="1315" unicode="ell"/><glyph d="M344 -26q-14 0 -32 12.5t-18 25.5q0 7 33.5 63.5t71 118.5t43.5 74q-18 -9 -35 -20t-43.5 -31t-32.5 -24q-82 -58 -209.5 -131t-174.5 -73q-25 0 -41.5 19.5t-16.5 44.5q0 48 31 112q32 63 104.5 156t114.5 93q25 0 40 -15.5t15 -39.5q0 -34 -76.5 -106t-110.5 -72 q-12 0 -25 15q-43 -69 -43 -120q0 -19 7 -26q3 0 8.5 -0.5t8.5 -0.5q148 0 466 260q43 34 53 34q14 0 29.5 -17t15.5 -31q0 -6 -5 -13q-12 -16 -47 -61t-63 -83.5t-42 -65.5q16 11 88.5 75.5t139.5 120.5t81 56q15 0 33 -15t18 -29q0 -9 -65 -107.5t-65 -133.5q0 -43 110 28 q103 68 179 147q28 29 36 46q12 6 22 0t9 -21q-43 -47 -62 -63q-6 -5 -36 -31t-50 -43t-54 -43t-58.5 -41.5t-51.5 -27.5t-46 -12q-28 0 -40.5 11t-12.5 38q0 13 18 48t41 74.5t27 47.5q6 13 22 59q-49 -25 -134.5 -102t-124.5 -127q-1 -1 -12.5 -17.5t-21 -26t-16.5 -9.5z M28 257q24 5 49 28.5t41 49.5q-30 -11 -90 -78z" glyph-name="uniE01E" horiz-adv-x="933" unicode="en"/><glyph d="M211 -283q-20 0 -36 15t-16 35q0 44 67.5 120.5t123.5 120.5q44 34 114 71q23 47 93 217q5 13 16 38t16 37q-9 -9 -25 -21.5t-36 -26.5t-28 -20q-248 -187 -371 -262q-160 -99 -227 -99q-29 0 -45.5 17.5t-16.5 47.5q0 51 85 184t133 169q48 34 76 34q20 0 35.5 -20.5 t15.5 -40.5q0 -47 -86 -106q-9 -6 -29 -21t-35 -24t-33 -14q-24 9 -30 19q-104 -159 -66 -179q10 -5 33 -3q81 7 191 71q115 68 254.5 171t223.5 186q21 21 23 24q4 7 10 22t10 22q5 8 11 8q10 0 26.5 -13t16.5 -24q8 -11 8 -17q0 -3 -3 -5q-28 -16 -55 -61 q-26 -41 -49.5 -86.5t-54.5 -111.5t-43 -90q17 9 90.5 39.5t129 62t75.5 62.5q6 7 19.5 1t10.5 -20q-6 -10 -49 -40t-67 -40q-166 -73 -237 -120q-16 -40 -63.5 -115.5t-109 -144.5t-96.5 -69zM21 246q55 18 85 66q-34 -17 -85 -66zM233 -211q86 31 199 228h-1 q-69 -44 -128 -105.5t-70 -122.5z" glyph-name="uniE01F" horiz-adv-x="807" unicode="es"/><glyph d="M398 -256q-15 0 -18 32q195 377 350 614q60 92 185 270.5t184 269.5h-6q-37 -40 -110 -119.5t-111 -118.5q-277 -290 -618 -549q-154 -117 -266 -169q-113 -53 -104 93q1 27 18.5 70.5t35.5 69.5q35 51 103.5 115t109.5 63q21 -1 35 -20.5t12 -41.5q0 -14 -10 -26 q-29 -34 -115 -99t-115 -65q-10 -26 -11 -48q0 -97 179 12q56 34 119 82q431 329 808 751q-232 0 -381 -7q-39 -2 -109.5 -8t-95.5 -8q-12 -1 -51.5 -4.5t-61.5 -3.5q-19 0 -26.5 6.5t-6.5 26.5q0 14 2.5 25t9 17.5t9.5 10.5t15.5 5.5t16 2t21 0t21.5 -0.5q10 0 22 -6.5 t18 -7.5q2 -3 6.5 -8.5t6.5 -8.5q124 -6 375 -6h232q71 79 144 173q4 5 8.5 16.5t8.5 18.5t10 7h4q5 5 12 5q13 0 33 -16t19 -29q0 -6 -9 -13q-23 -23 -44 -47.5t-51 -63.5t-40 -51h102q263 0 396 11q23 -13 23 -26q0 -15 -25 -25q-231 13 -515 15q-396 -499 -608 -911 q-79 -149 -120 -261q-16 -14 -26 -14zM12 220q46 23 92 73q-54 -30 -92 -73z" glyph-name="uniE020" horiz-adv-x="1024" unicode="et"/><glyph d="M-3 -20q-49 0 -82.5 20t-30.5 67q1 27 18.5 70.5t35.5 69.5q35 51 103.5 115t109.5 63q21 -1 35 -20.5t12 -41.5q0 -14 -10 -26q-29 -34 -115 -99t-115 -65q-10 -26 -11 -48q0 -30 17 -38t58 -9q87 -4 237 63.5t224 138.5l103.5 144t96.5 133.5t53 73.5q86 121 146 211 q-261 -12 -439 -37q-5 -5 -15 -11q-24 -6 -26 -6q-6 0 -19 1.5t-20 1.5q-18 0 -63.5 -11t-52.5 -11q-19 0 -19 41q0 11 4 18q4 18 15 18q4 0 11.5 -3t10.5 -3q22 0 69 8.5t65 8.5q11 0 29 -8q9 -5 13 -12q226 15 451 24q4 6 14.5 22t16.5 26q14 22 35 66.5t28 57.5 q16 8 25 8q23 0 32 -35q-7 -31 -64 -102q-1 -1 -13 -18t-16 -22q74 3 322 10q10 16 39 62t46 70q33 52 84.5 123t67.5 71q13 0 30 -15.5t17 -28.5q0 -15 -19 -39q-23 -27 -70 -80.5t-70 -80.5q-12 -15 -73 -80q137 3 404 7q28 0 84 2q57 6 59 6q16 0 16 -27h-6 q2 -22 -12 -22q-10 0 -31 4t-27 5q-28 3 -84 7q-89 5 -212 5q-103 0 -205 -3q-35 -38 -59 -68q-15 -20 -31 -45t-35.5 -56.5t-29.5 -46.5q-194 -288 -215 -322q-88 -141 -185.5 -333.5t-97.5 -274.5q0 -12 3 -22l3 1q4 -7 4 -17q0 -26 -32 -44q-28 13 -28 58q0 41 51 158 q38 84 81.5 167.5t101 178.5t93 152t110.5 172.5t100 155.5q-176 -189 -261 -283q-124 -140 -165 -184q-30 -32 -64 -65.5t-80 -77.5t-66 -63q-14 -13 -60.5 -60.5t-81 -79.5t-63.5 -52q-18 -14 -44 -14q-20 0 -33 17t-13 37q0 49 211 352q-108 -66 -242 -123.5t-189 -57.5z M12 220q46 23 92 73q-54 -30 -92 -73zM283 -170q40 12 139 96q42 36 87.5 77t79 72t85.5 83.5t75.5 76.5t82.5 87t73 78t80.5 88t74.5 81l90 99q46 46 65 71l42 66l9 13q-170 -6 -250 -10l-76 -3q-29 -43 -178.5 -242.5t-233.5 -318.5q2 -5 -3 -10q-8 -8 -13 -12 q-198 -284 -229 -392z" glyph-name="uniE021" horiz-adv-x="1244" unicode="ett"/><glyph d="M313 -108q-13 13 -13 30q0 72 266 301q18 82 84 217q-114 -90 -173 -135t-159.5 -111t-190.5 -109q-110 -55 -151 -55q-70 0 -70 72q0 56 61 147.5t144.5 161.5t140.5 70q18 0 32 -17t14 -35q0 -24 -28 -50q-47 -46 -150 -121t-144 -75q-19 -46 -19 -76q0 -23 30 -23 q193 0 553 299q104 87 140 127q1 2 2 6.5t2.5 8.5t3.5 8t4.5 6.5t5.5 2.5q6 0 12 -4q11 4 28.5 -13t17.5 -28q0 -4 -5 -9q-43 -34 -81.5 -99.5t-55.5 -124.5q225 194 316 194q20 0 37 -14t17 -34q0 -39 -67 -132t-151.5 -171.5t-126.5 -78.5q-43 0 -63 33.5t-20 80.5 q0 22 3 44q-195 -173 -205 -246l2 -1q1 -33 -43 -47zM19 259q43 10 110 60t93 89q-49 -3 -107 -50.5t-96 -98.5zM595 160q0 -26 10 -52.5t32 -26.5q59 0 137.5 79t120.5 152q36 63 36 75q0 7 -25 7q-99 0 -303 -171q-8 -34 -8 -63z" glyph-name="uniE022" horiz-adv-x="1101" unicode="ex"/><glyph d="M452 -256q-7 0 -19 2l-2 11q-4 102 372 728q-49 -55 -150 -166t-151 -167q-7 -8 -47 -54.5t-59 -67.5t-53.5 -58.5t-62.5 -63.5t-53 -45q-31 -20 -52 -21q-17 -1 -31 15t-15 33q-1 20 44 111t113 211.5t114 199.5t79 135q-42 -48 -90.5 -102t-107 -119t-91.5 -101 q-15 -17 -62.5 -70.5t-73 -82.5t-65.5 -70t-72 -69q-30 -28 -55 -29q-17 -1 -29.5 16t-13.5 34q0 7 4 19q7 14 53 97q13 24 45 82t50 89q21 36 37 87q3 7 8 8q1 0 2.5 -0.5t2.5 -0.5q12 2 34 -13t22 -25q0 -2 -3 -8q-40 -40 -62 -73q-3 -4 -23.5 -35.5t-26.5 -41t-23 -36.5 t-24.5 -42.5t-17.5 -38t-17 -42.5q29 11 72 44.5t82.5 70t94.5 94.5t86.5 93t82.5 92.5t59 66.5q9 10 42.5 46t50 54t41.5 47.5t42 52.5q10 13 22.5 34t27.5 48t21 37q237 379 267 380q14 1 31 -14.5t18 -29.5q0 -8 -27.5 -44.5t-67.5 -83.5l-40 -48q-49 -59 -145 -179 q-7 -9 -41 -48.5t-44 -56.5q-79 -120 -225.5 -390t-147.5 -333q54 13 133 80q34 29 74 68.5t63 64.5t71 78t63 69q177 192 208 227q2 2 25.5 28.5t34.5 40.5q4 5 36 59l81 124q123 190 216 323q105 154 139 188q7 9 16 9q14 1 31 -13.5t18 -28.5t-63.5 -101t-157 -201.5 t-158.5 -194.5t-103 -124q-5 -6 -18.5 -21.5t-19.5 -23.5q-10 -14 -26.5 -42.5t-19.5 -32.5q-67 -113 -77 -131q-272 -462 -267 -567q0 -3 0.5 -6l1 -6t1.5 -4.5t3 -1.5q-6 -27 -35 -29zM102 567q3 4 11 12q2 0 9 2t10 2q15 1 25 -10.5t11 -27.5q0 -7 -8 -18q-44 -2 -58 40z M636 767q11 15 46.5 60t52 67t43 58.5t46.5 67.5q-74 -76 -188 -253zM943 676q44 54 125.5 157.5t99.5 125.5q3 4 17.5 22.5t19 24t17.5 22.5t18.5 24.5t16.5 23t17.5 25.5t15 23.5t15.5 26t13 25.5q-100 -78 -375 -500z" glyph-name="uniE023" horiz-adv-x="996" unicode="ill"/><glyph d="M449 -108q-13 -1 -30.5 13t-18.5 27q-1 15 136.5 209.5t150.5 241.5q-47 2 -143 -46t-203 -118t-210.5 -140t-183.5 -119.5t-103 -49.5q-21 0 -37.5 15.5t-16.5 36.5q0 39 67.5 136t126.5 169q6 8 19.5 33t19.5 31q3 3 9 3q16 0 32.5 -9.5t16.5 -23.5q0 -7 -25 -32 q-68 -61 -134 -145t-73 -145q43 -1 150.5 58t219 133t236 150t187.5 101q46 17 60 18q25 1 40 -12t16 -37q0 -12 -6 -24q-10 -18 -25.5 -38t-37 -44t-30.5 -35q-102 -130 -161 -232q45 44 216.5 184.5t191.5 141.5q14 1 32 -13t19 -27q0 -8 -27.5 -47.5t-60.5 -85.5 t-59.5 -101t-25.5 -91q0 -9 3.5 -13t10 -3t11 2.5t14.5 5.5q90 33 175 105t191 192q15 8 23 2.5t8 -22.5q-15 -19 -95 -97.5t-184 -164t-144 -87.5q-29 -1 -46 15.5t-19 45.5q-1 36 36.5 122.5t66.5 132.5q5 8 19 27t20 31q-71 -34 -182.5 -129.5t-173.5 -168.5 q-2 -3 -19 -25.5t-31.5 -39.5t-18.5 -17zM83 478q5 6 16 16l22 19q9 9 21 11q15 2 20 1q44 -12 18 -45q-6 -3 -8 -10t-12 -11q-12 -5 -13 -9l-7 -12q-42 -1 -57 40z" glyph-name="uniE024" horiz-adv-x="1191" unicode="in"/><glyph d="M1102 -116q-11 0 -17 25q116 284 360 651q32 47 138 194t154 227q-47 -49 -116 -137q-59 -75 -177.5 -234t-215 -278.5t-193.5 -220.5q-8 -8 -30 -31.5t-38 -39.5t-32 -29q-15 -12 -36 -12q-48 0 -48 47q0 36 51 121q-281 -201 -337 -201q-59 0 -59 65q0 50 48 159 t53 127q-134 -94 -248 -225q-14 -16 -40 -51t-40 -52q-7 -9 -16 -9q-13 0 -31 15.5t-18 28.5q0 7 43 77t89 152.5t53 115.5q-149 -73 -507 -446q-29 -27 -55 -27q-17 0 -25.5 14t-8.5 32q0 15 7 25q33 59 197 322q23 37 34 64q15 36 18 40q4 6 12 6q11 0 25 -8 q6 3 15.5 -9.5t9.5 -19.5q0 -4 -17.5 -23.5t-39 -42.5t-25.5 -28q-125 -163 -175 -295q24 11 67 44.5t77.5 64.5t83.5 76t61 56q86 78 152 132l19 17q20 17 36 30.5t35 26.5t28 13q16 0 33.5 -10.5t17.5 -25.5q0 -21 -20 -53q-14 -21 -52.5 -78.5t-63.5 -99t-45 -83.5 q9 8 101 94q22 20 65.5 60.5t78 72.5t63.5 63q22 24 40 24q14 0 31 -14.5t17 -28.5q0 -5 -33 -61t-66 -129.5t-33 -118.5q0 -17 5 -17v1q4 2 28 6t31 6q44 14 103.5 47.5t91.5 55t95 65.5q2 1 15.5 10t18.5 14q9 8 26.5 31.5t25.5 31.5q24 25 95 83q39 35 51 35 q13 0 27.5 -17t14.5 -30q0 -21 -27 -37q-9 -6 -77 -43.5t-89 -56.5q-24 -22 -52 -75.5t-32 -84.5q65 21 177.5 135.5t227.5 262.5t222.5 293.5t183 245t88.5 99.5q12 0 29 -14.5t17 -26.5q0 -5 -6 -13q-64 -76 -146 -178q-363 -460 -523 -818q-47 -103 -55 -158 q-14 -14 -21 -14zM222 655v6q7 8 24.5 34.5t32.5 36.5q10 2 17 2q30 0 30 -38q-9 -18 -34 -43l-29 -29q-2 0 -6 -0.5t-6 -0.5q-29 0 -29 32z" glyph-name="uniE025" horiz-adv-x="1604" unicode="ind"/><glyph d="M239 -906q-43 0 -62 28.5t-18 72.5t20 90.5t48 88.5t74.5 87.5t89 82.5t102.5 79t104 71.5t104.5 64.5t92.5 53.5t79 43.5q105 156 240 393q-8 -7 -50 -46.5t-76 -70.5t-72 -59t-53 -28q-12 0 -24 9t-16 20q-5 -3 -35 -23.5t-48.5 -32t-46.5 -27.5t-50 -24t-38 -8 q-30 0 -50.5 22.5t-19.5 53.5q0 43 17 87.5t43 96.5t37 82q-54 -25 -148 -97.5t-138 -121.5q-3 -3 -17.5 -22.5t-28 -34.5t-17.5 -15q-12 0 -25.5 16t-12.5 28v3q-6 8 -6 14q0 5 4 8t11.5 5.5t9.5 3.5q127 149 173 246q-27 -16 -158 -110.5t-246 -172.5t-137 -78 q-25 0 -39.5 12.5t-13.5 36.5q0 10 6.5 26.5t19 38.5t24 41t29.5 45.5t28 40.5t27 37.5t19 26.5q26 36 30 46q3 6 3 13q0 3 6.5 13t13.5 21.5t9 15.5q3 7 11 7q12 0 35.5 -19.5t23.5 -30.5q0 -4 -3.5 -7.5t-9 -6.5t-7.5 -6q-7 -18 -18 -25.5t-17 -14.5l-15 -5 q-35 -35 -94.5 -116t-60.5 -108v-1q140 17 507 312q15 12 22 17q43 33 58 33q16 0 31.5 -19t15.5 -35q0 -7 -7 -16q-13 -16 -42 -46t-42 -45q-40 -45 -85 -106q269 211 301 225q6 3 10 3q16 0 34.5 -17t18.5 -33q0 -7 -34 -51t-68.5 -105.5t-35.5 -109.5q0 -20 11 -34 q5 -3 17 -3q61 0 203 85q22 59 118 168t153 139q22 13 55 13q15 0 25 -13t14 -29q1 0 4 1l4 1q5 0 18 -8q10 0 26.5 -14t16.5 -24q0 -2 -14.5 -15.5t-30.5 -28t-19 -17.5q-35 -37 -77.5 -95t-68 -97.5t-75 -119t-60.5 -97.5q249 150 351.5 226t178.5 156q17 18 30.5 21.5 t17.5 -6.5t-2 -29q-51 -64 -274 -207t-322 -191q-475 -749 -647 -749zM118 548v6q8 8 22 31.5t28.5 37.5t32.5 14q33 0 33 -43q-7 -16 -18.5 -29t-28.5 -28.5t-24 -23.5q-5 -1 -14 -1q-31 0 -31 36zM209 -789q0 -27 9.5 -50t32.5 -23q71 0 176 110q174 178 426 576 q-639 -356 -644 -613zM892 157q110 79 171 141q2 2 18 22.5t23 25.5q-54 -12 -116 -71.5t-96 -117.5zM928 146q77 45 147 111q-88 -72 -139 -106q-5 -1 -8 -5z" glyph-name="uniE026" horiz-adv-x="1456" unicode="ing"/><glyph d="M174 -177q-18 0 -33.5 16.5t-16.5 35.5q-2 112 248 217q4 11 13.5 31t13.5 31q9 21 58 153q-10 -10 -25 -20.5t-34.5 -23t-26.5 -17.5q-11 -8 -104 -68.5t-140 -93.5q-14 -10 -40 -28t-35 -25q-19 -13 -76.5 -58t-91.5 -67q-24 -16 -46 -16q-20 0 -36 16t-16 35 q0 20 8 39q34 75 190 281q17 21 43 86q4 10 15 10q13 0 21 -6l5 4l3 2q7 -1 14.5 -12.5t7.5 -18.5q0 -4 -4 -12q-9 -15 -34.5 -42t-33.5 -38q-4 -6 -42.5 -55.5t-58.5 -78t-43 -70t-25 -66.5q30 7 52 17q26 12 56.5 29.5t47.5 29t55 37.5t48 32q28 19 90 59t97.5 63.5t85 61 t87.5 72.5q3 3 10 9t12 11.5t9 10.5q2 3 8 16.5t12 23.5t10 10q10 0 27 -15t19 -25q7 -9 7 -14q0 -1 -7.5 -7t-15.5 -12t-9 -8q-16 -14 -35.5 -50.5t-31.5 -64.5t-32 -78.5t-22 -56.5q202 76 285 161q21 4 28 -7t-1 -31q-109 -67 -155 -93q-70 -39 -183 -85q-39 -73 -46 -83 q-30 -46 -88.5 -100t-97.5 -54zM123 534q4 3 15 15t16 16t16 8.5t23 4.5q10 0 20 -7.5t10 -17.5t-7 -22q-7 -6 -10 -12q-2 -4 -17.5 -13t-20.5 -15h-5q-37 0 -40 43zM196 -110q28 13 56.5 38t43.5 44t41 55q-136 -77 -141 -137z" glyph-name="uniE027" horiz-adv-x="717" unicode="is"/><glyph d="M605 -204q-15 0 -27.5 16t-12.5 32q0 18 39 57q110 120 229 193q23 46 74 165q46 111 49 118q-50 -31 -143.5 -91t-169.5 -107t-145 -86q-23 -77 -88 -154.5t-135 -106.5q-30 -13 -47 -13q-21 0 -38.5 12.5t-17.5 32.5q0 26 14 46q11 15 33 34t41.5 33.5t54.5 36t51.5 31 t54 30.5t40.5 23q9 21 35 104q32 108 53 160q-14 -11 -89 -64q-161 -113 -280 -201q-63 -46 -179.5 -136.5t-135.5 -104.5q-57 -43 -88 -43q-22 0 -38 14.5t-16 37.5q0 17 15 47q21 39 102 163q80 124 112 161q4 11 36 54t41 64q5 11 16 8q2 2 6 2q10 0 24 -14t14 -25 q0 -4 -8 -12t-19 -16.5t-13 -10.5q-12 -12 -25.5 -42t-22.5 -42q-1 0 -8.5 -1.5t-11.5 -1.5q-7 0 -11 2q-36 -45 -72.5 -95t-77 -120t-40.5 -103q0 -5 1 -7q23 0 63 17q29 13 76 43.5t84.5 57.5t91.5 67t72 53q31 22 101 71t111.5 79t97.5 75.5t97 85.5q1 2 3.5 8t4.5 11.5 t5 11.5t6 9.5t5 3.5q8 0 21 -11t15 -18q14 -14 14 -19q0 -3 -3 -5q-30 -20 -50 -59q-44 -93 -67 -167q-6 -21 -20 -65q64 32 213 127q6 4 33 21t36.5 23t32.5 21t36 24t32 22.5t34.5 25.5t30.5 25q8 7 12.5 10.5t9 8.5t6.5 7t5 7.5t4 8t5 11.5t6 14q5 9 11 9q9 0 25.5 -11.5 t16.5 -19.5v-2q5 -10 5 -12q0 -4 -4 -8q-38 -28 -62 -70q-20 -35 -39 -75t-42 -92t-35 -77q16 10 73 41t95.5 54.5t62.5 45.5q16 0 21.5 -10.5t-2.5 -22.5q-28 -14 -191 -105q-65 -36 -81 -47q-43 -86 -82.5 -145t-96.5 -100q-52 -38 -75 -38zM119 550q22 37 40 43 q38 -4 38 -31q0 -8 -3 -17q-6 -4 -16 -14.5t-15 -14.5q-5 -1 -13 -1q-29 0 -31 35zM237 -127h5q60 0 114.5 59t89.5 130q-55 -34 -83.5 -52.5t-69.5 -58t-56 -78.5zM639 -138q57 34 93.5 74.5t72.5 105.5q-51 -38 -103 -90t-63 -90z" glyph-name="uniE028" horiz-adv-x="1115" unicode="iss"/><glyph d="M481 -256q-15 0 -18 32q195 377 350 614q60 92 185 270.5t184 269.5h-6q-38 -40 -111 -119.5t-110 -118.5q-54 -56 -143 -140.5t-216.5 -194.5t-247.5 -202t-235 -154.5t-180 -60.5q-33 2 -55 23t-21 53t20 73t61 107t42 67q-8 21 28 57q0 1 1 3.5t2 3.5t3 2.5t4 1.5h4 q5 5 11 3q12 0 28.5 -16.5t16.5 -28.5q0 -4 -3.5 -8t-7.5 -9t-6 -8q-4 -6 -10 -10.5t-15 -9l-13 -6.5q-27 -18 -66.5 -92t-41.5 -108q-1 -22 14 -31t38 -9q109 0 310 139q134 92 375 308.5t484 484.5q-232 0 -381 -7q-39 -2 -109.5 -8t-95.5 -8q-12 -1 -51.5 -4.5 t-61.5 -3.5q-19 0 -26.5 6.5t-6.5 26.5q0 14 2.5 25t9 17.5t9.5 10.5t15.5 5.5t16 2t21 0t21.5 -0.5q10 0 22 -6.5t18 -7.5q2 -3 6.5 -8.5t6.5 -8.5q124 -6 375 -6h232q71 79 144 173q4 5 8.5 16.5t8.5 18.5t10 7h4q5 5 12 5q13 0 33 -16t19 -29q0 -6 -9 -13 q-23 -23 -44 -47.5t-51 -63.5t-40 -51h102q263 0 396 11q23 -13 23 -26q0 -15 -25 -25q-231 13 -515 15q-396 -499 -608 -911q-79 -149 -120 -261q-16 -14 -26 -14zM109 463q0 1 2 8.5t2 11.5q1 16 2.5 20.5t12 11t18.5 13.5l1 5q11 11 21 24l6 1q11 0 29.5 -22.5 t17.5 -34.5q0 -4 -4 -6.5t-9.5 -5t-7.5 -4.5q-4 -3 -12 -13t-15 -17t-12 -7q-7 0 -18 -2.5t-18 -2.5q-16 1 -16 20z" glyph-name="uniE029" horiz-adv-x="1041" unicode="it"/><glyph d="M-67 -60q-33 2 -55 23t-21 53t20 73t61 107t42 67q-8 21 28 57q0 1 1 3.5t2 3.5t3 2.5t4 1.5h4q5 5 11 3q12 0 28.5 -16.5t16.5 -28.5q0 -4 -3.5 -8t-7.5 -9t-6 -8q-4 -6 -10 -10.5t-15 -9l-13 -6.5q-27 -18 -66.5 -92t-41.5 -108q-1 -22 14 -31t38 -9q121 0 342 162 q67 49 123 102q6 5 10 6q43 60 96 133t88.5 122t48.5 68q86 121 146 211q-261 -12 -439 -37q-5 -5 -15 -11q-24 -6 -26 -6q-6 0 -19 1.5t-20 1.5q-18 0 -63.5 -11t-52.5 -11q-19 0 -19 41q0 11 4 18q5 18 15 18q4 0 11.5 -3t10.5 -3q22 0 69 8.5t65 8.5q11 0 29 -8 q9 -5 13 -12q226 15 451 24q4 6 14.5 22t16.5 26q14 22 35 66.5t28 57.5q16 8 25 8q23 0 32 -35q-7 -31 -64 -102q-1 -1 -13 -18t-16 -22q74 3 322 10q10 16 39 62t46 70q33 52 84.5 123t67.5 71q13 0 30 -15.5t17 -28.5q0 -15 -19 -39q-23 -27 -70 -80.5t-70 -80.5 q-12 -15 -73 -80q137 3 404 7q28 0 84 2q57 6 59 6q16 0 16 -27h-6q2 -22 -12 -22q-10 0 -31 4t-27 5q-28 3 -84 7q-89 5 -212 5q-103 0 -205 -3q-35 -38 -59 -68q-15 -20 -31 -45t-35.5 -56.5t-29.5 -46.5q-194 -288 -215 -322q-88 -141 -185.5 -333.5t-97.5 -274.5 q0 -12 3 -22l3 1q4 -7 4 -17q0 -26 -32 -44q-28 13 -28 58q0 41 51 158q38 84 81.5 167.5t101 178.5t93 152t110.5 172.5t100 155.5q-176 -189 -261 -283q-124 -140 -165 -184q-30 -32 -64 -65.5t-80 -77.5t-66 -63q-14 -13 -60.5 -60.5t-81 -79.5t-63.5 -52 q-18 -14 -44 -14q-20 0 -33 17t-13 37q0 49 210 351q-120 -88 -243 -155t-190 -65zM109 463q0 1 2 8.5t2 11.5q1 16 2.5 20.5t12 11t18.5 13.5l1 5q11 11 21 24l6 1q11 0 29.5 -22.5t17.5 -34.5q0 -4 -4 -6.5t-9.5 -5t-7.5 -4.5q-4 -3 -12 -13t-15 -17t-12 -7q-7 0 -18 -2.5 t-18 -2.5q-16 1 -16 20zM222 -170q40 12 139 96q42 36 87.5 77t79 72t85.5 83.5t75.5 76.5t82.5 87t73 78t80.5 88t74.5 81l90 99q46 46 65 71q7 9 14 20t15 25t13 21l9 13q-170 -6 -250 -10l-76 -3q-25 -38 -191 -258t-302 -421t-164 -296z" glyph-name="uniE02A" horiz-adv-x="1183" unicode="itt"/><glyph d="M-258 -948q-19 0 -35.5 14t-16.5 32q1 62 55.5 149.5t136.5 173t154.5 151.5t133.5 114q68 53 122 90q6 4 40 28t65 45.5t32 22.5q12 14 43.5 68t35.5 60q8 12 29 46t31.5 51.5t27.5 45.5t29.5 53t23.5 49q-15 -14 -63 -57t-73 -68q-85 -83 -111 -106q-28 -26 -57 -26 q-17 0 -27.5 17t-9.5 36q0 25 35.5 75.5t81 106t56.5 73.5q-214 -141 -504 -409q-7 -6 -58.5 -55t-79.5 -72q-27 -22 -55 -22q-38 0 -38 49q0 11 5.5 28.5t16.5 41.5t22 46.5t29 54t30 53t32 54.5t28.5 47t26 42t18.5 29q-19 7 -17 30q0 9 1 13q13 17 48.5 42.5t48.5 40.5 q8 9 16 21t18 28t14 23q106 160 198 293l173 250q88 129 109 163l6 11q6 11 10 17.5t10.5 15.5t12.5 13.5t11 4.5q13 0 30.5 -14.5t17.5 -27.5q0 -5 -5.5 -16t-14 -25.5t-9.5 -15.5q-71 -124 -236 -338q-179 -234 -313 -404q-4 -5 -21 -28.5t-30.5 -41t-29 -35.5t-23.5 -23 h-8q-3 -5 -19 -31.5t-24.5 -40.5t-25.5 -42.5t-27.5 -48t-25 -47.5t-23.5 -49t-18 -44t-13.5 -42t-4.5 -34q59 25 85 42q44 29 90 65.5t118 99t85 73.5q45 38 158.5 129t173.5 143q6 5 18 17.5t20 18.5q7 5 12 5q12 0 28.5 -16t16.5 -28q0 -6 -8 -14q-63 -55 -91 -85 q-101 -112 -129 -188q72 21 250 199q14 14 36 41t34 39q5 5 11 5q12 0 30.5 -14.5t18.5 -26.5q0 -1 -14 -20q-45 -51 -86.5 -110.5t-100 -153t-75.5 -120.5q24 18 86 62.5t94 69.5q28 22 53 40t60 46q15 12 54.5 40.5t67 51t48.5 47.5q14 8 23 -2t4 -23q-14 -16 -48 -40.5 t-78 -54t-57 -38.5q-78 -57 -177.5 -128t-155.5 -111q-104 -158 -172.5 -256t-175 -226.5t-211.5 -225.5q-110 -102 -144 -102zM-249 -898q40 14 51 20q52 30 155 129q120 117 221 253t227 330q-155 -108 -224 -162q-57 -45 -122.5 -106t-138 -139t-120.5 -159t-49 -141 q0 -3 0.5 -10t0.5 -11q0 -3 -1 -4zM90 365q108 115 279.5 343t218.5 335q-72 -71 -199 -246q-84 -114 -299 -432z" glyph-name="uniE02B" horiz-adv-x="942" unicode="ly"/><glyph d="M1227 -28q-38 0 -58.5 27.5t-20.5 65.5q0 22 6 47t17 57t15 46q-83 -37 -165 -148q-5 -9 -14 -9q-12 0 -28.5 16t-16.5 29q0 4 45 69.5t48 87.5q-57 -31 -137.5 -107t-111.5 -130q-5 -9 -14 -9q-10 0 -26 12t-16 22q-3 4 -3 12q0 6 6.5 11t16 10t12.5 8q30 23 98.5 125.5 t75.5 138.5q-75 -29 -144 -83q-44 -33 -157 -126q-4 -3 -23.5 -19.5t-27 -22.5t-23.5 -18t-29 -20.5t-26 -15.5q-27 -15 -53 -15q-25 0 -41 17t-16 42q0 28 13.5 63t34.5 76t28 61q-41 -21 -127.5 -103t-133.5 -135q-2 -2 -8 -9.5t-11 -14t-11.5 -13.5t-12 -11t-9.5 -4 q-14 0 -32 14.5t-18 27.5t26 50q5 8 22.5 37t27.5 46t24.5 43t23.5 47t14 38q1 4 3 19t5 23q-45 1 -134.5 -60.5t-166 -139.5t-89.5 -122q-6 -10 -11 -10q-6 0 -8 1q-2 -2 -8 -2q-10 0 -25.5 13t-15.5 23q0 5 18 21t40 33t26 22q18 18 64.5 94.5t63.5 110.5q15 32 22 41 q14 17 33 17q13 0 21 -11t8 -25q0 -8 -9 -19q-4 -6 -32 -34q-32 -32 -84 -104q10 8 48 39t55 44t48 36t57 40.5t53 32.5q20 13 48 13q20 0 33 -16.5t13 -37.5q0 -18 -16.5 -49t-43 -70.5t-30.5 -47.5q-16 -27 -48 -83q34 23 77.5 58.5t72.5 61.5t81 73.5t68 61.5q13 9 23 9 q14 0 32 -11t18 -24q0 -8 -27.5 -47t-54.5 -88t-27 -81q0 -11 4 -15q4 1 17 2.5t19 3.5q26 7 55 23q33 16 74 45q9 7 68 53.5t108.5 84.5t101 72t66.5 34q18 0 33 -13.5t15 -31.5q0 -22 -12 -40q-15 -23 -34 -47.5t-45.5 -55t-37.5 -44.5q6 5 38.5 33t59.5 51t56 43t40 20 q13 0 27.5 -16.5t14.5 -30.5q0 -13 -67 -97q10 6 42.5 32t62 46t42.5 20q15 0 32 -14t17 -29q0 -6 -32 -68t-32 -96q0 -25 7.5 -34.5t32.5 -9.5q62 0 189.5 86.5t181.5 148.5q17 5 23 -3t1 -26q-16 -13 -67.5 -57t-88 -72.5t-86 -64t-92 -53.5t-75.5 -18zM279 347q1 -2 2 -2 h2q-2 2 -4 2z" glyph-name="uniE02C" horiz-adv-x="1613" unicode="mm"/><glyph d="M456 -71q-44 0 -70 28.5t-24 73.5q2 34 26.5 90t57.5 95q-115 -22 -175 -14q-26 3 -51 9.5t-60.5 18t-50.5 15.5q-13 -45 -97.5 -159t-118.5 -114q-14 0 -31 16t-17 31q0 24 76 154q14 25 56 82q1 5 23.5 30.5t26.5 25.5q9 0 29 -17q8 10 23 20.5t25 10.5q3 0 16 -10.5 t29.5 -23t26.5 -16.5q71 -27 140 -31q30 -2 63 2t53.5 10t50.5 15t39 12q85 66 114 66q10 0 16 -17.5t6 -29.5q-1 -7 -9 -17q-2 -10 -24 -10q-10 -6 -34.5 -13.5t-35.5 -14.5q-46 -27 -91.5 -90t-46.5 -112q-1 -33 13.5 -46.5t48.5 -13.5q27 0 62 12.5t81.5 41.5t72 45 t78 55t54.5 40l8 6q16 12 23 -4q6 -15 -8 -29l-105 -72q-6 -4 -33 -23t-41.5 -28.5t-42 -27.5t-47 -28.5t-43.5 -21.5t-44.5 -16.5t-37.5 -5.5zM-90 61q38 22 77.5 68t51.5 87q-9 -11 -40 -14q-28 -27 -53 -66.5t-36 -74.5z" glyph-name="uniE02D" horiz-adv-x="900" unicode="oc"/><glyph d="M615 -213q-9 18 -9 32q-1 56 88.5 226.5t171 302t144.5 226.5q-86 -89 -272.5 -277.5t-283.5 -289.5q-30 -32 -88.5 -97t-89.5 -97q-10 -12 -27 -12q-16 0 -32 9.5t-16 24.5q0 23 50 116.5t128 221.5t126 204.5t89 140.5q-111 -95 -254.5 -189t-241.5 -117 q-35 -120 -191 -270q-34 -34 -50 -34q-14 0 -28 18.5t-14 33.5q-1 8 29 63q62 129 86 166q8 12 28.5 39t29.5 43q0 1 8 15t14 21.5t12 7.5q11 0 29 -11q36 -2 45 -36q92 5 217.5 79t236.5 163q76 63 89 77q12 15 41 61.5t34 53.5q166 244 217 290q10 8 16 8q13 0 27.5 -17 t14.5 -30q0 -9 -6 -18q-16 -20 -47.5 -56.5t-43.5 -51.5q-97 -113 -146 -165q-12 -12 -44.5 -43t-48.5 -49q-11 -12 -21.5 -28.5t-25.5 -41t-19 -31.5q-282 -427 -328 -591q31 17 96 73q32 28 67.5 61t61.5 58.5t66.5 65.5t60 59.5l66 66t60.5 61.5q130 128 220 222 q91 91 118 125q8 9 61 89q17 25 47.5 72t56.5 85t50 70q14 19 38.5 54l31.5 45q8 10 17 10q13 0 31 -13t19 -26q0 -17 -66 -96t-153.5 -174.5t-94.5 -103.5q-81 -98 -238.5 -362t-196.5 -374q-22 -60 -21 -98q0 -23 8 -25q-1 -36 -43 -36h-7zM-121 -6q47 24 98 94t62 123 q-10 3 -19 9q-84 -85 -141 -226zM718 666q117 124 185 225q-12 -10 -23 -20.5t-23.5 -24.5t-20.5 -23t-22 -26.5t-19.5 -24.5t-20.5 -28t-18.5 -25.5t-20 -27.5t-17.5 -25z" glyph-name="uniE02E" horiz-adv-x="1101" unicode="oll"/><glyph d="M-152 -75q-19 0 -36 12t-17 30q0 32 54 109t110 146.5t58 80.5q-3 9 1 28q2 3 5 7t5 7q3 12 22 22t33 10q17 0 34 -9.5t22 -24.5h14q57 0 207 63t208 63q32 0 52.5 -16t20.5 -47q0 -44 -79 -128q24 20 73 56t72 55q8 6 15 6q14 0 33.5 -17t19.5 -30q0 -6 -4 -12 q-11 -18 -39 -50.5t-32 -37.5q-7 -10 -20.5 -29t-21.5 -28q30 10 69.5 37t89 66t64.5 50q11 7 25 7q19 0 37 -10t18 -27q0 -19 -23.5 -61.5t-47.5 -91.5t-24 -85q0 -35 50 -35q67 0 183.5 77t146.5 138q6 6 15.5 5.5t13.5 -7.5t-3 -25q-48 -46 -109.5 -97t-143.5 -102 t-127 -51q-36 0 -58.5 23t-22.5 59t34.5 116.5t34.5 102.5v1q-20 -10 -79 -54.5t-111 -82t-64 -37.5q-16 0 -30.5 18.5t-14.5 35.5q0 9 7 19q8 10 31.5 40.5t38.5 52.5t24 45q-64 -31 -138.5 -97t-115.5 -126q-16 -24 -29 -54q-7 -14 -18 -14q-10 0 -26 9t-17 18q-6 7 -6 17 q0 9 9 16q46 35 66 60q6 8 27.5 33.5t30 36.5t26.5 34.5t27.5 39t22 37t20.5 41.5t13 41q-19 12 -49 12q-51 0 -201 -61.5t-184 -68.5q-20 -66 -59 -130q-33 -52 -117 -144.5t-116 -92.5zM-147 -14q0 -3 1 -3h1q0 3 -2 3zM-144 3q70 24 144.5 113.5t83.5 162.5l-9 -1 q-59 -47 -81 -71q-37 -39 -87.5 -107.5t-50.5 -94.5v-2z" glyph-name="uniE02F" horiz-adv-x="1255" unicode="om"/><glyph d="M534 -84q-34 -2 -56 17.5t-23 52.5q-3 46 27 102t71.5 116t54.5 96q-44 -20 -128 -89t-115 -109q-22 -30 -37 -55q-3 -4 -17.5 -24t-22.5 -33.5t-12 -26.5q-5 -9 -19.5 -9t-30 11t-16.5 25q0 5 6 11q65 62 126 134q25 29 76 116t57 115h-25q-68 -3 -192 -41t-157 -45 q5 -12 7 -31q2 -44 -32 -113t-83.5 -123t-86.5 -56q-55 -3 -58 40q-2 33 49 131.5t87 141.5q4 5 13 20t17 24.5t17 13.5q5 13 12 13q9 0 29.5 -4.5t31.5 -3.5q61 4 270 69q77 26 103 28q28 2 48 -14t21 -43q1 -8 -2.5 -18.5t-11.5 -23.5t-12.5 -20.5t-15.5 -22.5t-12 -16 q115 97 143 98q16 1 31.5 -13t16.5 -30q1 -19 -26 -61t-59.5 -84.5t-59 -94t-24.5 -87.5q1 -14 8 -17t25 -2q83 5 195 99.5t168 181.5q14 11 23 6t9 -23q-36 -55 -73 -92q-46 -46 -72 -70t-80.5 -70t-100.5 -70.5t-82 -26.5zM-104 9q0 -3 3 -8.5t5 -4.5q42 2 96.5 90.5 t51.5 140.5q-1 16 -11 26q-42 -37 -94.5 -122t-50.5 -122z" glyph-name="uniE030" horiz-adv-x="915" unicode="on"/><glyph d="M-207 -781q-13 0 -32 10.5t-18 22.5q0 2 17 25t36.5 49t23.5 33q188 311 255 412q69 102 124 170q3 4 8.5 10.5t10 12t8.5 10.5q7 10 19.5 32t19.5 32q80 126 144 220q-4 12 -4 16q0 17 34 45t35 50q0 13 -63.5 -3.5t-161 -46.5t-140.5 -39q5 -12 7 -31q3 -45 -32 -125 t-90.5 -146.5t-102.5 -69.5q-31 -1 -51.5 19t-22.5 51q-3 40 59 133t116 159q4 5 13 20t17 24.5t17 13.5q5 13 12 13q9 0 29.5 -4.5t31.5 -3.5q42 3 201.5 49.5t171.5 47.5q29 2 51 -14.5t18 -42.5q-2 -13 -9 -27t-14.5 -25t-19.5 -25t-18.5 -21t-18 -18t-12.5 -12 q-6 -6 -22 -6q-77 -94 -121 -156q30 34 75 78.5t103.5 97t115 87t89.5 33.5q30 -1 49.5 -20.5t18.5 -49.5q0 -11 -3 -22.5t-6.5 -21.5t-10.5 -24t-11.5 -22.5t-14.5 -23.5t-14.5 -22t-16.5 -22.5t-15.5 -19.5t-16 -20t-13.5 -17q85 27 189 77.5t146 92.5q8 8 24.5 -6 t8.5 -24q-37 -41 -169.5 -98t-241.5 -95q-64 -78 -123.5 -131.5t-132.5 -87.5q-44 -17 -56 -16q-23 1 -41.5 19t-17.5 41q2 24 18 44q25 32 63 58.5t91.5 47.5t86 31.5t90.5 27.5q107 139 110 216q0 12 -1 19h-5q-37 0 -108 -39q-78 -43 -146.5 -108t-151.5 -159 q-1 -1 -22.5 -25t-30.5 -37q-14 -19 -70 -121q-105 -186 -175 -294q-3 -4 -18 -27.5t-27 -43t-30.5 -49t-32 -53.5t-27 -48.5t-21 -42t-7.5 -25.5q0 -7 -9.5 -13t-17.5 -6zM-122 -6q1 -5 4.5 -11.5t6.5 -5.5q53 3 113.5 99t57.5 151q-1 16 -11 26q-50 -44 -111.5 -129 t-59.5 -130zM-89 -548q141 221 231 377q-123 -174 -231 -377zM316 -126q99 9 219 143q-41 -15 -63 -24t-58.5 -27.5t-60.5 -41t-37 -50.5z" glyph-name="uniE031" horiz-adv-x="995" unicode="op"/><glyph d="M530 -73q-38 2 -60.5 30.5t-20.5 66.5q1 46 35 112q-50 -35 -135 -120q-7 -6 -24 -24t-30 -29.5t-26 -19.5q-7 -4 -15 -4q-15 1 -30.5 18.5t-14.5 32.5q0 10 26.5 55t59.5 96.5t39 62.5q24 44 25 62q0 3 2 5q-8 8 -32 8q-21 1 -46 -1t-42 -5.5t-47 -10t-43 -8.5 q3 -34 -104 -155t-149 -147q-11 -8 -24 -6q-21 1 -37 15.5t-15 35.5q1 14 14.5 43t37 68t43 70t44.5 69.5t29 44.5q6 6 9 5h2q4 24 32.5 35t57.5 10q39 -2 57 -37q25 -2 106.5 15.5t114.5 15.5q29 -2 47 -21t17 -48q-1 -23 -24 -55q-10 -14 -42.5 -56.5t-47.5 -67.5l-9 -18 t-11 -21t-10 -15q13 6 25 15.5t30 25.5t23 20q113 92 190 163q6 19 13 19q1 0 3 -1h2q2 0 4.5 0.5t3.5 0.5q12 -1 29.5 -17t16.5 -26q0 -3 -6.5 -9t-15 -13.5t-9.5 -8.5q-31 -28 -61 -78.5t-32 -86.5q-2 -43 38 -46q38 -2 131 49t180.5 117t117.5 106q19 7 25 -2.5t-2 -27.5 q-61 -67 -229 -189.5t-236 -117.5zM-109 25q106 61 175 171q4 8 11 23.5t10 22.5q-31 -5 -41 -4q-1 -2 -5 -4q-11 -18 -29 -41q-20 -5 -25 -4q-23 -19 -55 -75.5t-41 -88.5zM362 270v-1v1z" glyph-name="uniE032" horiz-adv-x="975" unicode="ou"/><glyph d="M-219 -260q-23 -2 -42.5 12.5t-21.5 37.5q-2 26 20.5 60.5t60 68.5t66.5 57t58 43q2 9 14 67.5t23 88.5q-3 7 -3 15q-2 20 24 39q21 51 59 105.5t74 57.5q20 1 36 -15t18 -36q1 -8 -6 -19.5t-19 -24t-22.5 -22.5t-25 -22t-17.5 -15q-11 -10 -31.5 -36t-34.5 -37 q-5 -16 -10 -36.5t-9.5 -45.5t-7.5 -36q357 163 524 318q3 3 10 9t12 11.5t9 10.5q2 3 8 16.5t12 23.5t10 10q10 0 27 -15t19 -25q7 -9 7 -14q0 -1 -7.5 -7t-15.5 -12t-9 -8q-16 -14 -35.5 -50.5t-31.5 -64.5t-32 -78.5t-22 -56.5q202 76 285 161q21 4 28 -7t-1 -31 q-109 -67 -155 -93q-70 -39 -183 -85q-39 -73 -46 -83q-30 -46 -88.5 -100t-97.5 -54q-18 0 -33.5 16.5t-16.5 35.5q-2 112 248 217q4 11 13.5 31t13.5 31q9 21 58 153q-13 -13 -46 -34.5t-40 -26.5l-4 -3q-67 -51 -206.5 -130t-228.5 -120q-4 -17 -26 -65q-17 -40 -75 -113 t-87 -75zM-193 -167q48 39 84 104q-57 -57 -84 -104zM233 -110q28 13 56.5 38t43.5 44t41 55q-136 -77 -141 -137z" glyph-name="uniE033" horiz-adv-x="760" unicode="ss"/><glyph d="M-243 -218q-17 0 -28.5 17t-11.5 35q0 9 11.5 32.5t33 58t43.5 69.5t52 79t48.5 71.5t42.5 62t26 37.5q136 197 151 220q-8 8 -11 24q5 11 11 22q11 16 36 44.5t34 40.5q10 13 56.5 73.5t65.5 85t52 71t58 84.5q-131 -10 -246 -25q-8 -8 -17 -8q-15 0 -44.5 -1.5 t-44.5 -1.5t-15 30q0 47 31 47q8 0 23.5 -1.5t22.5 -1.5q5 0 13 2t13 2q6 0 22.5 -9.5t20.5 -14.5q98 0 238 7q29 45 99.5 158t110.5 174q4 5 14 21.5t16 25.5q7 9 14 9q12 0 29.5 -16t17.5 -28q0 -7 -8 -15q2 -6 -11 -11q-86 -94 -246 -316q390 22 584 24q94 141 170 239 q8 10 32 44t39 50q7 7 14 7q13 0 31.5 -15.5t18.5 -28.5q0 -20 -101.5 -125.5t-170.5 -170.5q75 1 213.5 -1t197.5 -2h52q20 -9 20 -19t-24 -17q-39 10 -85 16t-102 8t-93 2t-102.5 -0.5t-87.5 -0.5q-69 -94 -227 -314.5t-245 -336.5q-14 -19 -52.5 -69t-58 -76t-49 -67 t-52.5 -76q25 17 133.5 116.5t206.5 187.5t109 88q12 0 30.5 -17t18.5 -30q0 -3 -3 -7.5t-8 -10t-9.5 -10t-10 -9.5t-6.5 -6q-42 -44 -91.5 -135.5t-49.5 -141.5q0 -13 4.5 -18.5t10 -6t20.5 -0.5q68 0 144 37q55 25 173 103t145 114q12 6 22 -3.5t5 -21.5 q-30 -19 -144.5 -107.5t-204.5 -139t-160 -50.5q-33 0 -55 21.5t-22 54.5q0 45 42 130.5t83 147.5q-34 -24 -72 -56.5t-63 -56t-67.5 -64.5t-62.5 -60q-13 -13 -49 -46.5t-55 -52.5q-1 -2 -8.5 -10t-13 -14t-13 -13.5t-14 -11.5t-10.5 -4q-12 0 -28 14t-16 26q0 6 3 10 q15 25 77 97q16 18 127 156q105 130 239 324q40 58 123.5 172t123.5 172q-80 -74 -244 -224t-246 -226q-440 -405 -699 -616q-33 -27 -60 -27zM-222 -143q38 11 90 42.5t78.5 52t79.5 62.5q102 82 557 491t472 441q-57 -1 -114.5 -3t-127 -6.5t-109.5 -7t-127.5 -9.5 t-114.5 -9q-145 -205 -203 -293q-10 -15 -17.5 -32t-16.5 -40t-14 -34q-5 -12 -3 -24t0 -23t-12 -14l-29 -7q-15 -23 -121 -167t-181 -258t-87 -162z" glyph-name="uniE034" horiz-adv-x="1225" unicode="th"/><glyph d="M133 -408q-28 13 -28 58q0 41 51 158q38 84 81.5 167.5t101 178.5t93 152t110.5 172.5t100 155.5q-176 -189 -261 -283q-124 -140 -165 -184q-30 -32 -64 -65.5t-80 -77.5t-66 -63q-14 -13 -60.5 -60.5t-81 -79.5t-63.5 -52q-18 -14 -44 -14q-20 0 -33 17t-13 37 q0 23 45 100.5t117 181.5t140 199t135.5 188t81.5 113q86 121 146 211q-261 -12 -439 -37q-5 -5 -15 -11q-24 -6 -26 -6q-6 0 -19 1.5t-20 1.5q-18 0 -63.5 -11t-52.5 -11q-19 0 -19 41q0 11 4 18q4 18 15 18q4 0 11.5 -3t10.5 -3q22 0 69 8.5t65 8.5q11 0 29 -8 q9 -5 13 -12q226 15 451 24q4 6 14.5 22t16.5 26q14 22 35 66.5t28 57.5q16 8 25 8q23 0 32 -35q-7 -31 -64 -102q-1 -1 -13 -18t-16 -22q74 3 322 10q10 16 39 62t46 70q33 52 84.5 123t67.5 71q13 0 30 -15.5t17 -28.5q0 -15 -19 -39q-23 -27 -70 -80.5t-70 -80.5 q-12 -15 -73 -80q137 3 404 7q28 0 84 2q57 6 59 6q16 0 16 -27h-6q2 -22 -12 -22q-10 0 -31 4t-27 5q-28 3 -84 7q-89 5 -212 5q-103 0 -205 -3q-35 -38 -59 -68q-15 -20 -31 -45t-35.5 -56.5t-29.5 -46.5q-194 -288 -215 -322q-88 -141 -185.5 -333.5t-97.5 -274.5 q0 -12 3 -22l3 1q4 -7 4 -17q0 -26 -32 -44zM-223 -170q40 12 139 96q42 36 87.5 77t79 72t85.5 83.5t75.5 76.5t82.5 87t73 78t80.5 88t74.5 81l90 99q46 46 65 71l42 66l9 13q-170 -6 -250 -10l-76 -3q-25 -38 -191 -258t-302 -421t-164 -296z" glyph-name="uniE035" horiz-adv-x="738" unicode="tt"/><glyph d="M691 -234q-7 0 -11 9t-4 16q12 34 31 73.5t33.5 67.5t40 73.5t36.5 66.5q115 208 204 348q-4 -4 -311 -335q-170 -179 -222 -228q-51 -46 -76 -47q-24 -1 -37.5 11.5t-12.5 34.5q1 25 19 70t52 106t67.5 117.5t82 130.5t77.5 118t71.5 107t48.5 72q-208 -216 -373 -375 q-200 -193 -269 -244q-27 -20 -52 -21q-20 -1 -33 17.5t-11 39.5q1 54 88 216q-72 -71 -204 -229q-38 -44 -56 -45q-14 0 -31 16t-16 30q0 14 39.5 80.5t88 143t56.5 90.5l-1 16q3 6 6.5 14.5t5 11.5t6 8.5t11.5 12.5q3 12 15 10q3 2 12 4q11 0 26 -13.5t15 -24.5 q0 -7 -7 -12q-47 -44 -81 -92q-86 -121 -119 -205q29 18 65.5 53.5t91.5 97t59 66.5q68 65 79 79q10 14 23 43t19 39q6 9 15 9q15 1 31 -9.5t15 -24.5q0 -1 -0.5 -3t-1.5 -4.5t-1 -3.5q3 -7 -4 -11q-36 -31 -56 -64q-89 -140 -114 -203q-18 -45 -19 -77l1 -5q46 16 117 67 t131 102.5t147.5 136t123 121t101.5 104.5q2 2 34 33t50.5 51t28.5 33q24 32 85 130q111 172 197 291q113 162 142 163q15 1 30.5 -12.5t15.5 -28.5q-1 -19 -46.5 -82t-114 -142.5t-115 -131.5t-81.5 -91q-11 -12 -42 -44t-47 -50q-15 -19 -41 -59.5t-36 -54.5 q-1 -1 -46.5 -68.5t-65.5 -98.5t-65.5 -102.5t-71 -117t-56 -103.5t-45 -100.5t-15.5 -71.5v-4q50 12 110 63q44 34 100.5 88t97 95.5t105 110t88.5 93.5l120 128q3 3 15 16t17 21q16 20 69 108q69 107 156 251q306 536 399 539q16 1 32.5 -12t16.5 -30q-1 -40 -73.5 -148.5 t-182.5 -243t-184.5 -222.5t-134.5 -156q-9 -10 -25.5 -27.5t-30 -32t-23.5 -28.5q-4 -6 -22 -34q-94 -146 -217 -367.5t-137 -305.5q-11 -17 -19 -18zM415 -130l2 -1v-1h1q0 2 -3 2zM915 745q254 276 315 402q-46 -35 -115.5 -122.5t-102.5 -136t-97 -143.5zM1139 572 q508 577 544 747q-20 -7 -42.5 -23t-47 -42t-46.5 -51t-48.5 -63t-45 -64t-44.5 -68.5t-38 -62t-35.5 -58t-26.5 -44.5q-73 -123 -170 -271z" glyph-name="uniE036" horiz-adv-x="1194" unicode="ull"/><glyph d="M-102 20q-16 0 -29.5 15.5t-13.5 31.5q0 27 109 167q12 15 33 49.5t35 50.5q9 3 18 3q25 0 27 -37q-17 -24 -44 -50q-30 -28 -65 -76t-48 -83q46 16 129.5 84t117.5 113q3 4 22 34q1 1 6.5 11.5t10.5 17.5t8 7q7 0 20.5 -11.5t16.5 -18.5q10 -10 10 -18q0 -1 -30 -25 q-31 -26 -63.5 -79.5t-39.5 -92.5q40 11 125 76t158.5 123t90.5 58q14 0 29.5 -14.5t15.5 -28.5q0 -22 -67 -114q4 4 20.5 21.5t29.5 30.5t30.5 28.5t32 24t24.5 8.5q16 0 33 -12t17 -27q0 -23 -24.5 -76.5t-24.5 -80.5q0 -1 0.5 -3.5t0.5 -4.5v1l1 2q60 0 134 46.5 t117 100.5q37 -8 37 -45v-5q-28 -9 -84.5 -50t-112 -75t-91.5 -34q-26 0 -42.5 16.5t-16.5 42.5t16.5 70.5t19.5 63.5q-87 -57 -182 -184q-6 -8 -16 -8q-13 0 -29 12.5t-16 24.5q0 3 28 44.5t58.5 91t35.5 69.5h-1q-42 -21 -91.5 -57.5t-75 -58.5t-81.5 -72q-2 -2 -18 -16 t-22 -19.5t-18.5 -14.5t-23.5 -14q-14 -7 -26 -7q-22 0 -34.5 14.5t-12.5 36.5q0 25 31 77q-164 -155 -205 -155z" glyph-name="uniE037" horiz-adv-x="881" unicode="un"/><glyph d="M826 -199q-22 0 -30 27q21 23 42 50.5t47.5 66.5t39 58t44.5 69.5t36 56.5q316 484 476 725l-26 -1q-258 -260 -428 -408q-167 -146 -437 -356q-18 -36 -58.5 -93t-93.5 -110.5t-84 -52.5q-17 1 -32 17t-14 32q2 24 18 42q25 29 60.5 56.5t87 61.5t69.5 47 q20 40 50.5 118t44.5 108q-147 -98 -295 -229q-14 -12 -45.5 -39.5t-50.5 -44t-47 -38t-52 -37.5q-63 -38 -92 -37q-20 1 -36.5 18t-15.5 38q2 60 78 180q-22 -19 -73.5 -60t-89 -74t-67.5 -68q-28 -32 -54 -31q-16 1 -30.5 17.5t-13.5 32.5q1 15 28 51q13 17 41 52.5 t44.5 56.5t38 52.5t37.5 59.5q62 110 75 109q11 -1 30 -16.5t18 -26.5q0 -5 -6 -13q-2 -10 -20 -23.5t-20 -16.5q-5 -5 -23 -25.5t-23.5 -27t-21.5 -25t-23 -27.5t-20.5 -26t-21.5 -28.5t-18.5 -27t-18.5 -30.5l-16 -30q56 31 201.5 155t181.5 173q2 3 10.5 15.5t16 22 t12.5 9.5q11 -1 26 -13t15 -22q7 -9 6 -17q0 -6 -7 -11q-43 -24 -80 -62q-51 -55 -100.5 -135t-50.5 -133q34 -1 100.5 36.5t118.5 77t128.5 101t86.5 69.5q102 78 152 117q2 2 12.5 9.5t14.5 12.5q4 4 14.5 22.5t21.5 33t19 14.5q11 -1 26 -18t15 -28q0 -4 -5 -9 q2 -8 -1 -10q-35 -20 -59 -51q-15 -22 -29.5 -50t-23 -47.5t-23 -54.5t-21.5 -50q435 315 809 713q-48 -2 -223.5 -9t-270.5 -13q-3 0 -48.5 -4.5t-69.5 -7.5q-18 -3 -70 -15t-81 -13q-26 11 -26 31q1 15 16 30q24 8 55 6q218 -8 734 11q6 7 40.5 44t59 63.5t49.5 58.5 t31 47q4 11 12 11l16 3q10 3 25.5 -13.5t14.5 -28.5q0 -7 -9 -14q-67 -57 -149 -167q30 1 99 4.5t107.5 4.5t96 3t107.5 1.5t99 -2.5l32 -1q17 -14 17 -22q0 -10 -24 -17q-62 17 -169 21q-16 3 -94 1.5t-94 -2t-94.5 -3.5t-94.5 -4q-42 -57 -88.5 -123t-80 -115 t-86.5 -129.5t-76.5 -117.5t-84 -130.5t-77.5 -120.5q-8 -12 -52 -78.5t-72 -114t-40 -79.5q-9 -27 -9 -38v-3q-14 -6 -23 -5zM402 -82q52 32 99 99q-62 -50 -99 -99zM1471 869h21l41 62z" glyph-name="uniE038" horiz-adv-x="1420" unicode="ust"/><glyph d="M-508 -662q-35 0 -57 27t-22 63q0 47 35.5 102.5t95 109t106 89t97.5 70.5q33 22 69 42.5t93.5 50.5t72.5 38h1q81 136 161 277q-7 -7 -65 -54q-4 -3 -57 -47t-84 -62q-17 -10 -34 -10q-19 0 -34 16t-15 36q0 10 6 19q9 14 31.5 37.5t30.5 34.5q47 64 61 94q19 43 27 43 q16 0 36 -17t20 -34q0 -2 -4 -6q-85 -69 -130 -143q67 26 136.5 79.5t121.5 114.5q13 18 32 25t34 -2.5t15 -35.5q0 -3 -6 -9.5t-12.5 -12.5t-15.5 -13t-10 -8q-34 -32 -68 -80.5t-82 -129t-56 -92.5q332 166 628 424q49 43 87 88q3 4 30 44q43 60 118.5 172t104.5 153 q34 49 155 190q37 46 49 45q14 -1 34 -21.5t20 -35.5q0 -4 -11 -20t-28.5 -38t-33 -41.5t-32 -39.5t-18.5 -23q-58 -70 -252 -275q-106 -108 -117 -122q-8 -10 -55 -80q-94 -133 -209 -348q-84 -160 -84 -198v-2q-1 0 -4 3.5t-3 4.5q2 -8 2 -13q0 -24 -32 -39q-18 13 -18 35 q0 24 23 62l66 115.5t74 129t65 108.5t77 120q-207 -175 -301 -237t-361 -205q-23 -32 -66 -102.5t-68 -104.5q-44 -62 -101.5 -133.5t-140.5 -149.5t-128 -78zM-526 -556q0 -18 9 -33t26 -14q29 0 72 28q164 108 377 462q-15 -9 -70.5 -40t-79 -45.5t-72.5 -45t-76.5 -54 t-63.5 -56t-60.5 -66.5t-42.5 -71q-19 -42 -19 -65zM851 581q72 75 110.5 117t93.5 112t91 132q-28 -23 -57.5 -53t-50.5 -54t-51 -64t-45 -60.5t-47.5 -67.5t-43.5 -62z" glyph-name="uniE039" horiz-adv-x="854" unicode="yl"/><glyph d="M216 -189q-14 0 -14 24v8q21 26 42 65q34 52 98 159.5t98 160.5q32 49 70 101t88.5 118.5t73.5 98.5q53 73 159 223q-267 -240 -434 -377q-26 -21 -95 -77.5t-94 -77t-75 -63t-91.5 -79.5t-90.5 -83q-3 -3 -11.5 -10t-15 -13t-10.5 -11q-3 -3 -18 -26t-26.5 -40t-27 -32 t-25.5 -15q-14 -1 -35 18.5t-23 33.5q0 7 23 26t56.5 41.5t34.5 23.5q14 23 26 51t25 66t20 55q-13 9 -17 32q1 3 1 7.5v5.5q3 7 13.5 14.5t26 16.5t18.5 11q82 155 120 154q15 -1 33 -19.5t19 -32.5q1 -13 -26 -43q-9 -10 -56 -53.5t-60 -66.5q-11 -18 -21 -41t-20.5 -52 t-16.5 -44q42 31 68.5 52t59 49t66.5 55q440 345 716 609q-299 -2 -426 -29q7 -12 7 -15q2 -19 -27 -27q-8 2 -28.5 4.5t-31.5 5.5t-21.5 13.5t-11.5 28.5q-3 42 15 42q20 -1 57 -5.5t54 -5.5q78 -3 225 2t207 5q17 15 40 45q17 25 57 74t58 76q6 9 18.5 28t18.5 28 q11 9 15 8q12 -1 27 -19.5t17 -31.5q0 -5 -2 -9l3 -9q-1 -5 -13.5 -9.5t-15.5 -6.5t-26 -22q-106 -98 -153 -152q299 2 482 -5q6 0 20 -0.5t21 -0.5q20 -11 19 -20q2 -13 -22 -13q-46 12 -126 14q-192 7 -409 7q-253 -311 -452 -624q-106 -164 -138 -222q-7 -12 -23.5 -39 t-26.5 -43.5t-21.5 -40.5t-17.5 -45q-10 -10 -21 -10z" glyph-name="uniFB06" horiz-adv-x="816" unicode="st"/><glyph glyph-name=".notdef" horiz-adv-x="600"/><glyph glyph-name="glyph1" horiz-adv-x="0"/><glyph glyph-name="glyph2" horiz-adv-x="333"/><glyph glyph-name="space" horiz-adv-x="600" unicode=" "/><glyph glyph-name="space" horiz-adv-x="600" unicode=""/><glyph d="M129 145q-28 0 -28 33q12 11 25 26t20 25t22 31.5t19 27.5q8 12 50.5 71t63.5 92l207 327l60 96q6 9 20.5 40t27.5 44q12 5 21 5q21 0 25 -32q-4 -12 -7 -18q-7 -13 -26 -33t-25 -29q-20 -30 -60.5 -84.5t-48.5 -65.5q-57 -80 -158 -244.5t-151 -236.5q-8 -12 -22.5 -37 t-23.5 -37q-4 -1 -11 -1zM-7 -5q0 15 7 22l-6 9q3 15 20 27.5t32 12.5q22 0 37 -19.5t15 -41.5q0 -18 -18 -39.5t-36 -21.5q-17 0 -34 17t-17 34z" glyph-name="exclam" horiz-adv-x="532" unicode="!"/><glyph d="M122 471q-28 0 -43 27q1 4 15.5 23t31.5 41t21 29q5 8 10.5 30t11.5 27q-2 14 11 14q15 0 35 -8.5t20 -21.5q0 -1 -2 -5q-51 -66 -96 -154q-10 -2 -15 -2zM178 493q1 3 17.5 25.5t36.5 49.5t26 40q-1 3 3 18q-1 8 8 17q5 13 10 14q4 0 10 -2q10 1 28 -9.5t18 -18.5 q0 -2 -2 -6q-48 -65 -66 -93q-6 -9 -16 -30t-16 -30h-8q-38 0 -49 25z" glyph-name="quotedbl" horiz-adv-x="392" unicode="&quot;"/><glyph d="M70 -58q-17 0 -22 29q22 27 57 79.5l43 64.5q-16 -2 -35 5.5t-21 23.5q-1 14 12 22.5t28 8.5q8 0 26 -2.5t25 -2.5q4 4 79 124q-7 -1 -31.5 -5t-45 -7t-27.5 -3q-14 0 -26.5 7.5t-13.5 20.5q-1 17 12 25t30 8q21 0 65 -0.5t66 -0.5q14 27 46 79q10 18 24.5 56t23.5 55 q10 5 20 5q22 0 30 -33q-4 -16 -103 -159q31 0 87.5 4.5t67.5 5.5q22 42 68 126q4 7 11.5 26.5t13.5 27.5q7 12 12 12q11 0 30 -13.5t20 -24.5q1 -4 -109 -151q1 0 109 9q18 -12 19 -24q1 -13 -12 -24q-30 3 -91 3q-8 0 -23.5 -0.5t-23.5 -0.5q-18 -28 -82 -140q20 0 42 1.5 t51 5t42 4.5q17 -13 18 -25q1 -13 -11 -25q-24 2 -51 2t-60 -1t-51 -1q-10 -21 -31 -73t-35 -78q-10 -5 -19 -5q-20 0 -24 29q25 51 67 126q-34 0 -97 -8.5t-85 -9.5l-99 -174q-10 -4 -16 -4zM217 170q30 -1 87.5 3t84.5 4q3 2 37.5 64t40.5 75q-67 0 -165 -17 q-52 -76 -85 -129z" glyph-name="numbersign" horiz-adv-x="749" unicode="#"/><glyph d="M49 -66q-19 0 -19 27q29 36 51 67q-24 8 -44.5 30t-20.5 46q0 35 15 59q4 1 11 1q32 0 43 -33q-8 -14 -8 -23q0 -25 33 -39l112 179q-42 14 -63.5 32t-21.5 57q0 46 46.5 90t97.5 68.5t100 38.5q5 9 13.5 31t17.5 38.5t19 26.5q12 4 19 4q23 0 27 -33q-6 -14 -23.5 -35.5 t-22.5 -28.5q21 -7 34 -24.5t13 -38.5q0 -8 -14 -23t-23 -15q-7 0 -10 5t-5.5 13.5t-6.5 12.5q-10 12 -26 12q-21 -33 -60 -98t-60 -98q152 -64 152 -132q0 -38 -27 -66t-69 -42.5t-81.5 -21t-73.5 -6.5q-36 0 -63 4q-22 -36 -45 -80q-8 -5 -17 -5zM137 63q9 -2 26 -2 q130 0 184 54q21 21 21 32q0 14 -8.5 26.5t-25 22.5t-29.5 16.5t-34 15.5t-26 11q-14 -24 -51.5 -83.5t-56.5 -92.5zM193 337q0 -6 3.5 -12t11.5 -11t13.5 -7.5t15.5 -7t12 -5.5q71 124 99 180q-29 -11 -49 -21t-48 -27.5t-43 -40t-15 -48.5z" glyph-name="dollar" horiz-adv-x="508" unicode="$"/><glyph d="M44 -69q-14 0 -26 16.5t-12 31.5q0 29 104 153t256 289t154 167q-112 -52 -172 -66q-1 -38 -46.5 -87.5t-82.5 -49.5q-22 0 -36.5 16.5t-14.5 38.5q0 27 44.5 80.5t69.5 53.5q10 8 19 8q8 0 22 -12q3 0 9 -0.5t9 -0.5q45 0 142.5 48.5t105.5 48.5q10 0 21 -16t11 -27 q0 -5 -6.5 -12t-13.5 -12t-17.5 -12t-11.5 -8q-116 -91 -296.5 -286t-212.5 -292q9 6 26.5 14t22.5 11q12 7 68.5 44.5t107 70.5t54.5 33l7 -1l3 20q9 4 21 4q28 0 48 -18.5t20 -46.5q0 -38 -36.5 -87.5t-73.5 -49.5q-24 0 -40 16.5t-16 40.5q0 15 13 43q-107 -66 -195 -137 q-33 -27 -49 -27zM229 453q24 13 36 24.5t19 33.5q-44 -18 -55 -58zM335 64q15 7 29.5 23.5t14.5 31.5v4q-10 -1 -26 -24.5t-18 -34.5z" glyph-name="percent" horiz-adv-x="567" unicode="%"/><glyph d="M23 -30q-21 31 -22 64.5t13 63.5t41 61.5t58.5 57.5t69.5 54t70 48.5t64 42t48 34.5q-5 50 -5.5 86.5t9 83t31.5 82.5q21 34 50 50.5t56 14t50 -21.5t32 -52q4 -15 4 -31t-3 -29.5t-12 -29.5t-15.5 -27.5t-22 -28t-24 -25.5t-27.5 -25.5t-27 -22.5t-28 -22.5t-25 -20.5 q28 -138 79 -210q13 8 37 27.5t47 37.5t50.5 38t51 31t45 14t36.5 -10.5t22 -43.5q-27 -17 -36 -13.5t-18.5 12.5t-17.5 6q-15 -3 -35 -13t-45 -28t-40.5 -29.5t-43.5 -34t-32 -25.5q1 -2 7 -8.5t8.5 -8.5t7.5 -7.5t8.5 -8t9 -6.5t10.5 -6t11 -4q8 -2 12.5 -4.5t9 -7 t8.5 -7.5q16 -21 0 -37.5t-42 -13.5q-52 18 -95 83q-26 -20 -48 -34.5t-68.5 -44t-81.5 -51.5q-170 -110 -242 0zM229 -19q83 47 131 82q43 31 86 68q-47 89 -73 218q-12 -8 -53 -35t-75.5 -50.5t-77.5 -59t-70.5 -67.5t-42 -70t-4.5 -72q11 -37 64.5 -42t114.5 28zM404 431 q9 9 42 38t54 50t40 50.5t18 53.5q-2 36 -31.5 48t-63.5 -16q-66 -56 -59 -224z" glyph-name="ampersand" horiz-adv-x="686" unicode="&amp;"/><glyph d="M78 467q-30 0 -47 29q1 4 35.5 48.5t41.5 62.5q0 5 2 17q-1 5 6 17h1q0 1 0.5 6t2.5 6.5t7 1.5q15 0 36 -10t21 -22q0 -2 -22 -31q-21 -28 -59 -93q-3 -5 -7.5 -15.5t-7.5 -15.5q-3 -1 -10 -1z" glyph-name="quotesingle" horiz-adv-x="214" unicode="'"/><glyph d="M-49 -547q-13 0 -26 13q66 360 288 787.5t477 689.5q31 32 86.5 94.5t80.5 88.5q93 99 94 100q19 19 57.5 47.5t50.5 39.5q25 21 44 28q33 -2 33 -27q0 -10 -5 -20q-14 -11 -41.5 -24.5t-38.5 -21.5q-82 -57 -173 -143q-170 -161 -319 -357q-80 -105 -176.5 -262 t-190.5 -336t-156.5 -356.5t-62.5 -292.5q0 -23 4 -33q-11 -15 -26 -15z" glyph-name="parenleft" horiz-adv-x="644" unicode="("/><glyph d="M-491 -666q-24 0 -24 13q0 7 10 19q110 37 288 220q202 207 329 411q146 234 255 536.5t109 537.5q0 88 -18 134q-15 39 -16 47q8 27 29 27q12 0 24 -7q16 -21 16 -145q0 -247 -111 -577.5t-256 -561.5q-108 -173 -292 -365.5t-343 -288.5z" glyph-name="parenright" horiz-adv-x="821" unicode=")"/><glyph d="M294 766q-17 0 -17 19q0 10 6 16q-15 -8 -34.5 -3t-19.5 25q0 12 4 19.5t14.5 10.5t16.5 3.5t21 0.5q-6 47 22 47q11 0 21 -7.5t13 -18.5q19 29 45 40q29 10 30 -31q0 -13 -23 -32q3 0 13 1t17 1.5t15.5 0t14 -3t7.5 -7.5q8 -18 -4 -36t-31 -13q-46 13 -65 15 q18 -46 -20 -46q-16 0 -22 12q-15 -13 -24 -13z" glyph-name="asterisk" horiz-adv-x="417" unicode="*"/><glyph d="M216 80q-9 0 -25 10t-19 18q-6 6 -6 10q0 6 18 24q10 12 19.5 41.5t9.5 45.5q0 15 -5.5 25t-17 17t-20.5 10t-27 7.5t-24 6.5q-3 -1 -7 3q-19 6 -19 39q0 27 13 27q7 0 21.5 -2.5t19.5 -2.5q49 -4 146 -4q3 19 32 57.5t35 57.5q5 8 19 7t29 -11.5t15 -22.5q0 -4 -3 -7 q-43 -48 -54 -65q-8 -13 -9 -14v-1q23 0 71 2.5t71 2.5q9 0 29 -2q14 -14 14 -25q0 -15 -18 -25q-13 1 -70 7.5t-88 6.5q-5 0 -15 -0.5t-15 -0.5q-49 -73 -88 -172q-1 -1 -7.5 -21.5t-13 -34.5t-11.5 -14zM230 318l1 -1q23 -16 34 -48q8 18 26 52q-31 0 -61 -3z" glyph-name="plus" horiz-adv-x="576" unicode="+"/><glyph d="M64 -50q-12 3 -16.5 8t-1 11t8.5 11.5t13 12.5t11 11q-28 2 -27 30q1 27 25 40q11 6 23 4q3 0 5 -1t4 -3t3.5 -3t2.5 -4t2 -4.5t2 -4.5t1 -4t1 -5l1 -4q3 -7 3 -14.5t-2 -13.5t-6.5 -13t-8.5 -12t-11 -12.5t-11 -11t-12 -10t-10 -8.5z" glyph-name="comma" horiz-adv-x="466" unicode=","/><glyph d="M172 198q-17 0 -30 8t-13 24q0 14 19 25l21 3q11 0 31.5 -4.5t30.5 -4.5q81 -3 221 2.5t191 5.5q16 -14 16 -27t-14 -27q-3 0 -8.5 -0.5t-8.5 -0.5q-24 0 -73 2.5t-73 2.5q-112 0 -252 -5q-6 0 -26.5 -2t-31.5 -2z" glyph-name="hyphen" horiz-adv-x="827" unicode="-"/><glyph d="M178 0q-19 0 -30 11.5t-11 31.5q0 18 10.5 30.5t31.5 12.5q37 0 38 -42q1 -17 -10 -30.5t-29 -13.5z" glyph-name="period" horiz-adv-x="557" unicode="."/><glyph d="M65 -177q-39 0 -51 37q37 49 112 147.5t111 147.5q18 25 53.5 77.5t54.5 77.5q152 208 227 313q21 30 61.5 82.5t53.5 69.5q135 183 222 316q2 3 20 33.5t33 53t20 24.5q18 6 28 6q19 0 19 -18q0 -7 -1 -11q-3 -5 -3 -10q0 -12 -9 -20q-20 -17 -48.5 -53t-67 -89.5 t-44.5 -62.5q-12 -16 -61.5 -81.5t-65 -86.5t-60 -80.5t-65 -87t-59.5 -80.5t-64 -87.5t-58.5 -81t-62.5 -88.5l-58 -84q-145 -209 -175 -256q-5 -9 -26.5 -49.5t-26.5 -46.5z" glyph-name="slash" horiz-adv-x="763" unicode="/"/><glyph d="M104 -41q-33 0 -57 18.5t-28 50.5q-7 50 52 175t112 212q35 70 48 73q3 3 23 30t28 35.5t26.5 25t36.5 23t40 6.5q36 1 60.5 -17.5t29.5 -53.5q4 -34 -6 -81t-25 -83q-18 -46 -53.5 -110.5t-83 -134.5t-102.5 -119t-101 -50zM69 47q0 -10 7 -16q14 -14 36 -13 q47 0 109 64.5t104.5 134t64.5 120.5q17 38 29 88.5t7 84.5q-3 25 -12 30q-15 7 -33 5q-56 0 -114 -91q3 -4 5 -13q1 -6 -21 -21q-32 -22 -78 -95.5t-78 -155.5t-26 -122z" glyph-name="zero" horiz-adv-x="447" unicode="0"/><glyph d="M45 -24q-11 -1 -15.5 5.5t-9.5 20.5q15 23 39 67.5t36 64.5q21 39 87 140q-18 -21 -63.5 -52t-68.5 -32q-27 8 -28 26q-4 11 6 25q10 5 37 13t40 15q34 18 83.5 61.5t75.5 76.5q18 25 55.5 84.5t51.5 81.5q24 38 32 38q10 1 27 -11t18 -23q1 -6 -6 -18.5t-20.5 -29.5 t-28.5 -34t-34 -37.5t-32.5 -34.5t-28.5 -29l-18 -18q-8 -9 -17 -23t-19 -31.5t-15 -26.5q-98 -153 -131 -222q-22 -48 -35 -92q-15 -5 -18 -5z" glyph-name="one" horiz-adv-x="340" unicode="1"/><glyph d="M56 -27q-17 1 -31 18t-15 37q-3 54 40.5 74t101.5 16q36 27 98.5 88t133.5 133.5t95 95.5q46 46 66 95t6 62q-40 33 -109.5 -23t-100.5 -136q-1 -3 -5.5 -6t-5.5 -4q-10 -5 -18 -5q-9 1 -16 11.5t-7 20.5q-1 10 1 18.5t8 16t9.5 12t13 12.5t11.5 10q42 47 94.5 87.5 t91.5 37.5q30 -3 53.5 -29t24.5 -60q6 -100 -400 -435q-8 -7 -11 -9q40 2 80.5 -14.5t69.5 -36.5t57.5 -35t56 -10t53.5 38q20 13 34.5 2t4.5 -34q-44 -37 -85.5 -43t-76.5 10.5t-68 37.5t-75 34t-83 3q-3 -4 -14 -17t-21 -24.5t-22 -23.5t-22.5 -19t-17.5 -6z" glyph-name="two" horiz-adv-x="629" unicode="2"/><glyph d="M173 -43q-79 -11 -113 7.5t-23 80.5q11 6 24 6q21 0 36 -22l-3 -15q2 -5 3.5 -12.5t2.5 -10t5 -5t11 -2.5q121 0 207 102q61 73 67 144q-1 58 -41 62q-10 0 -28 -4q-1 -1 -41 -36q-4 -4 -10 -6q-10 -4 -14 -4q-11 0 -24 15.5t-13 26.5q-1 11 49 35.5t77 33.5 q43 46 91 113.5t47 103.5q0 28 -57 -6q-68 -40 -117 -103q-35 -45 -34 -77q-7 -10 -16 -10q-12 -11 -28.5 -0.5t-16.5 25.5q-1 11 48.5 62.5t114.5 100.5t97 49q25 0 42 -14.5t18 -39.5q1 -24 -57.5 -98t-95.5 -113q50 -14 52 -77q2 -44 -14 -93t-47 -95.5t-83.5 -80.5 t-115.5 -43z" glyph-name="three" horiz-adv-x="529" unicode="3"/><glyph d="M121 -54q-35 -15 -42 24q14 21 43 76q29 65 83 148q0 3 6 11q9 14 0 13q-80 7 -137 -3q-28 -6 -34 -7q-15 -4 -30 23.5t-6 38.5q20 23 87 88t98 104q70 86 105 156q12 7 33.5 -5.5t16.5 -29.5q-41 -41 -115 -131.5t-110 -128.5l-17 -17q-33 -31 -24 -36q6 -3 25 0 q41 4 140 0q29 40 71 127.5t62 120.5q9 10 8.5 29t2.5 31q6 21 26.5 25t40.5 -14q14 -8 10 -22t-13 -24.5t-21.5 -25t-15.5 -22.5q-78 -135 -81 -141l-56 -96q18 -29 -11 -50l-16 3q-16 -28 -48 -87q-9 -22 -38.5 -83t-42.5 -95z" glyph-name="four" horiz-adv-x="435" unicode="4"/><glyph d="M146 -36q-39 -5 -72.5 14t-49.5 47.5t-10.5 63t38.5 57.5q23 -3 34.5 -24t-5.5 -35q-7 -14 -7 -20q-3 -59 51 -62q61 -3 137 58q97 78 121 186q1 2 1 4q7 34 -2.5 66.5t-41.5 37.5q-22 1 -43 -12t-30 -33q-6 -7 -21.5 2t-26 23.5t-3.5 21.5q44 31 89.5 91.5t67.5 108.5 q5 11 27.5 12.5t62.5 -1t102 2.5q20 4 32 -7t8 -27t-22 -24q-6 3 -15.5 8.5t-17 8.5t-17.5 3q-18 0 -59 -2t-57 -2q-47 -62 -74 -110q53 -7 75.5 -41t16 -79.5t-22.5 -88t-39 -76.5q-41 -62 -105 -115t-122 -57z" glyph-name="five" horiz-adv-x="610" unicode="5"/><glyph d="M94 -51q-43 -4 -67 18t-26 57.5t6 72t23 65.5l-3 3q13 22 53.5 86t118.5 167t131 147q30 10 41 -10.5t-13 -39.5q-3 -6 -19 -13q-17 -7 -31 -21q-115 -105 -183 -216q59 31 114 30q105 -3 103 -79q-2 -69 -82 -159q-74 -84 -143 -104q-12 -3 -23 -4zM61 141 q-5 -17 -7 -27t-6.5 -31.5t-3.5 -35.5t4 -29t14.5 -22.5t28.5 -7.5q42 5 94.5 42.5t84 91t14.5 93.5q-16 37 -60.5 38.5t-87 -29.5t-51.5 -78q-13 -6 -24 -5z" glyph-name="six" horiz-adv-x="411" unicode="6"/><glyph d="M55 -17q-32 -23 -55 14q6 18 19 35q11 14 33.5 43t32.5 42q15 19 104 142q-72 -7 -81 -10q-23 -6 -28 -2q-7 4 -17 6q-24 14 -17.5 30t31.5 24q10 3 37 -1t38 -3q9 -1 20 -1t25.5 0.5t22.5 0.5q102 148 170 239q-50 -4 -173 -33q-12 -3 -34 -11t-30 -10h-17 q-40 19 -14 54q10 7 23.5 10t32.5 4.5t28 2.5q46 4 98 15q25 5 85 20q16 6 36 7q16 4 29.5 -19.5t1.5 -36.5q-9 -13 -93 -116t-99 -124q36 4 46 5q35 -22 1 -48q-30 4 -80 0q-40 -50 -117 -166q-5 -8 -17.5 -26.5t-19 -29.5t-13.5 -27t-9 -30z" glyph-name="seven" horiz-adv-x="356" unicode="7"/><glyph d="M91 -16q-29 -2 -53 3q-25 5 -44 22q-20 20 -14 45q3 28 20 49q13 20 38 48q28 34 46 53q34 36 52 54l51 52q1 0 1 1l-16 25q-11 17 -20 44q-6 24 -2 48q7 28 20 45q12 19 33 37q16 14 40 29q28 14 44 20l41 13q22 3 40 2q20 -1 35 -13q13 -9 13 -20q0 -3 0.5 -9.5 t0.5 -8.5q0 -7 -2 -15q0 -13 -6 -23q-11 -17 -24 -29q-4 -5 -15.5 -16.5t-16.5 -17.5q-13 -14 -43 -42q-9 -8 -25.5 -24.5t-22.5 -21.5q-12 -10 -21 -21l22 -44q14 -27 23 -48q10 -24 18 -48q6 -27 5 -49q-2 -27 -14 -49q-12 -21 -36 -38q-23 -17 -52 -26q-20 -9 -58 -18 q-29 -8 -58 -9zM35 51q-2 -4 1 -10q2 -3 15 -9q20 -6 38 -6q34 4 51 8q22 4 50 17q15 7 39 24q17 17 22 25q8 18 9 28q3 15 -3 35q-3 19 -12 41q-2 5 -6 14.5t-7.5 17t-7.5 13.5q-12 22 -18 32q-5 -5 -21.5 -20.5t-25.5 -25.5q-25 -27 -48 -54q-27 -34 -41 -54 q-19 -31 -25 -48q-7 -17 -10 -28zM201 420q-2 -15 3 -27q2 -8 13 -34l7 -13l13 12q40 40 47 48q24 26 38 42q19 27 22 36q6 13 6 20v4q1 2 5 4h-18q-9 0 -35 -4q-19 -4 -35 -13q-21 -12 -33 -22q-12 -11 -23 -27q-6 -11 -10 -26z" glyph-name="eight" horiz-adv-x="426" unicode="8"/><glyph d="M48 -27q-30 -10 -41 10.5t13 39.5q3 6 19 13q17 7 31 21q115 105 183 216q-59 -31 -114 -30q-105 3 -103 79q2 69 82 159q74 84 143 104q12 3 23 4q43 4 67 -18t26 -57.5t-6 -72t-23 -65.5l1 -1l2 -2q-13 -22 -53.5 -86t-118.5 -167t-131 -147zM94 323q16 -37 60.5 -38.5 t87 29.5t51.5 78q13 6 24 5q5 17 7 27t6.5 31.5t3.5 35.5t-4 29t-14.5 22.5t-28.5 7.5q-42 -5 -94.5 -42.5t-84 -91t-14.5 -93.5z" glyph-name="nine" horiz-adv-x="411" unicode="9"/><glyph d="M251 312q-36 0 -36 38q0 16 9.5 27t27.5 11q33 0 34 -37q0 -15 -9.5 -27t-25.5 -12zM58 24q0 16 9.5 27t28.5 11q32 0 33 -37q1 -15 -8.5 -27t-25.5 -12q-17 0 -27 10t-10 28z" glyph-name="colon" horiz-adv-x="490" unicode=":"/><glyph d="M-52 -48q-11 5 -14.5 10t1 10.5t9.5 9.5t14 10t12 9q-28 7 -21 35q6 26 30 33q11 3 21 0q13 -4 16 -34q-1 -8 1 -12.5t-2.5 -11.5t-5.5 -11t-8.5 -10t-10 -9t-10.5 -8.5t-11 -7.5t-11 -7t-10 -6zM94 339q0 15 9 26t28 11q17 0 24.5 -8t8.5 -28q1 -15 -8.5 -27t-25.5 -12 q-36 0 -36 38z" glyph-name="semicolon" horiz-adv-x="530" unicode=";"/><glyph d="M416 120q-26 26 -88.5 37.5t-120 12t-103 14.5t-45.5 46q0 29 27 45q17 10 50.5 27t43.5 23q121 64 215 126q36 24 47 24q28 -11 28 -31q0 -10 -7 -22q-11 -8 -45.5 -19t-42.5 -15q-211 -94 -254 -145q16 -19 159 -38.5t170 -38.5q0 -22 -7 -32.5t-27 -13.5z" glyph-name="less" horiz-adv-x="560" unicode="&lt;"/><glyph d="M119 196q-12 0 -19.5 17t-7.5 31t9 20q19 14 42.5 25t59.5 23t47 16q37 14 114 49q-69 0 -138 -23q-28 -10 -44 -10q-7 0 -10 1q-19 15 -19 29t15 27q10 4 51 4q34 0 101.5 10.5t101.5 10.5q23 0 33 -12t10 -37q0 -14 -9 -19q-14 -9 -139.5 -52.5t-131.5 -51.5 q78 0 191 9q6 0 26 3t32 2q12 -14 12 -29q0 -17 -16 -31q-72 9 -94 9q-94 0 -178 -15z" glyph-name="equal" horiz-adv-x="529" unicode="="/><glyph d="M136 106q-21 4 -21 19q0 10 10 24q62 15 194 71t164 88q-10 10 -101.5 44t-121.5 42q-4 1 -18 2.5t-26 3.5t-13 4q-5 7 -9 8q-8 8 -8 16q0 13 17.5 22.5t31.5 9.5q6 0 15.5 -3.5t21 -8.5t15.5 -7q19 -7 58 -26t60 -26q12 -4 58 -16.5t59 -17.5q28 -12 28 -39t-20 -43 q-15 -12 -86.5 -42t-163 -64.5t-105.5 -40.5q-29 -13 -39 -20z" glyph-name="greater" horiz-adv-x="563" unicode=">"/><glyph d="M122 195q-13 0 -13 17q0 8 1 11q19 19 69 71t79 80q14 13 86 75.5t125.5 112t102 109t48.5 92.5q0 25 -20.5 37t-47.5 12q-72 0 -162.5 -60.5t-133.5 -126.5q-24 -40 -24 -54q0 -11 -10.5 -29.5t-20.5 -18.5q-12 0 -22.5 14t-10.5 26q0 50 92.5 131t159.5 117 q93 50 156 50q44 0 72.5 -24.5t28.5 -67.5q0 -30 -26 -70t-71 -82.5t-86 -77.5t-90 -74t-65 -53q-158 -141 -199 -212q-15 -5 -18 -5zM0 26q0 10 8 18t18 8q11 0 18.5 -7.5t7.5 -18.5q0 -10 -8 -18t-18 -8t-18 8t-8 18z" glyph-name="question" horiz-adv-x="626" unicode="?"/><glyph d="M301 -349q-121 0 -191 74t-70 196q0 96 38 196q56 143 195.5 297t276.5 220q117 56 228 56q83 0 132.5 -47t49.5 -130q0 -48 -22 -118q-15 -44 -46.5 -104t-74 -121t-94.5 -103t-97 -42q-39 0 -62.5 27.5t-23.5 67.5q0 23 12 63q-32 -41 -77 -83.5t-72 -42.5 q-22 0 -36 15.5t-14 37.5q0 13 24 55q2 4 19 33.5t24 40.5t24.5 37t30 38.5t31 29t37.5 23t39 6.5t31.5 -11.5t21.5 -33.5q13 -3 27 -14.5t14 -23.5q0 -3 -19 -26.5t-37.5 -57.5t-18.5 -60q0 -14 6 -42q17 -17 28 -17q21 0 61 22q80 47 150.5 166.5t70.5 211.5 q0 157 -170 157q-108 0 -230.5 -69t-219 -171.5t-161 -228t-64.5 -232.5q0 -118 66 -186t184 -68q215 0 476 236q107 97 139 165q10 5 21 5t16 -9.5t3 -20.5q-27 -35 -93 -97q-71 -66 -128 -112.5t-135 -98t-159.5 -79t-160.5 -27.5zM421 135q21 9 81.5 61.5t60.5 66.5 q0 4 -1.5 10t-1.5 9t2.5 8t2.5 7q-99 -31 -144 -162z" glyph-name="at" horiz-adv-x="1146" unicode="@"/><glyph d="M867 -614q-17 0 -34.5 11t-15.5 27q3 31 51 157t71 172q1 1 5.5 8.5t5.5 11.5q4 12 12 90q19 188 -25 355q-31 0 -66.5 -2t-83 -6.5t-67.5 -5.5q-34 -32 -119 -123q-146 -157 -198 -217q-19 -22 -61.5 -70t-68.5 -77.5t-59.5 -71t-56.5 -76.5q-23 -36 -59 -35 q-28 0 -25 27q1 8 11 31q3 9 24 24q52 39 111 98q84 81 237 246.5t232 242.5q-107 -5 -200 -2q-142 4 -238 39q-270 103 -249 292q6 65 54 127q104 127 329 119q87 -3 155 -31q102 -41 203 -137.5t156 -200.5q6 6 13.5 13t16.5 15t14 13l280 277q177 176 452 460 q3 3 24 27.5t38 39.5t28 15q16 -1 34.5 -17.5t17.5 -31.5q-1 -10 -137 -195q-72 -106 -141.5 -220t-167 -283t-130.5 -226q132 28 229 75l43 19q30 -10 29 -34q-3 -13 -11 -26q-38 -12 -80 -22t-96.5 -20.5t-80.5 -16.5q-23 -7 -53 -12q-96 -176 -201 -394q-34 -67 -36 -75 q-4 -17 -8 -51t-6 -47q-46 -265 -77 -297q-10 -10 -25 -9zM49 522q-5 -55 25 -104t81.5 -82.5t104 -56t104.5 -34.5q69 -16 184 -20q17 -1 164 2q18 17 50.5 49.5t59.5 59t51 49.5q-55 107 -150 201.5t-198 128.5q-70 23 -166 26q-113 3 -206 -54.5t-104 -164.5zM744 228 q149 8 186 15q-6 27 -47 123q-83 -80 -139 -138zM907 391q9 -19 55 -144q149 16 250 43q17 26 45.5 77.5t35.5 64.5q35 60 111 192t117 201q12 20 46.5 78t57.5 96.5t50 88.5t40 82q-166 -145 -461.5 -437.5t-346.5 -341.5zM970 221q41 -175 23 -359q8 22 20.5 47t28.5 55 t24 46q35 73 127 243q-41 -4 -115.5 -16t-107.5 -16z" glyph-name="A" horiz-adv-x="1597" unicode="A"/><glyph d="M412 -555q-140 8 -209 103q2 19 11 31t27 11q6 0 16 -4q27 -44 72 -70.5t97 -28.5q156 -8 349 73.5t327 195.5q80 68 145 151q126 156 130 302q3 90 -42 156t-116.5 98t-158.5 36q-45 3 -99 -4q-58 -34 -175.5 -94t-137.5 -59q-19 1 -33 21t-12 39q0 6 4 11.5t12.5 11 t13.5 8t16.5 7.5t12.5 5q73 35 106 49t86.5 28t117.5 20q390 243 503 456q35 67 37 107q1 42 -9 60.5t-49 20.5q-64 3 -144.5 -28t-152 -78t-150 -112.5t-133 -118t-105.5 -107.5q-69 -74 -78 -87q-41 -52 -110.5 -153t-88.5 -128q-68 -96 -193.5 -277.5t-176.5 -255.5 q-106 -153 -131 -195q-26 -43 -43 -70q-1 -3 -7 -16t-10.5 -24t-5.5 -11h-7q-7 -7 -15 -6q-12 0 -33 15t-20 27q0 6 36 48q17 21 47.5 65t46.5 64q143 191 219 299q21 31 73.5 109.5t81.5 119.5q102 139 191 249q7 8 34.5 41t41.5 52q56 75 140 204q67 103 108 178 q9 17 27 68.5t34 73.5q20 9 31 8q23 -1 35 -38q-3 -15 -41.5 -73t-90.5 -131t-56 -79q52 53 104 101t130 111.5t147 108t146 74.5t137 27q53 -2 82.5 -30t28.5 -79q-2 -69 -63 -159.5t-149.5 -172.5t-174.5 -147.5t-153 -104.5q116 1 218 -51t143 -151q28 -66 27 -122 q-3 -83 -50 -179q-165 -344 -657 -541q-70 -28 -157 -45.5t-155 -13.5zM226 27q83 118 196 292q-90 -124 -196 -292z" glyph-name="B" horiz-adv-x="1688" unicode="B"/><glyph d="M93 -327q-91 5 -143.5 49t-49.5 122q3 76 65 215.5t126 248.5q93 160 305 436q164 210 248 297q112 117 212 210q76 70 112 91q59 36 117 33q51 -3 95 -42.5t73.5 -100.5t46.5 -110.5t28 -98.5q2 -7 7.5 -24t9.5 -31.5t4 -22.5q-2 -16 -4 -22q-18 -22 -38 -21 q-15 0 -34 19q-8 24 -8 51q1 43 -26 132q-31 98 -57 136q-42 62 -109 65q-15 1 -33 -3t-33 -10t-35.5 -17.5t-33.5 -20t-33.5 -24.5t-29.5 -23t-29 -23.5t-23 -19.5q-168 -138 -380.5 -402.5t-327.5 -465.5q-158 -277 -163 -428q-2 -66 39 -105t117 -43q84 -5 195 29 q187 57 501.5 229.5t428.5 289.5q15 3 26 -9t1 -31q-56 -29 -146 -89t-123 -79q-91 -54 -149 -87.5t-181 -99t-212 -104.5t-190 -69t-166 -27z" glyph-name="C" horiz-adv-x="1241" unicode="C"/><glyph d="M-242 -340q-16 1 -37.5 14.5t-20.5 28.5q0 24 64.5 111t112.5 144l179 212q79 91 83 96q23 32 61 98t58 95q182 260 374 634l-1 12q4 5 4 12q0 10 2 15.5t4 7t5.5 6t6.5 10.5q1 3 3 10t3 10q2 7 12 7q16 -1 42.5 -14.5t25.5 -27.5q0 -3 -12 -20.5t-14 -22.5 q-6 -14 -16 -18l-5 -4q-24 -32 -46.5 -68.5t-52.5 -90.5t-41 -72q-17 -28 -37.5 -58.5t-47 -68.5t-40.5 -58q-14 -21 -46.5 -66.5t-56 -81.5t-41.5 -69q-2 -5 -15 -23q13 11 126 143q52 59 72 81t86 93.5t105 110t109.5 106.5t120 108t117.5 91t120.5 78t109.5 46t104 17 q75 -3 112 -57.5t35 -133.5q-2 -85 -61 -264q-83 -252 -240 -483q-70 -104 -169 -210.5t-215 -203t-248 -166t-250 -89.5q-63 -11 -163 -7q-157 6 -167 178q17 21 32 20q16 0 32 -20q-1 -40 14.5 -67t44.5 -40.5t58 -19t68 -6.5q129 -5 236.5 40t240.5 137 q223 156 393 370.5t262 463.5q77 209 79 332q2 175 -111 180q-51 2 -148 -36q-78 -32 -167 -92.5t-163.5 -123.5t-162.5 -152t-143.5 -150t-128.5 -144q-19 -23 -60 -69.5t-61 -70.5q-81 -93 -101 -121q-7 -10 -19 -30t-17 -27q-21 -35 -63.5 -103t-63.5 -103 q-26 -44 -55 -88.5t-73.5 -108t-59.5 -85.5l-11 -16.5t-16 -23t-16 -21t-18 -17.5t-16 -6zM-169 -180q11 15 32 41t24 30q55 66 160 228q-126 -153 -216 -299z" glyph-name="D" horiz-adv-x="1350" unicode="D"/><glyph d="M101 -412q-83 3 -151.5 34t-110.5 94.5t-39 147.5q4 123 95 249q97 133 312 292t374 219q-26 3 -40.5 5.5t-39 8.5t-38.5 14.5t-29 21t-21.5 31.5t-5.5 44q3 79 95 166t216 150t250.5 103.5t199.5 37.5q20 -1 40 -23.5t19 -42.5q0 -16 -16.5 -34.5t-33.5 -18.5 q-13 1 -16 21t-6 22h-2l3 -5l-3 -2q-5 0 -17 4t-17 4q-16 3 -48 3q-18 1 -62 -6q-148 -26 -310.5 -113.5t-218.5 -199.5q-15 -32 -15 -49q-2 -16 5 -30q15 -28 77 -43t110 -16q51 -3 69 2q5 1 17.5 8.5t17.5 7.5q13 -1 20 -20t6 -35q0 -31 -17 -31q-51 2 -68 0 q-52 -6 -148 -45q-177 -72 -356.5 -201.5t-273.5 -269.5q-76 -115 -80 -231q-3 -74 43.5 -128.5t111.5 -79t137 -27.5q85 -3 183 23t180.5 63.5t180.5 98.5t162.5 108t148.5 111q3 2 27 20.5t29 22.5t27 21t29 23t26.5 21.5t28.5 24t25.5 23t27 25t24 23.5t24.5 26 q12 4 21 4q14 0 14 -14q-1 -11 -6 -22q-57 -42 -169 -128.5t-191.5 -147t-195.5 -136.5t-211 -123t-207.5 -78.5t-212.5 -27.5z" glyph-name="E" horiz-adv-x="1276" unicode="E"/><glyph d="M-246 -375q-13 0 -32.5 15.5t-19.5 28.5q0 2 0.5 4t0.5 3q-3 3 -3 7q0 3 6 9q16 10 38 43q133 205 376 614q-10 -2 -82 -17t-90 -15q-17 0 -25 19t-8 38q0 18 10 26q14 10 58.5 24.5t61.5 14.5h7q29 -12 29 -33q0 -10 -5 -20q4 0 71 6q70 117 181 291q12 19 37 57t44 70 t34 60q51 109 50 196q-2 64 -44 102q-4 0 -35 -1.5t-57 -1.5h-65t-69 3.5t-58.5 9.5t-44.5 17t-16 27q0 21 12 40.5t32 19.5h43.5t49 -0.5t45.5 -2t50 -5t44.5 -9.5t46 -14.5t38.5 -21.5t37 -29q293 -8 350 -8q54 0 162 2t161 2q45 0 134 -2t133 -2q110 0 141 4 q18 -13 19 -26q0 -15 -22 -26q-26 7 -64.5 12t-96 7.5t-87.5 3t-99 1t-70 0.5q-172 3 -344 3q-50 1 -293 -2q21 -34 21 -82q0 -16 -1 -24q19 24 34 74q2 11 12 11q16 0 40 -16t24 -30q0 -6 -6 -11q-32 -28 -45.5 -47.5t-25 -46t-28.5 -50.5q-16 -6 -25 -7q-14 -20 -29 -45 t-24.5 -42.5t-26 -48.5t-24.5 -45q-109 -192 -212 -362q258 22 415 27q22 1 70 1t84 1.5t69 5.5q20 -13 21 -29q0 -15 -21 -28q-98 15 -240 15q-198 0 -422 -32q-36 -60 -111 -182t-133 -218.5t-108 -185.5q-26 -46 -64 -135q-5 -12 -16 -12zM-18 72q72 112 171 282l-5 -2 q-82 -134 -166 -280zM173 394h4l65 110q-14 -20 -37.5 -58.5t-31.5 -51.5zM232 1223q41 -12 154 -19q-55 19 -145 19h-9z" glyph-name="F" horiz-adv-x="875" unicode="F"/><glyph d="M-404 -899q-44 0 -69 32.5t-27 78.5q-2 61 24 121.5t68 109.5t105 97.5t123 85t134.5 73t126.5 58.5t112 45q198 78 221 86q54 78 150 224t133 200q-11 -9 -73 -65.5t-96 -85.5t-99 -80.5t-110 -78.5t-99.5 -49.5t-95.5 -22.5q-70 0 -106 42t-38 113q-4 98 92 267 q231 404 549 565q103 53 183 53q83 0 136.5 -58.5t55.5 -143.5q1 -9 -1 -28q1 2 3.5 6t4 6.5t4.5 6t5 5.5t5.5 3.5t6.5 1.5q13 0 34 -17.5t22 -30.5q0 -8 -12 -20l1.5 -4.5t-2 -4t-4 -3t-5 -2.5t-4.5 -2q-71 -74 -82 -84q-5 -24 -9.5 -32t-22.5 -28q-14 -6 -27 -6 q-11 -11 -52 -56t-65 -69q-12 -12 -29.5 -37.5t-39 -59.5t-27.5 -43q-31 -45 -115 -172t-133 -195q476 190 633 292q37 24 88 71q14 8 26.5 -6t2.5 -26q-34 -35 -208.5 -118t-314 -142t-245.5 -101q-79 -111 -145 -197t-156 -189.5t-187 -187.5t-194 -141q-95 -57 -156 -57z M-442 -760q5 -92 59 -92q41 0 119 40q230 123 524 495q25 32 72.5 94.5t64.5 83.5q-31 -9 -106.5 -42t-89.5 -39q-53 -21 -100 -42t-116 -55.5t-125 -68t-115 -79t-99 -90t-65 -98.5t-23 -107zM28 107q1 -63 35.5 -89.5t98.5 -26.5q155 0 518 342q75 67 93 90q12 15 25 33.5 t28.5 42t23.5 34.5q2 3 15 20t18 25l4 20q3 9 15 28q15 22 23 60.5t6 68.5q-5 157 -153 157q-56 0 -139 -34q-162 -67 -308.5 -218t-232.5 -322q-22 -45 -35 -74.5t-25 -75t-10 -81.5z" glyph-name="G" horiz-adv-x="1183" unicode="G"/><glyph d="M-214 -566q-23 13 -23 33q-2 24 31 69q111 151 301 442.5t235 357.5q-621 0 -630 156q-2 41 30 72.5t79 48.5t107.5 28t105 14t82.5 3q209 0 394 -73q46 74 135.5 207.5t123.5 186.5q52 81 69 156q2 17 17 17q18 0 40 -11.5t22 -26.5q1 -8 -7 -16q-65 -73 -181 -238 q-159 -228 -197 -285l5 -1q70 -25 136.5 -81t93.5 -120q187 9 243 15q107 165 128 195q158 231 233 364q31 54 52 129q3 11 14 11q7 0 11 -1q15 3 35.5 -11.5t21.5 -29.5q1 -5 -13 -19q-4 -12 -7.5 -16t-9 -7.5t-9.5 -9.5l-5 -3q-49 -59 -209 -283q-107 -150 -216 -317 q114 10 249 26q11 2 54.5 7t71.5 9.5t53 12.5q22 -15 23 -26q0 -13 -18 -26q-17 3 -49 3q-43 0 -131 -8q-31 -2 -124 -8.5t-144 -11.5q-123 -185 -238 -408q-7 -13 -22 -60.5t-16 -51.5q-19 -51 -41 -99q-15 -35 -54.5 -112t-57.5 -120q-7 -16 -18 -16q-15 0 -35.5 14.5 t-21.5 28.5q-1 5 4 12q-2 9 7 16q11 9 26.5 32t37 59.5t22.5 38.5q17 29 69 127q41 71 47 84q22 53 34 135t8 145q-4 94 -37 158q-37 -1 -166.5 -8t-199.5 -7q-40 -57 -80 -118t-96.5 -150.5t-77.5 -121.5q-19 -29 -92 -139t-116.5 -182.5t-79.5 -147.5q-1 -2 0 -5t1.5 -6.5 t-7 -11.5t-23.5 -20zM-237 501q2 -28 49 -55q132 -86 535 -86q69 105 130 196q-181 73 -349 73q-91 0 -183.5 -17.5t-141.5 -58.5q-12 -9 -26.5 -25.5t-13.5 -26.5zM374 360q66 0 191 4.5t148 5.5l-1 4q-23 44 -92.5 97.5t-120.5 72.5q-58 -78 -125 -184zM763 354 q24 -58 29 -143q3 -62 -11 -183q126 229 203 339h-4q-126 -5 -217 -13z" glyph-name="H" horiz-adv-x="1422" unicode="H"/><glyph d="M-673 -504q-14 0 -20.5 20t-6.5 37q0 19 19 28q4 6 9 6q4 0 6 -1q70 22 150 35q19 3 88.5 8t119.5 14t79 27q12 7 26.5 24t23.5 30t24.5 37.5t18.5 28.5l827 1253q11 16 35 58t39 62q12 16 27 16q46 0 46 -44v-7q-4 -9 -52 -55t-57 -57l-776 -1171q-5 -9 -42 -80 q-7 -14 -18.5 -43.5t-23 -52.5t-24.5 -40q-10 -15 -29 -25q43 5 122 11.5t113 9.5q14 1 72 4.5t89 8.5q16 1 43 7t32 13q33 -15 33 -46q0 -14 -4 -25q-30 -3 -31 -3q-15 0 -45 1.5t-46 1.5q-24 0 -70 -2t-70 -2q-222 0 -452 -34q-150 -21 -207 -35q-5 -1 -35 -9.5t-33 -8.5z M195 1176q0 32 8 45.5t36 13.5q12 0 30 -4q17 -11 22 -26q48 -9 111 -9q48 0 137 7t114 8q172 10 256 10q184 0 293 9q21 -12 21 -26q0 -10 -23 -25q-29 6 -89.5 9t-107.5 3t-126 -0.5t-90 -0.5q-91 0 -259 -20t-237 -23q-12 0 -37 -3.5t-37 -3.5q-22 0 -22 36z" glyph-name="I" horiz-adv-x="557" unicode="I"/><glyph d="M-584 -845q-30 0 -48 26t-18 58q1 66 66 174q58 95 171 194.5t248.5 182.5t262 147t245.5 113q54 73 107 148t120.5 182.5t117.5 202t85.5 194t36.5 169.5q0 7 -2 19.5t-2 18.5q-5 4 -32 4q-67 0 -163 -51t-192 -132t-183.5 -173.5t-147 -184t-72.5 -155.5 q-1 -5 -8.5 -29t-7.5 -31q-14 -22 -32 -22q-15 0 -29 12t-14 27q1 41 82 149q261 356 591 575q126 83 201 83q31 0 57 -22.5t25 -52.5q0 -9 -1 -19.5t-2.5 -18.5t-4.5 -19.5t-5 -18.5t-6.5 -19t-6.5 -17.5t-7.5 -19t-7 -17.5t-8 -18t-7.5 -17q-142 -327 -439 -729 q332 135 391 201q16 6 25.5 -10t1.5 -28q-34 -16 -103.5 -54.5t-106.5 -55.5q-39 -17 -114.5 -46t-110.5 -44q-8 -4 -17 -7q-107 -147 -240.5 -293.5t-266.5 -264.5q-29 -26 -62.5 -53.5t-76 -61.5t-64.5 -52q-2 -2 -35 -29t-51 -40t-48 -34t-53 -31t-39 -10zM-578 -736 q0 -45 15 -45q40 0 183 108q213 157 376 317t314 364q-87 -36 -189.5 -88t-229.5 -130.5t-227.5 -160t-170.5 -179.5t-71 -186z" glyph-name="J" horiz-adv-x="784" unicode="J"/><glyph d="M892 -486q-58 0 -111.5 18.5t-97 48t-85 77.5t-72 94.5t-62 112.5t-53 118t-45.5 124t-38 118.5t-33.5 113t-28.5 96.5q-32 4 -54 10q-18 -32 -39 -49q-4 -4 -21.5 -2t-21.5 9q-21 -29 -104 -139.5t-133 -181.5t-96 -145q-65 -103 -111 -194l-14 -35t-13 -30l-4 5 q-7 -20 -35 -20q-3 0 -7.5 0.5t-7.5 0.5q-5 10 -5 19q0 10 11 28q55 71 150 213.5t107 159.5q71 103 248 347v10q16 26 25 35q-95 64 -99 246q-1 35 17 58.5t52 23.5q24 0 45 -14.5t34.5 -32t27.5 -48t19.5 -47.5t14.5 -45q62 89 122 179t154.5 238t116.5 182q45 71 69 129 q6 16 19 16q14 0 35.5 -12.5t22.5 -24.5q0 -3 -2 -7q2 -7 -1 -12.5t-10.5 -11t-9.5 -8.5q-58 -70 -176 -255q-38 -58 -149.5 -226t-170.5 -261l19 -77q10 -2 30 -2q151 0 303 82q87 47 181 118.5t186.5 158.5t165.5 161t155 164q2 2 14.5 16.5t20.5 23t20.5 20.5t22 19 t16.5 8q5 1 16 1q13 0 26.5 -9t14.5 -21q0 -10 -13 -27q-4 -2 -12.5 -11t-26.5 -17q-22 -9 -49.5 -27t-59.5 -45t-54.5 -46.5t-56.5 -51.5t-43 -40q-22 -20 -68.5 -64t-73.5 -69t-74.5 -67.5t-80.5 -68.5t-81.5 -62t-87 -58.5t-87.5 -47.5t-93 -39t-94 -23t-98 -9h-11 q66 -254 103 -360q181 -519 478 -519q81 0 147.5 39.5t98.5 110.5q19 12 27 12q19 0 19 -35q-40 -77 -116 -122t-164 -45zM103 660q2 -100 69 -154l47 66q-23 61 -45 97q-19 29 -35 40q-12 10 -22 12q-2 0 -2 2v3q-12 -17 -12 -66zM229 476q1 -1 26 -6l-11 31zM311 670 q34 46 109 156z" glyph-name="K" horiz-adv-x="897" unicode="K"/><glyph d="M-262 -446q-17 0 -27.5 17.5t-10.5 34.5q-1 28 20.5 38t52.5 10q95 116 205 267t168.5 237t189.5 279q339 503 458 690q-4 16 3 35q3 9 30 38t33 41q2 4 18.5 40t31 56.5t30.5 20.5q12 0 32.5 -15t19.5 -26q-2 -13 -26 -44.5t-50.5 -63t-29.5 -36.5q-4 -5 -13 -26 t-17 -28q-15 -12 -22 -12q-22 -33 -72.5 -112.5t-89 -138t-75.5 -111.5q-58 -84 -173.5 -247.5t-171.5 -243.5q-45 -65 -128 -188.5t-100 -148.5q-8 -12 -59.5 -83t-80 -119t-42.5 -90q98 4 280 34t219 35q43 5 154.5 14.5t171.5 18.5q16 -16 17 -31q0 -16 -19 -31 q-53 14 -148 14q-208 0 -556 -75q-13 -3 -66.5 -17t-96.5 -23.5t-60 -9.5z" glyph-name="L" horiz-adv-x="651" unicode="L"/><glyph d="M-245 -461q-15 0 -35 16t-20 31q0 4 5.5 15t15 25.5t18 27.5t18 26.5t11.5 16.5q21 33 82.5 136t98.5 158q100 151 293 399q120 156 222 281q10 11 46 49.5t51 60.5q40 55 123 223q-3 6 -5 21q3 5 6 14.5t4 10.5q5 13 17.5 31t17.5 39q2 11 17 9q4 2 9 2q12 0 33.5 -14 t22.5 -25q0 -2 -2 -5t-2 -4q-12 -14 -22.5 -28.5t-22 -33t-19.5 -29.5l-6 -2l-51 -78q101 107 220 216.5t190 139.5q47 20 83 20q48 0 73 -26.5t27 -73.5q1 -110 -92 -329.5t-187 -392.5q305 386 617 615q34 26 51.5 38.5t52.5 29.5t61 17q29 0 47.5 -22t18.5 -51 q1 -39 -50 -149q-68 -146 -174 -323q-10 -16 -59 -94.5t-77.5 -125.5t-78.5 -132t-80.5 -147t-63 -134t-48 -131t-14.5 -102q0 -45 20 -79t63 -37q16 -16 16 -27q1 -17 -25 -31q-58 7 -90.5 51.5t-34.5 105.5q-1 76 55 199q58 138 145 291q18 32 105.5 177.5t152 258 t118 241t44.5 187.5l1 2l-1 1l-3 2q-4 2 -8 2q-43 0 -124 -49q-181 -111 -389.5 -333.5t-347.5 -431.5q-71 -106 -191 -329q-3 -5 -14 -24t-18 -32t-11 -26q-1 -2 -1.5 -9t-3 -10.5t-7.5 -3.5q-4 -7 -14 -7q-14 0 -36 13.5t-22 25.5q0 3 4 11q64 73 151 200q19 28 65 94 t70 102q52 82 153 290q127 263 170 403q26 83 25 148q0 33 -17 84q-14 15 -52 15q-133 0 -463 -349q-66 -69 -79 -86q-10 -13 -20.5 -29t-23.5 -37.5t-18 -30.5q-72 -117 -153 -259q-276 -489 -539 -802q-3 -4 -18 -23.5t-27 -34t-27 -27.5t-23 -13zM-204 -367q12 10 24 22 t21.5 22t22 25t20 23.5t21.5 26.5t19 24.5t20 26.5t19 25q127 166 232 332q47 75 98 161.5t111 191t95 164.5q-88 -103 -185 -226.5t-205 -273.5t-193.5 -296t-119.5 -248z" glyph-name="M" horiz-adv-x="1663" unicode="M"/><glyph d="M718 -506q-54 0 -80 36t-27 92q-1 83 48 242q53 177 162 386q44 82 127 232.5t118 215.5q15 27 42 75.5t49 88.5t41 76q5 9 22.5 42t25 48t19.5 40.5t20 47.5q25 61 25 95q-50 -16 -73 -28q-77 -38 -191 -131q-262 -214 -530 -488t-487 -550q-25 -31 -53 -72t-43.5 -65.5 t-49.5 -80t-43 -70.5q-5 -8 -14.5 -27t-18 -33.5t-17.5 -24.5q-1 -2 -3 -14t-6 -17.5t-12 -5.5q-5 -7 -14 -7q-13 0 -34 18.5t-21 32.5q0 4 13.5 19.5t33 35.5t20.5 21q30 35 80 103t67 90q13 17 39 49.5t39 49.5q31 43 84.5 125.5t74.5 112.5q225 328 416 666q34 65 40 95 q1 1 1.5 4.5t1.5 4.5q-1 2 -2.5 17t-1.5 16q0 15 14 29q0 7 9 11q11 11 23 11q16 0 37 -12t21 -27q0 -5 -12.5 -25.5t-16.5 -21.5q-2 -3 -9 -14.5t-11 -17.5q-22 -32 -64.5 -99.5t-64.5 -99.5q-26 -38 -81.5 -126t-86.5 -134q-42 -64 -91.5 -140.5t-91.5 -140.5 q317 334 471 481.5t485 427.5q149 127 200 127q21 0 41 -20.5t20 -41.5q0 -26 -54.5 -123.5t-137.5 -228.5t-179 -298.5t-178 -326.5t-136 -320t-52 -272q0 -26 12 -59t33 -33q14 0 38 6q32 -12 32 -32q1 -13 -14 -34q-25 -9 -44 -9z" glyph-name="N" horiz-adv-x="1148" unicode="N"/><glyph d="M-77 -563q-59 0 -92 35t-31 94q1 88 51 227t131 295t145 268t133 223q-36 -11 -36 26q0 4 2 18q22 22 37 41q19 22 60 60t59 59q29 35 77 102.5t66 90.5q94 128 101 136q7 9 15 9q13 0 29 -19q165 137 279 137q78 0 113.5 -57.5t37.5 -143.5q2 -93 -56 -250.5 t-153 -333.5t-222 -358.5t-255.5 -328t-260 -238t-230.5 -92.5zM-167 -400q-14 -114 111 -114q104 0 293 160q110 95 251 271.5t266.5 371.5t215 392.5t95.5 320.5q2 37 -3 68.5t-18.5 59.5t-41 44.5t-66.5 16.5q-54 0 -131 -35t-119 -75q4 -15 -3 -23q1 -5 -2 -9t-7 -6 t-11 -4.5t-9 -3.5q-135 -135 -317.5 -402t-332.5 -564t-171 -469z" glyph-name="O" horiz-adv-x="1040" unicode="O"/><glyph d="M-150 -406q-14 0 -32 13t-18 27q-1 8 8 19q51 67 114 178q37 66 109 196t118 212.5t112.5 192t125.5 195.5q120 173 244 303q5 5 27.5 26.5t31.5 33.5q44 54 124 205q11 19 30 69q5 13 16 13q16 0 40 -17.5t25 -32.5q0 -7 -9 -14q-54 -40 -109 -117q58 51 110 89.5 t117.5 78t134.5 61t135 21.5q174 0 174 -163q-1 -123 -167 -334q-107 -140 -208 -241q-134 -134 -320.5 -238.5t-343.5 -104.5q-100 0 -138 32q-1 26 11 39.5t38 12.5q19 -40 135 -40q85 0 181.5 36t184 94t172 132.5t151 149.5t115.5 146q41 58 64.5 96t48 99t24.5 110 q-1 60 -35.5 94.5t-95.5 34.5q-189 0 -411 -175q-125 -100 -131 -108q-80 -108 -196 -317q-15 -10 -29 -10q-6 0 -8 2q-27 -41 -78 -122.5t-77 -121.5q-61 -93 -226 -374q-24 -41 -84 -143t-91 -157q-11 -20 -37 -72.5t-42 -79.5q0 -17 -12 -18q-9 -11 -23 -11zM-67 -227 q15 30 49 83t39 61q198 347 325 542q18 27 50 77t58.5 91t50.5 78l-8 31q15 27 52 69.5t48 58.5q-124 -144 -196 -247q-84 -123 -176.5 -285.5t-140.5 -257.5t-151 -301z" glyph-name="P" horiz-adv-x="966" unicode="P"/><glyph d="M466 -516q-36 0 -65.5 9.5t-50 23.5t-37.5 39t-27 46.5t-19.5 56t-14 57t-11 60t-10.5 55.5q-3 -3 -21.5 -24t-25 -28t-26 -27.5t-29.5 -29.5t-29.5 -26.5t-32.5 -26.5t-32 -21t-34 -18t-32.5 -10.5t-33.5 -4.5q-61 0 -97.5 36t-37.5 98q-2 86 72 273q108 266 326 590 q15 23 61 88t69 102q9 14 44.5 80.5t59.5 97.5q15 19 41.5 57t40.5 55l14 17q2 3 4.5 10t6 10.5t9.5 3.5q216 242 341 242q70 0 107.5 -52.5t38.5 -123.5q2 -89 -40.5 -214t-112 -254.5t-133 -232t-126.5 -192.5q-144 -202 -344 -423q14 -146 35 -209q46 -133 157 -133 q65 0 147 54.5t152 121.5q20 5 24 5q16 0 16 -15q1 -11 -6 -25q-200 -198 -338 -198zM-156 -201q2 -117 105 -117q96 0 275 182q-22 95 -46 119q-3 2 -10 6t-10 7l-1 -1l-7 -3q-2 0 -6.5 2.5t-7.5 2.5q-4 0 -13 -3t-13 -3q-22 0 -22 23q-1 33 17 50t52 17q102 0 120 -161 q78 86 165 193.5t185.5 248.5t176 275t130 272.5t54.5 241.5q1 37 -8 71t-35 60.5t-65 26.5q-44 0 -105 -37t-103.5 -75t-82.5 -81q21 -23 21 -36q1 -8 -8 -17q-35 -22 -55.5 -46.5t-47 -71t-35.5 -61.5q-20 -8 -30 -8q-6 0 -10 2q-37 -42 -63 -79q-14 -31 -16 -34 q-16 -16 -23 -20q-65 -89 -138 -200.5t-155 -252.5t-134 -274.5t-51 -218.5z" glyph-name="Q" horiz-adv-x="801" unicode="Q"/><glyph d="M-177 -437q-15 0 -43.5 18.5t-29.5 31.5q0 4 8 12q55 54 138 159q23 30 61 90.5t50 78.5q41 63 202 312q3 5 11.5 17.5t12.5 19.5q-21 8 -42.5 36t-22.5 49q-2 33 21 53.5t56 20.5q39 0 70 -34q2 1 25.5 37t50.5 77.5t32 48.5q252 369 335 499v4q7 23 26.5 49t25.5 40 q1 2 4.5 13.5t7.5 19.5t8 8t9 -3q15 6 41.5 -13t27.5 -34q1 -7 -5 -11q-4 -3 -20 -15.5t-22 -20.5q-1 -3 -4 -13q-5 -16 -34 -57q-14 -7 -29 -7h-5q-14 -19 -104.5 -138t-136.5 -183q-29 -41 -105 -151q-9 -13 -34 -52t-46 -69.5t-34 -45.5q6 -6 9 -14q56 71 134 161.5 t196.5 214.5t227.5 223t220 169t182 70q56 0 88.5 -32.5t35.5 -88.5q5 -93 -82 -225q-138 -205 -365.5 -367t-471.5 -232q-73 -21 -94 -20q15 -30 37.5 -91t25.5 -67q21 -55 35.5 -89.5t40 -88t48.5 -88.5t58 -75t70.5 -63.5t83 -39.5t99.5 -16q35 0 66 6t51 14.5t34.5 17 t23 14.5t10.5 6q14 0 14 -12q0 -3 -8.5 -13t-26.5 -23t-41.5 -25.5t-57.5 -21t-71 -8.5q-43 0 -82.5 10.5t-70 21.5t-64 42.5t-52.5 47t-48 63t-39.5 62t-38 73t-31.5 68t-31 72.5q-9 20 -13 30q-3 6 -21.5 50t-34.5 77.5t-24 41.5q-43 2 -75 15q-145 -188 -360 -531 q-47 -75 -80 -173q-5 -13 -13 -13zM210 227q9 11 24 33t21 29l-3 1q-28 -32 -42 -63zM352 378q7 -11 19 -32.5t17 -30.5q146 -2 339.5 92.5t352 235t220.5 269.5q56 117 52 195q-2 36 -17.5 52.5t-50.5 16.5q-64 0 -149.5 -43.5t-177 -120t-178 -158.5t-175 -181 t-144.5 -164.5t-108 -130.5z" glyph-name="R" horiz-adv-x="1134" unicode="R"/><glyph d="M-104 -555q-50 0 -91 10.5t-73.5 43t-31.5 83.5q0 50 46 102t148 113t225.5 114t226.5 92t191 68q-20 50 -60.5 109t-74.5 101.5t-60 100.5t-25 115q3 107 84 226q87 126 263 251t339 193q146 64 229 64q46 0 73.5 -26.5t26.5 -72.5q-1 -52 -38 -113q-29 -47 -69 -100 t-65.5 -82.5t-84 -95t-73.5 -82.5q-1 -1 -9.5 -10.5t-15 -16.5t-15.5 -15.5t-16 -13.5t-11 -5q-19 0 -33 12t-14 30q0 10 5 22q2 4 30 22t61 40.5t45 33.5q78 70 159 181.5t82 184.5q0 22 -14 34t-30 14.5t-39 2.5q-139 0 -353 -123.5t-327 -243.5q-144 -154 -147 -300 q-1 -54 25 -112t59.5 -102t74 -103.5t59.5 -106.5q17 5 167 50.5t267 84t164 59.5q30 -3 30 -17q0 -8 -16 -27q-76 -14 -284.5 -74.5t-318.5 -96.5q37 -105 36 -190q-1 -67 -19.5 -123t-47.5 -96t-73.5 -71.5t-90 -52t-104.5 -35.5t-109.5 -23t-112.5 -14q-146 -13 -170 -13 zM-236 -420q-1 -28 20.5 -48t55.5 -28.5t62.5 -12t55.5 -3.5q78 0 154.5 9t162.5 34.5t150.5 64.5t108 106t44.5 152q2 90 -34 195q-47 -15 -95.5 -32.5t-129 -49t-150.5 -63t-147 -73t-131.5 -81t-90 -84.5t-36.5 -86z" glyph-name="S" horiz-adv-x="1179" unicode="S"/><glyph d="M-147 -432q-15 0 -34 9.5t-19 23.5q0 9 3 16q-1 4 1.5 7.5t6.5 8t6 7.5q74 91 146.5 196t164 247.5t133.5 205.5q124 189 196 289q8 11 24 31.5t28 38t20 33.5q6 10 12.5 31t9.5 28l-5 12q5 24 17 32q10 47 10 84q0 126 -190 183q-86 23 -109 23q-18 0 -46.5 -3.5 t-66 -9.5t-49.5 -8q-47 -6 -124 -17q-9 -1 -39.5 -7t-46.5 -6q-24 0 -24 47q0 20 7.5 27t27.5 12q4 0 5 -1q152 11 212 11q69 0 152 -10q4 0 22 -3.5t27 -3.5q24 0 70.5 3.5t59.5 4.5q134 8 196 10q44 2 183 5.5t215 7.5q65 4 194 6q159 7 204 7q99 0 182 -10q12 -16 12 -26 q0 -17 -28 -20q-51 32 -263 32q-1 0 -298 -9q-48 -2 -286 -9.5t-365 -15.5q41 -12 61.5 -18.5t55.5 -23t52.5 -33.5t32 -46t14.5 -65q0 -30 -3 -46q10 15 44 60t61.5 84t31.5 54q2 9 9 9q2 0 3.5 -1t2.5 -1q5 4 11 4q13 0 33.5 -20.5t20.5 -33.5q0 -3 -10.5 -13t-24 -21.5 t-15.5 -13.5q-63 -60 -119 -141q-8 -12 -24 -52t-31 -55q-15 -6 -31 -6l-10 -12q-34 -97 -160 -293q-14 -21 -41 -64.5t-41 -65.5q-23 -37 -49.5 -77.5t-59.5 -89.5t-52 -77q-20 -30 -119.5 -167.5t-140.5 -213.5l-31 -63q-8 -18 -25 -18zM21 -123q67 79 245 343.5 t201 328.5q-108 -154 -190 -272q-39 -58 -81.5 -124.5t-95 -149.5t-79.5 -126z" glyph-name="T" horiz-adv-x="747" unicode="T"/><glyph d="M-107 -554q-47 3 -71 34t-22 78q1 70 38 161q61 149 152.5 296t219.5 321q87 120 252.5 337t207.5 272q102 133 141 192q4 6 18 26t22 29q12 13 26 12q18 -1 40.5 -15.5t21.5 -30.5q0 -25 -31 -60q-136 -143 -202 -254q-32 -53 -47 -70q-22 -28 -33 -47q-21 -11 -39 -10 q-24 1 -24 37q-11 -15 -75 -100t-104 -138t-112.5 -154t-121 -173.5t-108.5 -168t-96 -165.5t-62 -139t-27 -114q0 -76 23 -77q62 -4 114.5 15t114.5 59q58 38 125.5 92t105 86.5t120.5 109t104 95.5q209 190 385 356q29 27 93 85.5t98 91.5q27 23 40 37q11 13 27.5 41.5 t23.5 38.5q24 36 125 174q51 67 152 190t146 182q2 3 13.5 18.5t20.5 27.5t20.5 22t18.5 10q18 -1 43 -24t25 -40q0 -7 -23 -34t-52 -59t-32 -35q-193 -230 -358 -395q-6 -6 -53 -49t-68 -67q-18 -21 -46.5 -72t-31.5 -55q-36 -59 -86.5 -149t-124.5 -228.5t-124.5 -263 t-52.5 -186.5q3 -31 9 -36q-1 -17 -9 -27t-24 -9q-8 0 -28 8q-1 5 -4 34q3 75 97 274t189 366.5t160 270.5q-233 -229 -546 -520q-17 -16 -98.5 -92t-121 -111t-109 -95t-127 -101.5t-110.5 -72.5q-79 -45 -128 -42zM1268 640q269 272 396 459q-104 -85 -196.5 -196.5 t-199.5 -262.5z" glyph-name="U" horiz-adv-x="1298" unicode="U"/><glyph d="M-136 -420q-26 0 -44.5 25.5t-19.5 51.5q-1 28 19 110q23 88 63.5 189t69.5 160t93.5 183t83.5 161q94 186 208 452q58 141 68 179l-6 18q1 3 6.5 24t12.5 31t20 10q17 0 46 -15.5t30 -30.5q0 -2 -18.5 -31.5t-39.5 -62t-24 -39.5q-47 -78 -92.5 -166.5t-104 -209 t-84.5 -171.5q-16 -32 -66.5 -132.5t-84 -169t-63.5 -135.5q-91 -217 -86 -322q0 -21 7 -32q10 7 55 31q37 23 80 62q31 28 62.5 60.5t72.5 79t59 65.5q171 184 516 630q355 462 480 635q16 21 49 72t52 76q4 0 12 2t12 2q12 0 18.5 -7.5t6.5 -18.5q0 -10 -3 -19 q-7 -7 -24 -25.5t-27 -27.5q-25 -24 -49.5 -55t-52.5 -70t-44 -60q-139 -177 -332 -433.5t-337.5 -435t-356.5 -412.5q-8 -9 -36 -41.5t-53.5 -60.5t-55.5 -59t-56 -49t-42 -18z" glyph-name="V" horiz-adv-x="789" unicode="V"/><glyph d="M644 -506q-28 -1 -48.5 11t-30.5 34.5t-14.5 44.5t-5.5 49q-11 179 53.5 429.5t154.5 468.5q45 109 63 151q6 14 30 65t38.5 85t25.5 67q-29 -30 -56.5 -61.5t-59.5 -71t-50 -63t-56.5 -73.5t-50.5 -66q-379 -489 -512 -650q-56 -68 -87.5 -104.5t-83 -91t-96.5 -94.5 q-54 -52 -92 -54q-27 -1 -45.5 14.5t-19.5 42.5q-3 27 9 60q51 152 173 351q61 102 130 208t163 246t137 205q-5 7 -9 30q11 28 52 82q16 20 30.5 42t36 58.5t27.5 45.5q44 68 52 100q2 10 11 10q5 0 9.5 4t9.5 4q14 0 35.5 -17.5t22.5 -31.5q0 -9 -5 -13q-2 -2 -18 -19.5 t-19.5 -21.5t-18 -20t-19.5 -22t-17 -20.5t-18.5 -23t-15.5 -21.5t-16 -24t-14 -23q-10 -18 -27.5 -62t-31.5 -65q-15 -8 -35 -8q-4 -6 -49.5 -73t-72 -106.5t-80.5 -121.5t-90 -140t-85 -138t-81 -140t-62 -121.5t-44 -106.5t-12 -73q0 -13 6 -14q24 -4 65 26q23 17 70 56 q41 34 85 77.5t103.5 112.5t83.5 98t97 121t74 93q186 228 393 504q18 24 74 97t86 115q1 2 14 24t24 35.5t19 13.5q17 1 39 -14t23 -31q0 -9 -5 -19q-54 -75 -104 -170q-208 -398 -289 -791q-43 -207 -36 -310q5 -78 19 -104q18 -30 54 -28q70 3 199 129.5t267.5 312 t272.5 385.5t229 362.5t122 230.5q68 155 63 267q-5 72 -33.5 113t-94.5 38q-26 -1 -58 -12q-11 -1 -22.5 3t-12.5 14q0 12 16 33q40 17 76 18q76 4 116 -45.5t45 -128.5q9 -147 -61 -300q-70 -159 -219 -399q-69 -111 -163 -250t-217 -309.5t-242 -305.5t-194 -180 q-56 -33 -99 -35z" glyph-name="W" horiz-adv-x="1714" unicode="W"/><glyph d="M381 -396q-21 15 -21 44q0 337 88 867q-30 -38 -156.5 -179.5t-247.5 -277t-220.5 -263t-99.5 -161.5l1 -5q-17 -15 -29 -15q-16 0 -29 27q25 40 88.5 118t132 157t167 189.5t159.5 178t146.5 161t93.5 102.5q32 192 63 357q-23 3 -34 36q8 42 38 117q73 192 73 292 q0 22 5.5 27t27.5 5q14 0 35.5 -11t21.5 -24q0 -1 -9 -18t-19 -36.5t-12 -23.5q-42 -98 -66 -209q-4 -18 -10.5 -64.5t-13.5 -70.5l-11 -10q-16 -75 -66 -341q2 2 46.5 52.5t75 84.5t89.5 99.5t104 113.5t104 110.5t104.5 106t89.5 83.5t74.5 60.5t45.5 20.5 q13 0 26.5 -16.5t13.5 -30.5q0 -19 -18 -33q-66 -9 -146 -65q-58 -41 -122.5 -98.5t-136.5 -132.5t-121 -129t-128 -143.5t-106 -119.5q-6 -44 -24 -165.5t-26.5 -183t-16.5 -160t-8 -181.5q0 -67 2 -100q2 -54 12 -77q1 -3 2 -6.5t2 -6.5v-4q-3 0 -4 2q9 -31 -30 -50z" glyph-name="X" horiz-adv-x="795" unicode="X"/><glyph d="M-215 -726q-40 1 -63.5 29t-21.5 68q1 34 14 65.5t38.5 62t44 48.5t52.5 48q107 95 322 201q71 37 139 74q17 27 58 86t60 89q45 71 143.5 241.5t156.5 258.5q-410 -397 -605 -397q-31 0 -49.5 25t-17.5 56q2 52 41 138.5t85.5 163.5t122 185t112.5 157.5t95 125.5 q46 59 100 161q8 13 19 13q16 0 37 -14.5t21 -28.5l-3 -10q0 -7 -8 -12q-6 -16 -37 -47l-24 -6q-52 -45 -136.5 -150t-167 -224t-143 -237.5t-62.5 -179.5q-1 -33 6.5 -40t41.5 -7q59 0 139.5 36.5t162.5 97t142.5 110.5t117.5 104q48 45 52 50q16 20 49 79t41 71 q35 54 117.5 170t181.5 236t127 120q19 0 38.5 -17.5t18.5 -35.5q-1 -15 -42 -71q-120 -151 -139 -173q-206 -243 -377 -400q-18 -33 -63.5 -109t-47.5 -80q-15 -25 -72 -124t-83.5 -142.5t-75.5 -118.5t-95 -135q142 68 295.5 164.5t232 154.5t91.5 71q17 8 27 -5t3 -31 q-58 -34 -161.5 -104.5t-136.5 -91.5q-35 -22 -69.5 -42t-79.5 -43t-67 -34.5t-81 -40t-73 -35.5q-30 -50 -71 -112.5t-105.5 -148t-125.5 -153.5t-127.5 -115t-114.5 -45zM-228 -620q-2 -47 38 -47q21 0 39 6q41 12 107.5 74.5t131 143t117.5 153t82 119.5 q-19 -11 -68.5 -37.5t-75.5 -41t-70.5 -41t-73 -47.5t-63.5 -48.5t-63 -57t-50 -61.5q-50 -68 -51 -115zM835 679q262 266 380 432q7 9 28 45t22 37q-42 -18 -105.5 -83.5t-127.5 -150t-113.5 -155.5t-83.5 -125z" glyph-name="Y" horiz-adv-x="967" unicode="Y"/><glyph d="M-404 -749q-40 0 -68 24.5t-28 64.5q0 70 79 162q53 60 126.5 113t164 96.5t167 75t180.5 71.5t159 64q177 291 177 428q0 9 -4.5 25.5t-4.5 24.5q-4 5 -15 5q-12 0 -34 -8q-2 -2 -25 -22.5t-44 -38.5t-46 -39t-43.5 -34t-24.5 -13q-15 0 -32.5 22t-17.5 38q0 22 93 80 t133 74q26 13 56 13h2q61 54 132.5 125.5t152 160t141 177t77.5 149.5q-60 -1 -156.5 -55.5t-191 -131.5t-174.5 -152.5t-124 -128.5q-52 -61 -91 -155q-16 -12 -31 -12q-25 0 -40 39q1 49 223 242t350 288q57 41 137.5 86.5t116.5 45.5q23 0 44.5 -14.5t21.5 -36.5 q0 -36 -70.5 -128.5t-171 -199t-179.5 -186t-128 -125.5q26 -10 33.5 -28.5t7.5 -51.5q0 -106 -193 -437q129 62 298.5 162t215.5 161q16 6 28 -5t7 -28q-60 -53 -268 -172t-311 -165q-227 -363 -614 -577q-126 -73 -193 -73zM-427 -640q0 -29 10.5 -40t39.5 -11 q51 0 150 47q347 167 573 519q-46 -19 -131.5 -50.5t-122.5 -46.5q-145 -61 -279.5 -140.5t-193.5 -165.5q-46 -67 -46 -112z" glyph-name="Z" horiz-adv-x="953" unicode="Z"/><glyph d="M55 -364q-9 0 -15 10t-6 20q0 6 8 8v2q-27 7 -34 40q23 35 72 93.5t64 78.5q56 74 157 221t112 163q8 12 84 119.5t115 163.5q48 71 370 557q23 18 27 20q6 3 128 14q16 -14 16 -32q0 -14 -11 -30q-4 -1 -11 -1t-20 1t-19 1q-12 0 -34 -3.5t-29 -4.5q-9 -15 -29.5 -40 t-25.5 -33q-32 -45 -109.5 -146.5t-115.5 -157.5q-46 -67 -208 -299.5t-247 -361.5q-47 -70 -139 -212q-10 -16 -36.5 -61t-42.5 -69q17 -4 79 -4q53 0 79 6q16 -12 16 -27q0 -14 -13 -27q-19 0 -55 -0.5t-55 -0.5q-12 0 -36 -4t-36 -4z" glyph-name="bracketleft" horiz-adv-x="788" unicode="["/><glyph d="M72 1263q22 30 60 19q18 -59 52.5 -177.5t52.5 -177.5q7 -22 28.5 -83.5t32.5 -95.5q97 -303 118 -368l54 -183q70 -224 123 -366q2 -4 15 -36t22.5 -57.5t8.5 -30.5q-7 -20 -12 -26q-11 -16 -25 -5q-4 2 -9 7q-1 6 -6 9q-10 7 -11 19q-1 26 -13 69t-33.5 109t-23.5 72 q-190 634 -281 895q-90 260 -103 293q-4 11 -24 51.5t-22 47.5q-2 12 -4 15z" glyph-name="backslash" horiz-adv-x="955" unicode="\"/><glyph d="M-208 -363q-5 0 -8 1q-14 18 -14 34q0 13 9 29q60 19 101 19q8 0 10 1q7 21 54.5 91.5t107 153.5t71.5 101q143 216 148 223q24 33 97 133t112 155q11 16 97 145q13 19 40.5 57t40.5 58q93 139 130 180q-4 -1 -15.5 -4.5t-17.5 -3.5q-12 0 -27.5 8t-15.5 19q0 37 86 37 q64 0 64 -34q0 -20 -15 -36q-20 -23 -41 -50t-45.5 -61t-38.5 -52q-8 -10 -54 -67q-18 -21 -47.5 -63.5t-37.5 -53.5q-21 -28 -61.5 -79.5t-57.5 -74.5q-58 -76 -168 -230q-28 -39 -75.5 -116t-69.5 -108q-46 -66 -96 -146q-51 -84 -66 -116q-4 -10 -12.5 -29t-15.5 -34.5 t-15 -27.5q-20 -32 -65 -44q-58 -15 -89 -15z" glyph-name="bracketright" horiz-adv-x="1081" unicode="]"/><glyph d="M168 751q-11 0 -19 14t-8 26q0 11 19 58q6 18 25 63t27 71q5 16 15 60.5t19 66.5q17 42 57 42q26 0 46 -38q13 -24 65.5 -154.5t80.5 -162.5q-6 -27 -25 -27q-6 0 -18 4q-4 13 -9.5 27.5t-13 31t-11.5 26.5q-72 184 -125 226q-15 -23 -44.5 -112t-41.5 -137 q-1 -5 -2.5 -19t-3.5 -26t-4 -15l-8 -11q-12 -14 -21 -14z" glyph-name="asciicircum" horiz-adv-x="566" unicode="^"/><glyph d="M700 -19q-22 0 -63 3.5t-54 4.5q-97 6 -338 6q-53 0 -80 -3q-4 -1 -19 -4.5t-24 -3.5q-12 0 -27 7.5t-15 18.5q0 16 16 26t33 10q49 0 197 -9q103 -6 258 -6q66 0 141 8q17 -13 17 -29q0 -12 -11 -27q-10 -2 -31 -2z" glyph-name="underscore" horiz-adv-x="1065" unicode="_"/><glyph d="M153 687q-11 0 -22 11t-22 27.5t-17 21.5q-2 2 -9.5 7.5t-13.5 10.5t-7 8q-6 18 -6 19q0 13 17 13l1 6q14 22 36 22q19 0 29.5 -12t19.5 -36t13 -31q19 -33 19 -38q0 -11 -13 -20t-25 -9z" glyph-name="grave" horiz-adv-x="247" unicode="`"/><glyph d="M170 10q-46 -1 -75 22.5t-30 68.5q0 15 5 41t12 35q-30 -34 -93.5 -90t-84.5 -57q-21 0 -38 17t-17 38q-1 25 78 114.5t115 116.5q42 32 73 32q24 1 36.5 -9.5t21.5 -34.5q2 -2 11.5 -9t14.5 -13.5t5 -13.5q0 -5 -20 -28.5t-40.5 -59.5t-20.5 -70q1 -40 64 -40 q70 1 200 72.5t187 124.5q12 0 18.5 -8.5t2.5 -21.5q-13 -18 -169.5 -109.5t-193.5 -105.5q-32 -12 -62 -12zM-78 115q40 15 94.5 62.5t88.5 89.5l-1 7q-37 -1 -103.5 -61.5t-78.5 -97.5z" glyph-name="a" horiz-adv-x="578" unicode="a"/><glyph d="M-67 -227q-22 2 -39.5 20.5t-16.5 39.5q2 41 45.5 82.5t107 73t119 52.5t99.5 33q38 52 74.5 125t38.5 120q0 4 -0.5 9t-1.5 10.5t-1 8.5q-3 2 -12 2q-66 3 -202.5 -104t-187.5 -179q-76 -106 -93 -164q-3 -13 -16 -9l-3 -1q-4 -1 -5 -1q-11 1 -28.5 14.5t-16.5 24.5 q0 6 7 11q16 14 33 32.5t31 34.5t33 40.5t30 39.5t30.5 44t27 40.5t28 42t24.5 37.5q-12 -7 -30 -22.5t-31 -21.5q-18 -6 -24.5 4.5t3.5 19.5q37 28 70 64q185 198 326 427q94 153 187 276q14 19 31 39t38.5 44t32.5 37q3 3 15 17t19.5 21.5t19.5 18t23 15.5t21 4 q18 -1 33.5 -18.5t14.5 -34.5q-2 -36 -46 -94q-20 -27 -46 -58.5t-45.5 -53t-53 -56.5t-48.5 -52q-100 -110 -234 -265q-11 -13 -48.5 -54.5t-63.5 -72t-43 -55.5q-22 -32 -59.5 -92t-54.5 -86q38 34 128 103.5t125 88.5q36 18 64 17q33 -1 52 -22.5t17 -55.5 q-2 -42 -46 -120t-83 -127q176 45 298.5 100t155.5 84q18 7 26 -2t-1 -26q-10 -6 -44.5 -29.5t-50 -32.5t-53 -26t-82.5 -33q-42 -14 -88 -27.5t-108.5 -29.5t-89.5 -23q-44 -51 -144 -144t-140 -113q-28 -13 -48 -12zM-51 -160q42 1 123.5 65.5t132.5 118.5 q-34 -11 -71 -28t-77.5 -40.5t-70.5 -54t-37 -61.5zM243 513q103 120 210 237q15 16 55 59t61 66.5t51.5 59.5t52.5 68q49 65 51 112q-33 -13 -71 -44t-78.5 -78.5t-75.5 -92t-77 -108t-67.5 -103t-63 -99.5t-48.5 -77z" glyph-name="b" horiz-adv-x="758" unicode="b"/><glyph d="M-63 -75q-106 -40 -106 84q0 25 14 57q34 68 133.5 188.5t130.5 120.5q18 0 36.5 -15t18.5 -32q0 -12 -8 -48t-13 -40l-9.5 -9.5t-13.5 -11t-13 -3.5q-11 0 -20.5 17t-9.5 29q0 7 6 19q-37 -25 -62 -49q-38 -37 -79.5 -104t-41.5 -107q0 -14 3.5 -17.5t18.5 -5.5 q58 -5 182 52t206 109q50 30 92 60.5t52 35.5q17 6 26.5 -2t-1.5 -23q-7 -4 -145.5 -90t-182.5 -111q-112 -64 -214 -104z" glyph-name="c" horiz-adv-x="462" unicode="c"/><glyph d="M85 -135q-13 0 -20 25q80 175 97 208q43 87 202 361q-13 -16 -36.5 -45t-43 -52.5t-37.5 -43.5q4 -25 -5 -33q-3 -2 -11 -10t-14.5 -12t-13.5 -4q-1 0 -2.5 0.5t-2.5 0.5q-12 -14 -52.5 -60t-61.5 -71q-16 -18 -45.5 -54t-45.5 -54q-31 -33 -59 -33q-26 0 -42.5 19 t-17.5 46q-2 43 62.5 143.5t108.5 141.5q26 24 61.5 44.5t62.5 20.5q26 0 46.5 -16.5t26.5 -42.5q144 162 180 213q19 27 51.5 79.5t45.5 72.5q107 159 172 266q14 22 42.5 58.5t38.5 50.5q36 52 50 52t33.5 -15.5t19.5 -29.5q0 -4 -5 -13t-14 -20t-17 -21t-17 -20.5 t-11 -13.5q-108 -143 -225 -279q-52 -60 -128 -169q-90 -129 -213.5 -355t-136.5 -324q-13 -11 -23 -11zM-61 65q82 33 245 213q-1 3 -3 9.5t-7 11.5l-4 8q0 3 1.5 8t1.5 8v1q-3 2 -5 5l-4 1q-44 0 -98.5 -47t-91 -109.5t-35.5 -106.5v-2zM527 687q10 13 82 97.5 t112.5 139.5t67.5 106q-47 -42 -124 -146.5t-138 -196.5z" glyph-name="d" horiz-adv-x="548" unicode="d"/><glyph d="M-3 -20q-49 0 -82.5 20t-30.5 67q1 27 18.5 70.5t35.5 69.5q35 51 103.5 115t109.5 63q21 -1 35 -20.5t12 -41.5q0 -14 -10 -26q-29 -34 -115 -99t-115 -65q-10 -26 -11 -48q0 -30 17 -38t58 -9q93 -4 254 71t223 148q9 6 17.5 2.5t10.5 -11.5t-2 -14 q-58 -63 -255.5 -158.5t-272.5 -95.5zM12 220q46 23 92 73q-54 -30 -92 -73z" glyph-name="e" horiz-adv-x="506" unicode="e"/><glyph d="M-651 -896q-17 1 -31 16.5t-14 32.5q1 35 156.5 292.5t225.5 363.5q-1 7 -1 20q0 16 2.5 25t10.5 15t13.5 8t23.5 7q136 195 244 336q-10 10 -10 24q1 9 5 20q36 25 62 35q22 31 67.5 86.5t64.5 82.5q4 5 13.5 19t15.5 21q4 7 13 7q12 -1 31.5 -16.5t18.5 -27.5 q0 -16 -96.5 -118t-131.5 -132q-16 -13 -25 -13l-10 3q-70 -84 -241 -324q49 6 172.5 65t257 149.5t183.5 164.5q13 5 21.5 -1.5t8.5 -22.5q-30 -42 -109.5 -102t-128.5 -87q-38 -21 -151.5 -88.5t-179.5 -101.5q-15 -8 -40 -23.5t-32 -19.5q17 -35 15 -91 q-3 -68 -73.5 -200t-135.5 -223q-41 -58 -110 -128q-2 -2 -10 -10.5t-11.5 -12l-12 -12t-14 -12.5t-14 -10t-15 -9.5t-14 -5.5t-14.5 -2zM-645 -823q78 21 164.5 118t142 213t58.5 198q1 47 -26 89q-52 -79 -118 -185.5t-143 -247.5t-78 -181v-4z" glyph-name="f" horiz-adv-x="371" unicode="f"/><glyph d="M-640 -918q-41 -1 -62 36.5t-22 82.5q0 65 44 153q19 37 45 73t50 65.5t60.5 62.5t61.5 55.5t71 54t69.5 48t75.5 47.5t72 43t76.5 43.5t71.5 40.5q18 29 63 101t77 125t60 103q-32 -26 -71 -64q-148 -162 -191 -163q-21 0 -36.5 17t-15.5 38q-1 16 30 66q24 41 54.5 85 t74.5 99t90 90t83 35q23 0 41.5 -16t18.5 -39q7 15 14 15q12 0 34 -17.5t22 -29.5q0 -3 -8 -10.5t-18.5 -16t-12.5 -10.5q-38 -35 -99.5 -121.5t-89 -130t-86.5 -138.5q111 64 290.5 184.5t207.5 164.5q17 10 33 4t8 -25q-40 -40 -250.5 -173t-311.5 -193 q-199 -339 -401 -581q-95 -113 -162 -177q-31 -27 -61 -27zM-670 -772q0 -25 11.5 -55.5t32.5 -30.5q88 1 397 429q29 41 56.5 83t70 110.5t52.5 85.5q-62 -36 -87.5 -51t-86 -52t-92.5 -59.5t-82.5 -60.5t-83 -69.5t-68 -71.5t-60.5 -81q-61 -100 -60 -177zM-76 69 q20 7 46.5 23.5t57 42t53 45t54.5 49.5t41 38q-5 6 -7 23q0 4 -1 10.5t-1 9.5q0 5 6.5 15t7.5 17q-74 -6 -153 -98.5t-104 -174.5z" glyph-name="g" horiz-adv-x="528" unicode="g"/><glyph d="M-274 -207q-12 0 -30 14.5t-18 25.5q0 6 4 12q-4 7 3 12q8 2 21 14.5t29 32.5t32 41t34 48t30.5 45.5t26.5 40.5t17 27l90 126q-3 8 -3 16q0 9 12.5 24t31 32.5t22.5 21.5q15 16 30 36t33 46t27 38q232 318 283 392q18 27 57.5 82t57.5 81q4 6 22.5 34.5t36 54t38.5 54 t39 45.5t29 17q15 0 32.5 -16.5t17.5 -32.5q0 -17 -15 -40q-60 -87 -132.5 -178.5t-168 -206.5t-141.5 -172q-22 -28 -62 -81t-49 -64l-86 -112q-10 -12 -24 -39.5t-23 -38.5q-13 -17 -33 -17q-12 0 -20 5q-16 -23 -45.5 -67.5t-35.5 -53.5q-6 -8 -25.5 -41t-31.5 -49 q11 9 23 20t25.5 25.5t21.5 21.5q15 14 190 164q7 6 36 31.5t48 40.5t39 28q11 7 26 7q19 0 39 -15.5t20 -34.5q0 -17 -35 -76t-70 -135.5t-35 -138.5q0 -24 12.5 -38t36.5 -14q62 0 148 65t152 136q6 6 70.5 70t90.5 101q18 10 27 -2.5t1 -24.5q-41 -38 -120.5 -120 t-147.5 -145.5t-132 -105.5q-57 -38 -109 -38q-43 0 -64 28t-21 71q0 57 22 117t52.5 122.5t41.5 105.5q-76 -18 -225 -156t-209 -226q-10 -14 -27.5 -42.5t-26.5 -42.5q-5 -8 -13 -8zM161 464q24 27 50.5 58.5t58.5 70.5t50 60q4 4 50.5 58.5t68 80.5t65.5 81t68.5 90 t49 76t33.5 69q-21 -15 -55 -54.5t-61 -75.5t-64.5 -87t-47.5 -64q-54 -70 -152 -205.5t-114 -157.5z" glyph-name="h" horiz-adv-x="687" unicode="h"/><glyph d="M-67 -60q-33 2 -55 23t-21 53t20 73t61 107t42 67q-8 21 28 57q0 1 1 3.5t2 3.5t3 2.5t4 1.5h4q5 5 11 3q12 0 28.5 -16.5t16.5 -28.5q0 -4 -3.5 -8t-7.5 -9t-6 -8q-4 -6 -10 -10.5t-15 -9l-13 -6.5q-27 -18 -66.5 -92t-41.5 -108q-1 -22 14 -31t38 -9q121 0 342 162 q67 49 123 102q13 11 21.5 5t8 -18t-4.5 -17q-56 -49 -149 -114t-204.5 -122.5t-170.5 -55.5zM109 463q0 1 2 8.5t2 11.5q1 16 2.5 20.5t12 11t18.5 13.5l1 5q11 11 21 24l6 1q11 0 29.5 -22.5t17.5 -34.5q0 -4 -4 -6.5t-9.5 -5t-7.5 -4.5q-4 -3 -12 -13t-15 -17t-12 -7 q-7 0 -18 -2.5t-18 -2.5q-16 1 -16 20z" glyph-name="i" horiz-adv-x="445" unicode="i"/><glyph d="M-827 -914q-35 0 -50 25.5t-11.5 63.5t10.5 69.5t17 56.5q40 99 208 280q36 38 139 115q151 116 269 185q21 34 63 103t64 103q8 13 17.5 27t21.5 31t18 26q-8 14 -8 23q0 15 14 33t33.5 38t26.5 30q7 9 12 27.5t9.5 30t13.5 11.5q12 0 30.5 -7.5t21.5 -17.5q7 -7 7 -12 q0 -1 -21 -30t-44.5 -61.5t-26.5 -41.5q-8 -16 -13 -18q-7 -2 -12 -9l-3 -2q-12 -16 -33 -49.5t-32 -49.5q-12 -17 -115 -158q86 49 287.5 200t211.5 166q6 0 10.5 -0.5t7.5 -0.5t5 -2t3.5 -3t2 -4.5t1 -5.5t1.5 -8.5t1 -10.5q-19 -18 -42 -36.5t-35.5 -27.5t-46 -32 t-40.5 -28q-21 -15 -59 -43t-69.5 -50.5t-61.5 -39.5q-33 -20 -104.5 -61t-108.5 -64q-37 -52 -140 -213q-5 -8 -28.5 -46t-42 -66.5t-49.5 -77t-57.5 -86t-59 -82.5t-61 -78t-57 -62t-53 -44.5t-42.5 -15.5zM-825 -792q0 -26 9 -54q31 6 68 34t67.5 61.5t68.5 85t61 86.5 t55 86.5t42 66.5q25 39 54.5 82t65 94t55.5 80q-85 -54 -151.5 -102.5t-139 -112t-129 -136t-93.5 -151.5q-33 -75 -33 -120zM138 565q26 39 33 39q11 0 28 -17t17 -28q0 -5 -2 -7q2 -4 2 -7q0 -2 -6.5 -6.5t-14 -10t-9.5 -7.5h-7q-39 0 -41 44z" glyph-name="j" horiz-adv-x="302" unicode="j"/><glyph d="M-265 -218q-12 0 -30 12t-18 23v2q-6 6 -6 12q0 3 42 37q8 7 25.5 29t41 54t42 58t40.5 58t26 37q-4 22 14 45t41 31q9 18 36 51q-13 9 -13 26q0 13 1 20q2 10 19 27q23 21 151 157q8 9 20.5 25t18.5 23q9 11 24 32.5t20 28.5q18 24 50.5 71t44.5 63q130 182 230 329 q21 31 64.5 87.5t61.5 74.5q6 6 14 6q15 0 34.5 -15.5t19.5 -29.5q0 -12 -26 -59t-39 -64q-24 -32 -74 -85.5t-68 -75.5q-29 -34 -83 -95.5t-70 -80.5q-12 -14 -81 -90.5t-107.5 -121.5t-85.5 -109.5t-64 -107.5q-14 -34 -49 -40l-27 -39q2 -1 7.5 0.5t7.5 1.5q27 0 48 -19 q223 188 245 188q15 0 33 -13.5t18 -27.5q0 -27 -106 -106.5t-157 -106.5q3 -16 7.5 -46.5t7.5 -50.5t11.5 -45.5t20.5 -40.5t34.5 -25.5t53.5 -10.5q75 0 225 123.5t245 249.5q8 7 21 -0.5t9 -24.5q-20 -20 -73.5 -74.5t-81 -81.5t-73 -68t-85.5 -73q-9 -7 -29 -23.5 t-32 -25.5t-30.5 -20.5t-34.5 -18.5q-48 -20 -80 -20q-39 0 -66.5 15t-44 45t-26 56.5t-20 67.5t-17.5 60l-1 1q-37 -20 -59 -20q-5 0 -13 2q-135 -137 -174 -221q-1 -2 -7 -18t-12 -25.5t-12 -9.5zM-163 -16q11 11 39.5 38t43.5 43q-9 7 -16 20q-23 -33 -67 -101zM50 157 q3 -3 10 -18q136 74 182 152l-1 -1q-70 -30 -191 -133zM283 604q5 6 41.5 45t44 47.5t39.5 44t42.5 48.5t38 45.5t40 50t35 47.5t36.5 53t30.5 51t30.5 56q-60 -53 -152 -173q-46 -60 -118.5 -164t-107.5 -151z" glyph-name="k" horiz-adv-x="687" unicode="k"/><glyph d="M-122 -288q-39 0 -62.5 23t-23.5 62q0 19 13 60q39 122 127 260q55 84 62 96q-27 6 -27 39q0 12 11 23q9 9 41.5 34t45.5 37l29 29t33 31l3 2q20 29 54 80.5t63 94t56 79.5q46 63 130 186.5t96 140.5q24 34 63.5 78.5t58.5 44.5q16 0 33 -13.5t17 -29.5q0 -31 -80.5 -139 t-152.5 -192.5t-121 -138.5q-19 -20 -90 -96t-108 -118q-43 -48 -56 -65q-9 -12 -31.5 -48t-29.5 -45q-28 -33 -78 -123q-33 -59 -49 -90t-35.5 -87t-19.5 -99q0 -32 13 -42.5t47 -10.5q44 0 100 24.5t123 73.5t111.5 84.5t114.5 97.5t82 72q10 9 36.5 31t43.5 36.5t38 34.5 t33 35q11 5 23.5 -11t6.5 -26q-16 -8 -33 -20t-36.5 -27t-30.5 -23q-40 -28 -135 -108q-26 -22 -108 -92t-128 -107q-86 -71 -132 -94q-90 -44 -141 -44zM210 489q149 149 306 349q14 18 76 117q23 35 35 65q-28 -21 -53.5 -46t-51.5 -57.5t-43 -55t-45.5 -63.5t-40.5 -58 q-18 -25 -83 -114t-100 -137z" glyph-name="l" horiz-adv-x="605" unicode="l"/><glyph d="M-151 35q-10 0 -25.5 17t-15.5 27q0 8 8 13q53 35 83 62.5t64 74.5q53 73 66 117q15 46 23 51q12 8 25 8q11 0 23 -11.5t12 -22.5t-16 -33t-40 -49t-28 -33q143 113 162 113q18 0 35 -11.5t17 -28.5q0 -19 -45 -81.5t-52 -87.5q24 11 55.5 36t77.5 67.5t52 47.5 q13 11 30 11q18 0 39 -14t21 -32q0 -19 -22 -65.5t-22 -73.5q0 -36 42 -36q40 0 93 20.5t82 37t94.5 59.5t69.5 46q10 4 20 -13t2 -29q-21 -13 -62.5 -34.5t-53.5 -28.5q-14 -8 -57 -33.5t-72 -42t-67 -31.5t-64 -15q-41 0 -66.5 25.5t-25.5 66.5q0 17 4 34.5t10.5 38.5 t9.5 33q-34 -23 -54 -41q-4 -3 -30.5 -28.5t-44 -41t-41 -31t-37.5 -15.5q-20 0 -38.5 19.5t-18.5 39.5q0 11 41.5 78t47.5 85q-149 -96 -220 -165q-42 -41 -66 -91q-4 -8 -10 -8q-3 0 -7 2l-3 -2h-3z" glyph-name="m" horiz-adv-x="768" unicode="m"/><glyph d="M92 -83q-34 -2 -56 17.5t-23 52.5q-3 46 27 102t71.5 116t54.5 96q-44 -20 -128 -89t-115 -109q-22 -31 -37 -55q-3 -4 -17.5 -24t-22.5 -33.5t-12 -26.5q-5 -9 -19.5 -9t-30 11t-16.5 25q0 5 6 11q65 62 126 134q25 29 76 116t57 115q-5 19 4.5 35.5t20.5 16.5 q25 0 37 -8t9 -37t-54 -101q115 97 143 98q16 1 31.5 -13t16.5 -30q1 -19 -26 -61t-59.5 -84.5t-59 -94t-24.5 -87.5q1 -14 8 -17t25 -2q85 5 216.5 103t183.5 178q14 11 23 6t9 -23q-19 -29 -82 -92q-78 -77 -186 -155t-177 -82z" glyph-name="n" horiz-adv-x="520" unicode="n"/><glyph d="M-108 -33q-14 0 -31 16t-17 31q0 24 76 154q14 25 56 82q1 5 23.5 30.5t26.5 25.5q9 0 29 -17q8 10 23 20.5t25 10.5q3 0 16 -10.5t29.5 -23t26.5 -16.5q71 -27 140 -31q40 -3 70.5 1.5t67 16.5t43.5 14q8 2 14 -3.5t7 -14.5q1 -8 -14 -30q-164 -35 -233 -26 q-26 3 -51 9.5t-60.5 18t-50.5 15.5q-13 -45 -97.5 -159t-118.5 -114zM-91 56q38 22 77.5 68t51.5 87q-9 -11 -40 -14q-28 -27 -53 -66.5t-36 -74.5z" glyph-name="o" horiz-adv-x="493" unicode="o"/><glyph d="M-628 -781q-13 0 -32 10.5t-18 22.5q0 2 17 25t36.5 49t23.5 33q188 311 255 412q69 102 124 170q3 4 8.5 10.5t10 12t8.5 10.5q7 10 19.5 32t19.5 32q80 126 144 220q-4 12 -4 16q1 21 33 54t36 40q11 22 30 24t32.5 -11t12.5 -29q0 -4 -4 -8t-17 -13.5t-21.5 -17 t-14.5 -15.5q-4 -5 -11.5 -23.5t-18.5 -29.5q-6 -6 -22 -6q-77 -94 -121 -156q30 34 75 78.5t103.5 97t115 87t89.5 33.5q30 -1 49.5 -20.5t18.5 -49.5q0 -11 -3 -22.5t-6.5 -21.5t-10.5 -24t-11.5 -22.5t-14.5 -23.5t-14.5 -22t-16.5 -22.5t-15.5 -19.5t-16 -20t-13.5 -17 q85 27 189 77.5t146 92.5q8 8 24.5 -6t8.5 -24q-37 -41 -169.5 -98t-241.5 -95q-64 -78 -123.5 -131.5t-132.5 -87.5q-44 -17 -56 -16q-23 1 -41.5 19t-17.5 41q2 24 18 44q25 32 63 58.5t91.5 47.5t86 31.5t90.5 27.5q107 139 110 216q0 12 -1 19h-5q-36 0 -108 -39 q-78 -43 -146.5 -108t-151.5 -159q-1 -1 -22.5 -25t-30.5 -37q-14 -19 -70 -121q-105 -186 -175 -294q-3 -4 -18 -27.5t-27 -43t-30.5 -49t-32 -53.5t-27 -48.5t-21 -42t-7.5 -25.5q0 -7 -9.5 -13t-17.5 -6zM-510 -548q141 221 231 377q-123 -174 -231 -377zM-105 -126 q99 9 219 143q-41 -15 -63 -24t-58.5 -27.5t-60.5 -41t-37 -50.5z" glyph-name="p" unicode="p"/><glyph d="M-304 -721q-20 1 -35.5 18t-14.5 37q1 30 28 95q8 17 27 64t31 72q51 106 131 232q-2 1 -9.5 6.5t-9 6.5t-7.5 5.5t-7 6.5t-5 6.5t-4.5 8t-2.5 9t-2 11.5v13q0 15 9 24q6 7 26 16.5t40 17t46.5 16.5t31.5 11q98 142 144 214q-50 -42 -142 -132q-28 -26 -53 -26 q-17 1 -32.5 18.5t-14.5 34.5q2 59 92 172.5t148 144.5q28 15 54 15q23 -1 39.5 -18t22.5 -41q11 -3 28 -20t16 -27q0 -7 -42 -37q-19 -16 -51.5 -56t-56.5 -73t-61.5 -86.5t-44.5 -63.5q127 46 257 125t220 169q19 4 28 -7.5t3 -24.5q-31 -32 -92 -79.5t-100 -70.5 q-123 -73 -165 -92q-112 -50 -213 -106q-21 -29 -33 -49q34 -41 32 -109q-3 -78 -29 -156q-21 -59 -80.5 -156t-100.5 -125q-22 -14 -46 -14zM-294 -626q0 -12 1 -18q23 6 60 43q57 58 95 141.5t40 161.5q2 46 -21 79q-60 -95 -116 -215t-59 -192zM-291 -652q0 -1 2 -3z M-100 -141l2 -2l4 6zM-62 93q42 16 111.5 76.5t119.5 113.5q-5 6 -10 19.5t-8 18.5q-49 1 -124.5 -86.5t-88.5 -141.5z" glyph-name="q" horiz-adv-x="499" unicode="q"/><glyph d="M38 -164q-33 -21 -69 -24.5t-60.5 16t-22.5 58.5q1 15 6 33.5t15.5 42.5t17 37t21.5 41.5t16 31.5q6 11 23 36.5t29 47.5t13 37q1 6 -15 41q-23 8 -22 30q0 5 4 13q-6 15 -4 32q2 32 41 79t70 60q22 9 40 9q23 -1 36 -17t11 -38q0 -11 -8 -22q-19 -21 -56 -58.5 t-52 -53.5q2 -3 8 -17t9 -20.5t5.5 -17.5t1.5 -20q-1 -24 -37.5 -73t-74 -110t-40.5 -114q-1 -17 4 -22.5t22 -6.5q64 -1 241.5 132t259.5 216q12 11 27.5 29t27.5 29q11 2 17 -7.5t2 -23.5q-94 -99 -249 -220t-258 -186zM50 317q32 21 65 67q-20 -10 -42 -28.5t-23 -33.5 v-5z" glyph-name="r" horiz-adv-x="529" unicode="r"/><glyph d="M-222 -231q-22 -2 -40.5 11.5t-20.5 35.5q-2 25 19.5 57.5t56.5 64.5t63.5 54t54.5 40q4 17 10 47.5t11.5 55t13.5 45.5q-3 8 -3 14q-2 19 23 37q20 48 56 99.5t70 54.5q18 1 33.5 -14t17.5 -34q1 -8 -5.5 -18.5t-18.5 -23t-21.5 -21.5t-23 -20.5t-16.5 -13.5 q-11 -9 -30.5 -34t-32.5 -35q-4 -11 -25 -112q21 10 66.5 30.5t82.5 39t66 36.5q6 4 39 24.5t48.5 30.5t38 26.5t34.5 28.5q15 6 23 -0.5t1 -28.5q-59 -49 -190 -122.5t-224 -115.5q-3 -13 -24 -62q-16 -37 -71 -106t-82 -71zM-198 -143q46 37 80 98q-52 -51 -80 -98z" glyph-name="s" horiz-adv-x="347" unicode="s"/><glyph d="M-370 -471q-15 0 -27 16t-8 30q1 7 9 22t18 33.5t12 22.5q26 47 83 155t90 164q32 55 54 89t53 80t57 87q-5 10 -5 16q0 16 14.5 34t36.5 38t28 27q8 9 40 63q51 83 157 240q7 11 71 104q-222 -14 -457 -47q0 -18 -22 -18q-3 0 -8.5 1.5t-7.5 1.5q-4 0 -8 -4l-6 -2 q-4 0 -13 4.5t-12 5.5q-11 -2 -43.5 -7.5t-59.5 -9.5t-40 -4q-24 0 -24 43q-1 18 4.5 24.5t22.5 9.5q2 2 5 2l3 -1q63 9 134 9q38 0 50 -8q8 -6 17 -19q62 3 298 22l177 12q76 107 128 171q60 72 90 130q7 13 18 13q12 0 31.5 -13t19.5 -24q0 -7 -5 -10q2 -6 -1.5 -11.5 t-9.5 -7.5q-28 -36 -81.5 -100.5t-70.5 -85.5l-45 -57q117 7 353 17q185 9 248 9q114 0 162 -13q11 -17 11 -22q0 -11 -20 -11h-9q-35 27 -206 27q-56 0 -117.5 -2t-141 -6t-117.5 -6q-58 -2 -174 -8q-28 -39 -84 -119l-207 -297q-9 -13 -27.5 -57t-27.5 -54l-3 -4l-7 -6 q0 -1 -1 -2l-1 -2q-18 -9 -22 -9t-9 3q-80 -112 -182.5 -286.5t-168.5 -342.5q9 -12 9 -29q0 -5 -9.5 -13t-15.5 -8zM200 544q55 67 155 209h-8q-43 -57 -147 -209zM359 768h7q36 52 55 78q-22 -26 -62 -78z" glyph-name="t" horiz-adv-x="343" unicode="t"/><glyph d="M93 -56q-29 -1 -49 19.5t-18 50.5q1 18 14.5 46.5t37.5 68t27 44.5q-32 -29 -74 -65.5t-100.5 -80t-75.5 -42.5q-15 1 -29.5 20t-13.5 34q1 14 26 42q24 28 48 58.5t57.5 76t44.5 60.5l1 5q1 5 4.5 9.5t9.5 9t8 6.5q12 12 31 41.5t22 33.5q5 5 9 5q11 -1 31 -21t19 -31 q0 -4 -3.5 -6.5t-9.5 -6t-8 -4.5q-8 -7 -34 -42.5t-32 -37.5q-27 -8 -31 -8q-76 -83 -114 -159q41 16 134 81t119 96q5 6 20.5 30.5t30.5 49t30 44t21 19.5q12 -1 29 -18t16 -29q0 -5 -6 -11q2 -8 -3 -10q-46 -21 -79 -64q-121 -148 -126 -223q-1 -19 8 -25.5t28 -5.5 q76 4 238.5 102.5t213.5 160.5q16 7 29 -3.5t4 -29.5q-75 -69 -253.5 -178t-251.5 -112z" glyph-name="u" unicode="u"/><glyph d="M-126 -83q-14 1 -30 18.5t-15 32.5q0 17 12 39q120 224 138 266q2 5 19 36.5t21 36.5q8 12 27 12q12 -1 27.5 -13t14.5 -24q0 -3 -12 -21.5t-27 -40.5t-19 -29q-15 -26 -44 -71t-51 -83t-36 -75q109 41 223 162.5t164 236.5q22 51 23 75q0 5 -1 7q-13 -6 -25 -20 q-5 -1 -16 -1q-30 1 -32 40q33 54 81 51q22 -1 37 -18t14 -39q-1 -12 -7 -28.5t-12 -27.5t-17.5 -30t-14.5 -24q-72 -123 -139.5 -200.5t-186.5 -181.5q-98 -87 -116 -86z" glyph-name="v" horiz-adv-x="474" unicode="v"/><glyph d="M111 -23q-17 0 -34.5 17t-17.5 34q0 19 19 60.5t46.5 92t32.5 61.5q-11 -10 -72.5 -72.5t-115 -110t-71.5 -47.5q-14 0 -27.5 18.5t-13.5 33.5q0 9 7 16q18 20 33.5 42.5t37 58.5t28.5 46q14 23 44 89q3 6 10 4q1 1 7 1q12 0 32 -16t20 -28q0 -4 -3 -7q-6 -6 -17.5 -15.5 t-15.5 -12.5q-27 -22 -59 -65t-51 -80q40 17 98 68.5t100 98.5q6 7 18.5 23.5t23.5 29t22 20.5q6 4 11 4q13 0 32 -15t19 -28q0 -4 -31.5 -47t-64 -100t-35.5 -94q55 17 106 74t80 126.5t29 127.5q0 16 -1.5 25.5t-9 18.5t-21.5 11q-8 14 -8 30q0 24 22 46q30 -5 47.5 -28 t17.5 -53q0 -86 -38 -182q-28 -70 -106 -173t-130 -103z" glyph-name="w" horiz-adv-x="512" unicode="w"/><glyph d="M-167 -118q-18 0 -31.5 8.5t-13.5 25.5q0 31 22 67q98 159 205 307q135 187 195 254q35 38 55 38q19 0 36 -14t17 -33q0 -14 -10.5 -53.5t-25.5 -86.5t-18 -60q-5 -21 -19 -82q4 3 7 7q12 14 41 46.5t44 50.5q6 7 23 30t30.5 38t26.5 27q2 0 5.5 0.5t5.5 0.5q34 0 34 -29 q0 -8 -3 -17q-17 -17 -53 -45t-41 -32q-50 -42 -127 -119q-9 -67 -9 -113q0 -20 3 -44t10.5 -52.5t23 -47t36.5 -18.5q55 0 183 125.5t182 202.5q4 1 12 1q25 0 25 -23q0 -5 -2 -13q-80 -66 -104 -90q-26 -25 -71.5 -73.5t-84.5 -87t-77 -67.5q-35 -26 -65 -26 q-31 0 -52.5 19t-31 50.5t-13.5 59.5t-4 57q0 46 7 109q-59 -63 -164 -155.5t-166 -129.5q-21 -13 -43 -13zM-148 -75q73 23 175 112t184 179q2 13 20.5 112t18.5 151q0 5 -1 17t-1 17q-21 -15 -115 -132.5t-187.5 -259t-93.5 -193.5v-3z" glyph-name="x" horiz-adv-x="681" unicode="x"/><glyph d="M-508 -662q-35 0 -57 27t-22 63q0 47 35.5 102.5t95 109t106 89t97.5 70.5q33 22 69 42.5t93.5 50.5t72.5 38h1q81 136 161 277q-7 -7 -65 -54q-4 -3 -57 -47t-84 -62q-17 -10 -34 -10q-19 0 -34 16t-15 36q0 10 6 19q9 14 31.5 37.5t30.5 34.5q47 64 61 94q19 43 27 43 q16 0 36 -17t20 -34q0 -2 -4 -6q-85 -69 -130 -143q67 26 136.5 79.5t121.5 114.5q13 18 32 25t34 -2.5t15 -35.5q0 -3 -6 -9.5t-12.5 -12.5t-15.5 -13t-10 -8q-34 -32 -68 -80.5t-82 -129t-56 -92.5q131 65 286.5 159.5t218.5 161.5q21 6 29.5 -6.5t2.5 -23.5 q-10 -12 -55.5 -48t-67.5 -49q-63 -39 -135.5 -78.5t-165.5 -87t-139 -72.5q-23 -32 -66 -102.5t-68 -104.5q-44 -62 -101.5 -133.5t-140.5 -149.5t-128 -78zM-526 -556q0 -18 9 -33t26 -14q29 0 72 28q164 108 377 462q-15 -9 -70.5 -40t-79 -45.5t-72.5 -45t-76.5 -54 t-63.5 -56t-60.5 -66.5t-42.5 -71q-19 -42 -19 -65z" glyph-name="y" horiz-adv-x="532" unicode="y"/><glyph d="M-635 -789q-27 0 -43 16.5t-16 43.5q-1 28 52 114q183 280 569 542q91 62 122 77q5 12 17 41t20.5 50.5t13.5 41.5q-41 -34 -59 -73q-3 -7 -8 -7q-10 -1 -33.5 19.5t-24.5 30.5q0 6 8 10q51 30 70 46q33 30 91 104.5t73 110.5q-40 -13 -85.5 -46t-72.5 -66q-3 -4 -20 -25 t-26 -31q-9 -3 -18 -3q-31 0 -33 42q5 11 17 23q23 22 141 98t136 76q15 0 28 -18t13 -34q0 -10 -9 -23q-21 -28 -75.5 -82.5t-70.5 -72.5q12 -2 27.5 -16t16.5 -26q0 -5 -16.5 -34t-37.5 -63t-24 -40q36 20 130 66q171 80 255 147q16 8 22.5 -6.5t-0.5 -27.5 q-35 -18 -91 -47.5t-81 -42.5t-67 -34.5t-85.5 -42t-101.5 -47.5q-15 -26 -112 -204q-81 -150 -212.5 -298.5t-264.5 -229.5q-102 -59 -135 -59zM-630 -728q5 -4 20 -4q61 1 171 77q153 108 274 273t201 355q-58 -33 -139.5 -90.5t-174.5 -136t-171.5 -159.5t-130 -165.5 t-50.5 -147.5v-2z" glyph-name="z" horiz-adv-x="509" unicode="z"/><glyph d="M22 -490q-21 6 -32.5 29t-11.5 48q0 38 36.5 104t88.5 139.5t104.5 149t89 151t36.5 126.5q0 6 -10 15.5t-10 22.5q0 37 18 48q11 7 35 16.5t32 13.5q119 59 196 207q27 51 72 165t91 199.5t107 139.5q21 19 39 19q13 0 24 -9.5t11 -21.5q0 -8 -4.5 -17.5t-11.5 -9.5 q-47 0 -100 -68q-16 -20 -28 -42.5t-28 -58.5t-21 -46q-11 -24 -32.5 -67l-28.5 -57q-11 -22 -29.5 -64.5t-35 -76.5t-34.5 -62q-39 -62 -86.5 -104t-122.5 -89q12 -28 12 -45q0 -49 -36.5 -123t-89 -149.5t-105 -149t-89 -138.5t-36.5 -101q0 -21 5 -36l8 -5q5 -10 5 -18 q0 -23 -28 -35z" glyph-name="braceleft" horiz-adv-x="712" unicode="{"/><glyph d="M185 -357q-16 0 -31 12q0 2 -0.5 6.5t-0.5 6.5q0 1 3 40q1 12 1 109q0 35 4.5 104t4.5 104q0 95 1.5 287t1.5 287q0 88 3.5 264t3.5 265q0 28 -5 83t-5 83q0 11 12 26.5t23 15.5q8 0 18 -16.5t10 -25.5q0 -6 -2.5 -17.5t-2.5 -18.5q0 -22 -3 -65t-3 -65 q0 -78 -4.5 -226.5t-5.5 -174.5q0 -16 -3.5 -86t-3.5 -107q0 -54 -1 -160t-1 -160q0 -290 4 -396q2 -72 8 -107q6 -36 6 -37v-20q-17 -11 -32 -11z" glyph-name="bar" horiz-adv-x="625" unicode="|"/><glyph d="M-276 -491q-71 0 -104 18q0 45 36 54q17 -16 78 -16q40 0 68 18q33 20 71 77q65 94 77 116q22 39 62 122.5t64 124.5q41 68 110 149q10 12 30.5 31t28.5 27q-22 16 -35.5 52t-13.5 66q0 17 16 60q31 81 73 143q13 18 93 130q7 10 34 44t46.5 61t41.5 61.5t33.5 63.5 t8.5 49q-3 24 -73 24q-5 0 -13 -2.5t-13 -2.5q-13 0 -27 7t-14 19q0 43 94 43q38 0 74 -28t36 -65q0 -30 -23 -70q-35 -58 -119 -159.5t-118 -155.5q-49 -79 -74 -148q-15 -41 -15 -68q0 -38 37 -77q10 -5 16 -24.5t6 -34.5t-12 -24q-8 -6 -27.5 -15t-28.5 -17 q-73 -66 -137 -162q-23 -35 -64 -116t-74.5 -148t-81 -131t-89.5 -84q-24 -12 -78 -12z" glyph-name="braceright" horiz-adv-x="749" unicode="}"/><glyph d="M318 214q-26 0 -49 13t-49 36t-41 32q-10 6 -32.5 -15t-27.5 -35q-2 -5 -13.5 -14t-16.5 -9q-17 0 -17 33q0 20 42 54t64 34q21 0 39 -13t29 -28.5t29.5 -28.5t40.5 -13q16 0 30 9t19 23q3 3 6 20q10 5 20 5q17 0 30 -15q0 -34 -34.5 -61t-68.5 -27z" glyph-name="asciitilde" horiz-adv-x="526" unicode="~"/><glyph d="M519 757q28 0 28 -33q-12 -11 -25 -26t-20 -25t-22 -31.5t-19 -27.5q-8 -12 -50.5 -71t-63.5 -92q-23 -36 -65 -103t-76.5 -121.5t-65.5 -102.5q-7 -11 -19 -30.5t-22 -35.5t-19 -30q-6 -9 -20.5 -40t-27.5 -44q-12 -5 -21 -5q-21 0 -25 32q4 12 7 18q7 13 26 33t25 29 q20 30 60.5 84.5t48.5 65.5q57 80 158 244.5t151 236.5q9 12 23 37t23 37q4 1 11 1zM550 897q0 18 18 39.5t36 21.5q17 0 34 -17t17 -34q0 -15 -7 -22l6 -9q-3 -15 -20 -27.5t-32 -12.5q-22 0 -37 19.5t-15 41.5z" glyph-name="exclamdown" horiz-adv-x="551" unicode=""/><glyph d="M10 -143q-17 0 -26 26q8 16 27 45t23 36l54 94q-24 8 -39 28.5t-15 45.5q0 63 44 149.5t114.5 153t135.5 66.5q9 0 13 -1q29 54 47 105q14 39 21 53q36 0 51 -32q0 -1 -16 -21t-19 -23q-39 -47 -63 -89q51 -20 51 -123q0 -13 -12 -28.5t-24 -15.5q-11 0 -19.5 17.5 t-8.5 29.5q0 4 2.5 11t2.5 11q0 40 -26 45q-16 -27 -49.5 -82.5t-58.5 -99t-45 -84.5q-26 -52 -40 -77l13 -1q100 0 224 124q39 0 39 -41q-5 -3 -68 -39q-7 -4 -36 -21.5t-44 -25.5t-40.5 -20.5t-47 -18t-40.5 -5.5q-8 0 -24 2q-62 -122 -82 -188q-12 -6 -19 -6zM79 160 q0 -47 35 -57q30 54 95.5 166t98.5 171q-73 -1 -151 -102.5t-78 -177.5z" glyph-name="cent" horiz-adv-x="450" unicode=""/><glyph d="M-22 -2q-8 0 -18 13.5t-10 22.5q0 7 11 13.5t26.5 12t18.5 7.5t7 5t8.5 7.5l6.5 6.5q67 61 173 216q-8 -1 -37.5 -7t-43.5 -6q-8 0 -21 9t-13 17q0 7 14 16.5t21 9.5q8 0 24.5 -3t23.5 -3q16 -1 46 -1h8q103 149 156 208q93 106 148 106q31 0 31 -31q0 -21 -10 -21 q-7 0 -13 6q-2 2 -3 2q-2 0 -3.5 -5t-4.5 -4q-7 2 -27 -6q-32 -15 -66 -43.5t-71 -72.5t-55 -67.5t-53 -71.5q123 3 124 3h2q11 -9 11 -18t-15 -18q-32 8 -73 8q-24 0 -70 -4q-12 -16 -40.5 -57t-44 -63t-40.5 -54t-47 -58q36 0 107.5 -9.5t107.5 -9.5q85 0 103 31 q33 -3 33 -38q-40 -26 -120 -26q-28 0 -82 7t-82 7q-96 0 -119 -20l-18 -14q-2 0 -5.5 -1.5t-5.5 -1.5z" glyph-name="sterling" horiz-adv-x="578" unicode=""/><glyph d="M487 125q-16 16 -28 30t-26 28q-25 -25 -62.5 -35.5t-66.5 10.5q-12 12 -16 19q-8 -4 -20 -13t-21.5 -15.5t-20 -12t-20.5 -4.5t-19 10q-7 8 -6.5 18t7.5 17q12 13 25.5 20t34 14t32.5 13q3 48 30 77q-18 18 -29 27t-29 27q-28 26 -10 44q4 4 8.5 5.5t9 0t8.5 -3t9 -6 t8 -7t7.5 -7.5t5.5 -6l13 -13t5 -5.5t5.5 -6.5t12.5 -13q85 58 129 -11q21 13 40.5 26.5t40.5 26.5q17 -4 23 -10q12 -12 6 -36q-23 -16 -51 -24.5t-46 -17.5q5 -32 -18 -77q16 -15 26 -22.5t23.5 -17t29.5 -21.5q2 -20 -8 -30q-9 -10 -29 -10zM385 302q-35 -18 -41 -60 q-5 -32 13 -36q13 -3 32 16q44 44 12 75q-9 9 -16 5z" glyph-name="currency" horiz-adv-x="781" unicode=""/><glyph d="M78 0q-26 0 -30 32q82 93 122 144q-21 0 -61 -8t-60 -8q-7 0 -10 1q-19 15 -19 28t16 27q9 3 22 3q10 0 29.5 -1.5t29.5 -1.5q15 0 43.5 2.5t43.5 2.5l17 23q-16 -7 -37 7t-21 32q0 17 6 48t11 53t16 63t12 45q3 11 14 11q12 0 29 -9.5t17 -21.5q0 -1 -5 -9t-11 -17.5 t-7 -11.5q-11 -21 -19 -59t-8 -63q10 5 19.5 12t20.5 17t17 15q111 85 176 211q3 8 12 8q10 0 25 -11t15 -21v-2q2 -4 2 -8l-67 -65q-7 -7 -19.5 -25t-16.5 -23q-23 -30 -71 -90q-4 -5 -38 -44.5t-48 -61.5q6 0 37.5 3.5t48.5 3.5q14 0 29 -5q3 -9 3 -19q0 -26 -26 -34 q-16 10 -50 10q-13 0 -38.5 -1.5t-38.5 -1.5q-5 -10 -13.5 -21.5t-19.5 -25t-16 -19.5q-14 -19 -36.5 -57.5t-33.5 -54.5q-8 -2 -13 -2z" glyph-name="yen" horiz-adv-x="508" unicode=""/><glyph d="M188 689q-5 0 -10.5 5t-5.5 10q0 98 -3 295t-3 295q0 11 12 26.5t23 15.5q8 0 18 -17t10 -25q0 -6 -2.5 -17.5t-2.5 -18.5q0 -22 -3 -65t-3 -65q0 -67 -5 -200.5t-5 -200.5v-7.5v-9t-1 -8t-3 -7.5t-6 -4t-10 -2zM153 -332q0 1 3 40q1 9 1 109q0 70 3 210t3 210 q0 24 20 24q18 0 18 -23q0 -364 2 -420q2 -72 8 -107q6 -36 6 -37v-20q-17 -11 -32 -11q-16 0 -31 12q0 2 -0.5 6.5t-0.5 6.5z" glyph-name="brokenbar" horiz-adv-x="659" unicode=""/><glyph d="M52 -103q-41 2 -70 32.5t-26 71.5q3 61 42 108h2q32 -3 36 -35q-28 -22 -30 -64q-5 -61 56 -65q13 -1 24 3t19 13.5t14.5 19.5t11.5 26t8.5 27.5t6.5 30t4 27.5t3 26t2 20q6 61 18 119q16 69 52 120q1 1 7.5 11.5t8.5 12.5l8 8t12.5 7t14.5 0l4 -1q25 168 112 228 q35 28 72 24q24 -1 41 -15.5t16 -37.5q-2 -27 -26 -65t-49 -63q-4 -3 -14.5 -18t-14.5 -16q-9 -3 -11 -7q-10 -4 -17 -4q-15 1 -15 26q4 10 5 15q1 4 45 50q70 73 36 80q-5 1 -11 1q-25 0 -56 -24q-44 -38 -63 -114q-6 -23 -19 -134t-42 -164q-15 -31 -56 -29q-11 2 -18 6 q-3 -16 -5 -48q-3 -40 -8.5 -70.5t-19.5 -67t-42 -55.5t-68 -16zM202 202q20 4 34.5 21t22 46t10.5 47t6 46q-50 -43 -73 -160z" glyph-name="section" horiz-adv-x="427" unicode=""/><glyph d="M286 717q-43 0 -43 44q0 16 15 27.5t32 11.5t27.5 -13.5t10.5 -32.5q0 -15 -13 -26t-29 -11zM65 774q0 15 11 27t32 12q16 0 25.5 -10.5t9.5 -22.5q0 -16 -9 -29.5t-26 -13.5q-43 0 -43 37z" glyph-name="dieresis" horiz-adv-x="383" unicode=""/><glyph d="M563 838q-85 0 -135 55t-50 141q0 78 25.5 153t71 134t115 95.5t150.5 36.5q53 0 109.5 -23t98.5 -69t42 -101q0 -96 -65 -195.5t-165.5 -163t-196.5 -63.5zM399 1051q0 -91 45.5 -141.5t135.5 -50.5q83 0 173 57.5t149.5 146.5t59.5 172q0 3 -1 10.5t-1 11.5 q-14 -4 -26 11q-2 8 -3.5 23.5t-4.5 23.5l-2 2q0 9 -11 27q-55 87 -181 87q-96 0 -174 -56.5t-118.5 -143t-40.5 -180.5zM528 1090q0 54 67.5 122t121.5 68q12 0 23 -7.5t11 -18.5q0 -31 -17 -31q-5 0 -7.5 5t-5.5 5q-42 7 -98 -40t-56 -91q0 -34 50 -34q49 0 107.5 23 t93.5 57q25 0 25 -17q0 -4 -2 -12q-39 -30 -119.5 -58.5t-127.5 -28.5q-29 0 -47.5 15t-18.5 43z" glyph-name="copyright" horiz-adv-x="1077" unicode=""/><glyph d="M300 10q-48 40 -96 57q-52 19 -175 41q-20 4 -30 14q-6 6 -6 18q0 34 26 50q19 12 42 21.5t56 21.5l44 16q160 63 238 122q14 11 22 11q9 0 17 4h8q17 0 17 -11q0 -15 -16.5 -31.5t-32.5 -21.5q-70 -23 -189.5 -74.5t-159.5 -81.5q13 -8 52 -23.5t98 -37t60 -22.5 q56 -20 67 -27q0 -38 -42 -46zM279 166q0 35 24 51q16 11 36.5 20t50 19.5t39.5 14.5q81 32 159 85q24 15 32 15q37 0 37 -15q0 -9 -14.5 -20t-16.5 -14q-5 -8 -25 -13q-31 -9 -126.5 -53t-121.5 -61q26 -22 132.5 -64t122.5 -56q-3 -39 -45 -45q-9 8 -20.5 16.5t-22 15 t-27.5 14.5t-27 12.5t-29.5 12t-27 10t-28.5 10t-24 8.5q-10 4 -34 9t-35 10q-9 4 -9 18z" glyph-name="guillemotleft" horiz-adv-x="846" unicode=""/><glyph d="M592 834q-89 0 -146 47.5t-57 135.5q0 92 70 176t162 122q70 28 158 28q82 0 141 -65q23 -25 35.5 -41t24 -41.5t11.5 -51.5q0 -77 -69.5 -151.5t-162 -116.5t-167.5 -42zM417 1022q0 -73 50.5 -118.5t124.5 -45.5q95 0 195 55t147 136q26 45 26 81q0 33 -9 54t-34 43 q-6 -6 -13 -6q-9 0 -19 8q-3 5 -7.5 14.5t-8.5 17t-9 12.5q-38 38 -118 38q-117 0 -221 -87t-104 -202zM556 1017q0 7 26 27q3 8 35 54.5t39 60.5q1 2 5.5 13t9 17.5t9.5 6.5q11 0 19 -7h2q40 30 68 30q13 0 26 -11.5t13 -24.5q0 -33 -27 -58t-62 -40q18 -7 41 -24t24 -29 q1 -14 -7.5 -20.5t-24.5 -8.5q-11 6 -29 21.5t-21 17.5q-8 6 -24.5 11t-21.5 7q-8 5 -8 15q-25 -37 -41 -83q-1 -6 -8 -6q-10 0 -26.5 11t-16.5 20zM688 1126q48 16 61 38q-29 -6 -61 -38z" glyph-name="registered" horiz-adv-x="1092" unicode=""/><glyph d="M175 702q-17 0 -30 8t-13 24q0 14 19 25l21 3q11 0 31.5 -4.5t30.5 -4.5q79 -5 223.5 1.5t188.5 6.5q16 -14 16 -27t-14 -27q-3 0 -8.5 -0.5t-8.5 -0.5q-25 0 -73 2.5t-73 2.5q-147 0 -252 -5q-6 0 -26.5 -2t-31.5 -2z" glyph-name="macron" horiz-adv-x="788" unicode=""/><glyph d="M219 684q-36 0 -63 29.5t-27 65.5q0 47 46 105t91 58q47 0 81 -29.5t34 -76.5q0 -50 -56 -101t-106 -51zM191 784q0 -19 6.5 -28t25.5 -10q37 -2 68 27t31 66q0 15 -16.5 28.5t-31.5 13.5q-4 0 -12 -2q6 -8 6 -13q0 -14 -20 -16q-6 -1 -8.5 -7t-8.5 -6q-13 0 -26.5 -19 t-13.5 -34z" glyph-name="degree" horiz-adv-x="439" unicode=""/><glyph d="M216 107q-11 0 -29 13t-18 24q0 1 4 6.5t9 11.5t6 7q12 14 22.5 45t10.5 50q0 15 -6 23q-57 28 -84 35q-5 -2 -8 2q-16 6 -16 32q0 34 12 34q7 0 22 -2.5t20 -2.5q28 -3 116 -3h30q1 6 10.5 22t20 30.5t25 34t16.5 22.5q2 13 22 13q10 0 26 -12t16 -21q0 -4 -4 -8 q-28 -29 -57 -66q-10 -14 -11 -15q86 6 132 6q26 0 39 -2q13 -13 13 -24q0 -13 -19 -26q-13 1 -70 7.5t-88 6.5q-5 0 -15 -0.5t-15 -0.5q-64 -97 -96 -172l-3 -8q-3 -8 -7 -18t-8.5 -20t-9.5 -17t-8 -7zM27 33q0 14 7 21.5t28 7.5q9 0 27 -2.5t27 -2.5q56 0 199 13 q16 -12 16 -26q0 -11 -15 -24h-37q-81 0 -146 -4q-14 -1 -45 -8.5t-46 -7.5t-15 33zM243 345q3 -4 12.5 -13.5t13.5 -17t5 -19.5q20 36 30 53q-30 -3 -61 -3z" glyph-name="plusminus" horiz-adv-x="567" unicode=""/><glyph d="M87 689q-8 0 -19.5 13.5t-11.5 22.5q0 12 50.5 62.5t60.5 50.5q22 0 25 -16q8 5 20 7q16 -6 16 -29q0 -27 -15 -37q-2 -1 -34 -13q-46 -18 -87 -59z" glyph-name="acute" horiz-adv-x="283" unicode=""/><glyph d="M201 209q-19 0 -30 11.5t-11 31.5q0 18 10.5 30.5t31.5 12.5q37 0 38 -42q1 -17 -10 -30.5t-29 -13.5z" glyph-name="periodcentered" horiz-adv-x="465" unicode=""/><glyph d="M86 -283q-36 -1 -48 33q-10 27 4 38t39 -19q46 -7 70 17q36 43 24 72q-4 8 -18 7.5t-21 2.5q-6 2 -14.5 -4t-13.5 -5q-18 3 -27 25t7 33q16 15 39 49t36 47q41 18 37 -11q-5 -31 -43 -79q-3 -4 -5 -7q72 -7 78 -62q5 -49 -39 -96q-48 -50 -105 -41z" glyph-name="cedilla" horiz-adv-x="517" unicode=""/><glyph d="M247 -33q-16 0 -16 17q0 5 2 15q8 8 16.5 14.5t21 13t19 9t23.5 10t20 8.5q255 107 308 172q-23 28 -169 83.5t-212 71.5q-7 1 -9 8q-2 8 -2 11q0 8 14 25.5t22 17.5q4 0 9 -5q28 -32 80 -56q98 -45 208 -84q80 -28 93 -34q15 -7 24 -26q4 -10 4 -17q0 -28 -33 -49 q-42 -25 -131 -58t-164.5 -68t-113.5 -77q-10 -2 -14 -2zM-16 24q0 9 8 21q21 9 60 22.5t51 17.5q58 23 143 68.5t105 73.5q-5 7 -73 26.5t-144.5 41.5t-94.5 33q-11 6 -11 19q0 6 3 14t8 8q1 0 4 -0.5t5 -0.5q8 12 22 12q5 0 8 -3q39 -39 79 -53q69 -23 120 -33 q8 -2 29.5 -5.5t36 -6t32 -8t27.5 -12.5q17 -10 17 -34t-15 -35q-11 -8 -26 -15t-33.5 -14t-28.5 -11q-11 -5 -87 -40.5t-116 -52.5q-81 -35 -104 -48q-25 0 -25 15zM642 224l2 -3z" glyph-name="guillemotright" horiz-adv-x="743" unicode=""/><glyph d="M545 611q13 0 13 -17q0 -8 -1 -11q-19 -19 -69 -71t-79 -80q-14 -13 -86 -75.5t-125.5 -112t-102 -109t-48.5 -92.5q0 -25 20.5 -37t47.5 -12q72 0 162.5 60.5t133.5 126.5q24 40 24 54q0 11 10.5 29.5t20.5 18.5q12 0 22.5 -14t10.5 -26q0 -50 -92.5 -131t-159.5 -117 q-93 -50 -156 -50q-44 0 -72.5 24.5t-28.5 67.5q0 30 26 70t71 82.5t86 77.5t90 74t65 53q158 141 199 212q15 5 18 5zM615 780q0 10 7.5 18t18.5 8t18.5 -8t7.5 -18t-7.5 -18t-18.5 -8t-18.5 7.5t-7.5 18.5z" glyph-name="questiondown" horiz-adv-x="701" unicode=""/><glyph d="M867 -614q-17 0 -34.5 11t-15.5 27q3 31 51 157t71 172q1 1 5.5 8.5t5.5 11.5q4 12 12 90q19 188 -25 355q-31 0 -66.5 -2t-83 -6.5t-67.5 -5.5q-34 -32 -119 -123q-146 -157 -198 -217q-19 -22 -61.5 -70t-68.5 -77.5t-59.5 -71t-56.5 -76.5q-23 -36 -59 -35 q-28 0 -25 27q1 8 11 31q3 9 24 24q52 39 111 98q84 81 237 246.5t232 242.5q-107 -5 -200 -2q-142 4 -238 39q-270 103 -249 292q6 65 54 127q104 127 329 119q87 -3 155 -31q102 -41 203 -137.5t156 -200.5q6 6 13.5 13t16.5 15t14 13l280 277q177 176 452 460 q3 3 24 27.5t38 39.5t28 15q16 -1 34.5 -17.5t17.5 -31.5q-1 -10 -137 -195q-72 -106 -141.5 -220t-167 -283t-130.5 -226q132 28 229 75l43 19q30 -10 29 -34q-3 -13 -11 -26q-38 -12 -80 -22t-96.5 -20.5t-80.5 -16.5q-23 -7 -53 -12q-96 -176 -201 -394q-34 -67 -36 -75 q-4 -17 -8 -51t-6 -47q-46 -265 -77 -297q-10 -10 -25 -9zM49 522q-5 -55 25 -104t81.5 -82.5t104 -56t104.5 -34.5q69 -16 184 -20q17 -1 164 2q18 17 50.5 49.5t59.5 59t51 49.5q-55 107 -150 201.5t-198 128.5q-70 23 -166 26q-113 3 -206 -54.5t-104 -164.5zM744 228 q149 8 186 15q-6 27 -47 123q-83 -80 -139 -138zM907 391q9 -19 55 -144q149 16 250 43q17 26 45.5 77.5t35.5 64.5q35 60 111 192t117 201q12 20 46.5 78t57.5 96.5t50 88.5t40 82q-166 -145 -461.5 -437.5t-346.5 -341.5zM970 221q41 -175 23 -359q8 22 20.5 47t28.5 55 t24 46q35 73 127 243q-41 -4 -115.5 -16t-107.5 -16zM1750 1421q0 13 17 13l1 6q14 22 36 22q19 0 29.5 -12t19.5 -36t13 -31q19 -33 19 -38q0 -11 -13 -20t-25 -9q-11 0 -22 11t-22 27.5t-17 21.5q-2 2 -9.5 7.5t-13.5 10.5t-7 8q-6 18 -6 19z" glyph-name="Agrave" horiz-adv-x="1606" unicode=""/><glyph d="M867 -614q-17 0 -34.5 11t-15.5 27q3 31 51 157t71 172q1 1 5.5 8.5t5.5 11.5q4 12 12 90q19 188 -25 355q-31 0 -66.5 -2t-83 -6.5t-67.5 -5.5q-34 -32 -119 -123q-146 -157 -198 -217q-19 -22 -61.5 -70t-68.5 -77.5t-59.5 -71t-56.5 -76.5q-23 -36 -59 -35 q-28 0 -25 27q1 8 11 31q3 9 24 24q52 39 111 98q84 81 237 246.5t232 242.5q-107 -5 -200 -2q-142 4 -238 39q-270 103 -249 292q6 65 54 127q104 127 329 119q87 -3 155 -31q102 -41 203 -137.5t156 -200.5q6 6 13.5 13t16.5 15t14 13l280 277q177 176 452 460 q3 3 24 27.5t38 39.5t28 15q16 -1 34.5 -17.5t17.5 -31.5q-1 -10 -137 -195q-72 -106 -141.5 -220t-167 -283t-130.5 -226q132 28 229 75l43 19q30 -10 29 -34q-3 -13 -11 -26q-38 -12 -80 -22t-96.5 -20.5t-80.5 -16.5q-23 -7 -53 -12q-96 -176 -201 -394q-34 -67 -36 -75 q-4 -17 -8 -51t-6 -47q-46 -265 -77 -297q-10 -10 -25 -9zM49 522q-5 -55 25 -104t81.5 -82.5t104 -56t104.5 -34.5q69 -16 184 -20q17 -1 164 2q18 17 50.5 49.5t59.5 59t51 49.5q-55 107 -150 201.5t-198 128.5q-70 23 -166 26q-113 3 -206 -54.5t-104 -164.5zM744 228 q149 8 186 15q-6 27 -47 123q-83 -80 -139 -138zM907 391q9 -19 55 -144q149 16 250 43q17 26 45.5 77.5t35.5 64.5q35 60 111 192t117 201q12 20 46.5 78t57.5 96.5t50 88.5t40 82q-166 -145 -461.5 -437.5t-346.5 -341.5zM970 221q41 -175 23 -359q8 22 20.5 47t28.5 55 t24 46q35 73 127 243q-41 -4 -115.5 -16t-107.5 -16zM1816 1380q0 11 8 19q5 4 29.5 30t45.5 45t28 19q22 0 25 -16q8 5 20 7q16 -6 16 -29q0 -28 -15 -37q-6 -4 -18.5 -8t-15.5 -5q-45 -17 -87 -59l-2 -1q-2 -1 -3 -1q-7 0 -19 14t-12 22z" glyph-name="Aacute" horiz-adv-x="1597" unicode=""/><glyph d="M867 -614q-17 0 -34.5 11t-15.5 27q3 31 51 157t71 172q1 1 5.5 8.5t5.5 11.5q4 12 12 90q19 188 -25 355q-31 0 -66.5 -2t-83 -6.5t-67.5 -5.5q-34 -32 -119 -123q-146 -157 -198 -217q-19 -22 -61.5 -70t-68.5 -77.5t-59.5 -71t-56.5 -76.5q-23 -36 -59 -35 q-28 0 -25 27q1 8 11 31q3 9 24 24q52 39 111 98q84 81 237 246.5t232 242.5q-107 -5 -200 -2q-142 4 -238 39q-270 103 -249 292q6 65 54 127q104 127 329 119q87 -3 155 -31q102 -41 203 -137.5t156 -200.5q6 6 13.5 13t16.5 15t14 13l280 277q177 176 452 460 q3 3 24 27.5t38 39.5t28 15q16 -1 34.5 -17.5t17.5 -31.5q-1 -10 -137 -195q-72 -106 -141.5 -220t-167 -283t-130.5 -226q132 28 229 75l43 19q30 -10 29 -34q-3 -13 -11 -26q-38 -12 -80 -22t-96.5 -20.5t-80.5 -16.5q-23 -7 -53 -12q-96 -176 -201 -394q-34 -67 -36 -75 q-4 -17 -8 -51t-6 -47q-46 -265 -77 -297q-10 -10 -25 -9zM49 522q-5 -55 25 -104t81.5 -82.5t104 -56t104.5 -34.5q69 -16 184 -20q17 -1 164 2q18 17 50.5 49.5t59.5 59t51 49.5q-55 107 -150 201.5t-198 128.5q-70 23 -166 26q-113 3 -206 -54.5t-104 -164.5zM744 228 q149 8 186 15q-6 27 -47 123q-83 -80 -139 -138zM907 391q9 -19 55 -144q149 16 250 43q17 26 45.5 77.5t35.5 64.5q35 60 111 192t117 201q12 20 46.5 78t57.5 96.5t50 88.5t40 82q-166 -145 -461.5 -437.5t-346.5 -341.5zM970 221q41 -175 23 -359q8 22 20.5 47t28.5 55 t24 46q35 73 127 243q-41 -4 -115.5 -16t-107.5 -16zM1669 1327q0 13 4 20q1 2 22 12t45.5 21.5t29.5 14.5q11 7 45.5 34t64.5 47t45 20q53 0 53 -57q0 -14 -4 -42t-4 -42q0 -11 2.5 -32t2.5 -31v-8q-15 -17 -32 -17q-15 0 -29 12q-3 12 -3 25q0 21 2 63.5t2 63.5 q-8 -5 -24.5 -12.5t-22.5 -10.5q-52 -28 -117 -77q-45 -33 -50 -34q-32 6 -32 30z" glyph-name="Acircumflex" horiz-adv-x="1606" unicode=""/><glyph d="M867 -614q-17 0 -34.5 11t-15.5 27q3 31 51 157t71 172q1 1 5.5 8.5t5.5 11.5q4 12 12 90q19 188 -25 355q-31 0 -66.5 -2t-83 -6.5t-67.5 -5.5q-34 -32 -119 -123q-146 -157 -198 -217q-19 -22 -61.5 -70t-68.5 -77.5t-59.5 -71t-56.5 -76.5q-23 -36 -59 -35 q-28 0 -25 27q1 8 11 31q3 9 24 24q52 39 111 98q84 81 237 246.5t232 242.5q-107 -5 -200 -2q-142 4 -238 39q-270 103 -249 292q6 65 54 127q104 127 329 119q87 -3 155 -31q102 -41 203 -137.5t156 -200.5q6 6 13.5 13t16.5 15t14 13l280 277q177 176 452 460 q3 3 24 27.5t38 39.5t28 15q16 -1 34.5 -17.5t17.5 -31.5q-1 -10 -137 -195q-72 -106 -141.5 -220t-167 -283t-130.5 -226q132 28 229 75l43 19q30 -10 29 -34q-3 -13 -11 -26q-38 -12 -80 -22t-96.5 -20.5t-80.5 -16.5q-23 -7 -53 -12q-96 -176 -201 -394q-34 -67 -36 -75 q-4 -17 -8 -51t-6 -47q-46 -265 -77 -297q-10 -10 -25 -9zM49 522q-5 -55 25 -104t81.5 -82.5t104 -56t104.5 -34.5q69 -16 184 -20q17 -1 164 2q18 17 50.5 49.5t59.5 59t51 49.5q-55 107 -150 201.5t-198 128.5q-70 23 -166 26q-113 3 -206 -54.5t-104 -164.5zM744 228 q149 8 186 15q-6 27 -47 123q-83 -80 -139 -138zM907 391q9 -19 55 -144q149 16 250 43q17 26 45.5 77.5t35.5 64.5q35 60 111 192t117 201q12 20 46.5 78t57.5 96.5t50 88.5t40 82q-166 -145 -461.5 -437.5t-346.5 -341.5zM970 221q41 -175 23 -359q8 22 20.5 47t28.5 55 t24 46q35 73 127 243q-41 -4 -115.5 -16t-107.5 -16zM1516 1394q6 42 61.5 69t99.5 21q41 -5 83.5 -36t85.5 -62t86 -37q32 -4 74.5 12.5t46.5 45.5l-1 5q8 20 23 27.5t34 0.5q13 -4 10 -32q-8 -56 -64 -86t-115 -22q-51 7 -103.5 36.5t-95.5 57.5t-70 32q-58 9 -95 -36 q-5 -6 -21.5 -14t-23.5 -7q-8 1 -12 9t-3 16z" glyph-name="Atilde" horiz-adv-x="1606" unicode=""/><glyph d="M867 -614q-17 0 -34.5 11t-15.5 27q3 31 51 157t71 172q1 1 5.5 8.5t5.5 11.5q4 12 12 90q19 188 -25 355q-31 0 -66.5 -2t-83 -6.5t-67.5 -5.5q-34 -32 -119 -123q-146 -157 -198 -217q-19 -22 -61.5 -70t-68.5 -77.5t-59.5 -71t-56.5 -76.5q-23 -36 -59 -35 q-28 0 -25 27q1 8 11 31q3 9 24 24q52 39 111 98q84 81 237 246.5t232 242.5q-107 -5 -200 -2q-142 4 -238 39q-270 103 -249 292q6 65 54 127q104 127 329 119q87 -3 155 -31q102 -41 203 -137.5t156 -200.5q6 6 13.5 13t16.5 15t14 13l280 277q177 176 452 460 q3 3 24 27.5t38 39.5t28 15q16 -1 34.5 -17.5t17.5 -31.5q-1 -10 -137 -195q-72 -106 -141.5 -220t-167 -283t-130.5 -226q132 28 229 75l43 19q30 -10 29 -34q-3 -13 -11 -26q-38 -12 -80 -22t-96.5 -20.5t-80.5 -16.5q-23 -7 -53 -12q-96 -176 -201 -394q-34 -67 -36 -75 q-4 -17 -8 -51t-6 -47q-46 -265 -77 -297q-10 -10 -25 -9zM49 522q-5 -55 25 -104t81.5 -82.5t104 -56t104.5 -34.5q69 -16 184 -20q17 -1 164 2q18 17 50.5 49.5t59.5 59t51 49.5q-55 107 -150 201.5t-198 128.5q-70 23 -166 26q-113 3 -206 -54.5t-104 -164.5zM744 228 q149 8 186 15q-6 27 -47 123q-83 -80 -139 -138zM907 391q9 -19 55 -144q149 16 250 43q17 26 45.5 77.5t35.5 64.5q35 60 111 192t117 201q12 20 46.5 78t57.5 96.5t50 88.5t40 82q-166 -145 -461.5 -437.5t-346.5 -341.5zM970 221q41 -175 23 -359q8 22 20.5 47t28.5 55 t24 46q35 73 127 243q-41 -4 -115.5 -16t-107.5 -16zM1705 1356q0 15 11 27t32 12q16 0 25.5 -10.5t9.5 -22.5q0 -16 -9 -29.5t-26 -13.5q-43 0 -43 37zM1883 1343q0 16 15 27.5t32 11.5t27.5 -13.5t10.5 -32.5q0 -15 -13 -26t-29 -11q-43 0 -43 44z" glyph-name="Adieresis" horiz-adv-x="1606" unicode=""/><glyph d="M867 -614q-17 0 -34.5 11t-15.5 27q3 31 51 157t71 172q1 1 5.5 8.5t5.5 11.5q4 12 12 90q19 188 -25 355q-31 0 -66.5 -2t-83 -6.5t-67.5 -5.5q-34 -32 -119 -123q-146 -157 -198 -217q-19 -22 -61.5 -70t-68.5 -77.5t-59.5 -71t-56.5 -76.5q-23 -36 -59 -35 q-28 0 -25 27q1 8 11 31q3 9 24 24q52 39 111 98q84 81 237 246.5t232 242.5q-107 -5 -200 -2q-142 4 -238 39q-270 103 -249 292q6 65 54 127q104 127 329 119q87 -3 155 -31q102 -41 203 -137.5t156 -200.5q6 6 13.5 13t16.5 15t14 13l280 277q177 176 452 460 q3 3 24 27.5t38 39.5t28 15q16 -1 34.5 -17.5t17.5 -31.5q-1 -10 -137 -195q-72 -106 -141.5 -220t-167 -283t-130.5 -226q132 28 229 75l43 19q30 -10 29 -34q-3 -13 -11 -26q-38 -12 -80 -22t-96.5 -20.5t-80.5 -16.5q-23 -7 -53 -12q-96 -176 -201 -394q-34 -67 -36 -75 q-4 -17 -8 -51t-6 -47q-46 -265 -77 -297q-10 -10 -25 -9zM49 522q-5 -55 25 -104t81.5 -82.5t104 -56t104.5 -34.5q69 -16 184 -20q17 -1 164 2q18 17 50.5 49.5t59.5 59t51 49.5q-55 107 -150 201.5t-198 128.5q-70 23 -166 26q-113 3 -206 -54.5t-104 -164.5zM744 228 q149 8 186 15q-6 27 -47 123q-83 -80 -139 -138zM907 391q9 -19 55 -144q149 16 250 43q17 26 45.5 77.5t35.5 64.5q35 60 111 192t117 201q12 20 46.5 78t57.5 96.5t50 88.5t40 82q-166 -145 -461.5 -437.5t-346.5 -341.5zM970 221q41 -175 23 -359q8 22 20.5 47t28.5 55 t24 46q35 73 127 243q-41 -4 -115.5 -16t-107.5 -16zM1796 1372q0 32 14 62.5t39 48.5l-3 20q31 19 63 19q33 0 58.5 -26t25.5 -59q0 -51 -40 -94t-91 -43q-31 0 -48.5 20t-17.5 52zM1858 1375q0 -10 10 -10q25 0 43.5 18.5t18.5 43.5q0 8 -1.5 14.5t-8 12.5t-18.5 5 q-6 0 -16 -12q-3 -3 -9 -10t-8 -10.5t-5.5 -10.5t-4.5 -17t-1 -24z" glyph-name="Aring" horiz-adv-x="1606" unicode=""/><glyph d="M867 -606q-17 0 -34.5 11t-15.5 27q3 31 51 157t71 172q1 1 5.5 8.5t5.5 11.5q4 12 12 90q19 188 -25 355q-31 0 -66.5 -2t-83 -6.5t-67.5 -5.5q-34 -32 -119 -123q-146 -157 -198 -217q-19 -22 -61.5 -70t-68.5 -77.5t-59.5 -71t-56.5 -76.5q-23 -36 -59 -35 q-28 0 -25 27q1 8 11 31q3 9 24 24q52 39 111 98q84 81 237 246.5t232 242.5q-107 -5 -200 -2q-142 4 -238 39q-270 103 -249 292q6 65 54 127q104 127 329 119q87 -3 155 -31q102 -41 203 -137.5t156 -200.5q6 6 13.5 13t16.5 15t14 13l280 277q177 176 452 460 q3 3 24 27.5t38 39.5t28 15q16 -1 34.5 -17.5t17.5 -31.5q-1 -10 -137 -195q-72 -106 -141.5 -220t-167 -283t-130.5 -226l-20 -37l-30 -56q121 123 296.5 243.5t304.5 169.5q-26 3 -40.5 5.5t-39 8.5t-38.5 14.5t-29 21t-21.5 31.5t-5.5 44q3 79 95 166t216 150 t250.5 103.5t199.5 37.5q20 -1 40 -23.5t19 -42.5q0 -16 -16.5 -34.5t-33.5 -18.5q-13 1 -16 21t-6 22h-2l3 -5l-3 -2q-5 0 -17 4t-17 4q-16 3 -48 3q-18 1 -62 -6q-148 -26 -310.5 -113.5t-218.5 -199.5q-15 -32 -15 -49q-2 -16 5 -30q15 -28 77 -43t110 -16q51 -3 69 2 q5 1 17.5 8.5t17.5 7.5q13 -1 20 -20t6 -35q0 -31 -17 -31q-51 2 -68 0q-52 -6 -148 -45q-177 -72 -356.5 -201.5t-273.5 -269.5q-76 -115 -80 -231q-3 -74 43.5 -128.5t111.5 -79t137 -27.5q85 -3 183 23t180.5 63.5t180.5 98.5t162.5 108t148.5 111q3 2 27 20.5t29 22.5 t27 21t29 23t26.5 21.5t28.5 24t25.5 23t27 25t24 23.5t24.5 26q12 4 21 4q14 0 14 -14q-1 -11 -6 -22q-57 -42 -169 -128.5t-191.5 -147t-195.5 -136.5t-211 -123t-207.5 -78.5t-212.5 -27.5q-127 5 -214.5 75.5t-86.5 191.5q-23 -44 -27 -57q-4 -17 -8 -51t-6 -47 q-46 -265 -77 -297q-10 -10 -25 -9zM49 530q-5 -55 25 -104t81.5 -82.5t104 -56t104.5 -34.5q69 -16 184 -20q17 -1 164 2q18 17 50.5 49.5t59.5 59t51 49.5q-55 107 -150 201.5t-198 128.5q-70 23 -166 26q-113 3 -206 -54.5t-104 -164.5zM744 236q149 8 186 15 q-6 27 -47 123q-83 -80 -139 -138zM907 399q9 -19 55 -144q149 16 250 43q17 26 45.5 77.5t35.5 64.5q35 60 111 192t117 201q12 20 46.5 78t57.5 96.5t50 88.5t40 82q-166 -145 -461.5 -437.5t-346.5 -341.5zM970 229q41 -175 23 -359q8 24 25 57q26 113 115 221 q40 76 60 113q-41 -4 -115.5 -16t-107.5 -16z" glyph-name="AE" horiz-adv-x="2486" unicode=""/><glyph d="M44 -579q-36 -1 -48 33q-10 27 4 38t39 -19q46 -7 70 17q36 43 24 72q-4 8 -18 7.5t-21 2.5q-6 2 -14.5 -4t-13.5 -5q-18 3 -27 25t7 33q17 16 41 52q-89 6 -139.5 50t-47.5 121q3 76 65 215.5t126 248.5q93 160 305 436q164 210 248 297q112 117 212 210q76 70 112 91 q59 36 117 33q51 -3 95 -42.5t73.5 -100.5t46.5 -110.5t28 -98.5q2 -7 7.5 -24t9.5 -31.5t4 -22.5q-2 -16 -4 -22q-18 -22 -38 -21q-15 0 -34 19q-8 24 -8 51q1 43 -26 132q-31 98 -57 136q-42 62 -109 65q-15 1 -33 -3t-33 -10t-35.5 -17.5t-33.5 -20t-33.5 -24.5 t-29.5 -23t-29 -23.5t-23 -19.5q-168 -138 -380.5 -402.5t-327.5 -465.5q-158 -277 -163 -428q-2 -66 39 -105t117 -43q3 0 9 -0.5t10 -0.5q22 9 28 1q63 4 148 29q187 57 501.5 229.5t428.5 289.5q15 3 26 -9t1 -31q-56 -29 -146 -89t-123 -79q-104 -62 -180 -105 t-211 -113.5t-252 -114t-202 -52.5q-18 -35 -36 -55q72 -7 78 -62q5 -49 -39 -96q-48 -50 -105 -41z" glyph-name="Ccedilla" horiz-adv-x="1241" unicode=""/><glyph d="M101 -412q-83 3 -151.5 34t-110.5 94.5t-39 147.5q4 123 95 249q97 133 312 292t374 219q-26 3 -40.5 5.5t-39 8.5t-38.5 14.5t-29 21t-21.5 31.5t-5.5 44q3 79 95 166t216 150t250.5 103.5t199.5 37.5q20 -1 40 -23.5t19 -42.5q0 -16 -16.5 -34.5t-33.5 -18.5 q-13 1 -16 21t-6 22h-2l3 -5l-3 -2q-5 0 -17 4t-17 4q-16 3 -48 3q-18 1 -62 -6q-148 -26 -310.5 -113.5t-218.5 -199.5q-15 -32 -15 -49q-2 -16 5 -30q15 -28 77 -43t110 -16q51 -3 69 2q5 1 17.5 8.5t17.5 7.5q13 -1 20 -20t6 -35q0 -31 -17 -31q-51 2 -68 0 q-52 -6 -148 -45q-177 -72 -356.5 -201.5t-273.5 -269.5q-76 -115 -80 -231q-3 -74 43.5 -128.5t111.5 -79t137 -27.5q85 -3 183 23t180.5 63.5t180.5 98.5t162.5 108t148.5 111q3 2 27 20.5t29 22.5t27 21t29 23t26.5 21.5t28.5 24t25.5 23t27 25t24 23.5t24.5 26 q12 4 21 4q14 0 14 -14q-1 -11 -6 -22q-57 -42 -169 -128.5t-191.5 -147t-195.5 -136.5t-211 -123t-207.5 -78.5t-212.5 -27.5zM800 1311q0 13 17 13l1 6q14 22 36 22q19 0 29.5 -12t19.5 -36t13 -31q19 -33 19 -38q0 -11 -13 -20t-25 -9q-11 0 -22 11t-22 27.5t-17 21.5 q-2 2 -9.5 7.5t-13.5 10.5t-7 8q-6 18 -6 19z" glyph-name="Egrave" horiz-adv-x="1276" unicode=""/><glyph d="M101 -412q-83 3 -151.5 34t-110.5 94.5t-39 147.5q4 123 95 249q97 133 312 292t374 219q-26 3 -40.5 5.5t-39 8.5t-38.5 14.5t-29 21t-21.5 31.5t-5.5 44q3 79 95 166t216 150t250.5 103.5t199.5 37.5q20 -1 40 -23.5t19 -42.5q0 -16 -16.5 -34.5t-33.5 -18.5 q-13 1 -16 21t-6 22h-2l3 -5l-3 -2q-5 0 -17 4t-17 4q-16 3 -48 3q-18 1 -62 -6q-148 -26 -310.5 -113.5t-218.5 -199.5q-15 -32 -15 -49q-2 -16 5 -30q15 -28 77 -43t110 -16q51 -3 69 2q5 1 17.5 8.5t17.5 7.5q13 -1 20 -20t6 -35q0 -31 -17 -31q-51 2 -68 0 q-52 -6 -148 -45q-177 -72 -356.5 -201.5t-273.5 -269.5q-76 -115 -80 -231q-3 -74 43.5 -128.5t111.5 -79t137 -27.5q85 -3 183 23t180.5 63.5t180.5 98.5t162.5 108t148.5 111q3 2 27 20.5t29 22.5t27 21t29 23t26.5 21.5t28.5 24t25.5 23t27 25t24 23.5t24.5 26 q12 4 21 4q14 0 14 -14q-1 -11 -6 -22q-57 -42 -169 -128.5t-191.5 -147t-195.5 -136.5t-211 -123t-207.5 -78.5t-212.5 -27.5zM975 1242q0 12 50.5 62.5t60.5 50.5q22 0 25 -16q8 5 20 7q16 -6 16 -29q0 -27 -15 -37q-2 -1 -34 -13q-46 -18 -87 -59l-5 -2q-8 0 -19.5 13.5 t-11.5 22.5z" glyph-name="Eacute" horiz-adv-x="1276" unicode=""/><glyph d="M101 -412q-83 3 -151.5 34t-110.5 94.5t-39 147.5q4 123 95 249q97 133 312 292t374 219q-26 3 -40.5 5.5t-39 8.5t-38.5 14.5t-29 21t-21.5 31.5t-5.5 44q3 79 95 166t216 150t250.5 103.5t199.5 37.5q20 -1 40 -23.5t19 -42.5q0 -16 -16.5 -34.5t-33.5 -18.5 q-13 1 -16 21t-6 22h-2l3 -5l-3 -2q-5 0 -17 4t-17 4q-16 3 -48 3q-18 1 -62 -6q-148 -26 -310.5 -113.5t-218.5 -199.5q-15 -32 -15 -49q-2 -16 5 -30q15 -28 77 -43t110 -16q51 -3 69 2q5 1 17.5 8.5t17.5 7.5q13 -1 20 -20t6 -35q0 -31 -17 -31q-51 2 -68 0 q-52 -6 -148 -45q-177 -72 -356.5 -201.5t-273.5 -269.5q-76 -115 -80 -231q-3 -74 43.5 -128.5t111.5 -79t137 -27.5q85 -3 183 23t180.5 63.5t180.5 98.5t162.5 108t148.5 111q3 2 27 20.5t29 22.5t27 21t29 23t26.5 21.5t28.5 24t25.5 23t27 25t24 23.5t24.5 26 q12 4 21 4q14 0 14 -14q-1 -11 -6 -22q-57 -42 -169 -128.5t-191.5 -147t-195.5 -136.5t-211 -123t-207.5 -78.5t-212.5 -27.5zM956 1298q-2 14 0 21q1 2 20.5 15.5t41.5 28.5t26 19q10 8 39.5 40.5t56 57.5t40.5 28q53 8 62 -48q2 -14 3 -42t3 -42q2 -11 8 -31t7 -30l2 -8 q-14 -20 -29 -22q-16 -3 -31 7q-2 6 -7 24q-4 21 -9 63t-8 63q-7 -6 -21.5 -16t-20.5 -15q-47 -36 -103 -95q-2 -2 -12.5 -13.5t-18.5 -19t-13 -9.5q-32 0 -36 24z" glyph-name="Ecircumflex" horiz-adv-x="1276" unicode=""/><glyph d="M101 -412q-83 3 -151.5 34t-110.5 94.5t-39 147.5q4 123 95 249q97 133 312 292t374 219q-26 3 -40.5 5.5t-39 8.5t-38.5 14.5t-29 21t-21.5 31.5t-5.5 44q3 79 95 166t216 150t250.5 103.5t199.5 37.5q20 -1 40 -23.5t19 -42.5q0 -16 -16.5 -34.5t-33.5 -18.5 q-13 1 -16 21t-6 22h-2l3 -5l-3 -2q-5 0 -17 4t-17 4q-16 3 -48 3q-18 1 -62 -6q-148 -26 -310.5 -113.5t-218.5 -199.5q-15 -32 -15 -49q-2 -16 5 -30q15 -28 77 -43t110 -16q51 -3 69 2q5 1 17.5 8.5t17.5 7.5q13 -1 20 -20t6 -35q0 -31 -17 -31q-51 2 -68 0 q-52 -6 -148 -45q-177 -72 -356.5 -201.5t-273.5 -269.5q-76 -115 -80 -231q-3 -74 43.5 -128.5t111.5 -79t137 -27.5q85 -3 183 23t180.5 63.5t180.5 98.5t162.5 108t148.5 111q3 2 27 20.5t29 22.5t27 21t29 23t26.5 21.5t28.5 24t25.5 23t27 25t24 23.5t24.5 26 q12 4 21 4q14 0 14 -14q-1 -11 -6 -22q-57 -42 -169 -128.5t-191.5 -147t-195.5 -136.5t-211 -123t-207.5 -78.5t-212.5 -27.5zM963 1304q-5 14 2.5 29t27.5 21q15 4 27.5 -3.5t15.5 -18.5q2 -10 2 -20t-6.5 -19t-17.5 -12q-41 -13 -51 23zM1137 1342q-4 15 7 30t27 20 t30 -5t19 -28q4 -15 -5 -29t-24 -18q-41 -12 -54 30z" glyph-name="Edieresis" horiz-adv-x="1276" unicode=""/><glyph d="M-673 -504q-14 0 -20.5 20t-6.5 37q0 19 19 28q4 6 9 6q4 0 6 -1q70 22 150 35q19 3 88.5 8t119.5 14t79 27q12 7 26.5 24t23.5 30t24.5 37.5t18.5 28.5l827 1253q11 16 35 58t39 62q12 16 27 16q46 0 46 -44v-7q-4 -9 -52 -55t-57 -57l-776 -1171q-5 -9 -42 -80 q-7 -14 -18.5 -43.5t-23 -52.5t-24.5 -40q-10 -15 -29 -25q43 5 122 11.5t113 9.5q14 1 72 4.5t89 8.5q16 1 43 7t32 13q33 -15 33 -46q0 -14 -4 -25q-30 -3 -31 -3q-15 0 -45 1.5t-46 1.5q-24 0 -70 -2t-70 -2q-222 0 -452 -34q-150 -21 -207 -35q-5 -1 -35 -9.5t-33 -8.5z M195 1176q0 32 8 45.5t36 13.5q12 0 30 -4q17 -11 22 -26q48 -9 111 -9q48 0 137 7t114 8q172 10 256 10q184 0 293 9q21 -12 21 -26q0 -10 -23 -25q-29 6 -89.5 9t-107.5 3t-126 -0.5t-90 -0.5q-91 0 -259 -20t-237 -23q-12 0 -37 -3.5t-37 -3.5q-22 0 -22 36zM759 1421 q0 13 17 13l1 6q14 22 36 22q19 0 29.5 -12t19.5 -36t13 -31q19 -33 19 -38q0 -11 -13 -20t-25 -9q-11 0 -22 11t-22 27.5t-17 21.5q-2 2 -9.5 7.5t-13.5 10.5t-7 8q-6 18 -6 19z" glyph-name="Igrave" horiz-adv-x="557" unicode=""/><glyph d="M-673 -504q-14 0 -20.5 20t-6.5 37q0 19 19 28q4 6 9 6q4 0 6 -1q70 22 150 35q19 3 88.5 8t119.5 14t79 27q12 7 26.5 24t23.5 30t24.5 37.5t18.5 28.5l827 1253q11 16 35 58t39 62q12 16 27 16q46 0 46 -44v-7q-4 -9 -52 -55t-57 -57l-776 -1171q-5 -9 -42 -80 q-7 -14 -18.5 -43.5t-23 -52.5t-24.5 -40q-10 -15 -29 -25q43 5 122 11.5t113 9.5q14 1 72 4.5t89 8.5q16 1 43 7t32 13q33 -15 33 -46q0 -14 -4 -25q-30 -3 -31 -3q-15 0 -45 1.5t-46 1.5q-24 0 -70 -2t-70 -2q-222 0 -452 -34q-150 -21 -207 -35q-5 -1 -35 -9.5t-33 -8.5z M195 1176q0 32 8 45.5t36 13.5q12 0 30 -4q17 -11 22 -26q48 -9 111 -9q48 0 137 7t114 8q172 10 256 10q184 0 293 9q21 -12 21 -26q0 -10 -23 -25q-29 6 -89.5 9t-107.5 3t-126 -0.5t-90 -0.5q-91 0 -259 -20t-237 -23q-12 0 -37 -3.5t-37 -3.5q-22 0 -22 36zM786 1392 q0 12 50.5 62.5t60.5 50.5q22 0 25 -16q8 5 20 7q16 -6 16 -29q0 -27 -15 -37q-2 -1 -34 -13q-46 -18 -87 -59l-5 -2q-8 0 -19.5 13.5t-11.5 22.5z" glyph-name="Iacute" horiz-adv-x="557" unicode=""/><glyph d="M-673 -504q-14 0 -20.5 20t-6.5 37q0 19 19 28q4 6 9 6q4 0 6 -1q70 22 150 35q19 3 88.5 8t119.5 14t79 27q12 7 26.5 24t23.5 30t24.5 37.5t18.5 28.5l827 1253q11 16 35 58t39 62q12 16 27 16q46 0 46 -44v-7q-4 -9 -52 -55t-57 -57l-776 -1171q-5 -9 -42 -80 q-7 -14 -18.5 -43.5t-23 -52.5t-24.5 -40q-10 -15 -29 -25q43 5 122 11.5t113 9.5q14 1 72 4.5t89 8.5q16 1 43 7t32 13q33 -15 33 -46q0 -14 -4 -25q-30 -3 -31 -3q-15 0 -45 1.5t-46 1.5q-24 0 -70 -2t-70 -2q-222 0 -452 -34q-150 -21 -207 -35q-5 -1 -35 -9.5t-33 -8.5z M195 1176q0 32 8 45.5t36 13.5q12 0 30 -4q17 -11 22 -26q48 -9 111 -9q48 0 137 7t114 8q172 10 256 10q184 0 293 9q21 -12 21 -26q0 -10 -23 -25q-29 6 -89.5 9t-107.5 3t-126 -0.5t-90 -0.5q-91 0 -259 -20t-237 -23q-12 0 -37 -3.5t-37 -3.5q-22 0 -22 36zM690 1373 q0 13 4 20q1 2 22 12t45.5 21.5t29.5 14.5q11 7 45.5 34t64.5 47t45 20q53 0 53 -57q0 -14 -4 -42t-4 -42q0 -11 2.5 -32t2.5 -31v-8q-15 -17 -32 -17q-15 0 -29 12q-3 12 -3 25q0 21 2 63.5t2 63.5q-8 -5 -24.5 -12.5t-22.5 -10.5q-52 -28 -117 -77q-45 -33 -50 -34 q-32 6 -32 30z" glyph-name="Icircumflex" horiz-adv-x="557" unicode=""/><glyph d="M-673 -504q-14 0 -20.5 20t-6.5 37q0 19 19 28q4 6 9 6q4 0 6 -1q70 22 150 35q19 3 88.5 8t119.5 14t79 27q12 7 26.5 24t23.5 30t24.5 37.5t18.5 28.5l827 1253q11 16 35 58t39 62q12 16 27 16q46 0 46 -44v-7q-4 -9 -52 -55t-57 -57l-776 -1171q-5 -9 -42 -80 q-7 -14 -18.5 -43.5t-23 -52.5t-24.5 -40q-10 -15 -29 -25q43 5 122 11.5t113 9.5q14 1 72 4.5t89 8.5q16 1 43 7t32 13q33 -15 33 -46q0 -14 -4 -25q-30 -3 -31 -3q-15 0 -45 1.5t-46 1.5q-24 0 -70 -2t-70 -2q-222 0 -452 -34q-150 -21 -207 -35q-5 -1 -35 -9.5t-33 -8.5z M195 1176q0 32 8 45.5t36 13.5q12 0 30 -4q17 -11 22 -26q48 -9 111 -9q48 0 137 7t114 8q172 10 256 10q184 0 293 9q21 -12 21 -26q0 -10 -23 -25q-29 6 -89.5 9t-107.5 3t-126 -0.5t-90 -0.5q-91 0 -259 -20t-237 -23q-12 0 -37 -3.5t-37 -3.5q-22 0 -22 36zM709 1357 q0 15 11 27t32 12q16 0 25.5 -10.5t9.5 -22.5q0 -16 -9 -29.5t-26 -13.5q-43 0 -43 37zM887 1344q0 16 15 27.5t32 11.5t27.5 -13.5t10.5 -32.5q0 -15 -13 -26t-29 -11q-43 0 -43 44z" glyph-name="Idieresis" horiz-adv-x="557" unicode=""/><glyph d="M-242 -340q-16 1 -37.5 14.5t-20.5 28.5q0 24 64.5 111t112.5 144l179 212q79 91 83 96q23 31 79 130q-90 -2 -134 -4q-6 0 -26.5 -2t-31.5 -2q-17 0 -30 8t-13 24q0 14 19 25l21 3q11 0 31.5 -4.5t30.5 -4.5q82 -3 160 0q5 9 13 20q182 260 374 634l-1 12q4 5 4 12 q0 10 2 15.5t4 7t5.5 6t6.5 10.5q1 3 3 10t3 10q2 7 12 7q16 -1 42.5 -14.5t25.5 -27.5q0 -3 -12 -20.5t-14 -22.5q-6 -14 -16 -18l-5 -4q-24 -32 -46.5 -68.5t-52.5 -90.5t-41 -72q-17 -28 -37.5 -58.5t-47 -68.5t-40.5 -58q-14 -21 -46.5 -66.5t-56 -81.5t-41.5 -69 q0 -1 -1 -3q1 0 3 0.5t3 0.5q8 8 106 122q52 59 72 81t86 93.5t105 110t109.5 106.5t120 108t117.5 91t120.5 78t109.5 46t104 17q75 -3 112 -57.5t35 -133.5q-2 -85 -61 -264q-83 -252 -240 -483q-70 -104 -169 -210.5t-215 -203t-248 -166t-250 -89.5q-63 -11 -163 -7 q-157 6 -167 178q17 21 32 20q16 0 32 -20q-1 -40 14.5 -67t44.5 -40.5t58 -19t68 -6.5q129 -5 236.5 40t240.5 137q223 156 393 370.5t262 463.5q77 209 79 332q2 175 -111 180q-51 2 -148 -36q-78 -32 -167 -92.5t-163.5 -123.5t-162.5 -152t-143.5 -150t-128.5 -144 q-17 -21 -50.5 -58.5t-43.5 -49.5q150 5 183 5q16 -14 16 -27t-14 -27q-3 0 -8.5 -0.5t-8.5 -0.5q-24 0 -73 2.5t-73 2.5h-61q-69 -80 -89 -108q-7 -10 -19 -30t-17 -27q-21 -35 -63.5 -103t-63.5 -103q-26 -44 -55 -88.5t-73.5 -108t-59.5 -85.5l-11 -16.5t-16 -23t-16 -21 t-18 -17.5t-16 -6zM-169 -180q11 15 32 41t24 30q55 66 160 228q-126 -153 -216 -299z" glyph-name="Eth" horiz-adv-x="1350" unicode=""/><glyph d="M718 -506q-54 0 -80 36t-27 92q-1 83 48 242q53 177 162 386q44 82 127 232.5t118 215.5q15 27 42 75.5t49 88.5t41 76q5 9 22.5 42t25 48t19.5 40.5t20 47.5q25 61 25 95q-50 -16 -73 -28q-77 -38 -191 -131q-262 -214 -530 -488t-487 -550q-25 -31 -53 -72t-43.5 -65.5 t-49.5 -80t-43 -70.5q-5 -8 -14.5 -27t-18 -33.5t-17.5 -24.5q-1 -2 -3 -14t-6 -17.5t-12 -5.5q-5 -7 -14 -7q-13 0 -34 18.5t-21 32.5q0 4 13.5 19.5t33 35.5t20.5 21q30 35 80 103t67 90q13 17 39 49.5t39 49.5q31 43 84.5 125.5t74.5 112.5q225 328 416 666q34 65 40 95 q1 1 1.5 4.5t1.5 4.5q-1 2 -2.5 17t-1.5 16q0 15 14 29q0 7 9 11q11 11 23 11q16 0 37 -12t21 -27q0 -5 -12.5 -25.5t-16.5 -21.5q-2 -3 -9 -14.5t-11 -17.5q-22 -32 -64.5 -99.5t-64.5 -99.5q-26 -38 -81.5 -126t-86.5 -134q-42 -64 -91.5 -140.5t-91.5 -140.5 q317 334 471 481.5t485 427.5q149 127 200 127q21 0 41 -20.5t20 -41.5q0 -26 -54.5 -123.5t-137.5 -228.5t-179 -298.5t-178 -326.5t-136 -320t-52 -272q0 -26 12 -59t33 -33q14 0 38 6q32 -12 32 -32q1 -13 -14 -34q-25 -9 -44 -9zM863 1435q0 42 51.5 76.5t95.5 34.5 q49 0 134 -49.5t137 -49.5q32 0 72 22t40 52l-2 4q11 44 53 36q14 -3 14 -30q0 -57 -51.5 -94.5t-110.5 -37.5q-51 0 -107.5 22.5t-103 44.5t-73.5 22q-59 0 -89 -49q-4 -6 -19.5 -16.5t-22.5 -10.5q-8 0 -13 7.5t-5 15.5z" glyph-name="Ntilde" horiz-adv-x="1208" unicode=""/><glyph d="M-77 -563q-59 0 -92 35t-31 94q1 88 51 227t131 295t145 268t133 223q-36 -11 -36 26q0 4 2 18q22 22 37 41q19 22 60 60t59 59q29 35 77 102.5t66 90.5q94 128 101 136q7 9 15 9q13 0 29 -19q165 137 279 137q78 0 113.5 -57.5t37.5 -143.5q2 -93 -56 -250.5 t-153 -333.5t-222 -358.5t-255.5 -328t-260 -238t-230.5 -92.5zM-167 -400q-14 -114 111 -114q104 0 293 160q110 95 251 271.5t266.5 371.5t215 392.5t95.5 320.5q2 37 -3 68.5t-18.5 59.5t-41 44.5t-66.5 16.5q-54 0 -131 -35t-119 -75q4 -15 -3 -23q1 -5 -2 -9t-7 -6 t-11 -4.5t-9 -3.5q-135 -135 -317.5 -402t-332.5 -564t-171 -469zM1006 1416q0 13 17 13l1 6q14 22 36 22q19 0 29.5 -12t19.5 -36t13 -31q19 -33 19 -38q0 -11 -13 -20t-25 -9q-11 0 -22 11t-22 27.5t-17 21.5q-2 2 -9.5 7.5t-13.5 10.5t-7 8q-6 18 -6 19z" glyph-name="Ograve" horiz-adv-x="1081" unicode=""/><glyph d="M-77 -563q-59 0 -92 35t-31 94q1 88 51 227t131 295t145 268t133 223q-36 -11 -36 26q0 4 2 18q22 22 37 41q19 22 60 60t59 59q29 35 77 102.5t66 90.5q94 128 101 136q7 9 15 9q13 0 29 -19q165 137 279 137q78 0 113.5 -57.5t37.5 -143.5q2 -93 -56 -250.5 t-153 -333.5t-222 -358.5t-255.5 -328t-260 -238t-230.5 -92.5zM-167 -400q-14 -114 111 -114q104 0 293 160q110 95 251 271.5t266.5 371.5t215 392.5t95.5 320.5q2 37 -3 68.5t-18.5 59.5t-41 44.5t-66.5 16.5q-54 0 -131 -35t-119 -75q4 -15 -3 -23q1 -5 -2 -9t-7 -6 t-11 -4.5t-9 -3.5q-135 -135 -317.5 -402t-332.5 -564t-171 -469zM1021 1365q0 12 50.5 62.5t60.5 50.5q22 0 25 -16q8 5 20 7q16 -6 16 -29q0 -27 -15 -37q-2 -1 -34 -13q-46 -18 -87 -59l-5 -2q-8 0 -19.5 13.5t-11.5 22.5z" glyph-name="Oacute" horiz-adv-x="1133" unicode=""/><glyph d="M-77 -563q-59 0 -92 35t-31 94q1 88 51 227t131 295t145 268t133 223q-36 -11 -36 26q0 4 2 18q22 22 37 41q19 22 60 60t59 59q29 35 77 102.5t66 90.5q94 128 101 136q7 9 15 9q13 0 29 -19q165 137 279 137q78 0 113.5 -57.5t37.5 -143.5q2 -93 -56 -250.5 t-153 -333.5t-222 -358.5t-255.5 -328t-260 -238t-230.5 -92.5zM-167 -400q-14 -114 111 -114q104 0 293 160q110 95 251 271.5t266.5 371.5t215 392.5t95.5 320.5q2 37 -3 68.5t-18.5 59.5t-41 44.5t-66.5 16.5q-54 0 -131 -35t-119 -75q4 -15 -3 -23q1 -5 -2 -9t-7 -6 t-11 -4.5t-9 -3.5q-135 -135 -317.5 -402t-332.5 -564t-171 -469zM899 1349q0 9 3 17q1 2 18.5 10t38 17.5t24.5 11.5q9 5 37.5 28t54 39.5t37.5 16.5q44 0 44 -47q0 -12 -3.5 -35t-3.5 -35q0 -8 2 -26t2 -26v-7q-12 -14 -26 -14q-13 0 -25 10q-2 14 -2 21q0 18 1.5 53 t1.5 52q-6 -4 -19.5 -10t-19.5 -9q-45 -24 -97 -64q-2 -2 -12 -9t-18 -12.5t-12 -6.5q-26 4 -26 25z" glyph-name="Ocircumflex" horiz-adv-x="1096" unicode=""/><glyph d="M-77 -563q-59 0 -92 35t-31 94q1 88 51 227t131 295t145 268t133 223q-36 -11 -36 26q0 4 2 18q22 22 37 41q19 22 60 60t59 59q29 35 77 102.5t66 90.5q94 128 101 136q7 9 15 9q13 0 29 -19q165 137 279 137q78 0 113.5 -57.5t37.5 -143.5q2 -93 -56 -250.5 t-153 -333.5t-222 -358.5t-255.5 -328t-260 -238t-230.5 -92.5zM-167 -400q-14 -114 111 -114q104 0 293 160q110 95 251 271.5t266.5 371.5t215 392.5t95.5 320.5q2 37 -3 68.5t-18.5 59.5t-41 44.5t-66.5 16.5q-54 0 -131 -35t-119 -75q4 -15 -3 -23q1 -5 -2 -9t-7 -6 t-11 -4.5t-9 -3.5q-135 -135 -317.5 -402t-332.5 -564t-171 -469zM705 1370q0 42 51.5 76.5t95.5 34.5q49 0 134 -49.5t137 -49.5q32 0 72 22t40 52l-2 4q11 44 53 36q14 -3 14 -30q0 -57 -51.5 -94.5t-110.5 -37.5q-51 0 -107.5 22t-103 44.5t-73.5 22.5q-59 0 -89 -49 q-4 -6 -19.5 -16.5t-22.5 -10.5q-8 0 -13 7.5t-5 15.5z" glyph-name="Otilde" horiz-adv-x="1116" unicode=""/><glyph d="M-77 -563q-59 0 -92 35t-31 94q1 88 51 227t131 295t145 268t133 223q-36 -11 -36 26q0 4 2 18q22 22 37 41q19 22 60 60t59 59q29 35 77 102.5t66 90.5q94 128 101 136q7 9 15 9q13 0 29 -19q165 137 279 137q78 0 113.5 -57.5t37.5 -143.5q2 -93 -56 -250.5 t-153 -333.5t-222 -358.5t-255.5 -328t-260 -238t-230.5 -92.5zM-167 -400q-14 -114 111 -114q104 0 293 160q110 95 251 271.5t266.5 371.5t215 392.5t95.5 320.5q2 37 -3 68.5t-18.5 59.5t-41 44.5t-66.5 16.5q-54 0 -131 -35t-119 -75q4 -15 -3 -23q1 -5 -2 -9t-7 -6 t-11 -4.5t-9 -3.5q-135 -135 -317.5 -402t-332.5 -564t-171 -469zM927 1380q0 15 11 27t32 12q16 0 25.5 -10.5t9.5 -22.5q0 -16 -9 -29.5t-26 -13.5q-43 0 -43 37zM1105 1367q0 16 15 27.5t32 11.5t27.5 -13.5t10.5 -32.5q0 -15 -13 -26t-29 -11q-43 0 -43 44z" glyph-name="Odieresis" horiz-adv-x="1130" unicode=""/><glyph d="M74 117q-34 0 -37 37q12 12 34 32t37 36t31 37q-2 12 -15 48.5t-13 46.5q0 38 26 38q11 0 18.5 -6t10.5 -17.5t4.5 -21t1.5 -23t1 -18.5q6 12 27.5 47.5t25.5 35.5q15 0 33.5 -12.5t18.5 -25.5q0 -1 -21.5 -23.5t-45 -47.5t-27.5 -31q9 -45 31 -91q-7 -26 -24 -26 q-11 0 -21 7q-1 3 -18 71q-36 -42 -73 -93h-5z" glyph-name="multiply" horiz-adv-x="304" unicode=""/><glyph d="M29 -563q-59 0 -92 35t-31 94q3 156 161 480q-87 -53 -156 -100q-10 -7 -48 -37.5t-45 -34.5q-1 -1 -6.5 -3.5t-7.5 -4.5q-39 20 -37 66q60 34 173.5 95.5t162.5 88.5q105 205 263 463q-36 -11 -36 26q0 4 2 18q22 22 37 41q19 22 60 60t59 59q29 35 77 102.5t66 90.5 q94 128 101 136q7 9 15 9q13 0 29 -19q165 137 279 137q78 0 113.5 -57.5t37.5 -143.5q3 -114 -85 -326l57 37q5 3 34.5 24.5t54.5 38t31 15.5q20 -2 31 -8q19 -11 11 -29q-2 -8 -5 -11q-5 -3 -7 -9l-2.5 -5t-1.5 -3.5t-2 -3l-3 -1.5t-3.5 -1.5t-5.5 -1.5q-18 -5 -50 -20.5 t-53.5 -27.5t-66 -38t-52.5 -31q-70 -153 -168.5 -318.5t-215 -322t-234 -282t-234.5 -201.5t-207 -76zM-61 -400q-14 -114 111 -114q104 0 293 160q158 137 364 419t336 546q-588 -326 -850 -489q-14 -8 -41.5 -24.5t-40.5 -25.5q-151 -300 -172 -472zM148 143 q14 9 63 39.5t76 46.5q259 149 358 208q34 20 96.5 53.5t82.5 44.5q154 88 253 150q88 196 94 317q2 37 -3 68.5t-18.5 59.5t-41 44.5t-66.5 16.5q-54 0 -131 -35t-119 -75q4 -15 -3 -23q1 -5 -2 -9t-7 -6t-11 -4.5t-9 -3.5q-126 -126 -301 -380t-311 -512z" glyph-name="Oslash" horiz-adv-x="1182" unicode=""/><glyph d="M-107 -554q-47 3 -71 34t-22 78q1 70 38 161q61 149 152.5 296t219.5 321q87 120 252.5 337t207.5 272q102 133 141 192q4 6 18 26t22 29q12 13 26 12q18 -1 40.5 -15.5t21.5 -30.5q0 -25 -31 -60q-136 -143 -202 -254q-32 -53 -47 -70q-22 -28 -33 -47q-21 -11 -39 -10 q-24 1 -24 37q-11 -15 -75 -100t-104 -138t-112.5 -154t-121 -173.5t-108.5 -168t-96 -165.5t-62 -139t-27 -114q0 -76 23 -77q62 -4 114.5 15t114.5 59q58 38 125.5 92t105 86.5t120.5 109t104 95.5q209 190 385 356q29 27 93 85.5t98 91.5q27 23 40 37q11 13 27.5 41.5 t23.5 38.5q24 36 125 174q51 67 152 190t146 182q2 3 13.5 18.5t20.5 27.5t20.5 22t18.5 10q18 -1 43 -24t25 -40q0 -7 -23 -34t-52 -59t-32 -35q-193 -230 -358 -395q-6 -6 -53 -49t-68 -67q-18 -21 -46.5 -72t-31.5 -55q-36 -59 -86.5 -149t-124.5 -228.5t-124.5 -263 t-52.5 -186.5q3 -31 9 -36q-1 -17 -9 -27t-24 -9q-8 0 -28 8q-1 5 -4 34q3 75 97 274t189 366.5t160 270.5q-233 -229 -546 -520q-17 -16 -98.5 -92t-121 -111t-109 -95t-127 -101.5t-110.5 -72.5q-79 -45 -128 -42zM1268 640q269 272 396 459q-104 -85 -196.5 -196.5 t-199.5 -262.5zM1274 1361q0 13 17 13l1 6q14 22 36 22q19 0 29.5 -12t19.5 -36t13 -31q19 -33 19 -38q0 -11 -13 -20t-25 -9q-11 0 -22 11t-22 27.5t-17 21.5q-2 2 -9.5 7.5t-13.5 10.5t-7 8q-6 18 -6 19z" glyph-name="Ugrave" horiz-adv-x="1298" unicode=""/><glyph d="M-107 -554q-47 3 -71 34t-22 78q1 70 38 161q61 149 152.5 296t219.5 321q87 120 252.5 337t207.5 272q102 133 141 192q4 6 18 26t22 29q12 13 26 12q18 -1 40.5 -15.5t21.5 -30.5q0 -25 -31 -60q-136 -143 -202 -254q-32 -53 -47 -70q-22 -28 -33 -47q-21 -11 -39 -10 q-24 1 -24 37q-11 -15 -75 -100t-104 -138t-112.5 -154t-121 -173.5t-108.5 -168t-96 -165.5t-62 -139t-27 -114q0 -76 23 -77q62 -4 114.5 15t114.5 59q58 38 125.5 92t105 86.5t120.5 109t104 95.5q209 190 385 356q29 27 93 85.5t98 91.5q27 23 40 37q11 13 27.5 41.5 t23.5 38.5q24 36 125 174q51 67 152 190t146 182q2 3 13.5 18.5t20.5 27.5t20.5 22t18.5 10q18 -1 43 -24t25 -40q0 -7 -23 -34t-52 -59t-32 -35q-193 -230 -358 -395q-6 -6 -53 -49t-68 -67q-18 -21 -46.5 -72t-31.5 -55q-36 -59 -86.5 -149t-124.5 -228.5t-124.5 -263 t-52.5 -186.5q3 -31 9 -36q-1 -17 -9 -27t-24 -9q-8 0 -28 8q-1 5 -4 34q3 75 97 274t189 366.5t160 270.5q-233 -229 -546 -520q-17 -16 -98.5 -92t-121 -111t-109 -95t-127 -101.5t-110.5 -72.5q-79 -45 -128 -42zM1268 640q269 272 396 459q-104 -85 -196.5 -196.5 t-199.5 -262.5zM1289 1292q0 12 50.5 62.5t60.5 50.5q22 0 25 -16q8 5 20 7q16 -6 16 -29q0 -27 -15 -37q-2 -1 -34 -13q-46 -18 -87 -59l-5 -2q-8 0 -19.5 13.5t-11.5 22.5z" glyph-name="Uacute" horiz-adv-x="1298" unicode=""/><glyph d="M-107 -554q-47 3 -71 34t-22 78q1 70 38 161q61 149 152.5 296t219.5 321q87 120 252.5 337t207.5 272q102 133 141 192q4 6 18 26t22 29q12 13 26 12q18 -1 40.5 -15.5t21.5 -30.5q0 -25 -31 -60q-136 -143 -202 -254q-32 -53 -47 -70q-22 -28 -33 -47q-21 -11 -39 -10 q-24 1 -24 37q-11 -15 -75 -100t-104 -138t-112.5 -154t-121 -173.5t-108.5 -168t-96 -165.5t-62 -139t-27 -114q0 -76 23 -77q62 -4 114.5 15t114.5 59q58 38 125.5 92t105 86.5t120.5 109t104 95.5q209 190 385 356q29 27 93 85.5t98 91.5q27 23 40 37q11 13 27.5 41.5 t23.5 38.5q24 36 125 174q51 67 152 190t146 182q2 3 13.5 18.5t20.5 27.5t20.5 22t18.5 10q18 -1 43 -24t25 -40q0 -7 -23 -34t-52 -59t-32 -35q-193 -230 -358 -395q-6 -6 -53 -49t-68 -67q-18 -21 -46.5 -72t-31.5 -55q-36 -59 -86.5 -149t-124.5 -228.5t-124.5 -263 t-52.5 -186.5q3 -31 9 -36q-1 -17 -9 -27t-24 -9q-8 0 -28 8q-1 5 -4 34q3 75 97 274t189 366.5t160 270.5q-233 -229 -546 -520q-17 -16 -98.5 -92t-121 -111t-109 -95t-127 -101.5t-110.5 -72.5q-79 -45 -128 -42zM1155 1316q0 13 4 20q1 2 22 12t45.5 21.5t29.5 14.5 q11 7 45.5 34t64.5 47t45 20q53 0 53 -57q0 -14 -4 -42t-4 -42q0 -10 2.5 -31t2.5 -32v-8q-15 -17 -32 -17q-15 0 -29 12q-3 12 -3 25q0 21 2 63.5t2 63.5q-8 -5 -24.5 -12.5t-22.5 -10.5q-52 -28 -117 -77q-45 -33 -50 -34q-32 6 -32 30zM1268 640q269 272 396 459 q-104 -85 -196.5 -196.5t-199.5 -262.5z" glyph-name="Ucircumflex" horiz-adv-x="1298" unicode=""/><glyph d="M-107 -554q-47 3 -71 34t-22 78q1 70 38 161q61 149 152.5 296t219.5 321q87 120 252.5 337t207.5 272q102 133 141 192q4 6 18 26t22 29q12 13 26 12q18 -1 40.5 -15.5t21.5 -30.5q0 -25 -31 -60q-136 -143 -202 -254q-32 -53 -47 -70q-22 -28 -33 -47q-21 -11 -39 -10 q-24 1 -24 37q-11 -15 -75 -100t-104 -138t-112.5 -154t-121 -173.5t-108.5 -168t-96 -165.5t-62 -139t-27 -114q0 -76 23 -77q62 -4 114.5 15t114.5 59q58 38 125.5 92t105 86.5t120.5 109t104 95.5q209 190 385 356q29 27 93 85.5t98 91.5q27 23 40 37q11 13 27.5 41.5 t23.5 38.5q24 36 125 174q51 67 152 190t146 182q2 3 13.5 18.5t20.5 27.5t20.5 22t18.5 10q18 -1 43 -24t25 -40q0 -7 -23 -34t-52 -59t-32 -35q-193 -230 -358 -395q-6 -6 -53 -49t-68 -67q-18 -21 -46.5 -72t-31.5 -55q-36 -59 -86.5 -149t-124.5 -228.5t-124.5 -263 t-52.5 -186.5q3 -31 9 -36q-1 -17 -9 -27t-24 -9q-8 0 -28 8q-1 5 -4 34q3 75 97 274t189 366.5t160 270.5q-233 -229 -546 -520q-17 -16 -98.5 -92t-121 -111t-109 -95t-127 -101.5t-110.5 -72.5q-79 -45 -128 -42zM1185 1359q0 15 11 27t32 12q16 0 25.5 -10.5t9.5 -22.5 q0 -16 -9 -29.5t-26 -13.5q-43 0 -43 37zM1268 640q269 272 396 459q-104 -85 -196.5 -196.5t-199.5 -262.5zM1363 1346q0 16 15 27.5t32 11.5t27.5 -13.5t10.5 -32.5q0 -15 -13 -26t-29 -11q-43 0 -43 44z" glyph-name="Udieresis" horiz-adv-x="1298" unicode=""/><glyph d="M-215 -726q-40 1 -63.5 29t-21.5 68q1 34 14 65.5t38.5 62t44 48.5t52.5 48q107 95 322 201q71 37 139 74q17 27 58 86t60 89q45 71 143.5 241.5t156.5 258.5q-410 -397 -605 -397q-31 0 -49.5 25t-17.5 56q2 52 41 138.5t85.5 163.5t122 185t112.5 157.5t95 125.5 q46 59 100 161q8 13 19 13q16 0 37 -14.5t21 -28.5l-3 -10q0 -7 -8 -12q-6 -16 -37 -47l-24 -6q-52 -45 -136.5 -150t-167 -224t-143 -237.5t-62.5 -179.5q-1 -33 6.5 -40t41.5 -7q59 0 139.5 36.5t162.5 97t142.5 110.5t117.5 104q48 45 52 50q16 20 49 79t41 71 q35 54 117.5 170t181.5 236t127 120q19 0 38.5 -17.5t18.5 -35.5q-1 -15 -42 -71q-120 -151 -139 -173q-206 -243 -377 -400q-18 -33 -63.5 -109t-47.5 -80q-15 -25 -72 -124t-83.5 -142.5t-75.5 -118.5t-95 -135q142 68 295.5 164.5t232 154.5t91.5 71q17 8 27 -5t3 -31 q-58 -34 -161.5 -104.5t-136.5 -91.5q-35 -22 -69.5 -42t-79.5 -43t-67 -34.5t-81 -40t-73 -35.5q-30 -50 -71 -112.5t-105.5 -148t-125.5 -153.5t-127.5 -115t-114.5 -45zM-228 -620q-2 -47 38 -47q21 0 39 6q41 12 107.5 74.5t131 143t117.5 153t82 119.5 q-19 -11 -68.5 -37.5t-75.5 -41t-70.5 -41t-73 -47.5t-63.5 -48.5t-63 -57t-50 -61.5q-50 -68 -51 -115zM835 679q262 266 380 432q7 9 28 45t22 37q-42 -18 -105.5 -83.5t-127.5 -150t-113.5 -155.5t-83.5 -125zM933 1302q0 12 50.5 62.5t60.5 50.5q22 0 25 -16q8 5 20 7 q16 -6 16 -29q0 -27 -15 -37q-2 -1 -34 -13q-46 -18 -87 -59l-5 -2q-8 0 -19.5 13.5t-11.5 22.5z" glyph-name="Yacute" horiz-adv-x="967" unicode=""/><glyph d="M-559 -666q-13 0 -32 10.5t-18 22.5q0 2 17 25t36.5 49t23.5 33q43 71 192 297q35 53 109 169.5t130.5 202t90.5 131.5q37 50 157.5 217.5t132.5 187.5q11 22 30 24t32.5 -11t12.5 -29q0 -4 -4 -8q-11 -9 -130.5 -166.5t-143.5 -190.5q-20 -26 -81.5 -99.5t-91.5 -115.5 q30 34 75 78.5t103.5 97t115 87t89.5 33.5q30 -1 49.5 -20.5t18.5 -49.5q0 -11 -3 -22.5t-6.5 -21.5t-10.5 -24t-11.5 -22.5t-14.5 -23.5t-14.5 -22t-16.5 -22.5t-15.5 -19.5t-16 -20t-13.5 -17l-43 -53q-64 -78 -123.5 -131.5t-132.5 -87.5q-44 -17 -56 -16q-23 1 -41.5 19 t-17.5 41q2 24 18 44q25 32 63 58.5t91.5 47.5t86 31.5t90.5 27.5q107 139 110 216q0 12 -1 19h-5q-36 0 -108 -39q-78 -43 -146.5 -108t-151.5 -159q-1 -1 -22.5 -25t-30.5 -37q-14 -19 -70 -121q-105 -186 -175 -294q-5 -8 -35.5 -52t-47 -74t-17.5 -48q0 -7 -9.5 -13 t-17.5 -6zM-99 -126q99 9 219 143q-41 -15 -63 -24t-58.5 -27.5t-60.5 -41t-37 -50.5z" glyph-name="Thorn" horiz-adv-x="537" unicode=""/><glyph d="M-346 -247q-20 1 -27 32q2 10 14 29t31.5 42.5t36 43.5t37 43.5t25.5 29.5q128 183 293.5 369.5t313.5 297.5q69 49 101 48q22 -8 31.5 -22.5t6 -33.5t-13 -40t-27.5 -45t-36.5 -45.5t-41 -44.5t-39.5 -40t-34 -33t-23 -22q26 -6 39.5 -31.5t11.5 -55.5q-2 -17 -7 -33 t-14 -36.5t-13 -32.5q6 3 83 33.5t101 56.5q13 14 26.5 1t5.5 -26q-92 -48 -252 -116q-158 -186 -356 -287q-68 -33 -100 -30q-17 1 -29 18t-11 34q0 6 3.5 13.5t6.5 12t9.5 13t7.5 10.5q16 21 40 41.5t60.5 42t61.5 36t75.5 36t67 29t71 29.5t55.5 22q26 32 38.5 76.5 t-1.5 83.5q-17 9 -48 0q-175 -146 -189 -145q-13 1 -27.5 20t-12.5 33q0 8 8 13q25 15 74 51t90 59t83 30q56 50 120.5 133.5t67.5 133.5q-79 -35 -182.5 -127.5t-204 -211t-179.5 -221.5t-143 -196q-10 -17 -27.5 -56t-30.5 -58q-13 -7 -27 -7zM-155 -138q2 -1 3 -1 q0 2 -3 2v-1zM-137 -139q85 14 179 81.5t166 148.5v1q-13 -5 -46 -18t-51 -20.5t-49.5 -22t-51.5 -25.5t-45.5 -28t-42.5 -33.5t-33.5 -38.5t-25.5 -45z" glyph-name="germandbls" horiz-adv-x="510" unicode=""/><glyph d="M170 10q-46 -1 -75 22.5t-30 68.5q0 15 5 41t12 35q-30 -34 -93.5 -90t-84.5 -57q-21 0 -38 17t-17 38q-1 25 78 114.5t115 116.5q42 32 73 32q24 1 36.5 -9.5t21.5 -34.5q2 -2 11.5 -9t14.5 -13.5t5 -13.5q0 -5 -20 -28.5t-40.5 -59.5t-20.5 -70q1 -40 64 -40 q70 1 200 72.5t187 124.5q12 0 18.5 -8.5t2.5 -21.5q-13 -18 -169.5 -109.5t-193.5 -105.5q-32 -12 -62 -12zM-78 115q40 15 94.5 62.5t88.5 89.5l-1 7q-37 -1 -103.5 -61.5t-78.5 -97.5zM120 538q0 13 17 13l1 6q14 22 36 22q19 0 29.5 -12t19.5 -36t13 -31q19 -33 19 -38 q0 -11 -13 -20t-25 -9q-11 0 -22 11t-22 27.5t-17 21.5q-2 2 -9.5 7.5t-13.5 10.5t-7 8q-6 18 -6 19z" glyph-name="agrave" horiz-adv-x="578" unicode=""/><glyph d="M170 10q-46 -1 -75 22.5t-30 68.5q0 15 5 41t12 35q-30 -34 -93.5 -90t-84.5 -57q-21 0 -38 17t-17 38q-1 25 78 114.5t115 116.5q42 32 73 32q24 1 36.5 -9.5t21.5 -34.5q2 -2 11.5 -9t14.5 -13.5t5 -13.5q0 -5 -20 -28.5t-40.5 -59.5t-20.5 -70q1 -40 64 -40 q70 1 200 72.5t187 124.5q12 0 18.5 -8.5t2.5 -21.5q-13 -18 -169.5 -109.5t-193.5 -105.5q-32 -12 -62 -12zM-78 115q40 15 94.5 62.5t88.5 89.5l-1 7q-37 -1 -103.5 -61.5t-78.5 -97.5zM140 457q0 12 50.5 62.5t60.5 50.5q22 0 25 -16q8 5 20 7q16 -6 16 -29 q0 -27 -15 -37q-2 -1 -34 -13q-46 -18 -87 -59l-5 -2q-8 0 -19.5 13.5t-11.5 22.5z" glyph-name="aacute" horiz-adv-x="578" unicode=""/><glyph d="M170 10q-46 -1 -75 22.5t-30 68.5q0 15 5 41t12 35q-30 -34 -93.5 -90t-84.5 -57q-21 0 -38 17t-17 38q-1 25 78 114.5t115 116.5q42 32 73 32q24 1 36.5 -9.5t21.5 -34.5q2 -2 11.5 -9t14.5 -13.5t5 -13.5q0 -5 -20 -28.5t-40.5 -59.5t-20.5 -70q1 -40 64 -40 q70 1 200 72.5t187 124.5q12 0 18.5 -8.5t2.5 -21.5q-13 -18 -169.5 -109.5t-193.5 -105.5q-32 -12 -62 -12zM-78 115q40 15 94.5 62.5t88.5 89.5l-1 7q-37 -1 -103.5 -61.5t-78.5 -97.5zM-7 434q0 13 4 20q1 2 22 12t45.5 21.5t29.5 14.5q11 7 45.5 34t64.5 47t45 20 q53 0 53 -57q0 -14 -4 -42t-4 -42q0 -10 2.5 -31t2.5 -32v-8q-15 -17 -32 -17q-15 0 -29 12q-3 12 -3 25q0 21 2 63.5t2 63.5q-8 -5 -24.5 -12.5t-22.5 -10.5q-52 -28 -117 -77q-45 -33 -50 -34q-32 6 -32 30z" glyph-name="acircumflex" horiz-adv-x="578" unicode=""/><glyph d="M170 10q-46 -1 -75 22.5t-30 68.5q0 15 5 41t12 35q-30 -34 -93.5 -90t-84.5 -57q-21 0 -38 17t-17 38q-1 25 78 114.5t115 116.5q42 32 73 32q24 1 36.5 -9.5t21.5 -34.5q2 -2 11.5 -9t14.5 -13.5t5 -13.5q0 -5 -20 -28.5t-40.5 -59.5t-20.5 -70q1 -40 64 -40 q70 1 200 72.5t187 124.5q12 0 18.5 -8.5t2.5 -21.5q-13 -18 -169.5 -109.5t-193.5 -105.5q-32 -12 -62 -12zM-78 115q40 15 94.5 62.5t88.5 89.5l-1 7q-37 -1 -103.5 -61.5t-78.5 -97.5zM-60 413q0 31 38 57t71 26q37 0 100.5 -37t101.5 -37q24 0 54 16.5t30 38.5l-1 3 q8 34 39 27q11 -3 11 -23q0 -42 -39 -70t-82 -28q-50 0 -120.5 33t-91.5 33q-45 0 -67 -36q-2 -5 -13.5 -12.5t-17.5 -7.5t-9.5 5.5t-3.5 11.5z" glyph-name="atilde" horiz-adv-x="578" unicode=""/><glyph d="M170 10q-46 -1 -75 22.5t-30 68.5q0 15 5 41t12 35q-30 -34 -93.5 -90t-84.5 -57q-21 0 -38 17t-17 38q-1 25 78 114.5t115 116.5q42 32 73 32q24 1 36.5 -9.5t21.5 -34.5q2 -2 11.5 -9t14.5 -13.5t5 -13.5q0 -5 -20 -28.5t-40.5 -59.5t-20.5 -70q1 -40 64 -40 q70 1 200 72.5t187 124.5q12 0 18.5 -8.5t2.5 -21.5q-13 -18 -169.5 -109.5t-193.5 -105.5q-32 -12 -62 -12zM-78 115q40 15 94.5 62.5t88.5 89.5l-1 7q-37 -1 -103.5 -61.5t-78.5 -97.5zM35 478q0 15 11 27t32 12q16 0 25.5 -10.5t9.5 -22.5q0 -16 -9 -29.5t-26 -13.5 q-43 0 -43 37zM213 465q0 16 15 27.5t32 11.5t27.5 -13.5t10.5 -32.5q0 -15 -13 -26t-29 -11q-43 0 -43 44z" glyph-name="adieresis" horiz-adv-x="578" unicode=""/><glyph d="M170 10q-46 -1 -75 22.5t-30 68.5q0 15 5 41t12 35q-30 -34 -93.5 -90t-84.5 -57q-21 0 -38 17t-17 38q-1 25 78 114.5t115 116.5q42 32 73 32q24 1 36.5 -9.5t21.5 -34.5q2 -2 11.5 -9t14.5 -13.5t5 -13.5q0 -5 -20 -28.5t-40.5 -59.5t-20.5 -70q1 -40 64 -40 q70 1 200 72.5t187 124.5q12 0 18.5 -8.5t2.5 -21.5q-13 -18 -169.5 -109.5t-193.5 -105.5q-32 -12 -62 -12zM-78 115q40 15 94.5 62.5t88.5 89.5l-1 7q-37 -1 -103.5 -61.5t-78.5 -97.5zM98 461q0 32 14 62.5t39 48.5l-3 20q31 19 63 19q33 0 58.5 -26t25.5 -59 q0 -51 -40 -94t-91 -43q-31 0 -48.5 20t-17.5 52zM160 464q0 -10 10 -10q25 0 43.5 18.5t18.5 43.5q0 8 -1.5 14.5t-8 12.5t-18.5 5q-6 0 -16 -12q-3 -3 -9 -10t-8 -10.5t-5.5 -10.5t-4.5 -17t-1 -24z" glyph-name="aring" horiz-adv-x="578" unicode=""/><glyph d="M157 -20q-49 0 -82.5 20t-30.5 67q1 38 35 107q-34 -38 -94.5 -90.5t-80.5 -53.5q-21 0 -38 17t-17 38q-1 25 78 114.5t115 116.5q42 32 73 32q24 1 36.5 -9.5t21.5 -34.5q3 -3 5 -4q86 86 133 85q21 -1 35 -20.5t12 -41.5q0 -14 -10 -26q-29 -34 -115 -99t-115 -65 q-10 -26 -11 -48q0 -30 17 -38t58 -9q93 -4 254 71t223 148q9 6 17.5 2.5t10.5 -11.5t-2 -14q-58 -63 -255.5 -158.5t-272.5 -95.5zM-78 115q40 15 94.5 62.5t88.5 89.5l-1 7q-37 -1 -103.5 -61.5t-78.5 -97.5zM172 220q46 23 92 73q-54 -30 -92 -73z" glyph-name="ae" horiz-adv-x="666" unicode=""/><glyph d="M-63 -75q-106 -40 -106 84q0 25 14 57q34 68 133.5 188.5t130.5 120.5q18 0 36.5 -15t18.5 -32q0 -12 -8 -48t-13 -40l-9.5 -9.5t-13.5 -11t-13 -3.5q-11 0 -20.5 17t-9.5 29q0 7 6 19q-37 -25 -62 -49q-38 -37 -79.5 -104t-41.5 -107q0 -14 3.5 -17.5t18.5 -5.5 q58 -5 182 52t206 109q50 30 92 60.5t52 35.5q17 6 26.5 -2t-1.5 -23q-7 -4 -145.5 -90t-182.5 -111q-112 -64 -214 -104zM-201 -238q-27 -1 -35 25q-7 22 5 27q10 5 26 -15q34 -5 50 13q27 29 17 51q-3 6 -13 5.5t-14 1.5t-10.5 -2.5t-10.5 -3.5q-12 2 -18.5 17.5t4.5 23.5 q12 11 28.5 35.5t25.5 33.5q32 14 25 -11q-8 -29 -33 -58q54 -6 56 -49q2 -40 -35 -72q-32 -28 -68 -22z" glyph-name="ccedilla" horiz-adv-x="462" unicode=""/><glyph d="M-3 -20q-49 0 -82.5 20t-30.5 67q1 27 18.5 70.5t35.5 69.5q35 51 103.5 115t109.5 63q21 -1 35 -20.5t12 -41.5q0 -14 -10 -26q-29 -34 -115 -99t-115 -65q-10 -26 -11 -48q0 -30 17 -38t58 -9q93 -4 254 71t223 148q9 6 17.5 2.5t10.5 -11.5t-2 -14 q-58 -63 -255.5 -158.5t-272.5 -95.5zM12 220q46 23 92 73q-54 -30 -92 -73zM110 576q0 13 17 13l1 6q14 22 36 22q19 0 29.5 -12t19.5 -36t13 -31q19 -33 19 -38q0 -11 -13 -20t-25 -9q-11 0 -22 11t-22 27.5t-17 21.5q-2 2 -9.5 7.5t-13.5 10.5t-7 8q-6 18 -6 19z" glyph-name="egrave" horiz-adv-x="506" unicode=""/><glyph d="M-3 -20q-49 0 -82.5 20t-30.5 67q1 27 18.5 70.5t35.5 69.5q35 51 103.5 115t109.5 63q21 -1 35 -20.5t12 -41.5q0 -14 -10 -26q-29 -34 -115 -99t-115 -65q-10 -26 -11 -48q0 -30 17 -38t58 -9q93 -4 254 71t223 148q9 6 17.5 2.5t10.5 -11.5t-2 -14 q-58 -63 -255.5 -158.5t-272.5 -95.5zM12 220q46 23 92 73q-54 -30 -92 -73zM169 515q0 12 50.5 62.5t60.5 50.5q22 0 25 -16q8 5 20 7q16 -6 16 -29q0 -27 -15 -37q-2 -1 -34 -13q-46 -18 -87 -59l-5 -2q-8 0 -19.5 13.5t-11.5 22.5z" glyph-name="eacute" horiz-adv-x="506" unicode=""/><glyph d="M-3 -20q-49 0 -82.5 20t-30.5 67q1 27 18.5 70.5t35.5 69.5q35 51 103.5 115t109.5 63q21 -1 35 -20.5t12 -41.5q0 -14 -10 -26q-29 -34 -115 -99t-115 -65q-10 -26 -11 -48q0 -30 17 -38t58 -9q93 -4 254 71t223 148q9 6 17.5 2.5t10.5 -11.5t-2 -14 q-58 -63 -255.5 -158.5t-272.5 -95.5zM12 220q46 23 92 73q-54 -30 -92 -73zM67 504q0 12 4 17q1 2 19 10.5t39 18t25 12.5q10 6 39 29t55 40t39 17q45 0 45 -48q0 -12 -3.5 -36t-3.5 -36q0 -9 2 -27t2 -27v-7q-11 -15 -27 -15q-12 0 -25 11q-2 6 -2 21q0 18 1.5 54.5 t1.5 54.5q-7 -5 -21 -11t-19 -9q-49 -27 -100 -66q-40 -28 -43 -29q-28 6 -28 26z" glyph-name="ecircumflex" horiz-adv-x="506" unicode=""/><glyph d="M-3 -20q-49 0 -82.5 20t-30.5 67q1 27 18.5 70.5t35.5 69.5q35 51 103.5 115t109.5 63q21 -1 35 -20.5t12 -41.5q0 -14 -10 -26q-29 -34 -115 -99t-115 -65q-10 -26 -11 -48q0 -30 17 -38t58 -9q93 -4 254 71t223 148q9 6 17.5 2.5t10.5 -11.5t-2 -14 q-58 -63 -255.5 -158.5t-272.5 -95.5zM12 220q46 23 92 73q-54 -30 -92 -73zM100 501q0 15 11 27t32 12q16 0 25.5 -10.5t9.5 -22.5q0 -16 -9 -29.5t-26 -13.5q-43 0 -43 37zM278 488q0 16 15 27.5t32 11.5t27.5 -13.5t10.5 -32.5q0 -15 -13 -26t-29 -11q-43 0 -43 44z" glyph-name="edieresis" horiz-adv-x="506" unicode=""/><glyph d="M-88 -83q-33 2 -55 23t-21 53t20 73t61 107t42 67q-8 21 28 57q5 11 10 11h4q5 5 11 3q12 0 28.5 -16.5t16.5 -28.5q0 -4 -3.5 -8t-7.5 -9t-6 -8q-4 -6 -10 -10.5t-15 -9l-13 -6.5q-27 -18 -66.5 -92t-41.5 -108q-1 -22 13.5 -30.5t38.5 -9.5q117 -5 389 194 q67 49 123 102q10 10 18.5 3t7.5 -24q-4 -21 -7 -23q-31 -27 -121 -88q-88 -62 -236.5 -143t-207.5 -79zM-22 468q0 13 17 13l1 6q14 22 36 22q19 0 29.5 -12t19.5 -36t13 -31q19 -33 19 -38q0 -11 -13 -20t-25 -9q-11 0 -22 11t-22 27.5t-17 21.5q-2 2 -9.5 7.5t-13.5 10.5 t-7 8q-6 18 -6 19z" glyph-name="igrave" horiz-adv-x="459" unicode=""/><glyph d="M-88 -83q-33 2 -55 23t-21 53t20 73t61 107t42 67q-8 21 28 57q5 11 10 11h4q5 5 11 3q12 0 28.5 -16.5t16.5 -28.5q0 -4 -3.5 -8t-7.5 -9t-6 -8q-4 -6 -10 -10.5t-15 -9l-13 -6.5q-27 -18 -66.5 -92t-41.5 -108q-1 -22 13.5 -30.5t38.5 -9.5q117 -5 389 194 q67 49 123 102q10 10 18.5 3t7.5 -24q-4 -21 -7 -23q-31 -27 -121 -88q-88 -62 -236.5 -143t-207.5 -79zM37 417q0 12 50.5 62.5t60.5 50.5q22 0 25 -16q8 5 20 7q16 -6 16 -29q0 -27 -15 -37q-2 -1 -34 -13q-46 -18 -87 -59l-5 -2q-8 0 -19.5 13.5t-11.5 22.5z" glyph-name="iacute" horiz-adv-x="459" unicode=""/><glyph d="M-88 -83q-33 2 -55 23t-21 53t20 73t61 107t42 67q-8 21 28 57q5 11 10 11h4q5 5 11 3q12 0 28.5 -16.5t16.5 -28.5q0 -4 -3.5 -8t-7.5 -9t-6 -8q-4 -6 -10 -10.5t-15 -9l-13 -6.5q-27 -18 -66.5 -92t-41.5 -108q-1 -22 13.5 -30.5t38.5 -9.5q117 -5 389 194 q67 49 123 102q10 10 18.5 3t7.5 -24q-4 -21 -7 -23q-31 -27 -121 -88q-88 -62 -236.5 -143t-207.5 -79zM-63 379q0 11 3 17q1 2 19 10.5t39 18t25 12.5q10 6 39 28.5t55 40t38 17.5q45 0 45 -49q0 -12 -3.5 -35.5t-3.5 -35.5q0 -9 2 -27t2 -27v-6q-13 -15 -27 -15 q-13 0 -25 10q-2 14 -2 22q0 17 1.5 53t1.5 54q-6 -4 -19.5 -9.5t-20.5 -9.5q-46 -25 -99 -66q-3 -2 -12.5 -9t-18 -12.5t-12.5 -6.5q-27 4 -27 25z" glyph-name="icircumflex" horiz-adv-x="459" unicode=""/><glyph d="M-88 -83q-33 2 -55 23t-21 53t20 73t61 107t42 67q-8 21 28 57q5 11 10 11h4q5 5 11 3q12 0 28.5 -16.5t16.5 -28.5q0 -4 -3.5 -8t-7.5 -9t-6 -8q-4 -6 -10 -10.5t-15 -9l-13 -6.5q-27 -18 -66.5 -92t-41.5 -108q-1 -22 13.5 -30.5t38.5 -9.5q117 -5 389 194 q67 49 123 102q10 10 18.5 3t7.5 -24q-4 -21 -7 -23q-31 -27 -121 -88q-88 -62 -236.5 -143t-207.5 -79zM-58 428q0 15 11 27t32 12q16 0 25.5 -10.5t9.5 -22.5q0 -16 -9 -29.5t-26 -13.5q-43 0 -43 37zM120 415q0 16 15 27.5t32 11.5t27.5 -13.5t10.5 -32.5q0 -15 -13 -26 t-29 -11q-43 0 -43 44z" glyph-name="idieresis" horiz-adv-x="459" unicode=""/><glyph d="M85 -135q-13 0 -20 25q80 175 97 208q43 87 202 361q-13 -16 -36.5 -45t-43 -52.5t-37.5 -43.5q4 -25 -5 -33q-3 -2 -11 -10t-14.5 -12t-13.5 -4q-1 0 -2.5 0.5t-2.5 0.5q-12 -14 -52.5 -60t-61.5 -71q-16 -18 -45.5 -54t-45.5 -54q-31 -33 -59 -33q-26 0 -42.5 19 t-17.5 46q-2 43 62.5 143.5t108.5 141.5q26 24 61.5 44.5t62.5 20.5q26 0 46.5 -16.5t26.5 -42.5q144 162 180 213q9 13 82 129q-68 -2 -104 -4q-6 0 -26.5 -2t-31.5 -2q-17 0 -30 8t-13 24q0 14 19 25q2 0 6.5 1t8 1.5t6.5 0.5q11 0 31.5 -4.5t30.5 -4.5q54 -4 130 -2 q99 148 160 248q14 22 42.5 58.5t38.5 50.5q36 52 50 52t33.5 -15.5t19.5 -29.5q0 -4 -5 -13t-14 -20t-17 -21t-17 -20.5t-11 -13.5q-120 -158 -221 -274q197 8 223 8q16 -14 16 -27t-14 -27q-3 0 -8.5 -0.5t-8.5 -0.5q-24 0 -73 2.5t-73 2.5q-65 0 -97 -1q-32 -39 -97 -131 q-90 -129 -213.5 -355t-136.5 -324q-13 -11 -23 -11zM-61 65q82 33 245 213q-1 3 -3 9.5t-7 11.5l-4 8q0 3 1.5 8t1.5 8v1q-3 2 -5 5l-4 1q-44 0 -98.5 -47t-91 -109.5t-35.5 -106.5v-2zM554 728h7q6 7 39 46.5t44.5 53t39 48.5t42 55t33 48t30.5 51q-72 -64 -235 -302z" glyph-name="eth" horiz-adv-x="548" unicode=""/><glyph d="M92 -83q-34 -2 -56 17.5t-23 52.5q-3 46 27 102t71.5 116t54.5 96q-44 -20 -128 -89t-115 -109q-22 -31 -37 -55q-3 -4 -17.5 -24t-22.5 -33.5t-12 -26.5q-5 -9 -19.5 -9t-30 11t-16.5 25q0 5 6 11q65 62 126 134q25 29 76 116t57 115q-5 19 4.5 35.5t20.5 16.5 q25 0 37 -8t9 -37t-54 -101q115 97 143 98q16 1 31.5 -13t16.5 -30q1 -19 -26 -61t-59.5 -84.5t-59 -94t-24.5 -87.5q1 -14 8 -17t25 -2q85 5 216.5 103t183.5 178q14 11 23 6t9 -23q-19 -29 -82 -92q-78 -77 -186 -155t-177 -82zM-21 449q0 35 43.5 64t80.5 29 q41 0 112.5 -41.5t114.5 -41.5q28 0 61 18.5t33 43.5l-1 4q9 36 44 30q12 -3 12 -25q0 -48 -43.5 -79.5t-92.5 -31.5q-56 0 -135.5 37t-103.5 37q-51 0 -74 -41q-4 -5 -17 -13.5t-19 -8.5t-10.5 6t-4.5 13z" glyph-name="ntilde" horiz-adv-x="520" unicode=""/><glyph d="M-108 -33q-14 0 -31 16t-17 31q0 24 76 154q14 25 56 82q1 5 23.5 30.5t26.5 25.5q9 0 29 -17q8 10 23 20.5t25 10.5q3 0 16 -10.5t29.5 -23t26.5 -16.5q71 -27 140 -31q40 -3 70.5 1.5t67 16.5t43.5 14q8 2 14 -3.5t7 -14.5q1 -8 -14 -30q-164 -35 -233 -26 q-26 3 -51 9.5t-60.5 18t-50.5 15.5q-13 -45 -97.5 -159t-118.5 -114zM-91 56q38 22 77.5 68t51.5 87q-9 -11 -40 -14q-28 -27 -53 -66.5t-36 -74.5zM45 448q0 13 17 13l1 6q14 22 36 22q19 0 29.5 -12t19.5 -36t13 -31q19 -33 19 -38q0 -11 -13 -20t-25 -9q-11 0 -22 11 t-22 27.5t-17 21.5q-2 2 -9.5 7.5t-13.5 10.5t-7 8q-6 18 -6 19z" glyph-name="ograve" horiz-adv-x="493" unicode=""/><glyph d="M-108 -33q-14 0 -31 16t-17 31q0 24 76 154q14 25 56 82q1 5 23.5 30.5t26.5 25.5q9 0 29 -17q8 10 23 20.5t25 10.5q3 0 16 -10.5t29.5 -23t26.5 -16.5q71 -27 140 -31q40 -3 70.5 1.5t67 16.5t43.5 14q8 2 14 -3.5t7 -14.5q1 -8 -14 -30q-164 -35 -233 -26 q-26 3 -51 9.5t-60.5 18t-50.5 15.5q-13 -45 -97.5 -159t-118.5 -114zM-91 56q38 22 77.5 68t51.5 87q-9 -11 -40 -14q-28 -27 -53 -66.5t-36 -74.5zM58 401q0 12 50.5 62.5t60.5 50.5q22 0 25 -16q8 5 20 7q16 -6 16 -29q0 -27 -15 -37q-2 -1 -34 -13q-46 -18 -87 -59 l-5 -2q-8 0 -19.5 13.5t-11.5 22.5z" glyph-name="oacute" horiz-adv-x="493" unicode=""/><glyph d="M-108 -33q-14 0 -31 16t-17 31q0 24 76 154q14 25 56 82q1 5 23.5 30.5t26.5 25.5q9 0 29 -17q8 10 23 20.5t25 10.5q3 0 16 -10.5t29.5 -23t26.5 -16.5q71 -27 140 -31q40 -3 70.5 1.5t67 16.5t43.5 14q8 2 14 -3.5t7 -14.5q1 -8 -14 -30q-164 -35 -233 -26 q-26 3 -51 9.5t-60.5 18t-50.5 15.5q-13 -45 -97.5 -159t-118.5 -114zM-91 56q38 22 77.5 68t51.5 87q-9 -11 -40 -14q-28 -27 -53 -66.5t-36 -74.5zM-9 405q0 10 3 16q1 2 19 10.5t39 18t25 12.5q9 5 38 28.5t55 40.5t38 17q45 0 45 -49q0 -11 -3.5 -35t-3.5 -36 q0 -9 2 -26.5t2 -26.5v-7q-10 -14 -27 -14q-14 0 -24 10q-3 10 -3 21q0 18 2 54t2 54q-7 -4 -21 -10.5t-19 -9.5q-42 -22 -100 -65q-34 -26 -42 -29q-27 6 -27 26z" glyph-name="ocircumflex" horiz-adv-x="493" unicode=""/><glyph d="M-108 -33q-14 0 -31 16t-17 31q0 24 76 154q14 25 56 82q1 5 23.5 30.5t26.5 25.5q9 0 29 -17q8 10 23 20.5t25 10.5q3 0 16 -10.5t29.5 -23t26.5 -16.5q71 -27 140 -31q40 -3 70.5 1.5t67 16.5t43.5 14q8 2 14 -3.5t7 -14.5q1 -8 -14 -30q-164 -35 -233 -26 q-26 3 -51 9.5t-60.5 18t-50.5 15.5q-13 -45 -97.5 -159t-118.5 -114zM-130 393q0 34 41.5 62t77.5 28q39 0 108 -40t112 -40q26 0 58.5 18t32.5 42l-2 3q9 35 43 29q12 -1 12 -24q0 -46 -42 -76.5t-90 -30.5q-54 0 -130.5 36t-99.5 36q-48 0 -73 -40q-3 -5 -15.5 -13.5 t-18.5 -8.5t-10 6.5t-4 12.5zM-91 56q38 22 77.5 68t51.5 87q-9 -11 -40 -14q-28 -27 -53 -66.5t-36 -74.5z" glyph-name="otilde" horiz-adv-x="493" unicode=""/><glyph d="M-108 -33q-14 0 -31 16t-17 31q0 24 76 154q14 25 56 82q1 5 23.5 30.5t26.5 25.5q9 0 29 -17q8 10 23 20.5t25 10.5q3 0 16 -10.5t29.5 -23t26.5 -16.5q71 -27 140 -31q40 -3 70.5 1.5t67 16.5t43.5 14q8 2 14 -3.5t7 -14.5q1 -8 -14 -30q-164 -35 -233 -26 q-26 3 -51 9.5t-60.5 18t-50.5 15.5q-13 -45 -97.5 -159t-118.5 -114zM-91 56q38 22 77.5 68t51.5 87q-9 -11 -40 -14q-28 -27 -53 -66.5t-36 -74.5zM6 424q0 15 11 27t32 12q16 0 25.5 -10.5t9.5 -22.5q0 -16 -9 -29.5t-26 -13.5q-43 0 -43 37zM184 411q0 16 15 27.5 t32 11.5t27.5 -13.5t10.5 -32.5q0 -15 -13 -26t-29 -11q-43 0 -43 44z" glyph-name="odieresis" horiz-adv-x="493" unicode=""/><glyph d="M69 227q-10 0 -15.5 10.5t-5.5 20.5q0 7 7 5q-1 9 4 18.5t13 9.5q47 0 144 -7t145 -7q14 0 42 2q15 -11 15 -23t-15 -23q-94 8 -178 8q-78 0 -117 -7q-3 0 -17 -3.5t-22 -3.5zM130 123q1 19 15.5 31t34.5 13t32.5 -11t12.5 -36q0 -16 -16 -30.5t-32 -14.5q-22 0 -35 13.5 t-12 34.5zM224 379q0 35 39 35q33 0 33 -34q0 -36 -43 -36q-13 0 -21 10.5t-8 24.5z" glyph-name="divide" horiz-adv-x="437" unicode=""/><glyph d="M-108 -33q-14 0 -31 16t-17 31q0 24 76 154q14 25 56 82q1 5 23.5 30.5t26.5 25.5q9 0 29 -17q8 10 23 20.5t25 10.5q3 0 16 -10.5t29.5 -23t26.5 -16.5q71 -27 140 -31q40 -3 70.5 1.5t67 16.5t43.5 14q8 2 14 -3.5t7 -14.5q1 -8 -14 -30q-164 -35 -233 -26 q-26 3 -51 9.5t-60.5 18t-50.5 15.5q-13 -45 -97.5 -159t-118.5 -114zM-304 140q11 17 13 19q8 8 27.5 20t27.5 20q66 57 170.5 175.5t133.5 148.5q24 0 37 -11q12 -11 14 -34q-2 -2 -12 -14q-17 -17 -56 -52.5t-59 -55.5q-126 -130 -185 -198q-5 -6 -18.5 -23t-21.5 -25 q-33 -33 -62 -6q-13 12 -9 36zM-91 56q38 22 77.5 68t51.5 87q-9 -11 -40 -14q-28 -27 -53 -66.5t-36 -74.5z" glyph-name="oslash" horiz-adv-x="493" unicode=""/><glyph d="M93 -56q-29 -1 -49 19.5t-18 50.5q1 18 14.5 46.5t37.5 68t27 44.5q-32 -29 -74 -65.5t-100.5 -80t-75.5 -42.5q-15 1 -29.5 20t-13.5 34q1 14 26 42q24 28 48 58.5t57.5 76t44.5 60.5l1 5q1 5 4.5 9.5t9.5 9t8 6.5q12 12 31 41.5t22 33.5q5 5 9 5q11 -1 31 -21t19 -31 q0 -4 -3.5 -6.5t-9.5 -6t-8 -4.5q-8 -7 -34 -42.5t-32 -37.5q-27 -8 -31 -8q-76 -83 -114 -159q41 16 134 81t119 96q5 6 20.5 30.5t30.5 49t30 44t21 19.5q12 -1 29 -18t16 -29q0 -5 -6 -11q2 -8 -3 -10q-46 -21 -79 -64q-121 -148 -126 -223q-1 -19 8 -25.5t28 -5.5 q76 4 238.5 102.5t213.5 160.5q16 7 29 -3.5t4 -29.5q-75 -69 -253.5 -178t-251.5 -112zM94 536q0 13 17 13l1 6q14 22 36 22q19 0 29.5 -12t19.5 -36t13 -31q19 -33 19 -38q0 -11 -13 -20t-25 -9q-11 0 -22 11t-22 27.5t-17 21.5q-2 2 -9.5 7.5t-13.5 10.5t-7 8 q-6 18 -6 19z" glyph-name="ugrave" unicode=""/></font>
</defs>
</svg>
